<?xml version="1.0" encoding="utf-8"?>
<!-- Generator: Adobe Illustrator 25.0.1, SVG Export Plug-In . SVG Version: 6.00 Build 0)  -->
<svg version="1.1" id="Layer_1" xmlns="http://www.w3.org/2000/svg" xmlns:xlink="http://www.w3.org/1999/xlink" x="0px" y="0px"
	 viewBox="0 0 500 500" style="enable-background:new 0 0 500 500;" xml:space="preserve">
<style type="text/css">
	.st0{fill:url(#SVGID_1_);}
	.st1{fill:url(#SVGID_2_);}
	.st2{fill:url(#SVGID_3_);}
	.st3{fill:url(#SVGID_4_);}
	.st4{fill:url(#SVGID_5_);}
	.st5{fill:url(#SVGID_6_);}
	.st6{fill:url(#SVGID_7_);}
	.st7{fill:url(#SVGID_8_);}
	.st8{fill:#A60B16;}
</style>
<radialGradient id="SVGID_1_" cx="-3060.2004" cy="-612.3497" r="207.5096" gradientTransform="matrix(0.7885 -0.5759 -0.5363 -0.7343 2319.5234 -2016.3811)" gradientUnits="userSpaceOnUse">
	<stop  offset="0" style="stop-color:#FFDD00"/>
	<stop  offset="6.970000e-02" style="stop-color:#FFD800"/>
	<stop  offset="0.1627" style="stop-color:#FACA00"/>
	<stop  offset="0.2687" style="stop-color:#EFB300"/>
	<stop  offset="0.3845" style="stop-color:#E29300"/>
	<stop  offset="0.5082" style="stop-color:#D06809"/>
	<stop  offset="0.6366" style="stop-color:#BF3316"/>
	<stop  offset="0.6966" style="stop-color:#B60718"/>
	<stop  offset="0.7821" style="stop-color:#CB5928"/>
	<stop  offset="0.8883" style="stop-color:#E7A34E"/>
	<stop  offset="0.9635" style="stop-color:#FAD16F"/>
	<stop  offset="1" style="stop-color:#FFE37D"/>
</radialGradient>
<path class="st0" d="M107.5,80.9c3.1,2.8,4.3,3.5,7.3,4.7c8.9,3.6,17.7,8,25.6,13.4c7.9,5.3,15.2,11.4,21.9,18.2
	c11,11.3,17.9,24.9,27.4,37.4c5.4,7.1,15.8,10.1,21.6,16.9c9.8,11.4,26.2,31.9,43.8,23.7c13-6.1,19.2-23.8,21.7-37.6
	c2.2-12.3-0.6-25.7,0-38.2c0.9-17.5,13.8-34.4,12.9-52c-0.5-10.7-2.1-21.2-2.1-31.9c0-7.6,3.6-15,1.4-22.6c-0.3-1-0.8-1.9-1.5-2.8
	c-2-2.4-6.8-3.1-9.6-3.7c-6.3-1.2-14.6-2-21-2.4c-6.6-0.4-13.3-0.2-20,0.1c-3.5,0.1-5.2,0.4-8.7,0.9c-6,0.7-1.6,5.6,0.5,8.2
	c3.6,4.4,4.9,8.5,7,14c5.7,14.9,3.6,26.2,2.7,41.4c-0.4,7.3-1.5,14.6-1.5,21.9c0,8.2,2.4,21.7-8.8,23.7
	c-10.2,1.8-18.2-8.9-22.6-15.9c-6.1-9.8-13.3-16.5-21.9-24.4c-7.2-6.7-14.8-13-20.8-20.8c-2.7-3.6-4.8-7.3-6.3-11.5
	c-1.2-3.4-3.7-9.5-5.6-10c-2.9-0.8-12.7,7.5-14.9,9.3c-13,10.3-7.2,3.5-28.1,28.3c-1.4,1.6-3,4-3.5,6
	C104,77.4,105.9,79.4,107.5,80.9z"/>
<radialGradient id="SVGID_2_" cx="-3059.7869" cy="-612.3682" r="207.3825" gradientTransform="matrix(0.7885 -0.5759 -0.5363 -0.7343 2319.5234 -2016.3811)" gradientUnits="userSpaceOnUse">
	<stop  offset="0" style="stop-color:#FFDD00"/>
	<stop  offset="6.970000e-02" style="stop-color:#FFD800"/>
	<stop  offset="0.1627" style="stop-color:#FACA00"/>
	<stop  offset="0.2687" style="stop-color:#EFB300"/>
	<stop  offset="0.3845" style="stop-color:#E29300"/>
	<stop  offset="0.5082" style="stop-color:#D06809"/>
	<stop  offset="0.6366" style="stop-color:#BF3316"/>
	<stop  offset="0.6966" style="stop-color:#B60718"/>
	<stop  offset="0.7821" style="stop-color:#CB5928"/>
	<stop  offset="0.8883" style="stop-color:#E7A34E"/>
	<stop  offset="0.9635" style="stop-color:#FAD16F"/>
	<stop  offset="1" style="stop-color:#FFE37D"/>
</radialGradient>
<path class="st1" d="M200.7,279.2c8.4-6.9,16.5-11,22.3-20.7c3.4-5.6,7.7-10.4,5.8-16.5c-0.5-1.7-1.2-3.2-2.2-4.8
	c-5.1-8.1-14.2-13.4-23.2-15c-9.8-1.7-19.7-1.2-29.5-2c-7.4-0.6-15-2.1-22.1-4.3c-4.7-1.5-9.2-3.7-13.8-5.6c-4.7-2-9.4-4.2-14.2-5.8
	c-10.3-3.5-21.3-4.5-31.5-8.3c-6.3-2.3-18.2-5.1-22.1-10.9c-0.6-0.8-0.5-1-0.8-0.2c-0.1,0.2,0,0.7,0,1.1
	c-0.6,10.3,0.5,19.6,2.7,29.7c3,13.3,5.3,16.3,12.7,21.3c10.2,6.9,21.4,9.3,33.2,11.7c11.2,2.3,26.5,3.7,33.4,14.3
	c4.3,6.7-1.1,12.4-6.7,15.5c-7.3,4.1-15.6,5-23.9,6.3c-5.7,0.9-12.8,2-15.4,1.7c-2.3-0.3-3.2,0-3.2,0c-1.2,0.8,11.6,16.4,13,17.8
	c8.1,8.6,20.7,22,34.1,16.7c4.3-1.7,8.7-3.2,12.6-5.6C176.8,306.2,187,290.4,200.7,279.2z"/>
<radialGradient id="SVGID_3_" cx="-3060.2542" cy="-612.712" r="207.9028" gradientTransform="matrix(0.7885 -0.5759 -0.5363 -0.7343 2319.5234 -2016.3811)" gradientUnits="userSpaceOnUse">
	<stop  offset="0" style="stop-color:#FFDD00"/>
	<stop  offset="6.970000e-02" style="stop-color:#FFD800"/>
	<stop  offset="0.1627" style="stop-color:#FACA00"/>
	<stop  offset="0.2687" style="stop-color:#EFB300"/>
	<stop  offset="0.3845" style="stop-color:#E29300"/>
	<stop  offset="0.5082" style="stop-color:#D06809"/>
	<stop  offset="0.6366" style="stop-color:#BF3316"/>
	<stop  offset="0.6966" style="stop-color:#B60718"/>
	<stop  offset="0.7821" style="stop-color:#CB5928"/>
	<stop  offset="0.8883" style="stop-color:#E7A34E"/>
	<stop  offset="0.9635" style="stop-color:#FAD16F"/>
	<stop  offset="1" style="stop-color:#FFE37D"/>
</radialGradient>
<path class="st2" d="M328.9,131.5c13.7-13.8,21.3-25.7,27.6-41c3-7.3,5.6-14.8,8.2-22.3c1.5-4.3,5.3-8.9,4.1-13.4
	c-1.9-7.1-17.1-15.4-19.5-16.8c-2.8-1.6-3.2,5.9-3.3,8.4c0,4.7-0.3,9.4-1.3,14c-0.9,3.8-6.5,14.3-12,7.6c-4.5-5.5-3.6-13.4-3.1-19.9
	c0.3-4,0-7.9,0.5-11.9c0.4-2.8,2.4-6.5,0.8-9.1c-1.3-2.1-6.3-4-8.3-5.3c-2.4-1.6-5.5-2.1-8.1-3.3c-4.2-2-9.7-2.9-14.3-4.3
	c-3.8-1.2-0.5,6.4,1.1,10.2c6.4,15.2,5.3,30.5,4.1,46.5c-0.9,12.5-7.1,24.1-9.8,36.3c-2,8.8-2.3,24.7,5.1,31.5
	C308.3,145.4,322,138.4,328.9,131.5z"/>
<radialGradient id="SVGID_4_" cx="-3058.7791" cy="-613.8633" r="208.9287" gradientTransform="matrix(0.7885 -0.5759 -0.5363 -0.7343 2319.5234 -2016.3811)" gradientUnits="userSpaceOnUse">
	<stop  offset="0" style="stop-color:#FFDD00"/>
	<stop  offset="6.970000e-02" style="stop-color:#FFD800"/>
	<stop  offset="0.1627" style="stop-color:#FACA00"/>
	<stop  offset="0.2687" style="stop-color:#EFB300"/>
	<stop  offset="0.3845" style="stop-color:#E29300"/>
	<stop  offset="0.5082" style="stop-color:#D06809"/>
	<stop  offset="0.6366" style="stop-color:#BF3316"/>
	<stop  offset="0.6966" style="stop-color:#B60718"/>
	<stop  offset="0.7821" style="stop-color:#CB5928"/>
	<stop  offset="0.8883" style="stop-color:#E7A34E"/>
	<stop  offset="0.9635" style="stop-color:#FAD16F"/>
	<stop  offset="1" style="stop-color:#FFE37D"/>
</radialGradient>
<path class="st3" d="M79.6,175.5c18,4.5,34.4,13.5,56.1,16c11.6,1.3,22.8,4.7,34.5,1.8c8.9-2.3,14.7-10.6,12.9-19.5
	c-0.5-2.5-1.4-4.9-2.4-7.2c-3.6-7.9-11.2-13.2-15-21.3c-6.5-14-20.1-24.7-34.5-30.5c-11.7-4.8-20.7-13.1-29.4-21.2
	c-0.9-0.8-3.9-5.1-4.7-5.1c-2.3,0-10.3,18.4-11.4,20.4c-3.2,6.2-3.6,12.4,2.6,16.8c8.7,6.2,19,10.4,27.8,16.8
	c4.2,3.1,14.6,8.7,8.4,13.9c-6,5.1-20.7,1.6-25.9-1.4c-5.6-3.4-9.5-7.3-14.5-11.4c-2.2-1.8-6.1-4.4-8.5-5.7
	c-0.9-0.4-3.4,12.2-3.6,13.5c-1,5.2-2,10.4-1.2,15.7C71.6,172.8,74.5,174.2,79.6,175.5z"/>
<radialGradient id="SVGID_5_" cx="-3059.9363" cy="-612.3672" r="207.1596" gradientTransform="matrix(0.7885 -0.5759 -0.5363 -0.7343 2319.5234 -2016.3811)" gradientUnits="userSpaceOnUse">
	<stop  offset="0" style="stop-color:#FFDD00"/>
	<stop  offset="6.970000e-02" style="stop-color:#FFD800"/>
	<stop  offset="0.1627" style="stop-color:#FACA00"/>
	<stop  offset="0.2687" style="stop-color:#EFB300"/>
	<stop  offset="0.3845" style="stop-color:#E29300"/>
	<stop  offset="0.5082" style="stop-color:#D06809"/>
	<stop  offset="0.6366" style="stop-color:#BF3316"/>
	<stop  offset="0.6966" style="stop-color:#B60718"/>
	<stop  offset="0.7821" style="stop-color:#CB5928"/>
	<stop  offset="0.8883" style="stop-color:#E7A34E"/>
	<stop  offset="0.9635" style="stop-color:#FAD16F"/>
	<stop  offset="1" style="stop-color:#FFE37D"/>
</radialGradient>
<path class="st4" d="M422.7,180.7c-6.6,3.7-13.4,10.6-19.9,14.8c-6.3,4.1-13.5,6.7-21.1,6.4c-6.6-0.2-13.7-3.2-15.8-9.9
	c-3.3-10.3,4.2-20.7,10.5-28c1.9-2.2,3.8-4.3,5.8-6.4c7-7.7,12.4-16.5,16.4-26.1c1.1-2.7,2.2-5.5,3.1-8.4c1-3.1,0.5-2,1.6-5.1
	c3.2-9.2-0.1-18.2-4.6-25.9c-3-5.2-7.7-12.1-10.7-17.3c-1.8-3-5.8-8.1-10-7.9c-1.4,0.1-1.7,1.8-2.8,4.2c-1.9,4-2.5,10.6-3.8,14.8
	c-4.4,14.1-8.7,23.5-16,36.4c-6.4,11.4-13.8,22.1-22.7,31.7c-14.3,15.4-35.3,29.6-40.2,51.3c-1.2,5.3-0.9,10.9,1.6,15.8
	c6,11.7,21.4,13,33.7,14.4c14.7,1.7,26.3,7.7,41,5.9c11.6-1.4,20.7-5.5,32.2-7.3c2.8-0.4,9.5-2.1,11.5-4.1c5.1-5.1,7-11.3,8-18.1
	C422.2,202.7,424.8,189.7,422.7,180.7z"/>
<radialGradient id="SVGID_6_" cx="-3059.9363" cy="-610.2784" r="209.9089" gradientTransform="matrix(0.7885 -0.5759 -0.5363 -0.7343 2319.5234 -2016.3811)" gradientUnits="userSpaceOnUse">
	<stop  offset="0" style="stop-color:#FFDD00"/>
	<stop  offset="6.970000e-02" style="stop-color:#FFD800"/>
	<stop  offset="0.1627" style="stop-color:#FACA00"/>
	<stop  offset="0.2687" style="stop-color:#EFB300"/>
	<stop  offset="0.3845" style="stop-color:#E29300"/>
	<stop  offset="0.5082" style="stop-color:#D06809"/>
	<stop  offset="0.6366" style="stop-color:#BF3316"/>
	<stop  offset="0.6966" style="stop-color:#B60718"/>
	<stop  offset="0.7821" style="stop-color:#CB5928"/>
	<stop  offset="0.8883" style="stop-color:#E7A34E"/>
	<stop  offset="0.9635" style="stop-color:#FAD16F"/>
	<stop  offset="1" style="stop-color:#FFE37D"/>
</radialGradient>
<path class="st5" d="M245.3,295.4c-0.9-3.1-2.3-6.5-4.4-9.2c-1.8-2.4-5.6-4.3-8.6-5.1c-6.9-1.8-15.7,5.5-20.7,9.2
	c-9.7,7.2-17.4,16.8-27.7,23.1c-9.7,5.9-18.2,10.7-29,14.3c-1.7,0.6-6.5,1.9-4.9,3.5c1.3,1.5,2.8,2.1,4.5,3.2c1.7,1.1,3.3,2.3,5,3.3
	c2.3,1.4,4.1,2.6,6.5,4c3.6,2,7.7,4.1,12,3.8c5.6-0.4,10.6-5.4,15.3-8.1c6.5-3.7,9.2-6.1,14.8-10.8c3.4-3,8.8-6.2,8.8,0.9
	c0,6.5-1.7,10.8-6.4,15c-2.2,2-4.7,3.5-7.3,5c-2.3,1.3-7.1,3-9,4.9c2.1,2.1,7.1,2.8,9.8,3.6c2.8,0.8,5.4,1.2,8.3,1.7
	c4,0.8,7.2,0.7,11.3,1.2c6.1,0.8,6.7-3,9.1-7.5c3.5-6.4,7.9-12.4,10.1-19.4C246.2,320.9,248.6,306.8,245.3,295.4z"/>
<radialGradient id="SVGID_7_" cx="-3059.938" cy="-612.3721" r="207.157" gradientTransform="matrix(0.7885 -0.5759 -0.5363 -0.7343 2319.5234 -2016.3811)" gradientUnits="userSpaceOnUse">
	<stop  offset="0" style="stop-color:#FFDD00"/>
	<stop  offset="6.970000e-02" style="stop-color:#FFD800"/>
	<stop  offset="0.1627" style="stop-color:#FACA00"/>
	<stop  offset="0.2687" style="stop-color:#EFB300"/>
	<stop  offset="0.3845" style="stop-color:#E29300"/>
	<stop  offset="0.5082" style="stop-color:#D06809"/>
	<stop  offset="0.6366" style="stop-color:#BF3316"/>
	<stop  offset="0.6966" style="stop-color:#B60718"/>
	<stop  offset="0.7821" style="stop-color:#CB5928"/>
	<stop  offset="0.8883" style="stop-color:#E7A34E"/>
	<stop  offset="0.9635" style="stop-color:#FAD16F"/>
	<stop  offset="1" style="stop-color:#FFE37D"/>
</radialGradient>
<path class="st6" d="M412,243.1c-0.7-0.8-2.5-0.2-3.3,0c-4.6,0.8-9,4.2-13.6,5.6c-5.5,1.7-11.3,2-17,2.6
	c-10.9,1.1-22.1,3.5-33.1,2.3c-4.4-0.5-8.9-2.1-13.4-1.8c-11.5,0.6-12.1,14.4-6,21.2c6.5,7.2,17.2,11.5,25.9,15.1
	c6,2.5,15.6,8.7,21.8,10.7c2.8,0.9,3.8,1.2,6.5-0.4c5.1-3.2,8.3-8.5,11.4-13.5c0.6-0.9,3.7-4.1,1.8-4.6c-2.5-0.7-5.6,0-8.2-0.1
	c-2.1-0.1-4.2,0-6.2-0.3c-1.9-0.3-4.6-0.6-5.8-2.3c-1.1-1.5,0-3.8,1.2-4.9c2-1.7,4.8-1.9,7.3-2.3c5.2-0.7,18.4-3.5,21.8-7.6
	c2.2-2.6,4-5.4,5.3-8.6c0.6-1.6,1.6-3.4,2.2-5C411,248.1,412.9,244.4,412,243.1C412.1,243.2,412.1,243.2,412,243.1z"/>
<radialGradient id="SVGID_8_" cx="-3059.9353" cy="-612.3702" r="207.1579" gradientTransform="matrix(0.7885 -0.5759 -0.5363 -0.7343 2319.5234 -2016.3811)" gradientUnits="userSpaceOnUse">
	<stop  offset="0" style="stop-color:#FFDD00"/>
	<stop  offset="6.970000e-02" style="stop-color:#FFD800"/>
	<stop  offset="0.1627" style="stop-color:#FACA00"/>
	<stop  offset="0.2687" style="stop-color:#EFB300"/>
	<stop  offset="0.3845" style="stop-color:#E29300"/>
	<stop  offset="0.5082" style="stop-color:#D06809"/>
	<stop  offset="0.6366" style="stop-color:#BF3316"/>
	<stop  offset="0.6966" style="stop-color:#B60718"/>
	<stop  offset="0.7821" style="stop-color:#CB5928"/>
	<stop  offset="0.8883" style="stop-color:#E7A34E"/>
	<stop  offset="0.9635" style="stop-color:#FAD16F"/>
	<stop  offset="1" style="stop-color:#FFE37D"/>
</radialGradient>
<path class="st7" d="M360.5,303.6c-13.9-2.9-27.1-9.1-39.1-16.5c-10.8-6.6-21.6-22.2-34.9-23c-24.4-1.3-22.1,38.2-25.6,53.9
	c-1.3,5.9-3.6,11.5-6.8,16.8c-4.3,7.2-9.9,14-14.7,20.8c-0.7,0.9-2.1,3.1-1.8,3.4c1,1.3,3.8,1.1,5.2,1.1c11.4-0.5,21.5,1.3,34.4-3.3
	c2.3-0.8,4.9-1.3,6.6-3.1c3.1-3.4,3.2-11.5,4.7-15.7c1.8-4.9,3.8-9.8,7.6-13.6c4.5-4.5,10.4-5.7,16.3-3.7
	c5.3,1.8,12.8,9.6,18.2,11.5c1.8,0.6,3.8,1.3,5.7,1.2c3.3-0.2,6.3-2.5,8.9-4.3c3.2-2.1,6-3.7,9.1-5.9c3.1-2.2,7.1-5.8,10-8.3
	c2.8-2.4,6.8-6.9,9-9.8C374.2,304,361.2,303.8,360.5,303.6z"/>
<path d="M249.7,441.8l-27.9,53.7h10l3.9-8.3h24.4c1.8,9.3,12.9,9.3,21.7,8.8l-12.7-58.9L249.7,441.8z M239.3,477.9l14.1-27.2
	l4.8,27.2H239.3z"/>
<path d="M318.4,486.7c-9.8-0.3-14.9-4.3-14.9-15c0-9.8,5.3-25.6,17.1-25.6c5.4,0,16.3,0,16.3,0l2.4-9.9c0,0-15,0-22.6,0
	c-18.9,0-33.5,16.7-33.5,35.1c0,16.7,12,25.8,27.9,25.5h22.5l7.1-36.1l-17.8,3.3L318.4,486.7z"/>
<path d="M426.3,471.5c5.1,0,15.9-0.1,15.9-0.1l4.3-10.8c-3.5,0-10.8,0-14.3,0c-6.4,0-11.1-0.3-11.1-7.1c0-7.1,9.1-6.3,10.7-6.3
	c5.6,0,14,0,14,0l4.8-10c0,0-23.5-0.1-26-0.1c-8.1,0-16.6,1.9-21.1,10.4c-3,5.8-2.2,12.9,2.6,16.6c-4.1,1.8-8.6,7.1-8.6,13.9
	c0,10.4,9.9,17.6,19.3,17.6h24.3l4-11c0,0-11.5-0.1-17.2-0.1c-4.7,0-11.3,0.7-11.3-6.2C416.5,471.7,421.5,471.5,426.3,471.5z"/>
<path d="M204.9,484.5c-4.7,0-11.3,0.7-11.3-6.2c-0.1-6.6,5-6.8,9.8-6.8c5.1,0,15.9-0.1,15.9-0.1l4.3-10.8c-3.5,0-10.8,0-14.3,0
	c-6.4,0-11.1-0.3-11.1-7.1c0-7.1,9.1-6.3,10.7-6.3c5.6,0,14,0,14,0l4.8-10c0,0-23.5-0.1-26-0.1c-8.1,0-16.7,1.9-21.1,10.4
	c-3,5.8-2.2,12.9,2.5,16.6c-4.1,1.8-8.6,7.1-8.6,13.9c0,10.4,9.9,17.6,19.3,17.6h24.3l4-11C222.1,484.5,210.6,484.5,204.9,484.5z"/>
<path d="M389.1,437.7l-7.6,38c-1.6,7.9-4.5,11.1-12.8,11.1c-4.3,0-9-2-8.5-6.8c0.2-2.5,7.6-37.7,8.7-43.1l-18.6,4
	c0,0-8.1,36.4-8,40.4c0.3,12.6,10.6,15.4,21.2,15.4c10.7,0,22.2-2.5,26.8-13.1c1.9-4.3,8.7-42.9,9.4-45.9H389.1z"/>
<path d="M160,437.6l-19.2,3.3c0,0-7.4,38.4-8.2,42.6c-2.2,8.8,3.9,12,12.9,12h22.3l4.8-11.9h-22.3L160,437.6z"/>
<path d="M73.4,441.8l-27.9,53.7h10l3.9-8.3h24.4c1.8,9.3,12.9,9.3,21.7,8.8l-12.7-58.9L73.4,441.8z M63,477.9l14.1-27.2l4.8,27.2H63
	z"/>
<polygon points="106.2,473 128.7,473 131,460.5 103.5,460.5 "/>
<path d="M157.9,414.4c17.2,0,31.2-7.2,31.2-16c0-8.8-14-16-31.2-16c-17.2,0-31.2,7.2-31.2,16C126.7,407.2,140.6,414.4,157.9,414.4z
	 M163.8,406.5c-0.5,1.2-1.4,3.8-3.5,4.8c-0.6,0.3-1.4,0.5-2.1,0.5c-0.1,0-0.3,0-0.3,0c-5.8,0-11.1-0.8-15.6-2.2c0,0-0.1,0-0.2-0.1
	c-0.4-0.1-0.6-0.3-0.6-0.5c0-0.2,0.1-0.4,0.3-0.5c0.1,0,0.2-0.1,0.3-0.2c1-0.9,4.2-3.1,10-5.4c2.1-0.8,4.7-1.8,7.4-2.3
	C161,400.2,166.9,399.3,163.8,406.5z M179.5,390.4c0.1-0.2,0.3-0.4,0.5-0.4c0.2,0,0.3,0,0.7,0.2c3.7,2.2,5.8,5.1,5.8,8.1
	c0,5.5-7.1,10.2-17.2,12.3c-0.7,0.1-1.1,0.1-1.2,0c-0.1-0.1-0.1-0.3,0-0.5c0.1-0.1,0.1-0.2,0.3-0.4c5.5-6.5,9.7-16.1,10.9-18.9
	C179.4,390.7,179.5,390.5,179.5,390.4z M152.1,390.2c0.5-1.2,1.4-3.8,3.5-4.8c0.6-0.3,1.4-0.5,2.1-0.5c0.2,0,0.3,0,0.3,0
	c5.8,0,11.1,0.8,15.6,2.2c0,0,0.1,0.1,0.2,0.1c0.4,0.1,0.6,0.3,0.6,0.6c0,0.2-0.1,0.4-0.3,0.5c-0.1,0.1-0.2,0.1-0.3,0.2
	c-1,0.9-4.2,3.1-10,5.4c-2.1,0.8-4.7,1.8-7.3,2.3C154.9,396.5,149,397.4,152.1,390.2z M146.4,386.1c0.6-0.1,1.1-0.1,1.2,0
	c0.1,0.1,0.1,0.3,0,0.5c-0.1,0.1-0.1,0.2-0.3,0.4c-5.5,6.5-9.7,16.1-10.9,18.9c-0.1,0.2-0.2,0.4-0.2,0.5c-0.1,0.2-0.3,0.4-0.5,0.4
	c-0.1,0-0.4,0-0.7-0.2c-3.7-2.3-5.8-5.1-5.8-8.1C129.2,392.9,136.3,388.1,146.4,386.1z"/>
<polygon points="207,400.6 216.8,400.6 216.8,409.8 222.3,409.8 222.3,387 222,387 216.8,387 216.8,395.7 207,395.7 207,387 
	201.6,387 201.6,409.8 207,409.8 "/>
<polygon points="233.8,409.8 239.2,409.8 239.2,401.9 248.6,387 248.1,387 242.2,387 236.5,396 230.9,387 224.4,387 233.8,401.9 "/>
<path d="M270.3,408.6c0.8-0.8,1.3-2,1.3-3.4V387h-0.3h-5.2v16.7c0,0.6-0.5,1.1-1.2,1.1h-8.7V387h-5.4v22.8h16
	C268.3,409.8,269.5,409.4,270.3,408.6z"/>
<path d="M291.9,393.1v16.8h5.4v-18.2c0-1.4-0.4-2.6-1.3-3.4c-0.8-0.8-2-1.3-3.4-1.3h-16.1v22.8h5.4v-17.9h8.7
	C291.4,391.9,291.9,392.5,291.9,393.1z"/>
<path d="M321.8,408.6c0.8-0.8,1.3-2,1.3-3.4v-13.5c0-1.4-0.4-2.6-1.3-3.4c-0.8-0.8-2-1.3-3.4-1.3h-16.1v22.8h16.1
	C319.9,409.8,321,409.4,321.8,408.6z M317.7,403.7c0,0.6-0.4,1.2-1.1,1.2h-8.7v-12.9h8.7c0.7,0,1.2,0.5,1.2,1.2L317.7,403.7
	L317.7,403.7z"/>
<path d="M333.3,402.8h9.9v7.1h5.4V387h-0.3h-15.8c-1.4,0-2.6,0.4-3.4,1.3c-0.8,0.8-1.3,2-1.3,3.4v18.2h5.4V402.8z M333.3,393.1
	c0-0.5,0.4-1.1,1.1-1.1h8.7v5.9h-9.9V393.1z"/>
<polygon points="359.3,387 359.1,387 353.9,387 353.9,409.8 359.3,409.8 "/>
<path class="st8" d="M105.4,87.9c3.1,2.6,4.4,3.3,7.4,4.4c8.9,3.2,17.7,7.2,25.7,12.2c8,4.9,15.4,10.6,22.2,17.1
	c11.3,10.7,18.6,23.8,28.5,35.8c5.6,6.8,16,9.3,22,15.8c8.3,9,21.3,23.9,35.2,23.9c-14.1-0.4-26.8-16.1-35-25.6
	c-5.8-6.8-16.2-9.8-21.6-16.9c-9.5-12.5-16.4-26.1-27.4-37.4c-6.6-6.8-14-12.9-21.9-18.2c-7.9-5.3-16.7-9.7-25.6-13.4
	c-3-1.2-4.3-1.9-7.3-4.7c-1.1-1-2.3-2.3-2.8-3.7c-1.1,1.5-2.1,3.4-2.5,5C101.8,84.6,103.7,86.4,105.4,87.9z"/>
<path class="st8" d="M138,210.3c4.5,1.9,9.1,4.1,13.8,5.6c7.1,2.3,14.7,3.7,22.1,4.3c9.9,0.8,19.7,0.3,29.5,2
	c9,1.6,18.2,6.9,23.2,15c0.9,1.5,1.6,3.1,2.1,4.7c-0.1-0.4-0.2-0.8-0.3-1.2c-0.5-1.6-1.3-3.1-2.2-4.6c-10-14.9-21.5-15.9-38.2-17.2
	c-17.8-1.3-26.3-4.5-34.5-7.1c-16.1-4.9-24.4-12.1-40.9-15.2c-12-2.3-16.6-4.1-24.3-6.1c-10.3-2.7-13.3-8.3-17.5-8c-0.6,0-1,1-1.2,2
	c0.1,0,0.2,0.3,0.5,0.7c4,5.8,15.9,8.6,22.1,10.9c10.2,3.7,21.2,4.7,31.5,8.3C128.6,206.1,133.3,208.3,138,210.3z"/>
<path class="st8" d="M228.8,242C228.8,241.9,228.8,241.9,228.8,242c0,0.1,0.1,0.2,0.1,0.3C228.8,242.2,228.8,242.1,228.8,242z"/>
<path class="st8" d="M75.2,178.1c16.6,6.6,38.8,13,60.1,16.2c11.1,1.7,22.5,2.6,33.7-0.6c0.6-0.2,1.1-0.3,1.6-0.5
	c-0.2,0-0.3,0.1-0.4,0.1c-11.7,2.9-22.9-0.4-34.5-1.8c-21.7-2.5-38-11.5-56.1-16c-3.8-1-6.4-2-7.9-4.8
	C72,174.2,72.7,177.1,75.2,178.1z"/>
<path class="st8" d="M229.6,30.1c6.2,14.5,4.6,25.7,4.3,40.6c-0.1,7.2-0.9,14.5-0.6,21.6c0.3,6.4,2.1,16.2-2.7,21.1
	c8.6-3.4,6.6-15.5,6.5-23.1c0-7.3,1-14.6,1.5-21.9c0.9-15.1,3-26.5-2.7-41.4c-2.1-5.4-3.4-9.5-7-14c-1.1-1.4-3-3.5-3.4-5.2
	c-1.2,0.2-2.4,0.4-4.1,0.7c-5.9,1-1.3,5.6,0.8,8C225.8,20.8,227.3,24.8,229.6,30.1z"/>
<path class="st8" d="M344.7,60.4c1.1-4.6,1.3-9.3,1.3-14c0-2.2,0.4-8.6,2.5-8.6c-2.5-1.5-4.7-2.5-5.6-3c-2.8-1.4-2.7,5.9-2.6,8.3
	c0.3,4.5,0.4,9.1-0.3,13.6c-0.2,1.5-2,7.4-4.4,13.3C340,71,343.9,63.5,344.7,60.4z"/>
<path class="st8" d="M381.8,201.9c7.6,0.2,14.8-2.4,21.1-6.4c6.2-4,12.8-10.6,19.2-14.3c-0.6-2.1-1.9-3-4.4-4.4
	c-6.2,3.6-9.9,8.8-15.7,13.3c-7,5.5-18.5,9.2-26.8,10.7C377.3,201.5,379.6,201.9,381.8,201.9z"/>
<path class="st8" d="M293,103.4c-2.6,18.4,0.1,28.9,7.7,35c-7.4-6.8-7.1-22.6-5.1-31.5c2.7-12.1,8.9-23.8,9.8-36.3
	c1.2-16,2.3-31.3-4.1-46.5c-1.3-3.1-3.7-8.6-2.5-10c-1.3-0.4-2.8-0.8-4.6-1.2c-3.7-0.9-0.1,6.2,1.8,9.8c7.2,14.4,5.3,29.3,5.3,44.9
	C301.2,79.9,294.7,91.5,293,103.4z"/>
<path class="st8" d="M332.9,154c8.9-9.6,16.3-20.3,22.7-31.7c7.2-12.9,11.6-22.3,16-36.4c1.3-4.2,1.9-10.8,3.8-14.8
	c1.1-2.2,1.4-3.8,2.5-4.1c-1.7-1.6-3.8-2.7-5.8-2.6c-1.3,0-1.5,1.7-2.5,4.1c-1.7,4-1.9,10.4-3,14.6c-3.6,13.9-7.4,23.2-13.8,35.9
	c-5.7,11.2-12.4,21.8-20.6,31.3c-13.1,15.2-35.6,33.6-39.3,55C297.6,183.6,318.6,169.4,332.9,154z"/>
<path class="st8" d="M89.4,132.1c8.6,5.8,18.6,9.1,27.2,15.1c2.8,1.9,7.5,5.1,8.5,8.5c4.5-5-5.1-10.2-9.1-13.2
	c-8.8-6.4-19.1-10.6-27.8-16.8c-3.1-2.2-4.5-4.9-4.8-7.8C83.3,122.8,84.2,128.5,89.4,132.1z"/>
<path class="st8" d="M391.5,278.5c-2.5-0.5-4.1-0.5-6.7-0.8c-2.8-0.3-4.5-0.9-6.2-1.1c-0.8-0.1-3.5-0.6-6.2-1.3
	c-0.2,0.8-0.1,1.5,0.3,2.2c1.2,1.7,3.9,2,5.8,2.3c2,0.3,4.2,0.2,6.2,0.3c2.6,0.1,5.7-0.5,8.2,0.1c0.2,0.1,0.3,0.1,0.4,0.2
	C393.4,279.6,392.8,278.8,391.5,278.5z"/>
<path class="st8" d="M162.3,315.3c2.6-1.1,5.2-2.4,7.7-4.2c14.2-10.1,17.2-21.3,34.4-34.7c1.9-1.5,3.7-2.8,5.3-4.1
	c-2.9,2.2-6,4.4-9.1,7C187.2,290.3,177,305.8,162.3,315.3z"/>
<path class="st8" d="M284.5,258.4c-8.9-0.6-15.2,5.2-18.1,12.9c-3.5,9-4.1,18.7-5.2,28.2c-0.9,7.7-1.7,15.7-3.6,23.2
	c-1,4.2-3,7.7-5.1,11.5c-2.1,3.8-3.9,7.7-6.1,11.4c-0.4,0.8-0.9,1.5-1.4,2.3c3.2-4.3,6.4-8.7,9.1-13.2c3.1-5.2,5.4-10.8,6.8-16.8
	c3.5-15.6,1.2-55.2,25.6-53.9c13.3,0.7,24.2,16.4,34.9,23c4.2,2.6,8.6,5,13.1,7.2c-5.5-3.3-10.5-7.1-15.3-10.9
	C309.1,275.2,298,259.4,284.5,258.4z"/>
<path class="st8" d="M409.9,238.5c-0.7-0.7-2.5,0-3.3,0.2c-4.6,1-8.7,4.7-13.2,6.3c-5.4,2-11.2,2.6-16.8,3.5
	c-10.8,1.7-22,2.5-33.1,1.9c-4.4-0.3-9.4-0.1-13.9,0.3c-11.5,1.2-11.4,15-4.9,21.5c0.5,0.4,1,0.9,1.5,1.3c-0.2-0.2-0.4-0.4-0.6-0.6
	c-6.1-6.8-5.5-20.6,6-21.2c4.5-0.2,9,1.3,13.4,1.8c11,1.2,22.2-1.3,33.1-2.3c5.7-0.6,11.5-0.9,17-2.6c4.5-1.4,8.9-4.8,13.6-5.6
	c0.8-0.1,2.6-0.7,3.3,0c0.3-1.1-1.2-3.4-2-4.5C410,238.6,410,238.5,409.9,238.5z"/>
<path class="st8" d="M335.2,280.5c5.1,3.3,10.7,6.1,15.8,7.9c2,0.7,4.7,1.9,7.8,3.3c-2.7-1.4-5.2-2.8-7.3-3.6
	C346.3,285.9,340.5,283.5,335.2,280.5z"/>
<path class="st8" d="M147.3,258.7c-7.8-6.6-20-7.9-29.3-9.8c-6.8-1.4-13.4-2.8-19.7-5c6.8,2.7,13.9,4.3,22.2,6.4
	C128.7,252.5,139.5,253.8,147.3,258.7z"/>
<path class="st8" d="M246.8,309.8c0.4-2.8,0.6-5.5,0.6-8.1c0-7.1-3.2-14.2-8.1-19.2c-2.1-2.1-5.9-3.6-9.3-4.1
	c-6.7-1.1-17.4,6.6-22.1,10.6c-9,7.6-15.6,15.5-25.2,22.3c-7.9,5.6-12.7,9.8-20.6,13.7c7.7-3.2,14.4-7.1,21.9-11.6
	c10.3-6.3,18.1-16,27.7-23.1c5-3.7,13.8-11,20.7-9.2c3,0.8,6.7,2.7,8.6,5.1c2.1,2.7,3.5,6.1,4.4,9.2
	C246.6,299.9,247,304.8,246.8,309.8z"/>
<path class="st8" d="M144,272.2c-8,3.6-16.4,4.2-24.4,5.7c-5.5,1.1-13.4,2.4-15.9,2.2c-2.2-0.1-1.5,6.6-1.6,6.6c0,0,1-0.3,3.2,0
	c2.6,0.3,9.7-0.9,15.4-1.7c8.3-1.2,16.7-2.2,23.9-6.3c4.9-2.7,9.7-7.5,7.9-13.1C151,267.3,147.9,270.4,144,272.2z"/>
<path class="st8" d="M209.8,339.2c-2,2.2-11.4,9.4-13.6,11.5c-0.1,0.1-0.1,0.2-0.2,0.2c2.2-1.4,5.3-2.5,7.1-3.5c2.6-1.5,5.1-3,7.3-5
	c4.7-4.2,6.4-8.5,6.4-15c0-0.6-0.1-1.1-0.1-1.6C215.3,330.8,212.9,335.8,209.8,339.2z"/>
</svg>
