<?xml version="1.0" encoding="utf-8"?>
<!-- Generator: Adobe Illustrator 25.0.1, SVG Export Plug-In . SVG Version: 6.00 Build 0)  -->
<svg version="1.1" id="Layer_1" xmlns="http://www.w3.org/2000/svg" xmlns:xlink="http://www.w3.org/1999/xlink" x="0px" y="0px"
	 viewBox="0 0 500 500" style="enable-background:new 0 0 500 500;" xml:space="preserve">
<style type="text/css">
	.st0{fill:#FFFFFF;stroke:#000000;stroke-width:2.0513;}
	.st1{fill:#F5D77F;}
	.st2{fill:#0AB9D8;}
	.st3{fill:#DAA813;}
	.st4{fill:#004A79;}
</style>
<g id="layer2">
	<rect id="rect32" x="77.6" y="21" class="st0" width="343.7" height="58.6"/>
</g>
<g id="g18" transform="translate(-658.96382,-359.74621)">
	<g id="g22" transform="translate(29.966607,227.74621)">
		<path id="path30" class="st1" d="M877,599.8c-0.5,0-34.3-19.2-75.3-42.6l-74.4-42.6l-0.1-125.3l-0.1-125.3H877H1027l-0.1,125.3
			l-0.1,125.3l-74.4,42.6C911.4,580.6,877.5,599.8,877,599.8z M865.3,561.7c0.5-0.1,0.6-7.4,0.7-62.8l0.1-62.7l33-18.8
			c18.1-10.3,33.2-18.8,33.4-18.9c0.3-0.1,0.4,20.8,0.4,68.4c0,60.1,0.1,68.5,0.6,68.7c0.3,0.1,5.7-2.6,12.5-6.4l11.9-6.6l0.1-69.4
			l0.1-69.4l15.6-8.9l15.6-8.9l0.1-16.2l0.1-16.2l-1.6,0.6c-0.9,0.4-7.8,4.2-15.5,8.6c-7.7,4.4-14,8-14.1,8s-0.2-7.7-0.2-17.1v-17.1
			h21.7h21.7v-12.6v-12.6h-34.2h-34.2v37v37l-9.8,5.6l-9.8,5.6l-0.1-42.6l-0.1-42.6h-52.2h-52.2l1.1,1.7c0.6,0.9,5,6.6,9.7,12.6
			l8.6,10.9h6.4h6.4v50.7v50.7l-31.4,17.9l-31.4,17.9l-0.1-81.2l-0.1-81.2h-12.6h-12.6v104.1V500l1.1,0c0.7,0,16.1-8.5,44-24.3
			l42.9-24.3l0.2,48.4l0.2,48.4l11.8,6.7C859.4,558.8,864.9,561.8,865.3,561.7z M868.3,402.7l-2.2,1.2v-43.7v-43.7h11.1h11.1l0,37.4
			l0,37.4l-9,5.1C874.5,399.2,869.5,402,868.3,402.7L868.3,402.7z"/>
		<path id="path28" class="st2" d="M877,224.1H700.7v-43.5V137H877h176.3v43.5v43.5H877z M827.4,202.6c0.4,0,1.2-0.2,1.8-0.5
			s1.3-1,1.7-1.6c0.4-0.8,0.6-2.8,0.6-7.5v-6.4h7h7v7c0,6.4,0.1,7.1,0.8,7.8c0.4,0.4,1.3,0.9,1.9,1.1c0.6,0.1,1.6,0,2.3-0.3
			c0.7-0.3,1.5-1.1,1.9-1.7c0.5-1,0.6-3.4,0.5-15.7l-0.1-14.5l-1.2-2.5c-0.6-1.4-2-3.4-3.1-4.4c-1.1-1-3-2.4-4.4-3
			c-2.1-0.9-3-1.1-5.8-1.1c-2.7,0-3.7,0.2-5.9,1.2c-1.6,0.7-3.3,1.9-4.4,3.1c-1,1.1-2.2,2.7-2.6,3.6c-0.4,0.9-1,2.6-1.3,3.8
			c-0.3,1.4-0.5,7.2-0.4,15.5c0,10.2,0.1,13.5,0.6,14.3c0.3,0.5,1,1.2,1.5,1.5C826.3,202.3,827,202.6,827.4,202.6z M838.5,178.7h-7
			v-4.1c0-2.5,0.2-4.7,0.6-5.5c0.3-0.7,1.2-1.9,2.1-2.6c0.8-0.7,2.1-1.4,2.9-1.6s2.1-0.1,2.9,0c0.8,0.1,2.1,0.9,2.9,1.6
			c0.8,0.7,1.7,1.9,2.1,2.6c0.3,0.8,0.6,2.9,0.6,5.5v4.1H838.5z M868.3,202.6c0.4,0,1.3-0.2,1.9-0.6c0.6-0.3,1.4-1.1,1.6-1.7
			c0.3-0.7,0.5-3.4,0.5-7.5v-6.4h7.2c4.7,0,7.6-0.2,8.3-0.5c0.6-0.3,1.3-1,1.7-1.6c0.3-0.6,0.6-1.4,0.6-1.8s-0.2-1.1-0.5-1.7
			c-0.3-0.6-1-1.3-1.6-1.7c-0.9-0.4-2.9-0.6-8.4-0.6h-7.2v-3.6c0-2.9,0.2-3.9,0.8-4.9c0.4-0.7,1.4-1.6,2-2c1-0.5,2.7-0.6,8.3-0.6
			c5.3,0,7.3-0.1,8.2-0.6c0.6-0.3,1.4-1.1,1.6-1.7c0.3-0.6,0.5-1.4,0.5-1.9s-0.2-1.3-0.5-1.9c-0.3-0.6-1-1.3-1.6-1.7
			c-0.8-0.4-2.9-0.6-8-0.6c-5.8,0-7.2,0.1-9.5,0.9c-1.5,0.5-3.5,1.5-4.4,2.2c-0.9,0.7-2.2,2.1-2.9,3c-0.6,1-1.4,3-1.7,4.5
			c-0.4,2.1-0.6,6.1-0.6,16.2c0,10.3,0.1,13.6,0.6,14.4c0.3,0.5,1,1.2,1.5,1.5C867.1,202.3,867.9,202.6,868.3,202.6z M904.6,202.6
			c0.4,0,1.2-0.2,1.8-0.5c0.6-0.3,1.3-1,1.7-1.6c0.4-0.8,0.6-2.8,0.6-7.5v-6.4h7h7v7c0,6.4,0.1,7.1,0.8,7.8c0.4,0.4,1.3,0.9,1.9,1.1
			c0.6,0.1,1.6,0,2.3-0.3c0.7-0.3,1.5-1.1,1.9-1.7c0.5-1,0.6-3.4,0.5-15.7l-0.1-14.5l-1.2-2.5c-0.6-1.4-2-3.4-3.1-4.4
			c-1.1-1-3-2.4-4.4-3c-2.1-0.9-3-1.1-5.8-1.1c-2.7,0-3.7,0.2-5.9,1.2c-1.6,0.7-3.3,1.9-4.4,3.1c-1,1.1-2.2,2.7-2.6,3.6
			c-0.4,0.9-1,2.6-1.3,3.8c-0.3,1.4-0.5,7.2-0.4,15.5c0,10.2,0.1,13.5,0.6,14.3c0.3,0.5,1,1.2,1.5,1.5
			C903.4,202.3,904.2,202.6,904.6,202.6L904.6,202.6z M915.6,178.7h-7v-4.1c0-2.5,0.2-4.7,0.6-5.5c0.3-0.7,1.2-1.9,2.1-2.6
			c0.8-0.7,2.1-1.4,2.9-1.6c0.8-0.1,2.1-0.1,2.9,0c0.8,0.1,2.1,0.9,2.9,1.6c0.8,0.7,1.7,1.9,2.1,2.6c0.3,0.8,0.6,2.9,0.6,5.5v4.1
			H915.6z M761.1,193.1h51.3v-12v-12h-51.3h-51.3v12v12H761.1z M992.9,193.1h51.3v-12v-12h-51.3h-51.3v12v12H992.9z"/>
		<path id="path26" class="st3" d="M877.5,631.5c-0.5,0-40.4-22.8-88.7-50.6l-87.8-50.6L700.8,384l-0.1-146.3h175.9h175.9
			l-0.1,146.9l-0.1,146.9l-87,50C917.4,609,877.9,631.5,877.5,631.5L877.5,631.5z M877,599.8c0.5,0,34.3-19.2,75.3-42.6l74.4-42.6
			l0.1-125.3l0.1-125.3H877H727.1l0.1,125.3l0.1,125.3l74.4,42.6C842.7,580.6,876.6,599.8,877,599.8L877,599.8z"/>
		<path id="path24" class="st4" d="M865.3,561.7c-0.3,0.1-5.9-2.9-12.4-6.6l-11.8-6.7l-0.2-48.4l-0.2-48.4l-42.9,24.3
			c-27.9,15.8-43.3,24.3-44,24.3l-1.1,0V395.8V291.7h12.6h12.6l0.1,81.2l0.1,81.2l31.4-17.9l31.4-17.9v-50.7v-50.7h-6.4h-6.4
			l-8.6-10.9c-4.8-6-9.1-11.6-9.7-12.6l-1.1-1.7h52.2h52.2l0.1,42.6l0.1,42.6l9.8-5.6l9.8-5.6v-37v-37h34.2h34.2v12.6v12.6h-21.7
			h-21.7V334c0,9.4,0.1,17.1,0.2,17.1s6.5-3.6,14.1-8c7.7-4.4,14.6-8.3,15.5-8.6l1.6-0.6l-0.1,16.2l-0.1,16.2l-15.6,8.9l-15.6,8.9
			l-0.1,69.4l-0.1,69.4l-11.9,6.6c-6.8,3.8-12.1,6.5-12.5,6.4c-0.5-0.2-0.6-8.7-0.6-68.7c0-47.5-0.1-68.5-0.4-68.4
			c-0.2,0.1-15.3,8.6-33.4,18.9l-33,18.8l-0.1,62.7C865.9,554.3,865.8,561.6,865.3,561.7L865.3,561.7z M868.3,402.7
			c1.2-0.7,6.2-3.5,11.1-6.3l9-5.1l0-37.4l0-37.4h-11.1h-11.1v43.7v43.7L868.3,402.7L868.3,402.7z"/>
	</g>
</g>
</svg>
