<?xml version="1.0" encoding="utf-8"?>
<!-- Generator: Adobe Illustrator 25.0.1, SVG Export Plug-In . SVG Version: 6.00 Build 0)  -->
<svg version="1.1" id="Layer_1" xmlns="http://www.w3.org/2000/svg" xmlns:xlink="http://www.w3.org/1999/xlink" x="0px" y="0px"
	 viewBox="0 0 500 500" style="enable-background:new 0 0 500 500;" xml:space="preserve">
<style type="text/css">
	.st0{fill:#FFFFFF;}
	.st1{fill:#1D1D1B;}
	.st2{fill:url(#SVGID_1_);}
	.st3{fill:url(#SVGID_2_);}
	.st4{fill:url(#SVGID_3_);}
	.st5{fill:#FFCC00;}
	.st6{fill:#052453;}
</style>
<g transform="matrix(1.5602 0 0 1.5602 1.2316 .91558)">
	<path class="st0" d="M75.6,3.2v220.4c0,50.9,41.4,92.3,92.3,92.3s92.3-41.4,92.3-92.3V3.2L75.6,3.2z"/>
	<path class="st1" d="M78.9,6.6v216.9c0,49.1,39.9,89,89,89s89-39.9,89-89V6.6L78.9,6.6z M252,78.7v144.8
		c0,46.4-37.6,84.1-84.1,84.1s-84.1-37.7-84.1-84.1V78.7L252,78.7"/>
	
		<radialGradient id="SVGID_1_" cx="-523.4529" cy="-8.6164" r="100.5529" gradientTransform="matrix(0 -3.1204 -1.8878 0 146.6231 -1496.4222)" gradientUnits="userSpaceOnUse">
		<stop  offset="0.6" style="stop-color:#FFFFFF;stop-opacity:0"/>
		<stop  offset="0.63" style="stop-color:#F6F6F6;stop-opacity:0.13"/>
		<stop  offset="0.78" style="stop-color:#CDCCCC;stop-opacity:0.75"/>
		<stop  offset="0.85" style="stop-color:#BDBCBC"/>
		<stop  offset="0.89" style="stop-color:#C1C0C0"/>
		<stop  offset="0.92" style="stop-color:#CDCDCD"/>
		<stop  offset="0.96" style="stop-color:#E2E2E2"/>
		<stop  offset="1" style="stop-color:#FFFFFF"/>
	</radialGradient>
	<path class="st2" d="M252,78.8v144.8c0,46.4-37.6,84.1-84.1,84.1S83.8,270,83.8,223.6V78.8L252,78.8"/>
	
		<radialGradient id="SVGID_2_" cx="-2219.6228" cy="3166.4126" r="139.8711" gradientTransform="matrix(1.0765 0 0 -1.0765 2545.8008 3619.5991)" gradientUnits="userSpaceOnUse">
		<stop  offset="0.6" style="stop-color:#FFFFFF;stop-opacity:0"/>
		<stop  offset="0.63" style="stop-color:#F6F6F6;stop-opacity:0.13"/>
		<stop  offset="0.78" style="stop-color:#CDCCCC;stop-opacity:0.75"/>
		<stop  offset="0.85" style="stop-color:#BDBCBC"/>
		<stop  offset="0.89" style="stop-color:#C1C0C0"/>
		<stop  offset="0.92" style="stop-color:#CDCDCD"/>
		<stop  offset="0.96" style="stop-color:#E2E2E2"/>
		<stop  offset="1" style="stop-color:#FFFFFF"/>
	</radialGradient>
	<circle class="st3" cx="167.9" cy="224" r="70.5"/>
	
		<radialGradient id="SVGID_3_" cx="-490.9423" cy="11.8315" r="51.5699" gradientTransform="matrix(3.1204 0 0 -3.1204 1681.7041 233.2098)" gradientUnits="userSpaceOnUse">
		<stop  offset="0" style="stop-color:#F3997B"/>
		<stop  offset="4.000000e-02" style="stop-color:#F29276"/>
		<stop  offset="0.11" style="stop-color:#F07F68"/>
		<stop  offset="0.19" style="stop-color:#EC5F52"/>
		<stop  offset="0.27" style="stop-color:#E83433"/>
		<stop  offset="0.35" style="stop-color:#E30613"/>
		<stop  offset="0.89" style="stop-color:#770F00"/>
		<stop  offset="0.91" style="stop-color:#800F01"/>
		<stop  offset="0.95" style="stop-color:#8A0F02"/>
		<stop  offset="1" style="stop-color:#8D1003"/>
	</radialGradient>
	<path class="st4" d="M121,186.3c15.5-0.6,35.4,13.5,48.9,34c11.1-0.4,21.8-3.1,30.6-7.4c-11.4-32.1-76.7-61.4-96.7-18.3l-0.1,0.1
		C107.7,190.6,112.2,186.6,121,186.3L121,186.3z M157.2,160.1c28,1.9,55.6,22.6,60.6,39.1c5.8-8,6.4-17.4-1.4-26.3
		c-12.6-12-29.7-19.4-48.6-19.4c-12.1,0-23.4,3-33.4,8.4C139.3,160.8,146.4,159.7,157.2,160.1L157.2,160.1z M170.1,227.6
		c-5.2,9.8-8.2,20.5-8.9,30.3c33.5,6.1,91.6-35.7,64.2-74.6c0,0-0.1-0.1-0.1-0.1c1.7,5.6,2.8,11.4-1.3,19.1
		C216.7,216,194.7,226.2,170.1,227.6L170.1,227.6z M228.6,246.8c-15.6,23.4-47.4,36.9-64.2,32.9c4,9,11.8,14.2,23.5,11.9
		c16.7-4.9,31.6-16.1,41-32.4c6-10.5,9.1-21.8,9.4-33.1C237,231,234.3,237.6,228.6,246.8L228.6,246.8z M158.7,283.5
		c-8.2-13.1-6-37.4,5-59.3c-5.9-9.4-13.6-17.3-21.8-22.8c-22.1,25.9-14.9,97.1,32.5,92.9c0,0,0.1,0,0.2,0
		C169,292.9,163.3,291,158.7,283.5L158.7,283.5z M121.4,193.2c-9.8-1-18.2,3.1-22,14.4c-4.1,17-1.9,35.4,7.5,51.7
		c6,10.5,14.4,18.8,24,24.7c-3.5-3.6-7.9-9.2-13-18.8C105.4,240,109.6,205.8,121.4,193.2L121.4,193.2z"/>
	<rect x="83.8" y="11.5" class="st5" width="168.2" height="62.4"/>
	<path class="st1" d="M150.3,95.1l12.6,15.7h3.6V87.2H162v15.9l-12.6-15.9h-3.6v23.6h4.5V95.1z M109.7,98.3c1.1-1.2,1.7-2.7,1.7-4.5
		c0-3.7-3-6.7-6.7-6.7l-12.6,0v23.6h13c3.9,0,7.1-3.2,7.1-7.1C112.2,101.6,111.2,99.6,109.7,98.3L109.7,98.3z M96.5,91.2h7.8
		c1.5,0,2.7,1.2,2.7,2.7c0,1.5-1.2,2.7-2.7,2.7h-7.8V91.2z M104.7,106.6h-8.2v-6.1h8.2c1.7,0,3,1.4,3,3
		C107.8,105.3,106.4,106.6,104.7,106.6z M234.2,96.3c-2.8-0.4-5.3-0.9-5.3-3c0-1.4,1.6-2.9,4.9-2.9c2.6,0,4.8,1.3,5.6,2.6l3.5-1.8
		c-1.8-3.7-5.6-4.7-9.3-4.7c-4.4,0-9.1,2.2-9.1,6.6c0,5.3,4.5,6.6,9.3,7.2c3.1,0.4,5.5,1.2,5.5,3.5c0,2.6-2.6,3.5-5.4,3.5
		s-5.6-1.1-6.6-3.7l-3.7,1.9c1.7,4.3,5.5,5.8,10.3,5.8c5.3,0,9.9-2.3,9.9-7.5C243.7,98.2,239.1,97,234.2,96.3L234.2,96.3z M195,99
		c0-6.5-5.3-11.8-11.8-11.8h-9.3v23.6h9.3C189.7,110.8,195,105.5,195,99L195,99z M183.2,106.5h-4.9V91.4h4.9c5.1,0,7.3,3.7,7.4,7.4
		C190.6,102.6,188.6,106.5,183.2,106.5L183.2,106.5z M138.7,100.9V87.2h-4.4v13.7c0,3.3-2.7,5.9-5.9,5.9c-3.3,0-5.9-2.7-5.9-5.9
		V87.2H118v13.7c0,5.7,4.6,10.4,10.4,10.4C134.1,111.3,138.7,106.7,138.7,100.9L138.7,100.9z M205.5,101.1h10.5v-4.2h-10.5v-5.4
		h12.9v-4.3H201v23.6h17.7v-4.4h-13.3V101.1z M147.9,141.8h4.4v-23.6h-4.4V141.8z M194.2,118.2l-10.6,23.6h4.8l8.2-18.7l4.4,10.1
		h-6.1l-1.8,4.2h9.7l2,4.5h4.9L199,118.2L194.2,118.2z M181,128.1h-9.3l-1.8,4h7v3.5c-1.5,1.6-3.7,2.6-6,2.6c-4.5,0-8.2-3.7-8.2-8.2
		c0-4.6,3.7-8.2,8.2-8.2c1.2,0,2.3,0.3,3.4,0.7l1.7-3.8c-1.5-0.7-3.3-1.1-5.1-1.1c-6.8,0-12.3,5.5-12.3,12.3
		c0,6.8,5.5,12.3,12.3,12.3c4.2,0,7.9-2.1,10.1-5.3L181,128.1L181,128.1z M130.6,118.2h-4.5v23.6h16.6v-4.1h-12.2V118.2z"/>
	<path class="st6" d="M120.4,34.3h11.7c1.5,0,2.8,0.2,3.9,0.6s2,1,2.7,1.8c0.7,0.8,1.2,1.7,1.6,2.7c0.4,1,0.5,2.1,0.5,3.3
		c0,1.1-0.2,2.2-0.6,3.2c-0.4,1-0.9,1.9-1.7,2.7c-0.8,0.8-1.7,1.4-2.8,1.9c-1.1,0.5-2.4,0.7-3.9,0.7h-11.3L120.4,34.3L120.4,34.3z
		 M131.2,47.5c1.7,0,2.9-0.6,3.7-1.4c0.8-0.9,1.1-2,1.1-3.4c0-1.4-0.4-2.5-1.1-3.4c-0.8-0.9-2-1.5-3.7-1.5h-5.8v9.7L131.2,47.5z"/>
	<path class="st6" d="M186.8,51.2h-5V34.3h11.8c2.4,0,4.1,0.4,5.2,1.3c1.1,0.9,1.6,2.2,1.6,4c0,1.5-0.6,2.5-1.3,3.5
		c-0.7,0.8-1.6,1.2-2.1,1.4l3.3,6.7h-5.1l-3.1-6.1h-5.4L186.8,51.2z M193,41.5c0.9,0,1.6-0.2,1.9-0.6c0.4-0.4,0.5-0.8,0.5-1.2
		c0-0.5-0.2-0.9-0.5-1.2c-0.4-0.4-1-0.5-1.9-0.5h-6.2v3.6L193,41.5L193,41.5z"/>
	<path class="st6" d="M108.7,31.6h-6.3L91.2,53.9h5.6l2.7-5.5h12l2.8,5.5h5.6L108.7,31.6L108.7,31.6z M101.8,43.9l3.7-7.5l3.8,7.5
		H101.8L101.8,43.9z"/>
	<path class="st6" d="M215.8,34.2H210l-8.5,16.9h5.1l1.7-3.4h9.3l1.7,3.4h5.1L215.8,34.2L215.8,34.2z M210.3,43.9l2.6-5.2l2.6,5.2
		H210.3z"/>
	<rect x="171.8" y="34.3" class="st6" width="5" height="16.9"/>
	<polygon class="st6" points="162,51.2 167,51.2 167,34.3 159.8,34.3 155.3,42.5 150.8,34.3 143.6,34.3 143.6,51.1 148.6,51.1 
		148.6,39.2 155.3,51.2 162,39.2 	"/>
	<polygon class="st6" points="226,53.9 244.7,53.9 244.7,49.5 231.5,49.5 231.5,31.6 226,31.6 	"/>
</g>
</svg>
