<?xml version="1.0" encoding="utf-8"?>
<!-- Generator: Adobe Illustrator 25.0.1, SVG Export Plug-In . SVG Version: 6.00 Build 0)  -->
<svg version="1.1" id="Layer_1" xmlns="http://www.w3.org/2000/svg" xmlns:xlink="http://www.w3.org/1999/xlink" x="0px" y="0px"
	 viewBox="0 0 500 500" style="enable-background:new 0 0 500 500;" xml:space="preserve">
<style type="text/css">
	.st0{fill:#F15A22;}
</style>
<g>
	<path class="st0" d="M491.5,240.1c-1.1-4.8-5.2-5.9-8.4-6.3c-8.8-1.1-17.2-2.2-25.1-3.5c-25-4.3-64.8-13.3-108.1-30.9
		c-47.4-19.3-145.3-69.3-146.1-119.1c0,0-7.3-59.4,97.3-27c0.5,1.1,36.8,105.2,161.2,119.3c7.7,0.9,15.2,0.1,16-3.8
		C444.9,74.8,355.3,7.3,249.9,7.1C183.5,7,123.3,33.5,79.3,76.6c-1.1,1.2-2.2,2.4-3.2,3.5c-5.9,6.7-21.7,25.4-21.8,47
		c-0.1,26,30.1,48.9,67.1,67.1l0.2,0c0,0,82.7,40.6,140.8,53.5v0c3.3,0.6,3.6,1.3,3.6,2.2c0,1.4-1,1.4-2.5,1.9
		c-54.9,11.4-141.9,52.9-142.1,53c-0.1,0-67.5,29.7-67.6,66.9c0,21.6,15.8,40.5,21.6,47.1c1,1.2,2.1,2.4,3.2,3.5
		c43.7,43.3,103.8,70,170.2,70.2c105.5,0.2,195.4-66.8,229.1-160.7c-0.8-4-8.3-4.7-16-3.9c-124.5,13.5-161.2,117.5-161.7,118.6
		c-104.8,32-97.2-27.4-97.2-27.4c-0.2-42.4,81.2-96.7,146.8-124c8.6-3.6,64.1-24.7,135.8-32.9c4.6-0.4,6.2-4.3,6.4-8.2
		C492.4,248.7,492.3,245,491.5,240.1z"/>
	<path class="st0" d="M146.8,251.7c-0.1,0,2.6-0.5,2.6-1.9c0-1.4-3.2-2.3-3.2-2.2v0c-15.5-5.5-37.6-14.4-56.3-23.4
		c-33.9-17.7-60.6-39.4-60.5-63.8c0-2.1-2.1-2.5-3.1-2.5c-1.8,0-2.9,2.9-2.9,2.9c-10.9,27.5-16.8,57.4-16.9,88.7
		c-0.1,31.3,5.8,61.3,16.5,88.8c0,0,1.1,2.9,2.9,2.9c1,0,3.1-0.3,3.1-2.5c0.1-24.7,27.6-46.6,62.2-64.2
		C109.5,265.6,128.8,257,146.8,251.7z"/>
</g>
</svg>
