<?xml version="1.0" encoding="utf-8"?>
<!-- Generator: Adobe Illustrator 25.0.1, SVG Export Plug-In . SVG Version: 6.00 Build 0)  -->
<svg version="1.1" id="Layer_1" xmlns="http://www.w3.org/2000/svg" xmlns:xlink="http://www.w3.org/1999/xlink" x="0px" y="0px"
	 viewBox="0 0 500 500" style="enable-background:new 0 0 500 500;" xml:space="preserve">
<style type="text/css">
	.st0{fill:#191917;}
	.st1{fill:#919191;}
	.st2{fill:#D20515;}
	.st3{fill:#FFFFFF;}
</style>
<g transform="translate(-253.32 -1660.1) scale(2.1856)">
	<path class="st0" d="M329.9,957.7l-3.4,10.7h6.8L329.9,957.7z M334.5,972.7h-9.3l-1.7,5h-5.9l8.5-23.8h7.6l8.5,23.8h-6L334.5,972.7
		z M315.1,963.9v12.9c-2.2,0.8-5.2,1.3-8.2,1.3c-8.3,0-12.2-3.7-12.2-12.3c0-8.6,3.9-12.3,12.2-12.3c2.9,0,5.7,0.5,7.8,1.3v4.6
		c-2.3-0.8-4.9-1.3-7.4-1.3c-5,0-6.5,2-6.5,7.6c0,5.9,1.6,7.8,6.3,7.8c1.1,0,2.1-0.1,3.1-0.2v-5.3h-4.4v-4.1L315.1,963.9z
		 M284.6,953.9h5.9v23.8h-5.9V953.9z M264.8,953.9h5.9v19.2h10.2v4.5h-16.1L264.8,953.9z M243.1,976.8v-4.6c2.9,0.9,5.4,1.3,7.9,1.3
		c2.7,0,3.9-0.7,3.9-2.6c0-1.6-0.5-2.1-2.7-2.5l-4-0.8c-4.1-0.8-5.5-2.5-5.5-6.6c0-5.2,3.1-7.5,9.2-7.5c2.8,0,5.4,0.5,7.6,1.3v4.6
		c-2.6-0.9-4.9-1.3-7.2-1.3c-2.9,0-3.9,0.8-3.9,2.6c0,1.5,0.7,2,2.6,2.4l3.8,0.8c4.5,1,5.7,2.5,5.7,6.7c0,5.1-3.1,7.4-9.5,7.4
		C248.3,978.1,245.5,977.7,243.1,976.8 M222.7,953.9h16.6v4.5h-10.7v5h8.9v4.5h-8.9v5.2h11v4.5h-16.9L222.7,953.9z M207.7,973.2
		c3.5,0,4.6-1.8,4.6-7.4c0-5.5-1.1-7.3-4.6-7.3h-4.5v14.7H207.7z M197.2,953.9h10.6c8.3,0,10.5,3.4,10.5,11.9
		c0,8.2-2.4,11.9-10.5,11.9h-10.6L197.2,953.9z M192.3,953.9v23.8h-7.2L175,960.5v17.2h-5.5v-23.8h7.2l10.1,17.2v-17.2H192.3z
		 M143.8,969.9v-16h5.9v15.9c0,2.6,1.2,3.6,4.4,3.6c3.2,0,4.4-1,4.4-3.6v-15.9h5.9v16c0,5.6-3.2,8.2-10.3,8.2
		C147.1,978.1,143.8,975.5,143.8,969.9 M134.2,970.6c0-2.2-0.9-3.1-2.9-3.1H126v6.2h5.3C133.4,973.7,134.2,972.8,134.2,970.6
		 M126,963.8h5c2,0,2.9-0.9,2.9-2.9c0-2.1-0.8-3-2.9-3h-5V963.8z M140,971.2c0,4.2-2,6.5-7.3,6.5h-12.3v-23.8h11.8
		c5.5,0,7.5,2.2,7.5,6.2c0,3.1-1.1,4.5-4.4,5.3l-0.6,0.2l0.5,0.1C138.8,966.5,140,967.9,140,971.2"/>
</g>
<g>
	<polygon class="st1" points="493.3,184.6 10.3,377.3 10.3,409 493.3,409 	"/>
	<polygon class="st2" points="493.3,174.4 493.3,22.6 10.3,22.6 10.3,367.1 	"/>
	<path class="st3" d="M336.9,193.5c-1.1-4.1-4.5-3.6-7.4-3.8c-4-0.2-7-0.2-12.4-0.6c-4.6-0.3-9.1-0.9-13.6-1.7
		c-2.7-0.5-10.6-2.4-10.6-2.4c-16.9-4.1-31.5-13.3-49-18.7c-0.3,0.2-1.1,1.1-1.5,1.3c-5-2.3-12.6-1.2-15.6-1.9
		c-9.5-4.2-19.6-7-30-8.4L196,154c0,0-39.1-5.7-47.7-6.4l0,0c2.9-17.5,11.1-35.2,15.1-43.8l11,0.8l2.1-4.8c0.9-2.1,2-4.1,3.2-6.1
		c1.4-1.9,3-1.9,3.5-3.3c0.6-1.8-1.3-7.4,0-12.5c0.8-3.4,2.3-5.1,1.9-7.7c-1.6-8.6-13.4-15.7-21.4-15.7c-15.6,0-20,13.3-19.7,23.2
		c-16.4-5.4-51.6-1.2-51.6-1.2L91.7,80c0,0-5.3-1-8.1,1.9c-10.3,10.8-27.7,33.6-27.7,33.6c-3.5,0.3-6.7,2.2-8.5,5.3
		c-2.3,3.3-5.4,4-9.5,5.7c-1.5,0.5-0.9,3.3,0.2,3.3c2.6,0.3,5.9-1.3,8.9-2.8c-1.9,3.4-7.3,6-8.7,7.6c-0.4,0.5-0.5,0.8,0,1.6
		c2,3.1,11.4,1.1,15.1-1.6c2.9-2,6-4.7,6-4.7s1.8-5.9,2.8-6.7c6.1-5.4,18.2-15.4,28.7-24.6c18.8,1.5,25.9,1.9,26.9,1.9l-9.9,3.9
		c-6.4,12.1-12.9,53.6-10.9,58.5c0.4,0,1.9-1.3,2.8-1.2c-1.5,5.4,0,20.8,0,20.8c1.3,14.3,6,33.3,7.9,37.4l3.7,0.8
		c0.6,4.9,5.7,18.3,8.7,24.7c-10.9,0.5-25.5,15.7-37.9,26.8c-7.6,6.8-15.4,2.3-17.4,1.1c-2-1.5-4.7-1.5-6.8,0
		c-0.2,0.2-0.4,0.4-0.6,0.6c-0.1,0-0.2,0.1-0.3,0.1h-0.2l-0.2-0.1c-0.4-0.2-0.9,0-1.3,0.6l-0.8,1.2c-0.4,0.5-0.4,1.2,0,1.4l0.4,0.3
		c-0.4,0.8-0.8,1.6-1.1,2.3l-0.3-0.1c-0.4-0.1-0.9,0.2-1.1,0.9l-0.5,1.4c-0.2,0.6-0.1,1.2,0.3,1.4l0.3,0.1c-2,5-6.4,7.4-8.7,12.7
		l-0.5-0.2c-0.4-0.1-0.9,0.2-1.1,0.9l-0.5,1.3c-0.2,0.6,0,1.2,0.3,1.4l0.5,0.2c-0.4,1.4-0.7,2.8-0.8,4.2h-0.5
		c-0.4,0-0.8,0.5-0.8,1.2v1.4c0,0.7,0.3,1.2,0.7,1.2h0.5c0,1.2,0,3.5,0,4.9c0.2,3,5.3,4.5,6.8,1.7c12.8-24.5,52.3-29.8,84.2-45.2
		c-0.3-0.6-0.5-1.2-0.7-1.9c1.4-0.7,4.2-2.1,6.6-3.5c2.4-1.4,4.4-2.7,4.8-3.1c1.6-1.1,2.9-2.6,3.9-4.3c1-1.9,1.5-4.1,1.5-6.2
		c0-3.4-0.2-8.6-0.4-13.7c-0.2-5.7-0.7-11.8-1.2-16.5c0.6,0,2.7-0.7,2.7-0.7l-2.7-23.1l-8-3.9l52.4,0.2c0,0,0-0.5,0.7-2.6
		c14.9,0.6,19,0.4,32.7,0.8c6.3,0,9.1,4.8,14.2,6c16.3,4,24.9-1.4,50.3,3.5c0.8,0.1,1.4,0.6,1.7,1.3c0.7,2.2,0.7,6.3,1.6,8.2
		c2.1,3.9,4.9,3.4,7.6,2.4l0.3,0.7c0.2,0.4,0.8,0.5,1.4,0.2l1.3-0.6c0.6-0.3,0.9-0.8,0.8-1.2l-0.3-0.7l1.9-0.9l0.3,0.7
		c0.2,0.4,0.8,0.5,1.4,0.2l1.3-0.6c0.6-0.3,0.9-0.8,0.8-1.2l-0.3-0.7c5.8-2.7,11.4-5.2,16.4-7.6l0.2,0.5c0.2,0.4,0.8,0.5,1.4,0.2
		l1.3-0.6c0.6-0.3,0.9-0.8,0.8-1.2l-0.3-0.5l1.6-0.8l0.3,0.5c0.2,0.4,0.8,0.4,1.4,0.1l1.3-0.6c0.6-0.3,0.9-0.9,0.7-1.2l-0.3-0.6
		l0.9-0.5C336.4,194.8,337.1,194.2,336.9,193.5"/>
	<circle class="st3" cx="362.1" cy="161.7" r="21.7"/>
	<path class="st3" d="M493.3,174.4l-483,192.7v10.2l339-135.2v18.6c16.3-7.6,34.1-11.5,52-11.5c18.9,0,26.2,5.3,26.2,18.9
		c0,11.7-4.3,16.2-20.2,20.8l-19,5.5c-36.2,10.4-45.8,25.7-45.8,52.2v32.8h118.8v-29.3h-80.9v-6.8c0-10.4,2.1-15.7,18.3-20.2
		l19.2-5.5c36.4-10.4,45.6-21.3,45.6-52.4c0-29.8-18.3-45.6-54.3-47l0,0l84-33.5L493.3,174.4z"/>
</g>
</svg>
