<?xml version="1.0" encoding="utf-8"?>
<!-- Generator: Adobe Illustrator 25.0.1, SVG Export Plug-In . SVG Version: 6.00 Build 0)  -->
<svg version="1.1" id="Layer_1" xmlns="http://www.w3.org/2000/svg" xmlns:xlink="http://www.w3.org/1999/xlink" x="0px" y="0px"
	 viewBox="0 0 500 500" style="enable-background:new 0 0 500 500;" xml:space="preserve">
<style type="text/css">
	.st0{fill:#D10214;}
	.st1{fill:#FFFFFF;}
	.st2{fill:#191917;}
</style>
<g transform="translate(-253.32 -1660.1) scale(2.1856)">
	<path class="st0" d="M120.3,939.9h221.1V763H120.3V939.9z"/>
	<path class="st1" d="M316.9,825.8c-6.8,0-12.3,5.5-12.3,12.3c0,6.8,5.5,12.3,12.3,12.3c6.8,0,12.3-5.5,12.3-12.3
		C329.1,831.4,323.6,825.8,316.9,825.8 M302.6,856.1c0.1,0.4-0.3,0.7-1.1,1.3l-0.5,0.3l0.2,0.3c0.1,0.2-0.1,0.5-0.4,0.7l-0.7,0.4
		c-0.3,0.2-0.7,0.1-0.8-0.1l-0.2-0.3l-0.9,0.5l0.2,0.3c0.1,0.2-0.1,0.5-0.4,0.7l-0.7,0.4c-0.4,0.2-0.7,0.1-0.8-0.1l-0.1-0.3
		c-2.8,1.3-6,2.7-9.3,4.3l0.2,0.4c0.1,0.2-0.1,0.5-0.4,0.7l-0.7,0.3c-0.3,0.2-0.7,0.1-0.8-0.1l-0.2-0.4l-1.1,0.5l0.2,0.4
		c0.1,0.2-0.1,0.5-0.4,0.7l-0.7,0.3c-0.3,0.2-0.7,0.1-0.8-0.1l-0.2-0.4c-1.5,0.6-3.1,0.8-4.3-1.4c-0.5-1-0.5-3.4-0.9-4.6
		c-0.2-0.7-1-0.8-1-0.8c-14.4-2.8-19.3,0.3-28.5-2c-2.9-0.7-4.5-3.4-8-3.4c-7.8-0.2-10.1-0.1-18.6-0.5c-0.4,1.3-0.4,1.5-0.4,1.5
		l-29.7-0.2l4.5,2.2l1.5,13.1c0,0-1.2,0.4-1.6,0.4c0.3,2.6,0.6,6.2,0.7,9.3c0.1,2.9,0.3,5.8,0.3,7.8c0,0.6,0,2-0.8,3.5
		c-0.5,1-1.5,1.9-2.2,2.4c-0.3,0.2-1.4,1-2.7,1.8c-1.4,0.8-2.9,1.6-3.7,2c0.1,0.4,0.3,0.7,0.4,1c-18.1,8.7-40.5,11.7-47.7,25.6
		c-0.8,1.6-3.8,0.8-3.9-1c0-0.8,0-2.1,0-2.8l-0.3,0c-0.2,0-0.4-0.3-0.4-0.7l0-0.8c0-0.4,0.2-0.7,0.5-0.7l0.3,0
		c0.1-0.8,0.3-1.6,0.5-2.4l-0.3-0.1c-0.2-0.1-0.3-0.4-0.2-0.8l0.3-0.8c0.2-0.4,0.4-0.6,0.6-0.5l0.3,0.1c1.3-3,3.8-4.3,4.9-7.2
		l-0.2-0.1c-0.2-0.1-0.3-0.4-0.2-0.8l0.3-0.8c0.2-0.3,0.4-0.6,0.6-0.5l0.2,0.1c0.2-0.4,0.4-0.9,0.6-1.3l-0.3-0.2
		c-0.2-0.1-0.2-0.5,0-0.8l0.4-0.7c0.2-0.3,0.5-0.5,0.7-0.3l0.1,0.1l0.1,0c0.1,0,0.1,0,0.1-0.1c0.1-0.1,0.3-0.3,0.4-0.4
		c1.2-0.9,2.6-0.8,3.8-0.1c1.1,0.7,5.6,3.2,9.8-0.6c7-6.3,15.3-14.9,21.5-15.2c-1.7-3.7-4.6-11.2-4.9-14l-2.1-0.4
		c-1.1-2.3-3.7-13.1-4.5-21.2c0,0-0.9-8.7,0-11.8c-0.5-0.1-1.4,0.7-1.6,0.7c-1.1-2.8,2.6-26.3,6.2-33.1l5.6-2.2
		c-0.6-0.1-4.6-0.3-15.2-1.1c-5.9,5.2-12.8,10.9-16.3,14c-0.6,0.4-1.6,3.8-1.6,3.8s-1.8,1.6-3.4,2.7c-2.2,1.5-7.4,2.7-8.6,0.9
		c-0.3-0.4-0.2-0.6,0-0.9c0.8-0.8,3.9-2.3,4.9-4.3c-1.7,0.8-3.5,1.7-5,1.6c-0.6,0-0.9-1.6-0.1-1.9c2.2-0.9,4-1.4,5.3-3.2
		c1.3-1.8,2.8-3,4.9-3c0,0,9.9-12.9,15.7-19c1.6-1.7,4.6-1.1,4.6-1.1l0.5-2c0,0,20-2.4,29.3,0.7c-0.2-5.7,2.3-13.1,11.1-13.1
		c4.5,0,11.2,4,12.1,8.9c0.3,1.5-0.6,2.5-1,4.4c-0.8,2.9,0.3,6.1,0,7c-0.3,0.8-1.2,0.8-2,1.9c-0.9,1.2-1.8,3.4-1.8,3.4l-1.2,2.7
		l-6.2-0.5c-2.3,4.9-6.9,14.9-8.6,24.8c4.9,0.4,27,3.6,27,3.6l0.5,1.8c0,0,9.3,1.1,17,4.7c1.7,0.4,6-0.2,8.8,1.1
		c0.2-0.1,0.7-0.6,0.8-0.7c10,3.1,18.2,8.3,27.8,10.6c0,0,4.5,1.1,6,1.4c3.5,0.7,5.8,0.8,7.7,1c3.1,0.2,4.8,0.2,7,0.3
		C300,854.1,301.9,853.8,302.6,856.1"/>
	<path class="st2" d="M329.9,964.1l-3.4,10.7h6.8L329.9,964.1z M334.5,979.1h-9.3l-1.7,5h-5.9l8.5-23.8h7.6l8.5,23.8h-6L334.5,979.1
		z M315.1,970.3v12.9c-2.2,0.8-5.2,1.3-8.2,1.3c-8.3,0-12.2-3.7-12.2-12.3c0-8.6,3.9-12.3,12.2-12.3c2.9,0,5.7,0.5,7.8,1.3v4.6
		c-2.3-0.8-4.9-1.3-7.4-1.3c-5,0-6.5,2-6.5,7.6c0,5.9,1.6,7.8,6.3,7.8c1.1,0,2.1-0.1,3.1-0.2v-5.3h-4.4v-4.1L315.1,970.3z
		 M284.6,960.3h5.9v23.8h-5.9V960.3z M264.8,960.3h5.9v19.2h10.2v4.5h-16.1L264.8,960.3z M243.1,983.2v-4.6c2.9,0.9,5.4,1.3,7.9,1.3
		c2.7,0,3.9-0.7,3.9-2.6c0-1.6-0.5-2.1-2.7-2.5l-4-0.8c-4.1-0.8-5.5-2.5-5.5-6.6c0-5.2,3.1-7.5,9.2-7.5c2.8,0,5.4,0.5,7.6,1.3v4.6
		c-2.6-0.9-4.9-1.3-7.2-1.3c-2.9,0-3.9,0.8-3.9,2.6c0,1.5,0.7,2,2.6,2.4l3.8,0.8c4.5,1,5.7,2.5,5.7,6.7c0,5.1-3.1,7.4-9.5,7.4
		C248.3,984.5,245.5,984.1,243.1,983.2 M222.7,960.3h16.6v4.5h-10.7v5h8.9v4.5h-8.9v5.2h11v4.5h-16.9L222.7,960.3z M207.7,979.6
		c3.5,0,4.6-1.8,4.6-7.4c0-5.5-1.1-7.3-4.6-7.3h-4.5v14.7H207.7z M197.2,960.3h10.6c8.3,0,10.5,3.4,10.5,11.9
		c0,8.2-2.4,11.9-10.5,11.9h-10.6L197.2,960.3z M192.3,960.3v23.8h-7.2L175,966.9v17.2h-5.5v-23.8h7.2l10.1,17.2v-17.2H192.3z
		 M143.8,976.3v-16h5.9v15.9c0,2.6,1.2,3.6,4.4,3.6c3.2,0,4.4-1,4.4-3.6v-15.9h5.9v16c0,5.6-3.2,8.2-10.3,8.2
		C147.1,984.5,143.8,981.9,143.8,976.3 M134.2,977c0-2.2-0.9-3.1-2.9-3.1H126v6.2h5.3C133.4,980.1,134.2,979.2,134.2,977 M126,970.2
		h5c2,0,2.9-0.9,2.9-2.9c0-2.1-0.8-3-2.9-3h-5V970.2z M140,977.6c0,4.2-2,6.5-7.3,6.5h-12.3v-23.8h11.8c5.5,0,7.5,2.2,7.5,6.2
		c0,3.1-1.1,4.5-4.4,5.3l-0.6,0.2l0.5,0.1C138.8,972.9,140,974.3,140,977.6"/>
</g>
</svg>
