<?xml version="1.0" encoding="utf-8"?>
<!-- Generator: Adobe Illustrator 25.0.1, SVG Export Plug-In . SVG Version: 6.00 Build 0)  -->
<svg version="1.1" id="Layer_1" xmlns="http://www.w3.org/2000/svg" xmlns:xlink="http://www.w3.org/1999/xlink" x="0px" y="0px"
	 viewBox="0 0 500 500" style="enable-background:new 0 0 500 500;" xml:space="preserve">
<style type="text/css">
	.st0{display:none;fill:#FFFFFF;}
	.st1{display:none;fill:none;stroke:#FFFFFF;stroke-width:0.5621;stroke-miterlimit:10;}
	.st2{clip-path:url(#SVGID_2_);}
	.st3{clip-path:url(#SVGID_6_);}
	.st4{clip-path:url(#SVGID_10_);}
	.st5{fill:#DB372D;}
	.st6{fill:#231F20;}
	.st7{clip-path:url(#SVGID_14_);}
	.st8{clip-path:url(#SVGID_18_);}
	.st9{fill:#231F20;stroke:#231F20;stroke-width:0.216;stroke-miterlimit:2.6131;}
</style>
<g>
	<g>
		<path class="st0" d="M354.1,355.2c-2.2,0-3.9,1.8-3.9,3.9c0,2.2,1.8,3.9,3.9,3.9c2.2,0,3.9-1.8,3.9-3.9S356.2,355.2,354.1,355.2
			 M357.4,359.2c0,1.9-1.5,3.4-3.3,3.4c-1.9,0-3.4-1.5-3.4-3.4c0-1.8,1.5-3.3,3.4-3.3C355.9,355.8,357.4,357.3,357.4,359.2"/>
		<path class="st0" d="M354,360.8c-0.9,0-1.7-0.8-1.7-1.7c0-0.9,0.8-1.7,1.7-1.7c0.7,0,1.2,0.4,1.5,1h0.5c-0.3-0.8-1.1-1.4-2-1.4
			c-1.2,0-2.1,1-2.1,2.1c0,1.2,1,2.1,2.1,2.1c1,0,1.8-0.6,2-1.5h-0.5C355.3,360.4,354.7,360.8,354,360.8"/>
		<path class="st0" d="M364.7,361.5c-0.2,0.1-0.4,0.2-0.7,0.3c-0.3,0.1-0.5,0.1-0.8,0.1s-0.6,0-0.8-0.2c-0.3-0.1-0.5-0.3-0.7-0.5
			c-0.2-0.3-0.4-0.6-0.5-0.9s-0.1-0.7-0.1-1.1s0.1-0.7,0.2-1.1c0.1-0.3,0.3-0.6,0.5-0.9c0.2-0.2,0.4-0.4,0.7-0.6
			c0.3-0.1,0.6-0.2,0.9-0.2c0.2,0,0.5,0,0.7,0.1s0.4,0.2,0.6,0.3l-0.3,0.4c-0.2-0.1-0.3-0.2-0.5-0.2c-0.2-0.1-0.3-0.1-0.5-0.1
			c-0.3,0-0.6,0.1-0.8,0.2c-0.2,0.1-0.4,0.4-0.5,0.7c-0.1,0.2-0.1,0.4-0.2,0.6c0,0.2,0,0.5,0,0.8c0,0.2,0,0.5,0,0.6
			c0,0.2,0.1,0.3,0.1,0.5c0.1,0.3,0.3,0.6,0.6,0.7c0.3,0.2,0.5,0.2,0.8,0.2c0.2,0,0.4,0,0.5-0.1c0.2-0.1,0.3-0.1,0.5-0.3
			L364.7,361.5"/>
		<path class="st0" d="M368.6,359.4c0-0.4,0-0.7-0.1-1c0-0.3-0.1-0.5-0.2-0.7s-0.2-0.4-0.4-0.5c-0.2-0.1-0.4-0.2-0.7-0.2
			c-0.2,0-0.5,0-0.7,0.1s-0.3,0.3-0.4,0.5s-0.2,0.4-0.2,0.6s-0.1,0.5-0.1,0.8c0,0.4,0,0.8,0.1,1.1c0.1,0.3,0.1,0.6,0.2,0.8
			c0.1,0.1,0.1,0.2,0.2,0.2c0.1,0.1,0.2,0.1,0.3,0.2c0.1,0.1,0.2,0.1,0.3,0.1c0.1,0,0.2,0,0.3,0c0.2,0,0.4,0,0.6-0.1
			s0.3-0.2,0.4-0.3c0.1-0.1,0.1-0.2,0.2-0.3c0-0.1,0.1-0.2,0.1-0.3c0-0.1,0.1-0.3,0.1-0.4C368.6,359.8,368.6,359.6,368.6,359.4
			 M369.3,359.3c0,0.5-0.1,0.9-0.2,1.3c-0.1,0.3-0.3,0.6-0.6,0.9c-0.2,0.2-0.4,0.3-0.6,0.4s-0.4,0.1-0.7,0.1c-0.3,0-0.6,0-0.9-0.2
			c-0.2-0.1-0.5-0.3-0.6-0.5c-0.4-0.5-0.6-1.2-0.6-2.1c0-0.4,0.1-0.8,0.2-1.1c0.1-0.3,0.2-0.6,0.4-0.8c0.2-0.2,0.4-0.4,0.7-0.5
			c0.3-0.1,0.5-0.2,0.9-0.2c0.2,0,0.4,0,0.6,0.1c0.2,0,0.3,0.1,0.5,0.2c0.1,0.1,0.3,0.2,0.3,0.3c0.1,0.1,0.2,0.2,0.2,0.3
			c0.2,0.2,0.3,0.5,0.4,0.8C369.3,358.5,369.3,358.9,369.3,359.3"/>
		<path class="st0" d="M373,358.2c0-0.4-0.1-0.7-0.3-0.8c-0.1-0.1-0.2-0.2-0.4-0.2c-0.2-0.1-0.4-0.1-0.6-0.1H371v2.1h0.9
			c0.2,0,0.4,0,0.5-0.1c0.1,0,0.2-0.1,0.3-0.2C372.9,358.7,373,358.5,373,358.2 M373.7,358.1c0,0.3,0,0.5-0.1,0.7s-0.2,0.4-0.4,0.5
			c-0.2,0.2-0.4,0.3-0.6,0.3c-0.2,0.1-0.4,0.1-0.7,0.1H371v2.1h-0.6v-5.2h1.5c0.3,0,0.5,0,0.7,0s0.3,0.1,0.5,0.2
			C373.5,357.1,373.7,357.5,373.7,358.1"/>
		<path class="st0" d="M376.1,359.8v2h-0.6v-2.1l-1.7-3.2h0.8l1,2c0,0.1,0.1,0.2,0.1,0.3c0,0.1,0.1,0.2,0.1,0.2c0,0.1,0,0.1,0,0.1
			c0.1-0.2,0.2-0.4,0.3-0.6l1-2h0.7L376.1,359.8"/>
		<path class="st0" d="M380.8,358c0-0.2,0-0.3-0.1-0.5s-0.2-0.3-0.4-0.3c-0.1,0-0.2-0.1-0.3-0.1c-0.1,0-0.2,0-0.4,0H379v2h0.6
			c0.2,0,0.4,0,0.6-0.1c0.1,0,0.3-0.1,0.4-0.2s0.2-0.2,0.2-0.3C380.8,358.3,380.8,358.2,380.8,358 M381,361.8c0-0.1-0.1-0.2-0.2-0.3
			c-0.1-0.1-0.2-0.3-0.3-0.5c-0.1-0.2-0.2-0.4-0.4-0.6c-0.1-0.2-0.3-0.4-0.5-0.6c0-0.1-0.1-0.1-0.1-0.1l-0.1-0.1
			c-0.1,0-0.1,0-0.1-0.1c-0.1,0-0.1,0-0.2,0v2.4h-0.6v-5.2h1.2c0.2,0,0.3,0,0.5,0c0.1,0,0.3,0,0.4,0.1c0.1,0,0.2,0.1,0.3,0.1
			c0.1,0,0.1,0.1,0.2,0.1s0.1,0.1,0.2,0.2s0.1,0.2,0.2,0.2c0,0.1,0.1,0.2,0.1,0.3c0,0.1,0,0.2,0,0.4c0,0.2,0,0.4-0.1,0.6
			s-0.2,0.3-0.3,0.5c-0.1,0.1-0.3,0.2-0.4,0.3c-0.2,0.1-0.4,0.1-0.6,0.1H380c0.1,0.1,0.2,0.2,0.3,0.3c0.1,0.1,0.2,0.2,0.2,0.3
			c0,0.1,0.1,0.2,0.2,0.3c0.1,0.1,0.2,0.3,0.3,0.5c0.1,0.2,0.2,0.3,0.3,0.5c0.1,0.2,0.2,0.3,0.2,0.4c0.1,0.1,0.1,0.1,0.1,0.2H381
			V361.8z"/>
		<line class="st1" x1="382.9" y1="361.8" x2="382.9" y2="356.6"/>
		<path class="st0" d="M388.1,361.5c-0.2,0.1-0.4,0.2-0.7,0.3c-0.3,0.1-0.5,0.1-0.8,0.1c-0.7,0-1.2-0.2-1.6-0.7
			c-0.2-0.2-0.4-0.5-0.5-0.9c-0.1-0.3-0.2-0.7-0.2-1.2s0.1-0.9,0.2-1.3s0.3-0.7,0.6-0.9c0.4-0.3,0.8-0.5,1.4-0.5s1,0.2,1.4,0.5
			l-0.3,0.4c-0.2-0.2-0.4-0.2-0.6-0.3c-0.2-0.1-0.4-0.1-0.6-0.1c-0.3,0-0.6,0.1-0.8,0.2c-0.2,0.1-0.4,0.4-0.5,0.7
			c-0.1,0.4-0.2,0.8-0.2,1.3c0,0.4,0,0.7,0.1,0.9c0.1,0.3,0.2,0.5,0.3,0.7c0.1,0.1,0.1,0.2,0.2,0.2c0.1,0.1,0.2,0.1,0.3,0.2
			c0.1,0.1,0.2,0.1,0.4,0.1c0.1,0,0.3,0,0.4,0c0.3,0,0.6-0.1,0.8-0.2v-1.6h-1l-0.1-0.5h1.8L388.1,361.5"/>
		<polygon class="st0" points="392.2,361.8 392.2,359.3 390,359.3 390,361.8 389.4,361.8 389.4,356.6 390,356.6 390,358.8 
			392.2,358.8 392.2,356.6 392.8,356.6 392.8,361.8 		"/>
		<polygon class="st0" points="397.1,357.1 395.7,357.1 395.7,361.8 395.1,361.8 395.1,357.1 393.7,357.1 393.7,356.6 397.1,356.6 
					"/>
		<path class="st0" d="M402.2,361.8h-2.9v-0.3c0.1-0.1,0.3-0.2,0.5-0.4c0.2-0.2,0.4-0.4,0.6-0.7c0.2-0.2,0.4-0.5,0.5-0.6
			c0.1-0.2,0.3-0.4,0.4-0.6s0.2-0.3,0.2-0.5c0-0.1,0.1-0.3,0.1-0.4c0-0.3-0.1-0.5-0.3-0.7c-0.2-0.2-0.4-0.3-0.7-0.3
			c-0.1,0-0.2,0-0.3,0c-0.1,0-0.2,0.1-0.3,0.1c-0.1,0-0.2,0.1-0.3,0.1c-0.1,0.1-0.2,0.1-0.3,0.2l-0.3-0.3c0.3-0.3,0.6-0.4,0.8-0.5
			c0.3-0.1,0.5-0.2,0.8-0.2c0.2,0,0.4,0,0.6,0.1s0.3,0.2,0.4,0.3c0.1,0.1,0.2,0.3,0.3,0.4c0.1,0.2,0.1,0.4,0.1,0.6s-0.1,0.4-0.1,0.7
			c-0.1,0.2-0.2,0.5-0.4,0.7c-0.2,0.2-0.4,0.5-0.7,0.8c-0.1,0.1-0.2,0.2-0.4,0.4c-0.1,0.1-0.2,0.2-0.3,0.3c-0.1,0.1-0.2,0.2-0.3,0.2
			c-0.1,0.1-0.1,0.1-0.2,0.1h0.1c0.1,0,0.1,0,0.2,0s0.2,0,0.3,0h1.6L402.2,361.8"/>
		<path class="st0" d="M406.2,359.3c0-0.3,0-0.5,0-0.7s-0.1-0.4-0.1-0.6c-0.1-0.3-0.2-0.5-0.4-0.6c-0.2-0.1-0.4-0.2-0.6-0.2
			c-0.1,0-0.3,0.1-0.4,0.2s-0.3,0.3-0.4,0.5c-0.2,0.3-0.3,0.8-0.3,1.4c0,0.3,0,0.5,0,0.8c0,0.2,0.1,0.4,0.1,0.6
			c0.1,0.3,0.2,0.5,0.4,0.6c0.2,0.2,0.3,0.2,0.5,0.2s0.3-0.1,0.5-0.2s0.3-0.3,0.4-0.5s0.1-0.4,0.2-0.6
			C406.2,359.9,406.2,359.6,406.2,359.3 M406.9,359.3c0,0.4-0.1,0.7-0.1,1.1c-0.1,0.3-0.2,0.6-0.4,0.8c-0.2,0.2-0.3,0.4-0.6,0.5
			c-0.2,0.1-0.5,0.2-0.7,0.2c-0.3,0-0.6-0.1-0.8-0.3c-0.2-0.2-0.4-0.4-0.5-0.7c-0.1-0.3-0.2-0.6-0.3-0.9c-0.1-0.3-0.1-0.6-0.1-0.9
			s0-0.7,0.1-1s0.2-0.6,0.4-0.8c0.2-0.2,0.3-0.4,0.6-0.5c0.2-0.1,0.4-0.2,0.7-0.2c0.2,0,0.4,0,0.6,0.1s0.3,0.2,0.5,0.3
			c0.1,0.1,0.2,0.3,0.3,0.4c0.1,0.2,0.2,0.4,0.2,0.5c0.1,0.2,0.1,0.4,0.1,0.6C406.8,359,406.9,359.1,406.9,359.3"/>
		<path class="st0" d="M411.1,359.3c0,0.4,0,0.7-0.1,1.1c-0.1,0.3-0.2,0.6-0.4,0.8c-0.2,0.2-0.3,0.4-0.6,0.5
			c-0.2,0.1-0.5,0.2-0.7,0.2c-0.3,0-0.6-0.1-0.8-0.3c-0.2-0.2-0.4-0.4-0.5-0.7c-0.1-0.3-0.2-0.6-0.3-0.9c-0.1-0.3-0.1-0.6-0.1-0.9
			s0-0.7,0.1-1s0.2-0.6,0.4-0.8c0.2-0.2,0.4-0.4,0.6-0.5s0.4-0.2,0.7-0.2c0.2,0,0.4,0,0.6,0.1s0.3,0.2,0.5,0.3
			c0.1,0.1,0.2,0.3,0.3,0.4c0.1,0.2,0.2,0.4,0.2,0.5c0.1,0.2,0.1,0.4,0.1,0.6C411.1,359,411.1,359.1,411.1,359.3"/>
	</g>
</g>
<g>
	<g>
		<defs>
			<path id="SVGID_1_" d="M143.9,136c72.8-3.2,48.5-60.7,154.5-32.4c-38.8,12.9-41.2,55.8-114.8,56.6
				C183.5,160.3,175.5,144.1,143.9,136L143.9,136z"/>
		</defs>
		<clipPath id="SVGID_2_">
			<use xlink:href="#SVGID_1_"  style="overflow:visible;"/>
		</clipPath>
		<g class="st2">
			<defs>
				<rect id="SVGID_3_" x="143.9" y="75.3" width="154.5" height="84.9"/>
			</defs>
			<clipPath id="SVGID_4_">
				<use xlink:href="#SVGID_3_"  style="overflow:visible;"/>
			</clipPath>
			<g style="clip-path:url(#SVGID_4_);">
				
					<image style="overflow:visible;" width="156" height="86" xlink:href="F2C55064.jpg"  transform="matrix(1.0295 0 0 -1.0295 141.2934 162.8089)">
				</image>
			</g>
		</g>
	</g>
	<g>
		<defs>
			<path id="SVGID_5_" d="M192.4,170c67.1,11.3,85.7-58.2,122.1-55.8c39.6,0,48.5,23.5,62.3,21.8c33.2-2.4,66.3-52.6,121.3-19.4
				c-40.4,0.8-51.1,38.2-147.2,20.2c-60.7-11.3-122.1,132.6-160.1,150.4C232.1,224.1,192.4,170,192.4,170L192.4,170z"/>
		</defs>
		<clipPath id="SVGID_6_">
			<use xlink:href="#SVGID_5_"  style="overflow:visible;"/>
		</clipPath>
		<g class="st3">
			<defs>
				<rect id="SVGID_7_" x="190.8" y="83.4" width="307.3" height="203.8"/>
			</defs>
			<clipPath id="SVGID_8_">
				<use xlink:href="#SVGID_7_"  style="overflow:visible;"/>
			</clipPath>
			<g style="clip-path:url(#SVGID_8_);">
				
					<image style="overflow:visible;" width="304" height="202" xlink:href="F2C55065.jpg"  transform="matrix(1.0295 0 0 -1.0295 187.9315 289.5475)">
				</image>
			</g>
		</g>
	</g>
	<g>
		<defs>
			<path id="SVGID_9_" d="M257.1,221.7c76.8-110.8,129.4-49.3,178.7-74.4C401.9,245.2,309.7,182.9,257.1,221.7L257.1,221.7z"/>
		</defs>
		<clipPath id="SVGID_10_">
			<use xlink:href="#SVGID_9_"  style="overflow:visible;"/>
		</clipPath>
		<g class="st4">
			<defs>
				<rect id="SVGID_11_" x="257.1" y="110.9" width="178.7" height="134.3"/>
			</defs>
			<clipPath id="SVGID_12_">
				<use xlink:href="#SVGID_11_"  style="overflow:visible;"/>
			</clipPath>
			<g style="clip-path:url(#SVGID_12_);">
				
					<image style="overflow:visible;" width="180" height="134" xlink:href="F2C55063.jpg"  transform="matrix(1.0295 0 0 -1.0295 254.8677 247.6729)">
				</image>
			</g>
		</g>
	</g>
	<path class="st5" d="M122.9,326.9c103.5,4.8,128.6-97.9,237.8-102.7c-136.7-30.7-114,64.7-206.2,89c12.1-12.1,67.9-75.2-2.4-139.1
		c-21-14.6-29.1,8.9-21,17C200.5,252.5,147.1,313.1,122.9,326.9L122.9,326.9z"/>
	<path class="st5" d="M13.7,279.1c-25.1-33.2-14.6-123.7,72-145.6c-103.5,59-53.4,185.2,4.9,116.5C92.2,297.7,35.2,308.2,13.7,279.1
		L13.7,279.1z"/>
	<path class="st6" d="M28.3,298.6c33.2,3.2,51.8,4.9,69.6-26.7c0.8,16.2-8.9,40.4-38,44.5C50.1,317.2,38.8,310.7,28.3,298.6
		L28.3,298.6z"/>
	<g>
		<defs>
			<path id="SVGID_13_" d="M101,134.4c-34,7.3-77.6,54.2-62.3,112.4c4.9,11.3,13.8,14.6,24.3,12.1c9.7-2.4,14.6-13.7,10.5-23.5
				C59.8,206.4,50.9,161.9,101,134.4L101,134.4z"/>
		</defs>
		<clipPath id="SVGID_14_">
			<use xlink:href="#SVGID_13_"  style="overflow:visible;"/>
		</clipPath>
		<g class="st7">
			<defs>
				<rect id="SVGID_15_" x="23.4" y="134.4" width="77.6" height="127"/>
			</defs>
			<clipPath id="SVGID_16_">
				<use xlink:href="#SVGID_15_"  style="overflow:visible;"/>
			</clipPath>
			<g style="clip-path:url(#SVGID_16_);">
				
					<image style="overflow:visible;" width="84" height="128" xlink:href="F2C5506C.jpg"  transform="matrix(1.0295 0 0 -1.0295 20.5608 264.153)">
				</image>
			</g>
		</g>
	</g>
	<g>
		<defs>
			<path id="SVGID_17_" d="M73.5,326.9c55-4.9,84.1-51.8,62.3-93.8c11.3,2.4,36.4,63.1-25.1,95.4C101,330.9,90.5,331.7,73.5,326.9
				L73.5,326.9z"/>
		</defs>
		<clipPath id="SVGID_18_">
			<use xlink:href="#SVGID_17_"  style="overflow:visible;"/>
		</clipPath>
		<g class="st8">
			<defs>
				<rect id="SVGID_19_" x="73.5" y="233" width="98.7" height="98.7"/>
			</defs>
			<clipPath id="SVGID_20_">
				<use xlink:href="#SVGID_19_"  style="overflow:visible;"/>
			</clipPath>
			<g style="clip-path:url(#SVGID_20_);">
				
					<image style="overflow:visible;" width="104" height="99" xlink:href="F2C5506F.jpg"  transform="matrix(1.0295 0 0 -1.0295 70.6342 333.8399)">
				</image>
			</g>
		</g>
	</g>
	<path class="st5" d="M67.9,321.2c76.8-30.7,30.7-80.1,14.6-96.2c-37.2-41.3,15.4-121.3,81.7-69.6c-46.9-25.1-88.2,7.3-63.1,44.5
		C175.5,273.5,114,315.5,67.9,321.2L67.9,321.2z"/>
	<path class="st6" d="M117.2,190.2c3.2,9.7,38.8,27.5,39.6,59.9c-16.2-47.7-67.1-50.1-54.2-80.1c28.3-60.7,154.5,32.3,67.9,130.2
		c12.1-14.6,55-97.9-25.1-135.9C129.9,158.4,108.8,167,117.2,190.2L117.2,190.2z"/>
	<polygon class="st6" points="487.9,330.1 420.7,330.1 435.3,262.7 450.8,262.7 437.9,322.1 489.7,322.1 487.9,330.1 	"/>
	<path class="st6" d="M373.5,330.4c-7.2,0-13.2-0.5-17.9-1.5c-4.8-1-9.2-2.3-13.2-3.7l3.1-11.2h0.9c3.6,2.8,7.9,4.9,13,6.4
		c5.1,1.5,10.2,2.3,15.3,2.3c7.3,0,13.1-1,17.4-3.1c4.3-2.1,6.9-4.8,7.8-8.2c0.7-2.7,0.4-4.9-1.1-6.6c-1.5-1.7-4.2-2.9-8.3-3.8
		c-2.9-0.6-5.6-1.1-8-1.5c-2.4-0.4-5.5-0.9-9.1-1.6c-3.2-0.6-6.1-1.4-8.6-2.3c-2.5-0.9-4.5-2.1-6.2-3.7c-1.6-1.5-2.7-3.2-3.3-5.2
		c-0.6-2-0.5-4.3,0.2-7c1.5-5.5,5.9-10.1,13.2-13.7c7.3-3.7,15.8-5.6,25.5-5.6c5.5,0,10.7,0.4,15.4,1.1c4.7,0.8,9,1.8,12.9,3.2
		l-2.9,10.7h-1c-2.6-2-6.2-3.7-10.7-5.1c-4.5-1.5-9.5-2.2-14.9-2.2c-6.1,0-11.3,1-15.6,2.9c-4.3,1.9-6.9,4.5-7.8,7.7
		c-0.8,2.9-0.3,5.1,1.4,6.9c1.8,1.7,4.7,2.9,8.6,3.7c2.7,0.5,5.9,1.1,9.8,1.7c3.9,0.6,7.1,1.2,9.6,1.8c6.5,1.4,10.8,3.6,13.2,6.4
		c2.4,2.9,3,6.4,1.8,10.6c-0.7,2.6-2.2,5.2-4.5,7.8c-2.3,2.6-5.1,4.7-8.4,6.5c-3.7,1.9-7.7,3.5-12.1,4.5
		C384.8,329.9,379.6,330.4,373.5,330.4L373.5,330.4z"/>
	<path class="st6" d="M300.2,330.4c-6.2,0-11.7-0.7-16.5-2.2c-4.8-1.5-8.8-3.7-11.8-6.6c-3-2.9-5-6.6-6-11c-1-4.4-0.7-9.4,0.7-15.1
		c1.4-5.6,3.7-10.6,6.8-14.8c3.1-4.2,7-7.8,11.6-10.9c4.6-3,9.6-5.3,15.2-6.9c5.6-1.6,11.6-2.4,18-2.4c3.2,0,6.1,0.2,8.8,0.5
		c2.7,0.3,5.2,0.8,7.4,1.3c1.9,0.5,3.9,1,5.8,1.7c2,0.7,3.9,1.4,5.8,2.2l-2.7,10.8h-1c-0.9-0.7-2.1-1.6-3.6-2.6c-1.5-1-3.4-2-5.6-3
		c-2.2-0.9-4.6-1.7-7.3-2.3c-2.7-0.6-5.9-0.9-9.6-0.9c-4,0-8,0.6-11.9,1.8c-3.9,1.2-7.5,2.9-10.8,5.2c-3.3,2.3-6.1,5.2-8.4,8.7
		c-2.4,3.5-4.1,7.4-5.2,11.7c-1.2,4.6-1.4,8.6-0.7,11.9c0.7,3.3,2.2,6.2,4.3,8.5c2.1,2.2,4.7,3.9,8,5c3.3,1.1,6.9,1.7,10.9,1.7
		c3.6,0,7.1-0.3,10.4-0.9c3.3-0.6,6.2-1.4,8.9-2.4c2.6-0.9,4.8-1.9,6.8-2.9c2-1,3.5-1.8,4.7-2.5h1l-2.7,10.7c-2.3,0.7-4.4,1.4-6.4,2
		c-2,0.6-4.4,1.3-7.2,1.9c-2.9,0.6-5.6,1.1-8,1.5C307.1,330.2,304,330.4,300.2,330.4L300.2,330.4z"/>
	<path class="st9" d="M44.8,372c0-2.9-0.1-5.8-0.2-8.7h3.8c-0.1,2.7-0.2,5.6-0.2,8.7h14.5c-0.1,2.3-0.2,5.5-0.2,9.6
		c0,4.1,0.1,7.3,0.2,9.8h-3.7v-3H48.3v7.9c0,1.6,0.1,3.9,0.2,6.8h-4c0.2-2.6,0.4-4.8,0.4-6.8v-7.9H34.3v3.1h-3.7
		c0.1-2.3,0.2-5.7,0.2-10c0-4.3-0.1-7.5-0.2-9.6H44.8L44.8,372z M34.3,374.8v10.8h10.5v-10.8H34.3L34.3,374.8z M48.3,374.8v10.8
		h10.7v-10.8H48.3L48.3,374.8z M95.1,386.7c0.9-0.7,1.8-1.3,2.6-1.7c0.5,0.5,1.5,1.6,3.1,3.5c-1.1,0.6-2,1.2-2.8,1.8
		C97.7,389.7,96.7,388.6,95.1,386.7L95.1,386.7z M81.7,372.9c1.7,0.1,3.7,0.2,5.8,0.2H97c1.7,0,3.6-0.1,5.4-0.2v2.8
		c-1.8-0.1-3.6-0.2-5.4-0.2h-4v5.6h3c2,0,3.8-0.1,5.6-0.2v2.8c-1.7-0.1-3.6-0.2-5.6-0.2h-3v7.7h4.5c2,0,3.9-0.1,5.8-0.2v2.8
		c-1.8-0.1-3.7-0.2-5.8-0.2H86.2c-1.9,0-3.7,0.1-5.6,0.2v-2.8c1.9,0.1,3.7,0.2,5.6,0.2h3.7v-7.7h-2.3c-2,0-3.8,0.1-5.4,0.2v-2.8
		c1.6,0.1,3.4,0.2,5.4,0.2h2.3v-5.6h-2.4c-2.1,0-4,0.1-5.8,0.2V372.9L81.7,372.9z M77.8,368.4v30.1h28.1v-30.1H77.8L77.8,368.4z
		 M74.5,365.9h34.8c-0.1,2.8-0.2,5.9-0.2,9.3V393c0,3.5,0.1,6.9,0.2,10.1h-3.3v-2.3H77.8v2.6h-3.3c0.1-3.5,0.2-7,0.2-10.7v-17.6
		C74.7,371.9,74.6,368.8,74.5,365.9L74.5,365.9z M123.6,383.6c1.6,0.4,3.1,0.5,4.5,0.5c-0.6,1.2-1.2,3.7-1.7,7.5
		c0.7,1.1,1.7,2,2.9,3c1.2,0.9,2.9,1.9,5.2,2.8v-18h-10.8c0.1-2.3,0.2-4.7,0.2-7.2c0-2.4-0.1-4.7-0.2-6.6h25.3
		c-0.1,2-0.2,4.2-0.2,6.6c0,2.4,0.1,4.8,0.2,7.2h-11v7h8.4c1.4,0,3.1-0.1,5.2-0.2v3.1c-2-0.1-3.7-0.2-5.1-0.2h-8.6v8.7
		c3.5,0.2,6.6,0.3,9.3,0.1c2.7-0.2,5.3-0.4,7.9-0.6c-0.4,0.6-0.6,1.3-0.8,2c-0.2,0.8-0.3,1.6-0.3,2.5c-4.2-0.1-7.9-0.3-11.1-0.5
		c-3.2-0.2-6.2-0.7-8.9-1.3c-2.7-0.6-5.6-2.4-8.6-5.3c-0.7,1.4-1.4,2.7-2,4c-0.6,1.3-1.5,2.7-2.5,4.4c-1.1-0.9-2.2-1.7-3.5-2.4
		c1.3-1.2,2.3-2.5,3.1-4.1c0.8-1.6,1.5-3.3,2.2-5.3C123.3,389.3,123.6,386.7,123.6,383.6L123.6,383.6z M127.3,368.4v8.2h18.2v-8.2
		H127.3L127.3,368.4z M197.2,377.8c0.9,0.8,2,1.7,3.3,2.6c-1.2,0.7-2.4,1.8-3.7,3.2c-1.3,1.5-2.6,2.8-4,3.9c3.4,4.8,6.3,7.9,8.9,9.4
		c-1.2,0.5-2.2,1.3-3.1,2.6c-3.5-3.3-6.7-7.8-9.6-13.6v13.8c0,1.9-0.5,3-1.4,3.3c-0.9,0.4-2.3,0.7-4,1.1c-0.4-1.4-0.8-2.6-1.4-3.7
		c2.4,0,3.7-0.3,3.7-0.9v-11.2c-0.9,1.3-2.1,2.8-3.4,4.5c-1.3,1.7-2.8,3.7-4.5,5.8c-0.8-1-1.9-1.8-3.1-2.3c2-1.6,3.9-3.6,5.9-5.9
		c1.9-2.3,3.6-4.7,5.2-7.4V374c-4.5,0-7.6,0.1-9.1,0.2v-3c1.5,0.1,4.5,0.2,9.1,0.2c0-3.8-0.1-6.5-0.2-8h3.7c-0.4,1.5-0.5,4.2-0.4,8
		h5.6c1.8,0,3.4-0.1,4.9-0.2v3c-1.5-0.1-3.1-0.2-4.9-0.2h-5.6v5.9c0.6,2,1.4,3.7,2.4,5.1C193.7,383,195.6,380.6,197.2,377.8
		L197.2,377.8z M183.3,383.2c-0.8,0.6-1.7,1.2-2.6,1.8c-1.2-2-2.4-3.8-3.7-5.6c0.9-0.6,1.8-1.2,2.5-1.8
		C180.8,379.4,182.1,381.2,183.3,383.2L183.3,383.2z M190.7,364.9c0.9-0.6,1.8-1.2,2.6-1.7c1.2,1.4,2.3,3,3.5,4.7
		c-0.7,0.5-1.6,1-2.6,1.7C193,367.7,191.9,366.1,190.7,364.9L190.7,364.9z M160.6,369.1c1.5,0.1,2.8,0.2,3.8,0.2h6.5
		c1.3,0,2.6-0.1,4-0.2v3.1c-1.5-0.1-3.3-0.2-5.4-0.2v8.9c1.5,0,3-0.1,4.5-0.2v3.1c-1.5-0.1-3-0.2-4.5-0.2v10.5
		c2.1-0.7,3.8-1.4,5.2-2.1c0.2,1,0.5,2,0.7,2.8c-2.1,0.6-4.5,1.4-7.1,2.4c-2.6,1-4.7,2-6.2,3c-0.5-1-1-2.2-1.6-3.5
		c1.5-0.2,3.4-0.8,5.8-1.7v-11.4c-2,0-3.7,0.1-5.2,0.2v-3.1c1.6,0.1,3.4,0.2,5.2,0.2V372c-2.3,0-4.3,0.1-5.8,0.2V369.1L160.6,369.1z
		 M205.7,375.2c1.3,0.1,3.1,0.2,5.4,0.2c0-5.6-0.1-9.3-0.2-11.2h3.5c-0.1,1.9-0.2,5.6-0.2,11.2c2.1,0,3.9-0.1,5.4-0.2v3.1
		c-1.5-0.1-3.3-0.2-5.4-0.2v19.2c0,1.6,0.1,3.7,0.2,6.3H211c0.1-2.6,0.2-4.7,0.2-6.3v-19.2c-2.3,0-4.1,0.1-5.4,0.2V375.2
		L205.7,375.2z M220.9,372.7c2.1,0.1,4.3,0.2,6.6,0.2c0-3.7-0.1-6.8-0.2-9.3c1.2,0.4,2.5,0.6,4,0.7c-0.5,1.9-0.6,4.7-0.5,8.6h9.1
		c-0.2,1.1-0.4,2.8-0.5,5.2l-1.2,19.4c-0.2,1.9-0.9,3-2.1,3.4c-1.2,0.4-2.7,0.8-4.7,1.3c-0.5-1.5-1-2.8-1.6-3.8
		c2.4-0.1,3.9-0.2,4.4-0.4c0.5-0.1,0.8-0.9,0.9-2.4l1.2-19.9h-5.6c-0.1,5.2-0.9,10.2-2.4,14.9c-1.5,4.7-4,8.8-7.6,12.6
		c-0.7-0.9-2-1.7-4-2.4c2.6-1.4,4.9-4.2,7.1-8.6c2.2-4.3,3.3-9.8,3.6-16.4c-2.2,0-4.4,0.1-6.5,0.2V372.7L220.9,372.7z M220.4,381.3
		c0.9,0.4,2.2,0.6,3.7,0.9c-0.7,0.9-1.7,3.9-3.1,8.9c-1.2-0.5-2.3-0.8-3.3-0.9C219.2,385.9,220.2,382.9,220.4,381.3L220.4,381.3z
		 M239.8,382.3c1.1-0.4,2-0.8,3-1.4c1.6,3.7,2.7,6.5,3.1,8.2c-1.2,0.2-2.2,0.6-3.1,1.2C242.1,387.9,241.1,385.3,239.8,382.3
		L239.8,382.3z M260.1,377.5c1.8,0.1,3.7,0.2,5.8,0.2h7.7c2.6,0,4.7-0.1,6.3-0.2v3.3c-1.8-0.2-3.8-0.4-6.3-0.4H266
		c-2.2,0-4.2,0.1-5.9,0.4V377.5L260.1,377.5z M267.7,388.8c1.4,1.3,2.4,2.1,3,2.4c-1.2,0.4-4.4,3-9.8,7.9c7.9-0.8,13.6-1.3,17-1.4
		c-0.7-0.8-2.1-2.1-4.2-3.8c0.8-0.7,1.7-1.5,2.6-2.4c1.9,1.7,3.5,3.4,5,4.9c1.5,1.5,3,3.1,4.6,4.7c-0.9,0.6-2,1.3-3.3,2.3
		c-0.8-1.1-1.7-2-2.6-3c-2.3,0-6.4,0.3-12.3,0.9c-5.9,0.6-9.7,1.1-11.4,1.6c-0.6-2-1.1-3.3-1.6-4c2.7-0.8,5.1-2.2,7.2-4.3
		c2.1-2,3.7-3.9,4.9-5.7h-5.1c-3.1,0-5.9,0.1-8.4,0.4v-3.3c2.6,0.1,5.3,0.2,8.2,0.2h17.5c2.9,0,5.6-0.1,8-0.2v3.3
		c-2.5-0.2-5.4-0.4-8.7-0.4H267.7L267.7,388.8z M272.1,364.3c-0.3,0.2-0.7,0.5-1,0.9c4.5,5.9,11,9.9,19.2,11.9
		c-0.9,0.9-1.7,2.3-2.4,4c-8.4-3.5-14.6-8-18.7-13.5c-5.1,6.2-10.5,11-16.3,14.5c-1.2-1.6-2.2-2.6-3-3c2.9-0.9,6.4-3.3,10.6-7.2
		c4.1-3.8,6.4-6.9,6.9-9.1C268.9,363.4,270.5,363.9,272.1,364.3L272.1,364.3z M319.8,385.7v8h9.6v-8H319.8L319.8,385.7z
		 M333.1,366.4c-0.2,1.4-0.4,2.9-0.5,4.4l-0.4,5.9c-0.2,2.1-0.9,3.3-2,3.8c-1.1,0.4-2.6,0.8-4.6,1.1c-0.2-1.3-0.6-2.5-1.2-3.7
		c1.8,0,2.9-0.1,3.6-0.4c0.6-0.2,1-0.9,1.1-1.9l0.5-6.5h-5.1c-0.7,3.3-1.5,5.7-2.3,7.3c-0.8,1.6-2,3.2-3.7,5c-0.8-0.8-1.8-1.6-3-2.3
		c1.6-1.3,2.9-2.8,3.8-4.5c0.9-1.7,1.5-3.5,1.7-5.5c-1.9,0-3.8,0.1-5.9,0.2v-3.1c2.1,0.1,3.8,0.2,5.2,0.2H333.1L333.1,366.4z
		 M316.5,382.9h16.2c-0.1,2.2-0.2,4.6-0.2,7.2c0,2.6,0.1,4.7,0.2,6.5h-16.2c0.1-1.6,0.2-3.8,0.2-6.4
		C316.7,387.5,316.6,385.1,316.5,382.9L316.5,382.9z M301.1,392c1.1,1.4,2.4,2.6,4,3.7v-14.7c-3.7,0-6.6,0.1-8.7,0.2V378
		c2.1,0.1,4.7,0.2,7.9,0.2v-5.6c-2.6,0-4.8,0.1-6.8,0.2v-3.1c2,0.1,4.2,0.2,6.8,0.2c0-2-0.1-4-0.2-6.1h3.5c-0.1,1.9-0.2,3.9-0.2,6.1
		c1.9,0,3.8-0.1,5.8-0.2v3.1c-1.9-0.1-3.8-0.2-5.8-0.2v5.6c2,0,4.3-0.1,6.8-0.2v3.1c-2.4-0.1-4.4-0.2-5.9-0.2v5.8
		c1.4,0,3.1-0.1,5.2-0.2v3.1c-2.1-0.1-3.8-0.2-5.2-0.2v7.9c2.8,1.3,6.7,2,11.8,2.1c5.1,0.1,10.2-0.1,15.5-0.7
		c-0.7,1.5-1.1,2.9-1.2,4.2c-4.5,0.1-8.5,0.2-11.8,0.2c-3.3,0-6.2-0.3-8.6-0.8c-2.4-0.5-4.7-1.3-6.9-2.4c-2.2-1.1-4.3-2.7-6.6-4.8
		c-0.6,2.6-1.5,5.1-2.6,7.5c-1.2-0.9-2.3-1.6-3.3-2.1c1.3-1.9,2.2-3.7,2.6-5.5c0.5-1.8,0.8-3.5,1-5.1c0.2-1.6,0.3-3.5,0.3-5.7
		c1.3,0.2,2.6,0.5,4,0.7C301.8,386.6,301.4,388.9,301.1,392L301.1,392z M346.4,362.8c1.1,0.9,2.4,1.7,4,2.3c-1,0.8-2,2.1-2.9,3.9
		c-0.9,1.8-2.3,4.1-4.3,6.9h6.3c1.4-2.1,2.4-4,3.1-5.8c0.7,0.5,1.9,1.3,3.5,2.5c-1.2,0.8-2.4,2.3-3.8,4.5c-1.4,2.2-3.4,4.9-6.1,8.3
		c3.3-0.2,5.9-0.5,8-0.7c-0.4,1-0.6,2.1-0.7,3.1c-1.2,0-2.9,0.1-5.3,0.4c-2.4,0.3-4.6,0.6-6.7,1c-0.5-1-0.9-2.2-1.4-3.3
		c1.3-0.4,2.6-1.1,3.8-2.4c1.3-1.2,2.6-2.9,4-5c-1.2,0-2.4,0.1-3.8,0.2c-1.4,0.1-2.7,0.4-3.8,0.7c-0.4-1.1-0.8-2.2-1.2-3.3
		c1.3-1,2.6-2.8,4.1-5.2C344.6,368.4,345.7,365.7,346.4,362.8L346.4,362.8z M339.6,394.6c1.6-0.1,3.3-0.3,5.2-0.6
		c1.8-0.3,4.5-0.8,8.1-1.5c-0.4,1.2-0.5,2.3-0.5,3.3c-1.9,0.4-3.7,0.7-5.6,1.1c-1.9,0.4-3.8,1-5.9,1.7
		C340.2,397,339.8,395.6,339.6,394.6L339.6,394.6z M354.6,365.7c2.1,0.1,4.9,0.2,8.4,0.2h11.4c-1.3,3.8-2.3,7.5-3,10.8h6.1
		c-0.8,3.3-1.5,5.7-2.1,7.4c-0.6,1.7-1.3,3.4-2,5.2c-0.8,1.8-1.7,3.7-2.7,5.7c1.2,1.2,2.5,2.2,3.9,3c1.5,0.8,3.2,1.5,5.2,1.9
		c-1.2,1.3-2,2.4-2.6,3.5c-1.7-0.9-3.3-1.8-4.6-2.6c-1.3-0.8-2.8-2-4.3-3.5c-0.5,0.4-1.5,1.2-3.1,2.4c-1.6,1.3-3.7,2.6-6.1,3.8
		c-0.7-0.9-1.6-1.9-2.8-3c2.4-0.8,4.5-1.8,6.2-2.9c1.7-1.1,3-2.1,3.9-3.1c-0.9-1.4-1.8-3.1-2.6-5.1c-0.8-2-1.6-4.4-2.3-7.3
		c0.4-1.4,0.6-4.1,0.9-8.2c1.2,5.1,2.2,9,3.2,11.6c1,2.6,2,4.7,3.1,6.2c1.2-1.9,2.1-3.9,2.9-6c0.8-2.2,1.4-4.3,1.8-6.6h-5.9
		c1.4-5.7,2.3-9.3,2.6-10.8h-7.2c-0.1,2.6-0.3,5.3-0.4,8.2c-0.2,2.9-0.6,5.9-1.2,8.8c-0.6,3-1.6,5.9-2.9,8.8
		c-1.3,2.9-3.2,5.7-5.8,8.4c-1.2-0.9-2.3-1.7-3.5-2.3c2.3-1.9,4.2-3.9,5.5-6.1c1.3-2.2,2.4-4.6,3.1-7.2c0.7-2.6,1.2-5.5,1.5-8.7
		c0.3-3.1,0.4-6.5,0.4-10c-1.5,0-3.1,0.1-4.9,0.2V365.7L354.6,365.7z M390.9,393.2c1.3-0.2,3.1-0.6,5.4-1v-5.4h-5.4V393.2
		L390.9,393.2z M384.5,365.9c1.4,0.1,2.8,0.2,4.2,0.2h9.8c1.4,0,2.9-0.1,4.5-0.2v3c-1.3-0.1-2.4-0.2-3.5-0.2v22.7
		c1.3-0.4,2.4-0.6,3.5-0.9c-0.2,1.5-0.3,2.5-0.2,3c-1.4,0.2-2.5,0.5-3.3,0.7v3.8c0,1.8,0.1,3.7,0.2,5.8H396c0.2-2.1,0.3-4,0.3-5.8
		v-3.1c-1.3,0.2-2.9,0.6-4.9,1.2c-2,0.6-4,1.2-6.1,1.9c-0.1-0.7-0.5-2-1.2-3.8c0.7,0,1.9-0.2,3.7-0.5v-25c-1.2,0-2.3,0.1-3.3,0.4
		V365.9L384.5,365.9z M390.9,368.7v5.9h5.4v-5.9H390.9L390.9,368.7z M390.9,377.3v6.8h5.4v-6.8H390.9L390.9,377.3z M404.9,365.6
		c0.4-0.2,1.2-0.7,2.6-1.4c0.6,1,1.1,2,1.7,2.9c0.5,0.9,1.1,1.8,1.8,2.7c-1.5,0.5-2.5,0.9-3,1.4C407.5,370,406.4,368.1,404.9,365.6
		L404.9,365.6z M416.4,363.3c0.7,0.5,2,1.1,4,1.8c-1.1,1.3-1.9,2.4-2.4,3.3c-0.6,0.9-1.4,2.3-2.4,4.2c2.8,0,5.2-0.1,7.2-0.2v3
		c-2-0.1-3.8-0.2-5.4-0.2h-3.5c-0.1,4.2-0.2,7.2-0.4,8.9h5.1c1.5,0,3.2-0.1,5.1-0.2v3c-1.9-0.1-3.6-0.2-5.1-0.2H414
		c0.7,3.1,2.1,5.9,4.2,8.3c2.1,2.4,4.4,3.9,7,4.5c-0.8,0.7-1.4,1.4-1.8,2c-0.4,0.6-0.7,1.3-0.8,2c-2.4-1.6-4.5-3.5-6.1-5.5
		c-1.6-2-3-4.6-4-7.8c-0.8,2.7-1.8,5.1-3.1,7.2c-1.2,2.2-2.9,4.3-5,6.4c-0.4-0.5-0.9-1-1.6-1.5c-0.7-0.5-1.4-0.9-2.1-1.1
		c1.3-0.7,2.5-1.6,3.5-2.6c1.1-1.1,2-2.2,2.8-3.4c0.8-1.2,1.5-2.6,1.9-4c0.5-1.5,0.8-2.9,1.1-4.5h-2.1c-1.9,0-3.9,0.1-6.1,0.2v-3
		c2.2,0.1,4.3,0.2,6.1,0.2h2.3c0.2-3.3,0.4-6.2,0.4-8.9h-1.6c-1.6,0-3.6,0.1-5.9,0.2v-3c2.3,0.1,4.3,0.2,5.9,0.2h4.2
		C414.6,369.2,415.7,366.1,416.4,363.3L416.4,363.3z M445.5,374.8v2.6h7.3v-2.6H445.5L445.5,374.8z M445.5,379.5v2.6h7.3v-2.6H445.5
		L445.5,379.5z M469.4,388.5c-0.8,1.1-1.3,2-1.6,3c-2.9-0.4-5.7-1.1-8.3-2.3c-2.6-1.2-4.9-2.8-6.7-4.9h-7c-2,2-4.3,3.5-7,4.6
		c-2.7,1.1-5.2,2-7.5,2.5c-0.5-0.9-1.2-1.9-2.1-2.8c2.9-0.3,5.4-0.9,7.6-1.7c2.2-0.8,3.9-1.7,5.3-2.7c-5.9,0-9.7,0.1-11.2,0.2V382
		c1.6,0.1,5.6,0.2,11.9,0.2v-2.6c-2.6,0-4.6,0.1-6.1,0.2v-2.5c1.7,0.1,3.8,0.2,6.1,0.2v-2.6c-2.9,0-5.1,0.1-6.6,0.2v-2.4
		c1.5,0.1,3.7,0.2,6.6,0.2v-2.4h2.4v2.4h7.3v-2.4h3v2.4c3.4,0,5.7-0.1,7-0.2v2.4c-1.6-0.1-4-0.2-7-0.2v2.6c2.6,0,4.9-0.1,7-0.2v2.5
		c-2-0.1-4.3-0.2-7-0.2v2.6c4.5,0,8.3-0.1,11.4-0.2v2.4c-2.9-0.1-6.5-0.2-10.7-0.2c0.9,0.9,2.3,1.8,4.1,2.5
		C462.2,387.6,465.2,388.1,469.4,388.5L469.4,388.5z M464,368.7h-28.5v4.2h-3c0.1-1,0.2-2.1,0.2-3.2c0-1.1-0.1-2.2-0.2-3.2h16.3
		c-0.4-1-0.7-2-1.1-3c1.2-0.2,2.3-0.5,3.3-0.9c0.2,1.3,0.6,2.6,1.1,3.8h14.9c-0.1,1.1-0.2,2.1-0.2,3.2c0,1.1,0.1,2.4,0.2,3.8h-3
		V368.7L464,368.7z M438.6,389.3h21c0,1.2,0,2.4-0.1,3.8c-0.1,1.4,0,2.6,0.1,3.5h-3v-4.9H442v5.8h-3.3c0.1-1.3,0.2-2.8,0.2-4.5
		C438.8,391.4,438.8,390.1,438.6,389.3L438.6,389.3z M447.6,393c1,0.5,2.2,0.8,3.5,1c-2,3.5-3.8,5.7-5.4,6.6
		c-1.6,0.9-3.3,1.6-5.2,2.1c-1.8,0.5-4.1,0.9-6.9,1.4c-0.4-0.9-1.1-2-2.1-3.1c3.3-0.1,5.8-0.4,7.6-1c1.8-0.5,3.3-1.1,4.6-1.8
		C445,397.5,446.3,395.8,447.6,393L447.6,393z M451.9,398.6c0.6-0.7,1-1.5,1.2-2.4c2.1,0.9,5.8,2.7,11.2,5.2
		c-0.7,0.8-1.2,1.7-1.6,2.8C460.9,403.1,457.3,401.3,451.9,398.6L451.9,398.6z"/>
</g>
</svg>
