<?xml version="1.0" encoding="utf-8"?>
<!-- Generator: Adobe Illustrator 25.0.1, SVG Export Plug-In . SVG Version: 6.00 Build 0)  -->
<svg version="1.1" id="Layer_1" xmlns="http://www.w3.org/2000/svg" xmlns:xlink="http://www.w3.org/1999/xlink" x="0px" y="0px"
	 viewBox="0 0 500 500" style="enable-background:new 0 0 500 500;" xml:space="preserve">
<style type="text/css">
	.st0{fill:url(#SVGID_1_);}
	.st1{fill:url(#SVGID_2_);}
	.st2{fill:url(#SVGID_3_);}
	.st3{fill:url(#SVGID_4_);}
	.st4{fill:url(#SVGID_5_);}
	.st5{fill:url(#SVGID_6_);}
	.st6{fill:url(#SVGID_7_);}
	.st7{fill:url(#SVGID_8_);}
	.st8{fill:url(#SVGID_9_);}
	.st9{fill:url(#SVGID_10_);}
	.st10{fill:url(#SVGID_11_);}
	.st11{fill:url(#SVGID_12_);}
	.st12{fill:url(#SVGID_13_);}
	.st13{fill:url(#SVGID_14_);}
	.st14{fill:url(#SVGID_15_);}
	.st15{fill:url(#SVGID_16_);}
	.st16{fill:url(#SVGID_17_);}
	.st17{fill:url(#SVGID_18_);}
	.st18{fill:url(#SVGID_19_);}
	.st19{fill:url(#SVGID_20_);}
	.st20{fill:url(#SVGID_21_);}
</style>
<g>
	<g>
		<g>
			<path d="M14.5,485.3v-39.4c-1.8-0.4-3.6-0.7-5.8-0.4c-1.8,0-4,0-5.8,0.4v49.8h31.8c0.4-1.8,0.4-3.6,0.4-5.1
				c0-1.8-0.4-3.6-0.4-5.1L14.5,485.3L14.5,485.3z M43,445.5v49.8h11.6v-49.8c-1.8-0.4-3.6-0.7-5.8-0.4
				C46.6,445.2,44.8,445.2,43,445.5L43,445.5z M92.5,470.1c4.3-1.8,6.9-6.1,6.5-10.8c0-9-5.8-14.4-19.9-14.4
				c-5.4,0-10.8,0.4-16.3,1.4v49.1c5.4,0.7,10.8,1.4,16.3,1.4c15.5,0,21.7-6.1,21.7-15.2C101.5,476.2,97.9,471.5,92.5,470.1z
				 M74.8,454.5h5.4c5.1,0,7.6,2.2,7.6,5.4s-1.8,6.1-6.9,6.1h-6.1V454.5L74.8,454.5z M81,487.4h-6.1v-12.6h6.5
				c5.8,0,8.3,2.5,8.3,6.1C89.6,485.3,86.7,487.4,81,487.4z M117.4,485.3v-9.8h19.1c0.4-1.8,0.7-3.6,0.4-5.1c0-1.8,0-3.3-0.4-5.1
				h-19.1v-9h21.3c0.4-1.4,0.7-3.3,0.7-5.1c0-1.8-0.4-3.6-0.7-5.1h-32.9v49.8h33.6c0.4-1.8,0.7-3.6,0.4-5.1c0-1.8,0-3.6-0.4-5.1
				L117.4,485.3L117.4,485.3z M185.3,460.7c0-9.8-6.1-16.3-21.3-16.3c-5.4,0-11.2,0.7-16.6,1.8v49.1H159V478h6.5l10.1,17.3h2.9
				c3.3,0,6.5-0.4,9.8-0.7l-11.6-19.5C182.1,473,185.7,467.2,185.3,460.7L185.3,460.7z M165.1,468.6H159v-13.7h6.1
				c5.8,0,8.7,2.5,8.7,6.9C173.8,465.7,171.3,468.6,165.1,468.6z M229,450.6c0-1.8,0-3.3-0.4-5.1H189c-0.4,1.8-0.7,3.6-0.4,5.1
				c0,1.8,0,3.3,0.4,5.1H203v39.7l5.8,0.4l6.1-0.4v-39.7H229C229,454.2,229,452.4,229,450.6L229,450.6z M246,445.2
				c-2.2,0-4,0-6.1,0.4L221.5,495c2.2,0.7,4,0.7,6.1,0.7h5.1l11.2-31.1l1.4-5.1l1.4,5.1l4.3,11.6h-7.2c-0.7,1.4-1.4,3.3-2.2,5.1
				c-0.4,1.4-0.7,3.3-1.1,4.7h13.7l3.6,9.8h4c2.5,0,5.1-0.4,7.6-0.7l-18.4-49.5C250,445.2,248.2,445.2,246,445.2L246,445.2z
				 M290.5,444.4c-5.4,0-10.5,0.4-15.9,1.1v49.8c5.4,0.7,10.8,1.1,16.3,1.1c17,0,28.2-9.8,28.2-26.4
				C319,453.5,308.9,444.4,290.5,444.4z M291.5,485.6h-5.4v-30h5.1c9.8,0,15.2,5.8,15.2,14.8C306.3,479.5,300.9,485.6,291.5,485.6z
				 M349,443.7c-15.2,0-26,10.8-26,26.7c0,15.5,10.8,26.4,26,26.4c13.7,0.4,25.6-10.5,26-24.6v-1.8C375,454.5,364.1,443.7,349,443.7
				L349,443.7z M349,486c-8.3,0-13.4-6.1-13.4-15.5c0-9.4,5.1-15.5,13.4-15.5s13.4,6.1,13.4,15.5C362.7,480.2,357.3,486,349,486z
				 M417.2,460.7c0-9.8-6.1-16.3-21.3-16.3c-5.4,0-11.2,0.7-16.6,1.8v49.1h11.6V478h6.1l10.5,17.3h2.9c3.3,0,6.5-0.4,9.8-0.7
				l-11.6-19.5C414,472.6,417.2,466.8,417.2,460.7L417.2,460.7z M397,468.6h-6.1v-13.7h6.1c5.8,0,8.3,2.5,8.3,6.9
				C405.3,465.7,402.8,468.6,397,468.6z M436,485.3v-9.8h19.1c0.4-1.8,0.4-3.6,0.4-5.1c0-1.8-0.4-3.3-0.4-5.1H436v-9h21.3
				c0.4-1.4,0.7-3.3,0.4-5.1c0-1.8,0-3.6-0.4-5.1h-32.9v49.8H458c0.4-1.8,0.4-3.6,0.4-5.1c0-1.8-0.4-3.6-0.4-5.1L436,485.3
				L436,485.3z M485.5,464.7c-8.7-2.5-9.8-3.3-9.8-5.8c0-2.5,2.2-4.3,6.9-4.3c4.7,0,9,1.4,12.6,4c3.3-2.2,5.1-5.8,5.1-9.4
				c-5.1-3.6-11.2-5.4-17-5.1c-11.6,0-19.1,6.1-19.1,15.5s7.2,13.4,15.5,15.2s10.1,4,10.1,6.1c0,2.5-2.2,4.7-7.9,4.7
				c-5.1,0-10.1-1.8-14.4-5.1c-3.3,2.2-5.1,5.8-5.1,9.4c3.3,2.9,9.4,6.1,19.1,6.1c9.8,0,19.5-6.1,19.1-16.6
				C501,469,494.9,467.2,485.5,464.7z M183.5,392.4c-0.7-0.7-1.4-1.4-2.5-1.8c-3.3-1.4-6.9-0.7-9.4,1.4c-0.7,0.7-1.4,1.8-1.8,2.9
				s-0.4,2.2-0.4,3.3v19.1c0,1.4,0.4,2.9,0.7,4.3c0.4,1.1,1.1,1.8,2.2,2.5c0.7,0.7,1.8,1.1,2.5,1.4l3.3,0.4c1.1,0,2.2-0.4,3.3-0.7
				c1.1-0.4,1.8-1.1,2.5-1.8s1.4-1.8,1.8-2.5c0.4-1.1,0.4-2.2,0.4-3.3v-2.2l-0.4-0.4H181c-0.4,0-0.4,0.4-0.4,0.4v1.4
				c0,0.7,0,1.4-0.4,1.4c0,0.4-0.4,0.7-0.4,1.1l-1.1,0.4h-0.7c-1.1,0-1.8-0.4-2.2-0.7c-0.4-0.7-0.7-1.4-0.4-2.5v-17.7
				c0-0.7,0-1.8,0.4-2.5c0.4-0.7,1.1-1.1,2.2-1.1c0.7,0,1.4,0.4,1.8,1.1c0.7,0.7,0.7,1.4,0.7,2.2v1.8h5.4v-2.2
				c0-1.1-0.4-2.2-0.4-3.3C185,393.9,184.3,393.1,183.5,392.4z M204.5,392.1c-0.7-0.7-1.8-1.4-2.9-1.8c-2.2-0.4-4.3-0.4-6.1,0
				l-2.5,1.8c-0.7,0.7-1.8,1.4-2.2,2.5s-0.7,2.5-0.7,4V417c0,1.4,0.4,2.5,0.7,4c0.4,1.1,1.1,2.2,2.2,2.5l2.5,1.8l3.3,0.4l3.3-0.4
				c1.1-0.4,2.2-1.1,2.9-1.8c0.7-0.7,1.4-1.4,2.2-2.5c0.4-1.1,0.7-2.5,0.4-4v-18.4C207.4,396,206.3,393.5,204.5,392.1z M201.6,417
				c0,0.7-0.4,1.8-1.1,2.5c-1.1,1.1-2.9,1.1-4,0c-0.7-0.7-0.7-1.4-0.7-2.5v-18.4c0-0.7,0.4-1.8,0.7-2.5c1.1-1.1,2.9-1.1,4,0
				c0.7,0.7,1.1,1.4,1.1,2.5V417z M229.4,389.9h-4.7c-0.4,0-0.4,0.4-0.4,0.4v17.3c0,0.4-0.4,0.4-0.4,0l-6.1-17.3l-0.4-0.4h-4.3
				c-0.4,0-0.4,0.4-0.4,0.4v34.7c0,0.4,0.4,0.4,0.4,0.4h4.7l0.4-0.4v-17.3c0-0.4,0.4-0.4,0.4,0l6.1,17.3h5.1l0.4-0.4v-34.3
				L229.4,389.9z M257.6,389.9h-4.7v0.4l-5.8,16.6c0,0.4-0.4,0.4-0.4,0l-5.8-16.6c-0.4-0.4-0.4-0.4-0.4-0.4h-5.1
				c-0.4,0-0.4,0.4-0.4,0.4v34.7c0,0.4,0,0.4,0.4,0.4h5.1c0.4,0,0.4-0.4,0.4-0.4v-17c0-0.4,0.4-0.4,0.7-0.4l0,0l3.6,11.2h3.3
				l3.6-11.2c0-0.4,0.4-0.4,0.4,0.4v17c0,0.4,0.4,0.4,0.4,0.4h4.7l0.4-0.4v-34.7L257.6,389.9L257.6,389.9z M278.2,389.9h-14.4
				c-0.4,0-0.4,0.4-0.4,0.4v34.7c0,0.4,0,0.4,0.4,0.4h14.4c0.4,0,0.4-0.4,0.4-0.4v-4.7c0-0.4-0.4-0.4-0.4-0.4h-9.4v-9h7.9l0.4-0.4
				v-4.7c0-0.4-0.4-0.4-0.4-0.4h-7.9v-9h9.4c0.4,0,0.4-0.4,0.4-0.4v-4.3L278.2,389.9z M297,392.8c-0.7-0.7-1.8-1.4-2.9-2.2
				c-1.4-0.7-2.9-0.7-4-0.7h-7.2l-0.4,0.4v34.7l0.4,0.4h6.5c2.5,0.4,5.4-0.7,7.2-2.5c1.8-2.2,2.5-4.7,2.2-7.2v-1.8
				c0-1.4-0.4-2.9-0.7-4.3c-0.4-1.1-1.1-1.8-2.2-2.5l0.7-0.7l1.4-1.4c0.4-0.7,0.4-1.1,0.4-1.8c0.4-0.7,0.4-1.8,0.4-2.5v-1.1
				c0-1.1,0-2.2-0.4-3.3C298.4,394.6,298,393.5,297,392.8z M293.7,416.6c0,0.7-0.4,1.1-0.4,1.4c-0.4,0.4-0.7,0.7-1.1,1.1l-2.2,0.4
				h-1.8v-9.8c0-0.4,0-0.4,0.4-0.4h1.4l2.2,0.4c0.4,0,0.7,0.4,1.1,0.7c0.4,0.4,0.7,1.1,0.4,1.4c0,0.4,0.4,1.4,0.4,2.2
				C294.1,415.2,293.7,415.9,293.7,416.6L293.7,416.6z M293.3,403.3c-0.7,0.7-2.2,1.1-3.3,1.1h-1.8V396h1.4c1.4,0,2.5,0.4,3.3,1.1
				c0.7,1.1,1.1,2.2,1.1,3.3C294.1,401.5,293.7,402.2,293.3,403.3z M317.5,392.1c-0.7-0.7-1.8-1.4-2.9-1.8c-1.8-0.4-4-0.4-6.1,0
				c-1.1,0.4-2.2,1.1-2.9,1.8s-1.4,1.8-2.2,2.5c-0.4,1.1-0.7,2.5-0.7,4V417c0,1.4,0.4,2.5,0.7,4c0.7,1.1,1.1,2.2,2.2,2.9l2.9,1.4
				l2.9,0.4l3.3-0.4l2.9-1.4c0.7-0.7,1.4-1.8,2.2-2.9c0.7-1.1,0.7-2.5,0.7-4v-18.4c0-1.4-0.4-2.5-0.7-4
				C319.3,393.5,318.6,392.8,317.5,392.1L317.5,392.1z M314.7,417c0,0.7-0.4,1.8-0.7,2.5c-0.7,0.7-1.4,0.7-2.2,0.7
				c-0.7,0-1.4-0.4-2.2-0.7c-0.7-0.7-0.7-1.4-0.7-2.5v-18.4c0-0.7,0.4-1.8,0.7-2.5c0.7-0.4,1.4-0.7,2.2-0.7c0.7,0,1.8,0.4,2.2,0.7
				c0.7,0.7,0.7,1.4,0.7,2.5V417z M339.6,419.9h-9.4v-29.3l-0.4-0.4h-4.7c-0.4,0-0.4,0.4-0.4,0.4v34.7c0,0.4,0.4,0.4,0.4,0.4h14.4
				c0.4,0,0.4-0.4,0.4-0.4v-4.7C339.6,419.9,339.6,419.9,339.6,419.9L339.6,419.9z M355.5,404.7h-9.4c-0.4,0-0.7,0.4-0.7,0.4v4.7
				c0,0.4,0.4,0.4,0.7,0.4h9.8c0.4,0,0.4-0.4,0.4-0.4v-4.7C356.2,405.1,355.8,404.7,355.5,404.7z M158.3,404.7h-9.8
				c-0.4,0-0.4,0.4-0.4,0.4v4.7c0,0.4,0.4,0.4,0.4,0.4h9.8c0.4,0,0.4-0.4,0.4-0.4v-4.7C159,405.1,158.6,404.7,158.3,404.7z"/>
			
				<linearGradient id="SVGID_1_" gradientUnits="userSpaceOnUse" x1="252.4341" y1="692.9607" x2="252.4341" y2="346.5891" gradientTransform="matrix(1 0 0 1 0 -339.1852)">
				<stop  offset="0" style="stop-color:#E4AC52"/>
				<stop  offset="4.000000e-02" style="stop-color:#4F361C"/>
				<stop  offset="9.000000e-02" style="stop-color:#614726"/>
				<stop  offset="0.44" style="stop-color:#4F361C"/>
				<stop  offset="0.67" style="stop-color:#E4AC52"/>
				<stop  offset="0.83" style="stop-color:#745124"/>
				<stop  offset="0.93" style="stop-color:#4F361C"/>
				<stop  offset="1" style="stop-color:#E4AC52"/>
			</linearGradient>
			<path class="st0" d="M253.2,287v2c0,0-0.5,0-0.5-0.5l-0.5-0.5c-0.5,0-0.5,0.5-0.5,0.5l-1.5,0.5h-2c0.5-0.5,2-1.5,2.5-2l1-1h0.5
				C252.7,286.5,253.2,286.5,253.2,287z M231.1,353.8l2-2h0.5c0.5,0,0.5-0.5,0.5-0.5v-2l2-4.5v-3h0.5l4-1c5-2.5,8.5-7.5,8-13.6
				v-10.5l0.5-0.5h1.5c-0.5-0.5-0.5-0.5-0.5-0.5v-1c-5-0.5-8.5-4.5-9.5-9l-0.5-1h-3c0,0.5,0,0.5-0.5,0.5h-1c-0.5,0-0.5-2-0.5-3.5
				c0-1.5,0.5-3.5,0.5-3.5h1c0.5,0,0.5,0,0.5,0.5h2c0,0.5,0,0.5,0.5,0.5h0.5c0-0.5,0.5-1.5,0.5-2c0-0.5,0.5,0,0.5-0.5
				c1.5-3.5,4-6,7-7.5c-0.5,0,0-0.5,0.5-0.5l1-1c0-0.5,0.5-1,1.5-1.5v-2c0.5-1,0.5-1.5,0.5-2.5h-0.5c-0.5,0-0.5,0.5-1,1.5v0.5
				c0,0.5,0,0.5-0.5,0.5c-0.5,0-0.5-1,0-2l1-2l1.5-0.5h0.5c0-0.5-0.5-0.5-0.5-0.5c0-0.5,0.5-0.5,0.5-0.5c0.5,0,0.5,0.5,0.5,0.5
				c0,0.5,0,0.5-0.5,0.5h1c1,0.5,2,0,2.5-0.5c-1,0.5-2,0.5-3,0.5v0.5c-0.5,0.5-0.5,1-0.5,2c0,0.5,0,0.5,0.5,0.5c0.5,0.5,0.5,2,0.5,2
				v2h0.5c4.5,0.5,8.5,4,9.5,8.5h0.5c0.5,0.5,0.5,1.5,0.5,2h0.5v-0.5h2c0-0.5,0-0.5,0.5-0.5h1c0.5,0,0.5,1.5,0.5,3.5s0,3.5-0.5,3.5
				h-1c-0.5,0-0.5-0.5-0.5-0.5h-2c0,0-0.5,0-0.5-0.5h-0.5l-0.5,1c-1,4.5-5,8.5-9.5,9v0.5c0,0.5,0,0.5-0.5,0.5h1.5l0.5,0.5v10
				c-0.5,5.5,2.5,11,8,13.6l4,1h0.5v2l2,4.5v2c0,0.5,0.5,0.5,0.5,0.5h0.5l2,2h10C264.2,289,269.3,47.9,269.8,4.2
				c-11.6-1-23.6,0.5-34.7,3.5c0.5,43.7,5,284.8-13.6,345.1L231.1,353.8L231.1,353.8z"/>
			
				<linearGradient id="SVGID_2_" gradientUnits="userSpaceOnUse" x1="237.8686" y1="466.5928" x2="237.8686" y2="366.6374" gradientTransform="matrix(1 0 0 1 0 -339.1852)">
				<stop  offset="0.25" style="stop-color:#A57531"/>
				<stop  offset="0.79" style="stop-color:#FDE489"/>
				<stop  offset="1" style="stop-color:#745124"/>
			</linearGradient>
			<path class="st1" d="M238.6,127.3c-0.5-1.5-0.5-3-0.5-4.5c0-2.5-0.5-6.5-0.5-11s-0.5-10-0.5-16.1V42.9c0-4.5,0.5-8.5,0.5-11
				c0,3,0,6.5,0.5,11v16.1c0.5,6,0.5,12.6,0.5,18.6v34.2c0,4.5-0.5,8.5-0.5,11L238.6,127.3L238.6,127.3z"/>
			
				<linearGradient id="SVGID_3_" gradientUnits="userSpaceOnUse" x1="230.837" y1="689.6649" x2="230.837" y2="540.7322" gradientTransform="matrix(1 0 0 1 0 -339.1852)">
				<stop  offset="0.1" style="stop-color:#4F361C"/>
				<stop  offset="0.29" style="stop-color:#FDE489"/>
				<stop  offset="0.5" style="stop-color:#A57531"/>
				<stop  offset="0.67" style="stop-color:#E4AC52"/>
				<stop  offset="0.84" style="stop-color:#745124"/>
			</linearGradient>
			<path class="st2" d="M224.6,350.3l1.5-6c0.5-2,0.5-4.5,1.5-7c0.5-3,0.5-6,1-9.5c0.5-3.5,1-7.5,1.5-11c0.5-4,0.5-8,1.5-12.6
				l1-13.6c0.5-4.5,0.5-9.5,0.5-14.1c0-4.5,1.5-18.6,2-27.1c0.5-8.5,0.5-16.6,1-24.1c0.5-13.6,1-23.1,1-23.1v6.5c0,4,0,10-0.5,17.1
				c-0.5,7,0,15.1-0.5,23.6c-0.5,8.5-1,18.1-1.5,27.6l-1,13.6c-0.5,4.5-0.5,9-1.5,13.6c-0.5,4.5-0.5,8.5-1.5,12.6
				c-0.5,4-1,7.5-1.5,11c-0.5,3.5-1,7-2,9.5c-0.5,2.5-1,5.5-1.5,7c-0.5,1.5-1,3.5-1,4.5L224.6,350.3L224.6,350.3z"/>
			
				<linearGradient id="SVGID_4_" gradientUnits="userSpaceOnUse" x1="273.2778" y1="689.6649" x2="273.2778" y2="540.7322" gradientTransform="matrix(1 0 0 1 0 -339.1852)">
				<stop  offset="0.1" style="stop-color:#4F361C"/>
				<stop  offset="0.31" style="stop-color:#A57531"/>
				<stop  offset="0.61" style="stop-color:#FDE489"/>
				<stop  offset="0.81" style="stop-color:#E4AC52"/>
				<stop  offset="0.97" style="stop-color:#745124"/>
			</linearGradient>
			<path class="st3" d="M267.3,201.6c0,0,0.5,9.5,1,23.1c0.5,7,1,15.1,1,24.1c0.5,8.5,1,18.1,2,27.1c1,9,0.5,9.5,0.5,14.1l1,13.6
				c0.5,4.5,1,8.5,1.5,12.6c0.5,4,0.5,8,1,11c0.5,3.5,1,6.5,1.5,9.5c0.5,3,1,5,1.5,7l1,6v-1.5c-0.5-1.5-1-3-1-4.5
				c-0.5-2-1-4.5-1.5-7c-1-3-1.5-6-2-9.5c-0.5-3.5-1-7-1.5-11c-0.5-4-1-8.5-1.5-12.6c-0.5-4.5-1-8.5-1.5-13.6l-1-13.6
				c-0.5-9.5-1-19.1-1.5-27.6c-0.5-8.5-0.5-16.6-0.5-23.6L267.3,201.6L267.3,201.6L267.3,201.6z"/>
			
				<linearGradient id="SVGID_5_" gradientUnits="userSpaceOnUse" x1="266.2462" y1="466.5456" x2="266.2462" y2="366.4685" gradientTransform="matrix(1 0 0 1 0 -339.1852)">
				<stop  offset="0.12" style="stop-color:#A57531"/>
				<stop  offset="0.49" style="stop-color:#FDE489"/>
				<stop  offset="0.97" style="stop-color:#745124"/>
			</linearGradient>
			<path class="st4" d="M266.7,27.3v4.5c0,3,0.5,6.5,0.5,11v52.7c-0.5,6-0.5,11-0.5,16.1c0,4.5-0.5,8.5-0.5,11c0,1.5-0.5,3-0.5,4.5
				v-4.5c0-2.5-0.5-6.5-0.5-11V58.9c0.5-6,0.5-11,0.5-16.1c0-4.5,0.5-8.5,0.5-11C266.2,30.3,266.7,28.8,266.7,27.3L266.7,27.3z"/>
			
				<linearGradient id="SVGID_6_" gradientUnits="userSpaceOnUse" x1="198.9554" y1="692.9607" x2="198.9554" y2="359.461" gradientTransform="matrix(1 0 0 1 0 -339.1852)">
				<stop  offset="0" style="stop-color:#745124"/>
				<stop  offset="0.25" style="stop-color:#745124"/>
				<stop  offset="0.5" style="stop-color:#E4AC52"/>
				<stop  offset="0.75" style="stop-color:#745124"/>
				<stop  offset="1" style="stop-color:#E4AC52"/>
			</linearGradient>
			<path class="st5" d="M171.8,353.8h31.6c15.6-51.7,23.1-106,22.6-160.2c0-63.8-9.5-123.1-27.1-173.3h-0.5c-7,3.5-13.6,8-20.1,12.6
				C197.9,81,208,132.8,207.5,185C207.5,248.3,193.9,306.6,171.8,353.8L171.8,353.8L171.8,353.8z"/>
			
				<linearGradient id="SVGID_7_" gradientUnits="userSpaceOnUse" x1="197.4486" y1="688.9426" x2="197.4486" y2="363.9814" gradientTransform="matrix(1 0 0 1 0 -339.1852)">
				<stop  offset="0.13" style="stop-color:#4F361C"/>
				<stop  offset="0.67" style="stop-color:#E4AC52"/>
				<stop  offset="0.9" style="stop-color:#4F361C"/>
			</linearGradient>
			<path class="st6" d="M196.4,24.8c-6.5,2-12.6,4.5-18.1,8.5l1,3c19.1,47.2,28.6,97.9,28.1,149.2c0,61.3-13.1,118-34.7,164.2h27.1
				c15.1-50.2,22.6-103,22.1-155.2C222,132.8,213.5,73.5,196.4,24.8L196.4,24.8z"/>
			
				<linearGradient id="SVGID_8_" gradientUnits="userSpaceOnUse" x1="207.9841" y1="693.3012" x2="207.9841" y2="359.1472" gradientTransform="matrix(1 0 0 1 0 -339.1852)">
				<stop  offset="0" style="stop-color:#FDE489"/>
				<stop  offset="0.11" style="stop-color:#FAE187"/>
				<stop  offset="0.2" style="stop-color:#F0D781"/>
				<stop  offset="0.28" style="stop-color:#DFC676"/>
				<stop  offset="0.36" style="stop-color:#C7AE67"/>
				<stop  offset="0.43" style="stop-color:#A88F54"/>
				<stop  offset="0.5" style="stop-color:#836A3C"/>
				<stop  offset="0.57" style="stop-color:#573E21"/>
				<stop  offset="0.58" style="stop-color:#4F361C"/>
				<stop  offset="0.61" style="stop-color:#5B4223"/>
				<stop  offset="0.65" style="stop-color:#7A6137"/>
				<stop  offset="0.71" style="stop-color:#AC9356"/>
				<stop  offset="0.78" style="stop-color:#F1D881"/>
				<stop  offset="0.79" style="stop-color:#FDE489"/>
				<stop  offset="0.93" style="stop-color:#876E3F"/>
				<stop  offset="1" style="stop-color:#4F361C"/>
			</linearGradient>
			<path class="st7" d="M202.5,353.3l-3-3.5c1-3,2-6.5,3-10c1-3.5,2-6.5,2.5-10c2-6.5,3-13.1,4.5-20.1l1-5l1-5c0.5-3.5,1-6.5,2-10
				c0.5-3.5,2-13.6,3-20.6c2-13.6,3-27.1,3.5-41.2c0.5-13.6,1-27.1,1-41.2c0-3.5,0-6.5-0.5-10v-10.5c0-6.5-0.5-13.6-1-20.6
				c-0.5-7-1-13.6-2-20.6l-2-10l-1.5-10l-1.5-10l-2-10l-2-10l-2-10l-2.5-10c-0.5-3.5-2-6.5-2.5-10c-1-3-2-6.5-3-10l-3.5-9.5l2-4.5
				l-2,4.5l3,9.5l3,10c1,3.5,1.5,6.5,3,10c0.5,3.5,2,6.5,2.5,10l2,10l2,10l2,10l2,10l1.5,10l1,10l2,20.6c0.5,6.5,1,13.6,1,20.6v20.6
				c0.5,13.6,0,27.6-1,41.2c-0.5,13.6-2,27.6-4,41.2c-0.5,6.5-2,13.6-3,20.6c-1.5,7-1,6.5-2,10l-1,5l-1,4.5l-1.5,10
				c-0.5,3.5-2,6.5-2.5,10c-0.5,3.5-2,6.5-3,10c-1,3-2,6.5-3,10L202.5,353.3L202.5,353.3z"/>
			
				<linearGradient id="SVGID_9_" gradientUnits="userSpaceOnUse" x1="157.264" y1="692.9607" x2="157.264" y2="384.5739" gradientTransform="matrix(1 0 0 1 0 -339.1852)">
				<stop  offset="0" style="stop-color:#4F361C"/>
				<stop  offset="0.25" style="stop-color:#745124"/>
				<stop  offset="0.58" style="stop-color:#E4AC52"/>
				<stop  offset="0.88" style="stop-color:#745124"/>
				<stop  offset="1" style="stop-color:#E4AC52"/>
			</linearGradient>
			<path class="st8" d="M116.1,353.8h35.2c29.6-43.7,47.7-102,47.7-166.7c0.5-49.2-11-97.9-32.6-141.6h-0.5c-4,4-7.5,8.5-11,13.1
				c21.1,37.2,32.1,79.4,32.1,122.6c0,69.3-24.1,141.6-71.3,171.8C115.6,353.3,115.6,353.8,116.1,353.8L116.1,353.8z"/>
			
				<linearGradient id="SVGID_10_" gradientUnits="userSpaceOnUse" x1="157.7583" y1="688.9426" x2="157.7583" y2="390.0988" gradientTransform="matrix(1 0 0 1 0 -339.1852)">
				<stop  offset="0.25" style="stop-color:#4B331A"/>
				<stop  offset="0.5" style="stop-color:#A57531"/>
				<stop  offset="0.75" style="stop-color:#4F361C"/>
			</linearGradient>
			<path class="st9" d="M164.3,50.9c-3.5,2-7,5-9.5,8l1,2c20.6,36.7,31.1,78.4,31.1,120.5c0,66.8-22.6,136.1-66.3,168.3h28.6
				c28.1-42.2,45.7-98.4,45.7-160.7C194.9,138.3,184.4,89.6,164.3,50.9L164.3,50.9z"/>
			
				<linearGradient id="SVGID_11_" gradientUnits="userSpaceOnUse" x1="172.5123" y1="693.1324" x2="172.5123" y2="389.7759" gradientTransform="matrix(1 0 0 1 0 -339.1852)">
				<stop  offset="0" style="stop-color:#4F361C"/>
				<stop  offset="7.000000e-02" style="stop-color:#765D34"/>
				<stop  offset="0.18" style="stop-color:#A68D52"/>
				<stop  offset="0.27" style="stop-color:#CCB36A"/>
				<stop  offset="0.36" style="stop-color:#E7CE7B"/>
				<stop  offset="0.44" style="stop-color:#F7DE85"/>
				<stop  offset="0.5" style="stop-color:#FDE489"/>
				<stop  offset="0.6" style="stop-color:#FAE187"/>
				<stop  offset="0.67" style="stop-color:#F0D781"/>
				<stop  offset="0.74" style="stop-color:#DFC676"/>
				<stop  offset="0.81" style="stop-color:#C7AE67"/>
				<stop  offset="0.87" style="stop-color:#A88F54"/>
				<stop  offset="0.93" style="stop-color:#836A3C"/>
				<stop  offset="0.99" style="stop-color:#573E21"/>
				<stop  offset="1" style="stop-color:#4F361C"/>
			</linearGradient>
			<path class="st10" d="M164.3,50.9c3,6,5.5,11.6,8.5,17.6l2,4.5c0.5,1.5,1,3,2,4.5c0.5,1.5,1,3,2,4.5l1.5,4.5c2,6,4,12.6,5.5,18.6
				l2,9.5l2,10c0.5,3.5,1,6,1.5,9.5c0.5,3.5,1,6.5,1.5,10c1,6.5,2,13.1,2,19.1c0.5,6.5,0.5,13.1,0.5,19.6c0.5,6.5,0.5,13.1,0,19.6
				c-0.5,13.1-2,26.1-4,38.7c-2,13.1-5,25.6-9,38.2c-3.5,12.6-8.5,24.6-14.1,36.2c-5.5,11.6-12.1,23.1-19.1,33.7l2,4l-2-3.5
				c7-11,13.1-22.1,18.6-34.2c5.5-11.6,10-24.1,13.6-36.2c3.5-12.6,6.5-25.1,8.5-38.2c1-6,2-12.6,2.5-19.1c0.5-6.5,1-12.6,1.5-19.1
				s0.5-13.1,0-19.6c-0.5-6.5-0.5-13.1-0.5-19.1c0-6-1-13.1-2-19.6c-1-6.5-1-6-1.5-9.5c-0.5-3.5-1-6.5-2-10l-2-9.5l-2-9.5
				c-1.5-6.5-3-12.6-5.5-19.1l-1.5-4.5c-0.5-1.5-1-3.5-2-4.5c-0.5-1.5-1-3-1.5-4.5l-2-4.5C169.8,62.5,167.3,56.9,164.3,50.9
				L164.3,50.9z"/>
			
				<linearGradient id="SVGID_12_" gradientUnits="userSpaceOnUse" x1="252.183" y1="383.3268" x2="252.183" y2="349.6208" gradientTransform="matrix(1 0 0 1 0 -339.1852)">
				<stop  offset="0" style="stop-color:#4F361C"/>
				<stop  offset="0.14" style="stop-color:#5B3A1F"/>
				<stop  offset="0.41" style="stop-color:#6E4123"/>
				<stop  offset="0.6" style="stop-color:#754324"/>
				<stop  offset="1" style="stop-color:#4F361C"/>
			</linearGradient>
			<path class="st11" d="M237.6,11.2v16.1c0,5,0,11,0.5,16.6h28.1c0-6,0.5-11.6,0.5-16.6V11.2c-5-0.5-9.5-1-14.6-0.5
				C247.2,10.2,242.6,10.7,237.6,11.2L237.6,11.2z"/>
			
				<linearGradient id="SVGID_13_" gradientUnits="userSpaceOnUse" x1="251.9318" y1="349.71" x2="251.9318" y2="689.4448" gradientTransform="matrix(1 0 0 1 0 -339.1852)">
				<stop  offset="6.000000e-02" style="stop-color:#4F361C"/>
				<stop  offset="0.22" style="stop-color:#A57531"/>
				<stop  offset="0.25" style="stop-color:#AD7D36"/>
				<stop  offset="0.29" style="stop-color:#C39545"/>
				<stop  offset="0.35" style="stop-color:#E7BA5C"/>
				<stop  offset="0.38" style="stop-color:#FBCF69"/>
				<stop  offset="0.53" style="stop-color:#FBCF69"/>
				<stop  offset="0.74" style="stop-color:#E4AC52"/>
				<stop  offset="0.75" style="stop-color:#D29E4B"/>
				<stop  offset="0.78" style="stop-color:#A3793B"/>
				<stop  offset="0.81" style="stop-color:#7F5C2D"/>
				<stop  offset="0.83" style="stop-color:#644724"/>
				<stop  offset="0.86" style="stop-color:#553A1E"/>
				<stop  offset="0.88" style="stop-color:#4F361C"/>
				<stop  offset="1" style="stop-color:#734122"/>
			</linearGradient>
			<path class="st12" d="M224.6,350.3c16.1-59.8,13.6-250.1,13.1-323V11.2c5-0.5,9.5-1,14.6-0.5c5,0,9.5,0,14.6,0.5v16.1
				c-1,72.8-3,262.7,12.6,323l-8.5-0.5v-0.5l-2-4.5v-2.5h-0.5l-4-1c-5-2.5-8.5-7.5-8-13.6v-10.5l-0.5-0.5h-1.5
				c0.5-0.5,0.5-0.5,0.5-0.5v-1.5c5-1,8.5-4.5,9.5-9l0.5-1h0.5c0,0,0,0.5,0.5,0.5h2c0,0.5,0,0.5,0.5,0.5h1c0.5,0,0.5-2,0.5-3.5
				c0-1.5,0-3.5-0.5-3.5h-1c-0.5,0-0.5,0-0.5,0.5h-2v0.5h-0.5c-0.5-0.5-0.5-1.5-0.5-2h-0.5c-1.5-4.5-5-7.5-9.5-8.5h-0.5v-2
				c0-0.5,0-0.5-0.5-2c-0.5-1.5-0.5-0.5-0.5-0.5c0-0.5,0-1,0.5-2V282c1,0,2-0.5,3-0.5c-1,0.5-1.5,0.5-2.5,0.5h-1.5
				c0.5,0,0.5-0.5,0.5-0.5c0-0.5,0-0.5-0.5-0.5c-0.5,0-0.5,0.5-0.5,0.5c0,0.5,0.5,0.5,0.5,0.5h-0.5l-1.5,0.5l-1,2
				c-0.5,0.5-0.5,2,0,2c0.5,0,0.5,0,0.5-0.5v-1.5c0.5-0.5,0.5-1.5,1-1.5h0.5c0,1,0,1.5-0.5,2.5v2c-0.5,0.5-1.5,1-1.5,1.5l-1,1
				c-0.5,0.5-0.5,0.5-0.5,0.5c-3,1.5-6,4.5-7,7.5c0,0.5,0,0.5-0.5,0.5c-0.5,0-0.5,1.5-0.5,2h-0.5l-0.5-0.5h-2c0-0.5,0-0.5-0.5-0.5
				h-1c-0.5,0-0.5,1.5-0.5,3.5s0.5,3.5,0.5,3.5h1c0.5,0,0.5-0.5,0.5-0.5h3l0.5,1c1,5,5,8.5,9.5,9v0.5c0,0.5,0,0.5,0.5,0.5h-1.5
				l-0.5,0.5v10c0.5,5.5-2.5,11-8,13.6l-4,1h-0.5v2l-2,4.5v0.5L224.6,350.3L224.6,350.3z M252.2,286L252.2,286l-1.5,1
				c-0.5,0.5-2,2-2.5,2h2l1.5-0.5c0-0.5,0.5-0.5,0.5-0.5l0.5,0.5c0,0,0,0.5,0.5,0.5v-2C253.2,286.5,252.7,286.5,252.2,286z"/>
			
				<linearGradient id="SVGID_14_" gradientUnits="userSpaceOnUse" x1="305.4106" y1="692.9607" x2="305.4106" y2="359.461" gradientTransform="matrix(1 0 0 1 0 -339.1852)">
				<stop  offset="0" style="stop-color:#745124"/>
				<stop  offset="0.25" style="stop-color:#745124"/>
				<stop  offset="0.5" style="stop-color:#E4AC52"/>
				<stop  offset="0.75" style="stop-color:#745124"/>
				<stop  offset="1" style="stop-color:#E4AC52"/>
			</linearGradient>
			<path class="st13" d="M332.5,353.8h-31.6c-15.6-51.7-23.1-106-22.6-160.2c0-63.8,9.5-123.1,27.1-173.3h0.5
				c7,3.5,13.6,8,20.1,12.6c-18.6,43.7-29.1,95.9-29.1,152.2C296.9,248.3,309.9,306.6,332.5,353.8L332.5,353.8L332.5,353.8z"/>
			
				<linearGradient id="SVGID_15_" gradientUnits="userSpaceOnUse" x1="306.9174" y1="688.9426" x2="306.9174" y2="363.9814" gradientTransform="matrix(1 0 0 1 0 -339.1852)">
				<stop  offset="0.13" style="stop-color:#4F361C"/>
				<stop  offset="0.67" style="stop-color:#E4AC52"/>
				<stop  offset="0.9" style="stop-color:#4F361C"/>
			</linearGradient>
			<path class="st14" d="M307.9,24.8c6.5,1.5,12.6,4.5,17.6,8.5l-1,3c-18.6,47.2-28.1,97.9-27.6,149.2c0,61.3,12.6,118,34.7,164.2
				h-27.1c-15.1-50.2-22.6-103-22.1-155.2C282.3,132.8,290.9,73.5,307.9,24.8L307.9,24.8z"/>
			
				<linearGradient id="SVGID_16_" gradientUnits="userSpaceOnUse" x1="294.5198" y1="693.3002" x2="294.5198" y2="359.1461" gradientTransform="matrix(1 0 0 1 0 -339.1852)">
				<stop  offset="0" style="stop-color:#FDE489"/>
				<stop  offset="0.11" style="stop-color:#FAE187"/>
				<stop  offset="0.2" style="stop-color:#F0D781"/>
				<stop  offset="0.28" style="stop-color:#DFC676"/>
				<stop  offset="0.36" style="stop-color:#C7AE67"/>
				<stop  offset="0.43" style="stop-color:#A88F54"/>
				<stop  offset="0.5" style="stop-color:#836A3C"/>
				<stop  offset="0.57" style="stop-color:#573E21"/>
				<stop  offset="0.58" style="stop-color:#4F361C"/>
				<stop  offset="0.61" style="stop-color:#5B4223"/>
				<stop  offset="0.65" style="stop-color:#7A6137"/>
				<stop  offset="0.71" style="stop-color:#AC9356"/>
				<stop  offset="0.78" style="stop-color:#F1D881"/>
				<stop  offset="0.79" style="stop-color:#FDE489"/>
				<stop  offset="0.93" style="stop-color:#876E3F"/>
				<stop  offset="1" style="stop-color:#4F361C"/>
			</linearGradient>
			<path class="st15" d="M301.4,353.3l3-3.5c-0.5-3.5-2-6.5-2.5-10c-0.5-3.5-2-7-3-10l-4.5-20.1l-1-5l-1-5c-0.5-3.5-1-6.5-2-10
				c-0.5-3.5-2-13.6-3-20.6c-2-13.6-3-27.1-4-41.2c-0.5-13.6-1-27.1-0.5-41.2c0-3.5,0-6.5,0.5-10v-10.5c0-7,0.5-13.6,1-20.6
				c0.5-7,1-13.6,2-20.6l1.5-10l1-10l2-10l2-10l2-10l2-10l2.5-10c0.5-3.5,2-6.5,2.5-10c0.5-3.5,2-6.5,3-10l3-10l-2-4.5l2,4.5
				l-3.5,9.5c-0.5,3.5-2,6.5-3,10c-1,3.5-2,6.5-3,10c-1,3.5-2,6.5-2.5,10l-2,10l-2,10l-2,10l-2,10l-1.5,10l-1.5,10
				c-0.5,7-1.5,13.6-2,20.6c-0.5,7-1,13.6-1.5,20.6V186c-0.5,13.6,0,27.6,0.5,41.2c0.5,13.6,2,27.1,4.5,41.2c0.5,6.5,2,13.6,3,20.6
				l2,10l1,5l1,4.5l2,10c0.5,3.5,2,6.5,2.5,10s2,6.5,3,10c1,3.5,2,6.5,3,10L301.4,353.3L301.4,353.3z"/>
			
				<linearGradient id="SVGID_17_" gradientUnits="userSpaceOnUse" x1="347.0392" y1="692.9607" x2="347.0392" y2="384.5739" gradientTransform="matrix(1 0 0 1 0 -339.1852)">
				<stop  offset="0" style="stop-color:#4F361C"/>
				<stop  offset="0.25" style="stop-color:#745124"/>
				<stop  offset="0.58" style="stop-color:#E4AC52"/>
				<stop  offset="0.88" style="stop-color:#745124"/>
				<stop  offset="1" style="stop-color:#E4AC52"/>
			</linearGradient>
			<path class="st16" d="M388.3,353.8h-35.2c-29.6-43.7-47.7-102-47.7-166.7c-0.5-49.2,11-97.4,32.6-141.6h0.5
				c4,4,7.5,8.5,10.5,13.1h0.5c-21.1,37.2-32.1,79.4-32.1,122.6c0,69.3,24.1,141.6,70.8,171.8C388.8,353.3,388.8,353.8,388.3,353.8
				L388.3,353.8z"/>
			
				<linearGradient id="SVGID_18_" gradientUnits="userSpaceOnUse" x1="346.6075" y1="688.9426" x2="346.6075" y2="390.0988" gradientTransform="matrix(1 0 0 1 0 -339.1852)">
				<stop  offset="0.25" style="stop-color:#4B331A"/>
				<stop  offset="0.5" style="stop-color:#A57531"/>
				<stop  offset="0.75" style="stop-color:#4F361C"/>
			</linearGradient>
			<path class="st17" d="M340.1,50.9c3.5,2,7,5,9.5,8l-1.5,2c-20.6,36.7-31.1,78.4-30.6,120.5c0,66.8,22.6,136.1,66.3,168.3h-28.6
				c-28.1-42.2-45.7-98.4-45.7-160.7C309.4,138.3,320,89.6,340.1,50.9L340.1,50.9z"/>
			
				<linearGradient id="SVGID_19_" gradientUnits="userSpaceOnUse" x1="331.3516" y1="693.1324" x2="331.3516" y2="389.7759" gradientTransform="matrix(1 0 0 1 0 -339.1852)">
				<stop  offset="0" style="stop-color:#4F361C"/>
				<stop  offset="7.000000e-02" style="stop-color:#765D34"/>
				<stop  offset="0.18" style="stop-color:#A68D52"/>
				<stop  offset="0.27" style="stop-color:#CCB36A"/>
				<stop  offset="0.36" style="stop-color:#E7CE7B"/>
				<stop  offset="0.44" style="stop-color:#F7DE85"/>
				<stop  offset="0.5" style="stop-color:#FDE489"/>
				<stop  offset="0.6" style="stop-color:#FAE187"/>
				<stop  offset="0.67" style="stop-color:#F0D781"/>
				<stop  offset="0.74" style="stop-color:#DFC676"/>
				<stop  offset="0.81" style="stop-color:#C7AE67"/>
				<stop  offset="0.87" style="stop-color:#A88F54"/>
				<stop  offset="0.93" style="stop-color:#836A3C"/>
				<stop  offset="0.99" style="stop-color:#573E21"/>
				<stop  offset="1" style="stop-color:#4F361C"/>
			</linearGradient>
			<path class="st18" d="M340.1,50.9c-3,6-5.5,11.6-8.5,17.6l-2,4.5c-0.5,1.5-1,3-2,4.5l-2,4.5l-1.5,4.5c-2,6-4,12.6-5.5,18.6
				l-2,9.5l-2,10c-0.5,3-1,6.5-2,9.5c-0.5,3.5-1,6.5-1.5,10c-0.5,6.5-1.5,12.6-2,19.1c-0.5,6.5-0.5,13.1-0.5,19.6
				c-0.5,6.5-0.5,13.1,0,19.6c0.5,13.1,1.5,26.1,4,38.7c2,13.1,5,25.6,9,38.2c3.5,12.6,8,24.6,13.6,36.2
				c5.5,11.6,12.1,23.1,19.6,33.7l-2,4l2-4c-7-11-13.6-22.1-18.6-34.2c-5-12.1-9.5-24.1-13.6-36.2c-3.5-12.6-6.5-25.1-8.5-38.2
				c-1-6-2-12.6-2.5-19.1s-1-12.6-1.5-19.1c-0.5-6.5-0.5-13.1,0-19.6c0.5-6.5,0.5-13.1,0.5-19.1c0-6,1-13.1,2-19.6
				c1-6.5,1-6,1.5-9.5c0.5-3.5,1-6.5,1.5-10l2-9.5l2-9.5c1.5-6.5,3-12.6,5.5-19.1l1.5-4.5c0.5-2,1-3.5,1.5-4.5c0.5-1,1-3,2-4.5
				l2-4.5C334.6,62.5,337.1,56.9,340.1,50.9L340.1,50.9z"/>
			
				<linearGradient id="SVGID_20_" gradientUnits="userSpaceOnUse" x1="230.7114" y1="659.3093" x2="250.3347" y2="659.3093" gradientTransform="matrix(1 0 0 1 0 -339.1852)">
				<stop  offset="0" style="stop-color:#4F361C"/>
				<stop  offset="0.29" style="stop-color:#FDE489"/>
				<stop  offset="0.5" style="stop-color:#A57531"/>
				<stop  offset="0.67" style="stop-color:#E4AC52"/>
				<stop  offset="0.84" style="stop-color:#745124"/>
			</linearGradient>
			<path class="st19" d="M250.2,315.1L250.2,315.1l-0.5-0.5c-1,0-2.5-0.5-3-1l-3-2l-2-3c-0.5-0.5-0.5-1-0.5-1.5
				c-0.5-0.5-0.5-1-0.5-1.5v-1h-5.5c-0.5-1-0.5-1.5-0.5-2.5v-2.5c0.5,0,0.5-0.5,0.5-0.5h4.5c0-1,0-1.5,0.5-2h0.5c1-3.5,3.5-6,7-7.5
				c-3.5,1.5-6,4-7,7.5h-0.5c-0.5,0.5-0.5,1-0.5,2h-4.5c-0.5,0.5-0.5,0.5-0.5,0.5v6h4.5v0.5c0,0.5,0.5,1,0.5,2l1,1.5c0.5,1,1,2,2,3
				l3,2l3,1v0.5h-2v8.5c0,2,0,4-0.5,6c-0.5,2-1,4-2.5,5.5c-1,1.5-3,3-4.5,3.5l-2.5,1h-2v1.5l-0.5,0.5l-0.5,1.5v2
				c0,0.5-0.5,0.5-0.5,0.5v2.5h-2l-1,1.5l1-1.5l1-0.5h0.5v-2.5c0-0.5,0-0.5,0.5-0.5v-0.5l0.5-1.5l0.5-1v-2.5h2l3-1c2-1,3.5-2,5-3.5
				c1-2,2-3.5,2.5-6c0.5-2,0.5-4,0.5-6v-6.5h2L250.2,315.1L250.2,315.1z"/>
			
				<linearGradient id="SVGID_21_" gradientUnits="userSpaceOnUse" x1="263.4838" y1="693.0827" x2="263.4838" y2="626.1794" gradientTransform="matrix(1 0 0 1 0 -339.1852)">
				<stop  offset="0" style="stop-color:#E4AC52"/>
				<stop  offset="0.16" style="stop-color:#745124"/>
				<stop  offset="0.5" style="stop-color:#A57531"/>
				<stop  offset="0.71" style="stop-color:#FDE489"/>
				<stop  offset="0.9" style="stop-color:#4F361C"/>
			</linearGradient>
			<path class="st20" d="M272.3,352.3h-2v-6.5l-0.5-1.5v-2h-2.5l-3-1l-2.5-1.5l-2-2c-1-1.5-1.5-3.5-2-5.5c-0.5-2-0.5-4-0.5-6v-10
				l2-0.5l3-2c1-1,1.5-2,2-3l0.5-1.5c0.5-0.5,0.5-1,0.5-2v-0.5h1.5c0,0,0,0.5,0.5,0.5h3c0-0.5,0-0.5,0.5-0.5V300
				c-0.5-0.5-0.5-0.5-0.5-0.5h-3c-0.5,0-0.5,0-0.5,0.5h-2v-2h-0.5c-0.5-1-1-2-1.5-3l-2.5-2.5c-2-1.5-4-2.5-6-3h-0.5v0.5h0.5
				c2.5,0.5,4.5,1.5,6,3l2,2.5c0.5,1,1,2,1.5,3h0.5c0,0.5,0.5,1.5,0.5,2h4.5v0.5c0.5,1,0.5,1.5,0.5,2.5c0,1-0.5,2-0.5,2.5v0.5h-5
				l-0.5,1c0,0.5,0,1-0.5,2c-0.5,0.5-0.5,1-0.5,1.5l-2,3l-3,2c-1,0.5-2,1-3,1h-0.5v0.5h2v8c0,2,0,4,0.5,6c0.5,2,1.5,4,2.5,6l2,2
				l3,1.5l3,1h1.5v0.5c0,0.5,0,0.5,0.5,0.5v1l0.5,1c0,0.5,0.5,1,0.5,1.5v0.5l0.5,0.5v2.5h0.5l1,0.5l1,1.5L272.3,352.3L272.3,352.3z"
				/>
		</g>
	</g>
</g>
</svg>
