<?xml version="1.0" encoding="utf-8"?>
<!-- Generator: Adobe Illustrator 25.0.1, SVG Export Plug-In . SVG Version: 6.00 Build 0)  -->
<svg version="1.1" id="Layer_1" xmlns="http://www.w3.org/2000/svg" xmlns:xlink="http://www.w3.org/1999/xlink" x="0px" y="0px"
	 viewBox="0 0 500 500" style="enable-background:new 0 0 500 500;" xml:space="preserve">
<style type="text/css">
	.st0{fill:url(#SVGID_1_);}
	.st1{fill:url(#SVGID_2_);}
	.st2{fill:url(#SVGID_3_);}
	.st3{fill:url(#SVGID_4_);}
	.st4{fill:url(#SVGID_5_);}
	.st5{fill:url(#SVGID_6_);}
	.st6{fill:url(#SVGID_7_);}
	.st7{fill:url(#SVGID_8_);}
	.st8{fill:url(#SVGID_9_);}
	.st9{fill:url(#SVGID_10_);}
	.st10{fill:#F4DF98;}
	.st11{fill:#C9933F;}
	.st12{fill:url(#SVGID_11_);}
</style>
<path d="M180.1,427.4h-2.6l-2.6-1.3c-0.9-0.7-1.5-1.6-2-2.6c-0.5-1.3-0.7-2.6-0.7-4v-18.1c0-1,0.3-2,0.7-3c0.4-1,0.9-1.9,1.6-2.6
	l2.6-1.6c2-0.8,4.3-0.8,6.3,0l2.6,1.6c0.7,0.8,1.3,1.7,1.6,2.6c0.4,1,0.7,2.2,0.7,3.3v1.6h-5.9V402c0.1-0.8-0.2-1.6-0.7-2.3
	c-0.4-0.6-1.2-1-2-1c-0.8-0.1-1.6,0.3-2,1c-0.4,0.8-0.7,1.7-0.7,2.6v16.5c0,0.8,0.2,1.6,0.7,2.3c0.5,0.6,1.2,0.8,2,0.7h1.6l0.7-1
	c0.2-0.4,0.3-0.9,0.3-1.3v-1.6h5.3v2c0,1-0.2,2-0.7,3c-0.4,1-0.9,1.9-1.6,2.6l-2.3,1.6L180.1,427.4z M199.6,427.4l-3-0.7l-2.6-1.6
	c-0.8-0.7-1.5-1.6-2-2.6c-0.5-1.1-0.7-2.4-0.7-3.6v-17.1c0-1.2,0.2-2.5,0.7-3.6c0.5-1,1.1-1.9,2-2.6l2.6-1.6c1.9-0.7,4-0.7,5.9,0
	l2.6,1.6c0.8,0.7,1.5,1.6,2,2.6c0.5,1.1,0.7,2.4,0.7,3.6v17.1c0,1.2-0.2,2.5-0.7,3.6c-0.5,1-1.1,1.9-2,2.6l-2.6,1.6L199.6,427.4z
	 M199.6,399l-2,0.7c-0.6,0.6-0.8,1.5-0.7,2.3v17.1c-0.2,0.8,0.1,1.7,0.7,2.3l2,0.7l2-0.7c0.6-0.6,0.8-1.5,0.7-2.3v-17.5
	c0.2-0.8-0.1-1.7-0.7-2.3L199.6,399z M228.9,427h-4.6l-5.9-16.5h-0.7v16.2h-5.3v-32.6h5.3l5.9,16.5h0.7v-16.5h5.3v32.3L228.9,427z
	 M255.6,427h-4.9v-16.5H250l-3.3,10.6h-3l-3.3-10.6h-0.7v16.2h-5.6v-32.6h5.3l5.3,15.5h0.7l5.3-15.5h5.3v32.3L255.6,427z M275.1,427
	h-14.2v-33h14.5v4.3h-9.2v8.2h7.9v4.3h-7.9v8.2h9.2v4.6L275.1,427z M286,427h-6.6v-33h7.3l4,0.7l2.6,2c0.7,0.7,1.3,1.6,1.6,2.6
	c0.3,1.1,0.4,2.2,0.3,3.3v1.3c0,0.8-0.1,1.6-0.3,2.3l-0.7,1.6l-1,1.3l-1,0.7c0.9,0.6,1.6,1.4,2,2.3c0.5,1.4,0.8,2.8,0.7,4.3v1.3
	c0.1,2.5-0.7,5-2.3,6.9C290.8,426.4,288.4,427.2,286,427L286,427z M284.6,421.4h3.6l1-1c0.2-0.5,0.3-1.1,0.3-1.6v-2.3
	c0-0.7,0-1.3,0-2l-0.7-1.3l-1-0.7h-3.3V421.4z M284.6,406.9h1.6c1.1,0.2,2.2-0.2,3-1c0.6-1,0.8-2.2,0.7-3.3c0.1-1-0.1-2.1-0.7-3
	c-0.8-0.8-1.9-1.1-3-1h-1.6V406.9z M306.7,427.4l-3-0.7l-2.6-1.6c-0.8-0.7-1.5-1.6-2-2.6c-0.5-1.1-0.7-2.4-0.7-3.6V402
	c0-1.2,0.2-2.5,0.7-3.6c0.5-1,1.1-1.9,2-2.6l2.6-1.6c1.9-0.7,4-0.7,5.9,0l2.6,1.6c0.8,0.7,1.5,1.6,2,2.6c0.5,1.1,0.7,2.4,0.7,3.6
	v17.1c0,1.2-0.2,2.5-0.7,3.6c-0.5,1-1.1,1.9-2,2.6l-2.6,1.6L306.7,427.4z M306.7,399l-2,0.7c-0.6,0.6-0.8,1.5-0.7,2.3v17.1
	c-0.2,0.8,0.1,1.7,0.7,2.3l2,0.7l2-0.7c0.6-0.6,0.8-1.5,0.7-2.3V402c0.2-0.8-0.1-1.7-0.7-2.3L306.7,399z M332.8,427h-14.2v-33h5.3
	v27h9.2v4.6L332.8,427z"/>
<path d="M341,407.6h6.9c0.9,0,1.6,0.7,1.6,1.6v2c0,0.9-0.7,1.6-1.6,1.6H341c-0.9,0-1.6-0.7-1.6-1.6v-2
	C339.4,408.3,340.1,407.6,341,407.6z"/>
<path d="M153.7,407.6h6.9c0.9,0,1.6,0.7,1.6,1.6v2c0,0.9-0.7,1.6-1.6,1.6h-6.9c-0.9,0-1.6-0.7-1.6-1.6v-2
	C152.1,408.3,152.8,407.6,153.7,407.6z"/>
<path d="M3,488.7c0.2-3.5,2.1-6.6,4.9-8.6c3.8,2.9,8.4,4.4,13.2,4.3c4.9,0,7.3-1.6,7.3-4s-1-3.6-9.2-5.6s-14.5-4.9-14.8-14.2
	s6.9-14.2,17.5-14.2c5.6-0.3,11.2,1.4,15.8,4.6c-0.2,3.5-2,6.7-4.9,8.6c-3.4-2.4-7.4-3.6-11.5-3.6c-4.3,0-6.6,1.6-6.6,3.6
	s1,3.3,9.2,5.3s14.2,5.6,14.5,13.9c0.3,8.2-6.6,15.2-17.5,15.2C14.4,494.4,8.1,492.6,3,488.7L3,488.7z M42.6,474.9v-27.4h10.6v27
	c-0.7,4.7,2.4,9.1,7.1,9.8c0.7,0.1,1.4,0.1,2.1,0.1c5.6,0,9.2-3.6,9.2-9.9v-27h10.2v27c0,12.5-8.2,19.8-19.5,19.8
	S42.6,487.7,42.6,474.9L42.6,474.9z M128.7,469.9c0,14.8-10.2,24.1-26.1,24.1c-5,0-9.9-0.3-14.8-1v-45.2c4.9-0.8,9.9-1.1,14.8-1
	C119.4,446.5,128.7,456.1,128.7,469.9z M117.1,469.9c0-8.2-4.9-13.5-13.9-13.5h-4.9v27.4h4.9c8.6,0.3,13.5-5.3,13.5-13.9
	L117.1,469.9z M223,447.8v45.5h-9.9v-28.7l-1.6,5.3l-7.9,19.8h-8.6l-8.2-19.8l-1.6-4.3v28h-9.9v-45.8l5.3-0.7h5.6l12.2,28l1,2.3
	l0.7-2.3l11.2-28h5.6L223,447.8z M306.4,493v-45.5H317V493H306.4z M260.2,483.8h-20.1v-26.7h19.5c0.8-3.1,0.8-6.4,0-9.6h-30V493
	h30.7c0.4-1.5,0.6-3.1,0.7-4.6C260.8,486.8,260.6,485.3,260.2,483.8z"/>
<path d="M257.3,474.5c0.4-1.5,0.6-3.1,0.7-4.6c0-1.6-0.3-3.1-0.7-4.6h-14.2v3c0,3.5,2.8,6.3,6.3,6.3l0,0H257.3z M321.9,470.2
	c-0.7-12.7,9-23.6,21.7-24.4c0.8,0,1.6-0.1,2.4,0c5.1-0.3,10.1,1.2,14.2,4.3c-0.6,3.4-2.6,6.5-5.6,8.2c-2.3-1.7-5.1-2.6-7.9-2.6
	c-7.6,0-12.9,5.3-12.9,14.2c0,8.9,4.9,14.2,12.5,14.2c3.4,0.2,6.7-1,9.2-3.3c3.2,1.7,5.3,5,5.6,8.6c-4.4,3.3-9.7,4.9-15.2,4.6
	C330.8,494.3,321.9,484.4,321.9,470.2L321.9,470.2z M390.5,447.5h-10.6l-17.1,45.2c1.8,0.5,3.7,0.8,5.6,0.7h4.9l3.3-8.9h13.9
	l-1.6-4.6c-1-2.4-3.3-4-5.9-4h-3l4-10.6l1.3-4.3l1.3,4.3l10.2,28.4h4l6.9-1L390.5,447.5z M154.7,447.5h-10.6L127,492.7
	c1.8,0.5,3.7,0.8,5.6,0.7h4.9l3.3-8.9h13.9l-1.6-4.6c-1-2.4-3.3-4-5.9-4h-3l4-10.6l1.3-4.3l1.3,4.3l10.2,28.4h4l6.9-1L154.7,447.5z
	 M480.9,447.5h-10.6l-17.1,45.2c1.8,0.5,3.7,0.8,5.6,0.7h4.9l3.3-8.9h13.9l-1.6-4.6c-1-2.4-3.3-4-5.9-4h-3l4-10.6l1.3-4.3l1.3,4.3
	l10.2,28.4h4l6.9-1L480.9,447.5z M450.2,447.5v45.2c-3.4,0.6-6.8,0.9-10.2,0.7l-17.5-26.1l-1.6-2.6V493h-10.6v-45.2
	c3.3-0.9,6.8-1.1,10.2-0.7l17.5,26.4l1.6,2.6v-28.7H450.2z M292.6,475.2c5.3-2.5,8.5-8,8.2-13.9c0-8.9-5.6-14.5-19.5-14.5
	c-5.1,0.1-10.2,0.6-15.2,1.6v44.9h10.6v-37.3h5.6c5.3,0,7.9,2.3,7.9,6.3s-2.3,6.6-7.6,6.6h-5.6l14.5,24.7h2.6c3,0,6-0.3,8.9-1
	L292.6,475.2z"/>
<radialGradient id="SVGID_1_" cx="108.8306" cy="463.52" r="68.2598" gradientTransform="matrix(2.3669 0 0 -2.3669 -1.3669 1186.8196)" gradientUnits="userSpaceOnUse">
	<stop  offset="0" style="stop-color:#6B6A69"/>
	<stop  offset="0.19" style="stop-color:#6B6A69"/>
	<stop  offset="0.22" style="stop-color:#626160"/>
	<stop  offset="0.26" style="stop-color:#494949"/>
	<stop  offset="0.32" style="stop-color:#212123"/>
	<stop  offset="0.33" style="stop-color:#121214"/>
</radialGradient>
<circle class="st0" cx="250.3" cy="97.9" r="60.2"/>
<linearGradient id="SVGID_2_" gradientUnits="userSpaceOnUse" x1="106.345" y1="349.5625" x2="106.345" y2="378.0519" gradientTransform="matrix(2.3669 0 0 -2.3669 -1.3669 1186.8196)">
	<stop  offset="0" style="stop-color:#B8BBBE"/>
	<stop  offset="0.23" style="stop-color:#898A8D"/>
	<stop  offset="0.48" style="stop-color:#5B5B5D"/>
	<stop  offset="0.6" style="stop-color:#49494B"/>
	<stop  offset="0.69" style="stop-color:#4C4C4E"/>
	<stop  offset="0.76" style="stop-color:#565658"/>
	<stop  offset="0.83" style="stop-color:#666769"/>
	<stop  offset="0.89" style="stop-color:#7D7E81"/>
	<stop  offset="0.95" style="stop-color:#9A9D9F"/>
	<stop  offset="1" style="stop-color:#B8BBBE"/>
</linearGradient>
<path class="st1" d="M274.3,359.4c-13.7-20-22-43.2-24-67.4c-2,24.2-10.3,47.4-24,67.4H274.3z"/>
<linearGradient id="SVGID_3_" gradientUnits="userSpaceOnUse" x1="111.4118" y1="378.0519" x2="111.4118" y2="349.3713" gradientTransform="matrix(2.3669 0 0 -2.3669 -1.3669 1186.8196)">
	<stop  offset="0.3" style="stop-color:#49494B"/>
	<stop  offset="0.7" style="stop-color:#C1C2C4"/>
	<stop  offset="0.75" style="stop-color:#C1C2C4"/>
	<stop  offset="1" style="stop-color:#49494B"/>
</linearGradient>
<path class="st2" d="M250.3,292c1.4,22.2,4.5,45.3,18.6,67.4h5.4C260.6,339.4,252.3,316.2,250.3,292z"/>
<linearGradient id="SVGID_4_" gradientUnits="userSpaceOnUse" x1="-2210.2781" y1="378.0519" x2="-2210.2781" y2="349.3713" gradientTransform="matrix(-2.3669 0 0 -2.3669 -4993.1699 1186.8196)">
	<stop  offset="0.3" style="stop-color:#49494B"/>
	<stop  offset="0.7" style="stop-color:#C1C2C4"/>
	<stop  offset="0.75" style="stop-color:#C1C2C4"/>
	<stop  offset="1" style="stop-color:#49494B"/>
</linearGradient>
<path class="st3" d="M250.3,292c-1.4,22.2-4.5,45.3-18.6,67.4h-5.4C240.1,339.4,248.4,316.2,250.3,292z"/>
<linearGradient id="SVGID_5_" gradientUnits="userSpaceOnUse" x1="106.2493" y1="434.2658" x2="106.2493" y2="378.2431" gradientTransform="matrix(2.3669 0 0 -2.3669 -1.3669 1186.8196)">
	<stop  offset="0" style="stop-color:#C1C2C4"/>
	<stop  offset="7.000000e-02" style="stop-color:#B8B9BB"/>
	<stop  offset="0.18" style="stop-color:#A0A1A3"/>
	<stop  offset="0.31" style="stop-color:#79797B"/>
	<stop  offset="0.45" style="stop-color:#49494B"/>
	<stop  offset="1" style="stop-color:#C1C2C4"/>
</linearGradient>
<path class="st4" d="M212.8,161.7c11.8,23.5,34.4,67.9,37.1,109.1h0.5c2.7-40.7,25.3-86,37.1-109.1c-5.4,2.7-31.2,18.6-37.6,58.8
	C244.5,180.2,218.2,166.2,212.8,161.7L212.8,161.7z"/>
<linearGradient id="SVGID_6_" gradientUnits="userSpaceOnUse" x1="-1714.1843" y1="386.8473" x2="-1714.1843" y2="433.1186" gradientTransform="matrix(-2.3669 0 0 -2.3669 -3788.4153 1186.8196)">
	<stop  offset="0" style="stop-color:#49494B"/>
	<stop  offset="0" style="stop-color:#595958"/>
	<stop  offset="0.45" style="stop-color:#C1C2C4"/>
	<stop  offset="0.6" style="stop-color:#C1C2C4"/>
	<stop  offset="0.8" style="stop-color:#49494B"/>
</linearGradient>
<path class="st5" d="M250.3,270.7c0-49.8,22.2-86,37.1-109.1C275.7,185.2,253.1,229.6,250.3,270.7z"/>
<linearGradient id="SVGID_7_" gradientUnits="userSpaceOnUse" x1="98.5056" y1="386.8473" x2="98.5056" y2="433.1186" gradientTransform="matrix(2.3669 0 0 -2.3669 -1.3669 1186.8196)">
	<stop  offset="0.3" style="stop-color:#49494B"/>
	<stop  offset="0.45" style="stop-color:#C1C2C4"/>
	<stop  offset="0.6" style="stop-color:#C1C2C4"/>
	<stop  offset="1" style="stop-color:#595958"/>
	<stop  offset="1" style="stop-color:#49494B"/>
</linearGradient>
<path class="st6" d="M250.3,270.7c0-49.8-22.2-86-37.1-109.1C225,185.2,247.6,229.6,250.3,270.7z"/>
<linearGradient id="SVGID_8_" gradientUnits="userSpaceOnUse" x1="106.345" y1="349.5625" x2="106.345" y2="499.2921" gradientTransform="matrix(2.3669 0 0 -2.3669 -1.3669 1186.8196)">
	<stop  offset="0" style="stop-color:#3A3B40"/>
	<stop  offset="7.000000e-02" style="stop-color:#3E3F44"/>
	<stop  offset="0.14" style="stop-color:#4B4C50"/>
	<stop  offset="0.21" style="stop-color:#5F6065"/>
	<stop  offset="0.28" style="stop-color:#7C7D81"/>
	<stop  offset="0.35" style="stop-color:#A1A2A5"/>
	<stop  offset="0.4" style="stop-color:#C1C2C4"/>
	<stop  offset="0.46" style="stop-color:#919295"/>
	<stop  offset="0.51" style="stop-color:#6B6C70"/>
	<stop  offset="0.56" style="stop-color:#505156"/>
	<stop  offset="0.6" style="stop-color:#404146"/>
	<stop  offset="0.63" style="stop-color:#3A3B40"/>
	<stop  offset="0.9" style="stop-color:#C1C2C4"/>
	<stop  offset="1" style="stop-color:#C1C2C4"/>
</linearGradient>
<path class="st7" d="M293.3,359.4c-18.6-22.5-28.5-50.9-28.1-80.1c0-39.8,24.9-90.5,36.7-112.7s23.5-43.9,23.5-68.8
	c0-41.5-33.6-75.1-75.1-75.1c-41.5,0-75.1,33.6-75.1,75.1c0,24.9,12.7,45.3,23.5,68.8s36.7,72.4,36.7,112.7
	c0.5,29.2-9.5,57.6-28.1,80.1h-23.1c24-25.3,33.5-49.8,33.5-80.1c0-42.5-36.7-108.6-37.1-109.5c-10.9-20.8-23.1-44.8-23.1-72
	c0-51.2,41.5-92.8,92.7-92.8s92.8,41.5,92.8,92.7c0,0,0,0.1,0,0.1c0,27.2-12.2,49.8-23.1,72c-0.9,1.4-37.1,67.9-37.1,109.5
	c0,30.8,9.5,54.3,33.5,80.1H293.3z"/>
<linearGradient id="SVGID_9_" gradientUnits="userSpaceOnUse" x1="106.2502" y1="349.5625" x2="106.2502" y2="495.4511" gradientTransform="matrix(2.3669 0 0 -2.3669 -1.3669 1186.8196)">
	<stop  offset="0" style="stop-color:#49494B"/>
	<stop  offset="0.5" style="stop-color:#C1C2C4"/>
	<stop  offset="0.51" style="stop-color:#C1C2C4"/>
	<stop  offset="0.55" style="stop-color:#C1C2C4"/>
	<stop  offset="0.75" style="stop-color:#49494B"/>
	<stop  offset="0.85" style="stop-color:#7F8082"/>
	<stop  offset="0.95" style="stop-color:#AFB0B2"/>
	<stop  offset="1" style="stop-color:#C1C2C4"/>
</linearGradient>
<path class="st8" d="M311,168.5c10.9-21.3,23.1-44.4,23.1-70.6c3.4-46.4-31.4-86.7-77.8-90.1s-86.7,31.4-90.1,77.8
	c-0.3,4.1-0.3,8.2,0,12.3c0,26.2,12.2,49.8,23.1,70.6c6.8,12.7,38.5,67.9,38.5,110.9c0,31.7-10.9,54.3-32.1,80.1h11.8
	c18.6-22.5,28.5-50.9,28.1-80.1c0-39.8-24.9-90.5-36.7-112.7s-23.5-43.9-23.5-68.8c0-41.5,33.6-75.1,75.1-75.1
	c41.5,0,75.1,33.6,75.1,75.1c0,24.9-12.7,45.3-23.5,68.8s-36.7,72.4-36.7,112.7c-0.5,29.2,9.5,57.6,28.1,80.1h11.8
	c-21.3-24-32.1-49.8-32.1-80.1C273,238.2,304.6,179.8,311,168.5z"/>
<radialGradient id="SVGID_10_" cx="107.4922" cy="463.3288" r="67.6862" gradientTransform="matrix(2.3669 0 0 -2.3669 -1.3669 1186.8196)" gradientUnits="userSpaceOnUse">
	<stop  offset="0" style="stop-color:#FFFFFF"/>
	<stop  offset="0.19" style="stop-color:#FFFFFF"/>
	<stop  offset="0.21" style="stop-color:#F6F6F6"/>
	<stop  offset="0.24" style="stop-color:#DDDDDD"/>
	<stop  offset="0.27" style="stop-color:#B6B6B5"/>
	<stop  offset="0.31" style="stop-color:#7F7F7E"/>
	<stop  offset="0.33" style="stop-color:#595958"/>
	<stop  offset="0.36" style="stop-color:#666665"/>
	<stop  offset="0.41" style="stop-color:#878787"/>
	<stop  offset="0.47" style="stop-color:#BEBEBE"/>
	<stop  offset="0.53" style="stop-color:#FFFFFF"/>
</radialGradient>
<path class="st9" d="M273,135.4l-6.3,19.9l-0.9,0.9c-9.9,2.6-20.4,2.6-30.3,0l-0.9-0.9l-6.8-19.9c-0.2-0.4-0.2-0.9,0-1.4l8.6-11.3
	h28.1l8.1,11.3C272.9,134.4,273.1,134.9,273,135.4L273,135.4z M291.5,87.9l-13.1,4.5l-0.9,0.9l-8.1,24.4c-0.2,0.4-0.2,0.9,0,1.4
	l8.6,11.8H301c5.6-8.7,8.9-18.6,9.5-29c0.1-0.5-0.1-1-0.5-1.4l-16.7-12.2L291.5,87.9z M254,71.2l20.8,14.9h1.4l13.6-4.5l0.9-0.9
	l6.3-19.5c0.1-0.5-0.1-1-0.5-1.4c-6.5-8-14.9-14.3-24.4-18.1h-1.4L254,54c-0.4,0.3-0.6,0.9-0.5,1.4v14c-0.1,0.5,0.1,1,0.5,1.4V71.2z
	 M225.5,86.5l20.8-14.9c0.4-0.3,0.6-0.9,0.5-1.4V55.3c0.1-0.5-0.1-1-0.5-1.4L230,42.2h-1.4c-9.5,3.7-17.9,9.8-24.4,17.6
	c-0.4,0.3-0.6,0.9-0.5,1.4l6.3,19.9L211,82l13.1,4.5H225.5z M231.3,118.2l-8.1-24.4l-0.9-0.9l-13.6-4.5h-1.4l-16.3,11.8
	c-0.4,0.3-0.6,0.9-0.5,1.4c0.6,10.3,3.9,20.3,9.5,29h23.1l8.1-11.3c0.2-0.4,0.2-0.9,0-1.4V118.2z"/>
<path class="st10" d="M250.3,77.5l-5.4,11.3l-0.9,0.9l-12.2,1.8l9.1,8.6c0.4,0.3,0.6,0.9,0.5,1.4l-2.7,12.2l11.3-5.9h1.4l10.9,5.9
	l-2.3-12.2c-0.1-0.5,0.1-1,0.5-1.4l9.1-8.6l-12.2-1.8l-0.9-0.9L250.3,77.5z"/>
<path class="st11" d="M250.8,107.8l11.3,5.9l-2.3-12.2c-7.7-0.8-14.6-5.1-18.6-11.8l-10.4,1.4l9.1,8.6c0.4,0.3,0.6,0.9,0.5,1.4
	l-1.8,12.7l11.3-5.9L250.8,107.8z"/>
<radialGradient id="SVGID_11_" cx="24.6856" cy="375.0667" r="14.1491" gradientTransform="matrix(1.6737 -1.6737 -1.6737 -1.6737 837.8274 841.1747)" gradientUnits="userSpaceOnUse">
	<stop  offset="0" style="stop-color:#C1C2C4"/>
	<stop  offset="0.19" style="stop-color:#C1C2C4"/>
	<stop  offset="0.21" style="stop-color:#B8B9BB"/>
	<stop  offset="0.25" style="stop-color:#A0A0A2"/>
	<stop  offset="0.29" style="stop-color:#78787A"/>
	<stop  offset="0.33" style="stop-color:#49494B"/>
	<stop  offset="0.37" style="stop-color:#565658"/>
	<stop  offset="0.43" style="stop-color:#77787A"/>
	<stop  offset="0.51" style="stop-color:#ADAEB0"/>
	<stop  offset="0.53" style="stop-color:#C1C2C4"/>
</radialGradient>
<circle class="st12" cx="250.5" cy="176.3" r="9.5"/>
</svg>
