<?xml version="1.0" encoding="utf-8"?>
<!-- Generator: Adobe Illustrator 25.0.1, SVG Export Plug-In . SVG Version: 6.00 Build 0)  -->
<svg version="1.1" id="Layer_1" xmlns="http://www.w3.org/2000/svg" xmlns:xlink="http://www.w3.org/1999/xlink" x="0px" y="0px"
	 viewBox="0 0 500 500" style="enable-background:new 0 0 500 500;" xml:space="preserve">
<style type="text/css">
	.st0{fill:#1A171B;}
</style>
<polygon class="st0" points="97.1,362.6 410,305.1 82,85 241.8,296.1 "/>
<polygon class="st0" points="268.7,26.2 187.1,61.5 241.8,133.8 "/>
<path class="st0" d="M25.8,427.8C16.9,426,9.1,424.5,9.1,417c0-6.5,5.8-8.8,15.8-8.8c8.1,0,17.3,1.4,17.3,1.4l0.9-5.6
	c0,0-7.6-1.7-17.7-1.7c-14.7,0-23.3,4-23.3,15.1c0,12.6,11,14.6,22.9,17.1c8.8,1.8,14.8,3.1,14.8,10.6c0,7.1-5.1,9.4-15.8,9.4
	c-9.2,0-19.9-1.8-19.9-1.8l-0.8,6.1c0,0,10.2,1.7,19.6,1.7c18.2,0,24.1-5.8,24.1-16.3C46.9,432.2,38.8,430.5,25.8,427.8z"/>
<polygon class="st0" points="179.9,433.6 210,433.6 210,427.8 179.9,427.8 179.9,408.9 211.7,408.9 211.7,403 172.6,403 
	172.6,459.9 212.3,459.9 212.3,454 179.9,454 "/>
<polygon class="st0" points="298.5,403 285.3,403 285.3,459.9 331.8,459.9 331.8,448.5 298.5,448.5 "/>
<rect x="341.4" y="403" class="st0" width="13.3" height="57"/>
<path class="st0" d="M97.1,436.6c0,12-5.3,18.2-16.5,18.2c-10.2,0-16.9-5.1-16.9-17.8V403h-7.2v35.1c0,13.9,7.7,22.4,23.8,22.4
	c20.1,0,24.1-12.9,24.1-24.8V403h-7.2V436.6z"/>
<path class="st0" d="M268,419c0-10.2-6.5-16-22.6-16h-22.2v57h7.2v-51.1h13.9c13.2,0,16,4.5,16,11c0,6.7-3,10.8-12.8,10.8h-7.5
	l21.7,29.3h9.1l-19.7-24.6C262.9,434.3,268,427.8,268,419z"/>
<path class="st0" d="M143.1,403h-26v57h7.1v-51.1h17.1c9.8,0,14.4,3.7,14.4,13c0,7.8-2.9,12.3-15.7,12.3c-4.1,0-12.9-0.5-12.9-0.5
	l4.6,5.8c0,0,5.4,0.4,9.2,0.4c16.4,0,22.2-8.1,22.2-18.8C163.1,409.3,156.6,403,143.1,403z"/>
<path class="st0" d="M377.3,431.5c0-11.8,8.4-17.4,22.4-17.4c9.5,0,19.1,2.4,19.1,2.4l1.5-11.3c0,0-8-2.7-21-2.7
	c-20.2,0-35.4,9.4-35.4,30.1c0,16.5,10.4,27.8,27,27.8c4.1,0,8-0.7,8-0.7l8.7-13c0,0-7.3,2.1-12.9,2.1
	C386.2,448.7,377.3,443.7,377.3,431.5z"/>
<path class="st0" d="M471.2,402.8h-15.5l-24.9,57.2H445l4.1-9.7H477l4.3,9.7h15.4L471.2,402.8z M453.2,440.1l9.7-25.3l10.1,25.3
	H453.2z"/>
<polygon class="st0" points="395,438.8 410.8,438.8 410.8,459.9 423.9,459.9 423.9,427.7 395,427.7 "/>
</svg>
