<?xml version="1.0" encoding="utf-8"?>
<!-- Generator: Adobe Illustrator 25.0.1, SVG Export Plug-In . SVG Version: 6.00 Build 0)  -->
<svg version="1.1" id="Layer_1" xmlns="http://www.w3.org/2000/svg" xmlns:xlink="http://www.w3.org/1999/xlink" x="0px" y="0px"
	 viewBox="0 0 500 500" style="enable-background:new 0 0 500 500;" xml:space="preserve">
<style type="text/css">
	.st0{fill:#1C2A61;}
</style>
<g id="layer1" transform="translate(598.75,-2802.3781)">
	<path id="path3033" class="st0" d="M-491.8,2874.9c0,0-43.5,47.1-43.5,118.8c0,105,86.1,185.8,187.1,185.8
		c72.2,0,118.5-42.2,118.5-42.2l-30.1-30.1c0,0-33.2,31.4-88.5,31.4c-81.3,0-142.8-68.6-142.8-144.6c0-53.8,29.8-88.6,29.8-88.6
		L-491.8,2874.9z"/>
	<path id="path3035" class="st0" d="M-204.9,3112.8c0,0,43.5-47.1,43.5-118.8c0-105-86.1-185.8-187.1-185.8
		c-72.2,0-118.5,42.2-118.5,42.2l30.1,30.1c0,0,33.2-31.4,88.5-31.4c81.3,0,142.8,68.6,142.8,144.6c0,53.8-29.8,88.6-29.8,88.6
		L-204.9,3112.8z"/>
	<path id="path3037" class="st0" d="M-284.7,3082.3c0,0-25.6,19.9-63.6,19.9c-58.6,0-109.8-47.3-109.8-108.6
		c0-57.2,46.8-108.3,110.1-108.3c58.9,0,109.7,47.1,109.7,108.4c0,7.9-1.3,17.1-1.3,17.1h-116.5l-34.9-34.9h107.5
		c-5.4-24.7-30.9-51-64.3-51c-37.7,0-67.7,31-67.7,68.9c0,36,28.2,69,67.3,69c22.1,0,34.3-9.9,34.3-9.9L-284.7,3082.3z"/>
	<path id="path3039" class="st0" d="M-566.7,3231c-18.5,0-29.4,13-29.4,29c0,15.9,11.3,28.7,29.6,28.7c13.5,0,23.5-7.3,26.4-17.3
		h-16.8c0,0-1.8,4.2-9.1,4.2c-7.9,0-12.2-4.1-13.9-9.9h40.1c0,0,0.3-2.4,0.3-6.4C-539.5,3241.8-551.5,3231-566.7,3231z M-567,3244.1
		c7.1,0,11,4.7,11.7,10.3H-580C-578.8,3247.9-573.6,3244.1-567,3244.1z"/>
	<path id="path3041" class="st0" d="M-531.9,3287.4v-55.2h16v6.3c4.3-3.8,9.6-7.2,19.4-7.2v15.2c-15.4,0.4-19.4,6-19.4,12.4v28.6
		H-531.9z"/>
	<path id="path3043" class="st0" d="M-388.5,3205.5v29.9c0,0-5.8-4.4-15.6-4.4c-16,0-27.6,13.4-27.6,28.7c0,16.1,12,28.8,27.8,28.8
		c9.5,0,15.4-4.4,15.4-4.4v3.2h16v-81.9H-388.5z M-401.4,3244.6c6.6,0,10.4,3,12.9,6.3v17.8c-1.8,2.5-5.7,6.3-12.9,6.3
		c-8.4,0-14.3-6.9-14.3-15.3C-415.7,3250.8-409.2,3244.6-401.4,3244.6L-401.4,3244.6z"/>
	<path id="path3047" class="st0" d="M-359.6,3287.4v-55.2h16v55.2H-359.6z"/>
	<path id="path3049" class="st0" d="M-337.5,3232.2h16.9l14.1,34.5l14.1-34.5h16.9l-23.9,55.2h-14.3L-337.5,3232.2z"/>
	<path id="path3051" class="st0" d="M-268.7,3287.4v-55.2h16v55.2H-268.7z"/>
	<path id="path3053" class="st0" d="M-181.9,3287.4v-55.2h16v55.2H-181.9z"/>
	<path id="path3055" class="st0" d="M-465.3,3231c-18.5,0-29.4,13-29.4,29c0,15.9,11.3,28.7,29.6,28.7c13.5,0,23.5-7.3,26.4-17.3
		h-16.8c0,0-1.8,4.2-9.1,4.2c-7.9,0-12.2-4.1-13.9-9.9h40.1c0,0,0.3-2.4,0.3-6.4C-438.1,3241.8-450.1,3231-465.3,3231L-465.3,3231z
		 M-465.6,3244.1c7.1,0,11,4.7,11.7,10.3h-24.7C-477.4,3247.9-472.2,3244.1-465.6,3244.1z"/>
	<path id="path3057" class="st0" d="M-127.7,3231c-18.5,0-29.4,13-29.4,29c0,15.9,11.3,28.7,29.6,28.7c13.5,0,23.5-7.3,26.4-17.3
		h-16.8c0,0-1.8,4.2-9.1,4.2c-7.9,0-12.2-4.1-13.9-9.9h40.1c0,0,0.3-2.4,0.3-6.4C-100.5,3241.8-112.5,3231-127.7,3231z M-128,3244.1
		c7.1,0,11,4.7,11.7,10.3h-24.7C-139.8,3247.9-134.6,3244.1-128,3244.1z"/>
	<path id="path3059" class="st0" d="M-243,3268.3c1,14.4,11.5,20.8,26,20.8c15.4,0,24.9-6.9,24.9-18.7c0-12.8-11.3-15.2-19.8-16.7
		c-5.9-0.9-13.5-1.2-13.5-6.2c0-2.8,2.7-4.7,8.2-4.7c6,0,10,2.6,10.1,6.9l14.6-0.1c-0.6-10.6-8.8-18.8-24.9-18.8
		c-14.6,0-23.7,7.2-23.7,18.1c0,10.7,7.7,14.6,15.6,16.3l7.8,1.3c5,0.8,10.1,1.5,10.1,5.4c0,2.4-2.9,4.7-9.4,4.7
		c-6.8,0-10.7-2.7-11.5-8.2L-243,3268.3z"/>
</g>
</svg>
