<?xml version="1.0" encoding="utf-8"?>
<!-- Generator: Adobe Illustrator 25.0.1, SVG Export Plug-In . SVG Version: 6.00 Build 0)  -->
<svg version="1.1" id="Layer_1" xmlns="http://www.w3.org/2000/svg" xmlns:xlink="http://www.w3.org/1999/xlink" x="0px" y="0px"
	 viewBox="0 0 500 500" style="enable-background:new 0 0 500 500;" xml:space="preserve">
<style type="text/css">
	
		.st0{fill-rule:evenodd;clip-rule:evenodd;fill:#38003D;stroke:#38003D;stroke-width:0.2166;stroke-linejoin:round;stroke-miterlimit:1.7325;}
	.st1{fill:#38003D;stroke:#38003D;stroke-width:0.2166;stroke-miterlimit:1.7325;}
	.st2{fill:#38003D;stroke:#38003D;stroke-width:0.2166;stroke-linejoin:round;stroke-miterlimit:1.7325;}
</style>
<g id="g4199" transform="matrix(0.43313146,0,0,0.43313146,-183.17823,-116.6152)">
	<path id="path4138" class="st0" d="M848.1,426.6c81.7-45.2,165.6-51,242.9-29.9c3.3-26.4,5.2-49.4,19.9-81.2
		c-19.4,14.1-31.9,30.1-46.1,47.4l-4.8-73.7l-62,68.9l-42.4-69.3l-26.1,77.5l-75.9-53.6l12.8,74.5c-17.4-14.5-36.9-28.9-56.3-37
		C824.8,370,839.4,397.3,848.1,426.6L848.1,426.6z"/>
	<path id="path4142" class="st0" d="M1164.3,457.9c-21.6-18-43.3-33.6-91.1-45.4c4.3,9.4,7.9,21.4,7.8,33.9
		c-12.3-13.1-27.3-29.4-45.5-39.1c-60.3-7.9-122.3,7.2-170.9,31.7c20.6,2.4,36.8,18.4,42.3,36.1c-58.2-40.6-91.6,17.9-57.9,76.2
		c-36.2-17.3-37.9-59.3-26.9-87c-27.2,20.6-68.7,60.4-94.6,114.3l33.2,4.7c-40.1,47.2-60.4,115.3-64.3,155.2l54-17.5
		c-17.1,62-3.4,158.4,18.4,193.7c33.7-26.5,60.8-59.7,88.8-101.9c17.7,56.1,14.6,114.4,0.7,173.8c78.8,44.6,176.9,26.5,241.2-21.9
		c2.7,11.5,4.6,16.9,10,41.8c78-54,104.5-120.2,112.1-184.3l25.4,28c34-109.7,13.7-198.9-46.6-285.3l-2.5,20.1
		c-7-8.8-18.5-19.5-23.8-26.2c-0.8-1.1-0.6-1.7-1.2-2.5c2.9-1.7,8.1-4.2,9.5-8c-0.6-5.2-6.6-18.7-11.1-21.3
		c-11.2,1-20.2,10.8-20.2,14.4c-5.8-5.5-11.3-11.6-28.2-17.8c7.6,7.7,14.9,19.5,20.3,30c11.1,8.2,29.8,23.8,43.7,38.1l-2.7,2.7
		c-15.3-12-56.1-10.9-78.6,0.4c-10.9-13.1-23.6-27.7-41.4-43.7c-4.3-7.4-4.7-20.6,9-32c-15.2,1.4-21.5,7.9-28.7,14
		c-10.6-8-24.5-16.4-47.1-22.8c-17.7,3.6-39,14.9-47.2,24.8c20.6,11,26.9,14.4,39.4,15.2c18.4,1.3,34.4-2.9,46.1,4.6
		c14.6,12.9,41.9,37.2,45.7,48.2c-23.6-13.5-58.9-6.4-98.2-8.4c-37.1-4.4-57.6-31.9-58-54l-26.4-4.2c14.8-20.4,33.6-29.4,47.5-34.3
		l-14.5-12c23.2-20,59.3-36,96-39.1c25.5,12.6,47.3,26.4,62.2,38.7c6.8-11.3,7.7-23.6,8.6-31.6c29,13.4,61.4,36.3,85.2,60.4
		C1174.7,501.6,1167.5,481.6,1164.3,457.9L1164.3,457.9z M1050.9,729.5c-11.1-21.4-22-45.5-34.8-65.9c24.7-17.7,48.1-36.1,88.2-46.3
		c8.5,7,20.9,15.5,38.7,21.9l0,42.2C1117.7,698.8,1092.5,726.9,1050.9,729.5L1050.9,729.5z M1134.8,721.8l30.5-0.1
		c5.2,4.9,15.9,21.3,16.7,34.2c-2.4,18.2-16.5,51.7-41.4,64.5c0.8-15.5-1-35.6-4.1-46.8c-14.2,16-37.2,23.1-49.1,25.8
		c-4.9-13.2-13-27.7-21-39.7C1087.8,755.3,1114.7,739.7,1134.8,721.8L1134.8,721.8z M1194.4,619c20.1,42.6,15.8,83.4,1.7,104.4
		c-6.9-15.7-20.1-31.5-31.3-41.4l0.5-41.4C1178,633.8,1186.7,626.6,1194.4,619L1194.4,619z"/>
	<path id="path4144" class="st1" d="M693.9,1128.6v53.5h-30.7v-162.5h41.4c27.3,0.3,36.3,3.6,48.1,11.5c11.9,7.8,20.3,25,20.2,41.7
		c0,37.2-23,56.1-66,55.8H693.9z M693.9,1099.6h15.5c17.2,0.1,31.5-6.3,31.6-25.9c-0.2-12-7.1-23.4-28.4-24.6h-18.7V1099.6z"/>
	<path id="path4146" class="st1" d="M847.5,1103c-18.7-5.2-34.1,4.4-35.4,22.4v56.7h-28.5v-106.4h25l3.3,16.2
		c7.7-14.2,17.7-19.7,35.6-16.2V1103z"/>
	<path id="path4148" class="st2" d="M958.7,1137.8h-78.9c0,11.2,11.9,22.5,27,22.4c17-0.6,23.5-7,29.5-12.9l17,17.8
		c-6.7,6.4-19.5,18.4-44,20.1c-36.7-0.4-58.8-24.6-59.2-55.2c0.9-33.9,25.4-56.9,56.8-57.3c20.1,0.1,39.5,12.2,47.6,31.2
		C959.1,1114.7,960.1,1127.8,958.7,1137.8L958.7,1137.8z M879.7,1118.1h51.6c-2.3-10.3-11.9-20.9-25.8-20.6
		C891.5,1097.6,881.3,1107.6,879.7,1118.1z"/>
	<path id="path4150" class="st1" d="M1099.5,1182v-63c-0.8-13.9-10.5-19.9-18.1-19.3c-9.7,0.7-17.2,8.1-17.8,19.9v62.5h-28v-67.4
		c-1.7-9.9-10.6-15.4-18.1-14.7c-8.8,0.8-16.5,5.9-17.3,16v66.1h-28.6v-106.7h25.8l2.8,13.6c7.2-11.1,14.7-16.4,26.7-16.5
		c16.9-0.1,24.3,8.3,31.2,17.3c8.8-12.4,16.6-16.6,33.3-17.3c24.4,1.2,37,20.8,36.4,42.5v67.1H1099.5z"/>
	<path id="path4152" class="st1" d="M1143.3,1075.7h29.4V1182h-29.4V1075.7z"/>
	<path id="path4153" class="st1" d="M662.7,1199.8h32.2v129.3h68.2v29.4H662.7L662.7,1199.8z"/>
	<path id="path4157" class="st1" d="M979.7,1358.5l-3.2-13.2c-10.1,12.2-22,16.7-36.8,16.1c-13.4-0.6-27-7.5-37-20.1
		c-8.4-10.3-12.6-22.9-12.6-37.7c0-14.6,6.9-29.1,19-40.5c9.4-8.3,22.6-13.1,35.4-13c12.2,0.1,22.7,3.6,31.8,15.2l2.9-13.7h26.4v107
		H979.7z M949.2,1276.7c-16.4,1.1-27.4,11.1-28.4,28.5c0,8.3,2.7,16.5,9.4,22.1c6,4.6,13.1,7,20,6.6c15.6-1.1,26-13.2,26.2-27.6
		C976.7,1289.9,966.5,1277.7,949.2,1276.7L949.2,1276.7z"/>
	<path id="path4161" class="st1" d="M1145.5,1251.7h30.2v51.6c0,7.1-0.7,15.9,4,22c4.8,5.8,10.9,8.3,16.2,8.5
		c8.4,0.3,13.2-2.3,16.8-5.2c7.3-5.6,8.1-16.4,8.1-24.6v-52.3h29.6v62.1c0,13.7-5.6,25.1-15.5,35c-9.6,8.5-22.7,13.3-39.1,12.6
		c-16.4-0.7-26.7-5.4-35.9-14c-7.7-7.1-14.5-19.5-14.5-36.1L1145.5,1251.7z"/>
	<path id="path4145" class="st1" d="M1158.5,1024.4c5.1,0,9.4,1.8,12.9,5.4c3.6,3.5,5.4,7.8,5.4,12.9c0,5.1-1.8,9.4-5.4,13
		c-3.5,3.5-7.8,5.3-12.9,5.3s-9.4-1.8-13-5.3c-3.5-3.6-5.3-8-5.3-13c0-5.1,1.8-9.4,5.3-12.9
		C1149.1,1026.2,1153.5,1024.4,1158.5,1024.4z"/>
	<path id="path4147" class="st1" d="M1370.5,1103c-18.7-5.2-34.1,4.4-35.4,22.4v56.7h-28.5v-106.4h25l3.3,16.2
		c7.7-14.2,17.7-19.7,35.6-16.2L1370.5,1103z"/>
	<path id="path4149" class="st2" d="M1293.2,1137.8h-78.9c0,11.2,11.9,22.5,27,22.4c17-0.6,23.5-7,29.5-12.9l17,17.8
		c-6.7,6.4-19.5,18.4-44,20.1c-36.7-0.4-58.8-24.6-59.2-55.2c0.9-33.9,25.4-56.9,56.8-57.3c20.1,0.1,39.5,12.2,47.6,31.2
		C1293.6,1114.7,1294.6,1127.8,1293.2,1137.8L1293.2,1137.8z M1214.2,1118.1h51.6c-2.3-10.3-11.9-20.9-25.8-20.6
		C1226,1097.6,1215.8,1107.6,1214.2,1118.1z"/>
	<path id="path4180" class="st1" d="M1037.4,1369.3c10.6,9.3,18.8,12.8,25.3,13.9c20.8,3.4,43.2-4.4,38.4-34.2
		c-5.7,5.8-11,9-16.8,10.7c-25.7,5.1-43.6-4.1-55.3-18.5c-8.4-10.3-12.6-22.9-12.6-37.7c0-14.6,6.9-29.1,19-40.5
		c9.4-8.3,22.6-13.1,35.4-13c12.2,0.1,22.7,3.6,31.8,15.2l2.9-13.7h26.4v98.7c1.1,47.1-33.6,61.7-61.6,61.4
		c-17.3-0.2-35.1-7.2-49.1-19.3L1037.4,1369.3z M1075.5,1276.7c-16.4,1.1-27.4,11.1-28.4,28.5c0,8.3,2.7,16.5,9.4,22.1
		c6,4.6,13.1,7,20,6.6c15.6-1.1,26-13.2,26.2-27.6C1103,1289.9,1092.8,1277.7,1075.5,1276.7L1075.5,1276.7z"/>
	<path id="path4149-6" class="st2" d="M1370,1314.1h-78.9c0,11.2,11.9,22.5,27,22.4c17-0.6,23.5-7,29.5-12.9l17,17.8
		c-6.7,6.4-19.5,18.4-44,20.1c-36.7-0.4-58.8-24.6-59.2-55.2c0.9-33.9,25.4-56.9,56.8-57.3c20.1,0.1,39.5,12.2,47.6,31.2
		C1370.5,1290.9,1371.5,1304,1370,1314.1L1370,1314.1z M1291.1,1294.3h51.6c-2.3-10.3-11.9-20.9-25.8-20.6
		C1302.9,1273.9,1292.7,1283.8,1291.1,1294.3z"/>
	<path id="path4197" class="st2" d="M878.5,1314.1h-78.9c0,11.2,11.9,22.5,27,22.4c17-0.6,23.5-7,29.5-12.9l17,17.8
		c-6.7,6.4-19.5,18.4-44,20.1c-36.7-0.4-58.8-24.6-59.2-55.2c0.9-33.9,25.4-56.9,56.8-57.3c20.1,0.1,39.5,12.2,47.6,31.2
		C879,1290.9,880,1304,878.5,1314.1L878.5,1314.1z M799.6,1294.3h51.6c-2.3-10.3-11.9-20.9-25.8-20.6
		C811.4,1273.9,801.2,1283.8,799.6,1294.3z"/>
</g>
</svg>
