<?xml version="1.0" encoding="utf-8"?>
<!-- Generator: Adobe Illustrator 25.0.1, SVG Export Plug-In . SVG Version: 6.00 Build 0)  -->
<svg version="1.1" id="Layer_1" xmlns="http://www.w3.org/2000/svg" xmlns:xlink="http://www.w3.org/1999/xlink" x="0px" y="0px"
	 viewBox="0 0 500 500" style="enable-background:new 0 0 500 500;" xml:space="preserve">
<style type="text/css">
	.st0{fill:#FFFFFF;}
	.st1{fill:#A69038;}
	.st2{fill:#293F9C;}
	.st3{fill-rule:evenodd;clip-rule:evenodd;fill:#AA1A27;stroke:#FFFFFF;stroke-width:12.8814;stroke-miterlimit:42.938;}
	.st4{fill-rule:evenodd;clip-rule:evenodd;fill:#AA1A27;}
	.st5{fill:#0E2D6D;}
	.st6{fill-rule:evenodd;clip-rule:evenodd;fill:#93ACD3;}
	.st7{fill-rule:evenodd;clip-rule:evenodd;fill:#EB9098;}
</style>
<g id="layer1" transform="translate(-125.38582,-340.18808)">
	<g id="g24360" transform="matrix(13.418137,0,0,-13.418136,-7935.7638,6323.389)">
		<g id="g24293">
			<path id="path10692" class="st0" d="M619.5,408.7c-7.1,0-13,5.9-13,13.2c0,0.1,0,18.6,0,21.8v2h25.9v-2c0-3.2,0-21.7,0-21.8
				C632.5,414.6,626.7,408.7,619.5,408.7"/>
			<path id="path10696" class="st1" d="M619.5,410.2c-6.3,0-11.5,5.2-11.5,11.7c0,0.2,0,19.4,0,22.4h23c0-3.1,0-22.2,0-22.4
				C631,415.4,625.9,410.2,619.5,410.2 M631.8,443.7l0,1.3h-24.5v-1.3c0-3.2,0-21.8,0-21.8c0-6.9,5.5-12.4,12.2-12.4
				s12.2,5.6,12.2,12.4C631.8,422,631.8,440.5,631.8,443.7"/>
			<path id="path10700" class="st1" d="M609.1,430.6v0.7c0,0.5,0.3,0.8,0.8,0.8c0.2,0,0.4,0,0.5-0.1c0,0,0.1,0,0.1-0.1v-0.2
				c0-0.1,0-0.1-0.1,0c-0.1,0-0.3,0.1-0.4,0.1c-0.3,0-0.4-0.1-0.4-0.4v-0.6c0-0.3,0.1-0.4,0.4-0.4c0.2,0,0.3,0,0.4,0.1
				c0,0,0.1,0,0.1,0l0-0.3c0,0,0-0.1-0.1-0.1c-0.1,0-0.3-0.1-0.5-0.1C609.4,429.8,609.1,430,609.1,430.6"/>
			<path id="path10704" class="st1" d="M612.4,432v-2.1c0,0,0,0-0.1,0h0c-0.2,0-0.3,0.1-0.3,0.4v0.6h-0.7v-0.9c0,0,0,0-0.1,0h0
				c-0.2,0-0.3,0.1-0.3,0.4v1.8c0,0,0,0.1,0.1,0.1h0.3c0,0,0,0,0,0v-0.9h0.7v0.9c0,0,0,0,0,0L612.4,432
				C612.4,432,612.4,432,612.4,432"/>
			<path id="path10708" class="st1" d="M613.7,430.6c-0.1,0.3-0.2,0.7-0.3,1.1h0c-0.1-0.3-0.2-0.7-0.2-1.1H613.7z M612.6,429.9
				c0.2,0.7,0.4,1.5,0.6,2.1c0,0.1,0.1,0.1,0.1,0.1h0.4c0.1,0,0.1,0,0.1-0.1c0.2-0.6,0.4-1.3,0.6-2.1c0,0,0-0.1,0-0.1H614
				c0,0-0.1,0-0.1,0l-0.1,0.4h-0.7c0-0.1-0.1-0.3-0.1-0.4c0,0,0,0-0.1,0L612.6,429.9C612.6,429.9,612.6,429.9,612.6,429.9"/>
			<path id="path10712" class="st1" d="M614.6,429.9c0,0.6,0,1.4,0.1,2.1c0,0,0,0.1,0.1,0.1h0.3c0,0,0.1,0,0.1,0l0.5-1.1h0l0.5,1.1
				c0,0,0,0,0.1,0h0.3c0,0,0,0,0-0.1c0-0.7,0.1-1.5,0.1-2.1c0,0,0,0-0.1,0h-0.3c0,0-0.1,0-0.1,0c0,0.5,0,1.1,0,1.5h0l-0.4-0.9
				c0,0,0-0.1-0.1-0.1h-0.1c0,0-0.1,0-0.1,0.1l-0.5,0.9h0c0-0.4,0-0.9,0-1.5c0,0,0,0-0.1,0L614.6,429.9
				C614.6,429.9,614.6,429.9,614.6,429.9"/>
			<path id="path10716" class="st1" d="M618,431.4c0,0.1,0,0.2-0.1,0.3c-0.1,0.1-0.1,0.1-0.3,0.1h-0.2V431h0.1c0.2,0,0.3,0,0.3,0.1
				C618,431.1,618,431.2,618,431.4L618,431.4z M618.5,431.4L618.5,431.4c0-0.3-0.1-0.5-0.2-0.6c-0.1-0.1-0.3-0.2-0.6-0.2h-0.2v-0.7
				c0,0,0,0-0.1,0h0c-0.2,0-0.3,0.1-0.3,0.4v1.8c0,0,0,0.1,0.1,0.1h0.6c0.3,0,0.4,0,0.6-0.1C618.4,431.8,618.5,431.7,618.5,431.4"/>
			<path id="path10720" class="st1" d="M618.6,429.9v0.2c0,0,0,0,0,0h0.2v1.6h-0.2c0,0,0,0,0,0v0.2c0,0,0,0.1,0.1,0.1h0.9
				c0,0,0.1,0,0-0.1l0-0.2c0,0,0,0-0.1,0h-0.2v-1.6h0.2c0,0,0,0,0,0v-0.2c0,0,0,0-0.1,0L618.6,429.9
				C618.6,429.9,618.6,429.9,618.6,429.9"/>
			<path id="path10724" class="st1" d="M620.9,430.3c0.1,0.1,0.1,0.2,0.1,0.3v0.7c0,0.2,0,0.3-0.1,0.3c-0.1,0.1-0.1,0.1-0.3,0.1
				s-0.2,0-0.3-0.1c-0.1-0.1-0.1-0.2-0.1-0.3v-0.7c0-0.1,0-0.3,0.1-0.3c0.1-0.1,0.2-0.1,0.3-0.1S620.9,430.2,620.9,430.3 M620.1,430
				c-0.1,0.1-0.2,0.3-0.2,0.5v0.8c0,0.3,0.1,0.5,0.3,0.6c0.1,0.1,0.3,0.1,0.5,0.1c0.2,0,0.4-0.1,0.5-0.1c0.2-0.1,0.3-0.3,0.3-0.6
				v-0.8c0-0.3-0.1-0.5-0.3-0.6c-0.1-0.1-0.3-0.1-0.5-0.1C620.4,429.8,620.2,429.9,620.1,430"/>
			<path id="path10728" class="st1" d="M623.4,432v-2.1c0,0,0,0-0.1,0h-0.2c-0.1,0-0.1,0-0.1,0.1l-0.8,1.4h0v-1.4c0,0,0,0-0.1,0h0
				c-0.2,0-0.3,0.1-0.3,0.4v1.8c0,0,0,0,0,0h0.2c0.1,0,0.1,0,0.1-0.1l0.8-1.3h0v1.3c0,0,0,0,0,0L623.4,432
				C623.4,432,623.4,432,623.4,432"/>
			<path id="path10732" class="st1" d="M623.9,429.9C623.8,429.9,623.8,429.9,623.9,429.9l-0.1,0.4c0,0,0,0.1,0.1,0
				c0.1,0,0.3-0.1,0.5-0.1c0.2,0,0.4,0.1,0.4,0.3v0c0,0.2-0.1,0.2-0.3,0.3l-0.1,0c-0.3,0.1-0.5,0.3-0.5,0.6v0c0,0.4,0.3,0.6,0.7,0.6
				c0.1,0,0.3,0,0.4-0.1c0.1,0,0.1,0,0.1-0.1v-0.2c0,0,0-0.1-0.1,0c-0.1,0-0.2,0-0.3,0c-0.2,0-0.3-0.1-0.3-0.2v0
				c0-0.2,0.1-0.2,0.2-0.3l0.1-0.1c0.3-0.1,0.5-0.3,0.5-0.6v0c0-0.4-0.3-0.6-0.8-0.6C624.2,429.8,624,429.9,623.9,429.9"/>
			<path id="path10736" class="st1" d="M626.9,432v-2.1c0,0,0,0-0.1,0h0c-0.2,0-0.3,0.1-0.3,0.4v0.6h-0.7v-0.9c0,0,0,0-0.1,0h0
				c-0.2,0-0.3,0.1-0.3,0.4v1.8c0,0,0,0.1,0.1,0.1h0.3c0,0,0,0,0,0v-0.9h0.7v0.9c0,0,0,0,0,0L626.9,432
				C626.9,432,626.9,432,626.9,432"/>
			<path id="path10740" class="st1" d="M627.2,429.9v0.2c0,0,0,0,0,0h0.2v1.6h-0.2c0,0,0,0,0,0v0.2c0,0,0,0.1,0.1,0.1h0.9
				c0,0,0.1,0,0-0.1l0-0.2c0,0,0,0-0.1,0h-0.2v-1.6h0.2c0,0,0,0,0,0v-0.2c0,0,0,0-0.1,0L627.2,429.9
				C627.2,429.9,627.2,429.9,627.2,429.9"/>
			<path id="path10744" class="st1" d="M629.5,431.4c0,0.1,0,0.2-0.1,0.3c-0.1,0.1-0.1,0.1-0.3,0.1H629V431h0.1c0.2,0,0.3,0,0.3,0.1
				C629.5,431.1,629.5,431.2,629.5,431.4L629.5,431.4z M629.9,431.4L629.9,431.4c0-0.3-0.1-0.5-0.2-0.6c-0.1-0.1-0.3-0.2-0.6-0.2
				H629v-0.7c0,0,0,0-0.1,0h0c-0.2,0-0.3,0.1-0.3,0.4v1.8c0,0,0,0.1,0.1,0.1h0.6c0.3,0,0.4,0,0.6-0.1
				C629.9,431.8,629.9,431.7,629.9,431.4"/>
			<path id="path10748" class="st1" d="M609.1,428.8c0-0.1,0.1-0.2,0.2-0.2h20.5c0.1,0,0.2,0.1,0.2,0.2c0,0.1-0.1,0.2-0.2,0.2h-20.5
				C609.2,428.9,609.1,428.8,609.1,428.8"/>
			<path id="path10752" class="st2" d="M623.4,412.9v0.8h-1.1v2.8h-0.9v-3.1c0-0.3,0.2-0.6,0.6-0.6L623.4,412.9L623.4,412.9z
				 M615.8,413.5c0-0.3,0.3-0.6,0.6-0.6h1.6v0.8h-1.3v0.6h1.2v0.8h-1.2v0.5h1.3v0.8h-2.2L615.8,413.5L615.8,413.5z M619.2,412.9
				c-0.3,0-0.6,0.2-0.6,0.6v3.1h2.2v-0.8h-1.3v-0.5h1.2v-0.8h-1.2v-1.4L619.2,412.9L619.2,412.9z"/>
			<path id="path10756" class="st1" d="M621.1,423.4c-0.4,0-0.7-0.3-0.7-0.7c0-0.4,0.3-0.7,0.7-0.7c0.4,0,0.7,0.3,0.7,0.7
				S621.5,423.4,621.1,423.4"/>
			<path id="path10760" class="st1" d="M620.3,424.6c-0.3,0-0.6-0.3-0.6-0.6s0.3-0.6,0.6-0.6s0.6,0.3,0.6,0.6
				C621,424.3,620.7,424.6,620.3,424.6"/>
			<path id="path10764" class="st1" d="M621.6,425.2c-0.3,0-0.6-0.3-0.6-0.6s0.3-0.6,0.6-0.6s0.6,0.3,0.6,0.6
				S621.9,425.2,621.6,425.2"/>
			<path id="path10768" class="st1" d="M619.5,425.4c-0.3,0-0.5-0.2-0.5-0.5s0.2-0.5,0.5-0.5c0.3,0,0.5,0.2,0.5,0.5
				S619.8,425.4,619.5,425.4"/>
			<path id="path10772" class="st1" d="M618.6,425.8c-0.2,0-0.4-0.2-0.4-0.4c0-0.2,0.2-0.4,0.4-0.4s0.4,0.2,0.4,0.4
				C619,425.6,618.8,425.8,618.6,425.8"/>
			<path id="path10776" class="st1" d="M617.8,425.9c-0.2,0-0.3-0.1-0.3-0.3c0-0.2,0.1-0.3,0.3-0.3s0.3,0.1,0.3,0.3
				C618.1,425.8,617.9,425.9,617.8,425.9"/>
			<path id="path10780" class="st1" d="M618.8,426.5c-0.2,0-0.3-0.1-0.3-0.3c0-0.2,0.1-0.3,0.3-0.3s0.3,0.1,0.3,0.3
				C619.1,426.4,619,426.5,618.8,426.5"/>
			<path id="path10784" class="st1" d="M619.6,427.1c-0.2,0-0.3-0.1-0.3-0.3c0-0.2,0.1-0.3,0.3-0.3s0.3,0.1,0.3,0.3
				C619.9,427,619.8,427.1,619.6,427.1"/>
			<path id="path10788" class="st1" d="M618.9,427.1c-0.1,0-0.2-0.1-0.2-0.2c0-0.1,0.1-0.2,0.2-0.2s0.2,0.1,0.2,0.2
				C619.1,427,619,427.1,618.9,427.1"/>
			<path id="path10792" class="st1" d="M618.3,427c-0.1,0-0.2-0.1-0.2-0.2c0-0.1,0.1-0.2,0.2-0.2c0.1,0,0.2,0.1,0.2,0.2
				C618.5,426.9,618.4,427,618.3,427"/>
			<path id="path10796" class="st1" d="M618,426.5c-0.1,0-0.2-0.1-0.2-0.2c0-0.1,0.1-0.2,0.2-0.2c0.1,0,0.2,0.1,0.2,0.2
				C618.3,426.4,618.2,426.5,618,426.5"/>
			<path id="path10800" class="st1" d="M617.3,426.4c-0.1,0-0.2-0.1-0.2-0.2s0.1-0.2,0.2-0.2s0.2,0.1,0.2,0.2
				S617.4,426.4,617.3,426.4"/>
			<path id="path10804" class="st1" d="M617.6,426.7c-0.1,0-0.2-0.1-0.2-0.2s0.1-0.2,0.2-0.2s0.2,0.1,0.2,0.2
				S617.7,426.7,617.6,426.7"/>
			<path id="path10808" class="st1" d="M616.7,426.2c-0.1,0-0.2-0.1-0.2-0.2c0-0.1,0.1-0.2,0.2-0.2c0.1,0,0.2,0.1,0.2,0.2
				C616.9,426.1,616.8,426.2,616.7,426.2"/>
			<path id="path10812" class="st1" d="M617,425.9c-0.1,0-0.3-0.1-0.3-0.3s0.1-0.3,0.3-0.3c0.1,0,0.3,0.1,0.3,0.3
				S617.2,425.9,617,425.9"/>
			<path id="path10816" class="st1" d="M616.4,425.8c-0.1,0-0.2-0.1-0.2-0.2c0-0.1,0.1-0.2,0.2-0.2c0.1,0,0.2,0.1,0.2,0.2
				C616.6,425.7,616.5,425.8,616.4,425.8"/>
			<path id="path10820" class="st1" d="M615.9,425.4c-0.1,0-0.1-0.1-0.1-0.1s0.1-0.1,0.1-0.1c0.1,0,0.1,0.1,0.1,0.1
				S616,425.4,615.9,425.4"/>
			<path id="path10824" class="st1" d="M620.6,425.9c-0.3,0-0.5-0.2-0.5-0.5c0-0.3,0.2-0.5,0.5-0.5s0.5,0.2,0.5,0.5
				C621.1,425.7,620.9,425.9,620.6,425.9"/>
			<path id="path10828" class="st1" d="M622.4,424.1c-0.3,0-0.6-0.3-0.6-0.6c0-0.3,0.3-0.6,0.6-0.6c0.3,0,0.6,0.3,0.6,0.6
				C623.1,423.8,622.8,424.1,622.4,424.1"/>
			<path id="path10832" class="st1" d="M623.1,425.2c-0.3,0-0.5-0.2-0.5-0.5c0-0.3,0.2-0.5,0.5-0.5c0.3,0,0.5,0.2,0.5,0.5
				C623.7,424.9,623.4,425.2,623.1,425.2"/>
			<path id="path10836" class="st1" d="M622.3,426.1c-0.3,0-0.5-0.2-0.5-0.5c0-0.3,0.2-0.5,0.5-0.5c0.3,0,0.5,0.2,0.5,0.5
				C622.8,425.9,622.6,426.1,622.3,426.1"/>
			<path id="path10840" class="st1" d="M621.4,426.7c-0.3,0-0.5-0.2-0.5-0.5c0-0.3,0.2-0.5,0.5-0.5c0.3,0,0.5,0.2,0.5,0.5
				C621.9,426.5,621.6,426.7,621.4,426.7"/>
			<path id="path10844" class="st1" d="M620.4,427c-0.2,0-0.4-0.2-0.4-0.4s0.2-0.4,0.4-0.4c0.2,0,0.4,0.2,0.4,0.4
				S620.7,427,620.4,427"/>
			<path id="path10848" class="st1" d="M619.6,426.4c-0.2,0-0.4-0.2-0.4-0.4c0-0.2,0.2-0.4,0.4-0.4c0.2,0,0.4,0.2,0.4,0.4
				C620.1,426.2,619.9,426.4,619.6,426.4"/>
			<path id="path10852" class="st2" d="M619.8,420.7c0-0.4-0.3-0.7-0.7-0.7c-0.4,0-0.7,0.3-0.7,0.7c0,0.4,0.3,0.7,0.7,0.7
				C619.4,421.4,619.8,421.1,619.8,420.7"/>
			<path id="path10856" class="st2" d="M620.6,421.4c-0.3,0-0.6-0.3-0.6-0.6s0.3-0.6,0.6-0.6s0.6,0.3,0.6,0.6
				C621.2,421.1,620.9,421.4,620.6,421.4"/>
			<path id="path10860" class="st2" d="M620.5,420c-0.3,0-0.6-0.3-0.6-0.6c0-0.3,0.3-0.6,0.6-0.6s0.6,0.3,0.6,0.6
				C621.1,419.7,620.8,420,620.5,420"/>
			<path id="path10864" class="st2" d="M621.8,421.5c-0.3,0-0.5-0.2-0.5-0.5c0-0.3,0.2-0.5,0.5-0.5s0.5,0.2,0.5,0.5
				C622.3,421.3,622.1,421.5,621.8,421.5"/>
			<path id="path10868" class="st2" d="M622.7,422c-0.2,0-0.4-0.2-0.4-0.4c0-0.2,0.2-0.4,0.4-0.4s0.4,0.2,0.4,0.4
				C623.1,421.8,622.9,422,622.7,422"/>
			<path id="path10872" class="st2" d="M623.3,422.5c-0.2,0-0.3-0.1-0.3-0.3c0-0.2,0.1-0.3,0.3-0.3s0.3,0.1,0.3,0.3
				C623.6,422.4,623.5,422.5,623.3,422.5"/>
			<path id="path10876" class="st2" d="M623.3,421.3c-0.2,0-0.3-0.1-0.3-0.3c0-0.2,0.1-0.3,0.3-0.3s0.3,0.1,0.3,0.3
				C623.6,421.2,623.5,421.3,623.3,421.3"/>
			<path id="path10880" class="st2" d="M623.4,420.3c-0.2,0-0.3-0.1-0.3-0.3c0-0.2,0.1-0.3,0.3-0.3s0.3,0.1,0.3,0.3
				C623.7,420.2,623.6,420.3,623.4,420.3"/>
			<path id="path10884" class="st2" d="M623.8,420.8c-0.1,0-0.2-0.1-0.2-0.2c0-0.1,0.1-0.2,0.2-0.2c0.1,0,0.2,0.1,0.2,0.2
				C624,420.7,623.9,420.8,623.8,420.8"/>
			<path id="path10888" class="st2" d="M624,421.4c-0.1,0-0.2-0.1-0.2-0.2c0-0.1,0.1-0.2,0.2-0.2s0.2,0.1,0.2,0.2
				C624.2,421.3,624.1,421.4,624,421.4"/>
			<path id="path10892" class="st2" d="M623.7,421.9c-0.1,0-0.2-0.1-0.2-0.2c0-0.1,0.1-0.2,0.2-0.2c0.1,0,0.2,0.1,0.2,0.2
				C623.9,421.8,623.8,421.9,623.7,421.9"/>
			<path id="path10896" class="st2" d="M624,422.6c-0.1,0-0.2-0.1-0.2-0.2s0.1-0.2,0.2-0.2s0.2,0.1,0.2,0.2S624.2,422.6,624,422.6"
				/>
			<path id="path10900" class="st2" d="M624.2,422c-0.1,0-0.2-0.1-0.2-0.2s0.1-0.2,0.2-0.2s0.2,0.1,0.2,0.2S624.3,422,624.2,422"/>
			<path id="path10904" class="st2" d="M624.2,423c-0.1,0-0.2-0.1-0.2-0.2c0-0.1,0.1-0.2,0.2-0.2c0.1,0,0.2,0.1,0.2,0.2
				C624.3,423,624.3,423,624.2,423"/>
			<path id="path10908" class="st2" d="M623.7,423.1c-0.1,0-0.3-0.1-0.3-0.3s0.1-0.3,0.3-0.3c0.1,0,0.3,0.1,0.3,0.3
				S623.8,423.1,623.7,423.1"/>
			<path id="path10912" class="st2" d="M624,423.6c-0.1,0-0.2-0.1-0.2-0.2c0-0.1,0.1-0.2,0.2-0.2c0.1,0,0.2,0.1,0.2,0.2
				C624.2,423.5,624.1,423.6,624,423.6"/>
			<path id="path10916" class="st2" d="M623.9,424.1c-0.1,0-0.1-0.1-0.1-0.1s0.1-0.1,0.1-0.1c0.1,0,0.1,0.1,0.1,0.1
				C624.1,424,624,424.1,623.9,424.1"/>
			<path id="path10920" class="st2" d="M621.7,420.3c-0.3,0-0.5-0.2-0.5-0.5c0-0.3,0.2-0.5,0.5-0.5s0.5,0.2,0.5,0.5
				C622.2,420.1,622,420.3,621.7,420.3"/>
			<path id="path10924" class="st2" d="M619.1,419.9c-0.3,0-0.6-0.3-0.6-0.6c0-0.3,0.3-0.6,0.6-0.6c0.3,0,0.6,0.3,0.6,0.6
				C619.7,419.6,619.4,419.9,619.1,419.9"/>
			<path id="path10928" class="st2" d="M619.8,418.6c-0.3,0-0.5-0.2-0.5-0.5c0-0.3,0.2-0.5,0.5-0.5s0.5,0.2,0.5,0.5
				C620.3,418.3,620.1,418.6,619.8,418.6"/>
			<path id="path10932" class="st2" d="M621,418.7c-0.3,0-0.5-0.2-0.5-0.5c0-0.3,0.2-0.5,0.5-0.5c0.3,0,0.5,0.2,0.5,0.5
				C621.5,418.5,621.3,418.7,621,418.7"/>
			<path id="path10936" class="st2" d="M622,419.2c-0.3,0-0.5-0.2-0.5-0.5c0-0.3,0.2-0.5,0.5-0.5s0.5,0.2,0.5,0.5
				C622.5,419,622.3,419.2,622,419.2"/>
			<path id="path10940" class="st2" d="M622.8,419.8c-0.2,0-0.4-0.2-0.4-0.4s0.2-0.4,0.4-0.4c0.2,0,0.4,0.2,0.4,0.4
				S623.1,419.8,622.8,419.8"/>
			<path id="path10944" class="st2" d="M622.6,420.8c-0.2,0-0.4-0.2-0.4-0.4c0-0.2,0.2-0.4,0.4-0.4c0.2,0,0.4,0.2,0.4,0.4
				C623.1,420.6,622.9,420.8,622.6,420.8"/>
			<path id="path10948" class="st2" d="M616.3,421c-0.2,0-0.4-0.2-0.4-0.4c0-0.2,0.2-0.4,0.4-0.4c0.2,0,0.4,0.2,0.4,0.4
				C616.7,420.8,616.6,421,616.3,421 M615.3,421.3c-0.2,0-0.4-0.2-0.4-0.4s0.2-0.4,0.4-0.4c0.2,0,0.4,0.2,0.4,0.4
				S615.6,421.3,615.3,421.3 M615.2,422.4c-0.3,0-0.5-0.2-0.5-0.5c0-0.3,0.2-0.5,0.5-0.5c0.3,0,0.5,0.2,0.5,0.5
				C615.7,422.2,615.5,422.4,615.2,422.4 M615.3,423.6c-0.3,0-0.5-0.2-0.5-0.5c0-0.3,0.2-0.5,0.5-0.5c0.3,0,0.5,0.2,0.5,0.5
				C615.8,423.4,615.6,423.6,615.3,423.6 M615.7,424.8c-0.3,0-0.5-0.2-0.5-0.5c0-0.3,0.2-0.5,0.5-0.5s0.5,0.2,0.5,0.5
				C616.3,424.5,616,424.8,615.7,424.8 M617.1,424.9c-0.3,0-0.6-0.3-0.6-0.6c0-0.3,0.3-0.6,0.6-0.6c0.3,0,0.6,0.3,0.6,0.6
				C617.7,424.6,617.4,424.9,617.1,424.9 M616.3,422.2c-0.3,0-0.5-0.2-0.5-0.5c0-0.3,0.2-0.5,0.5-0.5c0.3,0,0.5,0.2,0.5,0.5
				C616.8,421.9,616.6,422.2,616.3,422.2 M618.8,417.8c-0.1,0-0.1-0.1-0.1-0.1c0-0.1,0.1-0.1,0.1-0.1c0.1,0,0.1,0.1,0.1,0.1
				C618.9,417.8,618.8,417.8,618.8,417.8 M618.3,418.1c-0.1,0-0.2-0.1-0.2-0.2c0-0.1,0.1-0.2,0.2-0.2c0.1,0,0.2,0.1,0.2,0.2
				C618.5,418,618.4,418.1,618.3,418.1 M617.9,418.7c-0.1,0-0.3-0.1-0.3-0.3c0-0.1,0.1-0.3,0.3-0.3c0.1,0,0.3,0.1,0.3,0.3
				C618.2,418.6,618.1,418.7,617.9,418.7 M617.7,418.2c-0.1,0-0.2-0.1-0.2-0.2c0-0.1,0.1-0.2,0.2-0.2c0.1,0,0.2,0.1,0.2,0.2
				C617.9,418.1,617.8,418.2,617.7,418.2 M616.8,418.7c-0.1,0-0.2-0.1-0.2-0.2s0.1-0.2,0.2-0.2s0.2,0.1,0.2,0.2
				S616.9,418.7,616.8,418.7 M617.3,418.6c-0.1,0-0.2-0.1-0.2-0.2s0.1-0.2,0.2-0.2c0.1,0,0.2,0.1,0.2,0.2S617.4,418.6,617.3,418.6
				 M616.9,419.3c-0.1,0-0.2-0.1-0.2-0.2c0-0.1,0.1-0.2,0.2-0.2c0.1,0,0.2,0.1,0.2,0.2C617.1,419.2,617,419.3,616.9,419.3
				 M616.3,419.2c-0.1,0-0.2-0.1-0.2-0.2s0.1-0.2,0.2-0.2c0.1,0,0.2,0.1,0.2,0.2S616.5,419.2,616.3,419.2 M615.9,419.7
				c-0.1,0-0.2-0.1-0.2-0.2c0-0.1,0.1-0.2,0.2-0.2c0.1,0,0.2,0.1,0.2,0.2C616.2,419.6,616.1,419.7,615.9,419.7 M615.6,420.4
				c-0.2,0-0.3-0.1-0.3-0.3c0-0.2,0.1-0.3,0.3-0.3s0.3,0.1,0.3,0.3C615.9,420.3,615.8,420.4,615.6,420.4 M616.5,420
				c-0.2,0-0.3-0.1-0.3-0.3s0.1-0.3,0.3-0.3c0.2,0,0.3,0.1,0.3,0.3S616.7,420,616.5,420 M617.6,419.4c-0.2,0-0.3-0.1-0.3-0.3
				c0-0.2,0.1-0.3,0.3-0.3c0.2,0,0.3,0.1,0.3,0.3C617.9,419.3,617.8,419.4,617.6,419.4 M617.3,420.4c-0.2,0-0.4-0.2-0.4-0.4
				c0-0.2,0.2-0.4,0.4-0.4c0.2,0,0.4,0.2,0.4,0.4C617.7,420.2,617.6,420.4,617.3,420.4 M617.3,421.5c-0.3,0-0.5-0.2-0.5-0.5
				c0-0.3,0.2-0.5,0.5-0.5c0.3,0,0.5,0.2,0.5,0.5C617.8,421.3,617.6,421.5,617.3,421.5 M616.6,423.5c-0.3,0-0.6-0.3-0.6-0.6
				c0-0.3,0.3-0.6,0.6-0.6c0.3,0,0.6,0.3,0.6,0.6C617.2,423.2,616.9,423.5,616.6,423.5 M617.7,422.8c-0.3,0-0.6-0.3-0.6-0.6
				s0.3-0.6,0.6-0.6s0.6,0.3,0.6,0.6C618.3,422.5,618.1,422.8,617.7,422.8 M618.4,424.2c-0.4,0-0.7-0.3-0.7-0.7
				c0-0.4,0.3-0.7,0.7-0.7c0.4,0,0.7,0.3,0.7,0.7C619.1,423.9,618.8,424.2,618.4,424.2"/>
		</g>
		<g id="g24282">
			<path id="path24168" class="st3" d="M633.7,433.8c0.4,0,0.6,0.3,0.6,0.7v5.9c0,0.4-0.3,0.7-0.6,0.7h-15.9h-12.5
				c-0.4,0-0.7-0.3-0.7-0.7v-5.9c0-0.4,0.3-0.7,0.7-0.7h12.5H633.7z"/>
			<path id="path24192" class="st4" d="M617.8,433.8h15.9c0.4,0,0.6,0.3,0.6,0.7v5.9c0,0.4-0.3,0.7-0.6,0.7h-15.9"/>
			<path id="path24194" class="st5" d="M617.8,441h-12.5c-0.4,0-0.7-0.3-0.7-0.7v-5.9c0-0.4,0.3-0.7,0.7-0.7h12.5"/>
			<path id="path24196" class="st6" d="M617.8,440.8h-12.6c0,0,0.3-1.5,2-2.7c0,0,0.9-0.7,1.5-0.7h9.1V440.8z"/>
			<path id="path24198" class="st7" d="M617.8,440.8h16c0,0-0.3-1.5-2-2.7c0,0-0.9-0.7-1.5-0.7h-12.6V440.8z"/>
			<path id="path24200" class="st0" d="M613.3,434.3c0.1,0,0.3-0.1,0.5-0.1c0.4,0,0.6,0.1,0.7,0.5l2,4.5c-0.1,0-0.3,0.1-0.4,0.1
				c-0.3,0-0.6,0-0.8-0.6l-0.6-1.5l-1.3,2.1c-0.1,0-0.3,0.1-0.4,0.1c-0.5,0-0.7-0.2-1-0.4l-1.3-1.4l1-1.6c0.2-0.3,0.4-0.4,0.8-0.4
				c0.2,0,0.5,0.1,0.6,0.1l-1.2,1.8l0.9,0.9l1.4-2.2L613.3,434.3L613.3,434.3z M610.7,436c0-0.3-0.1-0.5-0.8-0.5c-0.1,0-0.2,0-0.2,0
				v4.4c0,0.3,0.1,0.7,0.8,0.7c0.1,0,0.2,0,0.2,0V436z M609.4,436.6c0-0.6-0.4-1.1-1.2-1.1c-0.6-0.1-1.5,0-1.9,0.1
				c0,0.1,0,0.2,0,0.2c0,0.5,0.3,0.7,0.6,0.7c0.3,0,0.7-0.1,1.1-0.1c0.4,0,0.5,0.1,0.5,0.3s-0.2,0.2-0.4,0.3l-0.8,0.2
				c-0.6,0.1-1,0.6-1,1.1c0,0.6,0.4,1.1,1.2,1.1c0.6,0.1,1.3,0,1.7-0.1c0-0.1,0-0.1,0-0.2c0-0.6-0.3-0.7-0.6-0.7c-0.2,0-0.6,0-0.9,0
				c-0.4,0-0.5-0.1-0.5-0.2c0-0.2,0.2-0.2,0.4-0.2l0.8-0.1C609.1,437.6,609.4,437.2,609.4,436.6L609.4,436.6z"/>
			<path id="path24202" class="st0" d="M621.4,434.9h-1.3c-0.2,0-0.3,0-0.4,0c-0.1,0-0.2,0.1-0.2,0.1c0,0-0.1,0.1-0.1,0.2
				c0,0.1,0,0.2,0,0.2v3.7c0,0.1,0,0.2,0,0.2c0,0.1,0.1,0.1,0.1,0.2c0,0,0.1,0.1,0.2,0.1c0.1,0,0.2,0,0.4,0h1.3c0.4,0,0.7,0,0.9-0.1
				c0.2-0.1,0.5-0.1,0.6-0.2c0.2-0.1,0.3-0.3,0.4-0.4c0.1-0.2,0.1-0.3,0.1-0.5c0-0.2-0.1-0.4-0.2-0.6s-0.4-0.3-0.6-0.4l-0.1,0l0.1,0
				c0.4-0.1,0.6-0.3,0.8-0.4c0.2-0.2,0.2-0.4,0.2-0.6c0-0.5-0.2-0.8-0.6-1C622.7,435,622.1,434.9,621.4,434.9 M620.6,435.8
				L620.6,435.8h0.7c0.4,0,0.6,0,0.8,0.1c0.2,0.1,0.2,0.2,0.2,0.5c0,0.1,0,0.1,0,0.2c0,0.1-0.1,0.1-0.1,0.2c-0.1,0-0.2,0.1-0.3,0.1
				c-0.1,0-0.3,0.1-0.5,0.1h-0.7h0v0L620.6,435.8L620.6,435.8L620.6,435.8z M620.6,437.7L620.6,437.7h0.7c0.2,0,0.3,0,0.4,0
				c0.1,0,0.2,0.1,0.3,0.1c0.1,0,0.1,0.1,0.1,0.2c0,0.1,0,0.1,0,0.2c0,0.2-0.1,0.3-0.2,0.4c-0.2,0.1-0.4,0.1-0.7,0.1h-0.6h0v0
				L620.6,437.7L620.6,437.7L620.6,437.7z"/>
			<path id="path24204" class="st0" d="M625.4,435.9v0.9h1.7c0.4,0,0.6,0.2,0.6,0.7c0,0.1,0,0.2,0,0.3h-2.3v0.9h1.7
				c0.4,0,0.6,0.1,0.6,0.7c0,0.1,0,0.2,0,0.3h-2.6c-0.8,0-0.9-0.4-0.9-0.8v-4v0h3c0.4,0,0.6,0.1,0.6,0.7c0,0.1,0,0.2,0,0.3
				L625.4,435.9L625.4,435.9z"/>
			<path id="path24206" class="st0" d="M631.1,438.8h0.9c0.3,0,0.6,0.1,0.6,0.8c0,0.1,0,0.2,0,0.2H629c-0.3,0-0.6-0.1-0.6-0.8
				c0-0.1,0-0.2,0-0.2h1.5v-3.8c0.1,0,0.2,0,0.3,0c0.7,0,0.9,0.2,0.9,0.6V438.8L631.1,438.8z"/>
		</g>
	</g>
</g>
</svg>
