<?xml version="1.0" encoding="utf-8"?>
<!-- Generator: Adobe Illustrator 25.0.1, SVG Export Plug-In . SVG Version: 6.00 Build 0)  -->
<svg version="1.1" id="Layer_1" xmlns="http://www.w3.org/2000/svg" xmlns:xlink="http://www.w3.org/1999/xlink" x="0px" y="0px"
	 viewBox="0 0 500 500" style="enable-background:new 0 0 500 500;" xml:space="preserve">
<style type="text/css">
	.st0{display:none;fill:#FFFFFF;}
	.st1{display:none;fill:none;stroke:#FFFFFF;stroke-width:0.5621;stroke-miterlimit:10;}
	.st2{fill:#033D83;}
	.st3{fill:#FFFFFF;}
	.st4{fill:#D20535;}
</style>
<g>
	<g>
		<path class="st0" d="M354.1,355.2c-2.2,0-3.9,1.8-3.9,3.9c0,2.2,1.8,3.9,3.9,3.9c2.2,0,3.9-1.8,3.9-3.9S356.2,355.2,354.1,355.2
			 M357.4,359.2c0,1.9-1.5,3.4-3.3,3.4c-1.9,0-3.4-1.5-3.4-3.4c0-1.8,1.5-3.3,3.4-3.3C355.9,355.8,357.4,357.3,357.4,359.2"/>
		<path class="st0" d="M354,360.8c-0.9,0-1.7-0.8-1.7-1.7c0-0.9,0.8-1.7,1.7-1.7c0.7,0,1.2,0.4,1.5,1h0.5c-0.3-0.8-1.1-1.4-2-1.4
			c-1.2,0-2.1,1-2.1,2.1c0,1.2,1,2.1,2.1,2.1c1,0,1.8-0.6,2-1.5h-0.5C355.3,360.4,354.7,360.8,354,360.8"/>
		<path class="st0" d="M364.7,361.5c-0.2,0.1-0.4,0.2-0.7,0.3c-0.3,0.1-0.5,0.1-0.8,0.1s-0.6,0-0.8-0.2c-0.3-0.1-0.5-0.3-0.7-0.5
			c-0.2-0.3-0.4-0.6-0.5-0.9s-0.1-0.7-0.1-1.1s0.1-0.7,0.2-1.1c0.1-0.3,0.3-0.6,0.5-0.9c0.2-0.2,0.4-0.4,0.7-0.6
			c0.3-0.1,0.6-0.2,0.9-0.2c0.2,0,0.5,0,0.7,0.1s0.4,0.2,0.6,0.3l-0.3,0.4c-0.2-0.1-0.3-0.2-0.5-0.2c-0.2-0.1-0.3-0.1-0.5-0.1
			c-0.3,0-0.6,0.1-0.8,0.2c-0.2,0.1-0.4,0.4-0.5,0.7c-0.1,0.2-0.1,0.4-0.2,0.6c0,0.2,0,0.5,0,0.8c0,0.2,0,0.5,0,0.6
			c0,0.2,0.1,0.3,0.1,0.5c0.1,0.3,0.3,0.6,0.6,0.7c0.3,0.2,0.5,0.2,0.8,0.2c0.2,0,0.4,0,0.5-0.1c0.2-0.1,0.3-0.1,0.5-0.3
			L364.7,361.5"/>
		<path class="st0" d="M368.6,359.4c0-0.4,0-0.7-0.1-1c0-0.3-0.1-0.5-0.2-0.7s-0.2-0.4-0.4-0.5c-0.2-0.1-0.4-0.2-0.7-0.2
			c-0.2,0-0.5,0-0.7,0.1s-0.3,0.3-0.4,0.5s-0.2,0.4-0.2,0.6s-0.1,0.5-0.1,0.8c0,0.4,0,0.8,0.1,1.1c0.1,0.3,0.1,0.6,0.2,0.8
			c0.1,0.1,0.1,0.2,0.2,0.2c0.1,0.1,0.2,0.1,0.3,0.2c0.1,0.1,0.2,0.1,0.3,0.1c0.1,0,0.2,0,0.3,0c0.2,0,0.4,0,0.6-0.1
			s0.3-0.2,0.4-0.3c0.1-0.1,0.1-0.2,0.2-0.3c0-0.1,0.1-0.2,0.1-0.3c0-0.1,0.1-0.3,0.1-0.4C368.6,359.8,368.6,359.6,368.6,359.4
			 M369.3,359.3c0,0.5-0.1,0.9-0.2,1.3c-0.1,0.3-0.3,0.6-0.6,0.9c-0.2,0.2-0.4,0.3-0.6,0.4s-0.4,0.1-0.7,0.1c-0.3,0-0.6,0-0.9-0.2
			c-0.2-0.1-0.5-0.3-0.6-0.5c-0.4-0.5-0.6-1.2-0.6-2.1c0-0.4,0.1-0.8,0.2-1.1c0.1-0.3,0.2-0.6,0.4-0.8c0.2-0.2,0.4-0.4,0.7-0.5
			c0.3-0.1,0.5-0.2,0.9-0.2c0.2,0,0.4,0,0.6,0.1c0.2,0,0.3,0.1,0.5,0.2c0.1,0.1,0.3,0.2,0.3,0.3c0.1,0.1,0.2,0.2,0.2,0.3
			c0.2,0.2,0.3,0.5,0.4,0.8C369.3,358.5,369.3,358.9,369.3,359.3"/>
		<path class="st0" d="M373,358.2c0-0.4-0.1-0.7-0.3-0.8c-0.1-0.1-0.2-0.2-0.4-0.2c-0.2-0.1-0.4-0.1-0.6-0.1H371v2.1h0.9
			c0.2,0,0.4,0,0.5-0.1c0.1,0,0.2-0.1,0.3-0.2C372.9,358.7,373,358.5,373,358.2 M373.7,358.1c0,0.3,0,0.5-0.1,0.7s-0.2,0.4-0.4,0.5
			c-0.2,0.2-0.4,0.3-0.6,0.3c-0.2,0.1-0.4,0.1-0.7,0.1H371v2.1h-0.6v-5.2h1.5c0.3,0,0.5,0,0.7,0s0.3,0.1,0.5,0.2
			C373.5,357.1,373.7,357.5,373.7,358.1"/>
		<path class="st0" d="M376.1,359.8v2h-0.6v-2.1l-1.7-3.2h0.8l1,2c0,0.1,0.1,0.2,0.1,0.3c0,0.1,0.1,0.2,0.1,0.2c0,0.1,0,0.1,0,0.1
			c0.1-0.2,0.2-0.4,0.3-0.6l1-2h0.7L376.1,359.8"/>
		<path class="st0" d="M380.8,358c0-0.2,0-0.3-0.1-0.5s-0.2-0.3-0.4-0.3c-0.1,0-0.2-0.1-0.3-0.1c-0.1,0-0.2,0-0.4,0H379v2h0.6
			c0.2,0,0.4,0,0.6-0.1c0.1,0,0.3-0.1,0.4-0.2s0.2-0.2,0.2-0.3C380.8,358.3,380.8,358.2,380.8,358 M381,361.8c0-0.1-0.1-0.2-0.2-0.3
			c-0.1-0.1-0.2-0.3-0.3-0.5c-0.1-0.2-0.2-0.4-0.4-0.6c-0.1-0.2-0.3-0.4-0.5-0.6c0-0.1-0.1-0.1-0.1-0.1l-0.1-0.1
			c-0.1,0-0.1,0-0.1-0.1c-0.1,0-0.1,0-0.2,0v2.4h-0.6v-5.2h1.2c0.2,0,0.3,0,0.5,0c0.1,0,0.3,0,0.4,0.1c0.1,0,0.2,0.1,0.3,0.1
			c0.1,0,0.1,0.1,0.2,0.1s0.1,0.1,0.2,0.2s0.1,0.2,0.2,0.2c0,0.1,0.1,0.2,0.1,0.3c0,0.1,0,0.2,0,0.4c0,0.2,0,0.4-0.1,0.6
			s-0.2,0.3-0.3,0.5c-0.1,0.1-0.3,0.2-0.4,0.3c-0.2,0.1-0.4,0.1-0.6,0.1H380c0.1,0.1,0.2,0.2,0.3,0.3c0.1,0.1,0.2,0.2,0.2,0.3
			c0,0.1,0.1,0.2,0.2,0.3c0.1,0.1,0.2,0.3,0.3,0.5c0.1,0.2,0.2,0.3,0.3,0.5c0.1,0.2,0.2,0.3,0.2,0.4c0.1,0.1,0.1,0.1,0.1,0.2H381
			V361.8z"/>
		<line class="st1" x1="382.9" y1="361.8" x2="382.9" y2="356.6"/>
		<path class="st0" d="M388.1,361.5c-0.2,0.1-0.4,0.2-0.7,0.3c-0.3,0.1-0.5,0.1-0.8,0.1c-0.7,0-1.2-0.2-1.6-0.7
			c-0.2-0.2-0.4-0.5-0.5-0.9c-0.1-0.3-0.2-0.7-0.2-1.2s0.1-0.9,0.2-1.3s0.3-0.7,0.6-0.9c0.4-0.3,0.8-0.5,1.4-0.5s1,0.2,1.4,0.5
			l-0.3,0.4c-0.2-0.2-0.4-0.2-0.6-0.3c-0.2-0.1-0.4-0.1-0.6-0.1c-0.3,0-0.6,0.1-0.8,0.2c-0.2,0.1-0.4,0.4-0.5,0.7
			c-0.1,0.4-0.2,0.8-0.2,1.3c0,0.4,0,0.7,0.1,0.9c0.1,0.3,0.2,0.5,0.3,0.7c0.1,0.1,0.1,0.2,0.2,0.2c0.1,0.1,0.2,0.1,0.3,0.2
			c0.1,0.1,0.2,0.1,0.4,0.1c0.1,0,0.3,0,0.4,0c0.3,0,0.6-0.1,0.8-0.2v-1.6h-1l-0.1-0.5h1.8L388.1,361.5"/>
		<polygon class="st0" points="392.2,361.8 392.2,359.3 390,359.3 390,361.8 389.4,361.8 389.4,356.6 390,356.6 390,358.8 
			392.2,358.8 392.2,356.6 392.8,356.6 392.8,361.8 		"/>
		<polygon class="st0" points="397.1,357.1 395.7,357.1 395.7,361.8 395.1,361.8 395.1,357.1 393.7,357.1 393.7,356.6 397.1,356.6 
					"/>
		<path class="st0" d="M402.2,361.8h-2.9v-0.3c0.1-0.1,0.3-0.2,0.5-0.4c0.2-0.2,0.4-0.4,0.6-0.7c0.2-0.2,0.4-0.5,0.5-0.6
			c0.1-0.2,0.3-0.4,0.4-0.6s0.2-0.3,0.2-0.5c0-0.1,0.1-0.3,0.1-0.4c0-0.3-0.1-0.5-0.3-0.7c-0.2-0.2-0.4-0.3-0.7-0.3
			c-0.1,0-0.2,0-0.3,0c-0.1,0-0.2,0.1-0.3,0.1c-0.1,0-0.2,0.1-0.3,0.1c-0.1,0.1-0.2,0.1-0.3,0.2l-0.3-0.3c0.3-0.3,0.6-0.4,0.8-0.5
			c0.3-0.1,0.5-0.2,0.8-0.2c0.2,0,0.4,0,0.6,0.1s0.3,0.2,0.4,0.3c0.1,0.1,0.2,0.3,0.3,0.4c0.1,0.2,0.1,0.4,0.1,0.6s-0.1,0.4-0.1,0.7
			c-0.1,0.2-0.2,0.5-0.4,0.7c-0.2,0.2-0.4,0.5-0.7,0.8c-0.1,0.1-0.2,0.2-0.4,0.4c-0.1,0.1-0.2,0.2-0.3,0.3c-0.1,0.1-0.2,0.2-0.3,0.2
			c-0.1,0.1-0.1,0.1-0.2,0.1h0.1c0.1,0,0.1,0,0.2,0s0.2,0,0.3,0h1.6L402.2,361.8"/>
		<path class="st0" d="M406.2,359.3c0-0.3,0-0.5,0-0.7s-0.1-0.4-0.1-0.6c-0.1-0.3-0.2-0.5-0.4-0.6c-0.2-0.1-0.4-0.2-0.6-0.2
			c-0.1,0-0.3,0.1-0.4,0.2s-0.3,0.3-0.4,0.5c-0.2,0.3-0.3,0.8-0.3,1.4c0,0.3,0,0.5,0,0.8c0,0.2,0.1,0.4,0.1,0.6
			c0.1,0.3,0.2,0.5,0.4,0.6c0.2,0.2,0.3,0.2,0.5,0.2s0.3-0.1,0.5-0.2s0.3-0.3,0.4-0.5s0.1-0.4,0.2-0.6
			C406.2,359.9,406.2,359.6,406.2,359.3 M406.9,359.3c0,0.4-0.1,0.7-0.1,1.1c-0.1,0.3-0.2,0.6-0.4,0.8c-0.2,0.2-0.3,0.4-0.6,0.5
			c-0.2,0.1-0.5,0.2-0.7,0.2c-0.3,0-0.6-0.1-0.8-0.3c-0.2-0.2-0.4-0.4-0.5-0.7c-0.1-0.3-0.2-0.6-0.3-0.9c-0.1-0.3-0.1-0.6-0.1-0.9
			s0-0.7,0.1-1s0.2-0.6,0.4-0.8c0.2-0.2,0.3-0.4,0.6-0.5c0.2-0.1,0.4-0.2,0.7-0.2c0.2,0,0.4,0,0.6,0.1s0.3,0.2,0.5,0.3
			c0.1,0.1,0.2,0.3,0.3,0.4c0.1,0.2,0.2,0.4,0.2,0.5c0.1,0.2,0.1,0.4,0.1,0.6C406.8,359,406.9,359.1,406.9,359.3"/>
		<path class="st0" d="M411.1,359.3c0,0.4,0,0.7-0.1,1.1c-0.1,0.3-0.2,0.6-0.4,0.8c-0.2,0.2-0.3,0.4-0.6,0.5
			c-0.2,0.1-0.5,0.2-0.7,0.2c-0.3,0-0.6-0.1-0.8-0.3c-0.2-0.2-0.4-0.4-0.5-0.7c-0.1-0.3-0.2-0.6-0.3-0.9c-0.1-0.3-0.1-0.6-0.1-0.9
			s0-0.7,0.1-1s0.2-0.6,0.4-0.8c0.2-0.2,0.4-0.4,0.6-0.5s0.4-0.2,0.7-0.2c0.2,0,0.4,0,0.6,0.1s0.3,0.2,0.5,0.3
			c0.1,0.1,0.2,0.3,0.3,0.4c0.1,0.2,0.2,0.4,0.2,0.5c0.1,0.2,0.1,0.4,0.1,0.6C411.1,359,411.1,359.1,411.1,359.3"/>
	</g>
</g>
<g>
	<path class="st2" d="M308.8,458.1c-2.1-0.7-3.8-1.4-5.2-2.1h0c-2.5-1.3-3.9-2.7-3.9-4.2v-1.3c0-2.5,1.5-3.5,4.2-3.5
		c3.4,0,4.8,1.7,4.8,3.8c0,1.5,1.2,2.5,2.8,2.5h6c1.6,0,2.8-1,2.8-2.5c0-9.2-6.7-12.5-17-12.5c-9.8,0-15.5,3.9-15.5,13.1
		c0,1.7,0.2,3.2,0.5,4.6v0c1.1,4.6,4.3,7.3,10.4,9.5c6.5,2.4,10.4,4,10.4,7.5v1.6c0,2.6-1.8,4.1-4.7,4.1c-4.4,0-5.4-2.3-5.4-5.2
		c0-1.4-1.2-2.6-2.8-2.6h-6.2c-1.6,0-2.8,1.2-2.8,2.6c0.1,10,6.1,13.9,16.8,13.9c10.8,0,17.4-3.5,17.4-13.9
		C321.3,465,317.5,461.1,308.8,458.1z"/>
	<path class="st2" d="M357.5,476.9h-13.3V456v-14.4c0-1.4-1.2-2.6-2.8-2.6h-6.9c-1.6,0-2.8,1.2-2.8,2.6V456v28
		c0,1.4,1.2,2.6,2.8,2.6h23c1.6,0,2.9-1.1,2.9-2.5v-4.7C360.4,478,359.1,476.9,357.5,476.9z"/>
	<path class="st2" d="M493,484l-6.2-28l-3.2-14.4c-0.3-1.4-1.3-2.6-2.9-2.6h-12.2c-1.6,0-2.5,1.2-2.8,2.6l-3.3,14.4l-6.3,28
		c-0.3,1.4,1.3,2.6,2.9,2.6h6.7c1.6,0,2.5-1.2,2.8-2.6l1.1-5.9h9.8l1,5.9c0.3,1.4,1.3,2.6,2.9,2.6h6.8
		C491.8,486.6,493.3,485.5,493,484z M471,469.3l2.4-13.2l1.2-6.8l1.2,6.8l2.3,13.2H471z"/>
	<path class="st2" d="M229.5,456l-3.2-14.4c-0.3-1.4-1.3-2.6-2.9-2.6h-12.2c-1.6,0-2.5,1.2-2.8,2.6l-3.3,14.4l-6.3,28
		c-0.3,1.4,1.3,2.6,2.9,2.6h6.7c1.6,0,2.5-1.2,2.8-2.6l1.1-5.9h9.8l1,5.9c0.3,1.4,1.3,2.6,2.9,2.6h6.8c1.6,0,3.1-1.2,2.8-2.6
		L229.5,456z M213.8,469.3l2.4-13.2l1.2-6.8l1.2,6.8l2.3,13.2H213.8z"/>
	<path class="st2" d="M445.6,460.8h-12c-1.7,0-2.9,1.1-2.9,2.5v4c0,1.4,1.2,2.6,2.9,2.6h2.3v0.7c0,0,0.7,7.7-4.5,7.7
		c-3.5,0-5.2-2-5.2-5.6V456v-2.6c0-3.8,1.6-5.9,5.1-5.9c4.9,0,4.5,4,4.5,4.5c0,1.4,1.2,2.6,2.8,2.6h6.8c1.6,0,2.8-1.2,2.8-2.6
		c0-11-7.8-13.7-16.9-13.7c-13.5,0-17.7,6.9-18,17.7l0,0c0,0.5,0,0.9,0,1.4v10.7c0,12.1,3,19.1,18.1,19.1c13.1,0,17-6.3,17-17.2
		v-6.9C448.4,461.9,447.1,460.8,445.6,460.8z"/>
	<path class="st2" d="M138.5,460.7l2.7-4.6l8.4-14.4c0.7-1.2,0.2-2.6-1.4-2.6h-9.4c-1.6,0-2.1,1.3-2.8,2.6l-7.8,14.4l-0.6,1.2l0-1.2
		l-0.1-14.4c0-1.4-1.2-2.6-2.8-2.6h-7c-1.6,0-2.8,1.2-2.8,2.6V456v28c0,1.4,1.2,2.6,2.8,2.6h6.9c1.6,0,2.9-1.1,2.9-2.5v-20.1l10,20
		c0.6,1.3,1.2,2.6,2.8,2.6h9.4c1.7,0,2.1-1.3,1.5-2.6L138.5,460.7z"/>
	<path class="st2" d="M78.2,476.9H64.1v-10.1h11.1c1.6,0,2.9-1.2,2.9-2.6v-4.5c0-1.4-1.3-2.5-2.9-2.5H64.1V456v-7.7h13.4
		c1.6,0,2.9-1.2,2.9-2.6v-4.4c0-1.4-1.3-2.5-2.9-2.5h-23c-1.6,0-2.8,1.2-2.8,2.6V456v28c0,1.4,1.2,2.6,2.8,2.6h23.8
		c1.6,0,2.9-1.2,2.9-2.6v-4.6C81.1,478,79.8,476.9,78.2,476.9z"/>
	<path class="st2" d="M182.5,460.7l2.7-4.6l8.4-14.4c0.7-1.2,0.2-2.6-1.4-2.6h-9.4c-1.6,0-2.1,1.3-2.8,2.6l-7.8,14.4l-0.6,1.2l0-1.2
		l-0.1-14.4c0-1.4-1.2-2.6-2.8-2.6h-7c-1.6,0-2.8,1.2-2.8,2.6V456v28c0,1.4,1.2,2.6,2.8,2.6h6.9c1.6,0,2.9-1.1,2.9-2.5v-20.1l10,20
		c0.7,1.3,1.2,2.6,2.8,2.6h9.4c1.7,0,2.1-1.3,1.5-2.6L182.5,460.7z"/>
	<path class="st2" d="M399.9,439.1h-7c-1.6,0-2.8,1.2-2.8,2.6V456v28c0,1.4,1.2,2.6,2.8,2.6h6.9c1.6,0,2.9-1.1,2.9-2.5V456v-14.4
		C402.7,440.2,401.5,439.1,399.9,439.1z"/>
	<path class="st2" d="M375.6,439.1h-7c-1.6,0-2.8,1.2-2.8,2.6V456v28c0,1.4,1.2,2.6,2.8,2.6h6.9c1.6,0,2.9-1.1,2.9-2.5V456v-14.4
		C378.4,440.2,377.2,439.1,375.6,439.1z"/>
	<path class="st2" d="M41,439.1h-6.7c-1.7,0-2.6,1.2-2.8,2.6L28.7,456l-3.4,17.4L22.2,456l-2.6-14.4c-0.3-1.4-1.3-2.6-2.9-2.6H9.8
		c-1.7,0-3.2,1.2-2.8,2.6l3.2,14.4l6.2,28c0.3,1.4,1.2,2.6,2.9,2.6h12.2c1.6,0,2.4-1.2,2.8-2.6l6.3-28l3.3-14.4
		C44.1,440.2,42.5,439.1,41,439.1z"/>
	<path class="st2" d="M100.3,439.1h-7c-1.6,0-2.8,1.2-2.8,2.6V456v28c0,1.4,1.2,2.6,2.8,2.6h6.9c1.6,0,2.9-1.1,2.9-2.5V456v-14.4
		C103.1,440.2,101.9,439.1,100.3,439.1z"/>
	<path class="st2" d="M275,439.1h-7c-1.6,0-2.8,1.2-2.8,2.6V456v16.5c0,2.9-0.7,5.3-4.5,5.3c-3.6,0-4.4-2.2-4.4-5V456v-14.4
		c0-1.4-1.2-2.6-2.8-2.6h-7.1c-1.6,0-2.8,1.2-2.8,2.6V456v17.2c0,10.5,6,14.1,17.3,14.1c11,0,16.7-4.1,16.7-14.1V456v-14.4
		C277.8,440.2,276.6,439.1,275,439.1z"/>
	<path class="st2" d="M488.3,44.6c-0.9-4.9-2.1-8-3.6-10.4c-0.4-0.7-0.9-1.4-1.2-1.8c-0.3-0.3-0.6-0.6-0.8-0.8
		c-0.4-0.4-0.2-0.9-0.1-1.3c0.7-2.5,0.2-4-1.1-5.2c-3-2.7-5.6-0.7-6.2-1.1c-0.7-0.5,0.1-3.6-2.5-5c-3.9-2.1-5.6,1.3-6.7,0.8
		c-0.8-0.4,0.3-3.1-3-4.5c-4.6-1.9-5.6,1.6-7,1.2c-1.2-0.3-1-3.2-5-3.9c-4.1-0.7-5.3,1.5-5.7,2.2c-0.5,0.9-1.5,0.9-2,0.8
		c-3-0.5-10.3-0.8-17.7-0.8H257.9h-8h-5.5H74.2c-7.4,0-14.7,0.4-17.7,0.8c-0.5,0.1-1.3,0.1-1.8-0.7c-0.4-0.7-1.8-3-5.8-2.3
		c-3.9,0.7-3.8,3.5-5,3.9c-1.3,0.4-2.4-3.2-7-1.2c-3.3,1.4-2.2,4.1-3,4.5c-1.1,0.5-2.8-2.9-6.7-0.8c-2.6,1.4-1.8,4.5-2.5,5
		c-0.6,0.4-3.2-1.6-6.2,1.1c-1.3,1.2-1.8,2.7-1.1,5.2c0.1,0.4,0.3,0.9-0.1,1.3c-0.2,0.2-0.5,0.5-0.8,0.8c-0.3,0.4-0.8,1.1-1.2,1.8
		c-1.4,2.4-2.6,5.4-3.6,10.4c-0.5,2.6-0.8,11.3,1.2,16.6c1.1,2.7,0.9,2.5,2.2,5.2c5.1,10.5,8.4,17,6.9,31.4
		c-1.4,13.9,3.5,25.8,6.6,30.9c4.1,6.7,9.8,11.1,9.6,9.6c-0.9-6.5-1.8-10-2-14.8c-0.6-19.1,3.6-27.2,6.9-30.9c1.5-1.7,3-2.1,3.2-1.9
		c0.2,0.2,0.3,0.7,0.3,0.7c0.9,4,3.4,15.3,5.7,23.7c2.7,9.7,6.2,27.4,14.1,45.3c8.2,18.4,11.1,21.8,17.5,30.9
		c6.4,9.1,13,17.2,16.4,22.5c4.1,6.5,8.3,16.7,11.9,25.5c2.3,5.5,4.2,9.5,6.4,13.3c-2.5,2.3-6.5,9.1-6.1,12.1
		c0.3,2.3,4.8,7.4,8.3,10.9c4.7,4.8,10.7,9.8,16.5,19.3h0c4.7,7.7,9.3,18.2,13.1,33.8c4.5,18.5,23.1,35.3,38,50.1
		c23.1,22.9,48.3,38.9,57.9,43.9c0,0,2.9,1.7,3.8,1.7c0.9,0,3.8-1.7,3.8-1.7c9.6-5.1,34.8-21,57.9-43.9c14.9-14.8,33.4-31.6,38-50.1
		c3.8-15.6,8.4-26.2,13.1-33.8v0c5.8-9.5,11.8-14.5,16.5-19.3c3.4-3.5,8-8.6,8.3-10.9c0.4-3-3.5-9.8-6-12.1c2.2-3.8,4-7.9,6.3-13.3
		c3.7-8.7,7.8-19,11.9-25.5c3.4-5.3,10.1-13.4,16.5-22.5c6.4-9.1,9.3-12.5,17.5-30.9c7.9-17.9,11.4-35.6,14.1-45.3
		c2.3-8.3,4.8-19.6,5.7-23.7c0,0,0.1-0.5,0.3-0.7c0.2-0.2,1.7,0.2,3.2,1.9c3.3,3.7,7.5,11.8,6.9,30.9c-0.2,4.7-1.1,8.3-2,14.8
		c-0.2,1.5,5.5-2.9,9.6-9.6c3.1-5.1,8.1-17,6.6-30.9c-1.5-14.4,1.8-20.9,6.9-31.4c1.3-2.7,1.1-2.6,2.2-5.2
		C489.2,55.9,488.8,47.2,488.3,44.6z M404.2,121.9c-7.3,15.2-13.2,17.6-21.5,28.9c-9.4,12.7-16.1,26.2-18.8,33.6
		c-1.8,5.1-2.5,8.4-2.7,10.1c-0.1,0.8,0.3,0.9,0.9,0.5c1.6-1,4.6-3.1,7-5.2c2.7-2.4,5.8-5.7,7-7c0.4-0.4,0.4-0.2,0,0.5
		c-1.4,2.8-5.4,10.1-11.3,14.2c-7.4,5.2-18.1,8.8-26.3,18c-8,8.9-13.7,16.2-18.3,26.2c-4.6,10-9.2,17.1-14.2,20.5
		c-14.1,9.5-16.3,16.9-18.4,16.9c-2.3,0-4.4-3.1-5.3-6.2c-1.4-4.5-1.6-8.9-1.9-11.2c-0.4,0.1-1.8,1.7-2.7,2.9
		c-1.2,1.5-2.4,2.9-3.7,4.3c-1.1,1.1-2.2,2.3-3.7,3.5c-1.7,1.4-3,2.4-4.7,3.2c-0.8,0.4-1.3,0.6-2.2,0.8c-2,0.5-4,0.6-5.4,0.5
		c-1.5,0-1.9-0.2-2.1-0.3c-0.7-0.4,1.4-0.1,5.5-0.8c2.6-0.4,5.9-1.7,12.3-9.7c2.8-3.4,4.4-6.6,6.7-10.9c0.9-1.1,2-1.2,2.9-0.7
		c0.3,0.1,0.7,0.3,1.1,0.6c2.5,1.7,5.5,1.8,6,0.8c-1.8-1.4-2.1-9.5,1.1-6.6c2,1.9,9.8-2.5,5.8-10.7c-3.6-7.4,1-22.5,3.8-11.4
		c0.8,3.3,4.7-16.4-1.7-29.1c-1.9-3.8-1.9-11.8-1-17.8c0.6-3.8,1.3-9.4-5-17.8c-5.5-7.2-6.5-7.3-8.9-11.6c-5.9-10.8-10.2-8-19.6-12
		c-4-1.7-9.1,0.5-10.4,2.9c-0.5,0.5-0.8,0.6-1.1,0.3c-1.7-2.2-5.5-6.6-13.3-4.5c-7.2,1.9-6.1,4.6-12.3,6.3c-6.2,1.7-10.7,3.2-14,6.8
		c-4.2,4.7-6.1,12.4-11.3,19.9c-7.5,11-2.8,21.3-2.3,25.1c0.9,6,1.3,8.5-0.7,12.3c-6.4,12.7-4.6,18.8-1.2,19.1
		c2.2,0.2,3.9,5.6,3,9.2c-0.7,2.9-2,3-3.1,2.2c0,0.2,0,0.5,0.2,1c0.8,2.2,4.3,2.6,6.4,1.1c1.6-1.2,2.1-1.5,2.3,0.9
		c0.1,1.4,0.2,2.3-0.4,3.9c-0.6,1.7-1.6,3.2-3.2,4.2c0,0,0.7,1.8,4,2.7c3,0.8,5.7-0.6,7.3-2c0.1-0.1,0.2-0.2,0.5-0.5
		c0.2-0.1,0.3-0.2,0.4-0.2c0.3-0.1,0.7-0.1,0.9,0.1c0.3,0.2,0.6,1,0.6,1c0.4,0.8,0.4,1.1,2.5,5.1c1.8,3.3,3.6,5.8,5.6,8
		c1.4,1.6-0.3,1.5-3.4-1.6c-1.1-1.1-2-1.6-2.7-1.7c-0.1,1.3-0.7,8.3-1.8,12.5c-1,3.7-1.7,6.2-5.1,6.2c-2.1,0-4.3-7.4-18.4-16.9
		c-5.1-3.4-9.7-10.5-14.2-20.5c-4.6-10-10.3-17.3-18.3-26.2c-8.2-9.2-19-12.9-26.3-18c-5.9-4.1-9.9-11.5-11.3-14.2
		c-0.3-0.7-0.3-0.9,0-0.5c1.2,1.3,4.3,4.6,7,7c2.4,2.2,5.4,4.2,7,5.2c0.7,0.4,1.1,0.3,0.9-0.5c-0.2-1.6-0.9-5-2.7-10.1
		c-2.7-7.4-9.4-20.9-18.8-33.6c-8.3-11.2-14.2-13.7-21.5-28.9C79.6,88,81.7,88.3,81.7,88.3s-0.4-0.7,1.5-0.6
		c2.9,0.1,18.9,1.5,24.6,1.6c15,0.9,26.3,1.3,39.1,1.6c15.4,0.4,39.9,0.5,74.5,1.6c4.2,0.1,15.4,0.2,23,0.3l5.6,0l6.9,0
		c7.6,0,17.7-0.1,21.6-0.3c34.6-1.1,59.1-1.2,74.5-1.6c12.8-0.3,24.1-0.7,39.1-1.6c5.7-0.2,21.7-1.6,24.6-1.6
		c1.9-0.1,1.5,0.6,1.5,0.6S420.4,88,404.2,121.9z"/>
	<path class="st3" d="M68,30.5c0,0,114,0.9,182,1c68,0,182-1,182-1s19.4-0.4,28.6,2.4c3.7,1.1,7,2.7,10.6,5.3c2.9,2,6.4,6.4,7.7,8.9
		c2.9,5.8,3.1,10.1,2.2,14.2c-0.9,4.1-2.8,8.5-4.3,13.2c-0.8,2.5-2.3,8-2.4,12.4c-0.8,7.8,1.4,18.6-1.3,23.1
		c-0.3,0.4,1.2-24.2-13.1-34.2c-6.5-4.6-12.2-5.3-19-5.1c-6,0.2-12.8,0.9-22,1.2c-16.1,0.5-113.3,3.9-168.9,3.7
		c-55.7,0.2-152.9-3.2-169-3.7c-9.3-0.3-16-1.1-22-1.2c-6.8-0.2-12.5,0.5-19,5.1c-14.2,10-12.8,34.6-13.1,34.2
		c-2.7-4.5-0.5-15.3-1.3-23.1c-0.2-4.4-1.6-9.9-2.4-12.4c-1.5-4.6-3.4-9.1-4.3-13.2c-0.9-4.1-0.7-8.4,2.2-14.2
		c1.3-2.5,4.8-6.9,7.7-8.9c3.6-2.6,7-4.1,10.6-5.3C48.6,30.1,68,30.5,68,30.5L68,30.5z"/>
	<path class="st4" d="M119.4,43.6c31.6,0.4,89.3,0.7,130.6,0.9c41.3-0.2,99-0.5,130.6-0.9c15.7-0.2,27-0.2,36.1-0.6
		c17.9-0.3,25.1-2,38.2,0.2c7.4,1.3,13.2,5.5,16.9,9.9c4.4,5.2,4.6,10.9,3.7,13.9c-3,7.6-3.2,12-3.2,12c-0.7-2-1.6-10.5-12.6-16.7
		c-3.1-1.7-11.3-4.8-23-3.8c-12.4,1-39.3,1.6-58.4,2.1c-37.5,1-90.8,1.5-128.3,1.8c-37.5-0.4-90.8-0.8-128.3-1.8
		c-19.1-0.5-46-1.1-58.4-2.1c-11.7-0.9-20,2.1-23,3.8c-11,6.2-11.9,14.7-12.6,16.7c0,0-0.2-4.4-3.2-12c-0.9-3-0.7-8.7,3.7-13.9
		c3.7-4.3,9.5-8.6,16.9-9.9c13-2.2,20.3-0.5,38.2-0.2C92.4,43.4,103.7,43.4,119.4,43.6L119.4,43.6z"/>
</g>
</svg>
