<?xml version="1.0" encoding="utf-8"?>
<!-- Generator: Adobe Illustrator 25.0.1, SVG Export Plug-In . SVG Version: 6.00 Build 0)  -->
<svg version="1.1" id="Layer_1" xmlns="http://www.w3.org/2000/svg" xmlns:xlink="http://www.w3.org/1999/xlink" x="0px" y="0px"
	 viewBox="0 0 500 500" style="enable-background:new 0 0 500 500;" xml:space="preserve">
<style type="text/css">
	.st0{display:none;fill:#FFFFFF;}
	.st1{display:none;fill:none;stroke:#FFFFFF;stroke-width:0.5621;stroke-miterlimit:10;}
</style>
<g>
	<g>
		<path class="st0" d="M354.1,355.2c-2.2,0-3.9,1.8-3.9,3.9c0,2.2,1.8,3.9,3.9,3.9c2.2,0,3.9-1.8,3.9-3.9
			C358,357,356.2,355.2,354.1,355.2 M357.4,359.2c0,1.9-1.5,3.4-3.3,3.4c-1.9,0-3.4-1.5-3.4-3.4c0-1.8,1.5-3.3,3.4-3.3
			C355.9,355.8,357.4,357.3,357.4,359.2"/>
		<path class="st0" d="M354,360.8c-0.9,0-1.7-0.8-1.7-1.7c0-0.9,0.8-1.7,1.7-1.7c0.7,0,1.2,0.4,1.5,1h0.5c-0.3-0.8-1.1-1.4-2-1.4
			c-1.2,0-2.1,1-2.1,2.1c0,1.2,1,2.1,2.1,2.1c1,0,1.8-0.6,2-1.5h-0.5C355.3,360.4,354.7,360.8,354,360.8"/>
		<path class="st0" d="M364.7,361.5c-0.2,0.1-0.4,0.2-0.7,0.3c-0.3,0.1-0.5,0.1-0.8,0.1c-0.3,0-0.6,0-0.8-0.2
			c-0.3-0.1-0.5-0.3-0.7-0.5c-0.2-0.3-0.4-0.6-0.5-0.9c-0.1-0.3-0.1-0.7-0.1-1.1c0-0.4,0.1-0.7,0.2-1.1c0.1-0.3,0.3-0.6,0.5-0.9
			c0.2-0.2,0.4-0.4,0.7-0.6c0.3-0.1,0.6-0.2,0.9-0.2c0.2,0,0.5,0,0.7,0.1c0.2,0.1,0.4,0.2,0.6,0.3l-0.3,0.4
			c-0.2-0.1-0.3-0.2-0.5-0.2c-0.2-0.1-0.3-0.1-0.5-0.1c-0.3,0-0.6,0.1-0.8,0.2c-0.2,0.1-0.4,0.4-0.5,0.7c-0.1,0.2-0.1,0.4-0.2,0.6
			c0,0.2,0,0.5,0,0.8c0,0.2,0,0.5,0,0.6c0,0.2,0.1,0.3,0.1,0.5c0.1,0.3,0.3,0.6,0.6,0.7c0.3,0.2,0.5,0.2,0.8,0.2
			c0.2,0,0.4,0,0.5-0.1c0.2-0.1,0.3-0.1,0.5-0.3L364.7,361.5"/>
		<path class="st0" d="M368.6,359.4c0-0.4,0-0.7-0.1-1c0-0.3-0.1-0.5-0.2-0.7c-0.1-0.2-0.2-0.4-0.4-0.5c-0.2-0.1-0.4-0.2-0.7-0.2
			c-0.2,0-0.5,0-0.7,0.1c-0.2,0.1-0.3,0.3-0.4,0.5c-0.1,0.2-0.2,0.4-0.2,0.6c0,0.2-0.1,0.5-0.1,0.8c0,0.4,0,0.8,0.1,1.1
			c0.1,0.3,0.1,0.6,0.2,0.8c0.1,0.1,0.1,0.2,0.2,0.2c0.1,0.1,0.2,0.1,0.3,0.2c0.1,0.1,0.2,0.1,0.3,0.1c0.1,0,0.2,0,0.3,0
			c0.2,0,0.4,0,0.6-0.1c0.2-0.1,0.3-0.2,0.4-0.3c0.1-0.1,0.1-0.2,0.2-0.3c0-0.1,0.1-0.2,0.1-0.3c0-0.1,0.1-0.3,0.1-0.4
			C368.6,359.8,368.6,359.6,368.6,359.4 M369.3,359.3c0,0.5-0.1,0.9-0.2,1.3c-0.1,0.3-0.3,0.6-0.6,0.9c-0.2,0.2-0.4,0.3-0.6,0.4
			c-0.2,0.1-0.4,0.1-0.7,0.1c-0.3,0-0.6,0-0.9-0.2c-0.2-0.1-0.5-0.3-0.6-0.5c-0.4-0.5-0.6-1.2-0.6-2.1c0-0.4,0.1-0.8,0.2-1.1
			c0.1-0.3,0.2-0.6,0.4-0.8c0.2-0.2,0.4-0.4,0.7-0.5c0.3-0.1,0.5-0.2,0.9-0.2c0.2,0,0.4,0,0.6,0.1c0.2,0,0.3,0.1,0.5,0.2
			c0.1,0.1,0.3,0.2,0.3,0.3c0.1,0.1,0.2,0.2,0.2,0.3c0.2,0.2,0.3,0.5,0.4,0.8C369.3,358.5,369.3,358.9,369.3,359.3"/>
		<path class="st0" d="M373,358.2c0-0.4-0.1-0.7-0.3-0.8c-0.1-0.1-0.2-0.2-0.4-0.2c-0.2-0.1-0.4-0.1-0.6-0.1H371v2.1h0.9
			c0.2,0,0.4,0,0.5-0.1c0.1,0,0.2-0.1,0.3-0.2C372.9,358.7,373,358.5,373,358.2 M373.7,358.1c0,0.3,0,0.5-0.1,0.7
			c-0.1,0.2-0.2,0.4-0.4,0.5c-0.2,0.2-0.4,0.3-0.6,0.3c-0.2,0.1-0.4,0.1-0.7,0.1H371v2.1h-0.6v-5.2h1.5c0.3,0,0.5,0,0.7,0
			c0.2,0,0.3,0.1,0.5,0.2C373.5,357.1,373.7,357.5,373.7,358.1"/>
		<path class="st0" d="M376.1,359.8v2h-0.6v-2.1l-1.7-3.2h0.8l1,2c0,0.1,0.1,0.2,0.1,0.3c0,0.1,0.1,0.2,0.1,0.2c0,0.1,0,0.1,0,0.1
			c0.1-0.2,0.2-0.4,0.3-0.6l1-2h0.7L376.1,359.8"/>
		<path class="st0" d="M380.8,358c0-0.2,0-0.3-0.1-0.5c-0.1-0.2-0.2-0.3-0.4-0.3c-0.1,0-0.2-0.1-0.3-0.1c-0.1,0-0.2,0-0.4,0h-0.6v2
			h0.6c0.2,0,0.4,0,0.6-0.1c0.1,0,0.3-0.1,0.4-0.2c0.1-0.1,0.2-0.2,0.2-0.3C380.8,358.3,380.8,358.2,380.8,358 M381,361.8
			c0-0.1-0.1-0.2-0.2-0.3c-0.1-0.1-0.2-0.3-0.3-0.5c-0.1-0.2-0.2-0.4-0.4-0.6c-0.1-0.2-0.3-0.4-0.5-0.6c0-0.1-0.1-0.1-0.1-0.1
			c0,0-0.1-0.1-0.1-0.1c-0.1,0-0.1,0-0.1-0.1c-0.1,0-0.1,0-0.2,0v2.4h-0.6v-5.2h1.2c0.2,0,0.3,0,0.5,0c0.1,0,0.3,0,0.4,0.1
			c0.1,0,0.2,0.1,0.3,0.1c0.1,0,0.1,0.1,0.2,0.1c0.1,0,0.1,0.1,0.2,0.2c0.1,0.1,0.1,0.2,0.2,0.2c0,0.1,0.1,0.2,0.1,0.3
			c0,0.1,0,0.2,0,0.4c0,0.2,0,0.4-0.1,0.6c-0.1,0.2-0.2,0.3-0.3,0.5c-0.1,0.1-0.3,0.2-0.4,0.3c-0.2,0.1-0.4,0.1-0.6,0.1H380
			c0.1,0.1,0.2,0.2,0.3,0.3c0.1,0.1,0.2,0.2,0.2,0.3c0,0.1,0.1,0.2,0.2,0.3c0.1,0.1,0.2,0.3,0.3,0.5c0.1,0.2,0.2,0.3,0.3,0.5
			c0.1,0.2,0.2,0.3,0.2,0.4c0.1,0.1,0.1,0.1,0.1,0.2H381z"/>
		<line class="st1" x1="382.9" y1="361.8" x2="382.9" y2="356.6"/>
		<path class="st0" d="M388.1,361.5c-0.2,0.1-0.4,0.2-0.7,0.3c-0.3,0.1-0.5,0.1-0.8,0.1c-0.7,0-1.2-0.2-1.6-0.7
			c-0.2-0.2-0.4-0.5-0.5-0.9c-0.1-0.3-0.2-0.7-0.2-1.2c0-0.5,0.1-0.9,0.2-1.3c0.1-0.4,0.3-0.7,0.6-0.9c0.4-0.3,0.8-0.5,1.4-0.5
			c0.6,0,1,0.2,1.4,0.5l-0.3,0.4c-0.2-0.2-0.4-0.2-0.6-0.3c-0.2-0.1-0.4-0.1-0.6-0.1c-0.3,0-0.6,0.1-0.8,0.2
			c-0.2,0.1-0.4,0.4-0.5,0.7c-0.1,0.4-0.2,0.8-0.2,1.3c0,0.4,0,0.7,0.1,0.9c0.1,0.3,0.2,0.5,0.3,0.7c0.1,0.1,0.1,0.2,0.2,0.2
			c0.1,0.1,0.2,0.1,0.3,0.2c0.1,0.1,0.2,0.1,0.4,0.1c0.1,0,0.3,0,0.4,0c0.3,0,0.6-0.1,0.8-0.2v-1.6h-1l-0.1-0.5h1.8V361.5"/>
		<polygon class="st0" points="392.2,361.8 392.2,359.3 390,359.3 390,361.8 389.4,361.8 389.4,356.6 390,356.6 390,358.8 
			392.2,358.8 392.2,356.6 392.8,356.6 392.8,361.8 		"/>
		<polygon class="st0" points="397.1,357.1 395.7,357.1 395.7,361.8 395.1,361.8 395.1,357.1 393.7,357.1 393.7,356.6 397.1,356.6 
					"/>
		<path class="st0" d="M402.2,361.8h-2.9v-0.3c0.1-0.1,0.3-0.2,0.5-0.4c0.2-0.2,0.4-0.4,0.6-0.7c0.2-0.2,0.4-0.5,0.5-0.6
			c0.1-0.2,0.3-0.4,0.4-0.6c0.1-0.2,0.2-0.3,0.2-0.5c0-0.1,0.1-0.3,0.1-0.4c0-0.3-0.1-0.5-0.3-0.7c-0.2-0.2-0.4-0.3-0.7-0.3
			c-0.1,0-0.2,0-0.3,0c-0.1,0-0.2,0.1-0.3,0.1c-0.1,0-0.2,0.1-0.3,0.1c-0.1,0.1-0.2,0.1-0.3,0.2l-0.3-0.3c0.3-0.3,0.6-0.4,0.8-0.5
			c0.3-0.1,0.5-0.2,0.8-0.2c0.2,0,0.4,0,0.6,0.1c0.2,0.1,0.3,0.2,0.4,0.3c0.1,0.1,0.2,0.3,0.3,0.4c0.1,0.2,0.1,0.4,0.1,0.6
			c0,0.2-0.1,0.4-0.1,0.7c-0.1,0.2-0.2,0.5-0.4,0.7c-0.2,0.2-0.4,0.5-0.7,0.8c-0.1,0.1-0.2,0.2-0.4,0.4c-0.1,0.1-0.2,0.2-0.3,0.3
			c-0.1,0.1-0.2,0.2-0.3,0.2c-0.1,0.1-0.1,0.1-0.2,0.1h0.1c0.1,0,0.1,0,0.2,0c0.1,0,0.2,0,0.3,0h1.6L402.2,361.8"/>
		<path class="st0" d="M406.2,359.3c0-0.3,0-0.5,0-0.7c0-0.2-0.1-0.4-0.1-0.6c-0.1-0.3-0.2-0.5-0.4-0.6c-0.2-0.1-0.4-0.2-0.6-0.2
			c-0.1,0-0.3,0.1-0.4,0.2c-0.1,0.1-0.3,0.3-0.4,0.5c-0.2,0.3-0.3,0.8-0.3,1.4c0,0.3,0,0.5,0,0.8c0,0.2,0.1,0.4,0.1,0.6
			c0.1,0.3,0.2,0.5,0.4,0.6c0.2,0.2,0.3,0.2,0.5,0.2c0.2,0,0.3-0.1,0.5-0.2c0.2-0.1,0.3-0.3,0.4-0.5c0.1-0.2,0.1-0.4,0.2-0.6
			C406.2,359.9,406.2,359.6,406.2,359.3 M406.9,359.3c0,0.4-0.1,0.7-0.1,1.1c-0.1,0.3-0.2,0.6-0.4,0.8c-0.2,0.2-0.3,0.4-0.6,0.5
			c-0.2,0.1-0.5,0.2-0.7,0.2c-0.3,0-0.6-0.1-0.8-0.3c-0.2-0.2-0.4-0.4-0.5-0.7c-0.1-0.3-0.2-0.6-0.3-0.9c-0.1-0.3-0.1-0.6-0.1-0.9
			c0-0.3,0-0.7,0.1-1c0.1-0.3,0.2-0.6,0.4-0.8c0.2-0.2,0.3-0.4,0.6-0.5c0.2-0.1,0.4-0.2,0.7-0.2c0.2,0,0.4,0,0.6,0.1
			c0.2,0.1,0.3,0.2,0.5,0.3c0.1,0.1,0.2,0.3,0.3,0.4c0.1,0.2,0.2,0.4,0.2,0.5c0.1,0.2,0.1,0.4,0.1,0.6
			C406.8,359,406.9,359.1,406.9,359.3"/>
		<path class="st0" d="M411.1,359.3c0,0.4,0,0.7-0.1,1.1c-0.1,0.3-0.2,0.6-0.4,0.8c-0.2,0.2-0.3,0.4-0.6,0.5
			c-0.2,0.1-0.5,0.2-0.7,0.2c-0.3,0-0.6-0.1-0.8-0.3c-0.2-0.2-0.4-0.4-0.5-0.7c-0.1-0.3-0.2-0.6-0.3-0.9c-0.1-0.3-0.1-0.6-0.1-0.9
			c0-0.3,0-0.7,0.1-1c0.1-0.3,0.2-0.6,0.4-0.8c0.2-0.2,0.4-0.4,0.6-0.5c0.2-0.1,0.4-0.2,0.7-0.2c0.2,0,0.4,0,0.6,0.1
			c0.2,0.1,0.3,0.2,0.5,0.3c0.1,0.1,0.2,0.3,0.3,0.4c0.1,0.2,0.2,0.4,0.2,0.5c0.1,0.2,0.1,0.4,0.1,0.6
			C411.1,359,411.1,359.1,411.1,359.3"/>
	</g>
</g>
<g>
	<path d="M243.9,109c-5.9,0-11.3,0-16.7,0c-5.3,0-10.6,0-16.3,0c1-2.8,1.8-5.1,2.6-7.4c2.9-8.1,5.9-16.2,8.7-24.4
		c0.7-1.9,1.6-2.8,3.6-3.3C240.6,70,255.3,65.9,270,62c13.5-3.7,27-7.3,40.5-11c12.8-3.5,25.5-7,38.3-10.5c3.1-0.8,6.1-1.7,9.2-2.5
		c0.6-0.1,1.2-0.2,2.2-0.3c-6.4,23.7-13,46.9-19.4,70.3c-6.4,23.3-12.9,46.6-19.3,69.9c-6.5,23.4-13,46.7-19.5,70.2
		c-0.7,0.1-1.3,0.2-2,0.2c-10.2,0-20.4,0.1-30.7,0.1c-1.6,0-1.8-0.3-1.4-1.8c1.6-5.9,3.2-11.9,4.9-17.8c2.6-9.4,5.3-18.7,7.8-28.1
		c1.8-6.4,3.4-12.8,5.1-19.2c1.3-4.6,2.7-9.2,4-13.8c1.4-5.3,2.8-10.6,4.2-15.9c1.3-4.7,2.7-9.3,4-14c2-7.4,4-14.9,6.1-22.3
		c1.2-4.4,2.4-8.8,3.6-13.2c1.3-4.7,2.5-9.4,3.8-14.1c0.2-0.7,0.5-1.4,0.8-2.5c-1,0.1-1.7,0.2-2.4,0.4c-8.3,2.1-16.6,4.3-25,6.3
		c-1.5,0.4-2,1.2-2.4,2.5c-1.9,6.8-3.8,13.5-5.7,20.3c-2.1,7.4-4.1,14.7-6.2,22.1c-2.6,9.1-5.3,18.1-7.9,27.2
		c-3.5,12.3-6.8,24.6-10.3,36.8c-2.3,8.1-4.7,16.2-7,24.2c-2.6,9-5,18-7.6,27c-2,7.1-4,14.3-6.1,21.4c-0.6,2-0.4,2.2,1.8,2.2
		c24.5,0,48.9,0,73.4,0c0.3,0,0.6,0,1.2,0.1c-1.1,5.5-2.9,10.7-4.3,16.1c-1.4,5.3-2.9,10.6-4.4,15.8c-1.7,0.5-109.2,0.7-112.2,0.1
		c4.4-16.7,9.4-33.2,14-49.8c4.7-16.6,9.5-33.1,14.2-49.6c4.7-16.6,9.4-33.2,14.2-49.8C234.4,142.5,239.1,126,243.9,109"/>
	<path d="M297.1,332.5v108.6c-0.8,0.1-1.4,0.2-2.1,0.2c-4.3,0-8.7,0-13,0c-2.4,0-2.5-0.1-2.6-2.7c0-3.5,0-7,0-10.5
		c0-0.4-0.1-0.9-0.3-1.9c-0.6,0.8-1,1.2-1.3,1.7c-2.1,4-4.3,8-6.4,12.1c-0.4,0.8-1,1.3-1.9,1.5c-5,1.2-10.1,1.6-15.2,0.7
		c-7.4-1.3-12-5.8-14-12.9c-1-3.6-1.5-7.4-1.5-11.2c0-27.6,0-55.1,0-82.7c0-0.2,0-0.3,0-0.5c0-2.5,0.1-2.6,2.6-2.6
		c4.3,0,8.5,0,12.8,0c0.8,0,1.5,0.1,2.4,0.1c0,0.8,0.1,1.4,0.1,2c0,27.3,0,54.7,0,82c0,1.7,0.2,3.4,0.5,5c0.5,2.6,2.3,4.2,4.9,4.7
		c5.2,1,10.3,0.4,15.2-1.8c1.7-0.8,2-2,2-3.7c0-28,0-56.1,0-84.1c0-0.9,0-1.9,0-2.8c0-0.9,0.4-1.5,1.4-1.5
		C286.2,332.5,291.5,332.5,297.1,332.5"/>
	<path d="M209.1,368.3c0-2.5,0.1-4.9,0-7.2c-0.1-2.6-0.4-5.2-0.7-7.8c-0.2-1.7-0.9-3.3-2.1-4.6c-1.2-1.3-2.7-2.1-4.5-2.1
		c-2.5,0-5-0.2-7.4,0c-3.4,0.3-5.9,2-6.8,5.4c-0.7,2.5-1.4,5.1-1.5,7.7c-0.3,11.9-0.5,23.8-0.6,35.7c0,6,0.2,12.1,0.6,18.1
		c0.2,2.7,0.7,5.4,1.4,8c1,3.6,3.8,5.6,7.5,5.8c2.3,0.1,4.6,0.1,7,0c4.8-0.2,7.2-3,7.9-7.1c1.5-8,1.4-16.2,1.5-24.3
		c0-0.3-0.1-0.6-0.2-1.2h-16.3c0.2-1.2,0.4-2,0.6-2.7c0.9-3,1.9-5.9,2.8-8.8c0.8-2.6,0.8-2.6,3.6-2.6c6.7,0,13.5,0,20.2,0
		c1.8,0,3.7,0,5.7,0c0.1,0.7,0.2,1.2,0.2,1.7c0,7.9,0.1,15.8-0.1,23.7c-0.2,6.5-0.7,12.9-2.3,19.3c-2.3,8.8-8.2,14-16.6,16.5
		c-2.3,0.7-4.9,1-7.3,1c-3.8,0.1-7.6,0.2-11.3-0.5c-10.5-1.9-17.2-8.2-20-18.6c-2-7.5-2.5-15.1-2.5-22.7c-0.1-7-0.2-13.9-0.2-20.9
		c0-5.3-0.1-10.5,0.4-15.8c0.5-6.5,1.4-12.9,4-19c2.1-4.8,5.5-8.4,10-10.9c4.1-2.2,8.4-3.4,13.1-3.3c2.9,0.1,5.7-0.1,8.6,0
		c6.3,0.3,12,2.4,16.4,7.1c2.9,3.1,4.8,6.7,5.2,10.9c0.3,2.9,0.4,5.8,0.5,8.8c0.1,0.9-0.3,1.6-1.1,2.1c-5,2.7-10,5.5-15,8.3
		C209.7,368.3,209.5,368.3,209.1,368.3"/>
	<path d="M328.3,347.9v28.3c2.4,0.4,4.8,0.1,7.1,0.2c2.4,0,4.8,0,7.2,0h7.5c-1.4,5.4-2.9,10.3-4.4,15.5h-17.1
		c-0.6,1.9-0.7,31.3-0.1,34c4.7,0,9.5,0,14.2,0c4.8,0,9.6,0,14.8,0c-1.5,5.4-2.9,10.4-4.4,15.4h-42.3c-0.5-1.7-0.9-102.9-0.3-108.5
		c0.5-0.1,1.1-0.2,1.7-0.2c12.5,0,25.1,0,37.6,0c1.1,0,2,0.1,2.3,1.4c1.1,4.3,2.4,8.5,3.5,12.7c0.1,0.4,0.1,0.7,0.1,1.3H328.3z"/>
	<path d="M103.1,425.5H131c-0.9,3.3-1.7,6.3-2.5,9.3c-0.4,1.6-1,3.3-1.3,4.9c-0.3,1.2-0.9,1.8-2.1,1.7c-0.5,0-1.1,0-1.6,0
		c-11.6,0-23.2,0-34.8,0c-0.8,0-1.7,0-2.3,0c-0.3-0.3-0.3-0.3-0.4-0.4c-0.1-0.1-0.1-0.1-0.1-0.2c-0.1-0.4-0.2-0.8-0.2-1.1
		c0-35.3,0-70.6,0-105.9c0-0.3,0.1-0.6,0.1-0.9c1.7-0.5,14.2-0.7,17.3-0.2V425.5z"/>
	<path d="M388.8,353.4h-15.3c0.6-2.6,1.2-4.9,1.8-7.2c0.1-0.4,0.3-0.7,0.4-1.1c0.1-3.1,2-4.3,4.8-5.2c8.1-2.7,16-5.7,24.1-8.5
		c0.6-0.2,1.2-0.3,1.9-0.4v109.9c-1.8,0.6-15.1,0.7-17.6,0c0-14.4,0-29,0-43.5C388.8,382.9,388.8,368.3,388.8,353.4"/>
	<path d="M155.6,441.2h-17c-0.6-1.8-0.7-106-0.1-108.6h17C156.1,334.4,156.1,438.7,155.6,441.2"/>
</g>
</svg>
