<?xml version="1.0" encoding="utf-8"?>
<!-- Generator: Adobe Illustrator 25.0.1, SVG Export Plug-In . SVG Version: 6.00 Build 0)  -->
<svg version="1.1" id="Layer_1" xmlns="http://www.w3.org/2000/svg" xmlns:xlink="http://www.w3.org/1999/xlink" x="0px" y="0px"
	 viewBox="0 0 500 500" style="enable-background:new 0 0 500 500;" xml:space="preserve">
<style type="text/css">
	.st0{fill:#FFFFFF;}
	.st1{fill:#050505;}
	.st2{fill:#FFCC00;}
	.st3{fill:#D10A11;}
	.st4{fill-rule:evenodd;clip-rule:evenodd;fill:#858585;}
</style>
<g transform="matrix(.65551 0 0 .65551 -161 -451.13)">
	<path class="st0" d="M1006.5,1006.4c0-22.6-12.8-42.2-31.7-51.8c-1.4-1-2.7-1.7-3.6-2c-2.3-1-3.6-1.4-6-2.4c-1.4-0.4-3.7-1-4.5-1.2
		h-0.1c-0.7-0.1-1.6-0.4-2.7-0.6c-2.2-0.3-4.5-0.6-6.6-0.9h-0.3c-1.2-0.1-2.4-0.1-3.9-0.1h-1.4c-1.2,0-2.2,0-3.2,0
		c-0.7,0-1.3,0.1-1.9,0.3L926,829.9l-57.6-0.1l-3.7,28.6c-0.7-8.2-2.7-14-7.3-19.3c-8.2-9.2-17.4-10.2-35.1-10.2c-1.3,0-6.5,0-6.5,0
		c-1.9,0-4.2,0-6.5,0.1c-4.6,0-8.6,0.3-12.1,0.6H797c-4.6,0.6-8.8,2.2-12.4,4.6v-4.8l-104.2-0.1c-15-8.6-30.7-15.8-47.1-21.6
		c-0.3-2.4-0.6-4.9-1-6.9c-1.7-9.9-6.6-18-14.3-23.9c-8.9-6.9-19.1-8.1-38.6-8.1h-1.9c-26.6,0-38.3,1.3-46.1,4.9
		c-9.1,4.3-14.4,10.4-17.4,18.6c-147.4,11.9-263.7,135.7-263.7,286.2c0,54.1,15,104.7,41,147.8c-3,3.6-5.8,6.9-6,7.2l-0.3,0.3
		c-2.9,3.3-10.5,11.8-5.2,21c0.7,1.3,1.6,2.4,2.7,3.5c0.1,4.2,1.3,7.5,3.6,9.6c0.9,1.4,2,3.2,3.9,4.8c0.1,0.1,0.3,0.3,0.4,0.3
		c0.6,2.3,1.7,4.3,3.3,6c2.4,2.7,6,4.3,9.6,4.3c5.2,0,9.6-3.2,11.4-8.1c0.4-0.9,2-2.9,2.9-4.2c1-1.4,2.2-2.9,3-4.3
		c52.7,60.5,130.3,98.7,216.5,98.7c97.3,0,183.5-48.7,235.5-122.9c8.5-3.7,15.5-11.5,17.6-20.4c0.7-3,0.9-6,0.4-8.9
		c21.4-40.3,33.7-86.1,33.7-134.9c0-1.9,0-3.6,0-5.5c7.1-1.6,13.8-3.2,20.9-5.8c11.2-4,16-8.8,18.9-11.7l0.4-0.4
		c0.1,0,0.4,0.1,0.9,0.1c1.3,0.3,2.4,0.4,3.5,0.7c3.3,0.7,6.3,1.3,9.8,1.3c8.2,0,15.7-3.9,25.5-10.7c4.3,4.8,10.8,9.5,20.7,13.1
		c7.1,3,14.8,4.8,22.9,4.8c6.6,0,13.1-1.2,19-3.2c0.3-0.1,0.4-0.1,0.7-0.3c0.3-0.1,0.6-0.3,0.9-0.3c10.4-3.9,17-9.8,19.9-12.7
		C999.7,1037.6,1006.5,1022.8,1006.5,1006.4"/>
	<g>
		<path class="st1" d="M521.1,821.8c0-25,3.3-33.5,15-39.2c6.2-2.9,17.8-3.9,43.3-3.9c19.4,0,26.3,1.4,32.2,5.9
			c5.6,4.3,9.1,10.1,10.4,17.6c0.9,3.7,1.3,10.7,1.6,17c0,3.2,0,8.8,0,14.1c0,22-1.4,28.9-6.2,35.4c-3.7,4.8-5.6,6-13.5,9.4
			c6.3,2.6,10.4,5.6,14.1,10.7c4,5.6,5,12.8,5,30.4l0.3,22.6c0,27.9-1.2,34.3-7.3,41.2c-3.7,4.8-8.5,7.2-16.3,8.8
			c-5,1-13.5,1.6-27.2,1.6c-16.8,0-21.3-0.3-27.2-1.4c-10.7-1.6-17-6.2-20.7-15c-2.9-6.3-3.6-13.2-3.6-33.8l0.1-33.5l44.8,0.1v34.5
			v5.3c0,5.3,2.3,8.2,6.3,8.2c5,0,6.9-3.5,6.9-13.5l0.1-36.4c0-8.1-2.6-10.1-13.2-10.1h-13.1l0.1-38.9h13.1
			c11.9,0,13.2-1.3,13.4-14.4v-17.8c0-9.1-2.2-12.5-6.9-12.5c-2.4,0-4.5,1-5.3,2.9c-0.9,1.9-1.2,3.7-1.2,9.5v19.1l-44.6-0.1
			L521.1,821.8z"/>
		<path class="st1" d="M661.4,992.7h-31.2v-28.5h31.2V992.7z"/>
		<path class="st1" d="M718.1,965.3h19.1v25.5l-51.2-0.1l0.3-151.3h32.1L718.1,965.3z"/>
		<path class="st1" d="M773.7,990.8h-32l0.3-151.3h32L773.7,990.8z"/>
		<path class="st1" d="M854.4,912.4l-0.1,78.6h-13.7l-5.9-11.4c-5.3,8.9-11.7,11.8-25.3,11.8c-13.1,0-18.9-1.7-23.3-7.3
			c-2.9-3.2-4.2-7.6-4.5-15c-0.4-3.9-0.4-8.5-0.3-20.3l0.1-70.4v-13.2c0.3-9.9,1-13.8,3.9-18c2.9-4.2,7.5-6.9,13-7.6
			c3.3-0.4,7.1-0.6,11.2-0.6c2.7-0.1,5.2-0.1,7.6-0.1c3.3,0,3.7,0,5.2,0c17.3,0,22.5,1.2,27.4,6.8c4,4.6,5,10.2,5,24.8v21.4h-32v-18
			c0-4.2-0.1-5.9-0.6-7.2c-0.6-1.6-2.4-2.9-4.2-2.9c-3.3,0-4.6,2.3-4.6,7.2v5.3l-0.1,77c0,6.5,0.3,8.5,1.4,9.6
			c0.7,0.9,1.9,1.3,3.3,1.3c3.5,0,4.6-1.9,4.6-7.3v-3.6v-16.1L818,937l-0.1-24.5L854.4,912.4z"/>
		<path class="st1" d="M892.3,936.3l4.5-58.9l4,58.9H892.3z M904.2,981c5.8-9.6,14.3-15.8,16.8-17.6c0,0,3.7-3,10.1-5.6l-14.5-118
			l-39.2-0.1L858,991H888l2.3-29.9h12.4L904.2,981z"/>
		<path class="st1" d="M441.9,1010.8c-1.4-0.7-2.7-1.6-4.2-2.3c-3.6-2.2-6.8-4.6-8.5-8.6c-1.6-3.6-3.3-7.1-5-10.5
			c-0.6-1.3-1.4-2.3-2.2-3.5c-1.3-1.9-2.6-3.6-3.7-5.6c-0.9-1.3-0.1-3,1.4-3.9c1.3-0.7,2,0.1,2.4,1.2c0.6,1,1,2,1.6,3
			c0.4,0.7,1.2,1.4,1.9,2.2c0.3,0,0.4,0,0.7-0.1c0.4-1.9,0.7-3.9,1.3-5.8c0.6-2.2,1.2-4.2,2-6.2c1-2,6.8-4,8.1-2
			c0.6,1,0.6,2.7,1.2,3.9c0.3,0.6,0.7,2,0.4,2.4c-0.3,0.6-0.7,1.9-1.4,1.9c-1.2,0.1-1.2,0.1-3.2,1.3c-1.2,1-1.2,0.7-1.4,1.6
			c-0.9,2.2,0,1.7,0.6,2.2s1.2,2.3,1.6,2.9c0.6,0.9,1,1.6,1.7,2.3c1.9,2.2,2.6,3.2,0.9,5.5c-2.4,3.2-2.2,6,1.7,7.8c0.1,0,0-0.1,0,0
			c2,2.6,3,5.5,4.5,8.3C443.9,1009.1,442.2,1010.7,441.9,1010.8 M910,1030.5c-6.9-8.6-10.2-16.6-11.1-23.9c-5.9,2-11.9,4.2-17.7,6.8
			c-12.5,5.5-35.3,8.2-57.3,10.1c-6.6,3.9-18.9,13.1-24.8,17.6c-7.8,5.9-7.1,2.7-17.7,2.7c-10.7,0,1.4,0.7,4.5-6.2
			c2-4.8-1-7.6-3.7-10.5c-1.7,0.1-3.5,0.4-5,0.6c-25.8,3.6-32.4,13.4-43,17c-5.9,2-9.9,4.2-14.3,6.5c10.8-1.3,16.4-3.7,20.6-4.6
			c5.5-1,8.3,7.6,0,10.5c-8.3,2.9-19.7,7.3-28.6,10.5c-9.1,3.2-14.4,8.5-23.3,10.9c-9.1,2.4-5.9-4.6-17.7,0
			c-11.7,4.5-26.3,12.7-21.2,4.8c5.2-7.8,9.6-16.1,12.7-17.3c-3.9,0.7-7.9,1.6-11.9,2.4c-2-1.6-4-2.4-6-2.3
			c-9.1,1.2-51.5,13.8-80,11.5l0,0c-0.6-0.1-1.2-0.1-1.6-0.3c-1.3,0.9-2.7,2-4.8,3.6c-6.5,5.5-9.5,2.9-14.4-2.9
			c-4.9-5.9-12.2-11.9-17-13.1c0,0,1.9-0.9,4.5-2c-0.1-0.1-0.3-0.1-0.3-0.3c0,0,0.1,0,0.3,0.1c-0.1-0.1-0.3-0.1-0.4-0.3
			c-0.3-0.3-0.4-0.4-0.7-0.7c-1.6-2.4-1.6-2.2-3.5-6.9c-0.1-1.3-0.1-2.6-0.3-3.9c-0.9-3.3-1.4-5.9-4-13.8
			c18-7.3,42.9-17.7,54.1-22.5c1.7-9.9,9.6-5.3,17.7-3.6c5.9,1.2,26.2,4.2,31.8,7.8l3.2,7.5c1.6,2.2,2.6,2.4,5.5,4.2
			s5.5,2.7,9.1,3.2c2.9-0.3,7.9,0.9,8.9-0.4c3.2-7.6-6.6-4,0.4-9.4c5.8-4.3,2-3.9,1.3-9.8c-0.6-5.9-2.2-2.9-2.2-7.5
			c0-4.9,1.9-3.6-5.9-5c-5-0.1-10.1,0.6-13.1,2.2c-18-6-58-15.1-71.3-12.8c-32.2,5.6-55.9-3.9-78.9,2.4c0-1,0.1-1.9,0.1-2.7
			c-1.6-0.6-2.7,0.3-3.7,1.3c-0.3-1.4-0.3-2.7-0.7-3.7c-1.3-2.6-2.7-5.2-4-7.6c-0.4-0.9-0.6-1.4,0.3-2c1-0.7,1.7-0.1,2.2,0.6
			c0.6,1,0.9,2.3,1.2,3.5c0.4,2.4,2.4,3.6,4.2,5.2c-0.1-2.4-0.6-4.6-1.3-6.8c-0.1-0.6-0.6-2-1.3-2.4c-0.1-0.1,0.1,0.3,0,0
			c1.2-0.4,0.6-0.9,0.9-1.9c-0.3-2.7-0.1-6.2,1-10.4c-1,0.1-2,0-2.4-0.7c-0.6-0.9-1-1.7-2.2-2.2c-1.6-0.6-2.9-1-3.3-1.9
			c-0.1-0.3,0-1.3,0.4-1.6c2.2-1.7,3.2-4,4-6.5c0.1-0.6,0.7-1.2,1.3-1.4c-1.3-2.3-2.3-3.2-0.9-6.9c1.2-3.2-0.3-4.3-1.7-7.1
			c-2.3-4.6-5-7.1-8.9-10.4c-3.3-2.9-5.9-4.8-11.5-4.5c-15.4,0.9-16.7-5-38.3,5c-6.2,2.9-6,7.3-11.5,11.4c-4.6,3.3-5.5,7.6-6,13
			c-0.4,4,1,7.6,1.3,8.9c2.3,7.9,2.3,9.1,4.6,16.8c1.4,5.5,6.9,12.8,9.5,17.8c1.3,2.4,4.5,2.6,6.5,7.1c-0.3,0.4-9.8,6-10.5,6.9
			c-0.4,0.4-0.9,0.9-1.2,1.2c1.3,1.6,2.6,6.3,8.1,6c8.6-0.7,11.5-3,8.8-0.1c-2.7,2.7-10.7,7.1-18.4,10.8c-5.2,2.4-10.8-2.7-10.1-7.2
			c-6.9,6.3-10.1,5.8-16,12.8c-3.3,4-15.7,25.3-20.7,33.1c-2.3,3.5-5,7.2-8.2,11.2c-0.4,0.6-0.9,1-1.4,1.6c4.6-2.3,9.1-4.8,11.7-7.9
			c4.3-5.5,5.3,7.1-3.2,15.1c-6,5.8-24.3,27.8-34.3,39.9c-2.4,5-5,11.5-6.8,18.3c-2,7.8-2.3,12.4-4.8,30.8
			c-0.6,4.2-3.6,10.1-5.3,26.1c-1.9,16.1-5.3,24.9-5.3,24.9s-10.7,12.7-11.4,13.5c-2.3,2.7-5.9,6.5-4.2,9.2c0.9,1.7,2.2,0.3,3.9,2.9
			c1,1.6-0.9,7.3,1.2,8.1c1.9,0.7,0.1,1.6,2.7,3.9c1.7,1.4,3.9,0.7,3.7,3.2c-0.4,5.2,3.7,6.2,4.5,4.2c1.2-3.3,5.3-7.9,7.2-10.9
			c1.7-2.9,2.3-3.2,4.8-6.3c3.2-4.6,0.6-4.9,0.1-9.4c-0.1-2.2-0.9-6.6,5.6-10.5c1.2-1.2-0.3-7.9,0.3-7.3c2.6-8.5,4.9-17.3,8.2-27.6
			c5.9-18.4,9.8-33.1,19.3-48.8c1.4-2.3,3.3-3.6,5.9-4.3c4.5-1.2,14.1,2.9,18.1,1c8.8-4,17-7.9,25.8-12.2c4.6-2.3,9.4-4.5,14-6.8
			c2.2-1,4-1,6.2,0.1c2.7,1.6,5.6,3.2,8.5,4.8c18.9,3.3,36-17,31.7-5.2c-4.5,12.4-7.5,16-0.9,14.7c6.6-1.3,13.8-8.5,14.7,0.4
			c0.9,8.9,2.3,11.1,8.1,11.1s10.7-3.6,8.9,3.6c-1.7,7.1,20,9.4,14.7,20c-2.7,5.5,0.4,8.3,3.3,10.5c4.5,1.6,9.2,2.6,14,2.9
			c3.7,0.3,6.3,1.9,8.8,4.6c1.7,1.9,3.5,3.7,5.5,5.3c0,0,0,0,0.1,0.1c1.9,1.4,3.7,2.9,6,3.9c5.8,4,14.4,10.7,23.6,17.6
			c5.5,5.6,11.2,11.4,16.1,16.3c16.1,16.3,16.1,18,22.2,10.2c19.7,5.3,20.7,12.7,39,6.9c11.4-3.6,7.6-9.2,19.9-11.7
			c40-8.2,34.7-34.7,49.5-26.9c22.7,11.9,32,14.1,46.2,16.7c14.3,2.6,31.4-19.6,12.8-29.1c-18-9.1-27.2-5.5-53-23.9
			c-12.1-8.5-15.5,18.3-50.5,11.8c-4.3,2.3-8.6,4.9,6.8,4.9c2.4,0,15,3,5.9,3.6c-9.1,0.6-15.5,8.1-22.7,6.3s-14.4,0.4-16.7-6.8
			c-2-6,2.4-17.8,3.6-21c-2.3-2-4.5-3.5-5.5-3.3c-2.7,0.1,16.1-20.7,25.2-22.7c2.3-0.4,3.7-3.3,4.5-7.3c11.1-7.5,22-14.5,28.8-19.4
			c19.4-13.8,28.8-22.6,44.5-34.5c15.7-11.8,8.3-6.8,34.8-17.6c26.5-10.8,44.9-11.2,63.6-17.8c18.9-6.8,13.7-14.7,25.5-12.2
			c11.9,2.3,14.1,4.9,32.2-7.9c4.5-3.2,7.8-5,10.7-6.2C910.2,1030.7,910.2,1030.5,910,1030.5"/>
		<path class="st1" d="M965.9,982.6c-2.2,1.6-4.2,3.2-6.2,4.8c-1.2,0.9-2.3,1.4-3.5,2.3c-1.3,0.9-2.4,1.7-3.7,2.6
			c-1.2,0.9-1.4,1.7-0.7,3c0.3,0.3,0.3,0.7,0.4,1.2c0.7,2.6,1.3,5.3,2,7.9c0.3,1,0.7,2,1,3.2c0.3,0.9,0.7,1.9,0.9,2.7
			c0.3,1.2,0.3,2.4,0.4,3.7c0.3,2.2,1.2,2.7,3.2,2.7c2.4,0,5,0.3,7.6,0.4c2.7,0.1,5.5,0.4,8.2,0.4c0.7,0,1.6-0.4,2-1
			c0.7-0.9,1.3-1.9,1.7-2.9c0.6-1.4,1.2-3,1.6-4.5c0.6-1.9,1.2-3.6,1.6-5.5c0.4-1.7,0.7-3.5,1.2-5.2c0.4-1.6,0.4-2.9-0.9-4
			c-0.9-0.9-1.6-1.9-2.4-2.7c-2.4-2.3-4.9-4.6-7.3-6.9c-1.4-1-2.7-2.2-4.6-2.6C967.3,981.9,966.6,982.2,965.9,982.6"/>
		<path class="st1" d="M943.8,960.9c1.2,0,2.4,0,3.7,0.1c1.6,0.3,3.2,0.7,4.8,1c1.4,0.3,10.1,2.4,11.1,1.9c0.9-0.4,5.6,0.6,6-0.7
			c0.1-0.7-1.4-1.4-2.3-1.7c-2.2-0.9-3.2-1.3-5.3-2.2c-0.7-0.3-2.7-0.7-3.5-0.9c-0.6-0.1-1.3-0.3-1.9-0.4c-2.2-0.3-4.2-0.6-6.3-0.9
			c-1-0.1-2-0.1-3-0.1c-1.4,0-2.9,0-4.3,0c-0.3,0-0.7,0.4-0.7,0.6c0.1,1,0.4,2,0.9,2.9C942.8,960.9,943.4,960.9,943.8,960.9"/>
		<path class="st1" d="M990.9,1014.3c-4.8,4.8-10.9,15.1-18.3,14.5c-7.3-0.6-8.6-2-12.8-1.2c-4.2,0.9-5.6,3.3-13.1,5.6
			c-1.3,0.4-2.9,0.6-4.8,0.6c-0.3-1.9-4.5-2.9-4.8-3c-1.6-0.4-6.6-1.7-7.2-1.9c-2-0.7-10.2-3.6-10.8-2.6c-0.3,0.4-0.6,1-0.9,1.4
			c-0.1,0.3-0.4,0.6-0.6,0.9c-0.3-0.1-0.7-0.3-1-0.4c-4-2.3-12.8-10.8-12.7-29.9c2.6,1.4,4.9,3.2,7.6,4.5c1.2,0.6,2,0.3,2.7-0.6
			c2.2-2.2,4.2-4.5,6.3-6.8c1.3-1.4,2.6-2.7,4-4c1.2-1,2.4-1.9,3.6-2.9c0.4-0.4,0.9-1.2,0.7-1.6c-0.4-2-1-4-1.6-6.2
			c-0.3-1.3-0.7-2.4-1-3.7c-0.6-1.7-1-3.5-1.4-5.2c-0.3-1.2-3.2-1.3-6-1.6c-2.2-0.1-4.9-0.6-5.6-0.3c-2.4,1-1.4,0.3-8.3,10.7
			c-5.9,8.9-7.6,21.9-6.8,27.5c1.7,10.1,4,14.8,6.5,19.3c3.3,6.2,7.2,20,35,25.2c20.4,3.9,35.3-5.6,41.7-12.4
			c5.3-5.6,9.4-12.2,10.1-16C992.6,1018.5,995.7,1009.5,990.9,1014.3"/>
		<path class="st1" d="M360.3,1255.4c-2.6-2.2-6.5-2.6-9.4-1l-12.5,7.2c-2.9,1.6-3.6,5-1.2,7.2c0,0,13,15.7,42.8,36.4
			c28.6,20,54.1,29.2,54.1,29.2c2.9,1.6,6.8-0.1,8.2-3l6.2-12.2c1.4-2.9-0.1-6.2-3-7.6c0,0-20.3-6.9-48.9-25.9
			C375.8,1271.8,360.3,1255.4,360.3,1255.4"/>
	</g>
	<path class="st2" d="M714.5,1255.5c2.6-2.2,6.5-2.6,9.4-1l12.5,7.2c2.9,1.6,3.6,5,1.2,7.2c0,0-13,15.7-42.8,36.4
		c-28.6,20-54.1,29.1-54.1,29.1c-2.9,1.6-6.8-0.1-8.2-3l-6.2-12.4c-1.4-2.9,0.1-6.2,3-7.6c0,0,20.3-6.9,49.1-25.9
		C699,1271.8,714.5,1255.5,714.5,1255.5"/>
	<path class="st3" d="M537.5,1328.9c-34.5,0-61.2-7.9-61.2-7.9c-3.3-0.7-6.8,1.3-7.9,4.3l-4.9,13c-1.2,3,0.4,6.2,3.7,6.9
		c0,0,31.2,9.4,70.2,9.4c38.7,0,69.8-9.4,69.8-9.4c3.2-0.7,4.9-3.7,3.7-6.9l-4.9-12.8c-1.2-3-4.8-5-8.1-4.3
		C598.1,1321.2,571.7,1328.9,537.5,1328.9"/>
	<g>
		<path class="st4" d="M789.4,1070.7c1.7,43.3-7.9,87.7-30.4,128.5c4.3,1.3,8.6,2.9,13.7,5.5c4.8,2.3,7.1,5.6,7.9,8.9
			c22.9-41.2,34.5-85.8,35-133c0-5.8-0.3-11.2-0.6-16.8C807.1,1065.7,798.7,1067.7,789.4,1070.7"/>
		<path class="st4" d="M520.9,829v-7.2c0-7.5,0.3-13.5,1-18.3c-14.7,0.9-29.7,2.9-44.5,6.2c-187,41-275.9,258.5-173.5,417.4
			c0.4-0.4,0.7-0.9,0.7-0.9s3.5-8.8,5.3-24.9c0.6-5.3,1.3-9.5,2.2-13c-25-50.1-31.8-104.4-19.4-162.1
			C316.5,914.5,411.9,836.5,520.9,829"/>
	</g>
</g>
</svg>
