<?xml version="1.0" encoding="utf-8"?>
<!-- Generator: Adobe Illustrator 25.0.1, SVG Export Plug-In . SVG Version: 6.00 Build 0)  -->
<svg version="1.1" id="Layer_1" xmlns="http://www.w3.org/2000/svg" xmlns:xlink="http://www.w3.org/1999/xlink" x="0px" y="0px"
	 viewBox="0 0 500 500" style="enable-background:new 0 0 500 500;" xml:space="preserve">
<style type="text/css">
	.st0{fill:#0097D7;}
	.st1{clip-path:url(#SVGID_2_);fill:#FFFFFF;}
	.st2{clip-path:url(#SVGID_2_);}
	.st3{clip-path:url(#SVGID_4_);fill:none;stroke:#FFFFFF;stroke-width:2.7687;}
	.st4{clip-path:url(#SVGID_4_);fill:#FFFFFF;}
	.st5{clip-path:url(#SVGID_4_);fill:none;stroke:#FFFFFF;stroke-width:0.5118;}
	.st6{clip-path:url(#SVGID_6_);fill:none;stroke:#FFFFFF;stroke-width:0.7635;}
	.st7{clip-path:url(#SVGID_10_);}
	.st8{clip-path:url(#SVGID_12_);}
	.st9{clip-path:url(#SVGID_14_);}
	.st10{display:none;clip-path:url(#SVGID_2_);fill:#FFFFFF;}
	.st11{display:none;clip-path:url(#SVGID_2_);fill:none;stroke:#FFFFFF;stroke-width:0.5621;stroke-miterlimit:10;}
</style>
<g>
	<rect x="70.4" y="4.1" class="st0" width="359.8" height="493.1"/>
	<g>
		<defs>
			<rect id="SVGID_1_" x="84.1" y="18" width="331.4" height="474.8"/>
		</defs>
		<clipPath id="SVGID_2_">
			<use xlink:href="#SVGID_1_"  style="overflow:visible;"/>
		</clipPath>
		<rect x="85.7" y="19.5" class="st1" width="328.3" height="328.3"/>
		<g class="st2">
			<defs>
				<polyline id="SVGID_3_" points="84.1,18 84.1,492.8 415.5,492.8 415.5,18 				"/>
			</defs>
			<clipPath id="SVGID_4_">
				<use xlink:href="#SVGID_3_"  style="overflow:visible;"/>
			</clipPath>
			<rect x="85.7" y="19.5" class="st3" width="328.3" height="328.3"/>
			<path class="st4" d="M408.5,467.7c-0.8-1.6-3.4-7.1-6.4-13.7c-3.4-7.6-7.5-16.7-10.1-22.8c-1.8-4.2-2.5-5.9-3-6.9
				c-1.6-2.9-7.6-2.9-9.1,0.2c-0.3,0.6-5.2,11.9-10.4,23.5c-3.3,7.3-6.6,14.8-9,19.7c-3.4,6.7-4.8,7.1-3.6,7.1h1.3h8.3
				c0.6,0-0.9-0.8,1.7-7c0.8-2,4.6-10.7,8-18.8c3.3-7.7,6.3-14.8,6.3-14.8s3.9,8.6,7.8,17.2c0.1,0.2,0.2,0.4,0.3,0.6h-13.2l-2.7,5.9
				h16.1c2.6,0.2,3.4,2,3.4,2l0-0.1c1.5,3.3,2.8,6.2,3.5,7.8c2.9,6.6,4.8,7.1,7.8,7.1c1.3,0,6.2,0,7.1,0
				C413.6,474.7,411.6,473.5,408.5,467.7 M292.7,467.7c-1.1-2.2-5.5-11.6-9.7-21.1c-2.5-5.6-5-11.2-6.8-15.4c-1.8-4.2-2.5-5.9-3-6.9
				c-1.6-2.9-7.5-2.9-9.1,0.2c-0.3,0.6-6.3,14.3-12,27c-2.7,6.1-5.4,12-7.4,16.2c-3.4,6.7-4.8,7.1-3.6,7.1h1.3h8.3
				c0.6,0-0.9-0.8,1.7-7c0.8-1.9,4.2-10,7.5-17.8c3.4-8.1,6.7-15.8,6.7-15.8s2.9,6.4,6.2,13.7c0.6,1.4,1.3,2.8,1.9,4.2h-13.2
				l-2.7,5.9h16c2.6,0.2,3.4,2,3.4,2v-0.1c1.5,3.3,2.8,6.2,3.5,7.8c2.9,6.6,4.8,7.1,7.8,7.1c1.3,0,6.2,0,7.1,0
				C297.8,474.7,295.9,473.5,292.7,467.7 M340.5,468.3L340.5,468.3C340.5,468.3,340.5,468.3,340.5,468.3 M340.5,468.3L340.5,468.3
				c-0.8-0.7-6.3-13.6-10.7-23.7c-2.9-6.7-5.2-12.2-5.2-12.2s-2.3,5.5-5,12.1c-3.9,9.2-8.7,20.8-9.6,23.1c-0.1,0.3-0.2,0.5-0.3,0.8
				H309c0.1,1,0.4,0.7,0.6,0H340.5C340.5,468.3,340.5,468.3,340.5,468.3 M354.1,474.7c0,0-7.3,0-10.4,0h-38.4l0,0h-6.5
				c0,0,1.6-3.2,3.5-7.2c2.8-5.9,6.6-14.8,10.2-22.9c4.4-10.3,8.3-19.5,8.8-20.2c1.9-3,8.7-2.8,10.1-0.2c0.3,0.6,4.7,10.2,9.5,20.9
				C347,459,354.1,474.7,354.1,474.7 M234.2,467.7c-0.7-1.4-2.7-5.6-5.2-11c-3.7-8.1-8.4-18.7-11.3-25.6c-1.8-4.2-2.5-5.9-3-6.9
				c-1.6-2.9-7.6-2.9-9.1,0.2c-0.4,0.8-10.2,23.4-16.8,37.7c-0.9,2-1.8,3.9-2.6,5.5c-3.4,6.7-4.8,7.1-3.6,7.1h1.3h8.1
				c0.6,0-0.7-0.8,1.9-7c0.4-0.9,1.4-3.2,2.6-6.2c4.2-9.9,11.6-27.4,11.6-27.4s6.4,14.1,11,24.3c1.8,3.9,3.3,7.3,4.1,9.2
				c2.9,6.6,4.8,7.1,7.8,7.1c1.3,0,6.2,0,7.1,0C239.3,474.7,237.4,473.5,234.2,467.7 M176.4,467.7c-0.4-0.8-1.3-2.5-2.4-4.9
				c-3.7-7.9-10.4-22.8-14.1-31.6c-1.8-4.2-2.5-5.9-3-6.9c-1.6-2.9-7.6-2.9-9.1,0.2c-0.4,0.8-9,20.5-15.5,34.8
				c-1.5,3.2-2.8,6.1-3.9,8.5c-3.4,6.7-4.8,7.1-3.6,7.1h1.3h8.3c0.6,0-1-0.8,1.7-7c0.4-1,1.6-3.8,3.1-7.3
				c4.3-10,11.1-26.2,11.1-26.2s8.3,18.4,12.8,28.5c1,2.1,1.7,3.9,2.3,5.1c2.9,6.6,4.8,7.1,7.8,7.1c1.3,0,6.2,0,7.1,0
				C181.4,474.7,179.5,473.5,176.4,467.7 M124.2,466.3c-0.2,1.4-0.5,3.6-1,5c-0.8,2.1-2.3,3-6.3,3c-5.3,0-30.2,0-31.7,0
				c-1.7,0,2.1-1.3,2.1-7.3c0-0.5,0-12.8,0-23.2c0-7,0-13.2,0-14.3c0-5.7-3.9-7.2-2.7-7.2h36.5l0.2,0.3c0,0,0,6.2,0,7.3
				c0,1-1.7-3.4-7.7-3.4H99.4c-2.7,0-2.9,3.5-2.9,3.5l0,14.3H111c3.5,0,4.8-2.7,4.8-1.5v8.7c0,0.7-1.1-1.6-4.7-1.6
				c-1.7,0-7.5,0-10.7,0h-0.8c-2.7,0-3,3.4-3,3.4v16.2c0,0,19.2,0,21.5,0C123.4,469.4,124.6,464.3,124.2,466.3"/>
			<path class="st5" d="M408.5,467.7c-0.8-1.6-3.4-7.1-6.4-13.7c-3.4-7.6-7.5-16.7-10.1-22.8c-1.8-4.2-2.5-5.9-3-6.9
				c-1.6-2.9-7.6-2.9-9.1,0.2c-0.3,0.6-5.2,11.9-10.4,23.5c-3.3,7.3-6.6,14.8-9,19.7c-3.4,6.7-4.8,7.1-3.6,7.1h1.3h8.3
				c0.6,0-0.9-0.8,1.7-7c0.8-2,4.6-10.7,8-18.8c3.3-7.7,6.3-14.8,6.3-14.8s3.9,8.6,7.8,17.2c0.1,0.2,0.2,0.4,0.3,0.6h-13.2l-2.7,5.9
				h16.1c2.6,0.2,3.4,2,3.4,2l0-0.1c1.5,3.3,2.8,6.2,3.5,7.8c2.9,6.6,4.8,7.1,7.8,7.1c1.3,0,6.2,0,7.1,0
				C413.6,474.7,411.6,473.5,408.5,467.7z M292.7,467.7c-1.1-2.2-5.5-11.6-9.7-21.1c-2.5-5.6-5-11.2-6.8-15.4
				c-1.8-4.2-2.5-5.9-3-6.9c-1.6-2.9-7.5-2.9-9.1,0.2c-0.3,0.6-6.3,14.3-12,27c-2.7,6.1-5.4,12-7.4,16.2c-3.4,6.7-4.8,7.1-3.6,7.1
				h1.3h8.3c0.6,0-0.9-0.8,1.7-7c0.8-1.9,4.2-10,7.5-17.8c3.4-8.1,6.7-15.8,6.7-15.8s2.9,6.4,6.2,13.7c0.6,1.4,1.3,2.8,1.9,4.2
				h-13.2l-2.7,5.9h16c2.6,0.2,3.4,2,3.4,2v-0.1c1.5,3.3,2.8,6.2,3.5,7.8c2.9,6.6,4.8,7.1,7.8,7.1c1.3,0,6.2,0,7.1,0
				C297.8,474.7,295.9,473.5,292.7,467.7z M340.5,468.3L340.5,468.3C340.5,468.3,340.5,468.3,340.5,468.3z M340.5,468.3L340.5,468.3
				c-0.8-0.7-6.3-13.6-10.7-23.7c-2.9-6.7-5.2-12.2-5.2-12.2s-2.3,5.5-5,12.1c-3.9,9.2-8.7,20.8-9.6,23.1c-0.1,0.3-0.2,0.5-0.3,0.8
				H309c0.1,1,0.4,0.7,0.6,0H340.5C340.5,468.3,340.5,468.3,340.5,468.3z M354.1,474.7c0,0-7.3,0-10.4,0h-38.4l0,0h-6.5
				c0,0,1.6-3.2,3.5-7.2c2.8-5.9,6.6-14.8,10.2-22.9c4.4-10.3,8.3-19.5,8.8-20.2c1.9-3,8.7-2.8,10.1-0.2c0.3,0.6,4.7,10.2,9.5,20.9
				C347,459,354.1,474.7,354.1,474.7z M234.2,467.7c-0.7-1.4-2.7-5.6-5.2-11c-3.7-8.1-8.4-18.7-11.3-25.6c-1.8-4.2-2.5-5.9-3-6.9
				c-1.6-2.9-7.6-2.9-9.1,0.2c-0.4,0.8-10.2,23.4-16.8,37.7c-0.9,2-1.8,3.9-2.6,5.5c-3.4,6.7-4.8,7.1-3.6,7.1h1.3h8.1
				c0.6,0-0.7-0.8,1.9-7c0.4-0.9,1.4-3.2,2.6-6.2c4.2-9.9,11.6-27.4,11.6-27.4s6.4,14.1,11,24.3c1.8,3.9,3.3,7.3,4.1,9.2
				c2.9,6.6,4.8,7.1,7.8,7.1c1.3,0,6.2,0,7.1,0C239.3,474.7,237.4,473.5,234.2,467.7z M176.4,467.7c-0.4-0.8-1.3-2.5-2.4-4.9
				c-3.7-7.9-10.4-22.8-14.1-31.6c-1.8-4.2-2.5-5.9-3-6.9c-1.6-2.9-7.6-2.9-9.1,0.2c-0.4,0.8-9,20.5-15.5,34.8
				c-1.5,3.2-2.8,6.1-3.9,8.5c-3.4,6.7-4.8,7.1-3.6,7.1h1.3h8.3c0.6,0-1-0.8,1.7-7c0.4-1,1.6-3.8,3.1-7.3
				c4.3-10,11.1-26.2,11.1-26.2s8.3,18.4,12.8,28.5c1,2.1,1.7,3.9,2.3,5.1c2.9,6.6,4.8,7.1,7.8,7.1c1.3,0,6.2,0,7.1,0
				C181.4,474.7,179.5,473.5,176.4,467.7z M124.2,466.3c-0.2,1.4-0.5,3.6-1,5c-0.8,2.1-2.3,3-6.3,3c-5.3,0-30.2,0-31.7,0
				c-1.7,0,2.1-1.3,2.1-7.3c0-0.5,0-12.8,0-23.2c0-7,0-13.2,0-14.3c0-5.7-3.9-7.2-2.7-7.2h36.5l0.2,0.3c0,0,0,6.2,0,7.3
				c0,1-1.7-3.4-7.7-3.4H99.4c-2.7,0-2.9,3.5-2.9,3.5l0,14.3H111c3.5,0,4.8-2.7,4.8-1.5v8.7c0,0.7-1.1-1.6-4.7-1.6
				c-1.7,0-7.5,0-10.7,0h-0.8c-2.7,0-3,3.4-3,3.4v16.2c0,0,19.2,0,21.5,0C123.4,469.4,124.6,464.3,124.2,466.3z"/>
		</g>
		<path class="st1" d="M261.7,395.9h-19.4c-1.3,0-2.3-1.1-2.3-2.3v-13.6c0-2.5-2.3-2.5-2.4-2.5h-0.2v16.1c0,2.7,2.2,4.9,4.9,4.9
			h21.9v-0.2C264.2,398.3,264.2,395.9,261.7,395.9 M319.2,377.4h-17c-2.7,0-4.9,2.2-4.9,4.9v16.3h2.6v-16.3c0-1.3,1.1-2.4,2.3-2.4
			h17c1.3,0,2.3,1.1,2.3,2.4v5.5h-19.2v0.2c0,0.1,0,1,0.7,1.7c0.4,0.4,1,0.7,1.8,0.7h16.7v5.7c0,2.5,2.3,2.5,2.4,2.5h0.2v-16.3
			C324.1,379.6,321.9,377.4,319.2,377.4 M272.5,386.7l0,0.2c0,0,0,1,0.7,1.7c0.4,0.4,1,0.7,1.8,0.7h15.9v-0.2c0,0-0.1-2.4-2.6-2.4
			H272.5z M411.5,396h-19.4c-1.3,0-2.4-1.1-2.4-2.3v-11.3c0-1.3,1.1-2.4,2.4-2.4h19.4c0.7,0,1.3-0.2,1.7-0.6
			c0.7-0.7,0.7-1.7,0.7-1.7l0-0.2h-21.8c-2.7,0-4.9,2.2-4.9,4.9v11.3c0,2.7,2.2,4.9,4.9,4.9H414v-0.2C414,398.3,414,396,411.5,396
			 M392.3,386.7v0.2c0,0,0,1,0.7,1.7c0.4,0.4,1,0.7,1.8,0.7h15.9v-0.2c0,0-0.1-2.4-2.6-2.4H392.3z M381.5,379.9v13.8
			c0,1.3-1.1,2.4-2.3,2.4h-16.9c-1.3,0-2.3-1-2.3-2.4v-13.8c0-0.8-0.2-1.4-0.7-1.8c-0.7-0.7-1.7-0.6-1.7-0.6l-0.2,0v16.2
			c0,2.7,2.2,4.9,4.9,4.9h16.9c2.7,0,4.9-2.2,4.9-4.9v-16.3h-0.2C383.8,377.4,381.5,377.5,381.5,379.9 M349.2,386.8h-10.4v0.2
			c0,0,0,2.4,2.5,2.4h7.9c1.3,0,2.3,1.1,2.3,2.3v2c0,1.3-1.1,2.3-2.3,2.3h-16.9c-1.3,0-2.3-1.1-2.3-2.3v-11.3c0-1.3,1.1-2.4,2.3-2.4
			h18.3c0.7,0,1.3-0.2,1.8-0.7c0.7-0.7,0.7-1.7,0.7-1.7v-0.2h-20.8c-2.7,0-4.9,2.2-4.9,4.9v11.3c0,2.7,2.2,4.9,4.9,4.9h16.9
			c2.7,0,4.9-2.2,4.9-4.9v-2C354.1,389,351.9,386.8,349.2,386.8 M179.5,386.7v0.2c0,0,0,1,0.7,1.7c0.4,0.4,1,0.7,1.8,0.7h15.9v-0.2
			c0,0-0.1-2.4-2.6-2.4H179.5z M166.3,377.5h-16.9c-2.7,0-4.9,2.2-4.9,4.9v16.2h0.2c0,0,2.4,0,2.4-2.5v-13.6c0-1.3,1.1-2.4,2.4-2.4
			h16.9c1.3,0,2.3,1.1,2.3,2.4v2c0,1.3-1.1,2.3-2.3,2.3h-16.5v0.2c0,0,0,2.4,2.5,2.4h14c2.7,0,4.9-2.2,4.9-4.9v-2
			C171.2,379.7,169,377.5,166.3,377.5 M138.7,379.9v13.8c0,1.3-1.1,2.4-2.3,2.4h-16.9c-1.3,0-2.4-1-2.4-2.4v-13.8
			c0-0.8-0.2-1.4-0.7-1.8c-0.7-0.7-1.7-0.6-1.7-0.6l-0.2,0v16.2c0,2.7,2.2,4.9,4.9,4.9h16.9c2.7,0,4.9-2.2,4.9-4.9v-16.3h-0.2
			C141,377.4,138.7,377.5,138.7,379.9 M291.7,396h-19.4c-1.3,0-2.4-1.1-2.4-2.3v-11.3c0-1.3,1-2.4,2.4-2.4h19.4
			c0.7,0,1.3-0.2,1.7-0.6c0.7-0.7,0.7-1.7,0.7-1.7l0-0.2h-21.8c-2.7,0-4.9,2.2-4.9,4.9v11.3c0,2.7,2.2,4.9,4.9,4.9h21.9v-0.2
			C294.2,398.3,294.2,396,291.7,396 M84.5,382.4v2c0,2.7,2.2,4.9,4.9,4.9h16.9c1.3,0,2.4,1.1,2.4,2.3v2c0,1.3-1.1,2.3-2.4,2.3H87
			c-2.5,0-2.5,2.3-2.5,2.4v0.2h21.9c2.7,0,4.9-2.2,4.9-4.9v-2c0-2.7-2.2-4.9-4.9-4.9H89.5c-1.3,0-2.3-1-2.3-2.3v-2
			c0-1.3,1-2.4,2.3-2.4h19.4c2.5,0,2.5-2.3,2.5-2.4v-0.2H89.5C86.8,377.5,84.5,379.7,84.5,382.4 M226.3,377.4h-16.9
			c-2.7,0-4.9,2.2-4.9,4.9v16.3h2.6v-16.3c0-1.3,1.1-2.3,2.4-2.3h16.9c1.3,0,2.3,1,2.3,2.3v2.1c0,1.3-1.1,2.4-2.3,2.4h-16.7l0,0.2
			c0,0,0,1,0.7,1.7c0.4,0.4,1,0.7,1.8,0.7h14.2c1.3,0,2.3,1.1,2.3,2.3v4.5c0,2.3,2.3,2.4,2.4,2.4h0.2v-6.9c0-1.4-0.6-2.7-1.6-3.6
			c1-0.9,1.6-2.2,1.6-3.6v-2.1C231.2,379.6,229,377.4,226.3,377.4 M198.8,396h-19.4c-1.3,0-2.3-1.1-2.3-2.3v-11.3
			c0-1.3,1-2.4,2.3-2.4h19.4c0.7,0,1.3-0.2,1.7-0.6c0.7-0.7,0.7-1.7,0.7-1.7l0-0.2h-21.8c-2.7,0-4.9,2.2-4.9,4.9v11.3
			c0,2.7,2.2,4.9,4.9,4.9h21.9v-0.2C201.2,398.3,201.2,396,198.8,396"/>
		<g class="st2">
			<defs>
				<polyline id="SVGID_5_" points="84.1,18 84.1,492.8 415.5,492.8 415.5,18 				"/>
			</defs>
			<clipPath id="SVGID_6_">
				<use xlink:href="#SVGID_5_"  style="overflow:visible;"/>
			</clipPath>
			<path class="st6" d="M261.7,395.9h-19.4c-1.3,0-2.3-1.1-2.3-2.3v-13.6c0-2.5-2.3-2.5-2.4-2.5h-0.2v16.1c0,2.7,2.2,4.9,4.9,4.9
				h21.9v-0.2C264.2,398.3,264.2,395.9,261.7,395.9z M319.2,377.4h-17c-2.7,0-4.9,2.2-4.9,4.9v16.3h2.6v-16.3c0-1.3,1.1-2.4,2.3-2.4
				h17c1.3,0,2.3,1.1,2.3,2.4v5.5h-19.2v0.2c0,0.1,0,1,0.7,1.7c0.4,0.4,1,0.7,1.8,0.7h16.7v5.7c0,2.5,2.3,2.5,2.4,2.5h0.2v-16.3
				C324.1,379.6,321.9,377.4,319.2,377.4z M272.5,386.7l0,0.2c0,0,0,1,0.7,1.7c0.4,0.4,1,0.7,1.8,0.7h15.9v-0.2c0,0-0.1-2.4-2.6-2.4
				H272.5z M411.5,396h-19.4c-1.3,0-2.4-1.1-2.4-2.3v-11.3c0-1.3,1.1-2.4,2.4-2.4h19.4c0.7,0,1.3-0.2,1.7-0.6
				c0.7-0.7,0.7-1.7,0.7-1.7l0-0.2h-21.8c-2.7,0-4.9,2.2-4.9,4.9v11.3c0,2.7,2.2,4.9,4.9,4.9H414v-0.2C414,398.3,414,396,411.5,396z
				 M392.3,386.7v0.2c0,0,0,1,0.7,1.7c0.4,0.4,1,0.7,1.8,0.7h15.9v-0.2c0,0-0.1-2.4-2.6-2.4H392.3z M381.5,379.9v13.8
				c0,1.3-1.1,2.4-2.3,2.4h-16.9c-1.3,0-2.3-1-2.3-2.4v-13.8c0-0.8-0.2-1.4-0.7-1.8c-0.7-0.7-1.7-0.6-1.7-0.6l-0.2,0v16.2
				c0,2.7,2.2,4.9,4.9,4.9h16.9c2.7,0,4.9-2.2,4.9-4.9v-16.3h-0.2C383.8,377.4,381.5,377.5,381.5,379.9z M349.2,386.8h-10.4v0.2
				c0,0,0,2.4,2.5,2.4h7.9c1.3,0,2.3,1.1,2.3,2.3v2c0,1.3-1.1,2.3-2.3,2.3h-16.9c-1.3,0-2.3-1.1-2.3-2.3v-11.3
				c0-1.3,1.1-2.4,2.3-2.4h18.3c0.7,0,1.3-0.2,1.8-0.7c0.7-0.7,0.7-1.7,0.7-1.7v-0.2h-20.8c-2.7,0-4.9,2.2-4.9,4.9v11.3
				c0,2.7,2.2,4.9,4.9,4.9h16.9c2.7,0,4.9-2.2,4.9-4.9v-2C354.1,389,351.9,386.8,349.2,386.8z M179.5,386.7v0.2c0,0,0,1,0.7,1.7
				c0.4,0.4,1,0.7,1.8,0.7h15.9v-0.2c0,0-0.1-2.4-2.6-2.4H179.5z M166.3,377.5h-16.9c-2.7,0-4.9,2.2-4.9,4.9v16.2h0.2
				c0,0,2.4,0,2.4-2.5v-13.6c0-1.3,1.1-2.4,2.4-2.4h16.9c1.3,0,2.3,1.1,2.3,2.4v2c0,1.3-1.1,2.3-2.3,2.3h-16.5v0.2
				c0,0,0,2.4,2.5,2.4h14c2.7,0,4.9-2.2,4.9-4.9v-2C171.2,379.7,169,377.5,166.3,377.5z M138.7,379.9v13.8c0,1.3-1.1,2.4-2.3,2.4
				h-16.9c-1.3,0-2.4-1-2.4-2.4v-13.8c0-0.8-0.2-1.4-0.7-1.8c-0.7-0.7-1.7-0.6-1.7-0.6l-0.2,0v16.2c0,2.7,2.2,4.9,4.9,4.9h16.9
				c2.7,0,4.9-2.2,4.9-4.9v-16.3h-0.2C141,377.4,138.7,377.5,138.7,379.9z M291.7,396h-19.4c-1.3,0-2.4-1.1-2.4-2.3v-11.3
				c0-1.3,1-2.4,2.4-2.4h19.4c0.7,0,1.3-0.2,1.7-0.6c0.7-0.7,0.7-1.7,0.7-1.7l0-0.2h-21.8c-2.7,0-4.9,2.2-4.9,4.9v11.3
				c0,2.7,2.2,4.9,4.9,4.9h21.9v-0.2C294.2,398.3,294.2,396,291.7,396z M84.5,382.4v2c0,2.7,2.2,4.9,4.9,4.9h16.9
				c1.3,0,2.4,1.1,2.4,2.3v2c0,1.3-1.1,2.3-2.4,2.3H87c-2.5,0-2.5,2.3-2.5,2.4v0.2h21.9c2.7,0,4.9-2.2,4.9-4.9v-2
				c0-2.7-2.2-4.9-4.9-4.9H89.5c-1.3,0-2.3-1-2.3-2.3v-2c0-1.3,1-2.4,2.3-2.4h19.4c2.5,0,2.5-2.3,2.5-2.4v-0.2H89.5
				C86.8,377.5,84.5,379.7,84.5,382.4z M226.3,377.4h-16.9c-2.7,0-4.9,2.2-4.9,4.9v16.3h2.6v-16.3c0-1.3,1.1-2.3,2.4-2.3h16.9
				c1.3,0,2.3,1,2.3,2.3v2.1c0,1.3-1.1,2.4-2.3,2.4h-16.7l0,0.2c0,0,0,1,0.7,1.7c0.4,0.4,1,0.7,1.8,0.7h14.2c1.3,0,2.3,1.1,2.3,2.3
				v4.5c0,2.3,2.3,2.4,2.4,2.4h0.2v-6.9c0-1.4-0.6-2.7-1.6-3.6c1-0.9,1.6-2.2,1.6-3.6v-2.1C231.2,379.6,229,377.4,226.3,377.4z
				 M198.8,396h-19.4c-1.3,0-2.3-1.1-2.3-2.3v-11.3c0-1.3,1-2.4,2.3-2.4h19.4c0.7,0,1.3-0.2,1.7-0.6c0.7-0.7,0.7-1.7,0.7-1.7l0-0.2
				h-21.8c-2.7,0-4.9,2.2-4.9,4.9v11.3c0,2.7,2.2,4.9,4.9,4.9h21.9v-0.2C201.2,398.3,201.2,396,198.8,396z"/>
		</g>
		<g class="st2">
			<defs>
				<polyline id="SVGID_7_" points="84.1,18 84.1,492.8 415.5,492.8 415.5,18 				"/>
			</defs>
			<clipPath id="SVGID_8_">
				<use xlink:href="#SVGID_7_"  style="overflow:visible;"/>
			</clipPath>
		</g>
		<g class="st2">
			<defs>
				<polyline id="SVGID_9_" points="70.5,4.1 70.5,363.2 430.1,363.2 430.1,4.1 				"/>
			</defs>
			<clipPath id="SVGID_10_">
				<use xlink:href="#SVGID_9_"  style="overflow:visible;"/>
			</clipPath>
			<g class="st7">
				<defs>
					<path id="SVGID_11_" d="M312.3,340.9v-44.2l-27.9,0c-8.5-10.5-21.4-16.7-35-16.7c-13.5,0-26.5,6.2-35,16.7h-27.8v44.2H92.5
						v-66.6h314.7v66.6H312.3 M221.7,296.6c7.4-7.2,17.4-11.4,27.8-11.4c10.4,0,20.4,4.2,27.8,11.4H221.7z M306.7,340.9H192.4
						l0-38.7h114.4V340.9z M219.6,186.3c1.4,15.2,14.2,27.1,29.8,27.1c15.6,0,28.4-11.9,29.8-27.1h128v30.1H92.5v-30.1H219.6z
						 M273.9,186.3c-1.4,12.3-11.9,21.9-24.6,21.9c-12.7,0-23.1-9.6-24.5-21.9H273.9z M224.8,180.9c1.3-12.5,11.8-22.2,24.6-22.2
						c12.8,0,23.3,9.7,24.6,22.2H224.8z M92.5,150.2h314.7v30.7h-128c-1.3-15.4-14.1-27.4-29.8-27.4c-15.7,0-28.5,12.1-29.8,27.4
						H92.5V150.2z M92.5,26.2h93.9v44l27.9,0c8.5,10.5,21.4,16.7,35,16.7c13.6,0,26.5-6.2,35-16.7h27.8v-44h95.2v66.1H92.5V26.2z
						 M277,70.2c-7.4,7.2-17.4,11.4-27.8,11.4c-10.4,0-20.4-4.2-27.8-11.4H277z M192,26.2h114.4l0,38.4H192V26.2z"/>
				</defs>
				<clipPath id="SVGID_12_">
					<use xlink:href="#SVGID_11_"  style="overflow:visible;"/>
				</clipPath>
				<g class="st8">
					<defs>
						<rect id="SVGID_13_" x="70.4" y="3.9" width="359.7" height="359.2"/>
					</defs>
					<clipPath id="SVGID_14_">
						<use xlink:href="#SVGID_13_"  style="overflow:visible;"/>
					</clipPath>
					<g class="st9">
						<defs>
							<rect id="SVGID_15_" x="70.5" y="4.1" width="359.7" height="359.2"/>
						</defs>
						<clipPath id="SVGID_16_">
							<use xlink:href="#SVGID_15_"  style="overflow:visible;"/>
						</clipPath>
						<g style="clip-path:url(#SVGID_16_);">
							
								<image style="overflow:visible;" width="112" height="111" xlink:href="80ED23C0.jpg"  transform="matrix(3.2118 0 0 3.2359 70.4841 4.0772)">
							</image>
						</g>
					</g>
				</g>
			</g>
		</g>
		<path class="st10" d="M354.1,355.2c-2.2,0-3.9,1.8-3.9,3.9c0,2.2,1.8,3.9,3.9,3.9c2.2,0,3.9-1.8,3.9-3.9
			C358,357,356.2,355.2,354.1,355.2 M357.4,359.2c0,1.9-1.5,3.4-3.3,3.4c-1.9,0-3.4-1.5-3.4-3.4c0-1.8,1.5-3.3,3.4-3.3
			C355.9,355.8,357.4,357.3,357.4,359.2"/>
		<path class="st10" d="M354,360.8c-0.9,0-1.7-0.8-1.7-1.7c0-0.9,0.8-1.7,1.7-1.7c0.7,0,1.2,0.4,1.5,1h0.5c-0.3-0.8-1.1-1.4-2-1.4
			c-1.2,0-2.1,1-2.1,2.1c0,1.2,1,2.1,2.1,2.1c1,0,1.8-0.6,2-1.5h-0.5C355.3,360.4,354.7,360.8,354,360.8"/>
		<path class="st10" d="M364.7,361.5c-0.2,0.1-0.4,0.2-0.7,0.3c-0.3,0.1-0.5,0.1-0.8,0.1c-0.3,0-0.6,0-0.8-0.2
			c-0.3-0.1-0.5-0.3-0.7-0.5c-0.2-0.3-0.4-0.6-0.5-0.9c-0.1-0.3-0.1-0.7-0.1-1.1c0-0.4,0.1-0.7,0.2-1.1c0.1-0.3,0.3-0.6,0.5-0.9
			c0.2-0.2,0.4-0.4,0.7-0.6c0.3-0.1,0.6-0.2,0.9-0.2c0.2,0,0.5,0,0.7,0.1c0.2,0.1,0.4,0.2,0.6,0.3l-0.3,0.4
			c-0.2-0.1-0.3-0.2-0.5-0.2c-0.2-0.1-0.3-0.1-0.5-0.1c-0.3,0-0.6,0.1-0.8,0.2c-0.2,0.1-0.4,0.4-0.5,0.7c-0.1,0.2-0.1,0.4-0.2,0.6
			c0,0.2,0,0.5,0,0.8c0,0.2,0,0.5,0,0.6c0,0.2,0.1,0.3,0.1,0.5c0.1,0.3,0.3,0.6,0.6,0.7c0.3,0.2,0.5,0.2,0.8,0.2
			c0.2,0,0.4,0,0.5-0.1c0.2-0.1,0.3-0.1,0.5-0.3L364.7,361.5"/>
		<path class="st10" d="M368.6,359.4c0-0.4,0-0.7-0.1-1c0-0.3-0.1-0.5-0.2-0.7c-0.1-0.2-0.2-0.4-0.4-0.5c-0.2-0.1-0.4-0.2-0.7-0.2
			c-0.2,0-0.5,0-0.7,0.1c-0.2,0.1-0.3,0.3-0.4,0.5c-0.1,0.2-0.2,0.4-0.2,0.6c0,0.2-0.1,0.5-0.1,0.8c0,0.4,0,0.8,0.1,1.1
			c0.1,0.3,0.1,0.6,0.2,0.8c0.1,0.1,0.1,0.2,0.2,0.2c0.1,0.1,0.2,0.1,0.3,0.2c0.1,0.1,0.2,0.1,0.3,0.1c0.1,0,0.2,0,0.3,0
			c0.2,0,0.4,0,0.6-0.1c0.2-0.1,0.3-0.2,0.4-0.3c0.1-0.1,0.1-0.2,0.2-0.3c0-0.1,0.1-0.2,0.1-0.3c0-0.1,0.1-0.3,0.1-0.4
			C368.6,359.8,368.6,359.6,368.6,359.4 M369.3,359.3c0,0.5-0.1,0.9-0.2,1.3c-0.1,0.3-0.3,0.6-0.6,0.9c-0.2,0.2-0.4,0.3-0.6,0.4
			c-0.2,0.1-0.4,0.1-0.7,0.1c-0.3,0-0.6,0-0.9-0.2c-0.2-0.1-0.5-0.3-0.6-0.5c-0.4-0.5-0.6-1.2-0.6-2.1c0-0.4,0.1-0.8,0.2-1.1
			c0.1-0.3,0.2-0.6,0.4-0.8c0.2-0.2,0.4-0.4,0.7-0.5c0.3-0.1,0.5-0.2,0.9-0.2c0.2,0,0.4,0,0.6,0.1c0.2,0,0.3,0.1,0.5,0.2
			c0.1,0.1,0.3,0.2,0.3,0.3c0.1,0.1,0.2,0.2,0.2,0.3c0.2,0.2,0.3,0.5,0.4,0.8C369.3,358.5,369.3,358.9,369.3,359.3"/>
		<path class="st10" d="M373,358.2c0-0.4-0.1-0.7-0.3-0.8c-0.1-0.1-0.2-0.2-0.4-0.2c-0.2-0.1-0.4-0.1-0.6-0.1H371v2.1h0.9
			c0.2,0,0.4,0,0.5-0.1c0.1,0,0.2-0.1,0.3-0.2C372.9,358.7,373,358.5,373,358.2 M373.7,358.1c0,0.3,0,0.5-0.1,0.7
			c-0.1,0.2-0.2,0.4-0.4,0.5c-0.2,0.2-0.4,0.3-0.6,0.3c-0.2,0.1-0.4,0.1-0.7,0.1H371v2.1h-0.6v-5.2h1.5c0.3,0,0.5,0,0.7,0
			c0.2,0,0.3,0.1,0.5,0.2C373.5,357.1,373.7,357.5,373.7,358.1"/>
		<path class="st10" d="M376.1,359.8v2h-0.6v-2.1l-1.7-3.2h0.8l1,2c0,0.1,0.1,0.2,0.1,0.3c0,0.1,0.1,0.2,0.1,0.2c0,0.1,0,0.1,0,0.1
			c0.1-0.2,0.2-0.4,0.3-0.6l1-2h0.7L376.1,359.8"/>
		<path class="st10" d="M380.8,358c0-0.2,0-0.3-0.1-0.5c-0.1-0.2-0.2-0.3-0.4-0.3c-0.1,0-0.2-0.1-0.3-0.1c-0.1,0-0.2,0-0.4,0h-0.6v2
			h0.6c0.2,0,0.4,0,0.6-0.1c0.1,0,0.3-0.1,0.4-0.2c0.1-0.1,0.2-0.2,0.2-0.3C380.8,358.3,380.8,358.2,380.8,358 M381,361.8
			c0-0.1-0.1-0.2-0.2-0.3c-0.1-0.1-0.2-0.3-0.3-0.5c-0.1-0.2-0.2-0.4-0.4-0.6c-0.1-0.2-0.3-0.4-0.5-0.6c0-0.1-0.1-0.1-0.1-0.1
			c0,0-0.1-0.1-0.1-0.1c-0.1,0-0.1,0-0.1-0.1c-0.1,0-0.1,0-0.2,0v2.4h-0.6v-5.2h1.2c0.2,0,0.3,0,0.5,0c0.1,0,0.3,0,0.4,0.1
			c0.1,0,0.2,0.1,0.3,0.1c0.1,0,0.1,0.1,0.2,0.1c0.1,0,0.1,0.1,0.2,0.2c0.1,0.1,0.1,0.2,0.2,0.2c0,0.1,0.1,0.2,0.1,0.3
			c0,0.1,0,0.2,0,0.4c0,0.2,0,0.4-0.1,0.6c-0.1,0.2-0.2,0.3-0.3,0.5c-0.1,0.1-0.3,0.2-0.4,0.3c-0.2,0.1-0.4,0.1-0.6,0.1H380
			c0.1,0.1,0.2,0.2,0.3,0.3c0.1,0.1,0.2,0.2,0.2,0.3c0,0.1,0.1,0.2,0.2,0.3c0.1,0.1,0.2,0.3,0.3,0.5c0.1,0.2,0.2,0.3,0.3,0.5
			c0.1,0.2,0.2,0.3,0.2,0.4c0.1,0.1,0.1,0.1,0.1,0.2H381z"/>
		<line class="st11" x1="382.9" y1="361.8" x2="382.9" y2="356.6"/>
		<path class="st10" d="M388.1,361.5c-0.2,0.1-0.4,0.2-0.7,0.3c-0.3,0.1-0.5,0.1-0.8,0.1c-0.7,0-1.2-0.2-1.6-0.7
			c-0.2-0.2-0.4-0.5-0.5-0.9c-0.1-0.3-0.2-0.7-0.2-1.2c0-0.5,0.1-0.9,0.2-1.3c0.1-0.4,0.3-0.7,0.6-0.9c0.4-0.3,0.8-0.5,1.4-0.5
			c0.6,0,1,0.2,1.4,0.5l-0.3,0.4c-0.2-0.2-0.4-0.2-0.6-0.3c-0.2-0.1-0.4-0.1-0.6-0.1c-0.3,0-0.6,0.1-0.8,0.2
			c-0.2,0.1-0.4,0.4-0.5,0.7c-0.1,0.4-0.2,0.8-0.2,1.3c0,0.4,0,0.7,0.1,0.9c0.1,0.3,0.2,0.5,0.3,0.7c0.1,0.1,0.1,0.2,0.2,0.2
			c0.1,0.1,0.2,0.1,0.3,0.2c0.1,0.1,0.2,0.1,0.4,0.1c0.1,0,0.3,0,0.4,0c0.3,0,0.6-0.1,0.8-0.2v-1.6h-1l-0.1-0.5h1.8V361.5"/>
		<polygon class="st10" points="392.2,361.8 392.2,359.3 390,359.3 390,361.8 389.4,361.8 389.4,356.6 390,356.6 390,358.8 
			392.2,358.8 392.2,356.6 392.8,356.6 392.8,361.8 		"/>
		<polygon class="st10" points="397.1,357.1 395.7,357.1 395.7,361.8 395.1,361.8 395.1,357.1 393.7,357.1 393.7,356.6 397.1,356.6 
					"/>
		<path class="st10" d="M402.2,361.8h-2.9v-0.3c0.1-0.1,0.3-0.2,0.5-0.4c0.2-0.2,0.4-0.4,0.6-0.7c0.2-0.2,0.4-0.5,0.5-0.6
			c0.1-0.2,0.3-0.4,0.4-0.6c0.1-0.2,0.2-0.3,0.2-0.5c0-0.1,0.1-0.3,0.1-0.4c0-0.3-0.1-0.5-0.3-0.7c-0.2-0.2-0.4-0.3-0.7-0.3
			c-0.1,0-0.2,0-0.3,0c-0.1,0-0.2,0.1-0.3,0.1c-0.1,0-0.2,0.1-0.3,0.1c-0.1,0.1-0.2,0.1-0.3,0.2l-0.3-0.3c0.3-0.3,0.6-0.4,0.8-0.5
			c0.3-0.1,0.5-0.2,0.8-0.2c0.2,0,0.4,0,0.6,0.1c0.2,0.1,0.3,0.2,0.4,0.3c0.1,0.1,0.2,0.3,0.3,0.4c0.1,0.2,0.1,0.4,0.1,0.6
			c0,0.2-0.1,0.4-0.1,0.7c-0.1,0.2-0.2,0.5-0.4,0.7c-0.2,0.2-0.4,0.5-0.7,0.8c-0.1,0.1-0.2,0.2-0.4,0.4c-0.1,0.1-0.2,0.2-0.3,0.3
			c-0.1,0.1-0.2,0.2-0.3,0.2c-0.1,0.1-0.1,0.1-0.2,0.1h0.1c0.1,0,0.1,0,0.2,0c0.1,0,0.2,0,0.3,0h1.6L402.2,361.8"/>
		<path class="st10" d="M406.2,359.3c0-0.3,0-0.5,0-0.7c0-0.2-0.1-0.4-0.1-0.6c-0.1-0.3-0.2-0.5-0.4-0.6c-0.2-0.1-0.4-0.2-0.6-0.2
			c-0.1,0-0.3,0.1-0.4,0.2c-0.1,0.1-0.3,0.3-0.4,0.5c-0.2,0.3-0.3,0.8-0.3,1.4c0,0.3,0,0.5,0,0.8c0,0.2,0.1,0.4,0.1,0.6
			c0.1,0.3,0.2,0.5,0.4,0.6c0.2,0.2,0.3,0.2,0.5,0.2c0.2,0,0.3-0.1,0.5-0.2c0.2-0.1,0.3-0.3,0.4-0.5c0.1-0.2,0.1-0.4,0.2-0.6
			C406.2,359.9,406.2,359.6,406.2,359.3 M406.9,359.3c0,0.4-0.1,0.7-0.1,1.1c-0.1,0.3-0.2,0.6-0.4,0.8c-0.2,0.2-0.3,0.4-0.6,0.5
			c-0.2,0.1-0.5,0.2-0.7,0.2c-0.3,0-0.6-0.1-0.8-0.3c-0.2-0.2-0.4-0.4-0.5-0.7c-0.1-0.3-0.2-0.6-0.3-0.9c-0.1-0.3-0.1-0.6-0.1-0.9
			c0-0.3,0-0.7,0.1-1c0.1-0.3,0.2-0.6,0.4-0.8c0.2-0.2,0.3-0.4,0.6-0.5c0.2-0.1,0.4-0.2,0.7-0.2c0.2,0,0.4,0,0.6,0.1
			c0.2,0.1,0.3,0.2,0.5,0.3c0.1,0.1,0.2,0.3,0.3,0.4c0.1,0.2,0.2,0.4,0.2,0.5c0.1,0.2,0.1,0.4,0.1,0.6
			C406.8,359,406.9,359.1,406.9,359.3"/>
		<path class="st10" d="M411.1,359.3c0,0.4,0,0.7-0.1,1.1c-0.1,0.3-0.2,0.6-0.4,0.8c-0.2,0.2-0.3,0.4-0.6,0.5
			c-0.2,0.1-0.5,0.2-0.7,0.2c-0.3,0-0.6-0.1-0.8-0.3c-0.2-0.2-0.4-0.4-0.5-0.7c-0.1-0.3-0.2-0.6-0.3-0.9c-0.1-0.3-0.1-0.6-0.1-0.9
			c0-0.3,0-0.7,0.1-1c0.1-0.3,0.2-0.6,0.4-0.8c0.2-0.2,0.4-0.4,0.6-0.5c0.2-0.1,0.4-0.2,0.7-0.2c0.2,0,0.4,0,0.6,0.1
			c0.2,0.1,0.3,0.2,0.5,0.3c0.1,0.1,0.2,0.3,0.3,0.4c0.1,0.2,0.2,0.4,0.2,0.5c0.1,0.2,0.1,0.4,0.1,0.6
			C411.1,359,411.1,359.1,411.1,359.3"/>
	</g>
</g>
</svg>
