<?xml version="1.0" encoding="utf-8"?>
<!-- Generator: Adobe Illustrator 25.0.1, SVG Export Plug-In . SVG Version: 6.00 Build 0)  -->
<svg version="1.1" id="Layer_1" xmlns="http://www.w3.org/2000/svg" xmlns:xlink="http://www.w3.org/1999/xlink" x="0px" y="0px"
	 viewBox="0 0 500 500" style="enable-background:new 0 0 500 500;" xml:space="preserve">
<style type="text/css">
	.st0{display:none;fill:#FFFFFF;}
	.st1{display:none;fill:none;stroke:#FFFFFF;stroke-width:0.5621;stroke-miterlimit:10;}
	.st2{clip-path:url(#SVGID_2_);}
	.st3{fill:#231F20;}
	.st4{fill:url(#path2324_1_);}
	.st5{clip-path:url(#SVGID_4_);}
	.st6{fill:#FFFFFF;}
	.st7{clip-path:url(#SVGID_6_);}
	.st8{clip-path:url(#SVGID_8_);}
	.st9{clip-path:url(#SVGID_10_);}
	.st10{clip-path:url(#SVGID_12_);}
	.st11{clip-path:url(#SVGID_14_);}
	.st12{clip-path:url(#SVGID_16_);}
	.st13{clip-path:url(#SVGID_18_);}
	.st14{clip-path:url(#SVGID_20_);}
	.st15{clip-path:url(#SVGID_22_);}
	.st16{clip-path:url(#SVGID_24_);}
	.st17{clip-path:url(#SVGID_26_);}
	.st18{fill:#5A5758;}
	.st19{fill:url(#path2496_1_);}
</style>
<g>
	<g>
		<path class="st0" d="M354.1,355.2c-2.2,0-3.9,1.8-3.9,3.9c0,2.2,1.8,3.9,3.9,3.9c2.2,0,3.9-1.8,3.9-3.9
			C358,357,356.2,355.2,354.1,355.2 M357.4,359.2c0,1.9-1.5,3.4-3.3,3.4c-1.9,0-3.4-1.5-3.4-3.4c0-1.8,1.5-3.3,3.4-3.3
			C355.9,355.8,357.4,357.3,357.4,359.2"/>
		<path class="st0" d="M354,360.8c-0.9,0-1.7-0.8-1.7-1.7c0-0.9,0.8-1.7,1.7-1.7c0.7,0,1.2,0.4,1.5,1h0.5c-0.3-0.8-1.1-1.4-2-1.4
			c-1.2,0-2.1,1-2.1,2.1c0,1.2,1,2.1,2.1,2.1c1,0,1.8-0.6,2-1.5h-0.5C355.3,360.4,354.7,360.8,354,360.8"/>
		<path class="st0" d="M364.7,361.5c-0.2,0.1-0.4,0.2-0.7,0.3c-0.3,0.1-0.5,0.1-0.8,0.1c-0.3,0-0.6,0-0.8-0.2
			c-0.3-0.1-0.5-0.3-0.7-0.5c-0.2-0.3-0.4-0.6-0.5-0.9c-0.1-0.3-0.1-0.7-0.1-1.1c0-0.4,0.1-0.7,0.2-1.1c0.1-0.3,0.3-0.6,0.5-0.9
			c0.2-0.2,0.4-0.4,0.7-0.6c0.3-0.1,0.6-0.2,0.9-0.2c0.2,0,0.5,0,0.7,0.1c0.2,0.1,0.4,0.2,0.6,0.3l-0.3,0.4
			c-0.2-0.1-0.3-0.2-0.5-0.2c-0.2-0.1-0.3-0.1-0.5-0.1c-0.3,0-0.6,0.1-0.8,0.2c-0.2,0.1-0.4,0.4-0.5,0.7c-0.1,0.2-0.1,0.4-0.2,0.6
			c0,0.2,0,0.5,0,0.8c0,0.2,0,0.5,0,0.6c0,0.2,0.1,0.3,0.1,0.5c0.1,0.3,0.3,0.6,0.6,0.7c0.3,0.2,0.5,0.2,0.8,0.2
			c0.2,0,0.4,0,0.5-0.1c0.2-0.1,0.3-0.1,0.5-0.3L364.7,361.5"/>
		<path class="st0" d="M368.6,359.4c0-0.4,0-0.7-0.1-1c0-0.3-0.1-0.5-0.2-0.7c-0.1-0.2-0.2-0.4-0.4-0.5c-0.2-0.1-0.4-0.2-0.7-0.2
			c-0.2,0-0.5,0-0.7,0.1c-0.2,0.1-0.3,0.3-0.4,0.5c-0.1,0.2-0.2,0.4-0.2,0.6c0,0.2-0.1,0.5-0.1,0.8c0,0.4,0,0.8,0.1,1.1
			c0.1,0.3,0.1,0.6,0.2,0.8c0.1,0.1,0.1,0.2,0.2,0.2c0.1,0.1,0.2,0.1,0.3,0.2c0.1,0.1,0.2,0.1,0.3,0.1c0.1,0,0.2,0,0.3,0
			c0.2,0,0.4,0,0.6-0.1c0.2-0.1,0.3-0.2,0.4-0.3c0.1-0.1,0.1-0.2,0.2-0.3c0-0.1,0.1-0.2,0.1-0.3c0-0.1,0.1-0.3,0.1-0.4
			C368.6,359.8,368.6,359.6,368.6,359.4 M369.3,359.3c0,0.5-0.1,0.9-0.2,1.3c-0.1,0.3-0.3,0.6-0.6,0.9c-0.2,0.2-0.4,0.3-0.6,0.4
			c-0.2,0.1-0.4,0.1-0.7,0.1c-0.3,0-0.6,0-0.9-0.2c-0.2-0.1-0.5-0.3-0.6-0.5c-0.4-0.5-0.6-1.2-0.6-2.1c0-0.4,0.1-0.8,0.2-1.1
			c0.1-0.3,0.2-0.6,0.4-0.8c0.2-0.2,0.4-0.4,0.7-0.5c0.3-0.1,0.5-0.2,0.9-0.2c0.2,0,0.4,0,0.6,0.1c0.2,0,0.3,0.1,0.5,0.2
			c0.1,0.1,0.3,0.2,0.3,0.3c0.1,0.1,0.2,0.2,0.2,0.3c0.2,0.2,0.3,0.5,0.4,0.8C369.3,358.5,369.3,358.9,369.3,359.3"/>
		<path class="st0" d="M373,358.2c0-0.4-0.1-0.7-0.3-0.8c-0.1-0.1-0.2-0.2-0.4-0.2c-0.2-0.1-0.4-0.1-0.6-0.1H371v2.1h0.9
			c0.2,0,0.4,0,0.5-0.1c0.1,0,0.2-0.1,0.3-0.2C372.9,358.7,373,358.5,373,358.2 M373.7,358.1c0,0.3,0,0.5-0.1,0.7
			c-0.1,0.2-0.2,0.4-0.4,0.5c-0.2,0.2-0.4,0.3-0.6,0.3c-0.2,0.1-0.4,0.1-0.7,0.1H371v2.1h-0.6v-5.2h1.5c0.3,0,0.5,0,0.7,0
			c0.2,0,0.3,0.1,0.5,0.2C373.5,357.1,373.7,357.5,373.7,358.1"/>
		<path class="st0" d="M376.1,359.8v2h-0.6v-2.1l-1.7-3.2h0.8l1,2c0,0.1,0.1,0.2,0.1,0.3c0,0.1,0.1,0.2,0.1,0.2c0,0.1,0,0.1,0,0.1
			c0.1-0.2,0.2-0.4,0.3-0.6l1-2h0.7L376.1,359.8"/>
		<path class="st0" d="M380.8,358c0-0.2,0-0.3-0.1-0.5c-0.1-0.2-0.2-0.3-0.4-0.3c-0.1,0-0.2-0.1-0.3-0.1c-0.1,0-0.2,0-0.4,0h-0.6v2
			h0.6c0.2,0,0.4,0,0.6-0.1c0.1,0,0.3-0.1,0.4-0.2c0.1-0.1,0.2-0.2,0.2-0.3C380.8,358.3,380.8,358.2,380.8,358 M381,361.8
			c0-0.1-0.1-0.2-0.2-0.3c-0.1-0.1-0.2-0.3-0.3-0.5c-0.1-0.2-0.2-0.4-0.4-0.6c-0.1-0.2-0.3-0.4-0.5-0.6c0-0.1-0.1-0.1-0.1-0.1
			c0,0-0.1-0.1-0.1-0.1c-0.1,0-0.1,0-0.1-0.1c-0.1,0-0.1,0-0.2,0v2.4h-0.6v-5.2h1.2c0.2,0,0.3,0,0.5,0c0.1,0,0.3,0,0.4,0.1
			c0.1,0,0.2,0.1,0.3,0.1c0.1,0,0.1,0.1,0.2,0.1c0.1,0,0.1,0.1,0.2,0.2c0.1,0.1,0.1,0.2,0.2,0.2c0,0.1,0.1,0.2,0.1,0.3
			c0,0.1,0,0.2,0,0.4c0,0.2,0,0.4-0.1,0.6c-0.1,0.2-0.2,0.3-0.3,0.5c-0.1,0.1-0.3,0.2-0.4,0.3c-0.2,0.1-0.4,0.1-0.6,0.1H380
			c0.1,0.1,0.2,0.2,0.3,0.3c0.1,0.1,0.2,0.2,0.2,0.3c0,0.1,0.1,0.2,0.2,0.3c0.1,0.1,0.2,0.3,0.3,0.5c0.1,0.2,0.2,0.3,0.3,0.5
			c0.1,0.2,0.2,0.3,0.2,0.4c0.1,0.1,0.1,0.1,0.1,0.2H381z"/>
		<line class="st1" x1="382.9" y1="361.8" x2="382.9" y2="356.6"/>
		<path class="st0" d="M388.1,361.5c-0.2,0.1-0.4,0.2-0.7,0.3c-0.3,0.1-0.5,0.1-0.8,0.1c-0.7,0-1.2-0.2-1.6-0.7
			c-0.2-0.2-0.4-0.5-0.5-0.9c-0.1-0.3-0.2-0.7-0.2-1.2c0-0.5,0.1-0.9,0.2-1.3c0.1-0.4,0.3-0.7,0.6-0.9c0.4-0.3,0.8-0.5,1.4-0.5
			c0.6,0,1,0.2,1.4,0.5l-0.3,0.4c-0.2-0.2-0.4-0.2-0.6-0.3c-0.2-0.1-0.4-0.1-0.6-0.1c-0.3,0-0.6,0.1-0.8,0.2
			c-0.2,0.1-0.4,0.4-0.5,0.7c-0.1,0.4-0.2,0.8-0.2,1.3c0,0.4,0,0.7,0.1,0.9c0.1,0.3,0.2,0.5,0.3,0.7c0.1,0.1,0.1,0.2,0.2,0.2
			c0.1,0.1,0.2,0.1,0.3,0.2c0.1,0.1,0.2,0.1,0.4,0.1c0.1,0,0.3,0,0.4,0c0.3,0,0.6-0.1,0.8-0.2v-1.6h-1l-0.1-0.5h1.8V361.5"/>
		<polygon class="st0" points="392.2,361.8 392.2,359.3 390,359.3 390,361.8 389.4,361.8 389.4,356.6 390,356.6 390,358.8 
			392.2,358.8 392.2,356.6 392.8,356.6 392.8,361.8 		"/>
		<polygon class="st0" points="397.1,357.1 395.7,357.1 395.7,361.8 395.1,361.8 395.1,357.1 393.7,357.1 393.7,356.6 397.1,356.6 
					"/>
		<path class="st0" d="M402.2,361.8h-2.9v-0.3c0.1-0.1,0.3-0.2,0.5-0.4c0.2-0.2,0.4-0.4,0.6-0.7c0.2-0.2,0.4-0.5,0.5-0.6
			c0.1-0.2,0.3-0.4,0.4-0.6c0.1-0.2,0.2-0.3,0.2-0.5c0-0.1,0.1-0.3,0.1-0.4c0-0.3-0.1-0.5-0.3-0.7c-0.2-0.2-0.4-0.3-0.7-0.3
			c-0.1,0-0.2,0-0.3,0c-0.1,0-0.2,0.1-0.3,0.1c-0.1,0-0.2,0.1-0.3,0.1c-0.1,0.1-0.2,0.1-0.3,0.2l-0.3-0.3c0.3-0.3,0.6-0.4,0.8-0.5
			c0.3-0.1,0.5-0.2,0.8-0.2c0.2,0,0.4,0,0.6,0.1c0.2,0.1,0.3,0.2,0.4,0.3c0.1,0.1,0.2,0.3,0.3,0.4c0.1,0.2,0.1,0.4,0.1,0.6
			c0,0.2-0.1,0.4-0.1,0.7c-0.1,0.2-0.2,0.5-0.4,0.7c-0.2,0.2-0.4,0.5-0.7,0.8c-0.1,0.1-0.2,0.2-0.4,0.4c-0.1,0.1-0.2,0.2-0.3,0.3
			c-0.1,0.1-0.2,0.2-0.3,0.2c-0.1,0.1-0.1,0.1-0.2,0.1h0.1c0.1,0,0.1,0,0.2,0c0.1,0,0.2,0,0.3,0h1.6L402.2,361.8"/>
		<path class="st0" d="M406.2,359.3c0-0.3,0-0.5,0-0.7c0-0.2-0.1-0.4-0.1-0.6c-0.1-0.3-0.2-0.5-0.4-0.6c-0.2-0.1-0.4-0.2-0.6-0.2
			c-0.1,0-0.3,0.1-0.4,0.2c-0.1,0.1-0.3,0.3-0.4,0.5c-0.2,0.3-0.3,0.8-0.3,1.4c0,0.3,0,0.5,0,0.8c0,0.2,0.1,0.4,0.1,0.6
			c0.1,0.3,0.2,0.5,0.4,0.6c0.2,0.2,0.3,0.2,0.5,0.2c0.2,0,0.3-0.1,0.5-0.2c0.2-0.1,0.3-0.3,0.4-0.5c0.1-0.2,0.1-0.4,0.2-0.6
			C406.2,359.9,406.2,359.6,406.2,359.3 M406.9,359.3c0,0.4-0.1,0.7-0.1,1.1c-0.1,0.3-0.2,0.6-0.4,0.8c-0.2,0.2-0.3,0.4-0.6,0.5
			c-0.2,0.1-0.5,0.2-0.7,0.2c-0.3,0-0.6-0.1-0.8-0.3c-0.2-0.2-0.4-0.4-0.5-0.7c-0.1-0.3-0.2-0.6-0.3-0.9c-0.1-0.3-0.1-0.6-0.1-0.9
			c0-0.3,0-0.7,0.1-1c0.1-0.3,0.2-0.6,0.4-0.8c0.2-0.2,0.3-0.4,0.6-0.5c0.2-0.1,0.4-0.2,0.7-0.2c0.2,0,0.4,0,0.6,0.1
			c0.2,0.1,0.3,0.2,0.5,0.3c0.1,0.1,0.2,0.3,0.3,0.4c0.1,0.2,0.2,0.4,0.2,0.5c0.1,0.2,0.1,0.4,0.1,0.6
			C406.8,359,406.9,359.1,406.9,359.3"/>
		<path class="st0" d="M411.1,359.3c0,0.4,0,0.7-0.1,1.1c-0.1,0.3-0.2,0.6-0.4,0.8c-0.2,0.2-0.3,0.4-0.6,0.5
			c-0.2,0.1-0.5,0.2-0.7,0.2c-0.3,0-0.6-0.1-0.8-0.3c-0.2-0.2-0.4-0.4-0.5-0.7c-0.1-0.3-0.2-0.6-0.3-0.9c-0.1-0.3-0.1-0.6-0.1-0.9
			c0-0.3,0-0.7,0.1-1c0.1-0.3,0.2-0.6,0.4-0.8c0.2-0.2,0.4-0.4,0.6-0.5c0.2-0.1,0.4-0.2,0.7-0.2c0.2,0,0.4,0,0.6,0.1
			c0.2,0.1,0.3,0.2,0.5,0.3c0.1,0.1,0.2,0.3,0.3,0.4c0.1,0.2,0.2,0.4,0.2,0.5c0.1,0.2,0.1,0.4,0.1,0.6
			C411.1,359,411.1,359.1,411.1,359.3"/>
	</g>
</g>
<g id="layer1" transform="translate(0,-1018.7482)">
	<g id="g23310" transform="matrix(1.25,0,0,-1.25,-334.82391,1488.9353)">
		<g id="g2288" transform="translate(-3.0748709,-5.6885111)">
			<g>
				<defs>
					<rect id="SVGID_1_" x="224" y="-25" width="493.8" height="413.6"/>
				</defs>
				<clipPath id="SVGID_2_">
					<use xlink:href="#SVGID_1_"  style="overflow:visible;"/>
				</clipPath>
				<g id="g2290" class="st2">
					<g id="g2296" transform="translate(302.2295,374.7945)">
						<path id="path2298" class="st3" d="M356.3-114.2l9.8,52.9L318-79.7c-13.3-5.1-22.5-10.1-29.3-16l1.1,5.9l-51.1-19.6
							c-16.8-6.4-27-12.7-34.2-20.9c-8.3-9.5-11.3-20.6-13.3-31.1l-0.5-2.6c-0.8-4.6-2.7-8.2-4.7-10.9l14.9,80.6l-47.2-18
							c0,0-13-69.8-13.2-70.9c-0.9-4.6-2.7-8.2-4.7-10.9l15,80.6l-47.2-18l-13.1-70.8c-2-10.1-9-15.9-12.1-17.1
							c-1.1-0.4-8.7-3.3-15-5.7c0.2,1.4,14.3,78.7,18.2,99.6c2.4,12.8,1.6,21.3-2.6,26.8c-2,2.6-5.9,5.8-12.7,5.8
							c-6.2,0-12.6-2.5-18.3-4.7l-30.7-11.7l-1.3-7.2l-5.4-29.3l-2.9-15.4l23.3,8.8L14-244l-23.3-8.9l-19.6-105.5
							c0,0,245.6,112,257.1,117.7c1.2,0.6,2.4,1.2,3.7,1.8c7.1,3.4,15.2,7.3,22.6,14.8c8.5,8.6,13.9,19.8,16.6,34.5l1.9,10.2
							c2.7-2.1,6.2-3.2,10.2-3.2c3.3,0,6.9,0.8,10.8,2.3c11.6,4.4,20.3,12.3,26.6,20.2c3-2.6,6.7-4.1,11.1-4.1c2.9,0,6,0.6,9.3,1.9
							l16.8,6.4l8.5,45.6L356.3-114.2"/>
					</g>
					<g id="g2300" transform="translate(299.771,371.3642)">
						<path id="path2302" class="st3" d="M328.5-153c11.1-81.5-46-156.6-127.5-167.8s-156.6,46-167.8,127.5
							c-11.1,81.5,46,156.6,127.5,167.8C242.2-14.4,317.4-71.4,328.5-153"/>
					</g>
				</g>
			</g>
		</g>
		<g id="g2304" transform="translate(-3.0748709,-5.6885111)">
			<g id="g2306">
				<g id="g2312">
					<g id="g2314">
						
							<radialGradient id="path2324_1_" cx="282.0779" cy="-20.2163" r="12.3045" gradientTransform="matrix(18.1526 0 0 -18.1526 -4644.4961 41.832)" gradientUnits="userSpaceOnUse">
							<stop  offset="0" style="stop-color:#535051"/>
							<stop  offset="0.1204" style="stop-color:#535051"/>
							<stop  offset="1" style="stop-color:#231F20"/>
						</radialGradient>
						<path id="path2324" class="st4" d="M362.4,270.8c1.5,0.3,2.9,0.5,4.1,0.5l0,0c6.4,0,10.5-4.8,7.3-22l0,0
							c-5.8-30.8-15.4-84.2-17.4-94.9l0,0c-1.7-9-3.4-17.3,2.3-17.3l0,0c1,0,2.3,0.3,3.9,0.9l0,0c0,0,17.9,6.8,19.8,7.6l0,0
							c7.3,2.9,17.4,12.6,20.2,26.9l0,0l5.9,32l25.7,9.8l-7.8-42c-1.1-5.7,0.1-8.7,3.1-8.7l0,0c1,0,2.1,0.3,3.4,1l0,0
							c7.3,3.6,17.1,12.7,19.8,27.2l0,0c0.2,1,0.4,1.9,0.5,2.5l0,0l5.5,29.5l25.7,9.8l-7.8-42c-1.1-5.7,0.1-8.7,3.1-8.7l0,0
							c1,0,2.1,0.3,3.4,1l0,0c7.3,3.6,17.1,12.7,19.8,27.1l0,0c0.1,0.8,0.5,2.6,0.5,2.6l0,0c4,21.3,10.1,31,39.3,42.1l0,0l13.4,5.1
							l21.8,8.3l1.2,0.5l-5.7-30.7l0,0l-4.5-24.3l-0.6-3.3c-1.5-8.2-3.6-19.3-4.8-26.1l0,0c-5.5-29.7-21.9-34.8-35.8-41.7l0,0
							c-5.8-2.9-67.6-31.2-127.1-58.4l0,0c15.9-11.3,34.3-19.3,54.3-23l0,0c-15.8,3-30.8,8.7-44.4,16.7l0,0l3,1.4
							c19.3-9.1,41.1-14.2,64-14.2l0,0c7,0,14,0.5,21.1,1.4l0,0c42.7,5.8,78.6,28.4,100.9,59.4l0,0c-8-13.3-18.2-25.2-30.1-35.1l0,0
							c30.6,25.4,50,63.8,50,106.6l0,0c0,7.9-0.7,15.7-1.9,23.3l0,0c-5.6-7.5-13.1-14.3-22.7-18l0,0c-2.8-1.1-5.2-1.6-7.2-1.6l0,0h0
							h0c-9.6,0-11.2,11-8.6,24.9l0,0l3.1,16.6c2.5,13.3,6.1,22.2,15.5,29.7l0,0c-24.7,38.4-67.7,63.8-116.7,63.8l0,0
							C430.6,336.9,386.8,310.5,362.4,270.8 M464.6,255.3l25.7,9.8l-3.9-21.1l-25.7-9.8L464.6,255.3L464.6,255.3z M414.4,236.2
							l25.7,9.8l-3.9-21.1l-25.7-9.8L414.4,236.2z M603.5,248.9l-1.8-9.5c-1.1-5.7,0.1-8.7,3.1-8.7l0,0c1,0,2.1,0.3,3.4,1l0,0
							c1.9,0.9,3.9,2.2,6,3.9l0,0c-2.1,7.6-4.8,14.9-8.1,21.8l0,0C605,254.9,604.1,252.2,603.5,248.9 M544.5,240.5
							c-10.9-4.2-16.6-8.9-19-21.4l0,0l-1.8-9.5c-0.5-2.6-0.5-4.6-0.1-6.1l0,0l0,0c0.5-1.8,1.6-2.7,3.2-2.7l0,0c1,0,2.1,0.3,3.4,1
							l0,0c7.3,3.6,17.1,12.7,19.8,27.2l0,0c0.2,1.1,0.4,1.9,0.5,2.5l0,0l2.3,12.2L544.5,240.5L544.5,240.5z M517,173.9
							c-2.2-0.8-4.1-1.2-5.8-1.2l0,0h0h0c-7.2,0-10.4,6.8-11.1,14.1l0,0c0-0.1-0.1-0.2-0.1-0.3l0,0l0,0c-5.5-11.4-15.9-25.2-31-31
							l0,0c-2.3-0.9-4.3-1.2-6.1-1.2l0,0h0h0c-7.6,0-11.5,6.8-12.6,14l0,0c-5.3-11.6-15.9-26-31.4-32l0,0c-2.3-0.9-4.3-1.3-6.1-1.3
							l0,0c-7.6,0-11.5,6.7-12.6,13.9l0,0c-5.3-11.6-15.9-25.8-31.3-31.7l0,0c-0.1,0-0.3-0.1-0.4-0.1l0,0c2.9-4,5.9-7.8,9.2-11.4
							l0,0c64.5,25.7,143.6,57.2,149.2,59.3l0,0c9.7,3.7,13.6,10.9,15.7,22.1l0,0c0.1,0.7,1.2,6.6,2.4,13.2l0,0
							C539,189.8,530.2,178.9,517,173.9 M568.7,91.1c0.2,0.2,0.4,0.3,0.6,0.5l0,0C569.1,91.5,568.9,91.3,568.7,91.1 M568.5,91
							c0,0,0.1,0.1,0.1,0.1l0,0C568.6,91.1,568.6,91.1,568.5,91 M568.3,90.8c0.1,0.1,0.1,0.1,0.2,0.2l0,0
							C568.4,91,568.4,90.9,568.3,90.8 M568.1,90.7c0.1,0,0.1,0.1,0.2,0.2l0,0C568.2,90.8,568.2,90.7,568.1,90.7 M567.4,90.1
							c0.2,0.2,0.4,0.3,0.6,0.5l0,0C567.9,90.5,567.6,90.3,567.4,90.1 M499.4,60.9c-3.3-0.4-6.6-0.8-9.8-1l0,0
							c18.4,1.2,35.7,5.9,51.5,13.5l0,0C528.2,67.2,514.2,62.9,499.4,60.9"/>
					</g>
				</g>
			</g>
		</g>
		<g id="g2326" transform="translate(-3.0748709,-5.6885111)">
			<g>
				<defs>
					<polygon id="SVGID_3_" points="273.4,16.4 668.5,16.4 668.5,347.3 273.4,347.3 273.4,16.4 					"/>
				</defs>
				<clipPath id="SVGID_4_">
					<use xlink:href="#SVGID_3_"  style="overflow:visible;"/>
				</clipPath>
				<g id="g2328" class="st5">
					<g id="g2334" transform="translate(286.3044,380.503)">
						<path id="path2336" class="st6" d="M176.2-49.7c37.6,5.1,73.5-3.7,102-22.2c-28.3,21.5-64.7,32.2-102.6,27
							c-37.9-5.2-70.2-25.2-91.7-53.5C106.4-72.9,138.7-54.8,176.2-49.7"/>
					</g>
					<g id="g2338" transform="translate(299.9808,375.8393)">
						<path id="path2340" class="st6" d="M330.8-102.4l-8.4-3.2c-10.9-4.2-16.7-8.9-19-21.4l-1.8-9.5c-1.4-7.6,1.2-10.4,6.5-7.8
							c7.3,3.6,17.1,12.7,19.8,27.2c0.2,1.1,0.4,1.9,0.5,2.5L330.8-102.4 M356.5-125.8l-4.5-24.5l-1.6-0.6c-0.1,0-0.3-0.1-0.4-0.1
							c-2.8-1.1-5-1.9-8.4-3.2c-11.4-4.4-15.7,3.9-16.5,12.9c-5.4-11.4-15.4-25.1-30.4-30.8c-16-6.1-19,6.5-15.8,23.3l3.1,16.6
							c3.9,21.3,10.9,31.3,40.1,42.5l12.1,4.6l21.1,8.1l1.2,0.5l-7.8-41.9c-1.4-7.5,0.9-9.9,6.2-7.9L356.5-125.8 M252.9-132.2
							l-8.4-3.2c-10.9-4.1-16.6-8.9-19-21.4l-1.8-9.5c-1.4-7.6,1.2-10.4,6.5-7.8c7.3,3.6,17.1,12.7,19.8,27.2
							c0.2,1.1,0.4,1.9,0.5,2.5L252.9-132.2 M277.9-106.7l1.2,0.5l-10.2-55l-0.6-3.3c-1.5-8.2-3.6-19.3-4.8-26.1
							c-5.5-29.7-21.9-34.8-35.8-41.7c-11.5-5.7-241.2-110.4-241.2-110.4l7.3,39.2c0,0,223.3,89,232.9,92.7
							c9.7,3.7,13.6,10.9,15.7,22.1c0.1,0.7,1.2,6.6,2.5,13.2C239-186,230.2-196.9,217-202c-11.5-4.4-16,3.9-17,12.9
							c-5.4-11.5-15.9-25.5-31.1-31.3c-11.7-4.5-17.4,3.8-18.8,12.8c-5.3-11.6-16-26-31.4-32c-11.7-4.5-17.3,3.7-18.7,12.6
							c-5.3-11.6-15.9-25.8-31.3-31.7C43.6-268.2-3-285.9-3-285.9l4.6,24.8c0,0,8.2,3.1,13.9,5.3c5.7,2.2,9.7,5,11.6,15.5
							c1.9,10.4,17.8,95.8,17.8,95.8s1.4,6.4-3.9,4.6c-0.5-0.2-18.1-6.9-18.1-6.9l5.4,29.3c0,0,8.5,3.2,21.2,8.1
							c12.7,4.8,30.2,13.8,24.4-17c-5.8-30.8-15.4-84.2-17.4-94.9c-2-10.7-4-20.3,6.2-16.4c0,0,17.9,6.8,19.8,7.6
							c7.3,2.9,17.4,12.6,20.2,26.8l5.9,32l25.7,9.8l-7.8-42c-1.4-7.6,1.2-10.4,6.5-7.8c7.3,3.6,17.1,12.7,19.8,27.1
							c0.2,1.1,0.4,1.9,0.6,2.5l5.5,29.5l25.7,9.8l-7.8-42c-1.4-7.6,1.2-10.4,6.5-7.8c7.3,3.6,17.1,12.7,19.8,27.1
							c0.1,0.8,0.5,2.6,0.5,2.6c3.9,21.3,10.1,31,39.3,42.1l13.4,5.1L277.9-106.7 M140.1-129.9l-25.7-9.8l-3.9-21.1l25.7,9.8
							L140.1-129.9 M186.4-131.9l-25.7-9.8l3.9,21.1l25.7,9.8L186.4-131.9"/>
					</g>
				</g>
			</g>
		</g>
		<g id="g2342" transform="translate(-3.0748709,-5.6885111)">
			<g>
				<defs>
					<path id="SVGID_5_" d="M286.5,33L286.5,33C286.5,33,286.5,33,286.5,33L286.5,33C286.5,33,286.5,33,286.5,33L286.5,33
						C286.5,33,286.5,33.1,286.5,33L286.5,33c0.1,0,0.1,0,0.1,0l0,0c0,0,0,0,0.1,0l0,0c0,0,0,0,0,0l0,0c0,0,0.1,0,0.1,0.1l0,0
						c4.4,2,51.5,23.5,103,47l0,0l0,0l0,0C336.5,55.8,287.8,33.6,286.5,33"/>
				</defs>
				<clipPath id="SVGID_6_">
					<use xlink:href="#SVGID_5_"  style="overflow:visible;"/>
				</clipPath>
				<g id="g2344" class="st7">
					<g id="g2350" transform="matrix(8.4600325,0,0,3.9124261,271.96519,356.25604)">
						
							<image style="overflow:visible;enable-background:new    ;" width="24" height="11" id="image2352" xlink:href="E85357C1.png"  transform="matrix(0.5127 0 0 -1.1186 1.6719 -70.4465)">
						</image>
					</g>
				</g>
			</g>
		</g>
		<g id="g2354" transform="translate(-3.0748709,-5.6885111)">
			<g>
				<defs>
					<path id="SVGID_7_" d="M389.8,80.2L389.8,80.2L389.8,80.2c0.1,0.1,0.3,0.1,0.5,0.2l0,0c2.9,1.3,5.9,2.7,8.8,4l0,0
						c0.5,0.2,1,0.4,1.4,0.7l0,0c0,0,0,0,0,0l0,0C396.9,83.4,393.3,81.8,389.8,80.2"/>
				</defs>
				<clipPath id="SVGID_8_">
					<use xlink:href="#SVGID_7_"  style="overflow:visible;"/>
				</clipPath>
				<g id="g2356" class="st8">
					<g id="g2362" transform="matrix(0.971309,0,0,0.4770059,280.34365,360.08692)">
						
							<image style="overflow:visible;enable-background:new    ;" width="3" height="2" id="image2364" xlink:href="E85357C3.png"  transform="matrix(4.1015 0 0 -6.1523 112.0748 -575.636)">
						</image>
					</g>
				</g>
			</g>
		</g>
		<g id="g2366" transform="translate(-3.0748709,-5.6885111)">
			<g>
				<defs>
					<path id="SVGID_9_" d="M573.4,238.9l-4.5-24.3l-0.6-3.3c-1.5-8.2-3.6-19.3-4.8-26.1l0,0c-5.5-29.7-21.9-34.8-35.8-41.7l0,0
						c-5.8-2.9-67.6-31.2-127.1-58.4l0,0c0,0,0,0,0,0l0,0c5.5,2.5,10.9,5,16.4,7.5l0,0c54,24.7,105.5,48.3,110.7,50.9l0,0
						c13.9,6.9,30.3,12,35.8,41.7l0,0c1.3,6.8,3.3,17.9,4.8,26.1l0,0l0.6,3.3L573.4,238.9L573.4,238.9L573.4,238.9z M523.7,203.4
						c0.5-1.7,1.6-2.6,3.2-2.6l0,0h0C525.3,200.8,524.2,201.7,523.7,203.4L523.7,203.4L523.7,203.4z M517,173.9
						c-2.2-0.8-4.1-1.2-5.8-1.2l0,0h0C512.9,172.7,514.8,173,517,173.9L517,173.9c10.3,4,18,11.5,23.6,19.5l0,0
						c0,0.1,0.1,0.1,0.1,0.2l0,0c0,0.1,0.1,0.2,0.2,0.3l0,0c0.1,0.1,0.2,0.3,0.3,0.4l0,0c0,0,0,0,0,0l0,0c1.3,2,2.5,3.9,3.6,5.9l0,0
						c0,0,0,0,0,0l0,0C539,189.8,530.2,178.9,517,173.9"/>
				</defs>
				<clipPath id="SVGID_10_">
					<use xlink:href="#SVGID_9_"  style="overflow:visible;"/>
				</clipPath>
				<g id="g2368" class="st9">
					<g id="g2374" transform="matrix(14.119824,0,0,12.587483,281.2334,360.48236)">
						
							<image style="overflow:visible;enable-background:new    ;" width="59" height="53" id="image2376" xlink:href="E85357C6.png"  transform="matrix(0.2086 0 0 -0.2322 8.422 -9.6205)">
						</image>
					</g>
				</g>
			</g>
		</g>
		<g id="g2378" transform="translate(-3.0748709,-5.6885111)">
			<g>
				<defs>
					<path id="SVGID_11_" d="M547.5,220.4c-0.9-2.2-2-4.1-3.2-5.9l0,0c0,0,0,0,0-0.1l0,0c-0.1-0.1-0.2-0.2-0.2-0.4l0,0
						c0,0,0,0-0.1-0.1l0,0c-0.2-0.3-0.4-0.6-0.6-0.9l0,0c0,0-0.1-0.1-0.1-0.1l0,0c-0.1-0.1-0.1-0.2-0.2-0.3l0,0c0,0-0.1-0.1-0.1-0.2
						l0,0c-0.1-0.1-0.1-0.2-0.2-0.3l0,0c0-0.1-0.1-0.1-0.1-0.1l0,0c-0.1-0.1-0.2-0.3-0.3-0.4l0,0c0,0-0.1-0.1-0.1-0.1l0,0
						c-0.1-0.1-0.1-0.2-0.2-0.2l0,0c-0.1-0.1-0.1-0.1-0.2-0.2l0,0c0-0.1-0.1-0.1-0.1-0.2l0,0c0-0.1-0.1-0.1-0.2-0.2l0,0
						c0,0-0.1-0.1-0.1-0.1l0,0c-0.2-0.3-0.4-0.5-0.7-0.8l0,0c0,0-0.1-0.1-0.1-0.1l0,0c-0.1-0.1-0.1-0.1-0.2-0.2l0,0
						c0,0-0.1-0.1-0.1-0.1l0,0c-0.1-0.1-0.1-0.2-0.2-0.2l0,0c0,0,0,0,0,0l0,0c-0.3-0.3-0.5-0.6-0.8-0.8l0,0c0,0,0,0,0,0l0,0
						c-0.1-0.1-0.2-0.2-0.3-0.3l0,0c0,0,0,0,0,0l0,0c-0.4-0.4-0.8-0.7-1.1-1.1l0,0c0,0,0,0,0,0l0,0c-1.8-1.6-3.7-3-5.5-4.1l0,0
						c0,0,0,0-0.1,0l0,0c-0.1,0-0.2-0.1-0.2-0.1l0,0c0,0,0,0,0,0l0,0c-0.2-0.1-0.5-0.3-0.7-0.4l0,0c0,0-0.1,0-0.1-0.1l0,0
						c0,0-0.1-0.1-0.2-0.1l0,0c-0.1,0-0.1-0.1-0.2-0.1l0,0c0,0-0.1,0-0.1-0.1l0,0c-0.1-0.1-0.2-0.1-0.3-0.2l0,0
						c-1.3-0.7-2.5-1-3.4-1l0,0h0h0c-1.6,0-2.7,0.9-3.2,2.6l0,0L500,186.6c0.5-4.5,1.9-8.8,4.6-11.4l0,0l0,0c0.1,0,0.1-0.1,0.2-0.1
						l0,0c0,0,0,0,0.1-0.1l0,0c0,0,0.1-0.1,0.1-0.1l0,0c0,0,0.1,0,0.1-0.1l0,0c0,0,0,0,0.1-0.1l0,0c0,0,0.1-0.1,0.2-0.1l0,0h0
						c1.6-1.2,3.5-2,5.8-2l0,0c1.7,0,3.6,0.4,5.8,1.2l0,0c13.2,5.1,22,16,27.9,26.4l0,0c0,0,0,0,0,0l0,0c0,0,0,0,0,0l0,0
						c0,0,0,0,0,0l0,0c-1.2-6.6-2.3-12.5-2.5-13.2l0,0c-2.1-11.2-6-18.4-15.7-22.1l0,0c0,0-0.1,0-0.1-0.1l0,0c0,0-0.1,0-0.1,0l0,0
						c0,0,0,0,0,0l0,0c0,0,0,0,0,0l0,0c0,0-0.1,0-0.1,0l0,0c0,0,0,0,0,0l0,0c0,0-0.1,0-0.1-0.1l0,0c0,0,0,0-0.1,0l0,0
						c0,0-0.1,0-0.1-0.1l0,0c0,0-0.1,0-0.1-0.1l0,0c0,0,0,0-0.1,0l0,0c0,0,0,0-0.1,0l0,0c-0.1,0-0.1-0.1-0.2-0.1l0,0c0,0,0,0,0,0
						l0,0c-0.1,0-0.1-0.1-0.2-0.1l0,0c0,0,0,0,0,0l0,0c-11.5-4.5-71.3-28.3-127.2-50.6l0,0l-111-79.1l-0.1-0.4l-0.2-1.1
						c1.3,0.6,50,22.8,103.3,47.1l0,0c3.6,1.6,7.1,3.3,10.7,4.9l0,0c59.6,27.2,121.3,55.5,127.1,58.4l0,0
						c13.9,6.9,30.3,12,35.8,41.7l0,0c1.3,6.8,3.3,17.9,4.8,26.1l0,0l0.6,3.3l4.5,24.3L547.5,220.4L547.5,220.4z"/>
				</defs>
				<clipPath id="SVGID_12_">
					<use xlink:href="#SVGID_11_"  style="overflow:visible;"/>
				</clipPath>
				<g id="g2380" class="st10">
					<g id="g2386" transform="matrix(23.388048,0,0,16.813792,271.96519,356.25602)">
						
							<image style="overflow:visible;enable-background:new    ;" width="65" height="47" id="image2388" xlink:href="E85357C7.png"  transform="matrix(0.1893 0 0 -0.2618 0.6048 -6.9509)">
						</image>
					</g>
				</g>
			</g>
		</g>
		<g id="g2390" transform="translate(-3.0748709,-5.6885111)">
			<g>
				<defs>
					<path id="SVGID_13_" d="M499.9,186.5c-5.4-11.4-15.9-25.2-31-31l0,0c-1.2-0.4-2.3-0.8-3.3-1l0,0c1.1,0.2,2.2,0.5,3.3,1l0,0
						C484,161.2,494.4,175,499.9,186.5L499.9,186.5L499.9,186.5L499.9,186.5z M465.5,154.5c0,0,0.1,0,0.1,0l0,0
						C465.6,154.5,465.5,154.5,465.5,154.5 M465.4,154.5C465.4,154.5,465.4,154.5,465.4,154.5L465.4,154.5
						C465.4,154.5,465.4,154.5,465.4,154.5 M464,154.3c-0.4,0-0.8,0-1.2,0l0,0c0.8,0,1.7,0.1,2.6,0.2l0,0
						C464.9,154.4,464.4,154.3,464,154.3 M462.8,154.2L462.8,154.2L462.8,154.2L462.8,154.2C462.8,154.2,462.8,154.2,462.8,154.2"/>
				</defs>
				<clipPath id="SVGID_14_">
					<use xlink:href="#SVGID_13_"  style="overflow:visible;"/>
				</clipPath>
				<g id="g2392" class="st11">
					<g id="g2398" transform="matrix(3.0968217,0,0,2.7013777,286.27529,366.11744)">
						
							<image style="overflow:visible;enable-background:new    ;" width="13" height="12" id="image2400" xlink:href="E85357C2.png"  transform="matrix(0.9465 0 0 -1.0254 56.8046 -66.2772)">
						</image>
					</g>
				</g>
			</g>
		</g>
		<g id="g2402" transform="translate(-3.0748709,-5.6885111)">
			<g>
				<defs>
					<path id="SVGID_15_" d="M457,155.9c0.8-0.5,1.7-0.9,2.6-1.2l0,0c0,0,0.1,0,0.1,0l0,0c0,0,0.1,0,0.2,0l0,0c0.1,0,0.1,0,0.2,0
						l0,0c0,0,0,0,0.1,0l0,0c0.1,0,0.2,0,0.3,0l0,0c0,0,0,0,0,0l0,0c0.2,0,0.4-0.1,0.6-0.1l0,0c0,0,0,0,0,0l0,0c0.1,0,0.2,0,0.3,0
						l0,0c0.2,0,0.4,0,0.7,0l0,0c0,0,0,0,0,0l0,0c0.1,0,0.2,0,0.3,0l0,0c0,0,0,0,0.1,0l0,0c0.1,0,0.2,0,0.3,0l0,0c0,0,0,0,0,0l0,0
						c1.8,0,3.9,0.4,6.1,1.2l0,0c15,5.8,25.5,19.6,31,31l0,0L457,155.9L457,155.9z"/>
				</defs>
				<clipPath id="SVGID_16_">
					<use xlink:href="#SVGID_15_"  style="overflow:visible;"/>
				</clipPath>
				<g id="g2404" class="st12">
					<g id="g2410" transform="matrix(3.5664112,0,0,2.7013773,285.80574,366.11743)">
						
							<image style="overflow:visible;enable-background:new    ;" width="10" height="8" id="image2412" xlink:href="E85357CD.png"  transform="matrix(1.2305 0 0 -1.5381 47.8367 -66.2772)">
						</image>
					</g>
				</g>
			</g>
		</g>
		<g id="g2414" transform="translate(-3.0748709,-5.6885111)">
			<g>
				<defs>
					<path id="SVGID_17_" d="M656.1,297.8l-7.5-40.5c-1-5.6,0-8.4,2.8-8.5l0,0c-0.2,0-0.3,0-0.5,0.1l0,0c0,0,0,0,0,0l0,0
						c0,0-0.1,0-0.1,0l0,0c0,0,0,0,0,0l0,0c0,0-0.1,0-0.1,0l0,0c0,0,0,0,0,0l0,0c0,0,0,0-0.1,0l0,0c0,0,0,0,0,0l0,0c0,0,0,0-0.1,0
						l0,0c0,0,0,0,0,0l0,0c0,0,0,0-0.1,0l0,0c0,0,0,0-0.1,0l0,0c0,0,0,0,0,0l0,0c0,0,0,0-0.1,0l0,0c0,0,0,0,0,0l0,0c0,0-0.1,0-0.1,0
						l0,0c0,0,0,0,0,0l0,0c-1.7,0.9-2.2,3.6-1.4,8.2l0,0L656.1,297.8L656.1,297.8L656.1,297.8z M622.5,270.3c-3.5-1.3-6.5-2.7-9-4.5
						l0,0c0,0,0,0,0,0l0,0C616,267.5,619,268.9,622.5,270.3L622.5,270.3l8.4,3.2v0L622.5,270.3L622.5,270.3z M656.5,250l-4.6-24.5
						l-1.6-0.6c-0.1-0.1-0.3-0.1-0.4-0.2l0,0c-2.8-1.1-5-1.9-8.4-3.2l0,0c-1.7-0.7-3.3-1-4.7-1.2l0,0c1.4,0.1,3,0.5,4.7,1.2l0,0
						c3.4,1.3,5.6,2.2,8.4,3.2l0,0c0.1,0,0.3,0.1,0.4,0.2l0,0l1.6,0.6L656.5,250L656.5,250L656.5,250z M651.4,248.7
						C651.4,248.7,651.3,248.7,651.4,248.7L651.4,248.7C651.3,248.7,651.4,248.7,651.4,248.7 M651.4,248.7
						C651.4,248.7,651.4,248.7,651.4,248.7L651.4,248.7C651.4,248.7,651.4,248.7,651.4,248.7 M651.5,248.7
						C651.5,248.7,651.4,248.7,651.5,248.7L651.5,248.7C651.4,248.7,651.5,248.7,651.5,248.7 M651.5,248.7
						C651.5,248.7,651.5,248.7,651.5,248.7L651.5,248.7C651.5,248.7,651.5,248.7,651.5,248.7 M651.7,248.7c0,0-0.1,0-0.1,0l0,0
						C651.6,248.7,651.6,248.7,651.7,248.7"/>
				</defs>
				<clipPath id="SVGID_18_">
					<use xlink:href="#SVGID_17_"  style="overflow:visible;"/>
				</clipPath>
				<g id="g2416" class="st13">
					<g id="g2422" transform="matrix(3.5664123,0,0,6.3839503,298.53408,371.4806)">
						
							<image style="overflow:visible;enable-background:new    ;" width="10" height="18" id="image2424" xlink:href="E85357CE.png"  transform="matrix(1.2305 0 0 -0.6836 88.1821 -11.4505)">
						</image>
					</g>
				</g>
			</g>
		</g>
		<g id="g2426" transform="translate(-3.0748709,-5.6885111)">
			<g>
				<defs>
					<path id="SVGID_19_" d="M606.1,257.3L606.1,257.3c0.4,0.8,0.8,1.5,1.2,2.2l0,0c0,0,0,0,0,0.1l0,0c0,0,0.1,0.1,0.1,0.1l0,0
						c1.6,2.4,3.5,4.4,6,6l0,0c0,0,0,0,0,0l0,0C610.3,263.6,607.9,261,606.1,257.3 M617.3,221.6
						C617.3,221.6,617.3,221.6,617.3,221.6L617.3,221.6c0.6,0.8,1.2,1.7,1.8,2.5l0,0c0,0.1,0.1,0.1,0.1,0.2l0,0c0,0,0,0.1,0.1,0.1
						l0,0c2.3,3.3,4.2,6.7,5.7,10l0,0c0,0,0,0,0,0l0,0C623.1,230.3,620.5,225.8,617.3,221.6"/>
				</defs>
				<clipPath id="SVGID_20_">
					<use xlink:href="#SVGID_19_"  style="overflow:visible;"/>
				</clipPath>
				<g id="g2428" class="st14">
					<g id="g2434" transform="matrix(1.6139062,0,0,3.689987,297.94091,371.57948)">
						
							<image style="overflow:visible;enable-background:new    ;" width="5" height="11" id="image2436" xlink:href="E85357CF.png"  transform="matrix(2.4609 0 0 -1.1186 190.7101 -28.4905)">
						</image>
					</g>
				</g>
			</g>
		</g>
		<g id="g2438" transform="translate(-3.0748709,-5.6885111)">
			<g>
				<defs>
					<path id="SVGID_21_" d="M603.5,248.9l-1.8-9.5c-0.9-5-0.1-7.9,2.1-8.6l0,0c-0.5,0.1-0.9,0.4-1.3,0.8l0,0c0,0,0,0,0,0l0,0
						c0,0,0,0,0,0l0,0c0,0,0,0,0,0.1l0,0c0,0,0,0,0,0l0,0c-0.3,0.4-0.5,0.8-0.7,1.4l0,0c0,0,0,0.1,0,0.1l0,0c0,0,0,0,0,0l0,0
						c0,0,0,0.1,0,0.1l0,0c0,0,0,0,0,0.1l0,0c0,0,0,0,0,0l0,0c-0.4,1.4-0.3,3.4,0.1,5.9l0,0L603.5,248.9c0.6,3.3,1.5,6.1,2.6,8.4
						l0,0l0,0C605,255,604.1,252.2,603.5,248.9 M594.6,203.6c-2.8-1.1-5.2-1.6-7.2-1.6l0,0h0C589.4,202,591.8,202.5,594.6,203.6
						L594.6,203.6c0.1,0.1,0.3,0.1,0.4,0.2l0,0c0.1,0,0.1,0,0.2,0l0,0c0.1,0,0.2,0.1,0.2,0.1l0,0c0.1,0,0.1,0,0.2,0.1l0,0
						c0.1,0,0.1,0.1,0.2,0.1l0,0c0,0,0.1,0,0.2,0.1l0,0c0.1,0.1,0.2,0.1,0.4,0.2l0,0c0.1,0,0.1,0,0.2,0.1l0,0c0.1,0,0.1,0.1,0.2,0.1
						l0,0c0.1,0,0.1,0.1,0.2,0.1l0,0c0.1,0,0.1,0.1,0.2,0.1l0,0c0.1,0,0.1,0.1,0.2,0.1l0,0c0.1,0,0.1,0,0.2,0.1l0,0
						c0.1,0,0.2,0.1,0.3,0.1l0,0c0.1,0,0.2,0.1,0.3,0.1l0,0c0.1,0,0.1,0,0.2,0.1l0,0c0.1,0,0.1,0.1,0.2,0.1l0,0
						c0.1,0,0.1,0.1,0.2,0.1l0,0c0.1,0,0.1,0.1,0.2,0.1l0,0c0,0,0.1,0.1,0.2,0.1l0,0c0.1,0,0.1,0.1,0.2,0.1l0,0
						c0.1,0,0.2,0.1,0.3,0.2l0,0c0.1,0,0.1,0.1,0.2,0.1l0,0c0.1,0,0.1,0,0.2,0.1l0,0c0.1,0,0.1,0.1,0.2,0.1l0,0
						c0.1,0,0.1,0.1,0.2,0.1l0,0c0.1,0,0.2,0.1,0.2,0.1l0,0c0,0,0.1,0.1,0.1,0.1l0,0c0.1,0.1,0.2,0.1,0.4,0.2l0,0c0,0,0.1,0,0.1,0
						l0,0c0.1,0.1,0.2,0.1,0.3,0.2l0,0c0,0,0.1,0,0.1,0.1l0,0c0.1,0,0.2,0.1,0.3,0.2l0,0c0,0,0.1,0,0.1,0.1l0,0
						c0.3,0.2,0.5,0.3,0.8,0.5l0,0c0,0,0,0,0,0l0,0c0.1,0.1,0.2,0.1,0.3,0.2l0,0c0,0,0,0,0,0l0,0c4.7,3,8.7,6.8,12.1,10.9l0,0
						c0,0,0,0,0.1,0.1l0,0c0,0.1,0.1,0.1,0.2,0.2l0,0c0,0.1,0.1,0.1,0.1,0.2l0,0c0,0,0.1,0,0.1,0.1l0,0c0.6,0.7,1.2,1.5,1.8,2.3l0,0
						c0,0,0,0,0,0l0,0C611.7,214.1,604.2,207.2,594.6,203.6"/>
				</defs>
				<clipPath id="SVGID_22_">
					<use xlink:href="#SVGID_21_"  style="overflow:visible;"/>
				</clipPath>
				<g id="g2440" class="st15">
					<g id="g2446" transform="matrix(2.5283707,0,0,4.5797375,296.40856,369.99772)">
						
							<image style="overflow:visible;enable-background:new    ;" width="11" height="20" id="image2448" xlink:href="E85357C4.png"  transform="matrix(1.1186 0 0 -0.6152 114.8825 -24.4692)">
						</image>
					</g>
				</g>
			</g>
		</g>
		<g id="g2450" transform="translate(-3.0748709,-5.6885111)">
			<g>
				<defs>
					<path id="SVGID_23_" d="M582.2,245.1c0-0.1,0-0.2,0-0.3l0,0c-0.1-0.5-0.2-0.9-0.3-1.4l0,0l-3.1-16.6c-2.6-13.9-1-24.9,8.6-24.9
						l0,0c2,0,4.4,0.5,7.2,1.6l0,0c9.6,3.7,17.1,10.6,22.7,18l0,0c3.2,4.2,5.7,8.7,7.7,12.8l0,0c0,0,0,0,0,0l0,0c0,0,0,0,0,0l0,0
						c0.5-5.3,2.2-10.4,5.8-12.7l0,0c1.6-1,3.6-1.5,6-1.3l0,0c1.4,0.1,3,0.5,4.7,1.2l0,0c3.4,1.3,5.6,2.2,8.4,3.2l0,0
						c0.1,0,0.3,0.1,0.4,0.2l0,0l1.6,0.6l4.6,24.5l-1.7-0.6c-1.2-0.5-2.3-0.7-3.1-0.7l0,0c-3.1,0-4.2,2.7-3.1,8.6l0,0l7.5,40.5
						L582.2,245.1L582.2,245.1z M630.9,273.5l-2.3-12.2c-0.2-0.7-0.4-1.5-0.6-2.5l0,0c-2.7-14.4-12.4-23.5-19.8-27.2l0,0
						c-1.8-0.9-3.3-1.2-4.5-0.8l0,0c-2.2,0.7-3,3.6-2.1,8.6l0,0l1.8,9.5c0.6,3.3,1.5,6.1,2.6,8.5l0,0c1.8,3.6,4.2,6.3,7.3,8.5l0,0
						c2.5,1.7,5.5,3.1,9,4.5l0,0L630.9,273.5L630.9,273.5L630.9,273.5L630.9,273.5z"/>
				</defs>
				<clipPath id="SVGID_24_">
					<use xlink:href="#SVGID_23_"  style="overflow:visible;"/>
				</clipPath>
				<g id="g2452" class="st16">
					<g id="g2458" transform="matrix(6.6063881,0,0,7.866866,295.49412,369.9977)">
						
							<image style="overflow:visible;enable-background:new    ;" width="19" height="22" id="image2460" xlink:href="940BAEFA.png"  transform="matrix(0.6476 0 0 -0.5593 42.4026 -9.1035)">
						</image>
					</g>
				</g>
			</g>
		</g>
		<g id="g2462" transform="translate(-3.0748709,-5.6885111)">
			<g>
				<defs>
					<polygon id="SVGID_25_" points="273.4,16.4 668.5,16.4 668.5,347.3 273.4,347.3 273.4,16.4 					"/>
				</defs>
				<clipPath id="SVGID_26_">
					<use xlink:href="#SVGID_25_"  style="overflow:visible;"/>
				</clipPath>
				<g id="g2464" class="st17">
					<g id="g2470" transform="translate(284.4803,373.6036)">
						<path id="path2472" class="st6" d="M155.6-127.7l-25.7-9.8l-3.9-21.1l25.7,9.8L155.6-127.7z M205.8-108.5l-25.7-9.8l-3.9-21.1
							l25.7,9.8L205.8-108.5z M268.4-129.9l-2.3-12.2c-0.2-0.7-0.4-1.5-0.6-2.5c-2.7-14.4-12.4-23.5-19.8-27.1c-1.3-0.7-2.5-1-3.4-1
							c-2.9,0-4.1,3-3.1,8.7l1.8,9.5c2.3,12.5,8.1,17.3,19,21.4C260.1-133.1,268.4-129.9,268.4-129.9z M82.1-102.3
							c-5,0-11.6-2.9-17.1-5c-12.7-4.8-21.2-8-21.2-8l-5.4-29.3c0,0,17.7,6.7,18.1,6.9c0.7,0.2,1.3,0.3,1.7,0.3
							c3.3,0,2.2-4.9,2.2-4.9s-15.8-85.4-17.8-95.8c-1.9-10.4-5.9-13.3-11.6-15.4c-5.7-2.2-13.9-5.3-13.9-5.3l-4.6-24.8
							c0,0,46.6,17.7,71.6,27.3c15.4,5.9,26,20.1,31.3,31.7c1.2-7.2,5.1-13.9,12.6-13.9c1.8,0,3.9,0.4,6.1,1.3
							c15.5,5.9,26.1,20.4,31.4,32c1.1-7.2,5-14,12.6-14c1.8,0,3.9,0.4,6.1,1.3c15.2,5.8,25.7,19.8,31.1,31.3
							c0.8-7.3,3.9-14.1,11.1-14.1c1.7,0,3.6,0.4,5.8,1.2c13.2,5.1,22,16,27.9,26.4c-1.2-6.6-2.3-12.5-2.5-13.2
							c-2.1-11.2-6-18.4-15.7-22.1c-9.7-3.7-232.9-92.7-232.9-92.7L2-340.6c0,0,229.7,104.7,241.1,110.4c13.9,6.9,30.3,12,35.8,41.7
							c1.3,6.8,3.3,17.9,4.8,26.1l0.6,3.3l10.2,55l-1.2-0.5l-21.8-8.4l-13.4-5.1c-29.2-11.2-35.3-20.8-39.3-42.1
							c0,0-0.3-1.9-0.5-2.6c-2.7-14.4-12.4-23.5-19.8-27.1c-1.3-0.7-2.5-1-3.4-1c-3,0-4.1,3-3.1,8.7l7.8,42l-25.7-9.8l-5.5-29.5
							c-0.2-0.7-0.4-1.5-0.5-2.5c-2.7-14.4-12.4-23.6-19.8-27.2c-1.3-0.6-2.5-1-3.4-1c-2.9,0-4.1,3-3.1,8.7l7.8,42l-25.7-9.8
							l-5.9-32c-2.8-14.2-12.9-23.8-20.2-26.9c-1.9-0.8-19.8-7.6-19.8-7.6c-1.6-0.6-2.9-0.9-3.9-0.9c-5.7,0-4,8.3-2.3,17.3
							c2,10.7,11.6,64.1,17.4,94.9C92.6-107,88.5-102.3,82.1-102.3 M346.4-100.1l-2.3-12.2c-0.2-0.7-0.4-1.5-0.6-2.5
							c-2.7-14.4-12.4-23.6-19.8-27.2c-1.3-0.7-2.5-1-3.4-1c-3,0-4.1,3-3.1,8.7l1.8,9.5c2.3,12.5,8.1,17.3,19,21.4L346.4-100.1z
							 M371.8-74.5l-1.2-0.5L349.5-83l-12.1-4.6c-29.2-11.2-36.1-21.1-40.1-42.4l-3.1-16.6c-2.6-13.9-1-24.9,8.6-24.9
							c2,0,4.4,0.5,7.2,1.6c15.1,5.8,25,19.4,30.4,30.8c0.7-7.3,3.6-14.1,10.8-14.1c1.7,0,3.6,0.4,5.7,1.2c3.4,1.3,5.6,2.2,8.4,3.2
							c0.1,0.1,0.3,0.1,0.4,0.2l1.6,0.6l4.6,24.5l-1.7-0.7c-1.2-0.4-2.2-0.7-3.1-0.7c-3.1,0-4.2,2.8-3.1,8.6L371.8-74.5z
							 M153.1-130.7l-3.1-16.7l-21.5-8.2l3.1,16.7L153.1-130.7 M203.3-111.5l-3.1-16.7l-21.5-8.2l3.1,16.7L203.3-111.5 M242.4-174.7
							c1.3,0,2.7,0.4,4.3,1.2c8.3,4.1,18.1,13.7,20.8,28.5c0.2,0.9,0.3,1.7,0.5,2.4l0,0.1l0,0.1l2.3,12.2l0.6,3.4l-3.2-1.2l-8.4-3.2
							c-10.9-4.1-17.6-9.2-20.2-22.8l-1.8-9.5c-0.8-4.3-0.4-7.4,1.1-9.3C239.5-174.1,240.8-174.7,242.4-174.7 M82.1-104.2
							c2.1,0,3.6-0.6,4.6-1.8c1.6-1.9,3-6.5,0.8-18c-3.9-21.1-9.7-52.9-13.6-74c-1.8-9.8-3.2-17.5-3.8-20.9l-0.1-0.8
							c-1.4-7.4-2.6-13.7,0.1-16.9c0.7-0.8,2-1.8,4.3-1.8c1.3,0,2.8,0.3,4.6,1c0.7,0.3,18,6.8,19.9,7.6c8.3,3.5,18.5,13.8,21.3,28.3
							l5.7,31l21.5,8.2l-7.2-38.7c-0.8-4.3-0.4-7.4,1.1-9.3c0.9-1.1,2.3-1.7,3.9-1.7c1.3,0,2.7,0.4,4.3,1.2c8.2,4,18,13.7,20.8,28.5
							c0.2,0.9,0.3,1.7,0.5,2.4l0,0.1l0,0.1l5.3,28.4l21.5,8.2l-7.2-38.6c-0.8-4.3-0.4-7.4,1.1-9.3c0.9-1.1,2.3-1.7,3.9-1.7
							c1.3,0,2.7,0.4,4.3,1.2c8.3,4.1,18.1,13.7,20.8,28.5l0.5,2.6c3.9,21.1,10,29.9,38.1,40.7l13.4,5.1l19.8,7.6l-9.6-51.7
							l-0.6-3.3l-2-10.9l-2.8-15.2c-4.8-26-18.1-32.3-30.9-38.4c-1.3-0.6-2.6-1.3-3.9-1.9c-10.5-5.3-209.3-95.9-237.7-108.9
							l6.4,34.6c16.1,6.4,222.7,88.8,231.9,92.3c9.6,3.6,14.5,10.4,16.9,23.5c0.1,0.6,0.9,4.9,1.9,10.3l0.5,2.9l2.1,11.3l-5.7-10.1
							c-7.3-12.9-16.3-21.5-26.9-25.5c-1.9-0.7-3.6-1.1-5.1-1.1c-6.9,0-8.8,7.7-9.2,12.4l-0.7,6.8l-2.9-6.2
							c-2.5-5.4-12.2-23.5-30.1-30.3c-1.9-0.8-3.8-1.1-5.4-1.1c-8.2,0-10.3,9.5-10.8,12.4l-1,6.3l-2.6-5.8c-2.5-5.5-12.2-24-30.4-31
							c-2-0.7-3.8-1.1-5.4-1.1c-2.6,0-8.9,1.2-10.7,12.3l-1,6.2l-2.6-5.7c-2.5-5.5-12.1-23.8-30.3-30.7c-21.1-8-57.5-21.9-68.5-26
							l3.8,20.4c2.4,0.9,8.4,3.2,12.9,4.9c6.6,2.5,10.8,6.1,12.8,16.9l17.8,95.8c0.1,0.7,0.7,3.8-0.9,5.7c-0.5,0.7-1.5,1.5-3.2,1.5
							c-0.7,0-1.5-0.1-2.4-0.5c-0.4-0.1-9.8-3.7-15-5.7l4.6,24.9c2.6,1,10.1,3.8,20.2,7.7c0.9,0.3,1.8,0.7,2.7,1.1
							C73-106.2,78.2-104.2,82.1-104.2 M320.3-144.9c1.3,0,2.7,0.4,4.3,1.2c8.3,4,18.1,13.7,20.8,28.5c0.2,0.9,0.3,1.7,0.5,2.4
							l0,0.1l0,0.1l2.3,12.2l0.6,3.4l-3.2-1.2l-8.4-3.2c-10.9-4.2-17.6-9.2-20.2-22.8l-1.8-9.5c-0.8-4.3-0.4-7.4,1.1-9.3
							C317.4-144.3,318.8-144.9,320.3-144.9 M369.3-77.5l-7.1-38.5c-0.8-4.3-0.5-7.3,1-9.1c0.7-0.8,1.9-1.7,4-1.7
							c0.7,0,1.5,0.1,2.3,0.3l-3.7-20.2l-0.7-0.2L365-147c-0.1,0-0.1-0.1-0.2-0.1l-1.1-0.4l-7.3-2.8c-1.9-0.7-3.6-1.1-5.1-1.1
							c-6.7,0-8.4,7.7-8.8,12.3l-0.6,7l-3-6.3c-9.4-19.8-22.5-27.2-29.4-29.9c-2.5-1-4.7-1.5-6.6-1.5c-2.3,0-4,0.7-5.2,2.2
							c-2.8,3.3-3.3,10.6-1.5,20.4l3.1,16.6c3.9,20.8,10.3,30.1,38.9,41l12.1,4.6L369.3-77.5"/>
					</g>
					<g id="g2474" transform="translate(287.7615,358.4572)">
						<path id="path2476" class="st18" d="M192.7-298.9c-8.7,0-17.3,0.8-25.7,2.4c8.4-1.6,17-2.4,25.8-2.4c3,0,6,0.1,8.9,0.3
							C198.7-298.8,195.7-298.9,192.7-298.9 M253.3-285c9.4,4.6,18.3,10.2,26.4,16.7C271.6-274.8,262.8-280.5,253.3-285"/>
					</g>
				</g>
			</g>
		</g>
		<g id="g2478" transform="translate(-3.0748709,-5.6885111)">
			<g id="g2480">
				<g id="g2486">
					<g id="g2488">
						
							<radialGradient id="path2496_1_" cx="282.0779" cy="-20.2163" r="12.3045" gradientTransform="matrix(18.1526 0 0 -18.1526 -4644.4961 41.832)" gradientUnits="userSpaceOnUse">
							<stop  offset="0" style="stop-color:#7E7C7D"/>
							<stop  offset="1" style="stop-color:#5A5758"/>
						</radialGradient>
						<path id="path2496" class="st19" d="M498.5,67.3c-7.1-1-14.2-1.4-21.1-1.4l0,0c-22.9,0-44.7,5.1-64,14.2l0,0l-3-1.4
							C424,70.7,439,65,454.8,62l0,0c8.4-1.6,17-2.4,25.8-2.4l0,0c3,0,6,0.1,8.9,0.3l0,0c3.2,0.2,6.5,0.5,9.8,1l0,0
							c14.9,2,28.9,6.3,41.7,12.5l0,0c9.4,4.6,18.3,10.2,26.4,16.7l0,0c12.7,10.2,23.6,22.7,32,36.6l0,0
							C577,95.7,541.1,73.1,498.5,67.3"/>
					</g>
				</g>
			</g>
		</g>
	</g>
</g>
</svg>
