<?xml version="1.0" encoding="utf-8"?>
<!-- Generator: Adobe Illustrator 25.0.1, SVG Export Plug-In . SVG Version: 6.00 Build 0)  -->
<svg version="1.1" id="Layer_1" xmlns="http://www.w3.org/2000/svg" xmlns:xlink="http://www.w3.org/1999/xlink" x="0px" y="0px"
	 viewBox="0 0 500 500" style="enable-background:new 0 0 500 500;" xml:space="preserve">
<style type="text/css">
	.st0{display:none;fill:#FFFFFF;}
	.st1{display:none;fill:none;stroke:#FFFFFF;stroke-width:0.5621;stroke-miterlimit:10;}
	.st2{fill:#0A1923;}
	.st3{fill:#112335;}
	.st4{fill:#CFD1CF;}
	.st5{fill:#FFFFFF;}
</style>
<g>
	<g>
		<path class="st0" d="M354.1,355.2c-2.2,0-3.9,1.8-3.9,3.9c0,2.2,1.8,3.9,3.9,3.9c2.2,0,3.9-1.8,3.9-3.9
			C358,357,356.2,355.2,354.1,355.2 M357.4,359.2c0,1.9-1.5,3.4-3.3,3.4c-1.9,0-3.4-1.5-3.4-3.4c0-1.8,1.5-3.3,3.4-3.3
			C355.9,355.8,357.4,357.3,357.4,359.2"/>
		<path class="st0" d="M354,360.8c-0.9,0-1.7-0.8-1.7-1.7c0-0.9,0.8-1.7,1.7-1.7c0.7,0,1.2,0.4,1.5,1h0.5c-0.3-0.8-1.1-1.4-2-1.4
			c-1.2,0-2.1,1-2.1,2.1c0,1.2,1,2.1,2.1,2.1c1,0,1.8-0.6,2-1.5h-0.5C355.3,360.4,354.7,360.8,354,360.8"/>
		<path class="st0" d="M364.7,361.5c-0.2,0.1-0.4,0.2-0.7,0.3c-0.3,0.1-0.5,0.1-0.8,0.1c-0.3,0-0.6,0-0.8-0.2
			c-0.3-0.1-0.5-0.3-0.7-0.5c-0.2-0.3-0.4-0.6-0.5-0.9c-0.1-0.3-0.1-0.7-0.1-1.1c0-0.4,0.1-0.7,0.2-1.1c0.1-0.3,0.3-0.6,0.5-0.9
			c0.2-0.2,0.4-0.4,0.7-0.6c0.3-0.1,0.6-0.2,0.9-0.2c0.2,0,0.5,0,0.7,0.1c0.2,0.1,0.4,0.2,0.6,0.3l-0.3,0.4
			c-0.2-0.1-0.3-0.2-0.5-0.2c-0.2-0.1-0.3-0.1-0.5-0.1c-0.3,0-0.6,0.1-0.8,0.2c-0.2,0.1-0.4,0.4-0.5,0.7c-0.1,0.2-0.1,0.4-0.2,0.6
			c0,0.2,0,0.5,0,0.8c0,0.2,0,0.5,0,0.6c0,0.2,0.1,0.3,0.1,0.5c0.1,0.3,0.3,0.6,0.6,0.7c0.3,0.2,0.5,0.2,0.8,0.2
			c0.2,0,0.4,0,0.5-0.1c0.2-0.1,0.3-0.1,0.5-0.3L364.7,361.5"/>
		<path class="st0" d="M368.6,359.4c0-0.4,0-0.7-0.1-1c0-0.3-0.1-0.5-0.2-0.7c-0.1-0.2-0.2-0.4-0.4-0.5c-0.2-0.1-0.4-0.2-0.7-0.2
			c-0.2,0-0.5,0-0.7,0.1c-0.2,0.1-0.3,0.3-0.4,0.5c-0.1,0.2-0.2,0.4-0.2,0.6c0,0.2-0.1,0.5-0.1,0.8c0,0.4,0,0.8,0.1,1.1
			c0.1,0.3,0.1,0.6,0.2,0.8c0.1,0.1,0.1,0.2,0.2,0.2c0.1,0.1,0.2,0.1,0.3,0.2c0.1,0.1,0.2,0.1,0.3,0.1c0.1,0,0.2,0,0.3,0
			c0.2,0,0.4,0,0.6-0.1c0.2-0.1,0.3-0.2,0.4-0.3c0.1-0.1,0.1-0.2,0.2-0.3c0-0.1,0.1-0.2,0.1-0.3c0-0.1,0.1-0.3,0.1-0.4
			C368.6,359.8,368.6,359.6,368.6,359.4 M369.3,359.3c0,0.5-0.1,0.9-0.2,1.3c-0.1,0.3-0.3,0.6-0.6,0.9c-0.2,0.2-0.4,0.3-0.6,0.4
			c-0.2,0.1-0.4,0.1-0.7,0.1c-0.3,0-0.6,0-0.9-0.2c-0.2-0.1-0.5-0.3-0.6-0.5c-0.4-0.5-0.6-1.2-0.6-2.1c0-0.4,0.1-0.8,0.2-1.1
			c0.1-0.3,0.2-0.6,0.4-0.8c0.2-0.2,0.4-0.4,0.7-0.5c0.3-0.1,0.5-0.2,0.9-0.2c0.2,0,0.4,0,0.6,0.1c0.2,0,0.3,0.1,0.5,0.2
			c0.1,0.1,0.3,0.2,0.3,0.3c0.1,0.1,0.2,0.2,0.2,0.3c0.2,0.2,0.3,0.5,0.4,0.8C369.3,358.5,369.3,358.9,369.3,359.3"/>
		<path class="st0" d="M373,358.2c0-0.4-0.1-0.7-0.3-0.8c-0.1-0.1-0.2-0.2-0.4-0.2c-0.2-0.1-0.4-0.1-0.6-0.1H371v2.1h0.9
			c0.2,0,0.4,0,0.5-0.1c0.1,0,0.2-0.1,0.3-0.2C372.9,358.7,373,358.5,373,358.2 M373.7,358.1c0,0.3,0,0.5-0.1,0.7
			c-0.1,0.2-0.2,0.4-0.4,0.5c-0.2,0.2-0.4,0.3-0.6,0.3c-0.2,0.1-0.4,0.1-0.7,0.1H371v2.1h-0.6v-5.2h1.5c0.3,0,0.5,0,0.7,0
			c0.2,0,0.3,0.1,0.5,0.2C373.5,357.1,373.7,357.5,373.7,358.1"/>
		<path class="st0" d="M376.1,359.8v2h-0.6v-2.1l-1.7-3.2h0.8l1,2c0,0.1,0.1,0.2,0.1,0.3c0,0.1,0.1,0.2,0.1,0.2c0,0.1,0,0.1,0,0.1
			c0.1-0.2,0.2-0.4,0.3-0.6l1-2h0.7L376.1,359.8"/>
		<path class="st0" d="M380.8,358c0-0.2,0-0.3-0.1-0.5c-0.1-0.2-0.2-0.3-0.4-0.3c-0.1,0-0.2-0.1-0.3-0.1c-0.1,0-0.2,0-0.4,0h-0.6v2
			h0.6c0.2,0,0.4,0,0.6-0.1c0.1,0,0.3-0.1,0.4-0.2c0.1-0.1,0.2-0.2,0.2-0.3C380.8,358.3,380.8,358.2,380.8,358 M381,361.8
			c0-0.1-0.1-0.2-0.2-0.3c-0.1-0.1-0.2-0.3-0.3-0.5c-0.1-0.2-0.2-0.4-0.4-0.6c-0.1-0.2-0.3-0.4-0.5-0.6c0-0.1-0.1-0.1-0.1-0.1
			c0,0-0.1-0.1-0.1-0.1c-0.1,0-0.1,0-0.1-0.1c-0.1,0-0.1,0-0.2,0v2.4h-0.6v-5.2h1.2c0.2,0,0.3,0,0.5,0c0.1,0,0.3,0,0.4,0.1
			c0.1,0,0.2,0.1,0.3,0.1c0.1,0,0.1,0.1,0.2,0.1c0.1,0,0.1,0.1,0.2,0.2c0.1,0.1,0.1,0.2,0.2,0.2c0,0.1,0.1,0.2,0.1,0.3
			c0,0.1,0,0.2,0,0.4c0,0.2,0,0.4-0.1,0.6c-0.1,0.2-0.2,0.3-0.3,0.5c-0.1,0.1-0.3,0.2-0.4,0.3c-0.2,0.1-0.4,0.1-0.6,0.1H380
			c0.1,0.1,0.2,0.2,0.3,0.3c0.1,0.1,0.2,0.2,0.2,0.3c0,0.1,0.1,0.2,0.2,0.3c0.1,0.1,0.2,0.3,0.3,0.5c0.1,0.2,0.2,0.3,0.3,0.5
			c0.1,0.2,0.2,0.3,0.2,0.4c0.1,0.1,0.1,0.1,0.1,0.2H381z"/>
		<line class="st1" x1="382.9" y1="361.8" x2="382.9" y2="356.6"/>
		<path class="st0" d="M388.1,361.5c-0.2,0.1-0.4,0.2-0.7,0.3c-0.3,0.1-0.5,0.1-0.8,0.1c-0.7,0-1.2-0.2-1.6-0.7
			c-0.2-0.2-0.4-0.5-0.5-0.9c-0.1-0.3-0.2-0.7-0.2-1.2c0-0.5,0.1-0.9,0.2-1.3c0.1-0.4,0.3-0.7,0.6-0.9c0.4-0.3,0.8-0.5,1.4-0.5
			c0.6,0,1,0.2,1.4,0.5l-0.3,0.4c-0.2-0.2-0.4-0.2-0.6-0.3c-0.2-0.1-0.4-0.1-0.6-0.1c-0.3,0-0.6,0.1-0.8,0.2
			c-0.2,0.1-0.4,0.4-0.5,0.7c-0.1,0.4-0.2,0.8-0.2,1.3c0,0.4,0,0.7,0.1,0.9c0.1,0.3,0.2,0.5,0.3,0.7c0.1,0.1,0.1,0.2,0.2,0.2
			c0.1,0.1,0.2,0.1,0.3,0.2c0.1,0.1,0.2,0.1,0.4,0.1c0.1,0,0.3,0,0.4,0c0.3,0,0.6-0.1,0.8-0.2v-1.6h-1l-0.1-0.5h1.8V361.5"/>
		<polygon class="st0" points="392.2,361.8 392.2,359.3 390,359.3 390,361.8 389.4,361.8 389.4,356.6 390,356.6 390,358.8 
			392.2,358.8 392.2,356.6 392.8,356.6 392.8,361.8 		"/>
		<polygon class="st0" points="397.1,357.1 395.7,357.1 395.7,361.8 395.1,361.8 395.1,357.1 393.7,357.1 393.7,356.6 397.1,356.6 
					"/>
		<path class="st0" d="M402.2,361.8h-2.9v-0.3c0.1-0.1,0.3-0.2,0.5-0.4c0.2-0.2,0.4-0.4,0.6-0.7c0.2-0.2,0.4-0.5,0.5-0.6
			c0.1-0.2,0.3-0.4,0.4-0.6c0.1-0.2,0.2-0.3,0.2-0.5c0-0.1,0.1-0.3,0.1-0.4c0-0.3-0.1-0.5-0.3-0.7c-0.2-0.2-0.4-0.3-0.7-0.3
			c-0.1,0-0.2,0-0.3,0c-0.1,0-0.2,0.1-0.3,0.1c-0.1,0-0.2,0.1-0.3,0.1c-0.1,0.1-0.2,0.1-0.3,0.2l-0.3-0.3c0.3-0.3,0.6-0.4,0.8-0.5
			c0.3-0.1,0.5-0.2,0.8-0.2c0.2,0,0.4,0,0.6,0.1c0.2,0.1,0.3,0.2,0.4,0.3c0.1,0.1,0.2,0.3,0.3,0.4c0.1,0.2,0.1,0.4,0.1,0.6
			c0,0.2-0.1,0.4-0.1,0.7c-0.1,0.2-0.2,0.5-0.4,0.7c-0.2,0.2-0.4,0.5-0.7,0.8c-0.1,0.1-0.2,0.2-0.4,0.4c-0.1,0.1-0.2,0.2-0.3,0.3
			c-0.1,0.1-0.2,0.2-0.3,0.2c-0.1,0.1-0.1,0.1-0.2,0.1h0.1c0.1,0,0.1,0,0.2,0c0.1,0,0.2,0,0.3,0h1.6L402.2,361.8"/>
		<path class="st0" d="M406.2,359.3c0-0.3,0-0.5,0-0.7c0-0.2-0.1-0.4-0.1-0.6c-0.1-0.3-0.2-0.5-0.4-0.6c-0.2-0.1-0.4-0.2-0.6-0.2
			c-0.1,0-0.3,0.1-0.4,0.2c-0.1,0.1-0.3,0.3-0.4,0.5c-0.2,0.3-0.3,0.8-0.3,1.4c0,0.3,0,0.5,0,0.8c0,0.2,0.1,0.4,0.1,0.6
			c0.1,0.3,0.2,0.5,0.4,0.6c0.2,0.2,0.3,0.2,0.5,0.2c0.2,0,0.3-0.1,0.5-0.2c0.2-0.1,0.3-0.3,0.4-0.5c0.1-0.2,0.1-0.4,0.2-0.6
			C406.2,359.9,406.2,359.6,406.2,359.3 M406.9,359.3c0,0.4-0.1,0.7-0.1,1.1c-0.1,0.3-0.2,0.6-0.4,0.8c-0.2,0.2-0.3,0.4-0.6,0.5
			c-0.2,0.1-0.5,0.2-0.7,0.2c-0.3,0-0.6-0.1-0.8-0.3c-0.2-0.2-0.4-0.4-0.5-0.7c-0.1-0.3-0.2-0.6-0.3-0.9c-0.1-0.3-0.1-0.6-0.1-0.9
			c0-0.3,0-0.7,0.1-1c0.1-0.3,0.2-0.6,0.4-0.8c0.2-0.2,0.3-0.4,0.6-0.5c0.2-0.1,0.4-0.2,0.7-0.2c0.2,0,0.4,0,0.6,0.1
			c0.2,0.1,0.3,0.2,0.5,0.3c0.1,0.1,0.2,0.3,0.3,0.4c0.1,0.2,0.2,0.4,0.2,0.5c0.1,0.2,0.1,0.4,0.1,0.6
			C406.8,359,406.9,359.1,406.9,359.3"/>
		<path class="st0" d="M411.1,359.3c0,0.4,0,0.7-0.1,1.1c-0.1,0.3-0.2,0.6-0.4,0.8c-0.2,0.2-0.3,0.4-0.6,0.5
			c-0.2,0.1-0.5,0.2-0.7,0.2c-0.3,0-0.6-0.1-0.8-0.3c-0.2-0.2-0.4-0.4-0.5-0.7c-0.1-0.3-0.2-0.6-0.3-0.9c-0.1-0.3-0.1-0.6-0.1-0.9
			c0-0.3,0-0.7,0.1-1c0.1-0.3,0.2-0.6,0.4-0.8c0.2-0.2,0.4-0.4,0.6-0.5c0.2-0.1,0.4-0.2,0.7-0.2c0.2,0,0.4,0,0.6,0.1
			c0.2,0.1,0.3,0.2,0.5,0.3c0.1,0.1,0.2,0.3,0.3,0.4c0.1,0.2,0.2,0.4,0.2,0.5c0.1,0.2,0.1,0.4,0.1,0.6
			C411.1,359,411.1,359.1,411.1,359.3"/>
	</g>
</g>
<g transform="matrix(1.41113 0 0 1.41113 10.8775 -332.197)">
	<path class="st2" d="M250.8,269.9L168.7,239l-82.1,30.9L63.8,452.7L168.7,514l104.8-61.3L250.8,269.9z"/>
	<path class="st3" d="M168.7,239l-82.1,30.9L63.8,452.7L168.7,514"/>
	<path class="st4" d="M80.9,444.2l20.3-162.8l67.5-25.4l67.5,25.4l20.3,162.8l-87.7,51.3L80.9,444.2z M243.4,275.6l-74.8-28.1
		l-74.8,28.1L72.4,448.4l96.3,56.3l96.3-56.3L243.4,275.6z"/>
	<path class="st4" d="M168.7,364.5l-11,10.6l11-81l11,81L168.7,364.5z M182.9,280.6h-28.5L136,416.1l-36.3,5.7
		c-2.2,0.3-3.6,2.3-3.4,4.5l1.4,11.3c0.3,2.4,2.6,3.9,4.9,3.4l41.3-9.6c3.8-0.9,6.6-4,7.1-7.8l3.1-23.1l14.5-13.9l14.5,13.9
		l3.1,23.1c0.5,3.8,3.4,7,7.1,7.8l41.3,9.6c2.3,0.5,4.6-1,4.9-3.4l1.4-11.3c0.3-2.2-1.2-4.1-3.4-4.5l-36.3-5.7L182.9,280.6z"/>
	<path class="st4" d="M200.2,367.3h11.7l5.8,45.9l16.4,2.6l-15.4-122.6l-16.9-6.3l8.1,64.4H198L200.2,367.3z"/>
	<path class="st4" d="M125.5,367.3h11.7l2.2-16h-11.9l8.1-64.4l-16.9,6.3l-15.4,122.6l16.4-2.6L125.5,367.3z"/>
	<path class="st4" d="M186.2,446.3c-3.6-2.5-10.1-4.2-17.5-4.2c-7.4,0-13.9,1.7-17.5,4.2c-1.5,1.1-3,2.6-3,4.5v10.6
		c0,4.8,9.2,8.6,20.5,8.6c11.3,0,20.5-3.9,20.5-8.6v-10.6C189.2,448.9,187.7,447.4,186.2,446.3"/>
	<path class="st5" d="M168.7,256v-8.5l-74.8,28.1L72.4,448.4l96.3,56.3v-9.2l-87.7-51.3l20.3-162.8L168.7,256z"/>
	<path class="st5" d="M232.2,430.6L232.2,430.6l-38-7.5l-3.6-26.5l-22-21.2v11.1l14.5,13.9l3.1,23.1c0.5,3.8,3.4,7,7.1,7.8l41.3,9.6
		c1.2,0.3,2.4,0,3.3-0.7L232.2,430.6"/>
	<path class="st5" d="M157.7,375.1l-11,21.7l22-21.2v-11.1L157.7,375.1z"/>
	<path class="st5" d="M175.8,287.3l-7.1,6.7l11,81l11,21.7L175.8,287.3l7.1-6.7h-28.5L136,416.1l-36.3,5.7c-2.1,0.3-3.6,2.3-3.4,4.5
		l1.4,11.3c0.1,1.1,0.7,2.1,1.6,2.7l5.8-9.7l0,0l0,0l38-7.5l3.6-26.5l14.9-109.4L175.8,287.3"/>
	<path class="st5" d="M198,351.4l1.1,8h19.8l-7.7-60.9l-9.5-11.4l8.1,64.4L198,351.4z"/>
	<path class="st5" d="M217.6,413.2L217.6,413.2l16.4,2.6l-9.1-8.6l-6-47.9l-7,8L217.6,413.2"/>
	<path class="st5" d="M112.4,407.2l13.7-108.9l9.5-11.5l-16.9,6.3l-15.4,122.6L112.4,407.2z"/>
	<path class="st5" d="M127.5,351.4l-9,8h19.8l1.1-8H127.5z"/>
	<path class="st5" d="M168.7,466.9c-11.2,0-17.3-3.8-17.3-5.4v-6c3.6,2.4,10,4,17.3,4c7.3,0,13.7-1.6,17.3-4v6
		C186,463,179.9,466.9,168.7,466.9z M186.2,446.3c-3.6-2.5-10.1-4.2-17.5-4.2c-7.4,0-13.9,1.7-17.5,4.2c-1.5,1.1-3,2.6-3,4.5v10.6
		c0,4.8,9.2,8.6,20.5,8.6c11.3,0,20.5-3.9,20.5-8.6v-10.6C189.2,448.9,187.7,447.4,186.2,446.3"/>
	<g>
		<path class="st3" d="M72,575.7h4.4l-2.2-8.2L72,575.7z M79.1,585.5l-1.3-4.8h-7.1l-1.3,4.8h-5.5l7.9-25.6h5.1l7.8,25.6H79.1z"/>
		<path class="st3" d="M91.6,580.5h8.7v4.9h-14v-25.6h5.3V580.5z"/>
		<path class="st3" d="M108.4,580.5h8.8v4.9h-14v-25.6h5.3V580.5z"/>
		<path class="st3" d="M130.1,567.5c0-2.3-1.7-3.2-3-3.2c-1.3,0-2.7,0.8-2.7,2.2c0,1.5,1.3,2.3,3.1,3l2,0.8c4,1.5,6.4,3.9,6.4,7.9
			c0,5.2-4.4,7.8-8.6,7.8c-4.4,0-8.7-2.8-8.7-8.5v-0.5h5.3v0.4c0,2.2,1.4,3.6,3.5,3.6c1.8,0,3.4-0.8,3.4-2.6c0-1.9-1.8-2.7-3.2-3.3
			l-2.1-0.8c-4.6-1.8-6.2-4.1-6.2-7.5c0-4.4,3.3-7.5,8-7.5c4.5,0,8.1,3.4,8.1,7.8v0.8h-5.1V567.5z"/>
		<path class="st3" d="M148.5,585.5h-5.1l-7.8-25.6h5.5l4.9,17.3l4.8-17.3h5.6L148.5,585.5z"/>
		<path class="st3" d="M163.3,564.8v5h7.1v5h-7.1v5.7h9.2v4.9H158v-25.6h14.5v4.9L163.3,564.8z"/>
		<path class="st3" d="M192.8,585.5H188l-8-15.1v15.1h-5.3v-25.6h5l7.8,14.4v-14.4h5.2V585.5z"/>
		<path class="st3" d="M206.6,567.5c0-2.3-1.7-3.2-3-3.2c-1.3,0-2.7,0.8-2.7,2.2c0,1.5,1.3,2.3,3.1,3l2,0.8c4,1.5,6.4,3.9,6.4,7.9
			c0,5.2-4.4,7.8-8.6,7.8c-4.4,0-8.7-2.8-8.7-8.5v-0.5h5.3v0.4c0,2.2,1.4,3.6,3.5,3.6c1.8,0,3.4-0.8,3.4-2.6c0-1.9-1.8-2.7-3.2-3.3
			l-2.1-0.8c-4.7-1.8-6.2-4.1-6.2-7.5c0-4.4,3.3-7.5,8-7.5c4.5,0,8.1,3.4,8.1,7.8v0.8h-5.2V567.5z"/>
		<path class="st3" d="M232.1,559.9l-7.4,11.3l8.1,14.3h-6l-5.5-10.4l-1.6,2.3v8.1h-5.3v-25.6h5.3v10.2l6.3-10.2H232.1z"/>
		<path class="st3" d="M241.3,575.7h4.4l-2.2-8.2L241.3,575.7z M248.4,585.5l-1.3-4.8H240l-1.3,4.8h-5.5l7.9-25.6h5.1l7.8,25.6
			H248.4z"/>
		<path class="st3" d="M273.5,585.5h-4.8l-8-15.1v15.1h-5.3v-25.6h5l7.8,14.4v-14.4h5.2V585.5z"/>
		<path class="st3" d="M127.3,529.1v25.6H122V544h-6.9v10.7h-5.3v-25.6h5.3v9.9h6.9v-9.9H127.3z"/>
		<path class="st3" d="M135.2,537.4v8.9c0,2.1,1.3,3.9,3.8,3.9s3.8-1.8,3.8-3.9v-8.9c0-2.1-1.3-3.9-3.8-3.9S135.2,535.3,135.2,537.4
			z M148,537.4v8.9c0,4.8-3.4,8.9-9,8.9c-5.7,0-9-4.1-9-8.9v-8.9c0-4.8,3.4-8.9,9-8.9C144.6,528.5,148,532.6,148,537.4"/>
		<path class="st3" d="M168.4,546.3c0,4.8-3.3,8.9-8.9,8.9c-5.5,0-8.8-4.1-8.8-8.9v-8.9c0-4.8,3.3-8.9,8.8-8.9
			c5.5,0,8.8,4.1,8.8,9.1v0.2h-5.3v-0.2c0-2.2-1.3-4.1-3.5-4.1c-2.3,0-3.5,1.9-3.5,3.9v8.9c0,2.1,1.1,3.9,3.5,3.9
			c2.3,0,3.6-1.8,3.6-3.9v-0.5h5.3L168.4,546.3z"/>
		<path class="st3" d="M188.9,529.1l-7.4,11.3l8.1,14.3h-6l-5.5-10.4l-1.6,2.3v8.1h-5.3v-25.6h5.3v10.2l6.3-10.2H188.9z"/>
		<path class="st3" d="M196.4,534v5h7.1v5h-7.1v5.7h9.2v4.9h-14.5v-25.6h14.5v4.9L196.4,534z"/>
		<path class="st3" d="M219.7,542v12.6h-5.3v-12.5l-8-13h6.2l4.4,7.7l4.3-7.7h6.2L219.7,542z"/>
	</g>
</g>
</svg>
