<?xml version="1.0" encoding="utf-8"?>
<!-- Generator: Adobe Illustrator 25.0.1, SVG Export Plug-In . SVG Version: 6.00 Build 0)  -->
<svg version="1.1" id="Layer_1" xmlns="http://www.w3.org/2000/svg" xmlns:xlink="http://www.w3.org/1999/xlink" x="0px" y="0px"
	 viewBox="0 0 500 500" style="enable-background:new 0 0 500 500;" xml:space="preserve">
<style type="text/css">
	.st0{display:none;fill:#FFFFFF;}
	.st1{display:none;fill:none;stroke:#FFFFFF;stroke-width:0.5621;stroke-miterlimit:10;}
	.st2{fill:#01824E;}
	.st3{fill:#FFFFFF;stroke:#01824E;stroke-width:7;stroke-miterlimit:10;}
	.st4{fill:#B1B2AF;}
	.st5{fill:#FDFFFF;}
	.st6{fill:#E52833;}
	.st7{fill:#01904C;}
	.st8{fill:#058137;}
	.st9{fill:#EE7A33;}
	.st10{fill:#0769AE;}
	.st11{fill:#FFFFFF;}
	.st12{fill:#F3F7F9;}
	.st13{fill:#E4EFF7;}
	.st14{fill:#C61F2C;}
	.st15{fill:#D4E4EE;}
	.st16{fill:#DA7331;}
	.st17{fill:#E2EDF4;}
	.st18{fill:#D4212E;}
	.st19{fill:none;stroke:#B1B2AF;stroke-width:6;stroke-miterlimit:10;}
</style>
<g>
	<g>
		<path class="st0" d="M354.1,355.2c-2.2,0-3.9,1.8-3.9,3.9c0,2.2,1.8,3.9,3.9,3.9c2.2,0,3.9-1.8,3.9-3.9S356.2,355.2,354.1,355.2
			 M357.4,359.2c0,1.9-1.5,3.4-3.3,3.4c-1.9,0-3.4-1.5-3.4-3.4c0-1.8,1.5-3.3,3.4-3.3C355.9,355.8,357.4,357.3,357.4,359.2"/>
		<path class="st0" d="M354,360.8c-0.9,0-1.7-0.8-1.7-1.7c0-0.9,0.8-1.7,1.7-1.7c0.7,0,1.2,0.4,1.5,1h0.5c-0.3-0.8-1.1-1.4-2-1.4
			c-1.2,0-2.1,1-2.1,2.1c0,1.2,1,2.1,2.1,2.1c1,0,1.8-0.6,2-1.5h-0.5C355.3,360.4,354.7,360.8,354,360.8"/>
		<path class="st0" d="M364.7,361.5c-0.2,0.1-0.4,0.2-0.7,0.3c-0.3,0.1-0.5,0.1-0.8,0.1s-0.6,0-0.8-0.2c-0.3-0.1-0.5-0.3-0.7-0.5
			c-0.2-0.3-0.4-0.6-0.5-0.9s-0.1-0.7-0.1-1.1s0.1-0.7,0.2-1.1c0.1-0.3,0.3-0.6,0.5-0.9c0.2-0.2,0.4-0.4,0.7-0.6
			c0.3-0.1,0.6-0.2,0.9-0.2c0.2,0,0.5,0,0.7,0.1s0.4,0.2,0.6,0.3l-0.3,0.4c-0.2-0.1-0.3-0.2-0.5-0.2c-0.2-0.1-0.3-0.1-0.5-0.1
			c-0.3,0-0.6,0.1-0.8,0.2c-0.2,0.1-0.4,0.4-0.5,0.7c-0.1,0.2-0.1,0.4-0.2,0.6c0,0.2,0,0.5,0,0.8c0,0.2,0,0.5,0,0.6
			c0,0.2,0.1,0.3,0.1,0.5c0.1,0.3,0.3,0.6,0.6,0.7c0.3,0.2,0.5,0.2,0.8,0.2c0.2,0,0.4,0,0.5-0.1c0.2-0.1,0.3-0.1,0.5-0.3
			L364.7,361.5"/>
		<path class="st0" d="M368.6,359.4c0-0.4,0-0.7-0.1-1c0-0.3-0.1-0.5-0.2-0.7s-0.2-0.4-0.4-0.5c-0.2-0.1-0.4-0.2-0.7-0.2
			c-0.2,0-0.5,0-0.7,0.1s-0.3,0.3-0.4,0.5s-0.2,0.4-0.2,0.6s-0.1,0.5-0.1,0.8c0,0.4,0,0.8,0.1,1.1c0.1,0.3,0.1,0.6,0.2,0.8
			c0.1,0.1,0.1,0.2,0.2,0.2c0.1,0.1,0.2,0.1,0.3,0.2c0.1,0.1,0.2,0.1,0.3,0.1c0.1,0,0.2,0,0.3,0c0.2,0,0.4,0,0.6-0.1
			s0.3-0.2,0.4-0.3c0.1-0.1,0.1-0.2,0.2-0.3c0-0.1,0.1-0.2,0.1-0.3c0-0.1,0.1-0.3,0.1-0.4C368.6,359.8,368.6,359.6,368.6,359.4
			 M369.3,359.3c0,0.5-0.1,0.9-0.2,1.3c-0.1,0.3-0.3,0.6-0.6,0.9c-0.2,0.2-0.4,0.3-0.6,0.4s-0.4,0.1-0.7,0.1c-0.3,0-0.6,0-0.9-0.2
			c-0.2-0.1-0.5-0.3-0.6-0.5c-0.4-0.5-0.6-1.2-0.6-2.1c0-0.4,0.1-0.8,0.2-1.1c0.1-0.3,0.2-0.6,0.4-0.8c0.2-0.2,0.4-0.4,0.7-0.5
			c0.3-0.1,0.5-0.2,0.9-0.2c0.2,0,0.4,0,0.6,0.1c0.2,0,0.3,0.1,0.5,0.2c0.1,0.1,0.3,0.2,0.3,0.3c0.1,0.1,0.2,0.2,0.2,0.3
			c0.2,0.2,0.3,0.5,0.4,0.8C369.3,358.5,369.3,358.9,369.3,359.3"/>
		<path class="st0" d="M373,358.2c0-0.4-0.1-0.7-0.3-0.8c-0.1-0.1-0.2-0.2-0.4-0.2c-0.2-0.1-0.4-0.1-0.6-0.1H371v2.1h0.9
			c0.2,0,0.4,0,0.5-0.1c0.1,0,0.2-0.1,0.3-0.2C372.9,358.7,373,358.5,373,358.2 M373.7,358.1c0,0.3,0,0.5-0.1,0.7s-0.2,0.4-0.4,0.5
			c-0.2,0.2-0.4,0.3-0.6,0.3c-0.2,0.1-0.4,0.1-0.7,0.1H371v2.1h-0.6v-5.2h1.5c0.3,0,0.5,0,0.7,0s0.3,0.1,0.5,0.2
			C373.5,357.1,373.7,357.5,373.7,358.1"/>
		<path class="st0" d="M376.1,359.8v2h-0.6v-2.1l-1.7-3.2h0.8l1,2c0,0.1,0.1,0.2,0.1,0.3c0,0.1,0.1,0.2,0.1,0.2c0,0.1,0,0.1,0,0.1
			c0.1-0.2,0.2-0.4,0.3-0.6l1-2h0.7L376.1,359.8"/>
		<path class="st0" d="M380.8,358c0-0.2,0-0.3-0.1-0.5s-0.2-0.3-0.4-0.3c-0.1,0-0.2-0.1-0.3-0.1c-0.1,0-0.2,0-0.4,0H379v2h0.6
			c0.2,0,0.4,0,0.6-0.1c0.1,0,0.3-0.1,0.4-0.2s0.2-0.2,0.2-0.3C380.8,358.3,380.8,358.2,380.8,358 M381,361.8c0-0.1-0.1-0.2-0.2-0.3
			c-0.1-0.1-0.2-0.3-0.3-0.5c-0.1-0.2-0.2-0.4-0.4-0.6c-0.1-0.2-0.3-0.4-0.5-0.6c0-0.1-0.1-0.1-0.1-0.1l-0.1-0.1
			c-0.1,0-0.1,0-0.1-0.1c-0.1,0-0.1,0-0.2,0v2.4h-0.6v-5.2h1.2c0.2,0,0.3,0,0.5,0c0.1,0,0.3,0,0.4,0.1c0.1,0,0.2,0.1,0.3,0.1
			c0.1,0,0.1,0.1,0.2,0.1s0.1,0.1,0.2,0.2s0.1,0.2,0.2,0.2c0,0.1,0.1,0.2,0.1,0.3c0,0.1,0,0.2,0,0.4c0,0.2,0,0.4-0.1,0.6
			s-0.2,0.3-0.3,0.5c-0.1,0.1-0.3,0.2-0.4,0.3c-0.2,0.1-0.4,0.1-0.6,0.1H380c0.1,0.1,0.2,0.2,0.3,0.3c0.1,0.1,0.2,0.2,0.2,0.3
			c0,0.1,0.1,0.2,0.2,0.3c0.1,0.1,0.2,0.3,0.3,0.5c0.1,0.2,0.2,0.3,0.3,0.5c0.1,0.2,0.2,0.3,0.2,0.4c0.1,0.1,0.1,0.1,0.1,0.2H381
			V361.8z"/>
		<line class="st1" x1="382.9" y1="361.8" x2="382.9" y2="356.6"/>
		<path class="st0" d="M388.1,361.5c-0.2,0.1-0.4,0.2-0.7,0.3c-0.3,0.1-0.5,0.1-0.8,0.1c-0.7,0-1.2-0.2-1.6-0.7
			c-0.2-0.2-0.4-0.5-0.5-0.9c-0.1-0.3-0.2-0.7-0.2-1.2s0.1-0.9,0.2-1.3s0.3-0.7,0.6-0.9c0.4-0.3,0.8-0.5,1.4-0.5s1,0.2,1.4,0.5
			l-0.3,0.4c-0.2-0.2-0.4-0.2-0.6-0.3c-0.2-0.1-0.4-0.1-0.6-0.1c-0.3,0-0.6,0.1-0.8,0.2c-0.2,0.1-0.4,0.4-0.5,0.7
			c-0.1,0.4-0.2,0.8-0.2,1.3c0,0.4,0,0.7,0.1,0.9c0.1,0.3,0.2,0.5,0.3,0.7c0.1,0.1,0.1,0.2,0.2,0.2c0.1,0.1,0.2,0.1,0.3,0.2
			c0.1,0.1,0.2,0.1,0.4,0.1c0.1,0,0.3,0,0.4,0c0.3,0,0.6-0.1,0.8-0.2v-1.6h-1l-0.1-0.5h1.8L388.1,361.5"/>
		<polygon class="st0" points="392.2,361.8 392.2,359.3 390,359.3 390,361.8 389.4,361.8 389.4,356.6 390,356.6 390,358.8 
			392.2,358.8 392.2,356.6 392.8,356.6 392.8,361.8 		"/>
		<polygon class="st0" points="397.1,357.1 395.7,357.1 395.7,361.8 395.1,361.8 395.1,357.1 393.7,357.1 393.7,356.6 397.1,356.6 
					"/>
		<path class="st0" d="M402.2,361.8h-2.9v-0.3c0.1-0.1,0.3-0.2,0.5-0.4c0.2-0.2,0.4-0.4,0.6-0.7c0.2-0.2,0.4-0.5,0.5-0.6
			c0.1-0.2,0.3-0.4,0.4-0.6s0.2-0.3,0.2-0.5c0-0.1,0.1-0.3,0.1-0.4c0-0.3-0.1-0.5-0.3-0.7c-0.2-0.2-0.4-0.3-0.7-0.3
			c-0.1,0-0.2,0-0.3,0c-0.1,0-0.2,0.1-0.3,0.1c-0.1,0-0.2,0.1-0.3,0.1c-0.1,0.1-0.2,0.1-0.3,0.2l-0.3-0.3c0.3-0.3,0.6-0.4,0.8-0.5
			c0.3-0.1,0.5-0.2,0.8-0.2c0.2,0,0.4,0,0.6,0.1s0.3,0.2,0.4,0.3c0.1,0.1,0.2,0.3,0.3,0.4c0.1,0.2,0.1,0.4,0.1,0.6s-0.1,0.4-0.1,0.7
			c-0.1,0.2-0.2,0.5-0.4,0.7c-0.2,0.2-0.4,0.5-0.7,0.8c-0.1,0.1-0.2,0.2-0.4,0.4c-0.1,0.1-0.2,0.2-0.3,0.3c-0.1,0.1-0.2,0.2-0.3,0.2
			c-0.1,0.1-0.1,0.1-0.2,0.1h0.1c0.1,0,0.1,0,0.2,0s0.2,0,0.3,0h1.6L402.2,361.8"/>
		<path class="st0" d="M406.2,359.3c0-0.3,0-0.5,0-0.7s-0.1-0.4-0.1-0.6c-0.1-0.3-0.2-0.5-0.4-0.6c-0.2-0.1-0.4-0.2-0.6-0.2
			c-0.1,0-0.3,0.1-0.4,0.2s-0.3,0.3-0.4,0.5c-0.2,0.3-0.3,0.8-0.3,1.4c0,0.3,0,0.5,0,0.8c0,0.2,0.1,0.4,0.1,0.6
			c0.1,0.3,0.2,0.5,0.4,0.6c0.2,0.2,0.3,0.2,0.5,0.2s0.3-0.1,0.5-0.2s0.3-0.3,0.4-0.5s0.1-0.4,0.2-0.6
			C406.2,359.9,406.2,359.6,406.2,359.3 M406.9,359.3c0,0.4-0.1,0.7-0.1,1.1c-0.1,0.3-0.2,0.6-0.4,0.8c-0.2,0.2-0.3,0.4-0.6,0.5
			c-0.2,0.1-0.5,0.2-0.7,0.2c-0.3,0-0.6-0.1-0.8-0.3c-0.2-0.2-0.4-0.4-0.5-0.7c-0.1-0.3-0.2-0.6-0.3-0.9c-0.1-0.3-0.1-0.6-0.1-0.9
			s0-0.7,0.1-1s0.2-0.6,0.4-0.8c0.2-0.2,0.3-0.4,0.6-0.5c0.2-0.1,0.4-0.2,0.7-0.2c0.2,0,0.4,0,0.6,0.1s0.3,0.2,0.5,0.3
			c0.1,0.1,0.2,0.3,0.3,0.4c0.1,0.2,0.2,0.4,0.2,0.5c0.1,0.2,0.1,0.4,0.1,0.6C406.8,359,406.9,359.1,406.9,359.3"/>
		<path class="st0" d="M411.1,359.3c0,0.4,0,0.7-0.1,1.1c-0.1,0.3-0.2,0.6-0.4,0.8c-0.2,0.2-0.3,0.4-0.6,0.5
			c-0.2,0.1-0.5,0.2-0.7,0.2c-0.3,0-0.6-0.1-0.8-0.3c-0.2-0.2-0.4-0.4-0.5-0.7c-0.1-0.3-0.2-0.6-0.3-0.9c-0.1-0.3-0.1-0.6-0.1-0.9
			s0-0.7,0.1-1s0.2-0.6,0.4-0.8c0.2-0.2,0.4-0.4,0.6-0.5s0.4-0.2,0.7-0.2c0.2,0,0.4,0,0.6,0.1s0.3,0.2,0.5,0.3
			c0.1,0.1,0.2,0.3,0.3,0.4c0.1,0.2,0.2,0.4,0.2,0.5c0.1,0.2,0.1,0.4,0.1,0.6C411.1,359,411.1,359.1,411.1,359.3"/>
	</g>
</g>
<g>
	<path class="st2" d="M250,470.5c-52.9-0.4-92.5-6.3-136.4-23.5c-16.5-6.4-21.1-8-21.1-26.4V60.5c0-18.4,4.1-17.4,20.3-24.6
		C134.9,26.2,197.1,16.4,250,16c52.9,0.4,113.7,10.1,135.8,19.9c16.2,7.1,20.3,6.2,20.3,24.6v360.2c0,18.4-4.6,19.9-21.1,26.4
		C341.1,464.2,302.9,470.2,250,470.5z"/>
	<path class="st3" d="M249.8,361.9c-51.6-0.3-90.1-6.2-132.9-22.9c-16.1-6.3-20.6-7.8-20.6-25.7V62.6c0-17.9,4-17,19.8-23.9
		c21.6-9.5,82.1-19,133.7-19.4c51.6,0.3,110.8,9.9,132.3,19.4c15.8,7,19.8,6,19.8,23.9v250.8c0,17.9-4.5,19.4-20.6,25.7
		C338.5,355.7,301.4,361.5,249.8,361.9z"/>
	<path id="path254_5_" class="st4" d="M399.4,470.5l-0.6-1.1"/>
	<g>
		<path class="st5" d="M300.1,487.6c1-0.1,1.8-0.1,2.6-0.2c3.3-0.4,6.6-0.7,9.8-1.2c9.4-1.6,18.9-3,28.3-4.9
			c14.8-2.9,29.4-6.9,43.5-12.2c6.1-2.3,12.2-4.7,17.7-8.3c2-1.3,3.8-2.9,5.7-4.4c1-0.8,1.4-2,1.4-3.4c-0.1-3.2,0-6.5,0-9.7
			c0-0.4-0.1-0.8-0.2-1.2c-0.2,0.2-0.4,0.2-0.4,0.3c-3.7,5.2-8.7,8.8-14.5,11.3c-2.7,1.2-5.4,2.2-8.1,3.2
			c-25.5,9.6-52,14.8-78.9,18.3c-2.6,0.3-5.1,0.6-7.9,1C299.4,480.1,299.7,483.8,300.1,487.6z M89.7,441.7c0,3.6,0.1,7.2,0,10.8
			c0,1.5,0.4,2.6,1.4,3.6c0.8,0.7,1.5,1.6,2.4,2.1c2.6,1.6,5.1,3.3,7.8,4.7c6.7,3.5,13.8,6.1,21,8.4c23.2,7.6,47,12.2,71.1,15.2
			c1.7,0.2,3.4,0.3,5.3,0.5c0.3-3.9,0.9-7.6,1-11.4c-2.8-0.3-5.4-0.6-8-0.9c-11.4-1.5-22.7-3.3-34-5.6c-17.1-3.6-33.9-8.2-50.1-14.7
			C100.7,451.7,94.5,447.9,89.7,441.7z"/>
		<path class="st6" d="M300.1,487.6c-0.4-3.8-0.7-7.5-1.1-11.3c2.8-0.3,5.4-0.6,7.9-1c26.9-3.5,53.4-8.7,78.9-18.3
			c2.7-1,5.5-2.1,8.1-3.2c5.8-2.5,10.8-6.1,14.5-11.3c0.1-0.1,0.2-0.1,0.4-0.3c0.1,0.5,0.2,0.9,0.2,1.2c0,3.2,0,6.5,0,9.7
			c0,1.4-0.4,2.5-1.4,3.4c-1.8,1.5-3.7,3.2-5.7,4.4c-5.5,3.5-11.6,6-17.7,8.3c-14.2,5.3-28.7,9.2-43.5,12.2
			c-9.4,1.9-18.9,3.3-28.3,4.9c-3.3,0.5-6.5,0.8-9.8,1.2C301.9,487.5,301.1,487.5,300.1,487.6z"/>
		<path class="st7" d="M89.7,441.7c4.8,6.1,10.9,9.9,17.9,12.7c16.2,6.5,33,11.2,50.1,14.7c11.2,2.3,22.6,4.1,34,5.6
			c2.6,0.3,5.2,0.6,8,0.9c-0.1,3.8-0.7,7.5-1,11.4c-1.9-0.2-3.6-0.3-5.3-0.5c-24.2-3-48-7.6-71.1-15.2c-7.2-2.4-14.3-4.9-21-8.4
			c-2.7-1.4-5.2-3.1-7.8-4.7c-0.9-0.6-1.6-1.4-2.4-2.1c-1-1-1.5-2.1-1.4-3.6C89.8,449,89.7,445.4,89.7,441.7z"/>
		<path class="st8" d="M219.1,288.3c-0.1-7.6,2.5-14,7.8-19.3c5.1-5.1,10.9-9.1,16.8-13c7.7-5,15.6-9.7,23.2-14.9
			c5.2-3.5,10.2-7.3,15.1-11.3c2.4-2,4.5-4.6,6.2-7.2c3.2-4.9,2.8-9.5-0.6-14.2c-1.8-2.5-4.2-4.3-6.9-5.6
			c-5.5-2.7-11.3-4.1-17.3-4.8c-9.2-1.1-18.5-1.9-27.7-2.9c-7.6-0.8-15.3-1.2-22.7-3.3c-2.1-0.6-4.2-1.3-6.1-2.2
			c-1.4-0.6-2.7-1.5-3.9-2.5c-3.4-3-3.8-6.6-1-10.1c1.6-2,3.6-3.9,5.7-5.5c3.8-2.7,7.7-5.3,11.7-7.5c8.6-4.9,17.5-9.4,26.1-14.3
			c5.8-3.3,11.5-6.7,17-10.4c3.2-2.1,6.2-4.8,9.1-7.4c1.2-1,2.1-2.3,3-3.6c3-4.5,2.7-8.3-1.3-11.9c-2-1.8-4.4-3.3-6.7-4.6
			c-7.1-3.8-14.8-6-22.6-7.9c-14.1-3.5-28.3-5.9-42.7-7.8c-6-0.8-12.1-1.4-18.1-2.4c-3.6-0.6-7.1-1.6-10.5-2.8
			c-11.2-3.9-21.8-9.1-31.7-15.7c-3.2-2.1-6.1-4.6-9-7.1c-1-0.9-1.8-2-2.5-3.2c-1.4-2.5-0.5-4.9,2.2-5.6c2.1-0.6,4.3-0.8,6.5-0.6
			c4.4,0.3,8.7,0.8,13,1.5c27.3,4.2,54,11,79.9,20.6c12.8,4.7,25.4,10,37.1,17.1c4.4,2.7,8.7,5.7,12.7,8.9c2.5,1.9,4.7,4.4,6.6,6.9
			c4.3,5.6,4.4,11.6,0.7,17.5c-1.6,2.4-3.5,4.7-5.6,6.7c-4.2,4.2-9.1,7.6-14.1,10.8c-6.2,4-12.5,7.8-18.7,11.8
			c-2.9,1.9-5.7,3.9-8.3,6.2c-4.3,3.9-3.9,6.3,1.5,8.1c4.8,1.6,9.8,2.8,14.8,3.9c11.7,2.5,23.6,4.7,35.3,7.2
			c6.8,1.5,13.5,3.7,19.7,7.1c2.7,1.5,5.3,3.2,7.6,5.2c5.9,5.3,7.5,11.9,5,19.4c-1.2,3.6-3.2,6.8-5.4,9.7
			c-4.8,6.3-10.4,11.7-16.5,16.7c-9.2,7.6-18.6,15-27.9,22.4c-7.5,6.1-14.9,12.3-21.6,19.3c-6.8,7.2-7.7,15.3-4.2,24.2
			c0.4,1,1,1.9,1.4,3c1.5,3.8-1.1,7.3-5.2,7c-0.7-0.1-1.4-0.3-2.1-0.5c-11.1-3.8-18.8-11.2-23.3-22
			C219.5,294.6,219.1,291.4,219.1,288.3z"/>
		<path class="st9" d="M117.3,297.1c0.3-11,3.9-19.4,9.9-26.8c7.2-8.7,16.3-14.7,26.5-19.3c11.6-5.3,23.2-10.6,33.9-17.5
			c4.1-2.6,7.6-5.9,9.7-10.4c2.5-5.3,3-10.6,0.7-16.1c-0.2-0.6-0.5-1.2-0.6-1.8c-0.5-2.4,0.7-3.9,3.1-4c0.8,0,1.7,0,2.4,0.2
			c6.8,2,13.1,5,18.3,10c2.6,2.5,4.5,5.4,5.3,9c0.9,3.9,0,7.6-1.8,11.1c-2.6,5.2-6.5,9.2-10.8,12.9c-8.5,7.3-18.1,12.9-27.9,18
			c-5.2,2.7-10.5,5.1-15.6,7.8c-12.1,6.3-23.1,14-32,24.3c-3,3.5-5.5,7.4-8.3,11.2c-0.9,1.2-1.7,2.4-2.7,3.4
			c-2.4,2.1-5.2,1.8-7.1-0.7c-0.8-1-1.4-2.4-1.7-3.7C118,301.8,117.6,298.8,117.3,297.1z"/>
		<path class="st10" d="M270.2,65.2c0.3-1.7,0.6-4.8,1.5-7.6c3.3-10,12.4-14.7,22.5-11.9c6.2,1.7,11.1,5.4,15.2,10.2
			c5.6,6.7,8.9,14.4,9.4,23.1c0.2,3.6-0.2,7.1-1.4,10.5c-3.3,9.7-12.3,14.4-22.2,11.8c-4.8-1.2-8.9-3.7-12.5-7.1
			C274.9,86.8,270.7,77.5,270.2,65.2z"/>
		<path class="st11" d="M118,417.9c3.8,0,7.6,0,11.5,0c0.1,0.3,0.2,0.5,0.3,0.7c0.9,4.9,4.1,7.4,8.8,8.2c3.1,0.6,6.2,0.7,9.2-0.2
			c1.4-0.4,2.9-1.2,4-2.3c2.4-2.4,2.2-6.2-0.6-8.1c-2.1-1.4-4.4-2.5-6.8-3.3c-3.5-1.2-7.2-1.9-10.8-3c-2.1-0.6-4.2-1.2-6.3-2
			c-4.7-1.8-7.2-5.4-8.3-10.2c-0.6-2.8-0.6-5.7,0-8.5c1.1-4.8,3.8-8.5,8.3-10.6c2.3-1.1,4.9-1.9,7.4-2.3c5.3-0.8,10.6-0.8,15.7,0.8
			c7.4,2.3,11.3,7.6,12.4,15.1c0.1,0.6,0,1.3,0,2c-2.7,0-5.3,0.1-7.9,0c-1.8-0.1-3.2-1.2-4-2.8c-2-4-5.4-5.4-9.6-5.5
			c-2,0-4.1,0.1-6,0.6c-1.3,0.3-2.7,1.3-3.6,2.3c-2.4,2.6-1.9,6.1,1.1,8c1.6,1,3.5,1.8,5.3,2.3c4.5,1.3,9.1,2.4,13.7,3.7
			c2.2,0.6,4.4,1.4,6.3,2.5c3.8,2.1,6,5.5,6.7,9.8c0.5,3.2,0.4,6.5-0.7,9.7c-1.8,5.7-5.8,9.2-11.3,10.9c-7.3,2.2-14.7,2.3-21.9,0
			c-7.5-2.3-11.7-7.6-12.9-15.4c-0.1-0.6-0.1-1.1-0.1-1.7C117.8,418.4,117.9,418.2,118,417.9z"/>
		<path class="st11" d="M288.7,416.3c-9.9,0-19.5,0-29.2,0c0,2.1,0.3,3.9,1.1,5.6c2.6,5.4,10.5,6.6,14.5,2.1c1.4-1.6,3-2.3,5.1-2.2
			c2.5,0.1,5,0,7.9,0c-1,4-2.8,7.2-5.7,9.8c-3.2,2.8-7.1,4.4-11.3,4.7c-2.4,0.2-4.9,0.2-7.3-0.1c-7.9-1.3-12.9-6.1-15.1-13.6
			c-1.8-6.2-1.8-12.6-0.1-18.8c2.3-8.6,8.9-13.8,17.8-14c2.3-0.1,4.6,0.1,6.8,0.5c7.2,1.4,11.9,5.7,14.1,12.7
			C288.7,407.2,289,411.5,288.7,416.3z M276.4,408.5c0-5.5-3.1-8.8-8.2-8.8c-5.2,0-8.5,3.5-8.5,8.8
			C265.2,408.5,270.8,408.5,276.4,408.5z"/>
		<path class="st11" d="M206.1,421.7c-1,4.1-2.9,7.3-5.8,9.9c-3.2,2.8-6.9,4.3-11.1,4.6c-2.6,0.2-5.2,0.2-7.8-0.2
			c-7.4-1.2-12.2-5.7-14.4-12.7c-2.2-6.7-2.2-13.6-0.1-20.5c2.5-8,8.8-12.9,17.2-13.1c2.5-0.1,5.1,0.1,7.5,0.5
			c6.7,1.3,11.2,5.3,13.5,11.8c1.6,4.5,2,9.2,1.7,14.1c-9.8,0-19.3,0-28.9,0c-0.6,4.1,1.3,8.1,4.5,9.6c3.2,1.5,8.7,1,10.8-1.9
			c1.2-1.7,2.9-2.2,4.9-2.2C200.7,421.8,203.3,421.7,206.1,421.7z M194.4,408.5c-0.4-6.3-3.6-9.2-9.3-8.8c-4.6,0.3-7.7,4-7.4,8.8
			C183.3,408.5,188.9,408.5,194.4,408.5z"/>
		<path class="st12" d="M306,346.2c-2.1-1.3-4.2-2.6-6.3-4c-0.7-0.4-1.2-1-1.9-1.5c1.9-1.7,3.8-3.3,5.6-5c0.8-0.8,1.4-1.8,2.1-2.7
			c1.1,0.3,2.3,0.5,3.3,1c1.8,0.9,3.4,0.9,5.2-0.1c4.5-2.4,9-4.8,13.5-7c2.6-1.2,3.5-3,3.6-5.7c0.1-3.9,0.4-7.8,0.7-11.7
			c0.9-0.5,2-0.9,2.8-1.6c1.8-1.5,3.5-3.1,5.3-4.7c4-3.4,7.9-6.9,11.9-10.3c2.8-2.4,5.7-4.7,8.6-7.1c0.2,0.1,0.4,0.1,0.5,0.2
			c2.2,1.6,4.5,3.1,6.7,4.7c1.3,0.9,2.9,1,3.3-0.1c0.9-2.6,2.7-5,2-7.9c0.4,0.1,1.1,0.1,1.2,0.4c1.1,2.2,2.1,4.5,1.8,7
			c-0.1,1.1-0.7,2.3-1.5,3.1c-2.2,2.2-4.5,4.2-6.8,6.2c-2,1.8-4.2,3.5-6.2,5.3c-5.4,4.7-10.8,9.4-16.2,14.1
			c-3.6,3.2-7.1,6.4-10.8,9.6c-3.4,3-6.9,5.9-10.3,8.8c-1.9,1.6-3.7,3.3-5.5,4.9c-1.1,1-2.2,1.9-3.3,2.8c-0.9,0.8-1.8,1.6-1.6,2.9
			c-2-0.5-4-1.1-6-1.6C307.1,346.1,306.5,346.2,306,346.2z"/>
		<path class="st13" d="M306,346.2c0.6,0,1.1-0.1,1.7,0c2,0.5,4,1.1,6,1.6c2,0.5,4,1.4,6,1.5c3.8,0.2,7.5,1,11.4,0.4
			c3.4-0.6,6.8-0.8,10.1-1.8c6.6-2,12.7-4.9,18.1-9.2c7.3-5.7,12.5-12.9,15.7-21.5c1.7-4.5,2.9-9.2,2.8-14.1c0-2.4,0-4.9,0-7.8
			c2.6,2.7,3.5,5.6,4.3,8.5c2.8,10.5,0.7,20.3-4.8,29.5c-6,10-15,16.3-25.9,20.2c-7,2.5-14.1,3.5-21.4,3.1c-7.6-0.5-14.8-2.6-21-7.4
			C307.7,348.3,306.9,347.2,306,346.2z"/>
		<path class="st11" d="M219.7,435.7c-4,0-7.7,0-11.6,0c-0.1-0.6-0.2-1.3-0.2-1.9c0-7,0-14,0-21c0-3,0.4-5.8,1.4-8.6
			c2-5.6,5.7-9.4,11.3-11.4c4-1.4,8-2,12.4-1.8c0,3.9,0,7.8,0,12c-1,0-2.1,0-3.1,0c-0.7,0-1.3,0-2,0c-5.3,0.3-8.1,3.2-8.2,8.7
			c-0.1,4.6,0,9.3,0,13.9C219.7,428.9,219.7,432.1,219.7,435.7z"/>
		<path class="st11" d="M234.5,390.9c2.2,0,4.5-0.1,6.7,0c2.4,0.2,4.5,2.4,4.8,4.8c0.1,0.4,0,0.8,0,1.2c0,12.5,0,25,0,37.4
			c0,0.3,0,0.6-0.1,1.3c-1.9,0-3.8,0.1-5.7,0.1c-1.9,0-3.7,0-5.6,0C234.2,433.9,234,394.4,234.5,390.9z"/>
		<path class="st14" d="M317,293.3c0.3,0.1,0.7,0.1,1,0.2c4.2,1.7,8.4,3.3,12.7,5c1.2,0.8,1.7,1.9,1.2,3.4c-0.8,0.5-1.6,0.8-2.3,1.4
			c-5.3,4.5-10.6,9.1-15.9,13.6c-4,3.5-8.1,7-12.1,10.5c-0.6,0.5-0.7,1.5-1.1,2.3c-1.6-0.7-3.1-1.4-4.7-2.1
			c-1.5-0.6-2.2-1.7-2.5-3.3c-0.3-1.7-0.7-3.3-1.1-5c0-0.4,0.1-0.7,0.1-1.1c2.6-2.8,5.2-5.6,7.9-8.2c5.1-5,10.3-10,15.4-15
			C316.3,294.6,316.6,293.9,317,293.3z"/>
		<path class="st15" d="M330.6,298.5c-4.2-1.7-8.4-3.3-12.7-5c0.7-0.9,1.4-1.9,2.2-2.7c5.2-4.7,10.8-8.9,17-12
			c4.8-2.4,9.9-4,15.2-4.7c0.2,1.6,0.3,3.3,0.5,4.9c-0.8,0.4-1.7,0.6-2.3,1.1c-3.3,2.8-6.5,5.7-9.8,8.6c-2,1.7-4.1,3.2-6,5
			C333.3,295.1,332,296.8,330.6,298.5z"/>
		<path class="st6" d="M317,293.3c-0.4,0.6-0.7,1.3-1.2,1.8c-5.1,5-10.3,9.9-15.4,15c-2.7,2.7-5.3,5.5-7.9,8.2
			c-0.6-3.2-1.2-6.4-1.8-9.6c-0.3-1.6,0.1-3,1.4-4.1c4.7-4.4,9.3-8.9,13.9-13.4c1.2-1.2,2.4-1.4,3.9-0.7
			C312.2,291.4,314.6,292.3,317,293.3z"/>
		<path class="st10" d="M338,343.7c2.1-3.6,4.1-7.1,6.2-10.5c0.4-0.7,1.2-1.1,1.9-1.5c5.7-3.5,11.3-6.9,17-10.4
			c0.5-0.3,0.9-0.6,1.4-0.8c1.2-0.4,2.1,0.1,3,0.9c0.8,0.8,0.6,1.6,0.2,2.5c-1.5,3.3-3.9,5.9-6.6,8.3c-6.5,5.7-14.2,9.2-22.3,11.8
			C338.7,343.9,338.6,343.8,338,343.7z"/>
		<path class="st16" d="M352.9,278.9c-0.2-1.6-0.3-3.3-0.5-4.9c0,0,0.2,0,0.2,0c1.5,0,3.1,0,4.6-0.1c3.8-0.1,7.5,0.5,11.1,1.9
			c0.6,0.3,1.4,0.2,2.1,0.3c0.8,2.2,1.6,4.4,2.3,6.6c0.7,3-1.1,5.4-2,7.9c-0.4,1.1-2,1.1-3.3,0.1c-2.2-1.6-4.5-3.1-6.7-4.7
			c-0.1-0.1-0.3-0.1-0.5-0.2c-1.4-1-2.8-2-4.3-2.9C354.5,282,353.3,280.8,352.9,278.9z"/>
		<path class="st9" d="M370.5,276.2c-0.7-0.1-1.5,0-2.1-0.3c-3.6-1.4-7.3-2-11.1-1.9c-1.5,0.1-3.1,0-4.6,0.1
			c-0.7-3.8-1.3-7.5-2-11.3c-0.3-2.1,0-2.4,2-3.1c1.5-0.5,2.9-0.4,4.2,0.4C363.1,264,367.9,269.2,370.5,276.2z"/>
		<path class="st17" d="M292.3,319.3c0.4,1.7,0.8,3.3,1.1,5c0.3,1.6,1,2.7,2.5,3.3c1.6,0.7,3.1,1.4,4.7,2.1c1,0.5,2,1,3,1.6
			c0.7,0.4,1.3,1,2,1.5c-0.7,0.9-1.3,1.9-2.1,2.7c-1.8,1.7-3.7,3.4-5.6,5c-1.7-1.2-3.5-2.3-5-3.7c-2.9-2.7-5.5-5.7-8.4-8.7
			C286.9,324.9,289.1,321.7,292.3,319.3z"/>
		<path class="st11" d="M234.4,386.9c0-3.1,0-6,0-9.1c2.4,0,4.6-0.2,6.9,0c2.6,0.2,4.6,2.5,4.8,5.1c0.1,1.3,0,2.6,0,4
			C242.1,386.9,238.4,386.9,234.4,386.9z"/>
		<path class="st18" d="M305.5,332.9c-0.6-0.5-1.3-1.1-2-1.5c-1-0.6-2-1.1-3-1.6c0.4-0.8,0.5-1.8,1.1-2.3c4-3.6,8-7,12.1-10.5
			c5.3-4.6,10.5-9.1,15.9-13.6c0.7-0.6,1.5-0.9,2.3-1.4c0,2.6,0,5.1-0.1,7.7c-0.2,3.9-0.6,7.8-0.7,11.7c-0.1,2.7-1,4.5-3.6,5.7
			c-4.6,2.1-9.1,4.6-13.5,7c-1.8,1-3.4,1-5.2,0.1C307.8,333.5,306.6,333.3,305.5,332.9z"/>
		<path class="st17" d="M331.8,309.5c0-2.6,0-5.1,0.1-7.7c0.5-1.5,0-2.5-1.2-3.4c1.4-1.6,2.7-3.4,4.2-4.8c1.9-1.8,4-3.3,6-5
			c3.3-2.8,6.5-5.8,9.8-8.6c0.6-0.5,1.6-0.7,2.3-1.1c0.4,1.9,1.6,3.1,3.1,4.1c1.5,0.9,2.8,1.9,4.3,2.9c-2.9,2.4-5.7,4.7-8.6,7.1
			c-4,3.4-7.9,6.9-11.9,10.3c-1.8,1.5-3.5,3.2-5.3,4.7C333.7,308.6,332.7,309,331.8,309.5z"/>
	</g>
	<path class="st19" d="M250,496.5c-56.7,1-128.5-15.4-146.7-23.7c-23.5-10.7-24.5-27.2-24.5-39.6V66.8c0-12.3,1-28.9,24.5-39.6
		C121.5,19,193.3,2.5,250,3.5c56.7-1,128.5,15.4,146.7,23.7c23.5,10.7,24.5,27.2,24.5,39.6v366.5c0,12.3-1,28.9-24.5,39.6
		C378.5,481,306.7,497.5,250,496.5z"/>
	<g>
		<path class="st11" d="M322.5,437.6v-62.8h21.2c7.4,0,13.1,1.4,17.3,4.3c4.1,2.9,6.2,7.2,6.2,12.9c0,2.9-0.8,5.5-2.3,7.8
			c-1.5,2.3-3.8,4-6.7,5.2c3.8,0.8,6.6,2.5,8.5,5.2c1.9,2.6,2.8,5.7,2.8,9.2c0,6-2,10.6-5.9,13.6c-4,3.1-9.6,4.6-16.9,4.6H322.5z
			 M335.1,401.1h9.1c3.4,0,5.9-0.7,7.8-2.1c1.8-1.4,2.7-3.4,2.7-6c0-2.9-0.9-5-2.7-6.4c-1.8-1.4-4.5-2.1-8.2-2.1h-8.6V401.1z
			 M335.1,409.8v18.1h11.6c3.3,0,5.9-0.7,7.6-2.2c1.8-1.4,2.6-3.6,2.6-6.4c0-3.1-0.7-5.4-2.2-7c-1.5-1.6-3.9-2.4-7.1-2.4H335.1z"/>
	</g>
</g>
</svg>
