<?xml version="1.0" encoding="utf-8"?>
<!-- Generator: Adobe Illustrator 25.0.1, SVG Export Plug-In . SVG Version: 6.00 Build 0)  -->
<svg version="1.1" id="Layer_1" xmlns="http://www.w3.org/2000/svg" xmlns:xlink="http://www.w3.org/1999/xlink" x="0px" y="0px"
	 viewBox="0 0 500 500" style="enable-background:new 0 0 500 500;" xml:space="preserve">
<style type="text/css">
	.st0{display:none;fill:#FFFFFF;}
	.st1{display:none;fill:none;stroke:#FFFFFF;stroke-width:0.5621;stroke-miterlimit:10;}
	.st2{fill:#FFFFFF;stroke:#000000;stroke-width:2;stroke-miterlimit:10;}
	.st3{fill:#002D71;}
	.st4{fill:#009246;}
	.st5{fill:#E3E3E2;}
	.st6{fill:#CE2B37;}
	.st7{fill:url(#SVGID_1_);}
	.st8{fill:url(#SVGID_2_);}
	.st9{fill:url(#SVGID_3_);}
	.st10{fill:url(#SVGID_4_);}
	.st11{fill:url(#SVGID_5_);}
	.st12{fill:url(#SVGID_6_);}
	.st13{fill:#008FD7;}
</style>
<g>
	<g>
		<path class="st0" d="M354.1,355.2c-2.2,0-3.9,1.8-3.9,3.9c0,2.2,1.8,3.9,3.9,3.9c2.2,0,3.9-1.8,3.9-3.9S356.2,355.2,354.1,355.2
			 M357.4,359.2c0,1.9-1.5,3.4-3.3,3.4c-1.9,0-3.4-1.5-3.4-3.4c0-1.8,1.5-3.3,3.4-3.3C355.9,355.8,357.4,357.3,357.4,359.2"/>
		<path class="st0" d="M354,360.8c-0.9,0-1.7-0.8-1.7-1.7c0-0.9,0.8-1.7,1.7-1.7c0.7,0,1.2,0.4,1.5,1h0.5c-0.3-0.8-1.1-1.4-2-1.4
			c-1.2,0-2.1,1-2.1,2.1c0,1.2,1,2.1,2.1,2.1c1,0,1.8-0.6,2-1.5h-0.5C355.3,360.4,354.7,360.8,354,360.8"/>
		<path class="st0" d="M364.7,361.5c-0.2,0.1-0.4,0.2-0.7,0.3c-0.3,0.1-0.5,0.1-0.8,0.1s-0.6,0-0.8-0.2c-0.3-0.1-0.5-0.3-0.7-0.5
			c-0.2-0.3-0.4-0.6-0.5-0.9s-0.1-0.7-0.1-1.1s0.1-0.7,0.2-1.1c0.1-0.3,0.3-0.6,0.5-0.9c0.2-0.2,0.4-0.4,0.7-0.6
			c0.3-0.1,0.6-0.2,0.9-0.2c0.2,0,0.5,0,0.7,0.1s0.4,0.2,0.6,0.3l-0.3,0.4c-0.2-0.1-0.3-0.2-0.5-0.2c-0.2-0.1-0.3-0.1-0.5-0.1
			c-0.3,0-0.6,0.1-0.8,0.2c-0.2,0.1-0.4,0.4-0.5,0.7c-0.1,0.2-0.1,0.4-0.2,0.6c0,0.2,0,0.5,0,0.8c0,0.2,0,0.5,0,0.6
			c0,0.2,0.1,0.3,0.1,0.5c0.1,0.3,0.3,0.6,0.6,0.7c0.3,0.2,0.5,0.2,0.8,0.2c0.2,0,0.4,0,0.5-0.1c0.2-0.1,0.3-0.1,0.5-0.3
			L364.7,361.5"/>
		<path class="st0" d="M368.6,359.4c0-0.4,0-0.7-0.1-1c0-0.3-0.1-0.5-0.2-0.7s-0.2-0.4-0.4-0.5c-0.2-0.1-0.4-0.2-0.7-0.2
			c-0.2,0-0.5,0-0.7,0.1s-0.3,0.3-0.4,0.5s-0.2,0.4-0.2,0.6s-0.1,0.5-0.1,0.8c0,0.4,0,0.8,0.1,1.1c0.1,0.3,0.1,0.6,0.2,0.8
			c0.1,0.1,0.1,0.2,0.2,0.2c0.1,0.1,0.2,0.1,0.3,0.2c0.1,0.1,0.2,0.1,0.3,0.1c0.1,0,0.2,0,0.3,0c0.2,0,0.4,0,0.6-0.1
			s0.3-0.2,0.4-0.3c0.1-0.1,0.1-0.2,0.2-0.3c0-0.1,0.1-0.2,0.1-0.3c0-0.1,0.1-0.3,0.1-0.4C368.6,359.8,368.6,359.6,368.6,359.4
			 M369.3,359.3c0,0.5-0.1,0.9-0.2,1.3c-0.1,0.3-0.3,0.6-0.6,0.9c-0.2,0.2-0.4,0.3-0.6,0.4s-0.4,0.1-0.7,0.1c-0.3,0-0.6,0-0.9-0.2
			c-0.2-0.1-0.5-0.3-0.6-0.5c-0.4-0.5-0.6-1.2-0.6-2.1c0-0.4,0.1-0.8,0.2-1.1c0.1-0.3,0.2-0.6,0.4-0.8c0.2-0.2,0.4-0.4,0.7-0.5
			c0.3-0.1,0.5-0.2,0.9-0.2c0.2,0,0.4,0,0.6,0.1c0.2,0,0.3,0.1,0.5,0.2c0.1,0.1,0.3,0.2,0.3,0.3c0.1,0.1,0.2,0.2,0.2,0.3
			c0.2,0.2,0.3,0.5,0.4,0.8C369.3,358.5,369.3,358.9,369.3,359.3"/>
		<path class="st0" d="M373,358.2c0-0.4-0.1-0.7-0.3-0.8c-0.1-0.1-0.2-0.2-0.4-0.2c-0.2-0.1-0.4-0.1-0.6-0.1H371v2.1h0.9
			c0.2,0,0.4,0,0.5-0.1c0.1,0,0.2-0.1,0.3-0.2C372.9,358.7,373,358.5,373,358.2 M373.7,358.1c0,0.3,0,0.5-0.1,0.7s-0.2,0.4-0.4,0.5
			c-0.2,0.2-0.4,0.3-0.6,0.3c-0.2,0.1-0.4,0.1-0.7,0.1H371v2.1h-0.6v-5.2h1.5c0.3,0,0.5,0,0.7,0s0.3,0.1,0.5,0.2
			C373.5,357.1,373.7,357.5,373.7,358.1"/>
		<path class="st0" d="M376.1,359.8v2h-0.6v-2.1l-1.7-3.2h0.8l1,2c0,0.1,0.1,0.2,0.1,0.3c0,0.1,0.1,0.2,0.1,0.2c0,0.1,0,0.1,0,0.1
			c0.1-0.2,0.2-0.4,0.3-0.6l1-2h0.7L376.1,359.8"/>
		<path class="st0" d="M380.8,358c0-0.2,0-0.3-0.1-0.5s-0.2-0.3-0.4-0.3c-0.1,0-0.2-0.1-0.3-0.1c-0.1,0-0.2,0-0.4,0H379v2h0.6
			c0.2,0,0.4,0,0.6-0.1c0.1,0,0.3-0.1,0.4-0.2s0.2-0.2,0.2-0.3C380.8,358.3,380.8,358.2,380.8,358 M381,361.8c0-0.1-0.1-0.2-0.2-0.3
			c-0.1-0.1-0.2-0.3-0.3-0.5c-0.1-0.2-0.2-0.4-0.4-0.6c-0.1-0.2-0.3-0.4-0.5-0.6c0-0.1-0.1-0.1-0.1-0.1l-0.1-0.1
			c-0.1,0-0.1,0-0.1-0.1c-0.1,0-0.1,0-0.2,0v2.4h-0.6v-5.2h1.2c0.2,0,0.3,0,0.5,0c0.1,0,0.3,0,0.4,0.1c0.1,0,0.2,0.1,0.3,0.1
			c0.1,0,0.1,0.1,0.2,0.1s0.1,0.1,0.2,0.2s0.1,0.2,0.2,0.2c0,0.1,0.1,0.2,0.1,0.3c0,0.1,0,0.2,0,0.4c0,0.2,0,0.4-0.1,0.6
			s-0.2,0.3-0.3,0.5c-0.1,0.1-0.3,0.2-0.4,0.3c-0.2,0.1-0.4,0.1-0.6,0.1H380c0.1,0.1,0.2,0.2,0.3,0.3c0.1,0.1,0.2,0.2,0.2,0.3
			c0,0.1,0.1,0.2,0.2,0.3c0.1,0.1,0.2,0.3,0.3,0.5c0.1,0.2,0.2,0.3,0.3,0.5c0.1,0.2,0.2,0.3,0.2,0.4c0.1,0.1,0.1,0.1,0.1,0.2H381
			V361.8z"/>
		<line class="st1" x1="382.9" y1="361.8" x2="382.9" y2="356.6"/>
		<path class="st0" d="M388.1,361.5c-0.2,0.1-0.4,0.2-0.7,0.3c-0.3,0.1-0.5,0.1-0.8,0.1c-0.7,0-1.2-0.2-1.6-0.7
			c-0.2-0.2-0.4-0.5-0.5-0.9c-0.1-0.3-0.2-0.7-0.2-1.2s0.1-0.9,0.2-1.3s0.3-0.7,0.6-0.9c0.4-0.3,0.8-0.5,1.4-0.5s1,0.2,1.4,0.5
			l-0.3,0.4c-0.2-0.2-0.4-0.2-0.6-0.3c-0.2-0.1-0.4-0.1-0.6-0.1c-0.3,0-0.6,0.1-0.8,0.2c-0.2,0.1-0.4,0.4-0.5,0.7
			c-0.1,0.4-0.2,0.8-0.2,1.3c0,0.4,0,0.7,0.1,0.9c0.1,0.3,0.2,0.5,0.3,0.7c0.1,0.1,0.1,0.2,0.2,0.2c0.1,0.1,0.2,0.1,0.3,0.2
			c0.1,0.1,0.2,0.1,0.4,0.1c0.1,0,0.3,0,0.4,0c0.3,0,0.6-0.1,0.8-0.2v-1.6h-1l-0.1-0.5h1.8L388.1,361.5"/>
		<polygon class="st0" points="392.2,361.8 392.2,359.3 390,359.3 390,361.8 389.4,361.8 389.4,356.6 390,356.6 390,358.8 
			392.2,358.8 392.2,356.6 392.8,356.6 392.8,361.8 		"/>
		<polygon class="st0" points="397.1,357.1 395.7,357.1 395.7,361.8 395.1,361.8 395.1,357.1 393.7,357.1 393.7,356.6 397.1,356.6 
					"/>
		<path class="st0" d="M402.2,361.8h-2.9v-0.3c0.1-0.1,0.3-0.2,0.5-0.4c0.2-0.2,0.4-0.4,0.6-0.7c0.2-0.2,0.4-0.5,0.5-0.6
			c0.1-0.2,0.3-0.4,0.4-0.6s0.2-0.3,0.2-0.5c0-0.1,0.1-0.3,0.1-0.4c0-0.3-0.1-0.5-0.3-0.7c-0.2-0.2-0.4-0.3-0.7-0.3
			c-0.1,0-0.2,0-0.3,0c-0.1,0-0.2,0.1-0.3,0.1c-0.1,0-0.2,0.1-0.3,0.1c-0.1,0.1-0.2,0.1-0.3,0.2l-0.3-0.3c0.3-0.3,0.6-0.4,0.8-0.5
			c0.3-0.1,0.5-0.2,0.8-0.2c0.2,0,0.4,0,0.6,0.1s0.3,0.2,0.4,0.3c0.1,0.1,0.2,0.3,0.3,0.4c0.1,0.2,0.1,0.4,0.1,0.6s-0.1,0.4-0.1,0.7
			c-0.1,0.2-0.2,0.5-0.4,0.7c-0.2,0.2-0.4,0.5-0.7,0.8c-0.1,0.1-0.2,0.2-0.4,0.4c-0.1,0.1-0.2,0.2-0.3,0.3c-0.1,0.1-0.2,0.2-0.3,0.2
			c-0.1,0.1-0.1,0.1-0.2,0.1h0.1c0.1,0,0.1,0,0.2,0s0.2,0,0.3,0h1.6L402.2,361.8"/>
		<path class="st0" d="M406.2,359.3c0-0.3,0-0.5,0-0.7s-0.1-0.4-0.1-0.6c-0.1-0.3-0.2-0.5-0.4-0.6c-0.2-0.1-0.4-0.2-0.6-0.2
			c-0.1,0-0.3,0.1-0.4,0.2s-0.3,0.3-0.4,0.5c-0.2,0.3-0.3,0.8-0.3,1.4c0,0.3,0,0.5,0,0.8c0,0.2,0.1,0.4,0.1,0.6
			c0.1,0.3,0.2,0.5,0.4,0.6c0.2,0.2,0.3,0.2,0.5,0.2s0.3-0.1,0.5-0.2s0.3-0.3,0.4-0.5s0.1-0.4,0.2-0.6
			C406.2,359.9,406.2,359.6,406.2,359.3 M406.9,359.3c0,0.4-0.1,0.7-0.1,1.1c-0.1,0.3-0.2,0.6-0.4,0.8c-0.2,0.2-0.3,0.4-0.6,0.5
			c-0.2,0.1-0.5,0.2-0.7,0.2c-0.3,0-0.6-0.1-0.8-0.3c-0.2-0.2-0.4-0.4-0.5-0.7c-0.1-0.3-0.2-0.6-0.3-0.9c-0.1-0.3-0.1-0.6-0.1-0.9
			s0-0.7,0.1-1s0.2-0.6,0.4-0.8c0.2-0.2,0.3-0.4,0.6-0.5c0.2-0.1,0.4-0.2,0.7-0.2c0.2,0,0.4,0,0.6,0.1s0.3,0.2,0.5,0.3
			c0.1,0.1,0.2,0.3,0.3,0.4c0.1,0.2,0.2,0.4,0.2,0.5c0.1,0.2,0.1,0.4,0.1,0.6C406.8,359,406.9,359.1,406.9,359.3"/>
		<path class="st0" d="M411.1,359.3c0,0.4,0,0.7-0.1,1.1c-0.1,0.3-0.2,0.6-0.4,0.8c-0.2,0.2-0.3,0.4-0.6,0.5
			c-0.2,0.1-0.5,0.2-0.7,0.2c-0.3,0-0.6-0.1-0.8-0.3c-0.2-0.2-0.4-0.4-0.5-0.7c-0.1-0.3-0.2-0.6-0.3-0.9c-0.1-0.3-0.1-0.6-0.1-0.9
			s0-0.7,0.1-1s0.2-0.6,0.4-0.8c0.2-0.2,0.4-0.4,0.6-0.5s0.4-0.2,0.7-0.2c0.2,0,0.4,0,0.6,0.1s0.3,0.2,0.5,0.3
			c0.1,0.1,0.2,0.3,0.3,0.4c0.1,0.2,0.2,0.4,0.2,0.5c0.1,0.2,0.1,0.4,0.1,0.6C411.1,359,411.1,359.1,411.1,359.3"/>
	</g>
</g>
<g>
	<path class="st2" d="M323.3,1.5H176.7c-51.4,0-93,41.6-93,93v311c0,51.4,41.6,93,93,93h146.7c51.4,0,93-41.6,93-93v-311
		C416.3,43.1,374.7,1.5,323.3,1.5z"/>
	<g>
		<path class="st3" d="M129.6,450.6L129.6,450.6c-3.7-1.6-6.4-3.2-8-4.8c0-0.5,0-1.1,0-1.1l5.3-6.4c0,0,0.5-0.5,1.1,0
			c4.3,3.2,8.5,4.8,12.8,4.8c5.3,0,8-2.1,8-5.8c0-2.7-1.6-4.3-7.4-5.3h-2.7c-10.1-1.6-15.4-6.4-15.4-14.9c0-4.3,1.6-8,4.8-10.6
			c2.7-2.7,7.4-4.3,12.8-4.3c6.4,0,12.2,1.6,16.5,5.3c0.5,0,0.5,0.5,0,1.1L153,415c-0.5,0.5-0.5,0.5-1.1,0.5
			c-3.7-2.7-7.4-4.3-11.2-4.3c-4.3,0-6.9,2.7-6.9,5.3c0,3.2,2.7,4.8,8,5.3l2.1,0.5c10.6,1.6,16,6.4,16,14.9c0,9-7.4,14.9-19.7,14.9
			C136.5,452.2,133.3,451.7,129.6,450.6"/>
		<path class="st3" d="M166.8,403.8L166.8,403.8c0-0.5,0-0.5,1.1-0.5h31.4c0.5,0,0.5,0,0.5,0.5v7.4c0,0.5,0,1.1-0.5,1.1H178
			c-0.5,0-0.5,0-0.5,0.5v9.6c0,0,0,0.5,0.5,0.5h17.5c0.5,0,0.5,0,0.5,0.5v7.4c0,0.5,0,1.1-0.5,1.1H178c-0.5,0-0.5,0-0.5,0v10.1
			c0,0.5,0,0.5,0.5,0.5h21.3c0.5,0,0.5,0,0.5,0.5v8c0,0.5,0,0.5-0.5,0.5h-31.4c-1.1,0-1.1,0-1.1-0.5V403.8"/>
		<path class="st3" d="M235.4,451.7L235.4,451.7c-0.5,0-1.1,0-1.1-0.5l-8.5-18.1h-6.4c-0.5,0-0.5,0.5-0.5,0.5v17.5
			c0,0.5,0,0.5-1.1,0.5h-9c-0.5,0-0.5,0-0.5-0.5v-47.3c0-0.5,0-0.5,0.5-0.5h19.7c4.8,0,9,1.6,12.2,4.3c2.7,2.7,4.8,6.4,4.8,10.6
			c0,6.4-3.7,11.2-9,13.8l10.1,19.1c0,0,0,0.5-1.1,0.5H235.4 M228,424.5L228,424.5c4.3,0,6.9-2.7,6.9-6.4c0-3.2-2.7-5.8-6.9-5.8
			h-8.5c-0.5,0-0.5,0-0.5,0.5V424c0,0,0,0.5,0.5,0.5H228z"/>
		<path class="st3" d="M254,403.8L254,403.8c0-0.5,0-0.5,0.5-0.5h9c0.5,0,0.5,0,0.5,0.5v47.3c0,0.5,0,0.5-0.5,0.5h-9
			c-0.5,0-0.5,0-0.5-0.5V403.8"/>
		<path class="st3" d="M274.2,403.8L274.2,403.8c0-0.5,0.5-0.5,0.5-0.5h31.9c0,0,0.5,0,0.5,0.5v7.4c0,0.5-0.5,1.1-0.5,1.1h-21.3
			c0,0-0.5,0-0.5,0.5v9.6l0.5,0.5H303c0.5,0,1.1,0,1.1,0.5v7.4c0,0.5-0.5,1.1-1.1,1.1h-17.5h-0.5v10.1c0,0.5,0.5,0.5,0.5,0.5h21.3
			c0,0,0.5,0,0.5,0.5v8c0,0.5-0.5,0.5-0.5,0.5h-31.9c0,0-0.5,0-0.5-0.5V403.8"/>
		<path class="st3" d="M346.6,403.8L346.6,403.8c0-0.5,0-0.5,1.1-0.5h8.5c1.1,0,1.1,0,1.1,0.5l17,47.3c0,0.5,0,0.5-1.1,0.5h-9
			c-0.5,0-1.1,0-1.1-0.5l-2.7-8.5h-17.5l-2.7,8.5c0,0.5,0,0.5-1.1,0.5h-9.6c0,0,0,0,0-0.5L346.6,403.8 M346,433.6h11.2l-5.3-17h-0.5
			L346,433.6z"/>
		<polyline class="st4" points="124.3,365.5 206.7,365.5 206.7,375.6 124.3,375.6 124.3,365.5 		"/>
		<polyline class="st5" points="206.7,365.5 288.6,365.5 288.6,375.6 206.7,375.6 206.7,365.5 		"/>
		<polyline class="st6" points="288.6,365.5 371,365.5 371,375.6 288.6,375.6 288.6,365.5 		"/>
		<linearGradient id="SVGID_1_" gradientUnits="userSpaceOnUse" x1="231.9456" y1="157.9288" x2="274.7302" y2="274.398">
			<stop  offset="0" style="stop-color:#0C5EAD"/>
			<stop  offset="1" style="stop-color:#033B82"/>
		</linearGradient>
		<polygon class="st7" points="247.7,134.1 247.7,267.3 295.5,267.3 		"/>
		<linearGradient id="SVGID_2_" gradientUnits="userSpaceOnUse" x1="259.8315" y1="211.5277" x2="222.5007" y2="200.367">
			<stop  offset="0" style="stop-color:#0C5EAD"/>
			<stop  offset="1" style="stop-color:#033B82"/>
		</linearGradient>
		<polygon class="st8" points="199.8,267.3 247.7,267.3 247.7,134.2 		"/>
		<linearGradient id="SVGID_3_" gradientUnits="userSpaceOnUse" x1="355.1495" y1="252.868" x2="240.5114" y2="326.6761">
			<stop  offset="0" style="stop-color:#0C5EAD"/>
			<stop  offset="1" style="stop-color:#033B82"/>
		</linearGradient>
		<polygon class="st9" points="369.9,267.3 247.7,342.2 295.5,267.3 		"/>
		<linearGradient id="SVGID_4_" gradientUnits="userSpaceOnUse" x1="276.2142" y1="259.3075" x2="233.8932" y2="332.5855">
			<stop  offset="0" style="stop-color:#0C5EAD"/>
			<stop  offset="1" style="stop-color:#033B82"/>
		</linearGradient>
		<polygon class="st10" points="247.7,267.3 295.5,267.3 247.7,342.2 		"/>
		<linearGradient id="SVGID_5_" gradientUnits="userSpaceOnUse" x1="141.9086" y1="254.0037" x2="252.9227" y2="325.5633">
			<stop  offset="0" style="stop-color:#0C5EAD"/>
			<stop  offset="1" style="stop-color:#033B82"/>
		</linearGradient>
		<polygon class="st11" points="125.3,267.3 247.7,342.2 199.8,267.3 		"/>
		<linearGradient id="SVGID_6_" gradientUnits="userSpaceOnUse" x1="225.9313" y1="302.6462" x2="254.1948" y2="275.5442">
			<stop  offset="0" style="stop-color:#0C5EAD"/>
			<stop  offset="1" style="stop-color:#033B82"/>
		</linearGradient>
		<polygon class="st12" points="247.7,342.2 247.7,267.3 199.8,267.3 		"/>
		<path class="st13" d="M370,267.3L370,267.3L272.6,40.1c-22.3,0-27.7,0-50.5,0l-96.8,227.2h74.4l47.9-133.1l22.2,61.7h-22.2
			l-12.8,38.3h48.7l11.9,33.1H370"/>
	</g>
</g>
</svg>
