<?xml version="1.0" encoding="utf-8"?>
<!-- Generator: Adobe Illustrator 25.0.1, SVG Export Plug-In . SVG Version: 6.00 Build 0)  -->
<svg version="1.1" id="Layer_1" xmlns="http://www.w3.org/2000/svg" xmlns:xlink="http://www.w3.org/1999/xlink" x="0px" y="0px"
	 viewBox="0 0 500 500" style="enable-background:new 0 0 500 500;" xml:space="preserve">
<style type="text/css">
	.st0{fill:#114387;}
	.st1{fill:#FFFFFF;}
</style>
<g id="Layer_4">
	<rect x="-4.4" y="-4.6" class="st0" width="508.2" height="511.7"/>
</g>
<g id="Layer_3">
	<g>
		<defs>
			<rect id="SVGID_1_" x="353.3" y="-4.6" width="150.5" height="182.5"/>
		</defs>
		<clipPath id="SVGID_2_">
			<use xlink:href="#SVGID_1_"  style="overflow:visible;"/>
		</clipPath>
	</g>
	<g>
		<defs>
			<rect id="SVGID_3_" x="9.7" y="248" width="18.8" height="185.8"/>
		</defs>
		<clipPath id="SVGID_4_">
			<use xlink:href="#SVGID_3_"  style="overflow:visible;"/>
		</clipPath>
	</g>
	<g>
		<defs>
			<rect id="SVGID_5_" x="-4.4" y="-5.1" width="85.8" height="290.4"/>
		</defs>
		<clipPath id="SVGID_6_">
			<use xlink:href="#SVGID_5_"  style="overflow:visible;"/>
		</clipPath>
	</g>
</g>
<g id="Layer_5">
	<g>
		<polygon class="st1" points="49.8,268.9 65.3,268.9 65.3,252 49.8,252 49.8,230.8 66,230.8 66,213.9 30.9,213.9 30.9,308.4 
			66.2,308.4 66.2,291.6 49.8,291.6 		"/>
		<polygon class="st1" points="92.2,213.9 73.3,213.9 73.3,308.4 105.8,308.4 105.8,291.6 92.2,291.6 		"/>
		<rect x="111.9" y="213.9" class="st1" width="18.9" height="94.5"/>
		<polygon class="st1" points="136.6,230.8 148,230.8 148,308.4 166.9,308.4 166.9,230.8 178.4,230.8 178.4,213.9 136.6,213.9 		"/>
		<polygon class="st1" points="184.1,308.4 202.2,308.4 219.1,291.6 203,291.6 203,268.9 218.5,268.9 218.5,252 203,252 203,230.8 
			219.2,230.8 219.2,213.9 184.1,213.9 		"/>
		<polygon class="st1" points="294.9,323.3 310,323.3 310,306.8 294.9,306.8 294.9,286.2 310.6,286.2 310.6,269.8 276.5,269.8 
			276.5,361.8 310.9,361.8 310.9,345.3 294.9,345.3 		"/>
		<path class="st1" d="M354.4,318.3c5-1.8,7.9-5.8,7.9-13.7v-17.7c0-11.4-5.7-17.1-17.1-17.1h-27.5v92h18.4v-34.8h4.6
			c2.2,0,3.3,1.1,3.3,3.3v31.5h18.4v-31.7C362.4,323.4,360,319.8,354.4,318.3z M343.9,308c0,2.2-1.1,3.3-3.3,3.3h-4.5v-25.5h4.5
			c2.2,0,3.3,1.1,3.3,3.3V308L343.9,308z"/>
		<rect x="369.6" y="269.8" class="st1" width="18.4" height="92"/>
		<polygon class="st1" points="414,323.3 429.2,323.3 429.2,306.8 414,306.8 414,286.2 429.8,286.2 429.8,269.8 395.6,269.8 
			395.6,361.8 430.1,361.8 430.1,345.3 414,345.3 		"/>
		<polygon class="st1" points="465.9,269.8 466.1,288.8 466.3,315.4 455.7,269.8 436.9,269.8 436.9,361.8 452.8,361.8 452.5,335.1 
			452.3,311.7 464,361.8 481.8,361.8 481.8,269.8 		"/>
		<path class="st1" d="M262.7,314.1l-15.8-11.7c-2.2-1.6-3.2-3-3.2-5.9v-8.7c0-2.2,1.1-3.3,3.3-3.3h1.4c2.2,0,3.3,1.1,3.3,3.3v15.1
			h18v-16.8c0-11.4-5.7-17.1-17.1-17.1h-10c-0.4,0-0.7,0-1.1,0l-16,16c0,0.4,0,0.7,0,1.1v14.6c0,6.6,1.7,10.4,7.4,14.5l15.8,11.7
			c2.2,1.6,3.2,3,3.2,5.9v11c0,2.2-1.1,3.3-3.3,3.3h-1.7c-2.2,0-3.3-1.1-3.3-3.3v-17.9h-18v19.6c0,11.4,5.7,17.1,17.1,17.1H253
			c11.4,0,17.1-5.7,17.1-17.1v-16.9C270,321.7,268.3,318.2,262.7,314.1L262.7,314.1z"/>
		<path class="st1" d="M250.7,206.5c10.6-3.5,22.7-4.4,32.9,1c-3-5.6-7.8-9.1-13.2-12c6.5-4.1,20.4-5,25.8,1.5
			c5.2,6.2,3.9,15.2,0.4,23.6L307,210v0c5.3,19.9-16.1,23.1-7.5,39.8c7.9-17.9,21.8-16.2,32.9-40.4c4.5,3.3,7.1,10,8.2,15.6
			c5.2-20.5-1.3-34-5.8-42.7L316,201.1l0,0v0l0,0l0,0v0c-2.8-9.7-9.9-20.6-28-25.2c8.9-2.8,18.5-4.4,21.5-4.7
			c3.1,3.3,3.8,11,3.6,15.5c0.1-0.2,8-10.6,5.5-22.5c-10.6,0.1-31.5,3.2-46.6,10.5c-4.6,2.2-7.4,6.7-8.7,9.2
			c-2.8,2.1-13.6,10.7-18.2,14.2c0.5,1,1.1,2.2,1.9,3.5c1.8-1.1,4-2.7,6.3-4.7c0.4,1.4-1.9,6-3.9,8.2
			C249.8,205.6,250.3,206.1,250.7,206.5L250.7,206.5z M272,179.1c0.2,0.5,0.4,2.3,0.6,3.8c4.6-3,7.5-4.3,11.8-5.9
			c-1.9,1.8-6.4,5.7-9.1,11.7c-0.8-0.5-4.7-1.8-8.1-2.4C268.2,183.7,270.1,180.9,272,179.1L272,179.1z"/>
		<path class="st1" d="M368.7,218.8l-0.1-0.4l-0.1-0.4c-0.7-2.3-0.8-4.3-1-7.9c-0.2-2.9-0.4-6.9-1.1-12.8c-0.8-7-6.2-15.3-16-24.7
			c-5.7-5.5-12.9-11.1-17.6-13.9l-0.2,0.2c-0.9-2.2-2.8-4.8-7.2-4.9h-1.6c-20.1,0-36,3.3-53,11.1c-5.8,2.6-9.3,6-12.2,11.7l-0.5,0.4
			c-3.9,2.9-14.9,11.4-18,13.8c-1.7,1.4-2.8,3.3-3,5.6c-0.5,4.8,3.1,10.1,6.2,13.7c1.9,2.3,3.3,3.6,4.4,4.5c1.2,0.9,2.6,1.4,4.1,1.4
			c0.6,0,1.2-0.1,1.8-0.2c0.7,0.6,1.5,1.3,2.3,1.8c-0.8,0.5-1.5,1-2.3,1.5l-0.2,0.1c-0.6,0.4-1.1,0.7-1.5,1
			c-1.3,0.8-2.4,1.4-3.4,1.9l0,0c0,0-0.1,0-0.1,0c0,0,0,0-0.1,0c-0.4,0.2-0.7,0.3-1.1,0.4c-0.4,0.2-0.8,0.3-1.2,0.3
			c-0.4,0.1-0.8,0.1-1.2,0.1l0,0c-0.9,0.1-1.5-0.1-1.8-0.1c-1.5-0.3-3.1-0.9-3.1-0.9l0,0c-1.5-0.6-2.8-1.2-2.8-1.2l0,0
			c-1.4-0.7-2.6-1.3-3.6-1.9c-1.1-0.6-1.8-1.1-1.8-1.1l0,0c-0.1-0.1-0.2-0.1-0.3-0.2l2.1,8l0.2,0.9l0.2,0.8
			c2.7,10,9.5,11.5,13.3,11.5c4.2,0,8.4-1.7,11.9-3.4c1,4.4,3.1,7.1,5,8.8l0.2,0.2l0.2,0.2l0.5,0.4l-6.4,6.4l-0.4,0.4l-0.5,0.5
			l-7.8,7.8h6.4l4.5-4.5l0.5-0.5l0.4-0.4l19.7-19.7c-6.2,0.6-10.9,2.6-13.5,5.8l-0.2,0.2l-0.2,0.2l-0.2-0.2l-0.2-0.2
			c-2.9-2.6-4.3-6.9-4.1-12.5c-0.7,0.3-1.6,0.8-2.7,1.4c-3.6,1.9-8.6,4.6-13,4.6s-7.5-2.7-8.9-8.1l-0.2-0.7c2.4,1.8,5.5,2.1,5.5,2.1
			l0,0c0.4,0,0.7,0.1,1.1,0.1c2.6,0,5.6-1.1,9.4-3.6c0.6-0.4,1.1-0.7,1.6-1l0.2-0.1c4.5-2.9,7.7-5,15.5-5c2.7,0,5.9,0.3,9.8,0.8
			c-2.5-4.4-8.3-8.6-16.1-8.6c-0.5,0-1,0-1.4,0.1c0.3,2,1.2,4.5,2.1,5.2l0.6,0.4l0.7,0.5l-0.8,0l-0.7,0c-0.1,0-0.2,0-0.4,0
			c-4.2,0-8.3-3.2-10.1-5.4c-0.6,0.1-1,0.2-1.4,0.3l-0.1,0c-0.8,0.2-1.4,0.3-1.8,0.3c-0.5,0-0.9-0.1-1.4-0.5c-0.9-0.7-2-1.8-3.7-3.8
			c-1.6-1.9-5.5-6.8-5.1-10.3c0.1-1,0.5-1.9,1.3-2.5c3.3-2.7,16.7-13,18.7-14.4l0,0l0.4-0.3c2.4-5.4,5.3-8.2,10.5-10.6
			c16.4-7.5,31.7-10.7,51.2-10.7c0.5,0,1,0,1.5,0c2.3,0,2.9,1.4,3.4,3.2l0.2,0.1l0,0c3.6,1.8,11.4,7.5,18.2,14.1
			c6.2,6,13.8,14.6,14.7,21.9c0.7,5.8,0.9,9.7,1.1,12.6c0.2,3.8,0.4,6,1.2,8.8l0.1,0.4l0.1,0.4l-0.4,0l-0.4,0
			c-2.2-0.2-4.3-1.5-5.4-2.4c-1.1,7.5-4.1,19.7-9.2,32.2h4.9c3.7-9.3,6.2-18.4,7.7-25.5c0.5,0.1,1.1,0.2,1.7,0.3l0.4,0l0.4,0
			l6.5,0.5L368.7,218.8L368.7,218.8z"/>
	</g>
</g>
</svg>
