<?xml version="1.0" encoding="utf-8"?>
<!-- Generator: Adobe Illustrator 25.0.1, SVG Export Plug-In . SVG Version: 6.00 Build 0)  -->
<svg version="1.1" id="Layer_1" xmlns="http://www.w3.org/2000/svg" xmlns:xlink="http://www.w3.org/1999/xlink" x="0px" y="0px"
	 viewBox="0 0 500 500" style="enable-background:new 0 0 500 500;" xml:space="preserve">
<style type="text/css">
	.st0{display:none;fill:#FFFFFF;}
	.st1{display:none;fill:none;stroke:#FFFFFF;stroke-width:0.5621;stroke-miterlimit:10;}
	.st2{fill-rule:evenodd;clip-rule:evenodd;fill:#D4A815;}
	.st3{fill:#202958;}
</style>
<g>
	<g>
		<path class="st0" d="M354.1,355.2c-2.2,0-3.9,1.8-3.9,3.9c0,2.2,1.8,3.9,3.9,3.9c2.2,0,3.9-1.8,3.9-3.9
			C358,357,356.2,355.2,354.1,355.2 M357.4,359.2c0,1.9-1.5,3.4-3.3,3.4c-1.9,0-3.4-1.5-3.4-3.4c0-1.8,1.5-3.3,3.4-3.3
			C355.9,355.8,357.4,357.3,357.4,359.2"/>
		<path class="st0" d="M354,360.8c-0.9,0-1.7-0.8-1.7-1.7c0-0.9,0.8-1.7,1.7-1.7c0.7,0,1.2,0.4,1.5,1h0.5c-0.3-0.8-1.1-1.4-2-1.4
			c-1.2,0-2.1,1-2.1,2.1c0,1.2,1,2.1,2.1,2.1c1,0,1.8-0.6,2-1.5h-0.5C355.3,360.4,354.7,360.8,354,360.8"/>
		<path class="st0" d="M364.7,361.5c-0.2,0.1-0.4,0.2-0.7,0.3c-0.3,0.1-0.5,0.1-0.8,0.1c-0.3,0-0.6,0-0.8-0.2
			c-0.3-0.1-0.5-0.3-0.7-0.5c-0.2-0.3-0.4-0.6-0.5-0.9c-0.1-0.3-0.1-0.7-0.1-1.1c0-0.4,0.1-0.7,0.2-1.1c0.1-0.3,0.3-0.6,0.5-0.9
			c0.2-0.2,0.4-0.4,0.7-0.6c0.3-0.1,0.6-0.2,0.9-0.2c0.2,0,0.5,0,0.7,0.1c0.2,0.1,0.4,0.2,0.6,0.3l-0.3,0.4
			c-0.2-0.1-0.3-0.2-0.5-0.2c-0.2-0.1-0.3-0.1-0.5-0.1c-0.3,0-0.6,0.1-0.8,0.2c-0.2,0.1-0.4,0.4-0.5,0.7c-0.1,0.2-0.1,0.4-0.2,0.6
			c0,0.2,0,0.5,0,0.8c0,0.2,0,0.5,0,0.6c0,0.2,0.1,0.3,0.1,0.5c0.1,0.3,0.3,0.6,0.6,0.7c0.3,0.2,0.5,0.2,0.8,0.2
			c0.2,0,0.4,0,0.5-0.1c0.2-0.1,0.3-0.1,0.5-0.3L364.7,361.5"/>
		<path class="st0" d="M368.6,359.4c0-0.4,0-0.7-0.1-1c0-0.3-0.1-0.5-0.2-0.7c-0.1-0.2-0.2-0.4-0.4-0.5c-0.2-0.1-0.4-0.2-0.7-0.2
			c-0.2,0-0.5,0-0.7,0.1c-0.2,0.1-0.3,0.3-0.4,0.5c-0.1,0.2-0.2,0.4-0.2,0.6c0,0.2-0.1,0.5-0.1,0.8c0,0.4,0,0.8,0.1,1.1
			c0.1,0.3,0.1,0.6,0.2,0.8c0.1,0.1,0.1,0.2,0.2,0.2c0.1,0.1,0.2,0.1,0.3,0.2c0.1,0.1,0.2,0.1,0.3,0.1c0.1,0,0.2,0,0.3,0
			c0.2,0,0.4,0,0.6-0.1c0.2-0.1,0.3-0.2,0.4-0.3c0.1-0.1,0.1-0.2,0.2-0.3c0-0.1,0.1-0.2,0.1-0.3c0-0.1,0.1-0.3,0.1-0.4
			C368.6,359.8,368.6,359.6,368.6,359.4 M369.3,359.3c0,0.5-0.1,0.9-0.2,1.3c-0.1,0.3-0.3,0.6-0.6,0.9c-0.2,0.2-0.4,0.3-0.6,0.4
			c-0.2,0.1-0.4,0.1-0.7,0.1c-0.3,0-0.6,0-0.9-0.2c-0.2-0.1-0.5-0.3-0.6-0.5c-0.4-0.5-0.6-1.2-0.6-2.1c0-0.4,0.1-0.8,0.2-1.1
			c0.1-0.3,0.2-0.6,0.4-0.8c0.2-0.2,0.4-0.4,0.7-0.5c0.3-0.1,0.5-0.2,0.9-0.2c0.2,0,0.4,0,0.6,0.1c0.2,0,0.3,0.1,0.5,0.2
			c0.1,0.1,0.3,0.2,0.3,0.3c0.1,0.1,0.2,0.2,0.2,0.3c0.2,0.2,0.3,0.5,0.4,0.8C369.3,358.5,369.3,358.9,369.3,359.3"/>
		<path class="st0" d="M373,358.2c0-0.4-0.1-0.7-0.3-0.8c-0.1-0.1-0.2-0.2-0.4-0.2c-0.2-0.1-0.4-0.1-0.6-0.1H371v2.1h0.9
			c0.2,0,0.4,0,0.5-0.1c0.1,0,0.2-0.1,0.3-0.2C372.9,358.7,373,358.5,373,358.2 M373.7,358.1c0,0.3,0,0.5-0.1,0.7
			c-0.1,0.2-0.2,0.4-0.4,0.5c-0.2,0.2-0.4,0.3-0.6,0.3c-0.2,0.1-0.4,0.1-0.7,0.1H371v2.1h-0.6v-5.2h1.5c0.3,0,0.5,0,0.7,0
			c0.2,0,0.3,0.1,0.5,0.2C373.5,357.1,373.7,357.5,373.7,358.1"/>
		<path class="st0" d="M376.1,359.8v2h-0.6v-2.1l-1.7-3.2h0.8l1,2c0,0.1,0.1,0.2,0.1,0.3c0,0.1,0.1,0.2,0.1,0.2c0,0.1,0,0.1,0,0.1
			c0.1-0.2,0.2-0.4,0.3-0.6l1-2h0.7L376.1,359.8"/>
		<path class="st0" d="M380.8,358c0-0.2,0-0.3-0.1-0.5c-0.1-0.2-0.2-0.3-0.4-0.3c-0.1,0-0.2-0.1-0.3-0.1c-0.1,0-0.2,0-0.4,0h-0.6v2
			h0.6c0.2,0,0.4,0,0.6-0.1c0.1,0,0.3-0.1,0.4-0.2c0.1-0.1,0.2-0.2,0.2-0.3C380.8,358.3,380.8,358.2,380.8,358 M381,361.8
			c0-0.1-0.1-0.2-0.2-0.3c-0.1-0.1-0.2-0.3-0.3-0.5c-0.1-0.2-0.2-0.4-0.4-0.6c-0.1-0.2-0.3-0.4-0.5-0.6c0-0.1-0.1-0.1-0.1-0.1
			c0,0-0.1-0.1-0.1-0.1c-0.1,0-0.1,0-0.1-0.1c-0.1,0-0.1,0-0.2,0v2.4h-0.6v-5.2h1.2c0.2,0,0.3,0,0.5,0c0.1,0,0.3,0,0.4,0.1
			c0.1,0,0.2,0.1,0.3,0.1c0.1,0,0.1,0.1,0.2,0.1c0.1,0,0.1,0.1,0.2,0.2c0.1,0.1,0.1,0.2,0.2,0.2c0,0.1,0.1,0.2,0.1,0.3
			c0,0.1,0,0.2,0,0.4c0,0.2,0,0.4-0.1,0.6c-0.1,0.2-0.2,0.3-0.3,0.5c-0.1,0.1-0.3,0.2-0.4,0.3c-0.2,0.1-0.4,0.1-0.6,0.1H380
			c0.1,0.1,0.2,0.2,0.3,0.3c0.1,0.1,0.2,0.2,0.2,0.3c0,0.1,0.1,0.2,0.2,0.3c0.1,0.1,0.2,0.3,0.3,0.5c0.1,0.2,0.2,0.3,0.3,0.5
			c0.1,0.2,0.2,0.3,0.2,0.4c0.1,0.1,0.1,0.1,0.1,0.2H381z"/>
		<line class="st1" x1="382.9" y1="361.8" x2="382.9" y2="356.6"/>
		<path class="st0" d="M388.1,361.5c-0.2,0.1-0.4,0.2-0.7,0.3c-0.3,0.1-0.5,0.1-0.8,0.1c-0.7,0-1.2-0.2-1.6-0.7
			c-0.2-0.2-0.4-0.5-0.5-0.9c-0.1-0.3-0.2-0.7-0.2-1.2c0-0.5,0.1-0.9,0.2-1.3c0.1-0.4,0.3-0.7,0.6-0.9c0.4-0.3,0.8-0.5,1.4-0.5
			c0.6,0,1,0.2,1.4,0.5l-0.3,0.4c-0.2-0.2-0.4-0.2-0.6-0.3c-0.2-0.1-0.4-0.1-0.6-0.1c-0.3,0-0.6,0.1-0.8,0.2
			c-0.2,0.1-0.4,0.4-0.5,0.7c-0.1,0.4-0.2,0.8-0.2,1.3c0,0.4,0,0.7,0.1,0.9c0.1,0.3,0.2,0.5,0.3,0.7c0.1,0.1,0.1,0.2,0.2,0.2
			c0.1,0.1,0.2,0.1,0.3,0.2c0.1,0.1,0.2,0.1,0.4,0.1c0.1,0,0.3,0,0.4,0c0.3,0,0.6-0.1,0.8-0.2v-1.6h-1l-0.1-0.5h1.8V361.5"/>
		<polygon class="st0" points="392.2,361.8 392.2,359.3 390,359.3 390,361.8 389.4,361.8 389.4,356.6 390,356.6 390,358.8 
			392.2,358.8 392.2,356.6 392.8,356.6 392.8,361.8 		"/>
		<polygon class="st0" points="397.1,357.1 395.7,357.1 395.7,361.8 395.1,361.8 395.1,357.1 393.7,357.1 393.7,356.6 397.1,356.6 
					"/>
		<path class="st0" d="M402.2,361.8h-2.9v-0.3c0.1-0.1,0.3-0.2,0.5-0.4c0.2-0.2,0.4-0.4,0.6-0.7c0.2-0.2,0.4-0.5,0.5-0.6
			c0.1-0.2,0.3-0.4,0.4-0.6c0.1-0.2,0.2-0.3,0.2-0.5c0-0.1,0.1-0.3,0.1-0.4c0-0.3-0.1-0.5-0.3-0.7c-0.2-0.2-0.4-0.3-0.7-0.3
			c-0.1,0-0.2,0-0.3,0c-0.1,0-0.2,0.1-0.3,0.1c-0.1,0-0.2,0.1-0.3,0.1c-0.1,0.1-0.2,0.1-0.3,0.2l-0.3-0.3c0.3-0.3,0.6-0.4,0.8-0.5
			c0.3-0.1,0.5-0.2,0.8-0.2c0.2,0,0.4,0,0.6,0.1c0.2,0.1,0.3,0.2,0.4,0.3c0.1,0.1,0.2,0.3,0.3,0.4c0.1,0.2,0.1,0.4,0.1,0.6
			c0,0.2-0.1,0.4-0.1,0.7c-0.1,0.2-0.2,0.5-0.4,0.7c-0.2,0.2-0.4,0.5-0.7,0.8c-0.1,0.1-0.2,0.2-0.4,0.4c-0.1,0.1-0.2,0.2-0.3,0.3
			c-0.1,0.1-0.2,0.2-0.3,0.2c-0.1,0.1-0.1,0.1-0.2,0.1h0.1c0.1,0,0.1,0,0.2,0c0.1,0,0.2,0,0.3,0h1.6L402.2,361.8"/>
		<path class="st0" d="M406.2,359.3c0-0.3,0-0.5,0-0.7c0-0.2-0.1-0.4-0.1-0.6c-0.1-0.3-0.2-0.5-0.4-0.6c-0.2-0.1-0.4-0.2-0.6-0.2
			c-0.1,0-0.3,0.1-0.4,0.2c-0.1,0.1-0.3,0.3-0.4,0.5c-0.2,0.3-0.3,0.8-0.3,1.4c0,0.3,0,0.5,0,0.8c0,0.2,0.1,0.4,0.1,0.6
			c0.1,0.3,0.2,0.5,0.4,0.6c0.2,0.2,0.3,0.2,0.5,0.2c0.2,0,0.3-0.1,0.5-0.2c0.2-0.1,0.3-0.3,0.4-0.5c0.1-0.2,0.1-0.4,0.2-0.6
			C406.2,359.9,406.2,359.6,406.2,359.3 M406.9,359.3c0,0.4-0.1,0.7-0.1,1.1c-0.1,0.3-0.2,0.6-0.4,0.8c-0.2,0.2-0.3,0.4-0.6,0.5
			c-0.2,0.1-0.5,0.2-0.7,0.2c-0.3,0-0.6-0.1-0.8-0.3c-0.2-0.2-0.4-0.4-0.5-0.7c-0.1-0.3-0.2-0.6-0.3-0.9c-0.1-0.3-0.1-0.6-0.1-0.9
			c0-0.3,0-0.7,0.1-1c0.1-0.3,0.2-0.6,0.4-0.8c0.2-0.2,0.3-0.4,0.6-0.5c0.2-0.1,0.4-0.2,0.7-0.2c0.2,0,0.4,0,0.6,0.1
			c0.2,0.1,0.3,0.2,0.5,0.3c0.1,0.1,0.2,0.3,0.3,0.4c0.1,0.2,0.2,0.4,0.2,0.5c0.1,0.2,0.1,0.4,0.1,0.6
			C406.8,359,406.9,359.1,406.9,359.3"/>
		<path class="st0" d="M411.1,359.3c0,0.4,0,0.7-0.1,1.1c-0.1,0.3-0.2,0.6-0.4,0.8c-0.2,0.2-0.3,0.4-0.6,0.5
			c-0.2,0.1-0.5,0.2-0.7,0.2c-0.3,0-0.6-0.1-0.8-0.3c-0.2-0.2-0.4-0.4-0.5-0.7c-0.1-0.3-0.2-0.6-0.3-0.9c-0.1-0.3-0.1-0.6-0.1-0.9
			c0-0.3,0-0.7,0.1-1c0.1-0.3,0.2-0.6,0.4-0.8c0.2-0.2,0.4-0.4,0.6-0.5c0.2-0.1,0.4-0.2,0.7-0.2c0.2,0,0.4,0,0.6,0.1
			c0.2,0.1,0.3,0.2,0.5,0.3c0.1,0.1,0.2,0.3,0.3,0.4c0.1,0.2,0.2,0.4,0.2,0.5c0.1,0.2,0.1,0.4,0.1,0.6
			C411.1,359,411.1,359.1,411.1,359.3"/>
	</g>
</g>
<g>
	<path class="st2" d="M71.6,194c0.3,18.2-8.9,21.1-17.2,28.4c-9.4-2.7-18.2-2-23,7c1-11.7,13.7-12.4,22.3-14.1
		C64.8,213.2,70.1,205.4,71.6,194L71.6,194z M76.5,139c7.3-6.6,16.4-10,25.6-10c17.2,0,31,11.2,38.6,19.9c-2.3-0.2-5.3-0.2-7.6,0
		c10.8,7.6,16.2,13.5,18.3,23.8c2.3,11.6-1.6,27.5-15,47.3c0.9-8.2,1.7-16.5,2.6-24.7c-6.7,8.4-10.8,18.5-6.9,34.3
		c-6.5-5.1-11-14.4-13-29c-5.8,14.2-15.4,24.8-29.9,30.8c9.6-16.6,13.1-32.9,11.3-49c11.1-5.3,16.7-14.4,19.9-25.1
		C110.5,147.1,95.5,141.4,76.5,139L76.5,139z M41,320.2c-3.5-14.8-3.5-29.3-0.4-43.1c4.9-21.8,27.1-40.1,26.1-50.7
		c-11.9,17.7-30,32.5-35.6,53.1C27.4,292.9,35,308.1,41,320.2L41,320.2z M70.8,290.3c-3,29,8.4,49.7,26.4,64.2
		c17.4,14,41.9,19.1,66.1,10.4c-22.5,13-54.6,10.8-74-4.8C70.5,345,65.1,320.1,70.8,290.3L70.8,290.3z M68.1,352.7
		c-15.2-26.6-13.5-55.7-3.7-75.5c9.8-19.7,28.8-37.2,51.1-43.2C35.5,237.4,32.5,311,68.1,352.7L68.1,352.7z"/>
	<path class="st3" d="M73.1,188.8c5.7,6,9.3,14.1,8.7,21.9c-1.8,23.2-42,37.7-47.2,73.2c-1.9,12.6,1.9,26.4,6.2,36
		c-17.2-23-13.2-45.6-5.4-59c-1.5,0.9-7.7,5.5-9.1,18.6c-7.2-19,9.4-34.6,23.8-46.7C70.3,215.9,76.6,208.7,73.1,188.8L73.1,188.8z
		 M108.3,186.8c3.3,2.5,4.7,9.6,3.7,14.7c-1.4,7.2-7.7,12.4-12.6,18.3c1.3-3.8,7.6-11.7,8.9-17.6C109.5,197.1,109.5,192,108.3,186.8
		L108.3,186.8z M85.6,135.7c3-1.8,9.1-4.1,14.6-4.3c5.7-0.2,12.9,1.2,16.6,3.3C106.3,132.8,95.9,133.1,85.6,135.7L85.6,135.7z
		 M76.2,182c2.5-0.2,4.8,0.2,6.8,1.3c-0.5-2.6-0.1-5,1-7.3c5.6,9.2,7,20.2,3.1,28.9C86.7,198.7,83.1,187.2,76.2,182L76.2,182z
		 M29.9,204.3c-2.7-1.8-5.8-2.2-9.6-0.3c-2.1,1-3.4,4.7-6.3,5.6c-2.6,0.8-7.2-0.3-7.4-6.1c-4.3,7.5,2.5,10.8,6.8,10.8
		c5.8-0.1,6.8-4.9,10.1-7.9C25.4,204.9,28,204.8,29.9,204.3L29.9,204.3z M13.7,173.8c4.8,5.4,8-1.4,11.4,0.2
		c-1.5,3.2-7,4.2-7.8,10.8c0.3,5.2,3.6,9.1,14,8.6c7.2-0.4,13.4-3.7,18-10.6c-0.8,3.3-1.4,6.8-1.4,10.7c1.6,3.1,5.2,8,5.3,12.1
		c0.1,3.8-2.5,6.3-8.6,6.7c-10.7,0.8-18.1,1.5-17.4,6.6c0.2,1.7,1.5,5.7,3.5,5.6c1.9-0.1,4-4.3,10.4-4.8c4.2-0.4,8.6,0,13.3,1.6
		c6-2.4,9.2-5.5,11.7-8.7c-2.6,4.4-6.2,8.1-11.6,11.3C44,220,36.6,223.2,32,232c-5-2.5-7.8-8.6-9.2-16.9c4.3-0.2,0.5-5.1,4.1-8.3
		c0.6,2.1,1.6,3.6,3,4.7c7.9-0.4,16.4-0.6,16.4-7.8c0-5.1-3.4-8.8-7.8-9.4c-1.8-0.3-4.1,0.7-5.9,0.8c-1.4,0.1-4.5-0.2-6.5,1
		c-1.7,1.1-2.6,3.5-2.4,5.6c-1.7-1-3.5-2.2-4.2-6.2c-2.8-2.5-5.1-10.6-4.5-15.3C12.6,177.6,12,175.6,13.7,173.8L13.7,173.8z
		 M81.6,225.8c-15,15.5-39.7,40.6-38.4,65.5C40.6,323.4,59,343,68.1,352.8c-12.3-16.9-21-39.4-17.9-65.3c1.1,2.5,2.4,5.6,3.9,6.8
		c3.8-16,12.1-30.2,23.8-40.3c11.8-10.2,32.5-20.2,46.3-20c-5.8-5.7-7.3-12.8-5.2-21.3c2.8,9,7.6,14.7,12.9,17.1
		c-7-9.8-8-22.9-1.1-34.2c6,3.3,7.2,12.6,5,23.3c5.4-9.5,6.5-20.7,2.9-33.8c2.9,2.5,5.2,5.7,6,8.9c7.9-21.7-4.7-36.7-23.2-47.6
		c7.4-2.5,14.2-1.5,20.3,2.9c-6.9-13.8-19.7-20.5-32.7-22.4c-9.9-1.4-28.4,1-34.8,9.6c-0.6-3.7,1-5.4,3.5-7.8
		c-8.4,1.2-12.4,5.4-11.4,13.2c-2.5-2.6-5.9-4.6-8.9-4.4c3.5,4.5,3.7,8.4-1.7,10.2c-7.3,2.5-16,7.2-19.2,10.7
		c-1.5,1.6-1.9,3.9-0.8,5.8c-1.4-0.1-2.7,0.9-3.9,2.3c5.1-1.4,6.4,0.9,11.4,0.9c0.2,1.3,1,2.2,2.1,2.6c-0.9-1.7-0.6-2.8,0.8-3.3
		c1.3-0.4,4.4,1.2,6.3,0.6c3.2-1.1,7-4.4,8.9-5.9c-3.1,0.1-6.8-0.7-10.2,0.1c-3.1,0.7-6,3.3-9.1,4c-2.4-0.1-3.6-1.8-4-5
		c-0.7-5.2,23.8-13.6,30-13.5c6.8,0.3,12,2.8,16.4,6.5c-0.1,0.5-0.2,1-0.2,1.5c1.8-1.2,4.5-1.7,7.2-1.4c-2.2,2.4-4.1,5.8-5.5,10.2
		c6.6-3,11.9-7.7,23.5-4.5c0.4,4.8-2.5,10.9-7,15.3c-2.8-0.9-5.4-2-7.8-3.4c1.6-1.3,3.2-2.6,4.8-3.9c-1.3-0.1-2.5-0.1-3.8-0.2
		c2.8-2.9,5.6-5,8.7-5.9c-5.4-0.9-10.3,1.8-14.8,6.4C101,199.4,92.9,214.1,81.6,225.8L81.6,225.8z M86.1,270.4
		c-6,10.2-8.2,21.5-7.6,32.5l7.9-13.2c-2.7,14.6,10.4,23.6,22.1,20.6c-11.1,9.9-9.2,22,5,35.6c-6.4,0.2-13.6-1.1-20-3.7
		c10.8,12.8,30.3,20.5,46.8,19.4c-3-1-11.1-2.3-16.3-9.9c19.1,5,31.9-1.4,34.4-16.6c4.3,13.5,8.5,15.3,18,8.4
		c-3.2,9.3-9.7,15.8-18.4,19.1c-26.8,10-46.7,3.8-64.1-8.8C71.8,337.4,63,292.4,86.1,270.4L86.1,270.4z M275.1,249.4h7.5
		c-0.3,0.4-1,0.7-1,1.3l0,9.7h10.6v-9.7c0-0.5-0.6-0.8-0.9-1.3h7.5c-0.3,0.4-1,0.7-1,1.3v24.3c0,0.5,0.6,0.8,1,1.2h-7.5
		c0.3-0.4,0.9-0.7,0.9-1.2v-11h-10.6l0,11c0,0.5,0.6,0.8,1,1.2h-7.5c0.3-0.4,0.9-0.7,0.9-1.2v-24.3
		C276,250.1,275.4,249.8,275.1,249.4L275.1,249.4z M404.3,284.8h11c-0.5,0.6-1.4,1.1-1.4,1.9v14.3h15.5v-14.3c0-0.8-0.9-1.2-1.4-1.9
		h11c-0.5,0.6-1.4,1.1-1.4,1.9v35.7c0,0.8,0.9,1.2,1.4,1.8h-11c0.5-0.6,1.4-1,1.4-1.8v-16.1h-15.5v16.1c0,0.8,0.9,1.2,1.4,1.8h-11
		c0.5-0.6,1.4-1,1.4-1.8v-35.7C405.6,285.9,404.7,285.4,404.3,284.8L404.3,284.8z M445.4,284.8h11c-0.5,0.6-1.4,1.1-1.4,1.9v35.7
		c0,0.8,0.9,1.2,1.4,1.8h-11c0.5-0.6,1.4-1,1.4-1.8l0.1-35.7C446.9,285.8,445.9,285.4,445.4,284.8L445.4,284.8z M194.3,284.7h26.2
		v6.8c-0.5-0.4-0.9-1.2-1.6-1.2h-15v10.8h13.7c0.7,0,0.9-1,1.3-1.4v8.4c-0.5-0.5-0.7-1.4-1.4-1.4H204v11.8h15.9
		c0.8,0,1.3-1.1,1.9-1.6l-0.1,7.2h-27.3c0.5-0.6,1.4-1,1.4-1.8v-35.7C195.7,285.8,194.8,285.3,194.3,284.7L194.3,284.7z
		 M299.3,284.7h26.2v6.8c-0.5-0.4-0.9-1.2-1.6-1.2h-15v10.8h13.7c0.7,0,0.9-1,1.3-1.4v8.4c-0.5-0.5-0.7-1.4-1.4-1.4h-13.6v11.8h15.9
		c0.8,0,1.3-1.1,1.9-1.6l-0.1,7.2h-27.3c0.5-0.6,1.4-1,1.4-1.8v-35.7C300.6,285.8,299.7,285.3,299.3,284.7L299.3,284.7z
		 M227.3,284.7h11.8l12.5,27.7l12.9-27.7h10.8c-0.5,0.7-1.5,1.2-1.5,2v35.7c0,0.8,0.9,1.2,1.4,1.8h-10.6c0.5-0.6,1.6-1,1.6-1.8
		v-28.5l-13.8,30.2h-4l-14-30.3v28.5c0,0.7,0.9,1.2,1.3,1.8h-8.3c0.3-0.6,1.4-1.1,1.4-1.8v-35.7
		C228.8,285.8,227.8,285.3,227.3,284.7L227.3,284.7z M282.2,284.7h11.2c-0.5,0.7-1.6,1.1-1.6,2v35.5c0,0.8,0.9,1.3,1.4,1.9h-11
		c0.5-0.6,1.4-1.1,1.4-1.9v-35.6C283.5,285.8,282.6,285.3,282.2,284.7L282.2,284.7z M241.2,249.4h7.5c-0.3,0.4-1,0.8-1,1.3v24.1
		c0,0.6,0.6,0.9,1,1.4h-7.5c0.3-0.5,0.9-0.8,0.9-1.4v-24.2C242.1,250.1,241.5,249.7,241.2,249.4L241.2,249.4z M193.3,249.4h21.5v4.7
		c-0.3-0.3-0.6-1-1-1c-2.3,0-4.6,0-6.9,0v22.1c0,0.4,0.6,0.7,0.8,1h-7.1c0.3-0.4,0.8-0.6,0.8-1.1c0.3-7.3,0-14.7,0-22
		c-2.3,0-4.7,0-7,0c-0.5,0-0.8,0.7-1.2,1L193.3,249.4L193.3,249.4z M216.6,249.4h21.5v4.7c-0.3-0.3-0.6-1-1-1c-2.3,0-4.6,0-6.9,0
		v22.1c0,0.4,0.6,0.7,0.8,1h-7.1c0.3-0.4,0.8-0.6,0.8-1.1c0.3-7.3,0-14.7,0-22c-2.3,0-4.7,0-7,0c-0.5,0-0.8,0.7-1.2,1L216.6,249.4
		L216.6,249.4z M177.1,253.2c-2.3,0-4.1,0.8-5.6,2.3c-1.8,1.8-2.7,4.2-2.7,7.2c0,3,0.9,5.3,2.7,7.2c1.5,1.5,3.4,2.3,5.7,2.3
		c2.3,0,4.2-0.8,5.7-2.3c0.9-0.9,1.6-2,2.1-3.4c0.4-1.2,0.6-2.4,0.6-3.7c0-3.1-0.9-5.5-2.7-7.3C181.2,254,179.3,253.2,177.1,253.2
		L177.1,253.2z M177,248.6c4.1,0,7.4,1.3,9.8,3.9c2.6,2.7,3.8,6.2,3.8,10.4c0,2.6-0.6,5.1-1.8,7.3c-2.4,4.4-6.3,6.6-11.8,6.6
		c-4.1,0-7.4-1.3-9.8-3.9c-1.3-1.4-2.3-3-3-4.9c-0.6-1.7-0.9-3.5-0.9-5.3c0-2.7,0.6-5.2,1.8-7.5C167.6,250.9,171.5,248.7,177,248.6
		L177,248.6z M159.7,275.1c-1.4-1.8-2.7,1.5-7.9,1.6c-7.3,0.1-12.2-5.9-12.2-13.5c0-7.1,4.1-14.3,12.1-14.4c3.3,0,5.9,2.3,7,0.8v6.7
		c-1.4-2.5-3.5-3.7-5.8-3.6c-5.9,0.1-7.9,6.6-7.9,10.6c0,4.6,2.6,9.8,8.1,9.6c2.9-0.1,5.7-3,6.5-4.1L159.7,275.1L159.7,275.1z
		 M270.3,250.1v7c-1.4-2.5-4.3-4.3-7.3-4.3c-2.5,0-4.9,0.7-5,3.6c-0.1,2.8,3.9,3.6,6.2,4.4c2.5,0.9,7.8,2.2,7.9,8
		c0,5.7-6.9,8.2-10,8.1c-5.4-0.1-8.2-3.4-9-1.4v-6.8c2.5,3.5,6,4.2,8.3,4.2c1.8,0,5.2-0.3,5.2-3.6c0-3-4.1-3.3-7.3-4.7
		c-3.4-1.5-6.5-2.4-6.5-7.6c0-3.1,2-8.1,9.5-8.1C266.5,248.7,269.1,251.8,270.3,250.1L270.3,250.1z M396.3,285.9v10.2
		c-2.1-3.7-6.3-6.3-10.7-6.3c-3.6,0-7.1,1-7.3,5.3c-0.2,4.1,5.6,5.2,9,6.4c3.7,1.3,11.4,3.2,11.5,11.6c0,8.3-10.1,12-14.6,11.9
		c-7.9-0.2-11.9-5-13.1-2v-10c3.7,5.2,8.7,6.2,12.1,6.1c2.7,0,7.5-0.5,7.6-5.3c0.1-4.4-5.9-4.8-10.7-6.9c-5-2.2-9.4-3.5-9.4-11.2
		c0-4.6,2.9-11.8,13.8-11.8C390.8,283.9,394.5,288.4,396.3,285.9L396.3,285.9z M135,250.1v7c-1.4-2.5-4.3-4.3-7.3-4.3
		c-2.5,0-4.9,0.7-5,3.6c-0.1,2.8,3.9,3.6,6.2,4.4c2.5,0.9,7.8,2.2,7.9,8c0,5.7-6.9,8.2-10,8.1c-5.4-0.1-8.2-3.4-9-1.4v-6.8
		c2.5,3.5,6,4.2,8.3,4.2c1.8,0,5.2-0.3,5.2-3.6c0-3-4.1-3.3-7.3-4.7c-3.4-1.5-6.5-2.4-6.5-7.6c0-3.1,2-8.1,9.5-8.1
		C131.2,248.8,133.8,251.9,135,250.1L135,250.1z M341.7,302.7h7c2.4,0,6.9-0.8,6.8-5.9c-0.1-4.3-3.4-6.6-7.3-6.6h-6.6L341.7,302.7
		L341.7,302.7z M341.6,309.1v13.2c0,0.7,0.9,1.2,1.3,1.8h-10.5c0.4-0.6,1.2-1.1,1.2-1.8l0.1-35.7c0-0.8-1-1.3-1.4-2h17.4
		c4.5,0,14.2,0.3,14.4,11.1c0.1,6-3.6,9.7-7.7,11.7l8.6,14.9c0.4,0.8,1.3,1.2,2,1.8h-10.1l-8.2-15L341.6,309.1L341.6,309.1z
		 M165.1,302.7h7c2.4,0,6.9-0.8,6.8-5.9c-0.1-4.3-3.4-6.6-7.3-6.6H165L165.1,302.7L165.1,302.7z M165,309.1v13.2
		c0,0.7,0.9,1.2,1.3,1.8h-10.5c0.4-0.6,1.2-1.1,1.2-1.8l0.1-35.7c0-0.8-1-1.3-1.4-2H173c4.5,0,14.2,0.3,14.4,11.1
		c0.1,6-3.6,9.7-7.7,11.7l8.6,14.9c0.4,0.8,1.3,1.2,2,1.8h-10.1l-8.2-15L165,309.1L165,309.1z M472.6,303.6h7c2.4,0,7-1.7,6.9-6.7
		c-0.1-4.3-3.4-6.6-7.3-6.6h-6.6V303.6L472.6,303.6z M472.6,309.1v13.2c0,0.7,0.9,1.2,1.3,1.8h-10.5c0.4-0.6,1.2-1.1,1.2-1.8
		l0.1-35.7c0-0.8-1-1.3-1.4-2h16.3c4.5,0,15,1.1,15.2,11.9c0.2,9.6-9.2,12.5-14.4,12.5H472.6L472.6,309.1z M128.1,303.6h7
		c2.4,0,7-1.7,6.9-6.7c-0.1-4.3-3.4-6.6-7.3-6.6h-6.6V303.6L128.1,303.6z M128.1,309.1v13.2c0,0.7,0.9,1.2,1.3,1.8h-10.5
		c0.4-0.6,1.2-1.1,1.2-1.8l0.1-35.7c0-0.8-1-1.3-1.4-2H135c4.5,0,15,1.1,15.2,11.9c0.2,9.6-9.2,12.5-14.4,12.5H128.1L128.1,309.1z"
		/>
</g>
</svg>
