<?xml version="1.0" encoding="utf-8"?>
<!-- Generator: Adobe Illustrator 25.0.1, SVG Export Plug-In . SVG Version: 6.00 Build 0)  -->
<svg version="1.1" id="Layer_1" xmlns="http://www.w3.org/2000/svg" xmlns:xlink="http://www.w3.org/1999/xlink" x="0px" y="0px"
	 viewBox="0 0 500 500" style="enable-background:new 0 0 500 500;" xml:space="preserve">
<style type="text/css">
	.st0{display:none;fill:#FFFFFF;}
	.st1{display:none;fill:none;stroke:#FFFFFF;stroke-width:0.5621;stroke-miterlimit:10;}
	.st2{fill:#FFFFFF;}
	.st3{fill:#7BFF00;}
</style>
<g>
	<g>
		<path class="st0" d="M354.1,355.2c-2.2,0-3.9,1.8-3.9,3.9c0,2.2,1.8,3.9,3.9,3.9c2.2,0,3.9-1.8,3.9-3.9
			C358,357,356.2,355.2,354.1,355.2 M357.4,359.2c0,1.9-1.5,3.4-3.3,3.4c-1.9,0-3.4-1.5-3.4-3.4c0-1.8,1.5-3.3,3.4-3.3
			C355.9,355.8,357.4,357.3,357.4,359.2"/>
		<path class="st0" d="M354,360.8c-0.9,0-1.7-0.8-1.7-1.7c0-0.9,0.8-1.7,1.7-1.7c0.7,0,1.2,0.4,1.5,1h0.5c-0.3-0.8-1.1-1.4-2-1.4
			c-1.2,0-2.1,1-2.1,2.1c0,1.2,1,2.1,2.1,2.1c1,0,1.8-0.6,2-1.5h-0.5C355.3,360.4,354.7,360.8,354,360.8"/>
		<path class="st0" d="M364.7,361.5c-0.2,0.1-0.4,0.2-0.7,0.3c-0.3,0.1-0.5,0.1-0.8,0.1c-0.3,0-0.6,0-0.8-0.2
			c-0.3-0.1-0.5-0.3-0.7-0.5c-0.2-0.3-0.4-0.6-0.5-0.9c-0.1-0.3-0.1-0.7-0.1-1.1c0-0.4,0.1-0.7,0.2-1.1c0.1-0.3,0.3-0.6,0.5-0.9
			c0.2-0.2,0.4-0.4,0.7-0.6c0.3-0.1,0.6-0.2,0.9-0.2c0.2,0,0.5,0,0.7,0.1c0.2,0.1,0.4,0.2,0.6,0.3l-0.3,0.4
			c-0.2-0.1-0.3-0.2-0.5-0.2c-0.2-0.1-0.3-0.1-0.5-0.1c-0.3,0-0.6,0.1-0.8,0.2c-0.2,0.1-0.4,0.4-0.5,0.7c-0.1,0.2-0.1,0.4-0.2,0.6
			c0,0.2,0,0.5,0,0.8c0,0.2,0,0.5,0,0.6c0,0.2,0.1,0.3,0.1,0.5c0.1,0.3,0.3,0.6,0.6,0.7c0.3,0.2,0.5,0.2,0.8,0.2
			c0.2,0,0.4,0,0.5-0.1c0.2-0.1,0.3-0.1,0.5-0.3L364.7,361.5"/>
		<path class="st0" d="M368.6,359.4c0-0.4,0-0.7-0.1-1c0-0.3-0.1-0.5-0.2-0.7c-0.1-0.2-0.2-0.4-0.4-0.5c-0.2-0.1-0.4-0.2-0.7-0.2
			c-0.2,0-0.5,0-0.7,0.1c-0.2,0.1-0.3,0.3-0.4,0.5c-0.1,0.2-0.2,0.4-0.2,0.6c0,0.2-0.1,0.5-0.1,0.8c0,0.4,0,0.8,0.1,1.1
			c0.1,0.3,0.1,0.6,0.2,0.8c0.1,0.1,0.1,0.2,0.2,0.2c0.1,0.1,0.2,0.1,0.3,0.2c0.1,0.1,0.2,0.1,0.3,0.1c0.1,0,0.2,0,0.3,0
			c0.2,0,0.4,0,0.6-0.1c0.2-0.1,0.3-0.2,0.4-0.3c0.1-0.1,0.1-0.2,0.2-0.3c0-0.1,0.1-0.2,0.1-0.3c0-0.1,0.1-0.3,0.1-0.4
			C368.6,359.8,368.6,359.6,368.6,359.4 M369.3,359.3c0,0.5-0.1,0.9-0.2,1.3c-0.1,0.3-0.3,0.6-0.6,0.9c-0.2,0.2-0.4,0.3-0.6,0.4
			c-0.2,0.1-0.4,0.1-0.7,0.1c-0.3,0-0.6,0-0.9-0.2c-0.2-0.1-0.5-0.3-0.6-0.5c-0.4-0.5-0.6-1.2-0.6-2.1c0-0.4,0.1-0.8,0.2-1.1
			c0.1-0.3,0.2-0.6,0.4-0.8c0.2-0.2,0.4-0.4,0.7-0.5c0.3-0.1,0.5-0.2,0.9-0.2c0.2,0,0.4,0,0.6,0.1c0.2,0,0.3,0.1,0.5,0.2
			c0.1,0.1,0.3,0.2,0.3,0.3c0.1,0.1,0.2,0.2,0.2,0.3c0.2,0.2,0.3,0.5,0.4,0.8C369.3,358.5,369.3,358.9,369.3,359.3"/>
		<path class="st0" d="M373,358.2c0-0.4-0.1-0.7-0.3-0.8c-0.1-0.1-0.2-0.2-0.4-0.2c-0.2-0.1-0.4-0.1-0.6-0.1H371v2.1h0.9
			c0.2,0,0.4,0,0.5-0.1c0.1,0,0.2-0.1,0.3-0.2C372.9,358.7,373,358.5,373,358.2 M373.7,358.1c0,0.3,0,0.5-0.1,0.7
			c-0.1,0.2-0.2,0.4-0.4,0.5c-0.2,0.2-0.4,0.3-0.6,0.3c-0.2,0.1-0.4,0.1-0.7,0.1H371v2.1h-0.6v-5.2h1.5c0.3,0,0.5,0,0.7,0
			c0.2,0,0.3,0.1,0.5,0.2C373.5,357.1,373.7,357.5,373.7,358.1"/>
		<path class="st0" d="M376.1,359.8v2h-0.6v-2.1l-1.7-3.2h0.8l1,2c0,0.1,0.1,0.2,0.1,0.3c0,0.1,0.1,0.2,0.1,0.2c0,0.1,0,0.1,0,0.1
			c0.1-0.2,0.2-0.4,0.3-0.6l1-2h0.7L376.1,359.8"/>
		<path class="st0" d="M380.8,358c0-0.2,0-0.3-0.1-0.5c-0.1-0.2-0.2-0.3-0.4-0.3c-0.1,0-0.2-0.1-0.3-0.1c-0.1,0-0.2,0-0.4,0h-0.6v2
			h0.6c0.2,0,0.4,0,0.6-0.1c0.1,0,0.3-0.1,0.4-0.2c0.1-0.1,0.2-0.2,0.2-0.3C380.8,358.3,380.8,358.2,380.8,358 M381,361.8
			c0-0.1-0.1-0.2-0.2-0.3c-0.1-0.1-0.2-0.3-0.3-0.5c-0.1-0.2-0.2-0.4-0.4-0.6c-0.1-0.2-0.3-0.4-0.5-0.6c0-0.1-0.1-0.1-0.1-0.1
			c0,0-0.1-0.1-0.1-0.1c-0.1,0-0.1,0-0.1-0.1c-0.1,0-0.1,0-0.2,0v2.4h-0.6v-5.2h1.2c0.2,0,0.3,0,0.5,0c0.1,0,0.3,0,0.4,0.1
			c0.1,0,0.2,0.1,0.3,0.1c0.1,0,0.1,0.1,0.2,0.1c0.1,0,0.1,0.1,0.2,0.2c0.1,0.1,0.1,0.2,0.2,0.2c0,0.1,0.1,0.2,0.1,0.3
			c0,0.1,0,0.2,0,0.4c0,0.2,0,0.4-0.1,0.6c-0.1,0.2-0.2,0.3-0.3,0.5c-0.1,0.1-0.3,0.2-0.4,0.3c-0.2,0.1-0.4,0.1-0.6,0.1H380
			c0.1,0.1,0.2,0.2,0.3,0.3c0.1,0.1,0.2,0.2,0.2,0.3c0,0.1,0.1,0.2,0.2,0.3c0.1,0.1,0.2,0.3,0.3,0.5c0.1,0.2,0.2,0.3,0.3,0.5
			c0.1,0.2,0.2,0.3,0.2,0.4c0.1,0.1,0.1,0.1,0.1,0.2H381z"/>
		<line class="st1" x1="382.9" y1="361.8" x2="382.9" y2="356.6"/>
		<path class="st0" d="M388.1,361.5c-0.2,0.1-0.4,0.2-0.7,0.3c-0.3,0.1-0.5,0.1-0.8,0.1c-0.7,0-1.2-0.2-1.6-0.7
			c-0.2-0.2-0.4-0.5-0.5-0.9c-0.1-0.3-0.2-0.7-0.2-1.2c0-0.5,0.1-0.9,0.2-1.3c0.1-0.4,0.3-0.7,0.6-0.9c0.4-0.3,0.8-0.5,1.4-0.5
			c0.6,0,1,0.2,1.4,0.5l-0.3,0.4c-0.2-0.2-0.4-0.2-0.6-0.3c-0.2-0.1-0.4-0.1-0.6-0.1c-0.3,0-0.6,0.1-0.8,0.2
			c-0.2,0.1-0.4,0.4-0.5,0.7c-0.1,0.4-0.2,0.8-0.2,1.3c0,0.4,0,0.7,0.1,0.9c0.1,0.3,0.2,0.5,0.3,0.7c0.1,0.1,0.1,0.2,0.2,0.2
			c0.1,0.1,0.2,0.1,0.3,0.2c0.1,0.1,0.2,0.1,0.4,0.1c0.1,0,0.3,0,0.4,0c0.3,0,0.6-0.1,0.8-0.2v-1.6h-1l-0.1-0.5h1.8V361.5"/>
		<polygon class="st0" points="392.2,361.8 392.2,359.3 390,359.3 390,361.8 389.4,361.8 389.4,356.6 390,356.6 390,358.8 
			392.2,358.8 392.2,356.6 392.8,356.6 392.8,361.8 		"/>
		<polygon class="st0" points="397.1,357.1 395.7,357.1 395.7,361.8 395.1,361.8 395.1,357.1 393.7,357.1 393.7,356.6 397.1,356.6 
					"/>
		<path class="st0" d="M402.2,361.8h-2.9v-0.3c0.1-0.1,0.3-0.2,0.5-0.4c0.2-0.2,0.4-0.4,0.6-0.7c0.2-0.2,0.4-0.5,0.5-0.6
			c0.1-0.2,0.3-0.4,0.4-0.6c0.1-0.2,0.2-0.3,0.2-0.5c0-0.1,0.1-0.3,0.1-0.4c0-0.3-0.1-0.5-0.3-0.7c-0.2-0.2-0.4-0.3-0.7-0.3
			c-0.1,0-0.2,0-0.3,0c-0.1,0-0.2,0.1-0.3,0.1c-0.1,0-0.2,0.1-0.3,0.1c-0.1,0.1-0.2,0.1-0.3,0.2l-0.3-0.3c0.3-0.3,0.6-0.4,0.8-0.5
			c0.3-0.1,0.5-0.2,0.8-0.2c0.2,0,0.4,0,0.6,0.1c0.2,0.1,0.3,0.2,0.4,0.3c0.1,0.1,0.2,0.3,0.3,0.4c0.1,0.2,0.1,0.4,0.1,0.6
			c0,0.2-0.1,0.4-0.1,0.7c-0.1,0.2-0.2,0.5-0.4,0.7c-0.2,0.2-0.4,0.5-0.7,0.8c-0.1,0.1-0.2,0.2-0.4,0.4c-0.1,0.1-0.2,0.2-0.3,0.3
			c-0.1,0.1-0.2,0.2-0.3,0.2c-0.1,0.1-0.1,0.1-0.2,0.1h0.1c0.1,0,0.1,0,0.2,0c0.1,0,0.2,0,0.3,0h1.6L402.2,361.8"/>
		<path class="st0" d="M406.2,359.3c0-0.3,0-0.5,0-0.7c0-0.2-0.1-0.4-0.1-0.6c-0.1-0.3-0.2-0.5-0.4-0.6c-0.2-0.1-0.4-0.2-0.6-0.2
			c-0.1,0-0.3,0.1-0.4,0.2c-0.1,0.1-0.3,0.3-0.4,0.5c-0.2,0.3-0.3,0.8-0.3,1.4c0,0.3,0,0.5,0,0.8c0,0.2,0.1,0.4,0.1,0.6
			c0.1,0.3,0.2,0.5,0.4,0.6c0.2,0.2,0.3,0.2,0.5,0.2c0.2,0,0.3-0.1,0.5-0.2c0.2-0.1,0.3-0.3,0.4-0.5c0.1-0.2,0.1-0.4,0.2-0.6
			C406.2,359.9,406.2,359.6,406.2,359.3 M406.9,359.3c0,0.4-0.1,0.7-0.1,1.1c-0.1,0.3-0.2,0.6-0.4,0.8c-0.2,0.2-0.3,0.4-0.6,0.5
			c-0.2,0.1-0.5,0.2-0.7,0.2c-0.3,0-0.6-0.1-0.8-0.3c-0.2-0.2-0.4-0.4-0.5-0.7c-0.1-0.3-0.2-0.6-0.3-0.9c-0.1-0.3-0.1-0.6-0.1-0.9
			c0-0.3,0-0.7,0.1-1c0.1-0.3,0.2-0.6,0.4-0.8c0.2-0.2,0.3-0.4,0.6-0.5c0.2-0.1,0.4-0.2,0.7-0.2c0.2,0,0.4,0,0.6,0.1
			c0.2,0.1,0.3,0.2,0.5,0.3c0.1,0.1,0.2,0.3,0.3,0.4c0.1,0.2,0.2,0.4,0.2,0.5c0.1,0.2,0.1,0.4,0.1,0.6
			C406.8,359,406.9,359.1,406.9,359.3"/>
		<path class="st0" d="M411.1,359.3c0,0.4,0,0.7-0.1,1.1c-0.1,0.3-0.2,0.6-0.4,0.8c-0.2,0.2-0.3,0.4-0.6,0.5
			c-0.2,0.1-0.5,0.2-0.7,0.2c-0.3,0-0.6-0.1-0.8-0.3c-0.2-0.2-0.4-0.4-0.5-0.7c-0.1-0.3-0.2-0.6-0.3-0.9c-0.1-0.3-0.1-0.6-0.1-0.9
			c0-0.3,0-0.7,0.1-1c0.1-0.3,0.2-0.6,0.4-0.8c0.2-0.2,0.4-0.4,0.6-0.5c0.2-0.1,0.4-0.2,0.7-0.2c0.2,0,0.4,0,0.6,0.1
			c0.2,0.1,0.3,0.2,0.5,0.3c0.1,0.1,0.2,0.3,0.3,0.4c0.1,0.2,0.2,0.4,0.2,0.5c0.1,0.2,0.1,0.4,0.1,0.6
			C411.1,359,411.1,359.1,411.1,359.3"/>
	</g>
</g>
<g>
	<path class="st2" d="M489.9,265.4c0,74.4,0,148.8,0,223.3c-160.4,0-320.9,0-481.5,0c0-160.5,0-321,0-481.5c74.4,0,148.8,0,223.3,0
		c-10,1.6-20.1,2.9-30.1,4.9C74.2,36.9-11.8,164.9,13.5,291.9C38.9,419,153.8,501.7,282.2,485.4C380,472.9,463,397,483.9,300.8
		C486.4,289.1,487.9,277.2,489.9,265.4z"/>
	<path d="M489.9,265.4c-2,11.8-3.5,23.7-6,35.3C463,397,380,472.9,282.2,485.4C153.8,501.7,38.9,419,13.5,291.9
		c-25.3-127,60.7-255,188.1-279.8c10-1.9,20-3.3,30.1-4.9c12,0,24,0,36,0c4.7,0.7,9.4,1.5,14.1,2.2c99.3,13,180.8,87.8,202.3,185.9
		c2.5,11.3,3.9,22.7,5.8,34.1C489.9,241.4,489.9,253.4,489.9,265.4z M30.4,247.4c0,120.9,98.2,219.2,219.1,219.3
		c121,0.1,219.3-98,219.5-218.9c0.2-121.2-98.2-219.7-219.4-219.6C128.6,28.2,30.4,126.4,30.4,247.4z"/>
	<path class="st2" d="M489.9,229.4c-1.9-11.4-3.3-22.9-5.8-34.1c-21.5-98-103-172.9-202.3-185.9c-4.7-0.6-9.4-1.4-14.1-2.2
		c74.1,0,148.1,0,222.2,0C489.9,81.3,489.9,155.4,489.9,229.4z"/>
	<path class="st2" d="M30.4,247.4c0-120.9,98.3-219.2,219.2-219.2c121.2,0,219.6,98.5,219.4,219.6c-0.2,120.9-98.6,219-219.5,218.9
		C128.5,466.6,30.3,368.3,30.4,247.4z M249.9,36.3c-116.5-0.1-211.3,94.6-211.3,211c0,116.2,94.4,210.9,210.6,211.1
		c116.5,0.2,211.4-94.3,211.6-210.7C461,131.3,366.3,36.4,249.9,36.3z"/>
	<path d="M249.9,36.3c116.5,0.1,211.1,95,210.9,211.4c-0.2,116.5-95.1,211-211.6,210.7C133,458.3,38.5,363.6,38.5,247.4
		C38.6,130.9,133.4,36.2,249.9,36.3z M364.6,226c-31.5,81.4-88.9,134.2-172.1,159.4c71.4,24.5,131.1,7.7,179.7-51.2
		c2,5.3,3.5,9.8,5.5,14.1c2.1,4.4,1.1,7.5-2.2,11.1c-55.2,60.5-140,74-211,33.5c-1.7-1-3.6-2.1-5.4-2.1c-10.1,0.4-20.2,1.1-30.3,1.7
		c0,0.3,0,0.6,0.1,0.7c0.4,0.4,0.8,0.9,1.2,1.3c40.1,31.6,85.5,46.1,136.5,41.5c54.7-5,98.9-29.8,132.8-72.7
		c1.8-2.2,2.6-6.4,1.9-9.1c-5.4-21.1-14.5-40.6-26.9-58.5c-1-1.5-2.3-2.9-3.7-4.6c-21.8,55.7-69.2,78.7-97.7,81.6
		c42.8-27.8,75.8-64.4,99-110.7c20.6,21.8,34.5,46.5,44.7,74.4c1.1-1.9,1.7-2.7,2.1-3.6c23-46.9,27.7-95.7,10.4-144.9
		c-25.8-73.2-78.5-115.6-155.1-128.2c-2.4-0.4-6,1-7.8,2.7C250.1,78,237.5,96.4,228.2,117c-0.5,1.1-0.7,2.4-1.2,3.8
		c55.8-9.5,101.8,18.9,119.6,43.9c-2.6-1.2-4.3-1.9-6-2.7c-35.6-17.8-73.4-26.8-113.1-28.4c-4.5-0.2-6.9,0.9-7.9,5.7
		c-2,10-5,19.8-6.6,29.8c-1.4,8.5-1.4,17.3-2,26.4c5,0,8.6-0.1,12.1,0c32.9,0.7,64,8.6,93.3,23.6c4.3,2.2,5.2,4.2,3.1,8.7
		C306.8,255.7,289.2,280,266,300c-9.3,8-19.6,15-29.9,22.9c-23.7-30.8-37.8-64.3-42.5-101.5c-7.7-61.3,10-115.2,48.7-163.3
		c-11.1,1-22,2-32.6,4.2C117.5,81.8,51.4,168.8,61.2,265.9c3.8,37.9,17.7,71.5,41.6,101c1.8,2.2,5.1,4,7.9,4.3
		c25.5,2.5,50.7,0.5,75.5-6c8.3-2.2,16.5-5,25-7.5c-54.9-68.3-72.2-143.8-51.6-229.1c-2.7,2-4.4,3.2-6,4.6
		c-34.1,29.5-52,66.8-53.1,111.8c-0.7,29.6,7.1,56.9,22.9,81.9c1.1,1.7,2.9,4.2,4.5,4.3c7.6,0.5,15.3,0.2,24.3,0.2
		c-38.8-47.5-34-103-22.4-126.1c2.7,50.7,17.8,97.4,46.2,140.4c-2.6,0.7-4.4,1.5-6.2,1.7c-15.5,1.3-31,2.4-46.5,3.7
		c-4.8,0.4-7.7-1.7-10.3-5.4c-25.8-36.6-36.9-77.3-30-121.5c10.2-64.9,46.9-109.8,107.8-134.6c1.7-0.7,3.6-1.1,6.3-2
		c-0.8,2.1-1.1,3.2-1.6,4.2c-21,42.1-28.8,86.5-22.5,133.3c6.1,45.2,24.1,85,53.6,119.8c2.9,3.4,5.1,3.7,9,1.6
		c52.7-28.6,89.5-70.9,110-127.3c1.7-4.7,0.7-6.9-3.4-9.5c-29.5-18.3-61.6-29.1-96-33.6c-13.8-1.8-13.7-2.1-10.3-16.2
		c0.8-3.1,1.9-4.5,5.2-4.1c5.4,0.7,10.8,0.9,16.1,1.7c52.3,8.4,97.7,30.6,135.9,67.3c1,1,2.3,1.7,4.5,3.3
		c-3.1-24.2-11.1-45.1-24.1-64c-26.4-38.4-63.4-59.7-110.7-65.8c4.9-5.9,8.8-11,13.2-15.5c1-1.1,3.7-1.2,5.5-0.8
		c5.7,1.2,11.3,2.5,16.8,4.2c82,24.7,132.6,107.6,117.2,191.7c-0.2,0.9-0.7,1.7-1.5,3.9C400.1,260.2,384.3,241.6,364.6,226z"/>
	<path class="st3" d="M364.6,226c19.7,15.6,35.4,34.2,49.4,55.8c0.8-2.1,1.3-3,1.5-3.9c15.4-84.1-35.2-167-117.2-191.7
		c-5.5-1.7-11.2-3-16.8-4.2c-1.8-0.4-4.5-0.3-5.5,0.8c-4.3,4.6-8.2,9.6-13.2,15.5c47.3,6.1,84.3,27.4,110.7,65.8
		c13,18.9,21,39.8,24.1,64c-2.2-1.6-3.5-2.3-4.5-3.3c-38.3-36.7-83.7-58.9-135.9-67.3c-5.3-0.9-10.7-1-16.1-1.7
		c-3.3-0.4-4.4,1-5.2,4.1c-3.4,14.1-3.6,14.4,10.3,16.2c34.4,4.5,66.4,15.3,96,33.6c4.1,2.6,5.1,4.8,3.4,9.5
		c-20.5,56.4-57.3,98.7-110,127.3c-3.9,2.1-6.1,1.7-9-1.6c-29.5-34.7-47.5-74.6-53.6-119.8c-6.4-46.7,1.4-91.1,22.5-133.3
		c0.5-1,0.8-2.1,1.6-4.2c-2.7,0.8-4.6,1.3-6.3,2c-61,24.8-97.6,69.7-107.8,134.6c-7,44.1,4.1,84.9,30,121.5
		c2.7,3.8,5.5,5.9,10.3,5.4c15.5-1.4,31-2.5,46.5-3.7c1.9-0.2,3.7-1,6.2-1.7c-28.3-43-43.5-89.7-46.2-140.4
		c-11.6,23.1-16.4,78.6,22.4,126.1c-9,0-16.7,0.2-24.3-0.2c-1.6-0.1-3.4-2.6-4.5-4.3c-15.9-25-23.6-52.3-22.9-81.9
		c1.1-45.1,19-82.3,53.1-111.8c1.6-1.4,3.3-2.6,6-4.6c-20.6,85.3-3.3,160.8,51.6,229.1c-8.5,2.6-16.6,5.4-25,7.5
		c-24.8,6.5-50,8.5-75.5,6c-2.8-0.3-6.1-2.1-7.9-4.3c-23.9-29.5-37.8-63.1-41.6-101c-9.8-97.1,56.3-184,148.5-203.6
		c10.6-2.3,21.5-3.3,32.6-4.2c-38.7,48.1-56.4,102-48.7,163.3c4.7,37.2,18.8,70.7,42.5,101.5c10.3-7.8,20.6-14.8,29.9-22.9
		c23.2-20,40.8-44.3,53.6-72.2c2.1-4.5,1.2-6.5-3.1-8.7c-29.3-15-60.4-22.9-93.3-23.6c-3.6-0.1-7.2,0-12.1,0
		c0.6-9.1,0.6-17.9,2-26.4c1.6-10,4.6-19.8,6.6-29.8c0.9-4.7,3.3-5.9,7.9-5.7c39.7,1.7,77.5,10.7,113.1,28.4c1.7,0.8,3.4,1.6,6,2.7
		c-17.8-25-63.8-53.4-119.6-43.9c0.4-1.4,0.7-2.7,1.2-3.8c9.3-20.6,21.9-39,38.3-54.7c1.8-1.8,5.4-3.1,7.8-2.7
		c76.6,12.6,129.3,54.9,155.1,128.2c17.3,49.2,12.6,98-10.4,144.9c-0.4,0.9-1,1.7-2.1,3.6c-10.2-27.9-24.2-52.6-44.7-74.4
		c-23.2,46.3-56.2,82.9-99,110.7c28.4-2.9,75.8-25.9,97.7-81.6c1.4,1.8,2.6,3.1,3.7,4.6c12.4,17.9,21.5,37.4,26.9,58.5
		c0.7,2.7-0.2,6.9-1.9,9.1c-34,43-78.1,67.7-132.8,72.7c-51,4.7-96.4-9.9-136.5-41.5c-0.5-0.4-0.8-0.8-1.2-1.3
		c-0.1-0.1,0-0.4-0.1-0.7c10.1-0.6,20.2-1.4,30.3-1.7c1.8-0.1,3.8,1.1,5.4,2.1c71,40.6,155.8,27.1,211-33.5
		c3.3-3.6,4.2-6.6,2.2-11.1c-2-4.3-3.5-8.8-5.5-14.1c-48.6,58.9-108.4,75.7-179.7,51.2C275.7,360.2,333.1,307.4,364.6,226z"/>
</g>
</svg>
