<?xml version="1.0" encoding="utf-8"?>
<!-- Generator: Adobe Illustrator 25.0.1, SVG Export Plug-In . SVG Version: 6.00 Build 0)  -->
<svg version="1.1" id="Layer_1" xmlns="http://www.w3.org/2000/svg" xmlns:xlink="http://www.w3.org/1999/xlink" x="0px" y="0px"
	 viewBox="0 0 500 500" style="enable-background:new 0 0 500 500;" xml:space="preserve">
<style type="text/css">
	.st0{fill:#DD232E;}
	.st1{fill:#9D9E9C;}
</style>
<g>
	<polygon class="st0" points="256.6,32.2 273.6,21.1 273.6,0.9 289.5,13.6 308.8,7.6 301.8,26.6 313.4,43.2 293,42.2 281.1,58 
		275.5,38.7 	"/>
	<path class="st1" d="M192.6,211l0.9-25.7c-17.2-25.2-28.2-66.7-32.7-99.2c0-0.3,0.2-0.4,0.5-0.3c60.5,38.5,123.9,37.1,179.4,3.4
		c-2.2,89.4-42,169.8-144.8,163.2c0.7,13.1,3,23.3,9.2,28.8C351.6,268.4,356.9,96.3,352.6,56.5c-0.3-3.1-4.3-4.7-7-1.8
		c-57.1,57.1-130.5,56.1-193.5,0l-3.4,3.3C149.3,118.4,166.3,175.9,192.6,211z"/>
	<path d="M59.4,393.3c-8-3.2-10-9.5-10-17.5c0-10-0.1-20-0.1-30.1c0-0.1-0.1-0.2-0.2-0.2h-9.6c-0.2,0-0.2-0.1-0.2-0.2v-9.8
		c0-0.2,0.1-0.2,0.2-0.2h9.9c0.2,0,0.2-0.1,0.2-0.2v-18.3c0-0.1,0.1-0.2,0.2-0.2h10.4c0.2,0,0.3,0.1,0.3,0.3V335
		c0,0.1,0.1,0.2,0.2,0.2h17.8c0.1,0,0.2,0.1,0.2,0.2l0,0v9.8c0,0.2-0.1,0.3-0.3,0.3H60.7c-0.1,0-0.2,0.1-0.2,0.2
		c0,9.7,0,19.4,0,29.1c0,14,13.6,10.1,20.9,5.9c0.2-0.1,0.3-0.1,0.3,0.2v9.9c0,0.2-0.1,0.3-0.2,0.4
		C74.9,394.8,66.5,396.2,59.4,393.3z"/>
	<path d="M307.5,385.4c0-0.1-0.1-0.1-0.1-0.1c0,0-0.1,0-0.1,0.1c-6.5,8.3-17,11.1-27.1,8.9c-18.6-4.1-27.3-22.7-21.8-40.3
		c1.9-5.9,5.2-10.6,10.1-14.3c11.1-8.3,28.6-8.4,38.1,2.6c0,0,0.1,0.1,0.2,0c0,0,0,0,0-0.1l0-25.4c0-0.1,0.1-0.2,0.2-0.2l0,0h10.5
		c0.2,0,0.3,0.1,0.3,0.3v77.9c0,0.1-0.1,0.2-0.2,0.2h-9.7c-0.2,0-0.3-0.1-0.3-0.3L307.5,385.4z M286.7,384.7
		c11,0.4,20.3-8.4,20.7-19.7l0,0c0.5-11.3-8.1-20.9-19.1-21.3s-20.3,8.4-20.7,19.7l0,0C267.2,374.7,275.7,384.3,286.7,384.7z"/>
	<path d="M452.3,316.5h10.4c0.1,0,0.3,0.1,0.3,0.3v77.9c0,0.1-0.1,0.3-0.3,0.3h-10.4c-0.1,0-0.3-0.1-0.3-0.3v-77.9
		C452.1,316.6,452.2,316.5,452.3,316.5z"/>
	<path d="M143,369.2c3.6,15.7,21.2,21.2,32.7,9.4c0.1-0.1,0.2-0.2,0.4-0.2l11.2,0.3c0.1,0,0.2,0.1,0.2,0.2c0,0,0,0.1,0,0.1
		c-13.2,24.3-47.1,19.5-54.5-6.5c-4.5-15.8,4.2-33,20.4-37.6c21.4-6,40.6,12.1,37.4,33.9c0,0.2-0.1,0.3-0.3,0.3h-47.3
		C143,369,143,369,143,369.2z M180.2,360.3c-1.8-14.4-18.4-21.4-30.1-12.6c-3.9,3-6.4,7.1-7.3,12.4c-0.1,0.3,0.1,0.5,0.4,0.5h36.8
		C180,360.5,180.1,360.4,180.2,360.3C180.2,360.3,180.2,360.3,180.2,360.3z"/>
	<path d="M208.5,341.1c0,0.1,0.1,0.1,0.1,0.1c0,0,0.1,0,0.1,0c5.5-6.9,14.3-8.7,22.8-6.9c12.7,2.7,18.2,12.3,18.3,24.7
		c0,11.9,0,23.8,0,35.7c0,0.1-0.1,0.2-0.2,0.2l0,0H239c-0.2,0-0.2-0.1-0.2-0.2c0-11.3,0-22.5,0-33.7c0-10.4-4.9-18.4-16.6-17
		c-9.9,1.2-13,9.9-13,18.6c0,10.8,0,21.5,0,32.3c0,0.1-0.1,0.2-0.2,0.2l0,0h-10.5c-0.2,0-0.3-0.1-0.3-0.3v-59.1
		c0-0.1,0.1-0.2,0.2-0.2h9.8c0.2,0,0.3,0.1,0.3,0.3L208.5,341.1z"/>
	<path d="M443.3,364.6c-0.2,16.9-14.4,30.4-31.7,30.2l0,0c-17.3-0.2-31.1-14.1-30.9-31c0.2-16.9,14.4-30.4,31.7-30.2l0,0
		C429.6,333.8,443.5,347.7,443.3,364.6L443.3,364.6z M392,368.2c2.2,11.5,14,19,25.2,15.8c12.3-3.6,18.7-17.7,12.9-29.1
		c-5-9.7-16.6-13.9-26.3-9.5C394.9,349.5,390.2,358.7,392,368.2z"/>
	<path d="M102.1,342.4c0,0.1,0.1,0.2,0.2,0.2c0.1,0,0.1,0,0.2-0.1c7-11.6,21.2-9.9,30.2-1.9c0.1,0.1,0.1,0.2,0,0.3l-5.7,9.5
		c-0.1,0.2-0.3,0.2-0.4,0.1c-2.3-2.2-5.3-4.3-8.3-5c-7.6-1.9-13.7,5.1-15.4,11.7c-0.5,1.8-0.7,4.8-0.7,9.2c0,9.4,0,18.9,0,28.3
		c0,0.1-0.1,0.2-0.2,0.2H91.1c-0.2,0-0.3-0.1-0.3-0.3v-59.1c0-0.1,0.1-0.2,0.2-0.2h10.8c0.2,0,0.3,0.1,0.3,0.3L102.1,342.4z"/>
	<path d="M352,379.7l17.2-44.4c0-0.1,0.1-0.1,0.1-0.1h11.5c0.1,0,0.2,0.1,0.2,0.2c0,0,0,0,0,0.1l-31.9,77.2c0,0.1-0.1,0.1-0.1,0.1
		h-11.1c-0.1,0-0.2-0.1-0.2-0.2c0,0,0,0,0-0.1l8.4-20.3c0,0,0-0.1,0-0.1l-23-56.6c0-0.1,0-0.2,0.1-0.2c0,0,0,0,0.1,0h11.5
		c0.1,0,0.1,0,0.1,0.1l16.8,44.4C351.7,379.8,351.8,379.8,352,379.7C351.9,379.7,351.9,379.7,352,379.7z"/>
	<g>
		<path d="M115.3,448.1c-9.6-7.7-5.5-20.3,6.7-21.3c3-0.2,6,0,8.9,0.7c1.6,0.4,4,0.9,5.1-0.3c0.1-0.1,0.3-0.2,0.5-0.2h1.6
			c0.2,0,0.3,0.1,0.3,0.3l1.6,11.5c0,0.2-0.1,0.3-0.3,0.3h-1.8c-0.2,0-0.3-0.1-0.4-0.3c-2.3-5.7-8.1-11-14.7-9.3
			c-2.6,0.6-4.6,2.2-5.1,4.8c-0.8,3.6,1.7,6.6,4.5,8.7c2.2,1.6,5.5,3.7,9.6,6.4c5.4,3.5,10.5,8.3,10,15.2
			c-0.7,8.8-8.5,12.7-16.4,12.6c-2.7,0-4.6-0.2-5.7-0.5c-2.1-0.5-5-1.5-6.5-0.3c-0.4,0.4-1.1,0.4-2.1,0.1c-0.1,0-0.2-0.1-0.2-0.2
			l-1.9-12.6c0-0.2,0.1-0.3,0.3-0.3h1.9c0.2,0,0.3,0.1,0.3,0.3c1.4,5.1,4.5,9.1,9.8,10.5c3.5,0.9,7.5,0.4,10.2-2.1
			c5.5-4.9,1.3-11.6-3.8-14.8C123.9,454.7,119.7,451.7,115.3,448.1z"/>
		
			<ellipse transform="matrix(0.9996 -2.969878e-02 2.969878e-02 0.9996 -12.666 10.4261)" cx="344.7" cy="431.6" rx="4.9" ry="4.2"/>
		<path d="M299.5,436.3c0-5.7-2.1-6.1-7.1-6.1c-0.2,0-0.2-0.1-0.2-0.2v-1.6c0-0.2,0.1-0.3,0.3-0.3h24.7c0.2,0,0.3,0.1,0.3,0.3v1.7
			c0,0.2-0.1,0.3-0.3,0.3c-2.9-0.2-8.9-0.8-8.9,3.7c0,5.2,0,17,0,35.4c0,1.8,0.3,2.9,2.3,3c4.5,0.2,8.9,0.2,13-0.1
			c4.5-0.3,7-4.8,9.2-7.8c0.1-0.1,0.2-0.2,0.4-0.2h1.8c0.2,0,0.3,0.1,0.2,0.3l-5.6,11.1c-0.1,0.2-0.2,0.3-0.4,0.3h-36.6
			c-0.2,0-0.3-0.1-0.3-0.3v-1.7c0-0.2,0.1-0.3,0.3-0.3c5.1,0.1,7-0.5,7-6.3C299.5,457,299.5,446.6,299.5,436.3z"/>
		<ellipse transform="matrix(0.9994 -3.489968e-02 3.489968e-02 0.9994 -15.0498 5.8389)" cx="159.7" cy="434" rx="4.9" ry="4.2"/>
		<ellipse transform="matrix(0.9993 -3.660110e-02 3.660110e-02 0.9993 -15.7688 6.6398)" cx="173.5" cy="434" rx="4.9" ry="4.2"/>
		<path d="M201.9,475.7c0,3.1-0.1,6.2-0.1,9.3c-0.1,5.4,1.6,6.9,7,6.6c0.2,0,0.3,0.1,0.3,0.3v1.5c0,0.2-0.1,0.3-0.3,0.3h-19.6
			c-0.2,0-0.3-0.1-0.3-0.3v-1.5c0-0.2,0.1-0.3,0.3-0.3c3.5,0.2,5.3-1.4,5.3-4.9c0.1-15.8,0.1-27.4,0-34.9c0-1.7-2.5-1.9-4.2-2.2
			c-0.2,0-0.3-0.1-0.3-0.3v-1.4c0-0.2,0.1-0.3,0.3-0.4c3.7-1.7,9.5-5,11.4-4.4c0.2,0,0.2,0.2,0.2,0.3l0,5.6c0,0.1,0.1,0.2,0.2,0.2
			c0,0,0.1,0,0.1,0c5.2-3.6,12.7-6.9,18.4-2.6c5.5,4.1,6.4,12.9,3.7,18.9c-3.9,8.6-13,12.8-22.1,10.1
			C202,475.4,201.9,475.5,201.9,475.7z M202.1,469.1c2,1.8,3.7,3.1,6.2,3.8c15.5,4.2,12.6-34.5-6.2-21.3c-0.1,0.1-0.2,0.2-0.2,0.4
			v16.8C201.9,468.9,201.9,469,202.1,469.1z"/>
		<path d="M335.6,448.2c-0.1,0-0.2-0.1-0.2-0.2l0-1.4c0-0.2,0.1-0.3,0.3-0.4l11.9-3.2c0.5-0.1,1,0.2,1.2,0.7c0,0.1,0,0.2,0,0.2
			c0,7.7,0,15.6,0,23.8c0,4.2,1,5.9,5.3,6c0.2,0,0.3,0.1,0.3,0.3v1.4c0,0.2-0.1,0.3-0.3,0.3h-18.4c-0.2,0-0.3-0.1-0.3-0.3v-1.3
			c0-0.2,0.1-0.3,0.3-0.3c4.4-0.3,5.6-1.2,5.6-5.8c0-7.8,0-13.4,0-16.8C341.4,448.6,337.6,448.5,335.6,448.2z"/>
		<path d="M173.9,471.2c0-0.1-0.1-0.2-0.2-0.2c0,0-0.1,0-0.1,0c-3.2,2.2-7,4.7-10.9,5.4c-7.7,1.4-10.7-3.2-10.7-10.3
			c0-5.1,0-10.1,0-15.1c0-2-3-2.5-4.5-2.8c-0.2,0-0.3-0.1-0.3-0.3v-1.3c0-0.2,0.1-0.3,0.3-0.3c3.1-0.7,6.2-1.4,9.2-2.1
			c0.8-0.2,1.6-0.2,2.4,0c0.2,0,0.2,0.1,0.2,0.3c0,6.8,0,13.6,0,20.3c0,3,1.1,6.3,4.3,7c3.2,0.8,7.3-1.7,9.8-3.6
			c0.1-0.1,0.2-0.2,0.2-0.4c0-5.3,0-10.6,0-15.9c0-3.9-3.5-3.8-6.3-4.1c-0.2,0-0.3-0.1-0.3-0.3v-1.3c0-0.2,0.1-0.3,0.3-0.4
			c3.7-0.6,7.4-1.2,11.1-1.7c0.9-0.1,1.6-0.2,2.3-0.1c0.2,0,0.3,0.1,0.3,0.3c0,8.3,0,16.6,0.1,24.9c0,4,1.9,3.2,4.7,2.5
			c0.2,0,0.3,0,0.3,0.3v1.3c0,0.2-0.1,0.4-0.3,0.4l-11.1,2.8c-0.4,0.1-0.8-0.1-0.9-0.5c0-0.1,0-0.1,0-0.2L173.9,471.2z"/>
		<path d="M238.2,458.1c0,5.5,2.8,12.5,8.8,13.8c5,1.1,8.9-1.4,12.2-5c0.1-0.1,0.2-0.1,0.3,0l0.8,1c0.1,0.1,0.1,0.2,0,0.3
			c-4.5,5.7-11,9.8-18.3,8.3c-14-3-14.5-23.8-3.4-30.3c4.2-2.5,9.1-2.8,13.7-1.1c5,1.8,6,5,7.7,10c0.1,0.2,0.2,0.3,0.4,0.4
			c0.9,0.3,1.2,1,0.8,2.1c0,0.1-0.1,0.2-0.3,0.2h-22.3C238.3,457.8,238.2,457.9,238.2,458.1z M248.6,447.2c-2-1.4-4.1-1.4-6.3,0
			c-2.6,1.7-3.6,5.4-4,8.3c0,0.1,0.1,0.3,0.2,0.3c0,0,0,0,0,0H252c0.2,0,0.3-0.1,0.3-0.3C252,452.9,251.1,448.9,248.6,447.2z"/>
		<path d="M277.5,450.7c0,0.1,0.1,0.2,0.2,0.2c0.1,0,0.2,0,0.2-0.1c1.3-2.9,4.1-7.7,7.9-6.6c1.9,0.6,3.8,1.1,5.7,1.7
			c0.2,0,0.2,0.2,0.2,0.3l-2.3,5.9c-0.1,0.2-0.2,0.2-0.4,0.2c-1.5-0.3-3-0.8-4.4-1.4c-1-0.4-1.8-0.6-2.3-0.6c-2.4,0.2-4.7,3.9-4.7,6
			c0,4.4,0,8.8,0,13.1c0,4.4,3.6,4.5,7.3,4.4c0.2,0,0.3,0.1,0.3,0.3v1.4c0,0.2-0.1,0.3-0.3,0.3h-19.6c-0.2,0-0.3-0.1-0.3-0.3v-1.3
			c0-0.2,0.1-0.3,0.3-0.3c3.1,0,4.6-1.5,4.7-4.7c0.1-6,0.1-12,0.1-18c0-0.2-0.1-0.3-0.2-0.3l-4.6-1.7c-0.2-0.1-0.2-0.2-0.2-0.3v-1.3
			c0-0.2,0.1-0.3,0.3-0.3c3.7-1.2,8.1-3.2,12-3.1c0.2,0,0.3,0.1,0.3,0.3L277.5,450.7L277.5,450.7z"/>
		<path d="M365.8,465.7c-4.7-1.7-7.2-5.6-6.9-10.5c0.3-5.4,4.6-9.5,9.8-10.8c5.1-1.3,9.8-0.5,14.1,2.3c0.1,0.1,0.2,0.1,0.4,0.1
			l9.7-1.5c0.2,0,0.3,0.1,0.4,0.3c0,0,0,0,0,0v6.1c0,0.2-0.1,0.3-0.3,0.3l0,0c-2.3,0-4.5-0.4-6.7-1.1c-0.1,0-0.1,0-0.1,0.1
			c0,0,0,0,0,0.1c3.4,11.2-7.5,17.4-17.1,15.5c-0.2,0-0.3,0-0.4,0.1c-1.4,0.7-4.6,2.9-2.9,4.6c1.9,1.8,10.1,1.6,12.8,1.6
			c3.4,0,7.2-0.2,10.1,1.4c3.1,1.7,4.4,5.4,3.3,8.7c-1.7,4.9-8,8.4-12.9,9.6c-4.1,1-8.5,1.3-13.2,0.7c-4.7-0.5-10.4-2.9-8.2-8.9
			c0.7-2,4.8-4.6,6.6-6.2c0.1-0.1,0.1-0.2,0-0.3c0,0-0.1-0.1-0.1-0.1c-1.6-0.5-3-1.3-4.3-2.5c-1.6-1.5-2.2-4.5-0.6-6.2
			c1.2-1.3,4.6-2.3,6.5-3c0.1,0,0.2-0.2,0.1-0.3C365.9,465.8,365.9,465.8,365.8,465.7z M373.8,464.8c3.7-0.4,6.2-4.8,5.7-9.9l0,0
			c-0.5-5.1-3.9-8.9-7.5-8.6l0,0c-3.7,0.4-6.2,4.8-5.7,9.9l0,0C366.7,461.3,370.1,465.1,373.8,464.8L373.8,464.8z M366.7,488.1
			c5,3.3,10,3.6,15.2,0.9c2.8-1.5,6.7-6.4,2.8-8.8c-1.2-0.8-3-0.7-4.4-0.7c-4.4-0.1-8.8-0.4-13.1-0.8c-0.2,0-0.3,0-0.4,0.2
			c-0.9,1.1-2.1,2-2.5,3.3C363.7,484.6,364.5,486.6,366.7,488.1z"/>
	</g>
</g>
</svg>
