<?xml version="1.0" encoding="utf-8"?>
<!-- Generator: Adobe Illustrator 25.0.1, SVG Export Plug-In . SVG Version: 6.00 Build 0)  -->
<svg version="1.1" id="Layer_1" xmlns="http://www.w3.org/2000/svg" xmlns:xlink="http://www.w3.org/1999/xlink" x="0px" y="0px"
	 viewBox="0 0 500 500" style="enable-background:new 0 0 500 500;" xml:space="preserve">
<style type="text/css">
	.st0{fill:#E30613;}
	.st1{fill:#B71A23;}
	.st2{fill:#CD101B;}
	.st3{fill:#E00714;}
	.st4{fill:#C91A21;}
	.st5{fill:#EA0210;}
	.st6{fill:#B81923;}
	.st7{fill:#C8121D;}
	.st8{fill:#D70B17;}
	.st9{fill:#C01B21;}
	.st10{fill:#E40512;}
	.st11{fill:#AE1D22;}
	.st12{fill:#C11B21;}
	.st13{fill:#B51A25;}
	.st14{fill:#C01521;}
	.st15{fill:#C2141F;}
	.st16{fill:#B51A24;}
	.st17{fill:#C21420;}
	.st18{fill:#D50C18;}
	.st19{fill:#E30512;}
	.st20{fill:#CE0E1B;}
	.st21{fill:#A01E22;}
	.st22{fill:#EA0310;}
	.st23{fill:#D80A17;}
	.st24{fill:#B91C22;}
	.st25{fill:#B61C22;}
	.st26{fill:#DB0916;}
	.st27{fill:#CC0F1C;}
	.st28{fill:#B01D26;}
	.st29{fill:#B91922;}
	.st30{fill:#C5131E;}
	.st31{fill:#BF1520;}
	.st32{fill:#CA101C;}
	.st33{fill:#D30C18;}
	.st34{fill:#6D0A10;}
	.st35{fill:#B31B25;}
	.st36{fill:#B41B24;}
	.st37{fill:#C7121D;}
	.st38{fill:#D60B17;}
	.st39{fill:#B21C22;}
	.st40{fill:#64080D;}
	.st41{fill:#72090F;}
	.st42{fill:#B61A24;}
	.st43{fill:#CA111C;}
	.st44{fill:#DD0814;}
	.st45{fill:#C4131E;}
	.st46{fill:#EB020F;}
	.st47{fill:#D71921;}
</style>
<path class="st0" d="M246.5,11.6c1.4-1.1,2.6-2.9,4.6-3.1c1.5-0.2,2.9,0.3,3.9,1.5c1,1.2,2.9,2,2.8,3.8c-0.4,1.9-1,3.9-0.3,5.8
	c0.9,3.2,4.3,4.9,5,8.3c0.4,2.9-1.2,5.8-3.7,7.3c-1,0.7-2.4,0.9-3.3,1.8c0.3,1.3,0.4,2.7,0.3,4.1c5.4,0.4,10.8,1.7,15.3,4.8
	c2.2,1.4,3.6,3.7,4.1,6.2c-9.3-2.6-18.9-3.6-28.4-3c-6.3,0.3-12.6,1.3-18.7,3c0.1-2.7,1.9-4.8,4-6.2c4.5-3,9.9-4.4,15.2-4.8
	c0.2-1.5,0.2-3.1,0-4.6c-3.4-0.9-6.5-3.7-6.6-7.3c-0.1-2.2,1.1-4.1,2.6-5.6c1.9-2,3.5-4.9,2.6-7.8C245.6,14.4,245.1,12.6,246.5,11.6
	 M210.4,65c10.9-5.4,23-8,35.1-8.8c5.9-0.1,11.9-0.4,17.8,0.6c-5.2,2.3-10.6,4.9-14.2,9.5c-1.8,2-2.7,4.9-5.2,6.1
	c-10.2,0.6-20.2,3.1-29.8,6.6c-1.4-4.4-2.7-8.9-4.7-13.1L210.4,65 M168.5,85.2c0.8-3.8,2.4-7.4,4.5-10.7c1.5,3.4,3,6.7,4.6,10.1
	c0,1.5-0.6,3-0.8,4.6c-1.7,10.4,0.6,21.1,6.5,29.8c3.3,5.1,8.5,8.8,14.4,10.4c0.4,2.8,0.6,5.6,0.5,8.4l-1.4,0.3
	c-1.9-0.1-3.8-0.7-5.5-1.6c-2.3-1.3-4.7-2.3-6.8-3.9c-2-1.4-3.5-3.4-5.7-4.5l-0.4-0.2c0-0.2-0.1-0.6-0.2-0.8c-3.5-4.2-6.2-9-8-14.2
	c-0.2-0.6-0.4-1.1-0.6-1.7C167.1,102.8,166.7,93.8,168.5,85.2 M217.6,85.8c8-2.9,16.3-5.1,24.8-5.6c-2.5,13.1,0.2,26.5,2.1,39.5
	c1.8,11.8,4.1,23.4,5.6,35.2c-7.5-0.1-15,1.1-22.4,2.5c0.7-2.9,0-5.9-0.3-8.8c-1.2-6.9-3.3-13.8-7.4-19.5c0.7-5.4,0.4-10.8,0.4-16.2
	c-0.5-8.8-1.4-17.7-4-26.1C216.2,86,217.2,86.1,217.6,85.8 M322.7,101.3c2.8,6.8,3.6,14.4,1.6,21.5c-2.7,9.6-9.2,18.3-18.1,22.9
	c0.1-3.3-1-6.9,0.7-9.9c8.1-6.4,12.8-17.7,9.8-27.9C318.2,105.3,320.8,103.7,322.7,101.3 M238.7,163.4c2.8-0.4,6.1-0.3,8.4,1.6
	c1.5,1.2,1.9,3.3,1.8,5.1c0,11.1,0,22.2,0,33.4c0,0.9-0.1,1.7-0.3,2.5c-1.8,0-3.6,0.1-5.4,0.2c-2.1,0.4-4.2,0.5-6.3,1
	c-5.4-8.7-7.2-19.1-8.1-29.2c0-3.5-0.5-7.4,1.5-10.5C232.3,164.8,235.6,163.8,238.7,163.4 M236.9,222c4.4-0.2,8.9-0.8,13.3-0.8
	c-0.4,4.4-1.2,8.7-1.9,13c-3.3-0.1-6.5,0.1-9.8,0.4c0-4.1,0.2-8.3,0-12.4l-1.1-0.1L236.9,222 M235.8,242.8l1.1-0.4
	c1.5,0,3-0.1,4.5-0.2c1.7-0.1,3.5,0,5.2,0.2c-2.2,10-5.1,19.8-8.6,29.4c-2.4,0.1-4.9,0.3-7.3,0.5c3.3-9.5,5.7-19.4,6.9-29.4
	L235.8,242.8 M227.4,280.9c2.3-0.2,4.5-0.5,6.7-0.7c-2.3,5.4-5.3,10.5-8,15.6l1.7,0.1c-2.5,0.3-5,0.4-7.5,0.7
	C222.8,291.4,225.4,286.3,227.4,280.9L227.4,280.9z"/>
<path class="st1" d="M263.3,56.7c5.6,0.2,11.2,1.5,16.6,3c-1.8,1.5-3.8,3-5.2,4.9c-1.4,1.9-3.3,3.5-4.6,5.6
	c-0.6,1.3-1.6,2.4-2.7,3.3c-1.5-0.4-2.9-0.6-4.4-0.7c-1.9-0.7-3.9-0.3-5.8-0.6c-3.7-0.5-7.5-0.5-11.2,0c-0.7,0-1.4,0-2.1,0.1
	c2.6-1.2,3.4-4.1,5.2-6.1C252.7,61.6,258,59,263.3,56.7z"/>
<path class="st2" d="M279.8,59.6c3.3,0.9,6.6,2,9.7,3.4c0.7,0.3,1.6,0.5,1.9,1.2c-0.7,2.7-2.9,4.4-4.2,6.7c-1.2,2.2-2.9,4.1-4.1,6.3
	l-0.4,0.1c-5.1-1.5-10.1-3.3-15.4-3.9c1.1-0.9,2-2,2.7-3.3c1.2-2.1,3.1-3.6,4.6-5.6C276.1,62.6,278,61.2,279.8,59.6L279.8,59.6z"/>
<path class="st3" d="M291.5,64.3l0.2-0.5c3.1,2,6.4,3.4,9.3,5.6c-3.1,2.1-4,6-4.9,9.4c-0.3,1.8-1.7,3-2.8,4.4c-3.1-2.2-6.4-4-10-5.5
	l0-0.4c1.2-2.2,2.9-4.1,4.1-6.3C288.6,68.7,290.8,66.9,291.5,64.3L291.5,64.3z"/>
<path class="st4" d="M177,70.2c4.3-3,9.5-4.5,14.7-4.4c3.9,0.2,7.6,1.3,11,3.2c1.7,4.7,3.7,9.4,4.8,14.3c-0.5,1.9-2,3.4-3.1,4.9
	c-1.4,1.8-2.5,3.9-3.9,5.8c-1.6,2.1-3.8,3.8-5.2,6.1c-1,1.6-2.1,3.2-3.3,4.7C187.1,93.2,182.1,81.7,177,70.2L177,70.2z"/>
<path class="st5" d="M296,78.8c0.9-3.4,1.8-7.3,4.9-9.4c3.8,2.9,7.4,6.5,9.1,11.1c-3.4,4.5-5.6,9.9-7.5,15.2
	c-5.1,15.2-7.2,31.2-6.2,47.2c0.7,9,2.7,18.3,7.5,26c-1.2-0.3-2.1-1.1-3.1-1.8c-2.9-1.8-5.9-3.3-9.1-4.7c-0.5-0.9-0.8-1.8-1.1-2.7
	c-0.7-5.1-2.1-10-2.7-15.1c-0.1-0.6,0.3-1.1,0.5-1.6c0.1,0.5,0.4,1.5,0.5,2.1c-0.6-3.5-0.1-7.1-0.6-10.6c-0.1-2.1-0.1-4.2,0.2-6.3
	c0.1-9.4,1.4-18.7,3.8-27.8c0.3-0.9,0.5-1.8,0.8-2.8c0.3-1.1,0.6-2.3,1-3.4c0.9-2.7,1.8-5.3,2.7-7.9c-1.1-1.1-2.3-2.2-3.5-3.2
	C294.4,81.8,295.7,80.5,296,78.8L296,78.8z"/>
<path class="st6" d="M242.5,79.8c3.1-0.1,6.1-0.2,9.2-0.5c4.8,0.5,9.8,0.3,14.5,1.5c-0.8,0.4-1.5,0.8-2.2,1.4
	c-1.4,3.1-1.6,6.5-2.3,9.8c-1,4.5-2.3,9.1-1.8,13.7c0.4,5.9-0.2,11.9,0.4,17.8c0.1,2.3-0.2,4.7,0.1,7c0.6,4.9,0.2,9.8,1,14.6
	c0.6,3.1,0.4,6.4,1.2,9.5c-0.2,0.2-0.6,0.7-0.8,0.9c-3.9-0.7-7.8-0.7-11.7-0.6c-1.5-11.8-3.8-23.5-5.6-35.2
	c-1.9-13-4.5-26.4-2.1-39.5L242.5,79.8L242.5,79.8z"/>
<path class="st7" d="M263.9,82.2c0.7-0.6,1.4-1,2.2-1.4c1.9,0,3.6,0.9,5.5,0.8l0.2,0.7c-1.1,5.8-3.8,11.4-4,17.4
	c-0.1,5.5-1,11-0.8,16.5c-0.6,11.6,1,23.2,1.8,34.8c0.1,1.8,0.5,3.5,1.1,5.2c-2.8,0.1-5.4-0.9-8.2-0.7c0.2-0.2,0.6-0.7,0.8-0.9
	c-0.8-3.1-0.6-6.4-1.2-9.5c-0.8-4.8-0.4-9.8-1-14.6c-0.3-2.3,0-4.7-0.1-7c-0.6-5.9,0-11.9-0.4-17.8c-0.5-4.7,0.8-9.2,1.8-13.7
	C262.4,88.7,262.6,85.3,263.9,82.2L263.9,82.2z"/>
<path class="st8" d="M271.9,82.3c1.1-0.6,2.4,0.4,3.5,0.6c3.9,1.1,7.6,2.7,11.2,4.7c-1.7,1.6-1.6,4.1-2.7,6.1
	c-1.7,3-1.8,6.4-2.5,9.7c-1.4,5.7-1.2,11.7-2,17.5c-0.6,4,0.4,7.9-0.1,11.9c-0.7,7.4,1,14.6,1.9,21.9c0.3,1.5,0.6,3,1,4.5
	c-1.9-0.6-3.8-1.1-5.7-1.4c-2.1-0.7-4.2-1-6.4-1.1c0-0.1-0.1-0.3-0.1-0.5c-0.6-1.7-1-3.4-1.1-5.2c-0.8-11.6-2.4-23.2-1.8-34.8
	c-0.2-5.5,0.7-11,0.8-16.5C268.2,93.7,270.8,88.1,271.9,82.3L271.9,82.3z"/>
<path class="st9" d="M207.4,83.3l0.2-0.5c3,10.9,5.2,22.1,5.3,33.5c0.2,13.4-1.8,27.2-8,39.2c-5.7,10.7-15.6,18.3-25,25.8
	c0.1-0.5,0.4-0.9,0.7-1.2c4.7-5.2,9-11,12-17.5c3.3-7.6,5.2-15.6,5.7-23.8l-1.5-0.6l1.4-0.3c0.1-2.8,0-5.6-0.5-8.4l0.5-0.7
	c-0.9-8.2-3.3-16.2-6.2-23.9c1.2-1.5,2.3-3.1,3.3-4.7c1.4-2.3,3.6-3.9,5.2-6.1c1.4-1.8,2.4-4,3.9-5.8
	C205.5,86.7,207,85.2,207.4,83.3L207.4,83.3z"/>
<path class="st10" d="M283.9,93.6c1.1-2,0.9-4.5,2.7-6.1c0.6,0.6,2.2,0.9,1.7,2.1c-2,9.7-2.9,19.6-2.8,29.5
	c0.4,7.5,1.3,14.9,2.7,22.2c0,0.5,0.4,1.2,0.1,1.7s-0.6,1-0.5,1.6c0.6,5.1,2,10,2.7,15.1c0.3,0.9,0.6,1.9,1.1,2.7
	c-3-1.3-6.1-2.4-9.3-3.3c-0.3-1.5-0.7-3-1-4.5c-0.9-7.3-2.6-14.5-1.9-21.9c0.5-4-0.5-8,0.1-11.9c0.8-5.8,0.5-11.8,2-17.5
	C282.2,100,282.3,96.6,283.9,93.6L283.9,93.6z"/>
<path class="st11" d="M302.4,118.3c1.8-10,4-20,8.6-29.1c5.2,2.5,9.1,7,11.6,12.1c-1.9,2.3-4.4,4-6.1,6.5
	c-6.1,8.2-9.4,18.2-10.3,28.3l0.5-0.4c-1.7,3-0.6,6.6-0.7,9.9c-1.3,0.8-2.8,1.3-4.3,1.5c-0.8-3.8-0.7-7.7-0.7-11.6
	C300.9,129.8,301.7,124,302.4,118.3L302.4,118.3z"/>
<path class="st12" d="M178.7,128.1c2.2,1.1,3.7,3.1,5.7,4.5c2.1,1.6,4.6,2.6,6.8,3.9c-0.7,1.4-0.5,3.1-0.8,4.7
	c-0.4,3.9-1.1,7.7-2.2,11.4c-1.5,5.3-3.3,10.5-6,15.3C184,154.5,181.8,141,178.7,128.1L178.7,128.1z"/>
<path class="st13" d="M219.9,129c4.1,5.7,6.3,12.6,7.4,19.5c0.3,2.9,1,5.9,0.3,8.8c0,0.1-0.1,0.3-0.1,0.5c-2.5,0-4.8,1.2-7.3,1.4
	c-0.2-3.5-0.8-7-1.9-10.4c-0.3-0.9-0.9-1.6-1.8-2C218.2,141,219.3,135.1,219.9,129L219.9,129z"/>
<path class="st14" d="M216.4,146.8l0.2,0.2c0.8,0.4,1.5,1.1,1.8,2c1,3.4,1.6,6.8,1.9,10.4v0.3c-4.4,1.1-8.6,2.6-12.8,4.4
	C211.6,158.9,214.7,153,216.4,146.8z"/>
<path class="st15" d="M258.3,163.5c3.8-0.8,7.7-0.3,11.2,1.2c2.9,1.5,4.7,4.4,4.6,7.7c0.1,3.6-0.1,7.1-0.3,10.7
	c-1.2,8.3-3.4,16.7-7.4,24.1l-1.2-0.4c0.7-1.9-1-3.6-0.9-5.5c0.2-2.2-0.7-4.2-0.8-6.4c-0.8-9.5-3.2-18.8-4-28.4
	C259.5,165.5,258.8,164.5,258.3,163.5L258.3,163.5z"/>
<path class="st16" d="M254.1,168.4c0-2.4,2.1-4.1,4.2-4.9c0.5,1,1.2,2,1.3,3.2c0.8,9.5,3.2,18.8,4,28.4c0.1,2.1,1,4.2,0.8,6.4
	c-0.2,1.9,1.5,3.6,0.9,5.5l1.2,0.4c-4.1-0.3-8.2-1.3-12.3-1.1C254.2,193.5,254.1,180.9,254.1,168.4 M227.7,223.8
	c3.2-0.6,6.3-1.5,9.6-1.5l1.1,0.1c0.2,4.1,0,8.2,0,12.4c-2.2,0.2-4.4,0.5-6.5,1c-1.6,0.4-3.3,0.6-4.9,0.6l-0.4-0.6
	c0.6-2,1.1-4.1,0.9-6.3c-0.1-1.3,0.1-2.7,0.6-3.9c-0.2-0.5-0.3-1-0.5-1.5C227.6,224,227.7,223.9,227.7,223.8L227.7,223.8z"/>
<path class="st17" d="M210.9,170.9c2.2-1.2,4.8-1.7,7.3-1.6c2.1-0.2,4.7,0.6,5.2,2.9c0,3.5,0.5,6.9,0.7,10.3
	c0.8,8.9,3.2,17.6,7.3,25.6l-0.3,0.7c-1.9,0.5-3.8,1.3-5.6,2.2c-3.8-2.4-6.8-5.7-9.6-9.1c-0.2-0.4-0.8-0.8-0.7-1.2
	c0.9-2.2,0.2-4.7-0.1-6.9c-0.6-2.7,0.1-5.6-0.8-8.2C212.8,180.8,213.4,175.4,210.9,170.9L210.9,170.9z"/>
<path class="st18" d="M280,171.2c0.5-1,1.7-1.3,2.5-1.9c0.3,1.2,0.4,2.7,1.6,3.4l-1.3,0.2c5.9-0.7-0.4,0.7,1.8,1.4
	c-0.2,1.3,0.9,2.4,0.9,3.7c0.3,3.5,1.9,6.7,2.4,10.2c0.5,3.2,1.4,6.2,2.2,9.3c-3.2,5.3-7.3,9.8-12.3,13.5c-1.9-0.9-3.9-1.6-5.9-2.3
	c-0.6-0.5,0.2-1.2,0.3-1.8c0.6-1.1,1.1-2.2,1.7-3.4c3.6-8.6,5.1-18,5.6-27.2C279.5,174.6,279.1,172.8,280,171.2 M195.8,288.9
	c2.9-1.4,6-2.6,9.2-3.5c-0.3,2.8-1.4,5.3-2.1,8c-0.7,2.2-0.7,4.5-1.3,6.7l-0.1,0.5c-0.7,0.1-1.3,0.1-1.9,0.2
	c-2.3,0.9-4.5,1.6-6.8,2.4c0.9-4.7,2.2-9.3,3-14L195.8,288.9L195.8,288.9z"/>
<path class="st19" d="M282.6,169.4c3.5-0.1,7.3-0.2,10.1,2.1c2.9,2.1,3.6,6,3.4,9.3c-0.9,5.9-3,11.6-6,16.8
	c-0.8-3.1-1.7-6.2-2.2-9.3c-0.4-3.5-2.1-6.7-2.4-10.2c0-1.3-1.1-2.4-0.9-3.7c-2.2-0.7,4.1-2.1-1.8-1.4l1.3-0.2
	C283,172,282.9,170.6,282.6,169.4 M195.9,183.3c1.5-1.6,4.2-3.2,6-1.2l-0.2,0.4c-1.2,2.3-0.1,4.9,0.3,7.2c1.3,5.2,1.4,10.6,2.1,15.9
	c0.1,1.4,0,2.7-0.3,4.1c-4.6-3.3-8.9-7.5-10.5-13C191.9,192.3,192.5,186.9,195.9,183.3 M191.9,291.1c1.2-0.8,2.5-1.5,3.9-2
	c-0.8,4.7-2.1,9.3-3,14l0,0.2c-2.5,0.9-4.6,2.6-7,3.6c0.8-3.5,1.4-7.1,2.2-10.6C188.4,294.1,190.1,292.5,191.9,291.1L191.9,291.1z"
	/>
<path class="st20" d="M207.5,175.2c0.7-1.7,1.8-3.2,3.4-4.3c2.5,4.5,1.9,9.8,3.3,14.6c0.9,2.7,0.2,5.5,0.8,8.2
	c0.3,2.3,1.1,4.7,0.1,6.9c-3.5-4.3-5.5-9.5-7.1-14.8C206.9,182.5,206.5,178.7,207.5,175.2L207.5,175.2z"/>
<path class="st21" d="M312.6,178.2l0.2-0.6c6.6,8.8,12.4,18.5,14.6,29.4c3.2,14.4,0.3,29.7-6,42.9c-2-3-4.2-5.9-6.2-8.9
	c-3.9-0.2-7.9,0-11.8-0.1c6.3-6.7,11.6-14.7,14-23.7C321.2,204.2,319.2,189.9,312.6,178.2 M335.6,214.1c0.5,0.7,0.8,1.4,1.1,2.2
	c3.4,10.3,6.2,21,5.9,31.8c0.2,10.9-3.7,21.4-8.1,31.2c-2.1-3.1-3.9-6.3-5.9-9.5c-3.7,0-7.4-0.5-11-0.7c7.1-7.7,12.4-16.8,15.5-26.7
	C336,233.4,336.9,223.7,335.6,214.1L335.6,214.1z"/>
<path class="st22" d="M301.4,182c1.3-1.7,3.7-0.5,5,0.7c2.9,2.3,3.8,6,4.2,9.5c-0.3,4.5-2,8.7-5,12.1c-2.9,3.2-6.4,6-10.3,8
	c-0.5-3.4-1.9-6.6-2.2-10c3.1-4.7,5.4-9.8,6.8-15.2C300.5,185.4,300.7,183.6,301.4,182L301.4,182z"/>
<path class="st23" d="M202,189.8c-0.4-2.4-1.5-4.9-0.3-7.2c0.7,1.2,0.9,2.6,1.2,3.9c1.8,6.9,4.9,13.4,9.3,19c-0.3,3,0.4,6,0,9
	c-3.1-1-5.8-2.9-8.5-4.7c0.3-1.3,0.4-2.7,0.3-4.1C203.4,200.5,203.2,195.1,202,189.8L202,189.8z"/>
<path class="st24" d="M170.4,189.6c0.4-0.4,0.9-0.7,1.4-0.8c-8.2,10.8-11.7,24.6-10.9,38c0.3,2,0.4,4.1,0.6,6.2
	c1,5.8,2.5,11.5,4.3,17.1c-1.9,2.4-3,5.3-5.3,7.3c-3.2,2.8-4.6,6.9-7.5,9.8c-1.7-5.8-2.9-11.8-3.5-17.8c-0.2-2.7,0-5.3-0.5-8
	c0.3-5.5,0.5-11.1,1.7-16.6l0.3-0.4C153.7,211.2,161,199.3,170.4,189.6L170.4,189.6z"/>
<path class="st25" d="M169.5,212c0.7-3.7,2-7.2,3.9-10.4c-1,9.9,2.5,19.7,7.3,28.2c3.5,6.2,8.2,11.5,13.3,16.4
	c-3.7,0-7.3,0.3-11,0.3c-2.2,2.6-4.1,5.3-6.2,7.9h-0.8c-3.6-7.6-6-15.8-7-24.2C168.2,224.1,168.4,218,169.5,212L169.5,212z"/>
<path class="st26" d="M282.3,214.1c4.1-3.5,7.8-7.4,10.8-11.8c0.3,3.4,1.7,6.6,2.2,10c-3.5,1.9-7.1,3.8-10.9,4.7
	C283.8,216,283.1,215,282.3,214.1 M285.1,245.9c4.9,1.2,9.7,3,14.2,5.2c0.4,0.3,1.1,0.6,1.1,1.2c0.7,9.8,1.2,20.2,6.8,28.7
	c-1.5-0.3-2.7-1.3-4.2-1.9c-6.6-2.8-13.7-4.1-20.7-5.3c-1-0.3-2.1-0.5-3.2-0.7c1.1-3.3,2-6.8,3.5-10c0.3-2.7,1.3-5.3,2-7.9
	C285.1,252.1,284.6,249,285.1,245.9L285.1,245.9z"/>
<path class="st27" d="M212.2,205.5c2.4,3.1,5.2,5.9,8.4,8.3c-0.5,1.1-1.1,2.1-1.7,3.1c-1.7,0.2-3.1-0.9-4.7-1.3
	c-0.7-0.2-1.4-0.6-2-1.1C212.6,211.5,211.9,208.5,212.2,205.5L212.2,205.5z"/>
<path class="st28" d="M250.2,221.2c3.7,0,7.5-0.3,11.1,0.5c0.7,3.3-0.1,6.7-0.3,10c-0.2,0.9,0.7,1.5,1.2,2.2
	c-0.6,0.2-1.1,0.4-1.6,0.6c-4.1-0.4-8.2-0.1-12.2-0.2C249,229.9,249.8,225.6,250.2,221.2L250.2,221.2z"/>
<path class="st29" d="M261.3,221.7c3,0,5.9,0.4,8.8,1.1c-0.3,2.7-1,5.2-0.8,7.9c0,1.5,0.5,3.2-0.4,4.5c-2.8-0.4-5.6-0.4-8.4-0.8
	c0.5-0.2,1.1-0.4,1.6-0.6c-0.5-0.7-1.3-1.3-1.2-2.2C261.2,228.4,261.9,225.1,261.3,221.7z"/>
<path class="st30" d="M270.1,222.8c4.1,0.5,8,2,12,3.3v0.3c0.2,3.8,1.3,7.6,0.3,11.4c-2.3-0.6-4.6-0.9-6.9-1.4
	c-2.2-0.6-4.4-1-6.6-1.2c0.9-1.4,0.4-3,0.4-4.5C269.1,228,269.8,225.4,270.1,222.8 M212,247.5c3.8-1.3,7.7-2.3,11.7-3
	c0,3.6-1.1,7-1.2,10.5c-0.1,3.1-1.5,5.9-1.7,8.9c-0.3,3-0.3,6.7-3,8.6c0.6,0.5,1.2,1,1.9,1.4c-4.6,0.7-9.1,1.6-13.6,2.8
	c1.5-7.3,4.5-14.3,5-21.8C211.2,252.5,211.6,250,212,247.5L212,247.5z"/>
<path class="st31" d="M220.7,226.5c2.1-1.2,4.5-2,6.9-2.4c0.1,0.5,0.3,1,0.5,1.5c-0.5,1.2-0.7,2.6-0.6,3.9c0.2,2.1-0.3,4.2-0.9,6.3
	l0.4,0.6l0.2,0.4c-2.3,0.2-4.6,0.6-6.9,1.2C219.6,234.1,220.8,230.3,220.7,226.5L220.7,226.5z"/>
<path class="st32" d="M211.9,232.9c2.3-2.9,5.3-5.2,8.8-6.4c0,3.8-1.1,7.6-0.4,11.4c-3.4,0.7-6.8,1.9-10.2,2.6
	C211.1,238,210.3,235.1,211.9,232.9L211.9,232.9z"/>
<path class="st33" d="M282.1,226.4c3.5,1.2,6.6,3.5,8.8,6.4c1.8,2.2,1,5.1,1.4,7.7c-3.3-0.9-6.6-1.9-10-2.7
	C283.3,234,282.2,230.2,282.1,226.4L282.1,226.4z"/>
<path class="st34" d="M238.4,234.7c3.3-0.4,6.5-0.5,9.8-0.4c4.1,0.1,8.2-0.2,12.2,0.2c2.8,0.3,5.6,0.4,8.4,0.8
	c2.3,0.1,4.5,0.5,6.6,1.2c-3.8-0.2-7.6-0.9-11.4-1.3c-2.6,0-5.3-0.2-7.9-0.6c-6.4-0.2-12.8,0-19.2,0.8c-1.7,0.3-3.4,0.5-5,0.4
	C234.1,235.2,236.3,234.9,238.4,234.7L238.4,234.7z"/>
<path class="st35" d="M241.3,242.3c5.4-0.2,10.7-0.7,16.1-0.3c2.2,0.4,4.5,0.2,6.7,0.4c3.8,0.5,7.6,0.8,11.3,1.4l-0.5,0.1
	c-1.6,0-3.2-0.3-4.7,0.2c-0.8,1.1-1.2,2.5-1.2,3.9c-0.2,4.2-1.4,8.2-2.7,12.2c-0.6,2.1-2.2,3.6-2.9,5.6s-1.5,3.9-2.2,5.9
	c-7.8,0.1-15.5-0.1-23.3,0.2c3.5-9.6,6.4-19.4,8.6-29.4C244.8,242.2,243.1,242.2,241.3,242.3 M213.4,283c3.4-0.7,6.8-1.6,10.2-1.8
	c1.3-0.1,2.6-0.2,3.8-0.3c-2.1,5.4-4.7,10.5-7,15.7l-0.1,0.2c-2.9,0.1-5.8,1-8.8,1c-0.3-0.5-1-1-0.8-1.7c0.6-3.1,1.5-6.1,2.6-9
	C213.8,285.8,213.5,284.4,213.4,283L213.4,283z"/>
<path class="st36" d="M231.8,243c1.3-0.2,2.7-0.2,4-0.2h1.7c-1.3,10-3.6,19.9-6.9,29.4l-0.2,0.5c-3.6,0-7.2,0.8-10.8,1.2
	c-0.7-0.4-1.3-0.9-1.9-1.4c2.7-1.9,2.7-5.6,3-8.6c0.3-3,1.6-5.9,1.7-8.9c0.2-3.5,1.2-7,1.2-10.5C226.3,243.6,229.2,243.6,231.8,243
	L231.8,243z"/>
<path class="st37" d="M270.2,244c1.5-0.5,3.1-0.2,4.7-0.2c3.5,0.4,6.9,1.1,10.2,2c-0.5,3.1,0,6.3-0.4,9.4c-0.7,2.7-1.7,5.2-2,7.9
	c-1.6,3.2-2.4,6.6-3.5,10c-6-0.8-12.1-1-18.1-1.6c0.7-1.9,1.5-3.9,2.2-5.9s2.3-3.6,2.9-5.6c1.3-3.9,2.5-8,2.7-12.2
	C269,246.5,269.4,245.2,270.2,244L270.2,244z"/>
<path class="st38" d="M202.3,252.1c2.7-2.5,6.4-3.3,9.7-4.6c-0.4,2.5-0.8,5-1,7.5c-0.6,7.5-3.5,14.5-5,21.8
	c-3.2,0.9-6.3,2.2-9.2,3.8l-1.1,0.1c2.6-3.2,3.8-7.2,4.8-11.1C201.6,263.9,202.3,258,202.3,252.1L202.3,252.1z"/>
<path class="st39" d="M165.9,250.1l0.1-0.1c4.2,11.5,10.5,22.4,19,31.4c-4.6-0.1-9.2,0.4-13.8,0.6c-2.8,3.5-5.1,7.3-8.2,10.5
	c-4-8.1-7.7-16.5-10-25.3c3-2.9,4.4-7.1,7.5-9.8C162.9,255.3,164,252.5,165.9,250.1L165.9,250.1z"/>
<path class="st40" d="M230.6,272.3c2.4-0.2,4.8-0.4,7.3-0.5c7.8-0.3,15.5-0.1,23.3-0.2c6,0.5,12.1,0.8,18.1,1.6
	c1.1,0.2,2.1,0.4,3.2,0.7c-3.1,0.2-6.2-0.9-9.3-0.8c-2.8-0.7-5.7-0.5-8.5-0.7c-7.1-0.9-14.3-0.4-21.5-0.5c-4.2,0.7-8.5,0.4-12.8,1
	L230.6,272.3L230.6,272.3z"/>
<path class="st41" d="M236.9,279.5c3.8,0.2,7.5-0.6,11.3-0.6c3.9,0.1,7.7-0.2,11.6,0.3c3.1,0.5,6.4-0.1,9.5,0.7
	c4.5,0.2,8.9,0.9,13.4,1.5l0.7,0.5c-2.6-0.2-5.1-0.7-7.6-0.9c-6.2-0.8-12.5-1.3-18.7-1.4c-3.3-0.4-6.6-0.4-9.9-0.1
	c-4.3,0.5-8.7,0.1-13,0.8c-2.2,0.2-4.5,0.5-6.7,0.7c-1.3,0.1-2.6,0.2-3.8,0.3c0.9-0.7,2.1-0.5,3.2-0.7
	C230.1,280.2,233.5,279.9,236.9,279.5L236.9,279.5z"/>
<path class="st42" d="M234.2,280.2c4.3-0.8,8.7-0.4,13-0.8c3.3-0.3,6.6-0.3,9.9,0.1c-4.6,4.1-7.1,10-11.7,14.2
	c0.2,1.4,2.1,0.9,3.1,1.2c-4.4,0.4-8.8,0-13.2,0.6c-2.5,0.2-4.9,0.3-7.4,0.5l-1.7-0.1C228.9,290.7,231.8,285.6,234.2,280.2
	L234.2,280.2z"/>
<path class="st43" d="M257,279.5c6.3,0.1,12.5,0.6,18.7,1.4c-0.7,1.8-2.5,2.5-4.1,3.3c-2.5,1.1-3.8,3.7-6,5.3
	c-1.9,1.8-4.6,2.6-6.2,4.7c2.3,0.5,4.7,0.4,6.9,1c-6,0.1-12-0.4-17.9-0.3c-1-0.3-3,0.2-3.1-1.2C250,289.5,252.5,283.6,257,279.5
	L257,279.5z"/>
<path class="st44" d="M275.8,280.9c2.5,0.3,5.1,0.7,7.6,0.9c6.5,1,13,2.6,19.1,5c-2.2,2.1-2.4,5.3-4.1,7.6c-1.1,1.4-2,2.8-2.8,4.4
	c-6.5-1.3-13-2.2-19.6-2.8c-3.2-0.5-6.4-0.1-9.6-0.9c-2.3-0.7-4.6-0.5-6.9-1c1.6-2.1,4.3-2.9,6.2-4.7c2.2-1.6,3.5-4.1,6-5.3
	C273.2,283.4,275,282.7,275.8,280.9L275.8,280.9z"/>
<path class="st45" d="M205,285.2c2.8-0.8,5.5-1.7,8.4-2.2c0.1,1.4,0.5,2.8,0,4.2c-1.1,2.9-2,5.9-2.6,9c-0.2,0.7,0.5,1.2,0.8,1.7
	l0.3,0.3c-3.5,0-6.8,1.6-10.2,1.8c0.6-2.2,0.6-4.5,1.3-6.7c0.7-2.7,1.8-5.2,2.1-8L205,285.2L205,285.2z"/>
<path class="st46" d="M298.4,294.4c1.8-2.3,2-5.5,4.1-7.6c3.3,1.4,6.7,2.9,9.6,5.1c1.7,1.3,2.8,3.2,3.2,5.3c0.6,3.3,1.4,6.5,1.8,9.9
	c-6.4-4.4-14-6.6-21.5-8.2C296.3,297.3,297.3,295.8,298.4,294.4L298.4,294.4z"/>
<path class="st47" d="M220.2,322.2c2.4-0.5,4.9,0.2,6.6,2c2.4,2.6,2.2,7.3-0.7,9.5c-3.3,2.8-9.1,1.5-10.6-2.7
	c-1.3-3.4,0.5-7.2,3.9-8.5C219.6,322.3,219.9,322.2,220.2,322.2 M72.3,325.5c10.2,0.1,20.3,0,30.5,0.1c5.1-0.1,10.3,0,15,2.3
	c3.8,1.9,7,5.4,7.6,9.8c-3.1-1.7-6.3-3.3-9.8-3.8c-7.9-1.3-15.9-0.4-23.9-0.9c1.4,2,1.2,4.6,1.6,6.9c0.2,2.8,0,5.6,0.1,8.4
	c2.6,0,5.2-0.1,7.8,0.1c1.3,0.3,2.6,0.5,4,0.5c4.8,1.3,8.7,4.6,10.8,9.1c-3-1.7-6.3-2.6-9.8-2.5c-4.3,0-8.5,0.1-12.8,0.1
	c0.1,8.3-0.1,16.7,0.1,25.1c0,2.3,1.3,5.1,3.9,5.1c6,0.1,12,0,17.9,0c4.2,0,8.7-1.5,11.3-4.9c-0.1,3,0.3,6.4-1.9,8.9
	c-2.3,3-6.4,3.8-10,3.8c-10.6,0-21.2,0-31.8,0c-1.6,0-2.8-1.5-3.4-2.9c-1.2-3.1-1.3-6.4-1.3-9.7c0-13.8,0-27.6,0-41.4
	C78.2,334.1,76,329.2,72.3,325.5 M319.8,341.2c6.1-3.4,11.1-8.6,14.9-14.3c0,4.1,0,8.2,0,12.3c3.9,0,7.9,0,11.8,0
	c0,2.8,0.1,5.7,0,8.5c-3.5-2.1-7.8-2.4-11.8-2.3c-0.1,12.3,0,24.7,0,37c0,4.2,2,8.2,5.5,10.5c-4.6,0-9.2,0-13.8,0
	c-2.2,0.2-3.4-2-4.1-3.7c-1-3.3-0.8-6.8-0.8-10.3c0-11.2,0-22.4,0-33.6c-2.9-0.3-5.9-0.1-8.8-0.2
	C314.9,343.5,317.6,342.7,319.8,341.2 M235.9,339.2c3.4,0,6.8,0,10.2,0c2.1,0.3,4.5,1,5.6,3c1.3,2.1,1.5,4.6,2.1,6.9
	c1.3-4,3.9-7.9,8-9.4c2.5-0.3,5.2-0.5,7.4,0.7c1.5,0.8,3,2.1,2.9,4c0,2.7,0,5.3,0,8c-1.5-1-2.8-2.3-4.5-2.9c-2.2-1-4.6-0.8-6.9-0.6
	c-3.3,0.9-6.4,3.3-7,6.8c0,8.9,0,17.8,0,26.7c0.1,4.1,2.3,7.9,5.3,10.5c-4.6,0.1-9.1,0-13.7,0c-1.5,0.1-2.6-1.1-3.2-2.3
	c-1.3-2.7-1.5-5.8-1.5-8.8c0-10.6,0-21.2,0-31.7C241,345.9,239.5,341.5,235.9,339.2 M128.3,339.2c4.1,0.2,8.4-0.7,12.4,0.8
	c3.5,1.5,5,5.3,5.5,8.8c1.4-3.9,4.3-7.5,8.3-8.9c7.6-2.8,17.4,0.8,20.2,8.7c1.5-2.6,2.9-5.5,5.4-7.3c4.7-3.3,11-2.7,16-0.6
	c4.6,2,7.6,6.6,7.6,11.6c0.1,10.2,0,20.5,0.1,30.7c0.1,3.9,2.4,7.4,5.2,9.9c-4.8,0-9.5,0-14.3,0c-1.3,0-2.2-1.3-2.8-2.3
	c-1.5-3.1-1.5-6.6-1.4-9.9c0-8.5,0-17,0-25.5c-0.3-4.3-4.7-7.5-8.9-6.9c-2.9,0.7-5.9,2.7-6.4,5.9c-0.2,9.4,0.2,18.8,0.1,28.2
	c-0.1,4.1,2.3,7.9,5.3,10.5c-4.7,0.1-9.5,0.1-14.2,0c-1.3,0.1-2.2-1.1-2.8-2.1c-1-2.1-1.5-4.4-1.4-6.7c0-9.3,0-18.5,0-27.7
	c0.1-2.6-1.1-5.1-3.2-6.7c-3.8-3.2-10.4-0.9-12.1,3.5c-0.2,9.7,0,19.5-0.1,29.2c-0.1,4.3,2.4,8.3,5.6,10.9
	c-4.7-0.1-9.2,0.1-13.9-0.1c-1.6-0.1-3-1.1-3.6-2.6c-1-1.9-1-4-1.5-6.1c-0.1-11.9,0-23.7-0.1-35.6
	C133.3,345.1,131.5,341.2,128.3,339.2 M213.5,342.4c-0.7-1.3-2-2-2.6-3.3c4.1,0.3,8.4-0.6,12.4,0.8c2.8,1.1,4.1,4.1,4.8,6.8
	c0.2,2.6,0.3,5.3,0.3,8c-0.1,8.9,0,17.7-0.1,26.6c-0.1,4.6,2,8.9,5.6,11.7c-4.7,0-9.3,0-14,0c-2,0.2-3.2-1.7-3.7-3.3
	c-1.3-3.5-1.1-7.4-1.1-11.1c-0.1-7.8,0.2-15.5,0.1-23.3c-0.1-4.3,0.5-8.9-1.8-12.7 M278.1,343.1c6.2-3.9,14.4-5.2,21.3-2.2
	c4.3,1.8,8.3,5.6,8.5,10.5c0,9.2,0,18.5,0,27.7c-0.1,3.3,0,6.6,1.7,9.5c0.9,1.9,2.7,3.1,3.7,4.8c-4.8-0.8-9.7-0.2-14.5-0.4
	c-2.2-0.7-3.1-3.2-3.4-5.3l-0.7,0.2c-2.3,4-7,5.6-11.3,5.5c-3.8-0.4-7.9-1.3-10.5-4.3c-2.9-2.8-3.5-7.2-3.1-11
	c0.3-3.5,1.9-6.8,4.4-9.4c4.2-4.4,10-6.5,15.4-8.9c2.7-1.2,5.4-3.2,6.4-6.1c0.6-2.1,0.5-4.7-1.2-6.3c-2.2-2.2-5.5-2.2-8.4-1.8
	c-3.7,0.8-6.4,3.8-8.2,7C278.1,349.3,278.2,346.2,278.1,343.1 M286.1,368.1c-3.3,2.9-5.1,7.1-4.9,11.5c-0.1,2.4,1,5.1,3.2,6.3
	c2,1.2,4.4,1.1,6.5,0.7c1.8-0.7,4.4-1.8,4.1-4.1c0-7,0-14,0-21C292.3,364.1,288.7,365.5,286.1,368.1 M354.8,345.1
	c6.4-6.9,17.8-8,25.7-3.2c4.1,2.3,6.2,7,5.3,11.6c-1.2,5.6-5.7,9.8-10.3,12.9c-4.3,2.9-10,3.9-13.3,8.3c0.2,4.1,2.4,8.4,5.9,10.6
	c2.7,1.7,6,1.7,9.1,1.3c3.6-0.9,6.4-3.7,8.3-6.8c0.1,3.2,0,6.5,0,9.7c-4.3,2.9-9.5,3.3-14.5,3.8c-6,0-12.2-1.9-16.5-6.2
	c-5.6-5.2-8-13-7.7-20.4C347,358.8,349.3,350.8,354.8,345.1 M364.8,345.6c-2.5,3.2-2.9,7.4-3.5,11.3c-0.3,3.8-0.3,7.6-0.1,11.4
	c2.5-2.2,5.6-3.6,7.9-6c3.4-3.4,5.2-8,5.2-12.8c-0.1-1.9-0.5-4-2.1-5.2C369.9,342.8,366.6,343.3,364.8,345.6 M402.5,339.5
	c6.4-1.3,13.1,0,18.4,3.7c0,3.1,0.1,6.2-0.1,9.3c-1.7-3.6-5-6.6-8.9-7.4c-2.7-0.6-5.8-0.3-7.9,1.7c-1.8,1.8-1.3,4.7,0.2,6.6
	c1.9,2.4,4.9,3.5,7.4,5.1c4.6,2.8,9.4,6.1,11.4,11.3s1.4,11.6-2.2,16c-3.7,4.8-9.8,7.2-15.7,7.5c-4.7-0.3-9.4-1.3-13.5-3.8
	c-0.1-3.3-0.1-6.7,0-10c1.7,3.4,4.4,6.6,8.3,7.6c4.8,1.1,10.8-1.5,12.2-6.6c1.1-3.6-1.4-7.2-4.5-9c-4.3-2.5-8.8-4.9-12.2-8.6
	c-3.4-3.6-4.7-8.9-3.9-13.7C392.8,344,397.6,340.7,402.5,339.5 M240,411.6c8.3-3.5,17.6-4,26.3-2c7.6,1.7,14.1,6.2,19.3,11.9
	c-3.9,3.8-7.9,7.5-12,11.2c-2.4-2.3-4.9-4.8-8.1-6.1c-6.2-2.9-13.9-2.7-19.8,0.9c-5.9,3.4-9.3,9.9-10.3,16.5
	c-0.4,5.3-0.3,10.8,2.1,15.7c2.8,6.3,8.8,11.2,15.7,12c7.6,1.3,15.5-2.2,20.3-8.1c4,3.9,8.2,7.4,12,11.5c-3.9,4-8.3,7.7-13.5,9.9
	c-6.9,3-14.8,3.6-22.2,2.7c-8.2-1.2-16.2-4.9-21.9-11c-5.1-4.9-8.2-11.6-9.9-18.4c-0.7-3.8-1.1-7.6-1.1-11.4
	c0.5-4.9,1.1-10,3.1-14.6C223.7,423,230.9,415.6,240,411.6 M78.2,410.3c17.6,0,35.1,0,52.7,0c0,5.3,0.1,10.6,0,15.9
	c-11.8-0.1-23.5,0-35.3,0c0.1,5.1-0.1,10.2,0.1,15.3c7.4-0.1,14.8,0,22.1,0c0,5.2,0,10.4,0,15.5c-7.4,0-14.8,0-22.2,0
	c-0.1,9.8,0,19.5,0,29.3c-5.8,0.1-11.6,0-17.4,0.1C78.2,461.1,78.2,435.7,78.2,410.3 M151.4,410.6c4.7-0.4,9.3-0.1,14-0.2
	c10.8,25.3,21.6,50.6,32.3,76c-6.2,0-12.4,0.1-18.6-0.1c-2.2-5.5-4.6-11-7-16.4c-9.1,0.1-18.2,0-27.3,0c-2.3,5.5-4.7,11-7,16.4
	c-6.2,0-12.3,0-18.5,0c8.3-19.2,16.3-38.4,24.6-57.6C146.3,422.7,149.1,416.7,151.4,410.6 M158.2,435c-2.5,6.4-5,12.8-7.8,19.1
	c5.4,0.2,10.8,0.1,16.2,0.1c-2.5-6.5-5.5-12.8-7.7-19.3L158.2,435 M293.3,410.3c5.8,0.1,11.6-0.1,17.4,0.1c0,13.3,0,26.6,0,39.9
	c0,5.1-0.5,10.5,2,15.2c1.6,3.6,5.3,5.8,9.1,6.4c4.9,0.7,10.5,0.2,14.1-3.5c3.3-3.5,3.8-8.5,4.2-13c0-15.1,0-30.1,0-45.2
	c5.7,0,11.4,0,17.2,0c0,16.2,0,32.3,0,48.5c-0.2,7.6-2.6,15.6-8.2,21c-5.9,5.7-14.2,7.9-22.2,8.1c-7.8,0.3-16.1-1.2-22.5-5.8
	c-4.7-3.5-8.1-8.5-9.7-14.1c-0.2-0.8-0.3-1.6-0.6-2.3c-1.1-5.8-0.7-11.7-0.8-17.5C293.3,435.5,293.2,422.9,293.3,410.3 M368.1,410.4
	c10.1-0.2,20.1,0,30.2-0.1c7.2,0.2,14.8,1.4,20.8,5.6c4.7,3.1,7.7,8.4,8.6,13.9c0.4,1.9,0.3,3.9,0.7,5.8c-0.3,4.9-1.1,10.1-4,14.2
	c-3.7,5.6-10.1,8.6-16.5,9.9c-7.4,1.6-14.9,1-22.4,1.1c0,8.5,0,17,0,25.5c-5.8-0.1-11.6,0.1-17.4-0.1
	C368.2,461,368.2,435.7,368.1,410.4 M385.6,426.2c0,6.3,0,12.6,0,18.9c6.6-0.3,13.6,1,19.9-1.7c5.3-2.4,6.3-10.3,2.2-14.2
	c-2.5-2.2-6-2.9-9.3-3C394.1,426.2,389.8,426.2,385.6,426.2L385.6,426.2z"/>
</svg>
