<?xml version="1.0" encoding="utf-8"?>
<!-- Generator: Adobe Illustrator 25.0.1, SVG Export Plug-In . SVG Version: 6.00 Build 0)  -->
<svg version="1.1" id="Layer_1" xmlns="http://www.w3.org/2000/svg" xmlns:xlink="http://www.w3.org/1999/xlink" x="0px" y="0px"
	 viewBox="0 0 500 500" style="enable-background:new 0 0 500 500;" xml:space="preserve">
<style type="text/css">
	.st0{fill:#FFFFFF;}
	.st1{fill:#FF6200;}
</style>
<g>
	<path class="st0" d="M368.5,1.5c41.4,0,82.8,0,124.2,0c0,163.2,0,326.5,0,489.7c-163.2,0-326.5,0-489.7,0C3,327.9,3,164.7,3,1.5
		c41.4,0,82.8,0,124.2,0c-1.1,0.4-2.1,1-3.2,1.2C80.1,7.4,35.1,46.2,35.7,107.1c0.5,55.8,0.4,111.6,0.1,167.4
		C35,403.8,146.5,501.4,271,488.5c101.3-10.5,186.2-99.5,188-201.8c1.1-61.6,0.6-123.2,0.2-184.8c-0.2-45.3-29.7-83.5-73.2-96.2
		C380.3,4,374.4,2.9,368.5,1.5z"/>
	<path d="M368.5,1.5c5.8,1.4,11.7,2.6,17.5,4.3c43.4,12.6,72.9,50.9,73.2,96.2c0.3,61.6,0.9,123.2-0.2,184.8
		c-1.9,102.3-86.7,191.4-188,201.8C146.5,501.4,35,403.8,35.7,274.5c0.3-55.8,0.5-111.6-0.1-167.4C35.1,46.2,80.1,7.4,123.9,2.6
		c1.1-0.1,2.2-0.8,3.2-1.2C207.6,1.5,288.1,1.5,368.5,1.5z M447.2,195.1c0-29.8,0-59.5,0-89.3c-0.1-53.4-38.5-91.9-91.9-92
		c-71.8-0.1-143.7-0.1-215.5,0c-53.2,0.1-91.8,39-91.9,92.2c0,54.4,0,108.8,0,163.2c0,8.1,0.3,16.3,0.9,24.4
		c6.9,97,88.8,177.8,185.9,183.4c116.4,6.7,212.3-83.7,212.5-200.3C447.3,249.5,447.2,222.3,447.2,195.1z"/>
	<path class="st0" d="M447.2,195.1c0,27.2,0,54.4,0,81.6c-0.2,116.7-96.1,207.1-212.5,200.3c-97.1-5.6-179-86.4-185.9-183.4
		c-0.6-8.1-0.8-16.3-0.9-24.4c-0.1-54.4-0.1-108.8,0-163.2c0-53.3,38.7-92.2,91.9-92.2c71.8-0.1,143.7-0.1,215.5,0
		c53.5,0.1,91.9,38.6,91.9,92C447.2,135.6,447.2,165.4,447.2,195.1z M171.5,126.4c-30.6-5.9-61.2-11.8-92.2-17.7
		c0,25.4,0,49.4,0,72.9c6.2,3.6,10.2,1.8,14.1-3.3c4.4-5.7,9.5-10.9,14.8-15.7C126.6,146,147,132.6,171.5,126.4
		c-2.4,1.7-4.8,3.6-7.3,5.2c-47.5,28.8-76.8,70.1-82.7,125.5c-7.6,71.5,20.5,127,81.3,165.1c29.9,18.8,63.3,25.5,99.9,22.5
		c-2.9-1.9-4.7-3.1-6.5-4.4c-47.1-32.7-68.4-77.7-58.8-134.1c9.3-54.3,42.9-89.2,95.7-105.3c4.3-1.3,6.6-2.9,7.2-7.7
		c1.3-11.1,3-22.1,5-33c1-5.7-0.3-8.1-6.5-9.3C256.2,142.9,213.9,134.6,171.5,126.4z M212.8,329.3c0,2.7-0.3,4.5,0,6.3
		c8.5,48.7,35.7,82.2,81.7,100.2c2.9,1.1,6.9,0.8,9.9-0.2c98.8-34,142.1-153.2,88.3-243.5c-6.4-10.8-14.5-20.6-21.9-30.9
		c-0.6,0.3-1.1,0.7-1.7,1c7.5,40.5-1.7,76.4-31.1,105.6c-29.3,29.2-65.3,37.8-107.3,30.2c49.7,32.7,101.8,39.9,157.5,27.8
		C330.5,351.4,272.2,351.6,212.8,329.3z M144.6,44.3c-2.4,17.5,4.1,32.1,13.2,46.2C137.3,82,121.9,68,109.1,51.2
		c-9.2,4.7-9.3,4.7-4.9,12.5c22.3,39.2,66.2,61.4,111,55.6c11-1.4,21.8-5.2,32.7-7.9c-0.2-0.7-0.4-1.5-0.6-2.2
		c-1.1,0.2-2.3,0.4-3.4,0.6c-42.4,8.8-82.8-18.1-90.6-60.7C152.3,43.8,149.8,42.7,144.6,44.3z"/>
	<path class="st1" d="M171.5,126.4c42.4,8.2,84.7,16.5,127.2,24.4c6.2,1.1,7.5,3.6,6.5,9.3c-2,11-3.7,22-5,33
		c-0.6,4.8-2.8,6.4-7.2,7.7c-52.8,16.1-86.5,51-95.7,105.3c-9.6,56.4,11.7,101.4,58.8,134.1c1.8,1.3,3.7,2.5,6.5,4.4
		c-36.6,3.1-70-3.7-99.9-22.5c-60.8-38.1-88.9-93.6-81.3-165.1c5.9-55.4,35.3-96.8,82.7-125.5C166.7,130,169,128.1,171.5,126.4
		C171.5,126.4,171.5,126.4,171.5,126.4z"/>
	<path class="st1" d="M212.8,329.3c59.4,22.3,117.7,22,175.5-3.5c-55.6,12.2-107.7,5-157.5-27.8c42,7.6,78-0.9,107.3-30.2
		c29.3-29.3,38.6-65.1,31.1-105.6c0.6-0.3,1.1-0.7,1.7-1c7.3,10.3,15.4,20.1,21.9,30.9c53.8,90.3,10.5,209.6-88.3,243.5
		c-3,1-7,1.3-9.9,0.2c-46-18-73.2-51.5-81.7-100.2C212.5,333.9,212.8,332,212.8,329.3z"/>
	<path class="st1" d="M171.5,126.4c-24.5,6.2-44.9,19.6-63.4,36.2c-5.3,4.8-10.4,10-14.8,15.7c-3.9,5.1-7.8,6.9-14.1,3.3
		c0-23.6,0-47.6,0-72.9C110.2,114.6,140.9,120.5,171.5,126.4C171.5,126.4,171.5,126.4,171.5,126.4z"/>
	<path class="st1" d="M144.6,44.3c5.2-1.6,7.7-0.6,8.7,4.8c7.9,42.6,48.3,69.5,90.6,60.7c1.1-0.2,2.2-0.4,3.4-0.6
		c0.2,0.7,0.4,1.5,0.6,2.2c-10.9,2.7-21.6,6.4-32.7,7.9c-44.8,5.9-88.7-16.4-111-55.6c-4.4-7.7-4.4-7.8,4.9-12.5
		C121.9,68,137.3,82,157.7,90.5C148.7,76.5,142.2,61.8,144.6,44.3z"/>
</g>
<path class="st0" d="M196.1,151.9l3.8,7.8l8.6,1.2l-6.3,6l1.5,8.6l-7.7-4.1l-7.7,4.1l1.5-8.6l-6.3-6l8.6-1.2L196.1,151.9z"/>
</svg>
