<?xml version="1.0" encoding="utf-8"?>
<!-- Generator: Adobe Illustrator 25.0.1, SVG Export Plug-In . SVG Version: 6.00 Build 0)  -->
<svg version="1.1" id="Layer_1" xmlns="http://www.w3.org/2000/svg" xmlns:xlink="http://www.w3.org/1999/xlink" x="0px" y="0px"
	 viewBox="0 0 500 500" style="enable-background:new 0 0 500 500;" xml:space="preserve">
<style type="text/css">
	.st0{fill:#131428;}
	.st1{fill:#C7FF00;}
	.st2{fill:#010C29;}
</style>
<g transform="translate(0 -0.004)">
	<g>
		<g transform="translate(0 0.004)">
			<path class="st0" d="M384,6.6c-23.8,21.3-65.8,40.9-127.2,40.9S131.7,27.8,107.9,6.6l-52.7,8.6l57.8,102.2l280.8-2.5l59.8-99.7
				L384,6.6z"/>
			<path class="st0" d="M432.3,218.9c0,97.4-78.9,176.4-176.3,176.4c-97.4,0-176.4-78.9-176.4-176.3c0-0.1,0-0.1,0-0.2
				c0-97.4,79-171.5,176.4-171.5S432.3,121.5,432.3,218.9"/>
			<path class="st1" d="M176.3,219.2l11-20.1c-2.4-11.9-5.3-23.8-8.7-35.8c-5.9-19.9-13-40.2-21.4-61C147.1,78,135,54.5,121,32.1
				l-31.5,3.2c16,23.2,30.5,47.4,43.3,72.4v0l1.9,3.9c5.2,10.2,10.4,21.2,15.5,32.7l0.7,1.6l0,0
				C161.3,169.6,169.8,194.1,176.3,219.2"/>
			<path class="st1" d="M211.9,282c-4.2-13.5-10.2-26.4-17.7-38.3l0,0c-4.8-7.2-10.4-13.8-16.7-19.8c8,33.4,12,66.7,6.7,99.2
				c4.9,5.6,23.8,14.6,28,16.2c0-0.1,0.1-0.2,0.1-0.3l0,0C217.6,320.3,217.5,300.6,211.9,282"/>
			<path class="st1" d="M333.9,219.2l-11-20.1c2.4-11.9,5.3-23.8,8.7-35.8c5.9-19.9,13-40.2,21.4-61c10.1-24.4,22.2-47.9,36.2-70.2
				l31.5,3.2c-16,23.2-30.5,47.4-43.3,72.4v0l-1.9,3.9c-5.2,10.2-10.4,21.2-15.5,32.7l-0.7,1.6l0,0
				C349,169.6,340.4,194.1,333.9,219.2"/>
			<path class="st1" d="M298.3,282c4.2-13.5,10.2-26.4,17.7-38.3l0,0c4.8-7.2,10.4-13.8,16.7-19.8c-8,33.4-12,66.7-6.7,99.2
				c-4.9,5.6-23.8,14.6-28,16.2c0-0.1-0.1-0.2-0.1-0.3l0,0C292.6,320.3,292.8,300.6,298.3,282"/>
			<path class="st1" d="M255.1,71.8c-42.2,0.1-83.7-10.7-120.5-31.4c13.4,25.1,25.4,51,35.9,77.4c9.1,23.8,16.4,48.3,21.9,73.2
				l59.3-108.1l2-3.3l1.5-2l1.5,2l2,3.3l59.3,108.1c5.5-24.9,12.8-49.4,21.9-73.2c10.5-26.5,22.5-52.3,35.9-77.4
				C338.9,61.1,297.4,71.9,255.1,71.8"/>
			<path class="st1" d="M379.9,119.4L367.2,147c14.1,21.6,21.7,46.8,21.6,72.6c-0.2,59.2-39.3,111.2-96,128
				c-3.2-12.7-5.1-25.7-5.4-38.8c0.1-13.2,2.8-26.2,8-38.3c2.1-6,4.6-11.7,7.6-17.3c4.2-7.8,9.1-15.1,14.6-22
				c4.1-5.9,7.3-9.7,8.6-11.2L255.5,91.2l0,0l-0.1-0.3l-0.2-0.5l0,0l-0.2,0.5l-0.1,0.3l0,0L184.1,220c1.3,1.5,4.5,5.3,8.6,11.2
				c5.6,6.8,10.5,14.2,14.7,22c3,5.6,5.5,11.3,7.6,17.3c5.1,12.1,7.9,25.1,8,38.3c-0.4,13.1-2.2,26.1-5.4,38.8
				c-56.8-16.8-95.8-68.8-96-128c0-25.8,7.5-51,21.6-72.6l-12.6-27.6c-54.9,69.5-43.1,170.4,26.4,225.4c24.3,19.2,53.6,31,84.5,33.9
				l0.9,0.1c0.9,0.1,1.7,0.1,2.6,0.2c1,0.1,1.9,0.1,2.9,0.2l1.4,0.1c0.8,0,1.6,0.1,2.5,0.1l1.2,0c0.7,0,1.4,0,2.1,0l0,0h0.8l0,0
				c0.7,0,1.4,0,2.1,0l1.2,0c0.8,0,1.6-0.1,2.5-0.1l1.4-0.1c1-0.1,1.9-0.1,2.9-0.2c0.9-0.1,1.7-0.1,2.6-0.2l0.9-0.1
				c88.2-8.3,153-86.5,144.7-174.8C410.8,173.1,399.1,143.7,379.9,119.4 M254.5,265.5c-25.4,0-45.9-20.6-45.9-45.9
				s20.6-45.9,45.9-45.9c25.4,0,45.9,20.6,45.9,45.9C300.4,245,279.9,265.5,254.5,265.5"/>
			<path class="st1" d="M254.5,203.2l-17,12.4l6.5,20H265l6.5-20L254.5,203.2z"/>
			<path class="st1" d="M221,210.3l-1.9-10.5c-3.1,5.5-4.8,11.6-5.1,17.8L221,210.3z"/>
			<path class="st1" d="M233.6,249.6l-7.5-1.1c3.2,3.2,7,5.8,11.1,7.7L233.6,249.6z"/>
			<path class="st1" d="M265.5,180.6c-3.6-1-7.3-1.5-11-1.5h-0.1c-3.7,0-7.4,0.5-11,1.5l11,5.2v0l0,0h0h0l0,0v0L265.5,180.6z"/>
			<path class="st1" d="M222.7,194.4l2.2,13.1l9.7,3.2l16.1-11.7v-10.4l-12.3-6.2C232.3,185.1,226.9,189.2,222.7,194.4"/>
			<path class="st1" d="M222.5,214.7l-8.4,8.4c0.6,7.4,3.3,14.5,7.7,20.5l10.6,1.7l6.1-8.4l-6.2-19L222.5,214.7z"/>
			<path class="st1" d="M270.5,249.4l-6-8.3h-20.1l-6,8.3l4.6,9c3.7,1.1,7.6,1.7,11.5,1.7h0.1c3.9,0,7.7-0.6,11.5-1.7L270.5,249.4z"
				/>
			<path class="st1" d="M287.9,210.3l1.9-10.5c3.1,5.5,4.8,11.6,5.1,17.8L287.9,210.3z"/>
			<path class="st1" d="M275.3,249.6l7.5-1.1c-3.2,3.2-7,5.8-11.1,7.7L275.3,249.6z"/>
			<path class="st1" d="M286.2,194.4l-2.2,13.1l-9.7,3.2L258.2,199v-10.4l12.3-6.2C276.7,185.1,282.1,189.2,286.2,194.4"/>
			<path class="st1" d="M286.4,214.7l8.4,8.4c-0.6,7.4-3.3,14.5-7.7,20.5l-10.6,1.7l-6.1-8.4l6.2-19L286.4,214.7z"/>
			<g transform="translate(2.708 76.453)">
				<g transform="translate(0 0)">
					<path class="st2" d="M58.9,335.9h26.6c5.2,0,10,2.3,10,8.7c0.1,3.1-1.8,5.9-4.7,6.9v0.1c3.9,0.9,6.5,4.4,6.3,8.3
						c0,4.6-2.2,10.4-12.9,10.4H58.9V335.9z M68.6,349.6H82c1.8,0.2,3.4-1.1,3.6-2.9c0-0.3,0-0.6,0-0.8c0-2.2-1-3.7-5-3.7H68.6
						L68.6,349.6z M68.6,363.7h14.2c2,0.2,3.9-1.2,4.1-3.3c0-0.3,0-0.5,0-0.8c0-2.7-1.7-4.2-5.1-4.2H68.6L68.6,363.7z"/>
					<path class="st2" d="M101.9,335.9h25.8c9.9,0,11.5,5.8,11.5,9.3c0.4,3.8-2.1,7.3-5.8,8.3v0.1c4.2,0.6,4.9,5.8,4.9,9.2
						c-0.2,2.6,0.4,5.2,1.8,7.5h-10.5c-0.9-2.1-1.2-4.4-0.9-6.6c0-4.8-2.1-6-5.1-6h-12v12.6h-9.6L101.9,335.9z M111.5,351.1h12.8
						c2.3,0.2,4.4-1.5,4.6-3.9c0-0.2,0-0.4,0-0.5c0-3.4-2.8-4.3-5.1-4.3h-12.3L111.5,351.1z"/>
					<path class="st2" d="M168.5,363.2h-16.3l-2.9,7.1h-10.4l15.6-34.4h11.6l15.6,34.4h-10.4L168.5,363.2z M160.3,343.3l-5.6,13.6
						h11.1L160.3,343.3z"/>
					<path class="st2" d="M207.2,345.9c-0.6-4.5-5-5-8.9-5c-4,0-6.6,1.7-6.6,4c0,1.8,1.6,2.8,4.1,3.2l12.1,1.9
						c6.5,1,11.4,3.4,11.4,9.6c0,6.4-4.5,11.6-18.4,11.6c-8.6,0-19.9-1-20-11.8h10.8c0.1,4.7,5,5.5,9.1,5.5c4.5,0,7.6-1.3,7.6-4.3
						c0-2.7-2.2-3.4-6-3.9l-8.8-1.3c-6.2-0.9-12.1-2.7-12.1-9.7c0-7.7,6.5-10.8,17.6-10.8c7.3,0,18.2,1.2,18.8,10.9H207.2z"/>
					<path class="st2" d="M222.4,335.9h9.6v34.4h-9.6V335.9z"/>
					<path class="st2" d="M237.6,335.9h9.6v27.5h21.6v6.8h-31.3V335.9z"/>
					<path class="st2" d="M272.2,335.9h33.1v6.6h-23.5v7.1h22.3v6.3h-22.3v7.9h23.7v6.6h-33.3L272.2,335.9z"/>
					<path class="st2" d="M309.6,335.9h9.6v34.4h-9.6V335.9z"/>
					<path class="st2" d="M324.8,335.9h25.8c9.9,0,11.5,5.8,11.5,9.3c0.4,3.8-2.1,7.3-5.8,8.3v0.1c4.2,0.6,4.9,5.8,4.9,9.2
						c-0.2,2.6,0.4,5.2,1.8,7.5h-10.5c-0.9-2.1-1.2-4.4-0.9-6.6c0-4.8-2.1-6-5.1-6h-12v12.6h-9.6V335.9z M334.4,351.1h12.8
						c2.3,0.2,4.4-1.5,4.6-3.9c0-0.2,0-0.4,0-0.5c0-3.4-2.8-4.3-5.1-4.3h-12.3L334.4,351.1z"/>
					<path class="st2" d="M391.4,363.2h-16.3l-2.9,7.1h-10.4l15.6-34.4H389l15.6,34.4h-10.4L391.4,363.2z M371,333.4
						c1.1-3.9,3.3-6.6,7.1-6.6c2.6,0,7.8,2.1,10.8,2.1c1.3,0,2.2-0.5,2.4-1.9h4.1c-0.5,3.7-2.2,6.6-6.5,6.6c-2.8,0-9.4-2.4-11.3-2.4
						c-1.3,0-2,1-2.4,2.2H371z M383.2,343.3l-5.6,13.6h11.1L383.2,343.3z"/>
					<path class="st2" d="M426.2,334.9c19.1,0,22.1,11,22.1,18.2c0,7.2-3,18.2-22.1,18.2c-19.1,0-22.1-11-22.1-18.2
						S407.1,334.9,426.2,334.9z M426.2,364.7c6.4-0.1,11.5-5.4,11.4-11.8c-0.1-6.4-5.4-11.5-11.8-11.4c-6.3,0.1-11.4,5.3-11.4,11.6
						c-0.4,6.1,4.3,11.3,10.3,11.6C425.2,364.7,425.7,364.7,426.2,364.7z"/>
				</g>
				<g transform="translate(23.361 10.512)">
					<path class="st2" d="M214.8,390L214.8,390c-1.9-1.2-4-2.2-6.2-2.8c-1.2-0.4-2.3-0.8-3.5-1.4l0,0c-1.1-0.6-1.8-1.3-1.8-2.4
						c0-1.9,1.5-2.8,4.5-2.8c3.2,0.1,6.4,0.9,9.4,2.2l-0.7-6c0-0.7-0.3-1.3-0.7-1.8l0,0c-0.3-0.3-0.7-0.5-1.1-0.6
						c-2.4-0.7-4.9-1.1-7.4-1c-8.8,0-12.7,5-12.8,10.3c-0.3,3.5,1.5,6.8,4.6,8.4c0.7,0.5,1.5,0.9,2.2,1.3c-0.8-0.4-1.5-0.8-2.2-1.3
						c1.1,0.6,2.2,1.2,3.4,1.6c2.1,0.6,4.1,1.5,6,2.6l0,0c0.7,0.5,1.2,1.3,1.2,2.2c0,1.7-1.1,2.7-4.2,2.7c-3.4,0-6.8-1-9.8-2.7
						l-2.6,7c0.2,0.1,0.5,0.2,0.7,0.4c3.9,1.8,8.2,2.7,12.5,2.6c7.8,0,12.7-3.9,12.7-10.5C219,394.7,217.5,391.7,214.8,390
						 M203.2,394.1c1.8,0.6,3.5,1.3,5.2,2.1C206.8,395.4,205,394.7,203.2,394.1 M204.1,384.4c0.2,0.6,0.5,1,1,1.4
						C204.6,385.4,204.3,385,204.1,384.4 M296.5,370.8c-0.8-0.1-1.6,0.2-2.1,0.9l-2.4,3.5c-0.2,0.2-0.3,0.5-0.3,0.7
						c0,0.3,0.2,0.6,0.7,0.6h6.3l4.5-3.8c0.5-0.5,1.1-1,1.8-1.5l0,0c0.2-0.2,0.4-0.3,0.6-0.4L296.5,370.8z M177.4,374.7L177.4,374.7
						c-0.4-0.4-0.9-0.6-1.4-0.6h-9.3c0.4,0.7,0.6,1.5,0.6,2.3c0,1.8-0.4,3.5-1.1,5.1l-9.2,24c-0.1,0.2-0.1,0.5-0.1,0.8
						c0,0.6,0.4,1.1,0.9,1.2c0.2,0,0.3,0.1,0.5,0.1h6.7l2-5.8h11l1.2,4.2c0.1,0.7,0.6,1.2,1.2,1.5c0.1,0.1,0.3,0.2,0.4,0.3
						c-0.2-0.1-0.3-0.2-0.4-0.3c0.3,0.1,0.6,0.2,1,0.2h7.9l-11.4-32.3C177.8,375.1,177.6,374.9,177.4,374.7 M169.3,395.2l3.7-11.6
						l3.2,11.6H169.3z M234.1,394.1c1.8,0.6,3.5,1.3,5.2,2.1C237.6,395.4,235.8,394.7,234.1,394.1 M292,384.4V406
						c0,0.7,0.4,1.4,1.1,1.6c0.2,0.1,0.5,0.1,0.7,0.1h6.7l0.1-27.6v-0.4h-9.8C291.6,381.1,292,382.8,292,384.4 M274.7,374.7
						L274.7,374.7c-0.4-0.4-0.9-0.6-1.4-0.6h-9.3c0.4,0.7,0.6,1.5,0.6,2.3c0,1.8-0.4,3.5-1.1,5.1l-9.2,24c-0.1,0.2-0.1,0.5-0.1,0.8
						c0,0.6,0.4,1.1,0.9,1.2c0.2,0,0.3,0.1,0.5,0.1h6.7l2-5.8h11l0.1,0.5l1,3.8c0.1,0.7,0.6,1.2,1.2,1.5c0.3,0.1,0.6,0.2,1,0.1h7.9
						L275,375.4C275,375.2,274.8,374.9,274.7,374.7 M266.5,395.2l3.7-11.6l0.4,1.4l2.8,10.2H266.5z M245.6,390L245.6,390
						c-2-1.2-4.1-2.2-6.3-2.8c-1.2-0.4-2.3-0.8-3.5-1.4l0,0c-0.1-0.1-0.3-0.1-0.4-0.2l0.1,0c-0.9-0.4-1.4-1.2-1.5-2.2
						c0-1.9,1.5-2.8,4.5-2.8c3.2,0.1,6.4,0.9,9.4,2.2l-0.7-6c0-0.7-0.3-1.3-0.7-1.8l0,0c-0.3-0.3-0.7-0.5-1.1-0.6
						c-2.4-0.7-4.9-1.1-7.4-1c-8.8,0-12.7,5-12.8,10.3c-0.3,3.5,1.5,6.8,4.6,8.4c0.9,0.6,1.9,1.1,2.9,1.6c-1-0.4-2-0.9-2.9-1.6
						c1.1,0.6,2.2,1.2,3.4,1.6c0.6,0.2,1.1,0.4,1.7,0.6l0.5,0.2l0.3,0.1l0.2,0.1l-0.1,0c0.6,0.2,1.2,0.4,1.7,0.6l0,0l0.4,0.2l0.1,0
						l0.4,0.2c0.3,0.2,0.6,0.3,0.8,0.5l0,0c0.7,0.5,1.2,1.3,1.2,2.2c0,1.7-1.1,2.7-4.3,2.7c-3.4,0-6.8-1-9.8-2.7l-2.6,7
						c0.2,0.1,0.5,0.2,0.7,0.4c3.9,1.8,8.2,2.7,12.5,2.6c7.8,0,12.7-3.9,12.7-10.5C249.8,394.7,248.3,391.7,245.6,390"/>
				</g>
			</g>
		</g>
	</g>
</g>
</svg>
