<?xml version="1.0" encoding="utf-8"?>
<!-- Generator: Adobe Illustrator 25.0.1, SVG Export Plug-In . SVG Version: 6.00 Build 0)  -->
<svg version="1.1" id="Layer_1" xmlns="http://www.w3.org/2000/svg" xmlns:xlink="http://www.w3.org/1999/xlink" x="0px" y="0px"
	 viewBox="0 0 500 500" style="enable-background:new 0 0 500 500;" xml:space="preserve">
<style type="text/css">
	.st0{display:none;fill:#FFFFFF;}
	.st1{display:none;fill:none;stroke:#FFFFFF;stroke-width:0.5621;stroke-miterlimit:10;}
	.st2{fill:#FF6900;}
</style>
<g>
	<g>
		<path class="st0" d="M354.1,355.2c-2.2,0-3.9,1.8-3.9,3.9c0,2.2,1.8,3.9,3.9,3.9c2.2,0,3.9-1.8,3.9-3.9S356.2,355.2,354.1,355.2
			 M357.4,359.2c0,1.9-1.5,3.4-3.3,3.4c-1.9,0-3.4-1.5-3.4-3.4c0-1.8,1.5-3.3,3.4-3.3C355.9,355.8,357.4,357.3,357.4,359.2"/>
		<path class="st0" d="M354,360.8c-0.9,0-1.7-0.8-1.7-1.7c0-0.9,0.8-1.7,1.7-1.7c0.7,0,1.2,0.4,1.5,1h0.5c-0.3-0.8-1.1-1.4-2-1.4
			c-1.2,0-2.1,1-2.1,2.1c0,1.2,1,2.1,2.1,2.1c1,0,1.8-0.6,2-1.5h-0.5C355.3,360.4,354.7,360.8,354,360.8"/>
		<path class="st0" d="M364.7,361.5c-0.2,0.1-0.4,0.2-0.7,0.3c-0.3,0.1-0.5,0.1-0.8,0.1s-0.6,0-0.8-0.2c-0.3-0.1-0.5-0.3-0.7-0.5
			c-0.2-0.3-0.4-0.6-0.5-0.9s-0.1-0.7-0.1-1.1s0.1-0.7,0.2-1.1c0.1-0.3,0.3-0.6,0.5-0.9c0.2-0.2,0.4-0.4,0.7-0.6
			c0.3-0.1,0.6-0.2,0.9-0.2c0.2,0,0.5,0,0.7,0.1s0.4,0.2,0.6,0.3l-0.3,0.4c-0.2-0.1-0.3-0.2-0.5-0.2c-0.2-0.1-0.3-0.1-0.5-0.1
			c-0.3,0-0.6,0.1-0.8,0.2c-0.2,0.1-0.4,0.4-0.5,0.7c-0.1,0.2-0.1,0.4-0.2,0.6c0,0.2,0,0.5,0,0.8c0,0.2,0,0.5,0,0.6
			c0,0.2,0.1,0.3,0.1,0.5c0.1,0.3,0.3,0.6,0.6,0.7c0.3,0.2,0.5,0.2,0.8,0.2c0.2,0,0.4,0,0.5-0.1c0.2-0.1,0.3-0.1,0.5-0.3
			L364.7,361.5"/>
		<path class="st0" d="M368.6,359.4c0-0.4,0-0.7-0.1-1c0-0.3-0.1-0.5-0.2-0.7s-0.2-0.4-0.4-0.5c-0.2-0.1-0.4-0.2-0.7-0.2
			c-0.2,0-0.5,0-0.7,0.1s-0.3,0.3-0.4,0.5s-0.2,0.4-0.2,0.6s-0.1,0.5-0.1,0.8c0,0.4,0,0.8,0.1,1.1c0.1,0.3,0.1,0.6,0.2,0.8
			c0.1,0.1,0.1,0.2,0.2,0.2c0.1,0.1,0.2,0.1,0.3,0.2c0.1,0.1,0.2,0.1,0.3,0.1c0.1,0,0.2,0,0.3,0c0.2,0,0.4,0,0.6-0.1
			s0.3-0.2,0.4-0.3c0.1-0.1,0.1-0.2,0.2-0.3c0-0.1,0.1-0.2,0.1-0.3c0-0.1,0.1-0.3,0.1-0.4C368.6,359.8,368.6,359.6,368.6,359.4
			 M369.3,359.3c0,0.5-0.1,0.9-0.2,1.3c-0.1,0.3-0.3,0.6-0.6,0.9c-0.2,0.2-0.4,0.3-0.6,0.4s-0.4,0.1-0.7,0.1c-0.3,0-0.6,0-0.9-0.2
			c-0.2-0.1-0.5-0.3-0.6-0.5c-0.4-0.5-0.6-1.2-0.6-2.1c0-0.4,0.1-0.8,0.2-1.1c0.1-0.3,0.2-0.6,0.4-0.8c0.2-0.2,0.4-0.4,0.7-0.5
			c0.3-0.1,0.5-0.2,0.9-0.2c0.2,0,0.4,0,0.6,0.1c0.2,0,0.3,0.1,0.5,0.2c0.1,0.1,0.3,0.2,0.3,0.3c0.1,0.1,0.2,0.2,0.2,0.3
			c0.2,0.2,0.3,0.5,0.4,0.8C369.3,358.5,369.3,358.9,369.3,359.3"/>
		<path class="st0" d="M373,358.2c0-0.4-0.1-0.7-0.3-0.8c-0.1-0.1-0.2-0.2-0.4-0.2c-0.2-0.1-0.4-0.1-0.6-0.1H371v2.1h0.9
			c0.2,0,0.4,0,0.5-0.1c0.1,0,0.2-0.1,0.3-0.2C372.9,358.7,373,358.5,373,358.2 M373.7,358.1c0,0.3,0,0.5-0.1,0.7s-0.2,0.4-0.4,0.5
			c-0.2,0.2-0.4,0.3-0.6,0.3c-0.2,0.1-0.4,0.1-0.7,0.1H371v2.1h-0.6v-5.2h1.5c0.3,0,0.5,0,0.7,0s0.3,0.1,0.5,0.2
			C373.5,357.1,373.7,357.5,373.7,358.1"/>
		<path class="st0" d="M376.1,359.8v2h-0.6v-2.1l-1.7-3.2h0.8l1,2c0,0.1,0.1,0.2,0.1,0.3c0,0.1,0.1,0.2,0.1,0.2c0,0.1,0,0.1,0,0.1
			c0.1-0.2,0.2-0.4,0.3-0.6l1-2h0.7L376.1,359.8"/>
		<path class="st0" d="M380.8,358c0-0.2,0-0.3-0.1-0.5s-0.2-0.3-0.4-0.3c-0.1,0-0.2-0.1-0.3-0.1c-0.1,0-0.2,0-0.4,0H379v2h0.6
			c0.2,0,0.4,0,0.6-0.1c0.1,0,0.3-0.1,0.4-0.2s0.2-0.2,0.2-0.3C380.8,358.3,380.8,358.2,380.8,358 M381,361.8c0-0.1-0.1-0.2-0.2-0.3
			c-0.1-0.1-0.2-0.3-0.3-0.5c-0.1-0.2-0.2-0.4-0.4-0.6c-0.1-0.2-0.3-0.4-0.5-0.6c0-0.1-0.1-0.1-0.1-0.1l-0.1-0.1
			c-0.1,0-0.1,0-0.1-0.1c-0.1,0-0.1,0-0.2,0v2.4h-0.6v-5.2h1.2c0.2,0,0.3,0,0.5,0c0.1,0,0.3,0,0.4,0.1c0.1,0,0.2,0.1,0.3,0.1
			c0.1,0,0.1,0.1,0.2,0.1s0.1,0.1,0.2,0.2s0.1,0.2,0.2,0.2c0,0.1,0.1,0.2,0.1,0.3c0,0.1,0,0.2,0,0.4c0,0.2,0,0.4-0.1,0.6
			s-0.2,0.3-0.3,0.5c-0.1,0.1-0.3,0.2-0.4,0.3c-0.2,0.1-0.4,0.1-0.6,0.1H380c0.1,0.1,0.2,0.2,0.3,0.3c0.1,0.1,0.2,0.2,0.2,0.3
			c0,0.1,0.1,0.2,0.2,0.3c0.1,0.1,0.2,0.3,0.3,0.5c0.1,0.2,0.2,0.3,0.3,0.5c0.1,0.2,0.2,0.3,0.2,0.4c0.1,0.1,0.1,0.1,0.1,0.2H381
			V361.8z"/>
		<line class="st1" x1="382.9" y1="361.8" x2="382.9" y2="356.6"/>
		<path class="st0" d="M388.1,361.5c-0.2,0.1-0.4,0.2-0.7,0.3c-0.3,0.1-0.5,0.1-0.8,0.1c-0.7,0-1.2-0.2-1.6-0.7
			c-0.2-0.2-0.4-0.5-0.5-0.9c-0.1-0.3-0.2-0.7-0.2-1.2s0.1-0.9,0.2-1.3s0.3-0.7,0.6-0.9c0.4-0.3,0.8-0.5,1.4-0.5s1,0.2,1.4,0.5
			l-0.3,0.4c-0.2-0.2-0.4-0.2-0.6-0.3c-0.2-0.1-0.4-0.1-0.6-0.1c-0.3,0-0.6,0.1-0.8,0.2c-0.2,0.1-0.4,0.4-0.5,0.7
			c-0.1,0.4-0.2,0.8-0.2,1.3c0,0.4,0,0.7,0.1,0.9c0.1,0.3,0.2,0.5,0.3,0.7c0.1,0.1,0.1,0.2,0.2,0.2c0.1,0.1,0.2,0.1,0.3,0.2
			c0.1,0.1,0.2,0.1,0.4,0.1c0.1,0,0.3,0,0.4,0c0.3,0,0.6-0.1,0.8-0.2v-1.6h-1l-0.1-0.5h1.8L388.1,361.5"/>
		<polygon class="st0" points="392.2,361.8 392.2,359.3 390,359.3 390,361.8 389.4,361.8 389.4,356.6 390,356.6 390,358.8 
			392.2,358.8 392.2,356.6 392.8,356.6 392.8,361.8 		"/>
		<polygon class="st0" points="397.1,357.1 395.7,357.1 395.7,361.8 395.1,361.8 395.1,357.1 393.7,357.1 393.7,356.6 397.1,356.6 
					"/>
		<path class="st0" d="M402.2,361.8h-2.9v-0.3c0.1-0.1,0.3-0.2,0.5-0.4c0.2-0.2,0.4-0.4,0.6-0.7c0.2-0.2,0.4-0.5,0.5-0.6
			c0.1-0.2,0.3-0.4,0.4-0.6s0.2-0.3,0.2-0.5c0-0.1,0.1-0.3,0.1-0.4c0-0.3-0.1-0.5-0.3-0.7c-0.2-0.2-0.4-0.3-0.7-0.3
			c-0.1,0-0.2,0-0.3,0c-0.1,0-0.2,0.1-0.3,0.1c-0.1,0-0.2,0.1-0.3,0.1c-0.1,0.1-0.2,0.1-0.3,0.2l-0.3-0.3c0.3-0.3,0.6-0.4,0.8-0.5
			c0.3-0.1,0.5-0.2,0.8-0.2c0.2,0,0.4,0,0.6,0.1s0.3,0.2,0.4,0.3c0.1,0.1,0.2,0.3,0.3,0.4c0.1,0.2,0.1,0.4,0.1,0.6s-0.1,0.4-0.1,0.7
			c-0.1,0.2-0.2,0.5-0.4,0.7c-0.2,0.2-0.4,0.5-0.7,0.8c-0.1,0.1-0.2,0.2-0.4,0.4c-0.1,0.1-0.2,0.2-0.3,0.3c-0.1,0.1-0.2,0.2-0.3,0.2
			c-0.1,0.1-0.1,0.1-0.2,0.1h0.1c0.1,0,0.1,0,0.2,0s0.2,0,0.3,0h1.6L402.2,361.8"/>
		<path class="st0" d="M406.2,359.3c0-0.3,0-0.5,0-0.7s-0.1-0.4-0.1-0.6c-0.1-0.3-0.2-0.5-0.4-0.6c-0.2-0.1-0.4-0.2-0.6-0.2
			c-0.1,0-0.3,0.1-0.4,0.2s-0.3,0.3-0.4,0.5c-0.2,0.3-0.3,0.8-0.3,1.4c0,0.3,0,0.5,0,0.8c0,0.2,0.1,0.4,0.1,0.6
			c0.1,0.3,0.2,0.5,0.4,0.6c0.2,0.2,0.3,0.2,0.5,0.2s0.3-0.1,0.5-0.2s0.3-0.3,0.4-0.5s0.1-0.4,0.2-0.6
			C406.2,359.9,406.2,359.6,406.2,359.3 M406.9,359.3c0,0.4-0.1,0.7-0.1,1.1c-0.1,0.3-0.2,0.6-0.4,0.8c-0.2,0.2-0.3,0.4-0.6,0.5
			c-0.2,0.1-0.5,0.2-0.7,0.2c-0.3,0-0.6-0.1-0.8-0.3c-0.2-0.2-0.4-0.4-0.5-0.7c-0.1-0.3-0.2-0.6-0.3-0.9c-0.1-0.3-0.1-0.6-0.1-0.9
			s0-0.7,0.1-1s0.2-0.6,0.4-0.8c0.2-0.2,0.3-0.4,0.6-0.5c0.2-0.1,0.4-0.2,0.7-0.2c0.2,0,0.4,0,0.6,0.1s0.3,0.2,0.5,0.3
			c0.1,0.1,0.2,0.3,0.3,0.4c0.1,0.2,0.2,0.4,0.2,0.5c0.1,0.2,0.1,0.4,0.1,0.6C406.8,359,406.9,359.1,406.9,359.3"/>
		<path class="st0" d="M411.1,359.3c0,0.4,0,0.7-0.1,1.1c-0.1,0.3-0.2,0.6-0.4,0.8c-0.2,0.2-0.3,0.4-0.6,0.5
			c-0.2,0.1-0.5,0.2-0.7,0.2c-0.3,0-0.6-0.1-0.8-0.3c-0.2-0.2-0.4-0.4-0.5-0.7c-0.1-0.3-0.2-0.6-0.3-0.9c-0.1-0.3-0.1-0.6-0.1-0.9
			s0-0.7,0.1-1s0.2-0.6,0.4-0.8c0.2-0.2,0.4-0.4,0.6-0.5s0.4-0.2,0.7-0.2c0.2,0,0.4,0,0.6,0.1s0.3,0.2,0.5,0.3
			c0.1,0.1,0.2,0.3,0.3,0.4c0.1,0.2,0.2,0.4,0.2,0.5c0.1,0.2,0.1,0.4,0.1,0.6C411.1,359,411.1,359.1,411.1,359.3"/>
	</g>
</g>
<g>
	<g>
		<path d="M216.3,17.3c16.1-4.5,32.2-9.1,48.4-13.6c-6.8,44.1-13.5,88.2-20.3,132.3C235,96.5,225.7,56.9,216.3,17.3z"/>
		<path d="M276.2,5.2c9.4,5.9,18.7,11.9,28,17.9c-12.8,47.4-25.6,94.7-38.3,142.1c-0.4,1.2,0.3,2.3,0.6,3.4
			c6.2,19.4,12.3,38.8,18.5,58.2c-23.6,0-47.2,0-70.8,0c6.3-19.5,12.7-39.1,18.9-58.6c-1.9-8.2-4.1-16.4-6.2-24.6
			c-8.5-33.5-17-67-25.6-100.4c-0.2-0.8,0.2-1.6,0.4-2.3c1.8-5.7,3.4-11.4,5.2-17c10.1,41.1,20.3,82.1,30.4,123.2
			c2.8,11.3,5.5,22.7,8.5,34.1C255.9,122.4,266.1,63.8,276.2,5.2z"/>
		<path d="M210.8,237c25.8,0,51.6,0,77.5,0c2.3,7.1,4.5,14.2,6.8,21.2c-30.4,0-60.7,0-91.1,0C206.2,251.2,208.5,244.1,210.8,237z"/>
		<path d="M206.5,288.5c19.3-7.1,40.4-9.2,60.8-6.3c25.5,3.6,49.9,15.4,68.1,33.6c-0.8,1.8-2.6,3.3-3.8,5
			c-11.8-11.9-26.4-21.1-42.2-26.8c-21.3-7.6-44.7-9-66.8-3.9c-20.9,4.8-40.4,15.4-55.5,30.6c-1.3-1.6-2.6-3.2-3.9-4.8
			C175.3,303.8,190.3,294.4,206.5,288.5z"/>
		<path d="M219.2,298.3c6.2-1.3,12.5-2.5,18.7-3.8c0.5,2.3,0.9,4.6,1.4,6.9c-4.7,0.9-9.5,1.9-14.2,2.9c0.3,1.6,0.6,3.2,0.9,4.8
			c4.4-0.7,8.7-1.7,13.1-2.6c0.5,2.3,0.9,4.5,1.4,6.8c-4.3,0.9-8.7,1.7-13.1,2.7c0.5,1.5,0.3,4.4,2.5,4.5c4.3-0.5,8.5-1.7,12.8-2.4
			c0.4,2.3,0.9,4.5,1.4,6.8c-3.9,0.8-7.9,1.6-11.8,2.4c-2.8,0.5-5.9,0.4-8.2-1.4c-2-1.5-3-4-3.4-6.4c-1.2-5.9-2.4-11.8-3.6-17.7
			C216.5,300.2,217.6,298.5,219.2,298.3z"/>
		<path d="M268.8,297.5c3.5-1.1,7.1,0.3,10.5,1.1c2.5,0.7,5,1.3,7.5,1.9c-0.6,2.2-1.2,4.5-1.7,6.7c-3.9-0.8-7.7-2-11.5-2.9
			c-0.9-0.2-2-0.4-2.6,0.5c-0.7,1.1-0.9,2.5-1.2,3.7c4.3,1.1,8.6,2.2,12.9,3.3c-0.6,2.2-1.1,4.5-1.8,6.7c-4.2-1.1-8.5-2.2-12.8-3.3
			c-1.2,3.8-2,7.7-3.1,11.6c-2.3-0.7-6.6-0.6-6.5-4c1.4-6.2,3.2-12.4,4.7-18.6C263.9,301.3,265.8,298.4,268.8,297.5z"/>
		<path d="M188.3,313c1.9-1.5,3.8-3.1,5.8-4.6c3.8,4.7,7.7,9.4,11.5,14.2c2,2.5,3.4,5.6,3.1,8.9c-0.4,6-5.3,11-10.8,12.7
			c-4.5,1.4-9.7-0.1-12.7-3.7c-4.1-5-8.2-10-12.3-15.1c1.9-1.5,3.8-3.1,5.7-4.6c3.5,4.4,7.1,8.7,10.7,13.1c1,1.1,2,2.3,3.4,2.8
			c4,1.5,9-2.5,8.3-6.8c-0.2-1.4-1-2.5-1.9-3.6C195.6,321.9,191.9,317.5,188.3,313z"/>
		<path d="M309.8,315.3c1.1-0.8,2.6-1.1,3.7-0.3c1.7,1,3.8,2.6,3,4.8c-2.9,10.1-5.9,20.3-8.8,30.4c-2.1-1.7-4-3.6-6.1-5.4
			c0.4-1.4,0.8-2.9,1.3-4.3c-1.7-1.5-3.7-2.7-5.5-4.2c1.5-1,2.9-2.1,4.4-3.1c0.8,0.6,1.7,1.3,2.5,1.9c1-3.2,1.9-6.5,2.9-9.7
			c-5.6,3.6-11.2,7.3-16.8,10.8c-2.3-1.3-4.6-2.6-6.9-3.9C292.3,326.7,301.1,321,309.8,315.3z"/>
		<path d="M238.5,333.3c23.4-3.7,48.8,4.9,64.2,23.2c-1.3,1.6-2.5,3.1-3.8,4.7c-11-13.5-28.1-21.6-45.4-22.7
			c-20.1-1.3-40.8,7-53.6,22.7c-1.2-1.6-2.5-3.1-3.8-4.7C206.7,343.9,222.2,335.8,238.5,333.3z"/>
		<g>
			<path d="M270.8,373c7.4-0.7,15.4,0.9,21.2,5.9c5.8,4.9,8.8,12.4,9.3,19.8c0.7,8.1-0.6,16.7-5.5,23.3c-3.9,5.5-10.3,8.9-17,9.8
				c-8,1.1-16.8-0.4-23-5.8c-5.8-4.9-8.7-12.6-9.2-20.1c-0.6-8.2,0.8-17.1,6.1-23.7C257.1,376.7,263.9,373.6,270.8,373z
				 M269.9,385.1c-4.1,1.1-7.4,4.4-8.9,8.4c-1.8,4.7-1.9,10-1,14.9c0.8,4.3,3.3,8.5,7.2,10.5c4.5,2.3,10.4,2.1,14.6-0.7
				c3-2,4.9-5.4,5.8-8.9c0.9-3.8,1-7.8,0.4-11.6c-0.6-3.8-2.3-7.7-5.3-10.2C279.3,384.6,274.3,383.9,269.9,385.1z"/>
		</g>
		<path d="M81.8,374.2c13.1,0,26.1,0,39.2,0c-2,3.5-4.1,7-6.1,10.6c-0.3,0.5-0.6,1.2-1.3,1.1c-6.3,0-12.5,0-18.8,0
			c0,3.5,0,7.1,0,10.6c7.3,0,14.7,0.1,22,0c-2.1,4-4.4,7.8-6.7,11.7c-5.1,0-10.2,0-15.3,0c0,3.7,0,7.4,0,11.1c9,0,17.9,0,26.9,0
			c-2.2,3.9-4.5,7.8-6.7,11.6c-11,0-22.1,0-33.1,0V374.2z"/>
		<path d="M131.4,374.2c4.3,0,8.6,0,13,0c0,11.4,0,22.8,0,34.2c0,3.4,0.9,7.1,3.4,9.5c2.5,2.4,6.2,3,9.5,2.5c2.5-0.3,5-1.5,6.6-3.6
			c2-2.5,2.5-5.8,2.5-8.9c0-11.2,0-22.5,0-33.7c4.3,0,8.6,0,13,0c0,11.5,0,23.1,0,34.6c0,3.8-0.6,7.7-2.3,11.2
			c-2.6,5.7-8,9.8-14.1,11.2c-7,1.7-14.7,1.2-21-2.3c-4.7-2.6-8.2-7.2-9.6-12.4c-0.9-3.1-1-6.4-1-9.7
			C131.4,396,131.4,385.1,131.4,374.2z"/>
		<path d="M192.3,374.2c7.5,0,15.1,0,22.6,0c5,0,10.2,1,14.4,4c3.5,2.4,5.9,6.3,6.8,10.4c0.8,4.1,0.8,8.6-1.1,12.5
			c-1.6,3.5-4.6,6-7.7,8.2c3.6,7.2,7.1,14.3,10.7,21.5c-4.9,0-9.7,0-14.5,0c-4.5-8.9-9.1-17.7-13.5-26.6c3.7-0.2,7.6-1.2,10.4-3.7
			c2.3-2.1,3.8-5.4,2.9-8.5c-0.9-3.4-4.2-5.7-7.6-6c-3.5-0.3-7.1-0.1-10.6-0.2c0,15,0,30,0,45c-4.3,0-8.6,0-12.9,0
			C192.3,411.9,192.3,393.1,192.3,374.2z"/>
		<path d="M314.5,374.2c7.5,0,15,0,22.5,0c4.9,0,10,0.9,14.1,3.7c3.6,2.4,6.1,6.1,7.1,10.3c1.5,6,0.7,12.9-3.3,17.9
			c-4.1,5.2-10.6,7.7-17,8.6c-1.9-3.5-3.8-6.9-5.8-10.4c3.7-0.2,7.6-1.2,10.5-3.7c2.3-2.1,3.8-5.4,2.9-8.5c-0.9-3.4-4.3-5.7-7.7-6
			c-3.5-0.3-7-0.1-10.5-0.1c0,15,0,30,0,45c-4.3,0-8.6,0-12.9,0C314.5,411.9,314.5,393.1,314.5,374.2z"/>
		<path d="M381.4,374.2c4.6-0.1,9.2,0,13.8-0.1c7.7,18.8,15.2,37.7,23,56.4v0.2c-4.9,0.1-9.8,0-14.7,0c-1-2.6-2.2-5.1-3.2-7.7
			c-3.8-0.1-7.5,0-11.3-0.1c-2.2-3.9-4.5-7.8-6.7-11.6c4.5,0,9,0,13.5,0c-2.6-6.8-4.9-13.7-7.6-20.4c-0.6,2.2-1.6,4.3-2.4,6.5
			c-4.3,11.1-8.5,22.2-12.8,33.3c-4.9,0-9.7,0-14.6,0C366.1,411.9,373.8,393.1,381.4,374.2z"/>
		<path d="M252.5,451.2c4.8-4.4,11.3-6.6,17.7-6.4c5.8,0,11.8,1.6,16.1,5.6c2.9,2.6,4.9,6.2,5.8,10c-3.6,0.9-7.2,2-10.9,2.9
			c-0.9-2.8-2.6-5.4-5.3-6.8c-5-2.5-11.6-1.7-15.6,2.2c-3.3,3.1-4.7,7.8-4.5,12.2c0,4.3,1.4,8.8,4.8,11.6c6.1,5,16.2,4.5,21.6-1.5
			c0-1.2,0-2.4,0-3.6c-3.4,0-6.8,0-10.2,0c-1.6-3-3.4-5.9-5.1-8.8c8.6,0,17.2,0,25.8,0c0,5.5,0.1,11.1-0.1,16.6
			c-3.8,4.9-9.2,8.7-15.3,10c-3.6,0.7-7.3,1.5-11,0.6c-6.2-0.8-12.2-3.8-16.2-8.7c-4.6-5.5-6.2-13.1-5.5-20.2
			C245.3,461,248,455.2,252.5,451.2z"/>
		<path d="M110.9,445.8c3.7,0,7.5,0,11.2,0c0,13,0,26,0,39c7.8,0,15.7,0,23.5,0c-1.9,3.4-3.9,6.7-5.8,10.1c-9.6,0-19.3,0-28.9,0
			C110.9,478.5,110.9,462.1,110.9,445.8z"/>
		<path d="M152.6,445.8c11.3-0.1,22.6,0,34,0c-1.9,3.4-3.9,6.7-5.8,10.1c-5.6,0-11.3,0-16.9,0c0,3.1,0,6.1,0,9.2
			c6.4,0,12.7,0,19.1,0c-2,3.4-3.9,6.8-5.9,10.1c-4.4-0.1-8.8,0-13.2,0c0,3.2,0,6.4,0,9.6c7.8,0,15.5,0,23.3,0
			c-1.9,3.4-3.9,6.7-5.8,10.1c-9.6,0-19.1,0-28.7,0C152.6,478.5,152.6,462.1,152.6,445.8z"/>
		<path d="M210.7,445.8c4-0.1,8,0,12-0.1c6.7,16.3,13.3,32.7,19.9,49.1c-4.2,0-8.5,0-12.7,0c-1-2.3-1.9-4.5-2.9-6.8
			c-3.2,0-6.4,0-9.7,0c-2-3.4-3.9-6.7-5.8-10.1c3.9,0,7.8,0,11.7,0c-2-5.4-4-10.8-6-16.3c-0.2-0.4-0.4-0.8-0.6-1.1
			c-4.4,11.4-8.7,22.9-13.1,34.3c-4.2,0-8.4,0-12.7,0C197.5,478.5,204.1,462.2,210.7,445.8z"/>
		<path d="M301.9,445.8c3.7,0,7.5,0,11.2,0c0,10,0,19.9,0,29.8c0,3.6,1.5,7.7,4.9,9.3c3.8,1.7,9,1.3,11.8-2.1c2-2.4,2.4-5.7,2.3-8.7
			c0-9.5,0-18.9,0-28.4c3.7,0,7.5,0,11.2,0c0,10.3,0,20.5,0,30.8c0,5.6-2.2,11.5-6.8,15c-3.8,3.2-8.9,4.2-13.7,4.7h-0.2
			c-3.3-0.3-6.6-0.8-9.6-2.1c-4.3-1.8-8-5.3-9.7-9.7c-1.5-3.6-1.6-7.5-1.6-11.4C301.9,464,301.8,454.9,301.9,445.8z"/>
		<path d="M353.1,445.8c11.3,0,22.6,0,33.9,0c-1.9,3.4-3.9,6.7-5.8,10.1c-5.6,0-11.3,0-16.9,0c0,3.1,0,6.1,0,9.2
			c6.4,0,12.7,0,19.1,0c-1.9,3.3-3.9,6.6-5.7,10c-4.5,0.1-8.9,0-13.4,0.1c0,3.2,0,6.4,0,9.6c7.8,0,15.5,0,23.3,0
			c-2,3.4-3.9,6.8-5.9,10.1c-9.6,0-19.1,0-28.7,0C353.1,478.5,353.1,462.1,353.1,445.8z"/>
		<path d="M394,445.8c2.4,0,4.8,0,7.2,0c0,0.4,0,1.1,0,1.4c-0.9,0-1.9,0-2.8,0c0,2.5,0,5.1,0,7.6c-0.5,0-1.1,0-1.6,0
			c0-2.5,0-5.1,0-7.6c-0.9,0-1.9,0-2.8,0C394,446.8,394,446.1,394,445.8z"/>
		<path d="M402.2,445.8c0.4,0,1.3,0,1.7,0c0.9,2.2,1.7,4.5,2.6,6.7c0.1,0,0.3,0,0.4,0c0.9-2.2,1.7-4.5,2.6-6.7c0.4,0,1.3,0,1.7,0
			c0,3,0,6.1,0,9.1c-0.4,0-1.2,0-1.6,0c0-1.7,0-3.3-0.1-5c-0.9,1.6-1.3,3.3-2,5c-0.5,0-1.1,0-1.6,0c-0.7-1.8-1.3-3.5-2.1-5.3
			c0,1.8,0,3.5,0,5.3c-0.4,0-1.2,0-1.6,0C402.2,451.8,402.2,448.8,402.2,445.8z"/>
	</g>
	<g>
		<path class="st2" d="M137.9,97.6c17.1-17.1,34.2-34.2,51.3-51.3c2.2,7.5,4.4,15,6.6,22.4c-12.4,12.5-24.9,25-37.4,37.4
			c0,25.3,0,50.6,0,75.8c14.4,14.4,28.9,28.8,43.3,43.3c-2.6,7.2-5.1,14.3-7.7,21.5c-18.7-18.7-37.5-37.5-56.2-56.2
			c0-28.5,0-57,0-85.5C137.8,102.6,137.6,100.1,137.9,97.6z"/>
		<path class="st2" d="M310.9,46.3c13.8,13.8,27.6,27.5,41.4,41.3c3.3,3.4,6.9,6.6,10,10.2c0.1,30.9,0,61.8,0,92.8
			c-18.7,18.7-37.5,37.5-56.2,56.2c-2.6-7.2-5.1-14.3-7.7-21.5c14.4-14.4,28.9-28.8,43.3-43.3c0-25.3,0-50.6,0-75.9
			c-12.5-12.4-24.9-24.9-37.4-37.3C306.5,61.3,308.7,53.8,310.9,46.3z"/>
	</g>
</g>
</svg>
