<?xml version="1.0" encoding="utf-8"?>
<!-- Generator: Adobe Illustrator 25.0.1, SVG Export Plug-In . SVG Version: 6.00 Build 0)  -->
<svg version="1.1" id="Layer_1" xmlns="http://www.w3.org/2000/svg" xmlns:xlink="http://www.w3.org/1999/xlink" x="0px" y="0px"
	 viewBox="0 0 500 500" style="enable-background:new 0 0 500 500;" xml:space="preserve">
<style type="text/css">
	.st0{display:none;fill:#FFFFFF;}
	.st1{display:none;fill:none;stroke:#FFFFFF;stroke-width:0.5621;stroke-miterlimit:10;}
	.st2{fill:#FFFFFF;}
	.st3{fill:#CC0935;}
	.st4{fill:#26358C;}
	.st5{fill-rule:evenodd;clip-rule:evenodd;fill:#AA1A27;stroke:#FFFFFF;stroke-width:12.8814;stroke-miterlimit:3.2;}
	.st6{fill-rule:evenodd;clip-rule:evenodd;fill:#AA1A27;}
	.st7{fill:#0E2D6D;}
	.st8{fill-rule:evenodd;clip-rule:evenodd;fill:#93ACD3;}
	.st9{fill-rule:evenodd;clip-rule:evenodd;fill:#EB9098;}
</style>
<g>
	<g>
		<path class="st0" d="M354.1,355.2c-2.2,0-3.9,1.8-3.9,3.9c0,2.2,1.8,3.9,3.9,3.9c2.2,0,3.9-1.8,3.9-3.9
			C358,357,356.2,355.2,354.1,355.2 M357.4,359.2c0,1.9-1.5,3.4-3.3,3.4c-1.9,0-3.4-1.5-3.4-3.4c0-1.8,1.5-3.3,3.4-3.3
			C355.9,355.8,357.4,357.3,357.4,359.2"/>
		<path class="st0" d="M354,360.8c-0.9,0-1.7-0.8-1.7-1.7c0-0.9,0.8-1.7,1.7-1.7c0.7,0,1.2,0.4,1.5,1h0.5c-0.3-0.8-1.1-1.4-2-1.4
			c-1.2,0-2.1,1-2.1,2.1c0,1.2,1,2.1,2.1,2.1c1,0,1.8-0.6,2-1.5h-0.5C355.3,360.4,354.7,360.8,354,360.8"/>
		<path class="st0" d="M364.7,361.5c-0.2,0.1-0.4,0.2-0.7,0.3c-0.3,0.1-0.5,0.1-0.8,0.1c-0.3,0-0.6,0-0.8-0.2
			c-0.3-0.1-0.5-0.3-0.7-0.5c-0.2-0.3-0.4-0.6-0.5-0.9c-0.1-0.3-0.1-0.7-0.1-1.1c0-0.4,0.1-0.7,0.2-1.1c0.1-0.3,0.3-0.6,0.5-0.9
			c0.2-0.2,0.4-0.4,0.7-0.6c0.3-0.1,0.6-0.2,0.9-0.2c0.2,0,0.5,0,0.7,0.1c0.2,0.1,0.4,0.2,0.6,0.3l-0.3,0.4
			c-0.2-0.1-0.3-0.2-0.5-0.2c-0.2-0.1-0.3-0.1-0.5-0.1c-0.3,0-0.6,0.1-0.8,0.2c-0.2,0.1-0.4,0.4-0.5,0.7c-0.1,0.2-0.1,0.4-0.2,0.6
			c0,0.2,0,0.5,0,0.8c0,0.2,0,0.5,0,0.6c0,0.2,0.1,0.3,0.1,0.5c0.1,0.3,0.3,0.6,0.6,0.7c0.3,0.2,0.5,0.2,0.8,0.2
			c0.2,0,0.4,0,0.5-0.1c0.2-0.1,0.3-0.1,0.5-0.3L364.7,361.5"/>
		<path class="st0" d="M368.6,359.4c0-0.4,0-0.7-0.1-1c0-0.3-0.1-0.5-0.2-0.7c-0.1-0.2-0.2-0.4-0.4-0.5c-0.2-0.1-0.4-0.2-0.7-0.2
			c-0.2,0-0.5,0-0.7,0.1c-0.2,0.1-0.3,0.3-0.4,0.5c-0.1,0.2-0.2,0.4-0.2,0.6c0,0.2-0.1,0.5-0.1,0.8c0,0.4,0,0.8,0.1,1.1
			c0.1,0.3,0.1,0.6,0.2,0.8c0.1,0.1,0.1,0.2,0.2,0.2c0.1,0.1,0.2,0.1,0.3,0.2c0.1,0.1,0.2,0.1,0.3,0.1c0.1,0,0.2,0,0.3,0
			c0.2,0,0.4,0,0.6-0.1c0.2-0.1,0.3-0.2,0.4-0.3c0.1-0.1,0.1-0.2,0.2-0.3c0-0.1,0.1-0.2,0.1-0.3c0-0.1,0.1-0.3,0.1-0.4
			C368.6,359.8,368.6,359.6,368.6,359.4 M369.3,359.3c0,0.5-0.1,0.9-0.2,1.3c-0.1,0.3-0.3,0.6-0.6,0.9c-0.2,0.2-0.4,0.3-0.6,0.4
			c-0.2,0.1-0.4,0.1-0.7,0.1c-0.3,0-0.6,0-0.9-0.2c-0.2-0.1-0.5-0.3-0.6-0.5c-0.4-0.5-0.6-1.2-0.6-2.1c0-0.4,0.1-0.8,0.2-1.1
			c0.1-0.3,0.2-0.6,0.4-0.8c0.2-0.2,0.4-0.4,0.7-0.5c0.3-0.1,0.5-0.2,0.9-0.2c0.2,0,0.4,0,0.6,0.1c0.2,0,0.3,0.1,0.5,0.2
			c0.1,0.1,0.3,0.2,0.3,0.3c0.1,0.1,0.2,0.2,0.2,0.3c0.2,0.2,0.3,0.5,0.4,0.8C369.3,358.5,369.3,358.9,369.3,359.3"/>
		<path class="st0" d="M373,358.2c0-0.4-0.1-0.7-0.3-0.8c-0.1-0.1-0.2-0.2-0.4-0.2c-0.2-0.1-0.4-0.1-0.6-0.1H371v2.1h0.9
			c0.2,0,0.4,0,0.5-0.1c0.1,0,0.2-0.1,0.3-0.2C372.9,358.7,373,358.5,373,358.2 M373.7,358.1c0,0.3,0,0.5-0.1,0.7
			c-0.1,0.2-0.2,0.4-0.4,0.5c-0.2,0.2-0.4,0.3-0.6,0.3c-0.2,0.1-0.4,0.1-0.7,0.1H371v2.1h-0.6v-5.2h1.5c0.3,0,0.5,0,0.7,0
			c0.2,0,0.3,0.1,0.5,0.2C373.5,357.1,373.7,357.5,373.7,358.1"/>
		<path class="st0" d="M376.1,359.8v2h-0.6v-2.1l-1.7-3.2h0.8l1,2c0,0.1,0.1,0.2,0.1,0.3c0,0.1,0.1,0.2,0.1,0.2c0,0.1,0,0.1,0,0.1
			c0.1-0.2,0.2-0.4,0.3-0.6l1-2h0.7L376.1,359.8"/>
		<path class="st0" d="M380.8,358c0-0.2,0-0.3-0.1-0.5c-0.1-0.2-0.2-0.3-0.4-0.3c-0.1,0-0.2-0.1-0.3-0.1c-0.1,0-0.2,0-0.4,0h-0.6v2
			h0.6c0.2,0,0.4,0,0.6-0.1c0.1,0,0.3-0.1,0.4-0.2c0.1-0.1,0.2-0.2,0.2-0.3C380.8,358.3,380.8,358.2,380.8,358 M381,361.8
			c0-0.1-0.1-0.2-0.2-0.3c-0.1-0.1-0.2-0.3-0.3-0.5c-0.1-0.2-0.2-0.4-0.4-0.6c-0.1-0.2-0.3-0.4-0.5-0.6c0-0.1-0.1-0.1-0.1-0.1
			c0,0-0.1-0.1-0.1-0.1c-0.1,0-0.1,0-0.1-0.1c-0.1,0-0.1,0-0.2,0v2.4h-0.6v-5.2h1.2c0.2,0,0.3,0,0.5,0c0.1,0,0.3,0,0.4,0.1
			c0.1,0,0.2,0.1,0.3,0.1c0.1,0,0.1,0.1,0.2,0.1c0.1,0,0.1,0.1,0.2,0.2c0.1,0.1,0.1,0.2,0.2,0.2c0,0.1,0.1,0.2,0.1,0.3
			c0,0.1,0,0.2,0,0.4c0,0.2,0,0.4-0.1,0.6c-0.1,0.2-0.2,0.3-0.3,0.5c-0.1,0.1-0.3,0.2-0.4,0.3c-0.2,0.1-0.4,0.1-0.6,0.1H380
			c0.1,0.1,0.2,0.2,0.3,0.3c0.1,0.1,0.2,0.2,0.2,0.3c0,0.1,0.1,0.2,0.2,0.3c0.1,0.1,0.2,0.3,0.3,0.5c0.1,0.2,0.2,0.3,0.3,0.5
			c0.1,0.2,0.2,0.3,0.2,0.4c0.1,0.1,0.1,0.1,0.1,0.2H381z"/>
		<line class="st1" x1="382.9" y1="361.8" x2="382.9" y2="356.6"/>
		<path class="st0" d="M388.1,361.5c-0.2,0.1-0.4,0.2-0.7,0.3c-0.3,0.1-0.5,0.1-0.8,0.1c-0.7,0-1.2-0.2-1.6-0.7
			c-0.2-0.2-0.4-0.5-0.5-0.9c-0.1-0.3-0.2-0.7-0.2-1.2c0-0.5,0.1-0.9,0.2-1.3c0.1-0.4,0.3-0.7,0.6-0.9c0.4-0.3,0.8-0.5,1.4-0.5
			c0.6,0,1,0.2,1.4,0.5l-0.3,0.4c-0.2-0.2-0.4-0.2-0.6-0.3c-0.2-0.1-0.4-0.1-0.6-0.1c-0.3,0-0.6,0.1-0.8,0.2
			c-0.2,0.1-0.4,0.4-0.5,0.7c-0.1,0.4-0.2,0.8-0.2,1.3c0,0.4,0,0.7,0.1,0.9c0.1,0.3,0.2,0.5,0.3,0.7c0.1,0.1,0.1,0.2,0.2,0.2
			c0.1,0.1,0.2,0.1,0.3,0.2c0.1,0.1,0.2,0.1,0.4,0.1c0.1,0,0.3,0,0.4,0c0.3,0,0.6-0.1,0.8-0.2v-1.6h-1l-0.1-0.5h1.8V361.5"/>
		<polygon class="st0" points="392.2,361.8 392.2,359.3 390,359.3 390,361.8 389.4,361.8 389.4,356.6 390,356.6 390,358.8 
			392.2,358.8 392.2,356.6 392.8,356.6 392.8,361.8 		"/>
		<polygon class="st0" points="397.1,357.1 395.7,357.1 395.7,361.8 395.1,361.8 395.1,357.1 393.7,357.1 393.7,356.6 397.1,356.6 
					"/>
		<path class="st0" d="M402.2,361.8h-2.9v-0.3c0.1-0.1,0.3-0.2,0.5-0.4c0.2-0.2,0.4-0.4,0.6-0.7c0.2-0.2,0.4-0.5,0.5-0.6
			c0.1-0.2,0.3-0.4,0.4-0.6c0.1-0.2,0.2-0.3,0.2-0.5c0-0.1,0.1-0.3,0.1-0.4c0-0.3-0.1-0.5-0.3-0.7c-0.2-0.2-0.4-0.3-0.7-0.3
			c-0.1,0-0.2,0-0.3,0c-0.1,0-0.2,0.1-0.3,0.1c-0.1,0-0.2,0.1-0.3,0.1c-0.1,0.1-0.2,0.1-0.3,0.2l-0.3-0.3c0.3-0.3,0.6-0.4,0.8-0.5
			c0.3-0.1,0.5-0.2,0.8-0.2c0.2,0,0.4,0,0.6,0.1c0.2,0.1,0.3,0.2,0.4,0.3c0.1,0.1,0.2,0.3,0.3,0.4c0.1,0.2,0.1,0.4,0.1,0.6
			c0,0.2-0.1,0.4-0.1,0.7c-0.1,0.2-0.2,0.5-0.4,0.7c-0.2,0.2-0.4,0.5-0.7,0.8c-0.1,0.1-0.2,0.2-0.4,0.4c-0.1,0.1-0.2,0.2-0.3,0.3
			c-0.1,0.1-0.2,0.2-0.3,0.2c-0.1,0.1-0.1,0.1-0.2,0.1h0.1c0.1,0,0.1,0,0.2,0c0.1,0,0.2,0,0.3,0h1.6L402.2,361.8"/>
		<path class="st0" d="M406.2,359.3c0-0.3,0-0.5,0-0.7c0-0.2-0.1-0.4-0.1-0.6c-0.1-0.3-0.2-0.5-0.4-0.6c-0.2-0.1-0.4-0.2-0.6-0.2
			c-0.1,0-0.3,0.1-0.4,0.2c-0.1,0.1-0.3,0.3-0.4,0.5c-0.2,0.3-0.3,0.8-0.3,1.4c0,0.3,0,0.5,0,0.8c0,0.2,0.1,0.4,0.1,0.6
			c0.1,0.3,0.2,0.5,0.4,0.6c0.2,0.2,0.3,0.2,0.5,0.2c0.2,0,0.3-0.1,0.5-0.2c0.2-0.1,0.3-0.3,0.4-0.5c0.1-0.2,0.1-0.4,0.2-0.6
			C406.2,359.9,406.2,359.6,406.2,359.3 M406.9,359.3c0,0.4-0.1,0.7-0.1,1.1c-0.1,0.3-0.2,0.6-0.4,0.8c-0.2,0.2-0.3,0.4-0.6,0.5
			c-0.2,0.1-0.5,0.2-0.7,0.2c-0.3,0-0.6-0.1-0.8-0.3c-0.2-0.2-0.4-0.4-0.5-0.7c-0.1-0.3-0.2-0.6-0.3-0.9c-0.1-0.3-0.1-0.6-0.1-0.9
			c0-0.3,0-0.7,0.1-1c0.1-0.3,0.2-0.6,0.4-0.8c0.2-0.2,0.3-0.4,0.6-0.5c0.2-0.1,0.4-0.2,0.7-0.2c0.2,0,0.4,0,0.6,0.1
			c0.2,0.1,0.3,0.2,0.5,0.3c0.1,0.1,0.2,0.3,0.3,0.4c0.1,0.2,0.2,0.4,0.2,0.5c0.1,0.2,0.1,0.4,0.1,0.6
			C406.8,359,406.9,359.1,406.9,359.3"/>
		<path class="st0" d="M411.1,359.3c0,0.4,0,0.7-0.1,1.1c-0.1,0.3-0.2,0.6-0.4,0.8c-0.2,0.2-0.3,0.4-0.6,0.5
			c-0.2,0.1-0.5,0.2-0.7,0.2c-0.3,0-0.6-0.1-0.8-0.3c-0.2-0.2-0.4-0.4-0.5-0.7c-0.1-0.3-0.2-0.6-0.3-0.9c-0.1-0.3-0.1-0.6-0.1-0.9
			c0-0.3,0-0.7,0.1-1c0.1-0.3,0.2-0.6,0.4-0.8c0.2-0.2,0.4-0.4,0.6-0.5c0.2-0.1,0.4-0.2,0.7-0.2c0.2,0,0.4,0,0.6,0.1
			c0.2,0.1,0.3,0.2,0.5,0.3c0.1,0.1,0.2,0.3,0.3,0.4c0.1,0.2,0.2,0.4,0.2,0.5c0.1,0.2,0.1,0.4,0.1,0.6
			C411.1,359,411.1,359.1,411.1,359.3"/>
	</g>
</g>
<g id="layer1_1_" transform="translate(-125.38582,-340.18808)">
	<g id="g4471">
		<path id="path10692" class="st2" d="M375.8,836.6c-95.1,0-172.6-78.6-172.6-175.1c0-1.2,0-247.9,0.1-290.8v-27h345v27
			c0,42.5,0.1,289.2,0.1,290.8C548.4,758.1,471,836.6,375.8,836.6"/>
		<path id="path10696" class="st3" d="M375.8,817.1c-84.4,0-153-69.8-153-155.6c0-3.1,0-257.5,0-298.3h306
			c0,40.7,0.1,295.2,0.1,298.3C528.8,747.3,460.2,817.1,375.8,817.1 M538.6,370.8l0-17.3H213.1v17.3c0,43.2,0,289.6,0,290.7
			c0,91.2,73,165.3,162.8,165.3s162.8-74.2,162.8-165.3C538.6,659.9,538.6,413,538.6,370.8"/>
		<path id="path10748" class="st3" d="M237.5,569.9c0,1.2,1,2.1,2.1,2.1h272.5c1.2,0,2.1-1,2.1-2.1c0-1.2-1-2.1-2.1-2.1H239.6
			C238.4,567.7,237.5,568.7,237.5,569.9"/>
		<path id="path10752" class="st4" d="M427.1,780.8v-11.1h-14.9v-37h-12v40.7c0,4.1,3.3,7.4,7.4,7.4H427.1L427.1,780.8z
			 M326.5,773.4c0,4.1,3.3,7.4,7.4,7.4h21.5v-11.1h-17v-7.5h15.6v-11.2h-15.6v-7.2h17.1v-11.2h-29V773.4L326.5,773.4z M371.1,780.8
			c-4.1,0-7.4-3.3-7.4-7.4v-40.7h29.2v11.2h-17.2v7.2h15.6v11.2h-15.6v18.6L371.1,780.8L371.1,780.8z"/>
		<path id="path10756" class="st3" d="M397,641.6c-5,0-9.1,4.1-9.1,9.1c0,5,4.1,9.1,9.1,9.1c5,0,9.1-4.1,9.1-9.1
			C406.1,645.6,402.1,641.6,397,641.6"/>
		<path id="path10760" class="st3" d="M386.6,625.8c-4.5,0-8.1,3.6-8.1,8.1s3.6,8.1,8.1,8.1c4.5,0,8.1-3.6,8.1-8.1
			C394.7,629.4,391.1,625.8,386.6,625.8"/>
		<path id="path10764" class="st3" d="M402.7,617.5c-4.4,0-7.9,3.6-7.9,7.9s3.5,7.9,7.9,7.9c4.4,0,7.9-3.6,7.9-7.9
			S407.1,617.5,402.7,617.5"/>
		<path id="path10768" class="st3" d="M375.7,614.5c-3.7,0-6.7,3-6.7,6.7s3,6.7,6.7,6.7c3.7,0,6.7-3,6.7-6.7
			S379.4,614.5,375.7,614.5"/>
		<path id="path10772" class="st3" d="M363.5,608.9c-3.1,0-5.6,2.5-5.6,5.6c0,3.1,2.5,5.5,5.6,5.5c3.1,0,5.6-2.5,5.6-5.5
			C369,611.4,366.5,608.9,363.5,608.9"/>
		<path id="path10776" class="st3" d="M352.1,607.5c-2.4,0-4.4,2-4.4,4.4c0,2.4,2,4.4,4.4,4.4s4.4-2,4.4-4.4
			C356.5,609.5,354.5,607.5,352.1,607.5"/>
		<path id="path10780" class="st3" d="M366,599.6c-2.3,0-4.2,1.9-4.2,4.2s1.9,4.2,4.2,4.2s4.2-1.9,4.2-4.2S368.4,599.6,366,599.6"/>
		<path id="path10784" class="st3" d="M376.6,591.5c-2.3,0-4.1,1.9-4.1,4.1c0,2.3,1.9,4.1,4.1,4.1c2.3,0,4.1-1.9,4.1-4.1
			C380.7,593.4,378.9,591.5,376.6,591.5"/>
		<path id="path10788" class="st3" d="M367.3,592.1c-1.8,0-3.3,1.5-3.3,3.3c0,1.8,1.5,3.3,3.3,3.3s3.3-1.5,3.3-3.3
			C370.6,593.6,369.1,592.1,367.3,592.1"/>
		<path id="path10792" class="st3" d="M359.4,593.8c-1.6,0-3,1.3-3,3c0,1.6,1.3,3,3,3c1.6,0,3-1.3,3-3
			C362.3,595.2,361,593.8,359.4,593.8"/>
		<path id="path10796" class="st3" d="M355.6,600.3c-1.8,0-3.2,1.4-3.2,3.2c0,1.8,1.4,3.2,3.2,3.2s3.2-1.4,3.2-3.2
			C358.8,601.7,357.4,600.3,355.6,600.3"/>
		<path id="path10800" class="st3" d="M345.4,601.2c-1.6,0-2.9,1.3-2.9,2.9c0,1.6,1.3,2.9,2.9,2.9c1.6,0,2.9-1.3,2.9-2.9
			C348.3,602.5,347,601.2,345.4,601.2"/>
		<path id="path10804" class="st3" d="M350.2,597.1c-1.2,0-2.2,1-2.2,2.2c0,1.2,1,2.2,2.2,2.2c1.2,0,2.2-1,2.2-2.2
			C352.4,598.1,351.4,597.1,350.2,597.1"/>
		<path id="path10808" class="st3" d="M338.3,604.2c-1.1,0-2,0.9-2,2c0,1.1,0.9,2,2,2c1.1,0,2-0.9,2-2
			C340.3,605.1,339.4,604.2,338.3,604.2"/>
		<path id="path10812" class="st3" d="M342.2,608.1c-1.9,0-3.5,1.6-3.5,3.5s1.6,3.5,3.5,3.5s3.5-1.6,3.5-3.5
			S344.1,608.1,342.2,608.1"/>
		<path id="path10816" class="st3" d="M333.5,609.2c-1.5,0-2.7,1.2-2.7,2.7c0,1.5,1.2,2.7,2.7,2.7c1.5,0,2.7-1.2,2.7-2.7
			C336.3,610.4,335,609.2,333.5,609.2"/>
		<path id="path10820" class="st3" d="M327.9,614.1c-1,0-1.8,0.8-1.8,1.8c0,1,0.8,1.8,1.8,1.8c1,0,1.8-0.8,1.8-1.8
			C329.7,614.9,328.9,614.1,327.9,614.1"/>
		<path id="path10824" class="st3" d="M389.8,607.6c-3.7,0-6.6,3-6.6,6.6c0,3.7,3,6.6,6.6,6.6c3.7,0,6.6-3,6.6-6.6
			C396.5,610.5,393.5,607.6,389.8,607.6"/>
		<path id="path10828" class="st3" d="M414.3,632c-4.6,0-8.4,3.7-8.4,8.4c0,4.6,3.7,8.3,8.4,8.3s8.4-3.7,8.4-8.3
			C422.7,635.8,419,632,414.3,632"/>
		<path id="path10832" class="st3" d="M423.4,617.4c-4,0-7.2,3.2-7.2,7.2c0,4,3.3,7.2,7.2,7.2c4,0,7.2-3.2,7.2-7.2
			C430.7,620.6,427.4,617.4,423.4,617.4"/>
		<path id="path10836" class="st3" d="M413.1,605.3c-3.7,0-6.7,3-6.7,6.7c0,3.7,3,6.7,6.7,6.7c3.7,0,6.7-3,6.7-6.7
			C419.8,608.3,416.8,605.3,413.1,605.3"/>
		<path id="path10840" class="st3" d="M400.4,597c-3.5,0-6.3,2.8-6.3,6.3c0,3.5,2.8,6.3,6.3,6.3c3.5,0,6.3-2.8,6.3-6.3
			C406.6,599.8,403.8,597,400.4,597"/>
		<path id="path10844" class="st3" d="M387.7,592.8c-2.9,0-5.2,2.3-5.2,5.2s2.3,5.2,5.2,5.2s5.2-2.3,5.2-5.2
			S390.6,592.8,387.7,592.8"/>
		<path id="path10848" class="st3" d="M377.2,601.7c-3,0-5.5,2.5-5.5,5.5c0,3,2.4,5.5,5.5,5.5s5.5-2.4,5.5-5.5
			C382.7,604.2,380.3,601.7,377.2,601.7"/>
		<path id="path10852" class="st4" d="M378.7,676.6c0,5-4.1,9.1-9.1,9.1c-5,0-9.1-4.1-9.1-9.1c0-5,4.1-9.1,9.1-9.1
			C374.6,667.5,378.7,671.6,378.7,676.6"/>
		<path id="path10856" class="st4" d="M389.3,667.8c-4.5,0-8.1,3.6-8.1,8.1c0,4.5,3.6,8.1,8.1,8.1c4.5,0,8.1-3.6,8.1-8.1
			S393.8,667.8,389.3,667.8"/>
		<path id="path10860" class="st4" d="M388.6,686.2c-4.4,0-7.9,3.6-7.9,7.9c0,4.4,3.5,7.9,7.9,7.9c4.4,0,7.9-3.5,7.9-7.9
			C396.5,689.8,393,686.2,388.6,686.2"/>
		<path id="path10864" class="st4" d="M405.8,666c-3.7,0-6.7,3-6.7,6.7s3,6.7,6.7,6.7s6.7-3,6.7-6.7S409.5,666,405.8,666"/>
		<path id="path10868" class="st4" d="M417.7,660.1c-3.1,0-5.6,2.5-5.6,5.6c0,3.1,2.5,5.5,5.6,5.5s5.6-2.5,5.6-5.5
			C423.3,662.5,420.8,660.1,417.7,660.1"/>
		<path id="path10872" class="st4" d="M425.6,652.7c-2.4,0-4.4,2-4.4,4.4c0,2.4,2,4.4,4.4,4.4c2.4,0,4.4-2,4.4-4.4
			C430,654.6,428,652.7,425.6,652.7"/>
		<path id="path10876" class="st4" d="M425.7,669c-2.3,0-4.2,1.9-4.2,4.2c0,2.3,1.9,4.2,4.2,4.2s4.2-1.9,4.2-4.2
			C429.9,670.9,428,669,425.7,669"/>
		<path id="path10880" class="st4" d="M427.4,682.2c-2.3,0-4.1,1.9-4.1,4.1s1.9,4.1,4.1,4.1s4.1-1.9,4.1-4.1
			S429.6,682.2,427.4,682.2"/>
		<path id="path10884" class="st4" d="M432.3,675.2c-1.8,0-3.3,1.5-3.3,3.3c0,1.8,1.5,3.3,3.3,3.3c1.8,0,3.3-1.5,3.3-3.3
			C435.5,676.7,434.1,675.2,432.3,675.2"/>
		<path id="path10888" class="st4" d="M435,667.9c-1.6,0-3,1.3-3,3c0,1.7,1.3,3,3,3c1.6,0,3-1.3,3-3
			C438,669.2,436.7,667.9,435,667.9"/>
		<path id="path10892" class="st4" d="M431.1,661.1c-1.8,0-3.2,1.4-3.2,3.2c0,1.8,1.4,3.2,3.2,3.2c1.8,0,3.2-1.4,3.2-3.2
			C434.3,662.5,432.9,661.1,431.1,661.1"/>
		<path id="path10896" class="st4" d="M435.7,652.2c-1.6,0-2.9,1.3-2.9,2.9c0,1.6,1.3,2.9,2.9,2.9c1.6,0,2.9-1.3,2.9-2.9
			C438.7,653.5,437.4,652.2,435.7,652.2"/>
		<path id="path10900" class="st4" d="M437.6,659.5c-1.2,0-2.2,1-2.2,2.2s1,2.2,2.2,2.2c1.2,0,2.2-1,2.2-2.2
			S438.8,659.5,437.6,659.5"/>
		<path id="path10904" class="st4" d="M437.4,645.9c-1.1,0-2,0.9-2,2c0,1.1,0.9,2,2,2c1.1,0,2-0.9,2-2
			C439.4,646.8,438.5,645.9,437.4,645.9"/>
		<path id="path10908" class="st4" d="M430.8,645.1c-1.9,0-3.5,1.6-3.5,3.5s1.6,3.5,3.5,3.5c1.9,0,3.5-1.6,3.5-3.5
			S432.8,645.1,430.8,645.1"/>
		<path id="path10912" class="st4" d="M434.9,638.2c-1.5,0-2.7,1.2-2.7,2.7c0,1.5,1.2,2.7,2.7,2.7c1.5,0,2.7-1.2,2.7-2.7
			C437.6,639.5,436.4,638.2,434.9,638.2"/>
		<path id="path10916" class="st4" d="M434.3,632.2c-1,0-1.8,0.8-1.8,1.8c0,1,0.8,1.8,1.8,1.8c1,0,1.8-0.8,1.8-1.8
			C436.1,633,435.3,632.2,434.3,632.2"/>
		<path id="path10920" class="st4" d="M404.7,682c-3.7,0-6.6,3-6.6,6.6c0,3.7,3,6.6,6.6,6.6s6.6-3,6.6-6.6S408.4,682,404.7,682"/>
		<path id="path10924" class="st4" d="M369.8,688.3c-4.6,0-8.4,3.7-8.4,8.4c0,4.6,3.7,8.3,8.4,8.3c4.6,0,8.4-3.7,8.4-8.3
			C378.2,692.1,374.4,688.3,369.8,688.3"/>
		<path id="path10928" class="st4" d="M378.9,705.2c-4,0-7.2,3.2-7.2,7.2c0,4,3.3,7.2,7.2,7.2c4,0,7.2-3.2,7.2-7.2
			C386.2,708.5,382.9,705.2,378.9,705.2"/>
		<path id="path10932" class="st4" d="M395,703c-3.7,0-6.7,3-6.7,6.7c0,3.7,3,6.7,6.7,6.7s6.7-3,6.7-6.7
			C401.8,706.1,398.7,703,395,703"/>
		<path id="path10936" class="st4" d="M408.9,696.9c-3.5,0-6.3,2.8-6.3,6.3c0,3.5,2.8,6.3,6.3,6.3s6.3-2.8,6.3-6.3
			C415.2,699.7,412.4,696.9,408.9,696.9"/>
		<path id="path10940" class="st4" d="M419.8,689.6c-2.9,0-5.2,2.3-5.2,5.2s2.3,5.3,5.2,5.3c2.9,0,5.2-2.4,5.2-5.3
			S422.7,689.6,419.8,689.6"/>
		<path id="path10944" class="st4" d="M417.1,675.7c-3,0-5.5,2.5-5.5,5.5c0,3,2.4,5.5,5.5,5.5s5.5-2.4,5.5-5.5
			C422.6,678.1,420.1,675.7,417.1,675.7"/>
		<path id="path10948" class="st4" d="M333.1,673.2c-3,0-5.5,2.5-5.5,5.5c0,3,2.5,5.5,5.5,5.5c3,0,5.5-2.4,5.5-5.5
			C338.6,675.7,336.2,673.2,333.1,673.2 M319.9,668.9c-2.9,0-5.2,2.3-5.2,5.2s2.3,5.2,5.2,5.2c2.9,0,5.3-2.3,5.3-5.2
			S322.8,668.9,319.9,668.9 M318.2,654.3c-3.5,0-6.3,2.8-6.3,6.3s2.8,6.3,6.3,6.3c3.5,0,6.3-2.8,6.3-6.3
			C324.4,657.1,321.6,654.3,318.2,654.3 M319.4,638.5c-3.7,0-6.7,3-6.7,6.7s3,6.7,6.7,6.7c3.7,0,6.7-3,6.7-6.7
			S323.1,638.5,319.4,638.5 M325.1,622.7c-4,0-7.2,3.2-7.2,7.2c0,4,3.2,7.2,7.2,7.2c4,0,7.2-3.2,7.2-7.2
			C332.4,626,329.1,622.7,325.1,622.7 M343.3,621.6c-4.6,0-8.4,3.7-8.4,8.4c0,4.6,3.7,8.3,8.4,8.3c4.6,0,8.3-3.7,8.3-8.3
			C351.7,625.4,347.9,621.6,343.3,621.6 M332.9,657.7c-3.7,0-6.6,3-6.6,6.6c0,3.7,3,6.6,6.6,6.6c3.7,0,6.6-3,6.6-6.6
			C339.5,660.6,336.5,657.7,332.9,657.7 M365.3,715.3c-1,0-1.8,0.8-1.8,1.8c0,1,0.8,1.8,1.8,1.8c1,0,1.8-0.8,1.8-1.8
			C367.2,716.1,366.3,715.3,365.3,715.3 M359,711.5c-1.5,0-2.7,1.2-2.7,2.7c0,1.5,1.2,2.7,2.7,2.7c1.5,0,2.7-1.2,2.7-2.7
			C361.8,712.7,360.6,711.5,359,711.5 M354.5,703.4c-1.9,0-3.5,1.6-3.5,3.5s1.6,3.5,3.5,3.5s3.5-1.6,3.5-3.5
			S356.4,703.4,354.5,703.4 M351.7,710.9c-1.1,0-2,0.9-2,2c0,1.1,0.9,2,2,2c1.1,0,2-0.9,2-2C353.8,711.8,352.9,710.9,351.7,710.9
			 M339.8,703.9c-1.2,0-2.2,1-2.2,2.2c0,1.2,1,2.2,2.2,2.2c1.2,0,2.2-1,2.2-2.2C342,704.9,341,703.9,339.8,703.9 M346.3,705
			c-1.6,0-2.9,1.3-2.9,2.9c0,1.6,1.3,2.9,2.9,2.9c1.6,0,2.9-1.3,2.9-2.9C349.3,706.3,348,705,346.3,705 M340.7,696.1
			c-1.8,0-3.2,1.4-3.2,3.2c0,1.8,1.4,3.2,3.2,3.2c1.8,0,3.2-1.4,3.2-3.2C343.9,697.5,342.5,696.1,340.7,696.1 M333.1,696.4
			c-1.6,0-3,1.3-3,3c0,1.6,1.3,3,3,3c1.7,0,3-1.3,3-3C336,697.8,334.7,696.4,333.1,696.4 M327.8,689.9c-1.8,0-3.3,1.5-3.3,3.3
			c0,1.8,1.5,3.3,3.3,3.3c1.8,0,3.3-1.5,3.3-3.3C331.1,691.4,329.7,689.9,327.8,689.9 M323.5,680.9c-2.3,0-4.1,1.9-4.1,4.1
			c0,2.3,1.9,4.1,4.1,4.1c2.3,0,4.1-1.9,4.1-4.1C327.6,682.7,325.8,680.9,323.5,680.9 M335.7,685.9c-2.3,0-4.2,1.9-4.2,4.2
			s1.9,4.2,4.2,4.2s4.2-1.9,4.2-4.2C339.9,687.8,338.1,685.9,335.7,685.9 M349.7,693.7c-2.4,0-4.4,2-4.4,4.4c0,2.4,2,4.4,4.4,4.4
			c2.4,0,4.4-2,4.4-4.4C354.1,695.7,352.2,693.7,349.7,693.7 M346.3,681.5c-3.1,0-5.6,2.5-5.6,5.6s2.5,5.6,5.6,5.6
			c3.1,0,5.6-2.5,5.6-5.6S349.4,681.5,346.3,681.5 M346.1,666.3c-3.7,0-6.7,3-6.7,6.7s3,6.7,6.7,6.7s6.7-3,6.7-6.7
			S349.8,666.3,346.1,666.3 M336.1,639.6c-4.4,0-7.9,3.5-7.9,7.9c0,4.4,3.6,7.9,7.9,7.9c4.4,0,7.9-3.6,7.9-7.9
			C344.1,643.1,340.5,639.6,336.1,639.6 M351.6,649.1c-4.5,0-8.1,3.6-8.1,8.1c0,4.5,3.6,8.1,8.1,8.1c4.5,0,8.1-3.6,8.1-8.1
			C359.7,652.8,356.1,649.1,351.6,649.1 M360.9,630.7c-5,0-9.1,4.1-9.1,9.1c0,5,4.1,9.1,9.1,9.1c5,0,9.1-4.1,9.1-9.1
			C370,634.8,365.9,630.7,360.9,630.7"/>
		<path id="path24168" class="st5" d="M564.3,503.1c4.7,0,8.5-3.8,8.5-8.8v-78.4c0-5-3.8-8.8-8.5-8.8H352.6H186.8
			c-5,0-8.8,3.8-8.8,8.8v78.4c0,5,3.8,8.8,8.8,8.8h165.9H564.3z"/>
		<path id="path24192" class="st6" d="M352.6,503.1h211.7c4.7,0,8.5-3.8,8.5-8.8v-78.4c0-5-3.8-8.8-8.5-8.8H352.6"/>
		<path id="path24194" class="st7" d="M352.6,407.1H186.8c-5,0-8.8,3.8-8.8,8.8v78.4c0,5,3.8,8.8,8.8,8.8h165.9"/>
		<path id="path24196" class="st8" d="M352.6,409.1H185c0,0,3.5,19.7,26.7,36.4c0,0,11.7,8.8,19.4,8.8h121.5V409.1L352.6,409.1z"/>
		<path id="path24198" class="st9" d="M352.6,409.1h213.4c0,0-3.8,19.7-26.7,36.4c0,0-11.7,8.8-19.7,8.8h-167V409.1L352.6,409.1z"/>
		<path id="path24200" class="st2" d="M293.3,496.3c1.2,0.3,3.5,1.2,6.5,1.2c5,0.3,7.6-1.8,9.7-6.2l26.7-59.9
			c-1.2-0.6-3.5-1.2-5.6-1.2c-3.5,0-7.9,0.6-11.2,7.6l-8.5,20.6l-17-27.6c-1.2-0.6-3.8-0.9-5.6-0.9c-6.2,0-9.4,2.3-12.9,5.9
			L258.7,454l13.2,20.8c2.6,3.8,5.9,5.9,11.2,5.9c3.2,0,6.2-0.9,7.3-1.5l-15.6-24.1l11.4-12l18.5,29.4L293.3,496.3L293.3,496.3z
			 M258.1,473.4c0,4.4-1.5,7-10.3,7c-1.2,0-2.1,0-2.9,0v-58.7c0-4.4,1.5-8.8,10-8.8c1.2,0,2.3,0,3.2,0.3V473.4L258.1,473.4z
			 M240.5,464.9c0,8.2-5.3,14.1-16.1,15.3c-7.9,0.9-19.4-0.3-24.7-0.9c-0.3-0.9-0.6-2.1-0.6-2.9c0-7,4.1-8.8,7.6-8.8
			c3.8,0,9.7,0.9,14.4,0.9c4.7,0,6.2-1.8,6.2-3.5c0-1.8-2.1-2.9-5.9-3.5l-10.3-2.1c-8.5-1.8-13.2-7.6-13.2-14.1
			c0-7.6,5.3-14.1,16.1-15.3c7.9-0.9,17.9,0.3,23.2,0.9c0.3,0.9,0.6,1.8,0.6,2.6c0,7.3-3.8,8.8-7.3,8.8c-2.9,0-7.3-0.6-12.3-0.6
			c-5,0-7,1.5-7,2.9c0,2.1,2.1,2.6,5,3.2l10,1.8C236.4,452,240.5,457.6,240.5,464.9L240.5,464.9z"/>
		<path id="path24202" class="st2" d="M400.8,487.8h-17.6c-2.1,0-3.5,0-5-0.6c-1.2-0.3-2.1-0.9-2.6-1.5c-0.6-0.6-1.2-1.5-1.5-2.3
			c0-0.9-0.3-2.1-0.3-2.9v-49.3c0-1.2,0.3-2.1,0.3-3.2c0.3-0.9,0.9-1.5,1.5-2.3c0.6-0.6,1.5-1.2,2.6-1.5c1.5-0.3,2.9-0.6,5-0.6h17
			c5,0,9.4,0.3,12.6,1.5c3.2,0.9,6.5,1.8,8.2,3.2c2.1,1.5,3.8,3.5,4.7,5.3c0.9,2.1,1.5,4.1,1.5,6.5c0,3.2-0.9,5.9-2.9,8.2
			c-2.1,2.3-4.7,4.4-8.2,5.3l-1.5,0.6l1.8,0.6c5,1.5,8.5,3.5,10.6,5.9c2.1,2.6,3.2,5.6,3.2,8.5c0,6.2-2.6,10.6-7.3,13.8
			C417.8,486.3,410.5,487.8,400.8,487.8 M389.6,476.3h0.6h8.8c4.7,0,7.6-0.6,10-1.8c2.3-1.2,3.2-3.2,3.2-6.5c0-0.9,0-1.8-0.6-2.6
			c-0.3-0.9-0.9-1.8-1.8-2.6c-0.9-0.6-2.1-1.2-3.8-1.5c-1.8-0.3-3.8-0.9-6.5-0.9h-9.4h-0.6v0.6v14.7L389.6,476.3L389.6,476.3z
			 M389.6,450.5h0.6h8.8c2.3,0,4.1-0.3,5.6-0.6c1.5-0.3,2.6-0.9,3.5-1.8c0.9-0.6,1.5-1.5,1.8-2.3c0.3-0.9,0.6-1.8,0.6-2.6
			c0-2.6-0.9-4.4-2.6-5.6c-2.1-1.2-5-1.8-9.1-1.8h-8.5h-0.6v0.6v13.8L389.6,450.5L389.6,450.5z"/>
		<path id="path24204" class="st2" d="M453.9,474.3v-11.7h22.6c5.3,0,8.2-2.1,8.2-9.1c0-1.5-0.3-3.2-0.6-4.1h-30.2v-12.6h23.2
			c5.3,0,8.5-1.8,8.5-8.8c0-1.5-0.3-3.2-0.6-4.1h-34.9c-10,0-11.7,5-11.7,10.3v53.1v0.3h40.2c5.3,0,8.2-1.8,8.2-8.8
			c0-1.8-0.3-3.2-0.6-4.4L453.9,474.3L453.9,474.3z"/>
		<path id="path24206" class="st2" d="M529.7,436.7h12.6c4.1,0,8.2-1.8,8.2-10c0-0.9,0-2.1-0.3-3.2h-48.7c-4.1,0-8.5,1.8-8.5,10.3
			c0,0.9,0.3,2.1,0.6,2.9h20.5v51.1c1.2,0,2.6,0.3,3.8,0.3c9.7,0,11.7-2.9,11.7-7.6L529.7,436.7L529.7,436.7z"/>
		<g id="g4446" transform="matrix(1.1252144,0,0,1.1252144,655.62506,-105.25536)">
			<path id="path2618" class="st3" d="M-331.5,583.6l-0.5,2.6c-0.2,0.6-0.5,0.8-1,0.8h-9c-2.6,0-4-1.3-4-4.2v-21
				c0-0.6,0.3-0.7,1-0.7h3.2c0.8,0,1,0.1,1,0.7v21h8.6C-331.6,582.8-331.3,583-331.5,583.6"/>
			<path id="path2622" class="st3" d="M-314.3,583.4l-0.4,3.1c0,0.4-0.2,0.6-0.6,0.6h-9.8c-2.6,0-4-1.3-4-4.2v-21
				c0-0.5,0.2-0.7,0.7-0.7h13.5c0.4,0,0.6,0.2,0.6,0.6l-0.3,3.1c0,0.4-0.2,0.6-0.6,0.6h-8.6v6.5h7.9c0.5,0,0.6,0.2,0.6,0.6l-0.4,3.1
				c0,0.4-0.2,0.5-0.7,0.5h-7.5v6.8h9.1C-314.4,582.8-314.2,583-314.3,583.4"/>
			<path id="path2626" class="st3" d="M-298.7,577.8c-0.7-3.9-1.9-8.6-3-12.5h-0.2c-1,4-2.2,8.7-2.9,12.5H-298.7L-298.7,577.8z
				 M-312.2,586.4c2.3-8.8,4.6-17.5,6.8-24.3c0.2-0.7,0.6-1,1.4-1h4.3c0.9,0,1.3,0.3,1.5,1c2.2,6.9,4.5,15.5,6.8,24.3
				c0.1,0.4-0.1,0.6-0.6,0.6h-3.9c-0.5,0-0.9-0.2-0.9-0.6l-1-4.5h-7.9c-0.4,1.5-0.7,3-1,4.6c-0.1,0.3-0.4,0.5-0.8,0.5h-4.1
				C-312.1,587-312.3,586.8-312.2,586.4"/>
			<path id="path2630" class="st3" d="M-276.8,576.8c-2.2,0-3.4-1.3-3.4-3.4v-0.2c0-0.4,0.2-0.6,0.6-0.6h7.7c0.4,0,0.6,0.2,0.6,0.6
				v11.2c0,0.9-0.2,1.4-0.9,1.7c-1.8,0.8-4.9,1.3-7.7,1.3c-6.7,0-9.7-2.7-9.7-8.7v-8.9c0-6.4,3.6-9.1,10.3-9.1
				c2.3,0,4.7,0.3,6.3,0.7c0.5,0.1,0.6,0.3,0.6,0.9v2.9c0,0.5-0.3,0.6-0.8,0.4c-1.5-0.4-3.7-0.7-5.7-0.7c-3.3,0-5.6,1.1-5.6,5.2v7.8
				c0,2,0.3,3.1,1,3.9c0.6,0.7,1.8,1.1,3.6,1.1c1.3,0,2.9-0.2,3.6-0.4v-5.8L-276.8,576.8L-276.8,576.8z"/>
			<path id="path2634" class="st3" d="M-264.8,585.3c-1.6-1.4-2.3-3.7-2.3-6.8v-16.9c0-0.3,0.2-0.6,0.6-0.6h4c0.4,0,0.6,0.2,0.6,0.6
				v16.4c0,1.6,0.2,2.9,0.9,3.8c0.6,0.8,1.6,1.2,3.1,1.2c1.5,0,2.5-0.4,3.1-1.2c0.7-0.9,0.8-2.2,0.8-3.8v-16.4
				c0-0.4,0.2-0.6,0.6-0.6h4c0.4,0,0.6,0.2,0.6,0.6v16.9c0,3.2-0.8,5.5-2.5,6.9c-1.5,1.3-3.7,1.9-6.6,1.9
				C-261,587.4-263.3,586.7-264.8,585.3"/>
			<path id="path2638" class="st3" d="M-229.4,583.4l-0.4,3.1c0,0.4-0.2,0.6-0.6,0.6h-9.8c-2.6,0-4-1.3-4-4.2v-21
				c0-0.5,0.2-0.7,0.7-0.7h13.5c0.4,0,0.6,0.2,0.6,0.6l-0.3,3.1c0,0.4-0.2,0.6-0.6,0.6h-8.6v6.5h7.9c0.5,0,0.6,0.2,0.6,0.6l-0.4,3.1
				c0,0.4-0.2,0.5-0.7,0.5h-7.5v6.8h9.1C-229.6,582.8-229.4,583-229.4,583.4"/>
			<path id="path2642" class="st3" d="M-202.3,561.7l-0.5,3.1c-0.1,0.4-0.2,0.6-0.7,0.6h-5.1v21.1c0,0.4-0.2,0.6-0.6,0.6h-0.6
				c-2.6,0-4-1.3-4-4.2v-17.5h-5.7c-0.3,0-0.6-0.2-0.6-0.6v-3.1c0-0.4,0.2-0.6,0.6-0.6h16.5C-202.4,561.1-202.2,561.2-202.3,561.7"
				/>
			<path id="path2646" class="st3" d="M-183.2,583.2l-2.8-15.9h-0.2l-3.2,18.8c-0.1,0.7-0.7,0.9-1.4,0.9h-2.8
				c-2.3,0-3.4-1.2-3.9-3.9c-0.6-3.3-2.6-13.8-3.5-21.3c-0.1-0.6,0.1-0.8,0.7-0.8h3.4c0.8,0,1,0.2,1,0.7c0.6,7,1.8,15.2,2.7,20.9
				h0.2l3.3-19.5c0.1-0.7,0.5-0.9,1.2-0.9h4.6c0.7,0,1.1,0.2,1.2,0.9l3.4,19.5h0.2c1-5.9,2.1-13.8,2.6-20.9c0-0.5,0.3-0.7,1.1-0.7
				h3.4c0.8,0,0.8,0.3,0.8,0.9c-0.9,7.4-2.5,17.9-4.1,24.1c-0.2,0.7-0.7,1-1.5,1h-2.6C-181.6,587-182.7,585.8-183.2,583.2"/>
			<path id="path2650" class="st3" d="M-156.4,582.1c0.8-0.8,1.2-2.2,1.2-3.9v-8.3c0-1.9-0.5-3.1-1.3-3.9c-0.7-0.7-1.8-1-3.1-1
				c-1.3,0-2.4,0.3-3.1,1c-0.8,0.8-1.2,2-1.2,3.9v8.3c0,1.7,0.4,3.1,1.2,3.9c0.7,0.7,1.8,1,3.1,1
				C-158.2,583.1-157.1,582.7-156.4,582.1 M-166.5,585.2c-1.6-1.4-2.5-3.6-2.5-6.5v-9.4c0-3.3,1.2-5.6,3.4-7.1
				c1.6-1.1,3.7-1.6,6.2-1.6c2.6,0,4.8,0.6,6.4,1.8c2,1.4,3.1,3.7,3.1,6.9v9.4c0,3.2-1.1,5.5-3.1,6.9c-1.6,1.2-3.8,1.8-6.5,1.8
				C-162.5,587.4-164.9,586.6-166.5,585.2"/>
		</g>
	</g>
</g>
</svg>
