<?xml version="1.0" encoding="utf-8"?>
<!-- Generator: Adobe Illustrator 25.0.1, SVG Export Plug-In . SVG Version: 6.00 Build 0)  -->
<svg version="1.1" id="Layer_1" xmlns="http://www.w3.org/2000/svg" xmlns:xlink="http://www.w3.org/1999/xlink" x="0px" y="0px"
	 viewBox="0 0 500 500" style="enable-background:new 0 0 500 500;" xml:space="preserve">
<style type="text/css">
	.st0{display:none;fill:#FFFFFF;}
	.st1{display:none;fill:none;stroke:#FFFFFF;stroke-width:0.5621;stroke-miterlimit:10;}
	.st2{fill:url(#SVGID_1_);}
	.st3{fill:url(#SVGID_2_);}
	.st4{fill:#FEFDFD;}
	.st5{fill:#193362;}
</style>
<g>
	<g>
		<path class="st0" d="M354.1,355.2c-2.2,0-3.9,1.8-3.9,3.9c0,2.2,1.8,3.9,3.9,3.9c2.2,0,3.9-1.8,3.9-3.9
			C358,357,356.2,355.2,354.1,355.2 M357.4,359.2c0,1.9-1.5,3.4-3.3,3.4c-1.9,0-3.4-1.5-3.4-3.4c0-1.8,1.5-3.3,3.4-3.3
			C355.9,355.8,357.4,357.3,357.4,359.2"/>
		<path class="st0" d="M354,360.8c-0.9,0-1.7-0.8-1.7-1.7c0-0.9,0.8-1.7,1.7-1.7c0.7,0,1.2,0.4,1.5,1h0.5c-0.3-0.8-1.1-1.4-2-1.4
			c-1.2,0-2.1,1-2.1,2.1c0,1.2,1,2.1,2.1,2.1c1,0,1.8-0.6,2-1.5h-0.5C355.3,360.4,354.7,360.8,354,360.8"/>
		<path class="st0" d="M364.7,361.5c-0.2,0.1-0.4,0.2-0.7,0.3c-0.3,0.1-0.5,0.1-0.8,0.1c-0.3,0-0.6,0-0.8-0.2
			c-0.3-0.1-0.5-0.3-0.7-0.5c-0.2-0.3-0.4-0.6-0.5-0.9c-0.1-0.3-0.1-0.7-0.1-1.1c0-0.4,0.1-0.7,0.2-1.1c0.1-0.3,0.3-0.6,0.5-0.9
			c0.2-0.2,0.4-0.4,0.7-0.6c0.3-0.1,0.6-0.2,0.9-0.2c0.2,0,0.5,0,0.7,0.1c0.2,0.1,0.4,0.2,0.6,0.3l-0.3,0.4
			c-0.2-0.1-0.3-0.2-0.5-0.2c-0.2-0.1-0.3-0.1-0.5-0.1c-0.3,0-0.6,0.1-0.8,0.2c-0.2,0.1-0.4,0.4-0.5,0.7c-0.1,0.2-0.1,0.4-0.2,0.6
			c0,0.2,0,0.5,0,0.8c0,0.2,0,0.5,0,0.6c0,0.2,0.1,0.3,0.1,0.5c0.1,0.3,0.3,0.6,0.6,0.7c0.3,0.2,0.5,0.2,0.8,0.2
			c0.2,0,0.4,0,0.5-0.1c0.2-0.1,0.3-0.1,0.5-0.3L364.7,361.5"/>
		<path class="st0" d="M368.6,359.4c0-0.4,0-0.7-0.1-1c0-0.3-0.1-0.5-0.2-0.7c-0.1-0.2-0.2-0.4-0.4-0.5c-0.2-0.1-0.4-0.2-0.7-0.2
			c-0.2,0-0.5,0-0.7,0.1c-0.2,0.1-0.3,0.3-0.4,0.5c-0.1,0.2-0.2,0.4-0.2,0.6c0,0.2-0.1,0.5-0.1,0.8c0,0.4,0,0.8,0.1,1.1
			c0.1,0.3,0.1,0.6,0.2,0.8c0.1,0.1,0.1,0.2,0.2,0.2c0.1,0.1,0.2,0.1,0.3,0.2c0.1,0.1,0.2,0.1,0.3,0.1c0.1,0,0.2,0,0.3,0
			c0.2,0,0.4,0,0.6-0.1c0.2-0.1,0.3-0.2,0.4-0.3c0.1-0.1,0.1-0.2,0.2-0.3c0-0.1,0.1-0.2,0.1-0.3c0-0.1,0.1-0.3,0.1-0.4
			C368.6,359.8,368.6,359.6,368.6,359.4 M369.3,359.3c0,0.5-0.1,0.9-0.2,1.3c-0.1,0.3-0.3,0.6-0.6,0.9c-0.2,0.2-0.4,0.3-0.6,0.4
			c-0.2,0.1-0.4,0.1-0.7,0.1c-0.3,0-0.6,0-0.9-0.2c-0.2-0.1-0.5-0.3-0.6-0.5c-0.4-0.5-0.6-1.2-0.6-2.1c0-0.4,0.1-0.8,0.2-1.1
			c0.1-0.3,0.2-0.6,0.4-0.8c0.2-0.2,0.4-0.4,0.7-0.5c0.3-0.1,0.5-0.2,0.9-0.2c0.2,0,0.4,0,0.6,0.1c0.2,0,0.3,0.1,0.5,0.2
			c0.1,0.1,0.3,0.2,0.3,0.3c0.1,0.1,0.2,0.2,0.2,0.3c0.2,0.2,0.3,0.5,0.4,0.8C369.3,358.5,369.3,358.9,369.3,359.3"/>
		<path class="st0" d="M373,358.2c0-0.4-0.1-0.7-0.3-0.8c-0.1-0.1-0.2-0.2-0.4-0.2c-0.2-0.1-0.4-0.1-0.6-0.1H371v2.1h0.9
			c0.2,0,0.4,0,0.5-0.1c0.1,0,0.2-0.1,0.3-0.2C372.9,358.7,373,358.5,373,358.2 M373.7,358.1c0,0.3,0,0.5-0.1,0.7
			c-0.1,0.2-0.2,0.4-0.4,0.5c-0.2,0.2-0.4,0.3-0.6,0.3c-0.2,0.1-0.4,0.1-0.7,0.1H371v2.1h-0.6v-5.2h1.5c0.3,0,0.5,0,0.7,0
			c0.2,0,0.3,0.1,0.5,0.2C373.5,357.1,373.7,357.5,373.7,358.1"/>
		<path class="st0" d="M376.1,359.8v2h-0.6v-2.1l-1.7-3.2h0.8l1,2c0,0.1,0.1,0.2,0.1,0.3c0,0.1,0.1,0.2,0.1,0.2c0,0.1,0,0.1,0,0.1
			c0.1-0.2,0.2-0.4,0.3-0.6l1-2h0.7L376.1,359.8"/>
		<path class="st0" d="M380.8,358c0-0.2,0-0.3-0.1-0.5c-0.1-0.2-0.2-0.3-0.4-0.3c-0.1,0-0.2-0.1-0.3-0.1c-0.1,0-0.2,0-0.4,0h-0.6v2
			h0.6c0.2,0,0.4,0,0.6-0.1c0.1,0,0.3-0.1,0.4-0.2c0.1-0.1,0.2-0.2,0.2-0.3C380.8,358.3,380.8,358.2,380.8,358 M381,361.8
			c0-0.1-0.1-0.2-0.2-0.3c-0.1-0.1-0.2-0.3-0.3-0.5c-0.1-0.2-0.2-0.4-0.4-0.6c-0.1-0.2-0.3-0.4-0.5-0.6c0-0.1-0.1-0.1-0.1-0.1
			c0,0-0.1-0.1-0.1-0.1c-0.1,0-0.1,0-0.1-0.1c-0.1,0-0.1,0-0.2,0v2.4h-0.6v-5.2h1.2c0.2,0,0.3,0,0.5,0c0.1,0,0.3,0,0.4,0.1
			c0.1,0,0.2,0.1,0.3,0.1c0.1,0,0.1,0.1,0.2,0.1c0.1,0,0.1,0.1,0.2,0.2c0.1,0.1,0.1,0.2,0.2,0.2c0,0.1,0.1,0.2,0.1,0.3
			c0,0.1,0,0.2,0,0.4c0,0.2,0,0.4-0.1,0.6c-0.1,0.2-0.2,0.3-0.3,0.5c-0.1,0.1-0.3,0.2-0.4,0.3c-0.2,0.1-0.4,0.1-0.6,0.1H380
			c0.1,0.1,0.2,0.2,0.3,0.3c0.1,0.1,0.2,0.2,0.2,0.3c0,0.1,0.1,0.2,0.2,0.3c0.1,0.1,0.2,0.3,0.3,0.5c0.1,0.2,0.2,0.3,0.3,0.5
			c0.1,0.2,0.2,0.3,0.2,0.4c0.1,0.1,0.1,0.1,0.1,0.2H381z"/>
		<line class="st1" x1="382.9" y1="361.8" x2="382.9" y2="356.6"/>
		<path class="st0" d="M388.1,361.5c-0.2,0.1-0.4,0.2-0.7,0.3c-0.3,0.1-0.5,0.1-0.8,0.1c-0.7,0-1.2-0.2-1.6-0.7
			c-0.2-0.2-0.4-0.5-0.5-0.9c-0.1-0.3-0.2-0.7-0.2-1.2c0-0.5,0.1-0.9,0.2-1.3c0.1-0.4,0.3-0.7,0.6-0.9c0.4-0.3,0.8-0.5,1.4-0.5
			c0.6,0,1,0.2,1.4,0.5l-0.3,0.4c-0.2-0.2-0.4-0.2-0.6-0.3c-0.2-0.1-0.4-0.1-0.6-0.1c-0.3,0-0.6,0.1-0.8,0.2
			c-0.2,0.1-0.4,0.4-0.5,0.7c-0.1,0.4-0.2,0.8-0.2,1.3c0,0.4,0,0.7,0.1,0.9c0.1,0.3,0.2,0.5,0.3,0.7c0.1,0.1,0.1,0.2,0.2,0.2
			c0.1,0.1,0.2,0.1,0.3,0.2c0.1,0.1,0.2,0.1,0.4,0.1c0.1,0,0.3,0,0.4,0c0.3,0,0.6-0.1,0.8-0.2v-1.6h-1l-0.1-0.5h1.8V361.5"/>
		<polygon class="st0" points="392.2,361.8 392.2,359.3 390,359.3 390,361.8 389.4,361.8 389.4,356.6 390,356.6 390,358.8 
			392.2,358.8 392.2,356.6 392.8,356.6 392.8,361.8 		"/>
		<polygon class="st0" points="397.1,357.1 395.7,357.1 395.7,361.8 395.1,361.8 395.1,357.1 393.7,357.1 393.7,356.6 397.1,356.6 
					"/>
		<path class="st0" d="M402.2,361.8h-2.9v-0.3c0.1-0.1,0.3-0.2,0.5-0.4c0.2-0.2,0.4-0.4,0.6-0.7c0.2-0.2,0.4-0.5,0.5-0.6
			c0.1-0.2,0.3-0.4,0.4-0.6c0.1-0.2,0.2-0.3,0.2-0.5c0-0.1,0.1-0.3,0.1-0.4c0-0.3-0.1-0.5-0.3-0.7c-0.2-0.2-0.4-0.3-0.7-0.3
			c-0.1,0-0.2,0-0.3,0c-0.1,0-0.2,0.1-0.3,0.1c-0.1,0-0.2,0.1-0.3,0.1c-0.1,0.1-0.2,0.1-0.3,0.2l-0.3-0.3c0.3-0.3,0.6-0.4,0.8-0.5
			c0.3-0.1,0.5-0.2,0.8-0.2c0.2,0,0.4,0,0.6,0.1c0.2,0.1,0.3,0.2,0.4,0.3c0.1,0.1,0.2,0.3,0.3,0.4c0.1,0.2,0.1,0.4,0.1,0.6
			c0,0.2-0.1,0.4-0.1,0.7c-0.1,0.2-0.2,0.5-0.4,0.7c-0.2,0.2-0.4,0.5-0.7,0.8c-0.1,0.1-0.2,0.2-0.4,0.4c-0.1,0.1-0.2,0.2-0.3,0.3
			c-0.1,0.1-0.2,0.2-0.3,0.2c-0.1,0.1-0.1,0.1-0.2,0.1h0.1c0.1,0,0.1,0,0.2,0c0.1,0,0.2,0,0.3,0h1.6L402.2,361.8"/>
		<path class="st0" d="M406.2,359.3c0-0.3,0-0.5,0-0.7c0-0.2-0.1-0.4-0.1-0.6c-0.1-0.3-0.2-0.5-0.4-0.6c-0.2-0.1-0.4-0.2-0.6-0.2
			c-0.1,0-0.3,0.1-0.4,0.2c-0.1,0.1-0.3,0.3-0.4,0.5c-0.2,0.3-0.3,0.8-0.3,1.4c0,0.3,0,0.5,0,0.8c0,0.2,0.1,0.4,0.1,0.6
			c0.1,0.3,0.2,0.5,0.4,0.6c0.2,0.2,0.3,0.2,0.5,0.2c0.2,0,0.3-0.1,0.5-0.2c0.2-0.1,0.3-0.3,0.4-0.5c0.1-0.2,0.1-0.4,0.2-0.6
			C406.2,359.9,406.2,359.6,406.2,359.3 M406.9,359.3c0,0.4-0.1,0.7-0.1,1.1c-0.1,0.3-0.2,0.6-0.4,0.8c-0.2,0.2-0.3,0.4-0.6,0.5
			c-0.2,0.1-0.5,0.2-0.7,0.2c-0.3,0-0.6-0.1-0.8-0.3c-0.2-0.2-0.4-0.4-0.5-0.7c-0.1-0.3-0.2-0.6-0.3-0.9c-0.1-0.3-0.1-0.6-0.1-0.9
			c0-0.3,0-0.7,0.1-1c0.1-0.3,0.2-0.6,0.4-0.8c0.2-0.2,0.3-0.4,0.6-0.5c0.2-0.1,0.4-0.2,0.7-0.2c0.2,0,0.4,0,0.6,0.1
			c0.2,0.1,0.3,0.2,0.5,0.3c0.1,0.1,0.2,0.3,0.3,0.4c0.1,0.2,0.2,0.4,0.2,0.5c0.1,0.2,0.1,0.4,0.1,0.6
			C406.8,359,406.9,359.1,406.9,359.3"/>
		<path class="st0" d="M411.1,359.3c0,0.4,0,0.7-0.1,1.1c-0.1,0.3-0.2,0.6-0.4,0.8c-0.2,0.2-0.3,0.4-0.6,0.5
			c-0.2,0.1-0.5,0.2-0.7,0.2c-0.3,0-0.6-0.1-0.8-0.3c-0.2-0.2-0.4-0.4-0.5-0.7c-0.1-0.3-0.2-0.6-0.3-0.9c-0.1-0.3-0.1-0.6-0.1-0.9
			c0-0.3,0-0.7,0.1-1c0.1-0.3,0.2-0.6,0.4-0.8c0.2-0.2,0.4-0.4,0.6-0.5c0.2-0.1,0.4-0.2,0.7-0.2c0.2,0,0.4,0,0.6,0.1
			c0.2,0.1,0.3,0.2,0.5,0.3c0.1,0.1,0.2,0.3,0.3,0.4c0.1,0.2,0.2,0.4,0.2,0.5c0.1,0.2,0.1,0.4,0.1,0.6
			C411.1,359,411.1,359.1,411.1,359.3"/>
	</g>
</g>
<g>
	<radialGradient id="SVGID_1_" cx="250" cy="250" r="236.0553" gradientUnits="userSpaceOnUse">
		<stop  offset="0" style="stop-color:#0091CD"/>
		<stop  offset="1" style="stop-color:#162758"/>
	</radialGradient>
	<path class="st2" d="M478.5,156c-0.1-49.7,0-99.5,0-149.2c-152.4,0-304.7-0.1-457.1,0c0.2,30.2-0.2,60.3,0.2,90.5
		c-0.5,7.1,0.2,14.2,0,21.3c-0.4,7.9-0.1,15.9-0.2,23.8c0.2,14.2-0.3,28.4,0.2,42.5C20,255.9,43.7,327,87.3,383
		c-19.9,20.1-40.1,39.8-59.9,60c4.8,4.8,9.7,9.7,14.5,14.5c19.5-19.5,39.1-38.9,58.7-58.4c38.3,43.3,88.6,75.9,143.9,92.8
		c2.3,0.5,4.7,2,7.1,1.1c26.7-7.8,52.3-19.2,76-33.7c51.9-31.7,94.4-78.8,120.4-133.8c17.6-36.8,27.8-77.1,30-117.8
		C478.9,190.5,478.4,173.3,478.5,156z"/>
	<linearGradient id="SVGID_2_" gradientUnits="userSpaceOnUse" x1="42.066" y1="197.7952" x2="442.8552" y2="197.7952">
		<stop  offset="0" style="stop-color:#E0231E"/>
		<stop  offset="1" style="stop-color:#89232C"/>
	</linearGradient>
	<path class="st3" d="M42.1,27.3c98.7-0.1,197.3,0.1,295.9,0c4.5,0.4,9.1,0.3,13.6,0c7.7,0.7,15.4,0.4,23,0.4
		c22.7,0,45.5,0.2,68.2,0c-4.7,4-8.9,8.7-13.3,13c-31.4,31.6-63,62.9-94.3,94.6c-15.8,16.5-32.3,32.3-48.4,48.5
		c-48.4,48.1-96.5,96.6-144.8,144.8c-13.3,13.2-26.5,26.5-39.8,39.8c-39.3-51.2-60.6-115.6-60-180.1C42.1,134.6,42.1,80.9,42.1,27.3
		L42.1,27.3z"/>
	<path class="st4" d="M353.7,146.1c34.7-34.7,69.4-69.3,104.1-104c0.1,49.2,0,98.5,0,147.7c0.2,6.2-0.4,12.4-0.3,18.6
		c1.3,0.4,0.8,1.1-0.2,1.4c-2.6,38.3-12.6,76.1-29.7,110.6c-28.1,57.1-75.2,104.6-132.1,133.1c-14.2,7.2-29.1,13.2-44.3,18
		c-1.2,0.5-2.4-0.1-3.6-0.4c-34.4-10.9-66.7-28.3-94.8-50.9c-13.6-10.8-26-22.9-37.6-35.8c13.3-13.8,26.9-27.3,40.6-40.7
		c40.3-40,80.3-80.2,120.5-120.3C302,197.7,327.9,172,353.7,146.1L353.7,146.1z"/>
	<path class="st4" d="M238.8,52.5c8-5.7,18.3-6.7,27.8-5.6c8.6,1.1,17.3,3.8,24.2,9.3c0.1,0.2,0.2,0.7,0.2,1c-2.8,4.7-6,9.1-9,13.6
		c-4.8-2.6-9.6-5.5-15.1-6.6c-4.9-0.9-10.6-1.5-15,1.5c-4.5,2.9-5.2,10.6-0.5,13.7c5.7,3.8,12.8,3.3,19.3,4.8
		c8.4,1.5,17.2,5.4,21.4,13.3c5.3,10.7,3.6,25.3-5.9,33.2c-8.2,6.9-19.4,8.5-29.8,8c-10.8-0.8-21.7-4.2-30-11.2
		c-1-0.7-1.9-2.1-1-3.2c3.3-4.2,7.1-8.1,10.6-12.2c4.6,2.8,8.8,6.2,14,7.9c6.4,2.3,14,3,20.2-0.2c4.9-2.4,6.6-9.5,3.2-13.7
		c-3.3-3.3-8.3-4-12.7-4.6c-8.7-1.1-18-2.8-24.7-8.9c-5.3-4.6-7.7-11.9-7.4-18.8C228.3,65.3,232.1,57.1,238.8,52.5L238.8,52.5z"/>
	<path class="st4" d="M62.7,48.1c6.1-0.1,12.2-0.4,18.2,0.1c1.3,1.4,1.8,3.3,2.6,5c6.9,15.6,13.8,31.3,20.8,46.9
		c0.5-0.9,1.1-1.8,1.5-2.8c6.5-15.2,13.3-30.4,19.8-45.6c0.8-1.3,1-3.8,3-3.6c5.6-0.1,11.3-0.2,16.9,0.1c0.1,29.6,0.2,59.2,0,88.8
		c-5.7,0.2-11.5,0.2-17.3,0c-0.3-17.2,0.1-34.4-0.2-51.6c-5.8,12.3-11,24.8-16.5,37.2c-0.5,1-1.1,2.4-2.4,2.3
		c-3.4,0.1-6.7,0.1-10.1,0c-1.1,0.1-1.7-1.1-2.1-1.9c-5.7-12.5-10.8-25.2-16.7-37.5c-0.3,17.2,0.1,34.4-0.2,51.6
		c-5.8,0.2-11.6,0.2-17.3,0C62.5,107.3,62.6,77.7,62.7,48.1L62.7,48.1z"/>
	<path class="st4" d="M157.5,48.4c3.4-0.8,7-0.2,10.4-0.3c3-0.1,6-0.2,9,0.2c0.2,23.8,0,47.7,0.1,71.5c13.8,0.4,27.6,0,41.3,0.2
		c0.1,5.5,0.3,11,0,16.5c-0.3,0.2-0.9,0.5-1.2,0.6c-19.8,0.1-39.5,0.1-59.3,0c-0.2-1.4-0.3-2.7-0.3-4.1
		C157.5,104.8,157.5,76.6,157.5,48.4L157.5,48.4z"/>
	<path class="st4" d="M104,162.6c2.3,5.5,3.8,11.2,5.7,16.9c6.1,0.1,12.2,0,18.2,0.1c-4.9,3.5-9.7,7-14.6,10.5
		c1.5,5.8,3.8,11.4,5.3,17.2c-4.9-3.4-9.7-7-14.6-10.5c-4.9,3.5-9.7,7.1-14.6,10.6c1.7-5.8,3.7-11.5,5.5-17.3
		c-4.9-3.5-9.8-7-14.6-10.6c6-0.1,12.1,0,18.1,0C100.4,173.9,102.1,168.2,104,162.6L104,162.6z"/>
	<path class="st4" d="M188,162.5c2.1,5.6,3.8,11.3,5.6,17c6,0.1,12-0.1,17.9,0.1c-4.7,3.6-9.5,7.1-14.4,10.5
		c1.7,5.8,3.7,11.4,5.4,17.2c-5-3.3-9.7-7.1-14.7-10.4c-4.8,3.4-9.5,7.2-14.5,10.3c1.8-5.7,3.7-11.3,5.5-17
		c-4.8-3.5-9.7-7-14.5-10.6c6-0.1,12-0.1,17.9,0C184.3,173.9,185.9,168.1,188,162.5L188,162.5z"/>
	<path class="st4" d="M140.3,235.3c2.2-5.5,3.2-11.5,6-16.8c1.7,5.6,3.6,11.1,5.4,16.7c6,0.1,12.1,0,18.1,0.1
		c-4.8,3.5-9.6,7.1-14.5,10.5c1.6,5.8,3.7,11.5,5.5,17.3c-4.9-3.5-9.8-7.1-14.7-10.6c-4.9,3.5-9.7,7.1-14.7,10.6
		c1.8-5.8,3.7-11.5,5.6-17.2c-4.9-3.5-9.7-7.1-14.6-10.6C128.3,235.2,134.3,235.2,140.3,235.3L140.3,235.3z"/>
	<path class="st5" d="M110.9,323.5c0.8-0.8,1.7-1.7,2.5-2.5c3,3.1,6.2,6,9,9.3c-0.5,0.2-1.5,0.6-2.1,0.8c-2.2-1.7-4-3.9-6.1-5.8
		c0.9,3.2,2.8,6,3.6,9.3c-0.3,0.2-0.8,0.5-1,0.7c-3-1-5.8-2.6-8.8-3.6c2,2.2,4.1,4.3,6.2,6.4c-0.4,0.4-1.2,1.3-1.6,1.7
		c-3-2.9-5.9-5.9-8.9-8.7c0.7-0.9,1.5-1.7,2.3-2.6c2.9,1.1,5.7,2.4,8.6,3.6C113.3,329.1,112.1,326.3,110.9,323.5L110.9,323.5z"/>
	<path class="st5" d="M94.9,340.2c1.2-3.2,4.7-5,6.8-7.6c0.5,0.5,1,1,1.5,1.5c-0.9,0.8-1.8,1.7-2.7,2.5c2.3,2.6,4.9,5,7.4,7.5
		c-0.4,0.4-1.1,1.3-1.5,1.8c-2.7-2.3-5.1-4.8-7.5-7.4C97.6,339.1,96.4,341.9,94.9,340.2L94.9,340.2z"/>
</g>
</svg>
