<?xml version="1.0" encoding="utf-8"?>
<!-- Generator: Adobe Illustrator 25.0.1, SVG Export Plug-In . SVG Version: 6.00 Build 0)  -->
<svg version="1.1" id="Layer_1" xmlns="http://www.w3.org/2000/svg" xmlns:xlink="http://www.w3.org/1999/xlink" x="0px" y="0px"
	 viewBox="0 0 500 500" style="enable-background:new 0 0 500 500;" xml:space="preserve">
<style type="text/css">
	.st0{display:none;fill:#FFFFFF;}
	.st1{display:none;fill:none;stroke:#FFFFFF;stroke-width:0.5621;stroke-miterlimit:10;}
	.st2{fill:#003074;}
	.st3{fill:#FFFFFF;}
</style>
<g>
	<g>
		<path class="st0" d="M354.1,355.2c-2.2,0-3.9,1.8-3.9,3.9c0,2.2,1.8,3.9,3.9,3.9c2.2,0,3.9-1.8,3.9-3.9S356.2,355.2,354.1,355.2
			 M357.4,359.2c0,1.9-1.5,3.4-3.3,3.4c-1.9,0-3.4-1.5-3.4-3.4c0-1.8,1.5-3.3,3.4-3.3C355.9,355.8,357.4,357.3,357.4,359.2"/>
		<path class="st0" d="M354,360.8c-0.9,0-1.7-0.8-1.7-1.7c0-0.9,0.8-1.7,1.7-1.7c0.7,0,1.2,0.4,1.5,1h0.5c-0.3-0.8-1.1-1.4-2-1.4
			c-1.2,0-2.1,1-2.1,2.1c0,1.2,1,2.1,2.1,2.1c1,0,1.8-0.6,2-1.5h-0.5C355.3,360.4,354.7,360.8,354,360.8"/>
		<path class="st0" d="M364.7,361.5c-0.2,0.1-0.4,0.2-0.7,0.3c-0.3,0.1-0.5,0.1-0.8,0.1s-0.6,0-0.8-0.2c-0.3-0.1-0.5-0.3-0.7-0.5
			c-0.2-0.3-0.4-0.6-0.5-0.9s-0.1-0.7-0.1-1.1s0.1-0.7,0.2-1.1c0.1-0.3,0.3-0.6,0.5-0.9c0.2-0.2,0.4-0.4,0.7-0.6
			c0.3-0.1,0.6-0.2,0.9-0.2c0.2,0,0.5,0,0.7,0.1s0.4,0.2,0.6,0.3l-0.3,0.4c-0.2-0.1-0.3-0.2-0.5-0.2c-0.2-0.1-0.3-0.1-0.5-0.1
			c-0.3,0-0.6,0.1-0.8,0.2c-0.2,0.1-0.4,0.4-0.5,0.7c-0.1,0.2-0.1,0.4-0.2,0.6c0,0.2,0,0.5,0,0.8c0,0.2,0,0.5,0,0.6
			c0,0.2,0.1,0.3,0.1,0.5c0.1,0.3,0.3,0.6,0.6,0.7c0.3,0.2,0.5,0.2,0.8,0.2c0.2,0,0.4,0,0.5-0.1c0.2-0.1,0.3-0.1,0.5-0.3
			L364.7,361.5"/>
		<path class="st0" d="M368.6,359.4c0-0.4,0-0.7-0.1-1c0-0.3-0.1-0.5-0.2-0.7s-0.2-0.4-0.4-0.5c-0.2-0.1-0.4-0.2-0.7-0.2
			c-0.2,0-0.5,0-0.7,0.1s-0.3,0.3-0.4,0.5s-0.2,0.4-0.2,0.6s-0.1,0.5-0.1,0.8c0,0.4,0,0.8,0.1,1.1c0.1,0.3,0.1,0.6,0.2,0.8
			c0.1,0.1,0.1,0.2,0.2,0.2c0.1,0.1,0.2,0.1,0.3,0.2c0.1,0.1,0.2,0.1,0.3,0.1c0.1,0,0.2,0,0.3,0c0.2,0,0.4,0,0.6-0.1
			s0.3-0.2,0.4-0.3c0.1-0.1,0.1-0.2,0.2-0.3c0-0.1,0.1-0.2,0.1-0.3c0-0.1,0.1-0.3,0.1-0.4C368.6,359.8,368.6,359.6,368.6,359.4
			 M369.3,359.3c0,0.5-0.1,0.9-0.2,1.3c-0.1,0.3-0.3,0.6-0.6,0.9c-0.2,0.2-0.4,0.3-0.6,0.4s-0.4,0.1-0.7,0.1c-0.3,0-0.6,0-0.9-0.2
			c-0.2-0.1-0.5-0.3-0.6-0.5c-0.4-0.5-0.6-1.2-0.6-2.1c0-0.4,0.1-0.8,0.2-1.1c0.1-0.3,0.2-0.6,0.4-0.8c0.2-0.2,0.4-0.4,0.7-0.5
			c0.3-0.1,0.5-0.2,0.9-0.2c0.2,0,0.4,0,0.6,0.1c0.2,0,0.3,0.1,0.5,0.2c0.1,0.1,0.3,0.2,0.3,0.3c0.1,0.1,0.2,0.2,0.2,0.3
			c0.2,0.2,0.3,0.5,0.4,0.8C369.3,358.5,369.3,358.9,369.3,359.3"/>
		<path class="st0" d="M373,358.2c0-0.4-0.1-0.7-0.3-0.8c-0.1-0.1-0.2-0.2-0.4-0.2c-0.2-0.1-0.4-0.1-0.6-0.1H371v2.1h0.9
			c0.2,0,0.4,0,0.5-0.1c0.1,0,0.2-0.1,0.3-0.2C372.9,358.7,373,358.5,373,358.2 M373.7,358.1c0,0.3,0,0.5-0.1,0.7s-0.2,0.4-0.4,0.5
			c-0.2,0.2-0.4,0.3-0.6,0.3c-0.2,0.1-0.4,0.1-0.7,0.1H371v2.1h-0.6v-5.2h1.5c0.3,0,0.5,0,0.7,0s0.3,0.1,0.5,0.2
			C373.5,357.1,373.7,357.5,373.7,358.1"/>
		<path class="st0" d="M376.1,359.8v2h-0.6v-2.1l-1.7-3.2h0.8l1,2c0,0.1,0.1,0.2,0.1,0.3c0,0.1,0.1,0.2,0.1,0.2c0,0.1,0,0.1,0,0.1
			c0.1-0.2,0.2-0.4,0.3-0.6l1-2h0.7L376.1,359.8"/>
		<path class="st0" d="M380.8,358c0-0.2,0-0.3-0.1-0.5s-0.2-0.3-0.4-0.3c-0.1,0-0.2-0.1-0.3-0.1c-0.1,0-0.2,0-0.4,0H379v2h0.6
			c0.2,0,0.4,0,0.6-0.1c0.1,0,0.3-0.1,0.4-0.2s0.2-0.2,0.2-0.3C380.8,358.3,380.8,358.2,380.8,358 M381,361.8c0-0.1-0.1-0.2-0.2-0.3
			c-0.1-0.1-0.2-0.3-0.3-0.5c-0.1-0.2-0.2-0.4-0.4-0.6c-0.1-0.2-0.3-0.4-0.5-0.6c0-0.1-0.1-0.1-0.1-0.1l-0.1-0.1
			c-0.1,0-0.1,0-0.1-0.1c-0.1,0-0.1,0-0.2,0v2.4h-0.6v-5.2h1.2c0.2,0,0.3,0,0.5,0c0.1,0,0.3,0,0.4,0.1c0.1,0,0.2,0.1,0.3,0.1
			c0.1,0,0.1,0.1,0.2,0.1s0.1,0.1,0.2,0.2s0.1,0.2,0.2,0.2c0,0.1,0.1,0.2,0.1,0.3c0,0.1,0,0.2,0,0.4c0,0.2,0,0.4-0.1,0.6
			s-0.2,0.3-0.3,0.5c-0.1,0.1-0.3,0.2-0.4,0.3c-0.2,0.1-0.4,0.1-0.6,0.1H380c0.1,0.1,0.2,0.2,0.3,0.3c0.1,0.1,0.2,0.2,0.2,0.3
			c0,0.1,0.1,0.2,0.2,0.3c0.1,0.1,0.2,0.3,0.3,0.5c0.1,0.2,0.2,0.3,0.3,0.5c0.1,0.2,0.2,0.3,0.2,0.4c0.1,0.1,0.1,0.1,0.1,0.2H381
			V361.8z"/>
		<line class="st1" x1="382.9" y1="361.8" x2="382.9" y2="356.6"/>
		<path class="st0" d="M388.1,361.5c-0.2,0.1-0.4,0.2-0.7,0.3c-0.3,0.1-0.5,0.1-0.8,0.1c-0.7,0-1.2-0.2-1.6-0.7
			c-0.2-0.2-0.4-0.5-0.5-0.9c-0.1-0.3-0.2-0.7-0.2-1.2s0.1-0.9,0.2-1.3s0.3-0.7,0.6-0.9c0.4-0.3,0.8-0.5,1.4-0.5s1,0.2,1.4,0.5
			l-0.3,0.4c-0.2-0.2-0.4-0.2-0.6-0.3c-0.2-0.1-0.4-0.1-0.6-0.1c-0.3,0-0.6,0.1-0.8,0.2c-0.2,0.1-0.4,0.4-0.5,0.7
			c-0.1,0.4-0.2,0.8-0.2,1.3c0,0.4,0,0.7,0.1,0.9c0.1,0.3,0.2,0.5,0.3,0.7c0.1,0.1,0.1,0.2,0.2,0.2c0.1,0.1,0.2,0.1,0.3,0.2
			c0.1,0.1,0.2,0.1,0.4,0.1c0.1,0,0.3,0,0.4,0c0.3,0,0.6-0.1,0.8-0.2v-1.6h-1l-0.1-0.5h1.8L388.1,361.5"/>
		<polygon class="st0" points="392.2,361.8 392.2,359.3 390,359.3 390,361.8 389.4,361.8 389.4,356.6 390,356.6 390,358.8 
			392.2,358.8 392.2,356.6 392.8,356.6 392.8,361.8 		"/>
		<polygon class="st0" points="397.1,357.1 395.7,357.1 395.7,361.8 395.1,361.8 395.1,357.1 393.7,357.1 393.7,356.6 397.1,356.6 
					"/>
		<path class="st0" d="M402.2,361.8h-2.9v-0.3c0.1-0.1,0.3-0.2,0.5-0.4c0.2-0.2,0.4-0.4,0.6-0.7c0.2-0.2,0.4-0.5,0.5-0.6
			c0.1-0.2,0.3-0.4,0.4-0.6s0.2-0.3,0.2-0.5c0-0.1,0.1-0.3,0.1-0.4c0-0.3-0.1-0.5-0.3-0.7c-0.2-0.2-0.4-0.3-0.7-0.3
			c-0.1,0-0.2,0-0.3,0c-0.1,0-0.2,0.1-0.3,0.1c-0.1,0-0.2,0.1-0.3,0.1c-0.1,0.1-0.2,0.1-0.3,0.2l-0.3-0.3c0.3-0.3,0.6-0.4,0.8-0.5
			c0.3-0.1,0.5-0.2,0.8-0.2c0.2,0,0.4,0,0.6,0.1s0.3,0.2,0.4,0.3c0.1,0.1,0.2,0.3,0.3,0.4c0.1,0.2,0.1,0.4,0.1,0.6s-0.1,0.4-0.1,0.7
			c-0.1,0.2-0.2,0.5-0.4,0.7c-0.2,0.2-0.4,0.5-0.7,0.8c-0.1,0.1-0.2,0.2-0.4,0.4c-0.1,0.1-0.2,0.2-0.3,0.3c-0.1,0.1-0.2,0.2-0.3,0.2
			c-0.1,0.1-0.1,0.1-0.2,0.1h0.1c0.1,0,0.1,0,0.2,0s0.2,0,0.3,0h1.6L402.2,361.8"/>
		<path class="st0" d="M406.2,359.3c0-0.3,0-0.5,0-0.7s-0.1-0.4-0.1-0.6c-0.1-0.3-0.2-0.5-0.4-0.6c-0.2-0.1-0.4-0.2-0.6-0.2
			c-0.1,0-0.3,0.1-0.4,0.2s-0.3,0.3-0.4,0.5c-0.2,0.3-0.3,0.8-0.3,1.4c0,0.3,0,0.5,0,0.8c0,0.2,0.1,0.4,0.1,0.6
			c0.1,0.3,0.2,0.5,0.4,0.6c0.2,0.2,0.3,0.2,0.5,0.2s0.3-0.1,0.5-0.2s0.3-0.3,0.4-0.5s0.1-0.4,0.2-0.6
			C406.2,359.9,406.2,359.6,406.2,359.3 M406.9,359.3c0,0.4-0.1,0.7-0.1,1.1c-0.1,0.3-0.2,0.6-0.4,0.8c-0.2,0.2-0.3,0.4-0.6,0.5
			c-0.2,0.1-0.5,0.2-0.7,0.2c-0.3,0-0.6-0.1-0.8-0.3c-0.2-0.2-0.4-0.4-0.5-0.7c-0.1-0.3-0.2-0.6-0.3-0.9c-0.1-0.3-0.1-0.6-0.1-0.9
			s0-0.7,0.1-1s0.2-0.6,0.4-0.8c0.2-0.2,0.3-0.4,0.6-0.5c0.2-0.1,0.4-0.2,0.7-0.2c0.2,0,0.4,0,0.6,0.1s0.3,0.2,0.5,0.3
			c0.1,0.1,0.2,0.3,0.3,0.4c0.1,0.2,0.2,0.4,0.2,0.5c0.1,0.2,0.1,0.4,0.1,0.6C406.8,359,406.9,359.1,406.9,359.3"/>
		<path class="st0" d="M411.1,359.3c0,0.4,0,0.7-0.1,1.1c-0.1,0.3-0.2,0.6-0.4,0.8c-0.2,0.2-0.3,0.4-0.6,0.5
			c-0.2,0.1-0.5,0.2-0.7,0.2c-0.3,0-0.6-0.1-0.8-0.3c-0.2-0.2-0.4-0.4-0.5-0.7c-0.1-0.3-0.2-0.6-0.3-0.9c-0.1-0.3-0.1-0.6-0.1-0.9
			s0-0.7,0.1-1s0.2-0.6,0.4-0.8c0.2-0.2,0.4-0.4,0.6-0.5s0.4-0.2,0.7-0.2c0.2,0,0.4,0,0.6,0.1s0.3,0.2,0.5,0.3
			c0.1,0.1,0.2,0.3,0.3,0.4c0.1,0.2,0.2,0.4,0.2,0.5c0.1,0.2,0.1,0.4,0.1,0.6C411.1,359,411.1,359.1,411.1,359.3"/>
	</g>
</g>
<g id="g52" transform="matrix(1.2812055,0,0,1.2812055,19.231985,0.20500847)">
	<path id="path44" class="st2" d="M323.3,46.6C301.9,22.3,119.3-1,94.5,12.4S-20.2,206-13.2,231.9c7,25.9,147.2,143.2,172.2,149.3
		c25,6.1,200.4-84.7,212.6-102.2C383.7,261.6,344.8,70.9,323.3,46.6"/>
	<g id="g50">
		<path id="path46" class="st3" d="M319.2,101.4c-8.6,0-15.5,7-15.5,15.5s7,15.5,15.5,15.5c8.6,0,15.5-7,15.5-15.5
			C334.8,108.4,327.8,101.4,319.2,101.4z"/>
		<path id="path48" class="st3" d="M293.6,125.9c-5.1,0.2-10.1,1.5-14.7,3.8c-1.1,0.4-2.1,0.9-3.2,1.4l-0.5,0.2
			c-3.5,1.7-7.1,2.9-10.9,3.7c-34.7,5.5-39.6,10.4-43.5,14.3c-1.8,2-4.1,3.4-6.7,4.1c-3.2,1-6.6,1.7-10.4,2.5
			c-9,1.6-17.8,4.4-26,8.5c-2.4,1.1-5,2-7.6,2.7c-1.8,0.5-3.6,1.1-5.4,1.7l-2.5,0.9c-8.5,4.5-18.9,3.7-26.7-1.9
			c-3.1-1.2-6.3-1.9-9.6-2.2c-1.7-0.1-3.5-0.4-5.2-0.9c-0.1-0.1-0.2-0.1-0.1-0.2c0.5-0.2,1-0.4,1.5-0.6c1.5-0.3,2.7-1.1,3.5-2.4
			c0.3-0.8,0.3-1.7-0.2-2.5c-0.8-1.8-1.3-3.8-1.2-5.7c1-0.5,1.8-1.4,2.2-2.5c0.2-0.7,0-1.4-0.4-2c-0.6-0.9-1.4-1.7-2.1-2.5
			c-0.7-0.6-1.3-1.4-1.7-2.2c0-0.1,0-0.2,0.1-0.6c0.2-0.6,0.2-1.3,0.1-2c-0.3-1-0.7-1.9-1.3-2.7c-0.5-0.7-0.8-1.5-1.1-2.4
			c-0.2-3.2-3.8-6-9.4-7.3c-7.8-2.3-16.2,0.9-20.5,7.8c-3.9,7.5-2.6,16.7,3.2,22.9l0.4,0.5c3.6,5,3.9,8,1.1,10.4
			c-3.9,3.2-7.1,7.1-9.5,11.5c-3.2,5.7-6.2,12.5-8.9,18.7c-2,5.2-4.4,10.1-7.2,14.9c-1.9,3.2-3.3,6.6-4.3,10.2c-0.3,1-0.6,2-1,3
			c-1.1,3.8-2,7.7-2.5,11.6c-0.4,4.3-1.5,8.4-3.2,12.4c-2.9,2.7-6.6,4.3-10.5,4.4c-2.1,0.4-4.1,1.4-5.7,2.9l-0.3,0.2
			c-0.6,0.4-1.1,0.8-1.8,1.2c-0.6,0.4-1.2,0.7-1.9,1c-1,0.5-2,1.1-2.8,1.8c-0.6,0.6-0.9,1.4-1,2.2c-0.6,0.9-0.4,2.2,0.4,2.9
			c0.8,0.6,1.9,0.8,2.9,0.5c0.3,1,1.2,1.7,2.2,1.7c1.2-0.1,2.4-0.5,3.4-1.1c1.5-0.7,3-1.3,4.6-1.7c1.4-0.3,2.8-0.5,4.2-0.8
			c3.7-0.2,7.3-1.4,10.3-3.6c1.9-1.9,3.4-4.1,4.6-6.5c0.5-0.8,0.9-1.6,1.3-2.3c6.1-9,10.4-19,12.8-29.6c1-3.7,3.2-6.9,6.2-9.1
			c1.3-1.3,3-2.9,4.8-4.9c1.6-1.8,3-3.7,4.4-5.7c2-2.9,3.7-5.2,5.6-5.3c2.9,0.4,5.7,1.1,8.5,1.9c11.6,3.4,23.4,5.5,35.4,6.4
			c5.3,0.3,10.4,2.1,14.8,5.1c1.6,0.9,3.3,1.9,5.2,2.8c10,4.2,20.3,7.5,30.9,9.7c2.9,0.3,5.8,0.3,8.7,0c2-0.2,4-0.2,6,0
			c0.3,0.1,0.6,0.3,1,0.6c1,0.7,2.2,1.2,3.3,1.6c3.9,1,8,0.8,11.8-0.4h0.1c2.4-0.7,5-1,7.5-0.9c1.5,0.4,3,1,4.3,1.8
			c1.2,0.6,2.4,1.1,3.4,1.5c4.5,2,9.6,2.2,14.2,0.5c1.7-0.9,3-2.4,3.4-4.3c0.4-1.6,0.1-3.2-0.9-4.5c-3.2-4.6-13-6.2-15-6.4
			c-2-0.3-4-0.7-6-1.3h-0.1c-1.6-0.5-3.3-0.8-5-1.1c-0.8-0.1-1.6,0.1-2.4,0.3c-1.1,0.4-2.3,0.4-3.4,0c-0.7-0.3-1.4-0.7-2-1.2
			c-1.4-1-2.8-1.8-4.4-2.3c-1.6-0.4-3.1-1.1-4.4-2.1l-0.7-0.4c-3.3-2.2-6.9-3.8-10.7-4.8l-0.2-0.1c-0.6-0.1-1.2-0.3-1.8-0.6
			c-7-3.8-9.4-6.5-9.4-7.1c0.1-3.8,1.4-4.9,5.7-7.1c6.3-4,12.1-8.6,17.4-13.7c3.6-3.6,7.6-6.8,12-9.5c5.8-0.9,11.2-3.3,15.7-7.1
			c3.4-2.9,7.1-5.4,11.1-7.5c9-5,9.9-5,10.7-5c0.4,0,0.7,0,1.1-0.1h0.1c0.4,0.4,0.9,0.6,1.4,0.7c0.6,0.1,1.2,0.1,1.9,0h0.1
			c0.2,0,0.4-0.1,0.6-0.1c0.1,0,0.3,0.1,0.4,0.1c0.7,0.4,1.5,0.5,2.3,0.3c0.7-0.3,1.4-0.8,1.9-1.4l0.4-0.5l0.4-0.1
			c0.7,0,1.4-0.3,2-0.6c0.6-0.5,1-1.2,1-2c0-0.3,0.1-0.3,0.1-0.4c0.8-1,3-1.1,4.9-1.2h0.1c0.1,0,0.3,0.1,0.4,0.1
			c0.8,0.4,1.7,0.5,2.5,0.3c0.6-0.2,1-0.6,1.4-1.2l0.1-0.2h0.3c0.4,0,0.7-0.1,1-0.2c0.7-0.3,1.3-1,1.5-1.8l0.1-0.2l0.4-0.2
			c1.2-0.3,2-1.2,2.2-2.3c0-0.4,0.2-0.9,0.5-1.2c0.3-0.3,0.5-0.6,0.6-0.9c0.3-0.9,0.4-1.8,0.4-2.7v-0.1v-1.4c0-0.6-0.2-1.2-0.6-1.6
			C295.7,126.5,294.7,126,293.6,125.9z"/>
	</g>
</g>
</svg>
