<?xml version="1.0" encoding="utf-8"?>
<!-- Generator: Adobe Illustrator 25.0.1, SVG Export Plug-In . SVG Version: 6.00 Build 0)  -->
<svg version="1.1" id="Layer_1" xmlns="http://www.w3.org/2000/svg" xmlns:xlink="http://www.w3.org/1999/xlink" x="0px" y="0px"
	 viewBox="0 0 500 500" style="enable-background:new 0 0 500 500;" xml:space="preserve">
<style type="text/css">
	.st0{fill:#FF1740;}
</style>
<path class="st0" d="M391.5,179.8c3.3-18.9,4.4-36.8,4.4-52.6c0-36.1-6-61.1-6.1-61.6c-0.5-1.9-2.2-3.3-4.2-3.3
	c-0.3,0-0.6,0-0.9,0.1l0,0c-23.5,4.7-43.1,6.5-59.5,6.5c-40.8,0-61-11.4-69.8-18.7c-2.1-10.3,1.8-18.7,9.8-19.2c0,0,2-0.6,20.6,4.1
	c20.2,4.3,23.9-14.2,24.7-25.3c0,0-7.3,7.1-29,3.1c-21.7-4-35,19.6-34.9,32c0,0.2,0,1.5,0.1,3.5c0,0-0.1,0.1-0.1,0.1
	c-7.6,7-27.6,20.3-71.7,20.3c-16.3,0-36-1.8-59.5-6.5c0,0,0,0,0,0c0,0,0,0,0,0v0c-0.3-0.1-0.6-0.1-0.9-0.1c-2,0-3.7,1.4-4.2,3.3l0,0
	c0,0.1-0.1,0.5-0.3,1.3c-1.2,5.6-5.9,29-5.9,60.8c0,15.6,1.1,33.3,4.3,52c6,34.5,17.9,65.9,35.4,93.5c-0.2,2.4-0.5,4.9-0.8,7.3
	c-0.6,4.2-1.6,8.5-2.9,12.8c-1.1,4.1-2.7,10.9-7.5,16.5c-4.9,5.7-5.6,6.7-8.6,15.6c0,0-12.6,11.9-12,19.9c0.1,0.2,0.2,0.4,0.4,0.4
	l0,0c2.7,1,19.1,6.6,37.9-0.4c0.4-0.2,0.5-0.5,0.5-0.8c0.2-2.5,0.9-11.8,3-16.1c2.4-5.1,3.7-7.1,3-10.5c-0.7-3.4-1-6.2,0.8-9.5
	c0.6-1.1,2-2.6,4-4.1c1.1-0.9,2.4-1.8,3.7-2.8c22.1,25.2,49.9,46.3,83,62.7l0,0c0.6,0.3,1.3,0.4,1.9,0.4c0.7,0,1.3-0.2,1.9-0.4l0,0
	c2.5-1.2,4.9-2.5,7.4-3.8c26.1-13.9,48.8-30.8,67.7-50.5c9.6-10,18.2-20.6,25.8-32h0h0C372.2,249.4,385.2,216.3,391.5,179.8z
	 M385.6,66.2L385.6,66.2l0.1,0c0.2,0,0.4,0.1,0.4,0.4c0.1,0.2,6,25,6,60.6c0,15.6-1.1,33.3-4.4,51.9c-2.9,16.7-7.2,32.6-12.9,47.8
	c1.2-8.7,1.8-18.4,1.8-26.1c0.1-12.2-2.1-23.4-13.6-35.9c0,0,4.8-13.7,4.6-28.3c-1.3-76.5-75.9-46.1-97.5-63.8
	c-6.1-5-10.2-10.7-12.6-16.2c11.1,7.5,31.8,16.2,67.8,16.2C342,72.8,361.8,70.9,385.6,66.2z M108.1,127.8c0-18,1.5-33.2,3-44
	c0.8-5.4,1.5-9.7,2.1-12.6c0.3-1.5,0.5-2.6,0.7-3.4c0.2-0.8,0.3-1.2,0.3-1.2l0,0c0.1-0.2,0.3-0.4,0.4-0.4l0.1,0l0,0
	c23.7,4.7,43.6,6.6,60.2,6.6c41.8,0,63.1-11.9,72.5-19.7c2,10.1,8.9,26.9,32.5,33.7c26.4,7.6,84.9-1.3,69.8,65.6
	c0,0-11.6-8.3-25.7-8.7c-3.3-0.1-6.9,0-10.8,0.6c-8.1,1.2-13.8-1.2-17.7-3.8c4,0.6,7.7,0.9,10.9,0.9c9.2,0,15.5-2.2,19.8-4.1
	c0.6-0.3,1.1-0.5,1.6-0.8c1.8-0.9,3.2-1.7,4.4-2.3c1.8-0.9,3-1.7,3.8-2.4c0.4-0.4,0.8-0.7,1.1-1.1c0.3-0.4,0.6-1,0.6-1.7
	c0-0.4-0.1-0.7-0.2-1c-0.1-0.3-0.3-0.6-0.5-0.8c-0.5-0.5-1-0.7-1.4-0.8c-0.3-0.1-0.5-0.1-0.7-0.2c-0.7-0.1-1.5-0.1-2.5-0.2
	c-0.4,0-0.9,0-1.3,0c-1.5-0.1-3-0.1-3.3-0.1c-2.5-0.1-4.4-0.3-6.1-0.6c-2.5-0.5-4.3-1.2-6.2-2.3c-1.9-1.1-3.9-2.6-6.6-4.7
	c-0.7-0.6-1.5-1.2-2.4-1.8c-0.4-0.3-0.9-0.7-1.4-1c-3.1-2.3-6.9-5.1-12-8.3c-4.7-3-9.3-5.5-13.8-7.5c-1.1-0.5-10.9-4.7-14.9-6.1
	c-0.7-0.2-1.3-0.5-2.1-0.7c-10.8-11.7-23.8-17.3-36.9-15.3c-25.1,3.8-58.1,29.5-71.8,70.4c-1.3,5.2-2.4,13.5,0.8,21.9l5.2,14
	c0,0-6.9-5.8-10.3-11.8c-1.2,1.6-7.3,10.4-6.8,27.5c0,0.9,0.1,1.7,0.1,2.5c0.4,8.9,1.5,14.3,2.4,17.5c0.3,1.2,0.7,2,0.9,2.6
	c-0.2,1.6-0.4,3.2-0.6,4.7c-0.2,1.2-0.3,2.5-0.5,3.8c-0.6,5.2-0.9,10.5-1,11.4l0,0.1c0,0.4-0.1,0.8-0.1,1.2c0,0.1,0,0.3,0,0.4
	c0,0.3,0,0.7,0,1v0.4c0,0.4,0,0.9,0,1.4v0.1c0.1,4.9,0.6,11.9,0.4,19.8c-15.7-26-26.4-55.3-32-87.4
	C109.2,160.7,108.1,143.2,108.1,127.8z M305.3,262.7c0.3,0.3,0.1,0.8-0.3,0.7c-5.4-0.8-10.3-4.6-6.7-12.1c2.8-5.9,3.7-9.5,4.1-11.2
	c0.1-0.4,0.6-0.4,0.8-0.1c0.7,1.4,1.4,4.7-0.6,11.3C300.5,257.7,303.5,261.3,305.3,262.7z M276,218.7c0.1,1.4,0.3,2.8,0.3,4.2
	c0,0.5,0,0.9,0,1.3c0,2.6-0.4,4.9-1.6,6.3c-0.6,0.7-1.5,1.5-2.6,2.4c-0.8,0.6-1.6,1.1-2.5,1.7c-1.8,1.2-3.9,2.3-5.9,3.3
	c-1,0.5-2,0.9-3,1.3c-1,0.4-1.9,0.6-2.8,0.8c-1.3,0.3-2.4,0.4-3.3,0.2c-4.5-1.1-4.4-1.7-6.6-3.5c-0.2-0.1-0.4-0.2-0.6-0.3
	c-1.2-0.7-1.4-0.7-6.9-0.7c-4.1,0-7.8-0.1-10.8-0.9c-3-0.8-5.2-2.3-6.4-5.2c-1-2.1-1.5-3.9-2-5.5c-1-3.5-1.6-5.9-6.3-7.7
	c-5.5-2-12.1-2.6-17.1-8.3l0,0c-0.3-0.4-0.6-0.7-0.9-1.2c-0.1-0.2-0.2-0.3-0.3-0.5c-0.2-0.3-0.4-0.6-0.7-1c-0.1-0.2-0.2-0.3-0.3-0.5
	c-0.3-0.5-0.6-1-0.9-1.6c-5.2-10.2-5.6-19.2-5.6-19.2s-0.7,0.7-1.5,2.1c-1.6,2.7-4,8.2-3.9,17.1c0,3.1,0.3,6.7,1,10.6
	c0,0-8.2-15.3-1.9-31.7c0.4-0.9,0.8-1.8,1.1-2.6c3.8-8.3,7.6-12.8,9.8-14.9c1.1-1.1,1.8-1.6,1.9-1.6c0,0-0.1,0.1-0.1,0.2
	c-0.3,0.9-0.9,4.4-0.8,9.6c0,3.7,0.4,8.2,1.5,13.3c0.6,3.1,1.6,6.3,2.8,9.7c0,0,0.2,0.3,0.4,0.8c0.3,0.7,0.8,1.6,0.8,1.6
	c0.2,0.4,0.5,0.8,0.8,1.2c1.3,1.9,3.5,4.4,6.9,6.5c1.9,1.2,4.1,2.4,6.8,3.3c13.3,4.7,12.3,7,13.2,10.7c0.4,1.6,1,3.6,2.1,5.3
	c0.6,1,1.3,1.9,2.2,2.7c0.5,0.4,1,0.7,1.5,1c0.8,0.4,1.8,0.7,2.8,0.8c1.6,0.2,3.2,0.3,4.7,0.4c0.5,0,1,0.1,1.5,0.1
	c1.9,0.1,3.5,0.1,4.5,0c0.8,0,1.4-0.1,2,0c1,0.2,2.1,0.8,4,2.5c0,0,2.4,2.1,8-0.9c2.8-1.5,4.7-2.8,6-3.8c0.2-0.1,0.3-0.2,0.4-0.3
	c0.7-0.5,1.1-0.9,1.3-1.1l0.1-0.1c0,0,0.2-0.1,0.5-0.5c0.4-0.7,0.9-2,0.8-4.8c0-1-0.1-2.3-0.3-3.8c-0.1-0.9-0.2-1.8-0.2-2.8
	c0-2.4,0.4-5.2,1.1-8.2c0.4-2.1,1-4.3,1.6-6.5c0.2-0.9,0.5-1.7,0.8-2.6c2-6.4,4.2-12.2,5.4-14.9c2.5-5.6,3.5-12.6,3.5-12.6
	s0.3,0.7,0.6,1.8c0.3,1.3,0.7,3,0.6,4.8c0,0.2,0,0.5,0,0.7c0,0,2.6-1.1,4.7-3.4c0.2-0.3,0.4-0.5,0.6-0.8c1-1.4,1.7-3.3,1.6-5.5
	c0-0.4-0.1-0.9-0.2-1.4c-0.4-1.9-2.6-6.3-3.7-10.5c-0.4-1.5-0.5-3.3-0.5-4.5c0-0.3,0-0.6,0.1-0.9c0.2-1.8,0.2-5.6-0.4-10.1
	c-0.4-2.7-1-5.6-2-8.4c-2.1-6.2-5.5-12-11.2-14.2c-4.7-1.8-11.3-2.6-17.6-2.3c-2,0.1-3.9,0.3-5.8,0.7c-6.2,1.1-11.4,3.6-13.2,7.4
	c-0.5,1.2-0.8,2.5-0.7,3.9c1.1,12.2,27.3,11.6,27.3,11.6l12.6-0.2l0.2,0c0.4,0,1.1,0,1.5,0.4l0.2,0.2l0.1,0.3l0,0l0,0
	c0.1,0.7-4.4,3.5-11.3,6.1c-4.1,1.5-9.1,3-14.5,3.9c-4.5,0.7-10,1.2-15.5,0.8c-0.6,0-1.1-0.1-1.7-0.1c-1.1-0.1-2.2-0.2-3.3-0.4
	c-0.6-0.1-1.1-0.2-1.6-0.3c-1.1-0.2-2.2-0.5-3.2-0.7c-8.5-2.3-16-7.3-18.9-16.8c-0.7-2.4-1.1-4.7-1.1-6.9
	c-0.1-10.1,6.2-18.4,13.7-23.7c4.2-2.9,8.7-4.9,12.7-5.7c6.1-1.2,12.2-1.9,18.6-1.6c5.8,0.5,9.4,1.7,12.8,2.7
	c3.6,1.1,13.3,5.4,14.4,5.9c4.3,1.9,8.7,4.3,13.3,7.3c5,3.2,8.8,5.9,11.8,8.2c0.5,0.3,0.9,0.7,1.3,1c0.8,0.6,1.6,1.2,2.4,1.8
	c1.8,1.4,3.3,2.5,4.8,3.6c2.2,1.5,4.4,2.7,6.9,3.5c2.6,0.8,5.5,1.2,9.4,1.4h0.1c0,0,0.4,0,1,0c0.6,0,1.4,0,2.2,0.1
	c0.4,0,0.7,0,1.1,0c-0.4,0.3-1,0.6-1.6,0.9c-1.2,0.7-2.6,1.5-4.2,2.3c-0.5,0.2-1,0.5-1.5,0.7c-4.1,1.8-9.6,3.8-18.3,3.8
	c-4.2,0-9-0.5-14.8-1.7v0l0,0c-0.3,0.1-1.1,0.9-1.3,1c0,0,1,5.5,0.5,15.8c-0.1,1.6,6.2,12.9,5.2,18.9c-0.3,1.4-0.9,2.7-1.8,3.9
	c-3.7,5.3-11.3,9.2-11.3,9.2s-2.5,6.8-4.6,13.6c-0.6,1.9-1.2,3.8-1.6,5.6c-0.9,3.2-1.5,6-1.4,7.5C275.4,213.3,275.7,216,276,218.7z
	 M250.5,172.6c-3.8,1-4.4,4.4-6.5,5c-1.8,0.5-2.3-1.3-0.9-3.7c1.4-2.3,3.8-5.8,9.7-6.6c5.9-0.8,7.4,4.1,9.9,6.2
	c0.6,0.5,1.2,0.9,1.7,1.3c1,0.7,1.9,1,2.3,1.3c0.2,0.1,0.4,0.2,0.4,0.3l-1.3,2.4c0,0-1.4-0.8-3.1-1.3c-0.2-0.1-0.3-0.1-0.5-0.2
	c-0.3-0.1-0.7-0.2-1-0.3c-0.5-0.1-1-0.2-1.5-0.2c-1.1,0-1.3,0.7-1.8,1.3c-0.3,0.3-0.7,0.7-1.6,0.8c-2.1,0.3-2.9-0.2-3.4-1
	c-0.5-0.9,0.1-3.4,0.1-3.4C253.3,172.2,250.5,172.6,250.5,172.6z M250,360.9c-32.6-16.2-59.9-36.9-81.6-61.6
	c2.5-1.9,7.3-6.1,10.4-11c2.6-4.2,2.2-7.7,2.4-7.6c-20.6-14.2-20.2-64.9-20.2-64.9l8,31.7c7,28.6,20.4,31.6,22.4,29.3
	c4.3-4.8,11.1-26.9,11.6-26.3c0.1,5.2-6.2,24.8-6.2,24.8c-0.7,2-1.3,3.9-2,5.6c-0.2,0.6-0.4,1.2-0.6,1.7c-0.8,2.2-1.7,4.1-2.4,5.6
	c-1.6,3.2-2.5,6.3-2.8,9.4c-0.2,2.4,0,4.8,0.7,7c1.2,3.9,3.7,7.3,7.5,10c9.5,6.6,11.4,7.1,12.2,7.8c0.5,0.4,0.7,0.8,1.8,2.8
	c1.6,3,2.2,4.4,3.9,5.8c0.2,0.2,1.3,0.9,2.4,1.3c0.6,0.2,1.1,0.3,1.7,0.3c3.1,0,10.4-1.2,10.4-1.2s2.7-0.5,4.7-4.6
	c1.5-2.9,2.5-6.8,2.6-11c0-1.4-0.1-2.8-0.2-4.3c-0.1-0.5-0.1-1-0.2-1.4c-1-5.7-3.2-10.5-4.1-12.2c-0.1-0.3-0.2-0.5-0.3-0.6l0-0.1v0
	l0,0l0,0c0,0-2.6-0.2-8.8,3.3l-0.2,0.1l0,0l-0.1-0.1l0-0.1l0-0.1v-0.1l0-0.2l0-0.1c0-0.2,0.1-0.5,0.2-0.9l0-0.1
	c0-0.1,0.1-0.3,0.2-0.5l0-0.1c0.1-0.1,0.1-0.3,0.2-0.4l0-0.1c0.1-0.2,0.1-0.3,0.2-0.5l0-0.1c0.1-0.4,0.3-0.7,0.4-1.1l0.1-0.1
	l0.1-0.3l0.1-0.2l0.1-0.2c0.2-0.4,0.3-0.7,0.3-0.7s0.2-0.6,0.9-1.4c0.9-1.1,2.8-2.8,6.6-4.4c7-3.1,13.2-4.9,18-6.6
	c1.4-0.5,2.7-0.9,3.8-1.4c4-1.7,6.5-3.6,6.9-6.9c0.1-0.4-0.1-0.9-0.4-1.4c-0.1-0.2-0.2-0.4-0.3-0.6c5.3-1.5,17.6-5.6,27.1-13.9
	c0,0,0.9,0.7,0.3,2.3c-0.1,0.2-0.1,0.3-0.3,0.5c-1.3,2.4-6,6.9-12.7,10.7c-1.7,1-3.4,1.9-5.3,2.7c0,0,4.8,14.4-1.9,24.1
	c-1.2,1.8-2.3,3.4-3.2,4.7c-3.6,5.3-4.8,7.1-6.3,9c-0.1,0.2-0.2,0.3-0.4,0.5c-0.4,0.5-0.9,1.2-1.5,2.1c-2.5,3.8-6.1,10.5-6.1,14.6
	c0,0,4.7,0.9,8.9,1.2c0.6,0,1.2,0,1.7,0c4.9,0,9.1-0.1,12.3-0.7c2.5-0.5,4.3-1.3,5.3-2.6c0,0,0.9-15,4.5-17.8
	c3.1-2.5,4.2-4.2,4.3-6.4c0-0.3,0-0.6,0-1c-0.2-2.7-1.1-4.8,4-9.1c5.1-4.3,7.5-12.2,19.6-18.9c0,0,4.7-1.6,3.8-8.7
	c2.4,0.5,4.4-0.6,5.6-1.6c-13-31.7-3.2-46.4-1.7-48.3l0,0c-7.2,33,12.9,59.8,22.5,72.7c-6.3,8.2-13.2,16-20.6,23.4
	c-10.3,10.2-21.6,19.6-33.9,28.2c-11.3,7.8-23.4,15-36.3,21.4l-0.2,0.1L250,360.9z"/>
<path class="st0" d="M93.3,438.4v44.5h7.3v-16.1h10.2c3.1,0,5.7-0.6,8.1-1.7c2.3-1.2,4.1-2.8,5.4-5c1.3-2.1,1.9-4.6,1.9-7.5
	c0-2.8-0.6-5.3-1.9-7.5c-1.3-2.1-3.1-3.8-5.4-5c-2.3-1.2-5-1.7-8.1-1.7H93.3z M100.6,444.8h9.7c2.6,0,4.7,0.7,6.2,2.1
	c1.5,1.4,2.3,3.3,2.3,5.7c0,2.4-0.8,4.3-2.3,5.7c-1.5,1.4-3.6,2.1-6.3,2.1h-9.6V444.8z M146.9,450.4c-2.5,0-4.5,0.4-6,1.3
	c-1.5,0.9-2.7,2.1-3.6,3.6l-0.8-4.9h-6.1v32.5h6.9v-16.3c0-2.8,0.6-5.2,1.9-7c1.3-1.8,3.3-2.8,6.2-2.8h3.1v-6.4H146.9z M167.2,483.3
	c3.3,0,6.2-0.7,8.7-2.1c2.5-1.4,4.5-3.3,5.8-5.8c1.4-2.5,2.1-5.4,2.1-8.7c0-3.3-0.7-6.2-2.1-8.7c-1.4-2.5-3.3-4.5-5.8-5.9
	c-2.5-1.4-5.4-2.1-8.7-2.1c-3.3,0-6.2,0.7-8.7,2.1c-2.5,1.4-4.5,3.4-5.8,5.9c-1.4,2.5-2.1,5.4-2.1,8.7c0,3.3,0.7,6.2,2.1,8.7
	c1.4,2.5,3.3,4.5,5.8,5.8C161,482.6,163.9,483.3,167.2,483.3z M167.2,477.4c-2.9,0-5.2-1-6.9-3c-1.7-2-2.6-4.6-2.6-7.8
	c0-3.2,0.9-5.8,2.6-7.8c1.7-2,4-3,6.9-3c2.9,0,5.2,1,7,3c1.8,2,2.6,4.6,2.6,7.8c0,3.2-0.9,5.8-2.6,7.8
	C172.4,476.4,170,477.4,167.2,477.4z M233.9,482.9v-6.5h-19.1v-38h-7.3v44.5H233.9z M236.6,466.7c0,3.3,0.7,6.2,2.1,8.7
	c1.4,2.5,3.3,4.4,5.8,5.8c2.5,1.4,5.5,2.1,8.9,2.1c3.9,0,7.1-1.1,9.8-3.2c2.6-2.1,4.2-4.8,4.8-8.1H261c-0.5,1.8-1.4,3.2-2.9,4.2
	c-1.4,1-3.2,1.5-5.3,1.5c-2.7,0-4.8-0.8-6.4-2.5c-1.6-1.7-2.5-3.9-2.7-6.7v-0.4h24.5c0.1-0.9,0.2-1.8,0.2-2.6c0-3.1-0.8-5.9-2.1-8.2
	c-1.4-2.3-3.3-4.1-5.7-5.4c-2.4-1.3-5.2-1.9-8.3-1.9c-3.1,0-5.8,0.7-8.2,2.1c-2.4,1.4-4.3,3.3-5.6,5.8
	C237.2,460.4,236.6,463.4,236.6,466.7z M244,463.1c0.3-2.3,1.2-4.1,2.8-5.5c1.6-1.4,3.6-2.1,5.8-2.1c2.4,0,4.4,0.7,6,2
	c1.6,1.3,2.5,3.2,2.8,5.6H244z M303.4,476.9c-1.4,0-2.2-0.8-2.2-2.3v-12.8c0-3.8-1.2-6.7-3.6-8.8c-2.4-2-5.7-3-10.1-3
	c-4.1,0-7.4,0.9-10,2.7c-2.5,1.8-4,4.3-4.3,7.6h6.7c0.3-1.4,1-2.6,2.3-3.5c1.3-0.9,2.9-1.3,4.9-1.3c2.2,0,4,0.5,5.3,1.6
	c1.3,1,1.9,2.5,1.9,4.3v2h-8.2c-4.5,0-8,0.9-10.4,2.7c-2.4,1.8-3.6,4.4-3.6,7.7c0,3,1.1,5.3,3.3,7c2.2,1.7,5.1,2.5,8.8,2.5
	c4.7,0,8.3-1.9,10.7-5.6c0,1.7,0.5,3,1.4,3.9c0.9,0.9,2.5,1.3,4.6,1.3h3.6v-6H303.4z M294.4,469.6c0,2.5-0.9,4.6-2.4,6.1
	c-1.6,1.5-3.8,2.3-6.6,2.3c-1.9,0-3.3-0.4-4.4-1.3c-1.1-0.8-1.6-2-1.6-3.4c0-1.6,0.6-2.8,1.7-3.7c1.1-0.8,2.8-1.2,4.9-1.2h8.5V469.6
	z M333.7,450.4l-0.8,5.1c-1.1-1.7-2.5-3-4.3-4c-1.8-1-3.9-1.5-6.4-1.5c-2.9,0-5.6,0.7-7.9,2.1c-2.3,1.4-4.2,3.3-5.5,5.8
	c-1.3,2.5-2,5.4-2,8.6c0,3.4,0.7,6.3,2,8.8c1.3,2.5,3.1,4.4,5.5,5.7c2.3,1.3,5,2,7.9,2c4.7,0,8.2-1.8,10.6-5.3v3.6
	c0,6.1-3.1,9.1-9.3,9.1c-2.4,0-4.4-0.5-5.9-1.5c-1.5-1-2.5-2.4-2.9-4.2h-7c0.3,3.6,1.8,6.4,4.6,8.4c2.8,2,6.3,3,10.7,3
	c5.7,0,9.9-1.3,12.6-3.8c2.7-2.5,4.1-6.1,4.1-10.6v-31.2H333.7z M323.4,477.3c-2.8,0-5.1-1-6.9-3c-1.7-2-2.6-4.6-2.6-7.8
	c0-3.2,0.9-5.8,2.6-7.8c1.7-2,4-3,6.9-3s5.1,1,6.9,3c1.7,2,2.6,4.6,2.6,7.8c0,3.1-0.9,5.7-2.6,7.7
	C328.5,476.3,326.2,477.3,323.4,477.3z M369.1,450.4v16.1c0,3.3-0.7,6-2.2,7.9c-1.5,1.9-3.5,2.9-6.2,2.9c-2.5,0-4.4-0.8-5.7-2.5
	c-1.3-1.7-1.9-4.1-1.9-7.2v-17.2h-6.9v17.9c0,5.3,1.2,9.1,3.6,11.4c2.4,2.4,5.5,3.6,9.3,3.6c4.2,0,7.6-1.5,10-4.5l0.8,4.1h6v-32.5
	H369.1z M381.5,466.7c0,3.3,0.7,6.2,2.1,8.7c1.4,2.5,3.3,4.4,5.8,5.8c2.5,1.4,5.5,2.1,8.9,2.1c3.9,0,7.1-1.1,9.8-3.2
	c2.6-2.1,4.2-4.8,4.8-8.1h-6.9c-0.5,1.8-1.4,3.2-2.9,4.2c-1.4,1-3.2,1.5-5.3,1.5c-2.7,0-4.8-0.8-6.4-2.5c-1.6-1.7-2.5-3.9-2.7-6.7
	v-0.4h24.5c0.1-0.9,0.2-1.8,0.2-2.6c0-3.1-0.8-5.9-2.1-8.2c-1.4-2.3-3.3-4.1-5.7-5.4c-2.4-1.3-5.2-1.9-8.3-1.9
	c-3.1,0-5.8,0.7-8.2,2.1c-2.4,1.4-4.3,3.3-5.6,5.8C382.1,460.4,381.5,463.4,381.5,466.7z M388.9,463.1c0.3-2.3,1.2-4.1,2.8-5.5
	c1.6-1.4,3.6-2.1,5.8-2.1c2.4,0,4.4,0.7,6,2c1.6,1.3,2.5,3.2,2.8,5.6H388.9z"/>
<path class="st0" d="M90.9,399.1c0,5.6,1.3,9.9,4.1,12.8c2.8,2.9,6.8,4.4,12.1,4.4c5.3,0,9.4-1.4,12.2-4.3c2.8-2.9,4.2-7.2,4.2-13.1
	v-27.4h-7.3v27.6c0,3.7-0.8,6.5-2.3,8.2c-1.5,1.8-3.8,2.6-6.8,2.6c-2.9,0-5.1-1-6.6-2.9c-1.5-1.9-2.3-4.6-2.3-7.9H90.9z M153,383.4
	v16.1c0,3.3-0.7,6-2.2,7.9c-1.5,1.9-3.5,2.9-6.2,2.9c-2.5,0-4.4-0.8-5.7-2.5c-1.3-1.7-1.9-4.1-1.9-7.2v-17.2h-6.9v17.9
	c0,5.3,1.2,9.1,3.6,11.4c2.4,2.4,5.5,3.6,9.3,3.6c4.2,0,7.6-1.5,10-4.5l0.8,4.1h6v-32.5H153z M184.2,383c-4.4,0-8,1.7-10.6,5.2
	l-0.8-4.8h-6v45.2h6.9v-17.3c1.1,1.5,2.5,2.7,4.3,3.6c1.8,0.9,3.9,1.3,6.3,1.3c3,0,5.6-0.7,7.9-2.1c2.3-1.4,4.2-3.3,5.5-5.8
	c1.3-2.5,2-5.4,2-8.7c0-3.4-0.7-6.3-2-8.9c-1.3-2.5-3.1-4.4-5.5-5.8C189.8,383.7,187.2,383,184.2,383z M183.1,410.6
	c-2.8,0-5.1-1-6.9-3c-1.7-2-2.6-4.7-2.6-7.9c0-3.2,0.9-5.8,2.6-7.7c1.7-2,4-3,6.9-3c2.8,0,5.1,1,6.9,3c1.8,2,2.6,4.6,2.6,7.8
	c0,3.2-0.9,5.8-2.6,7.8C188.2,409.5,185.9,410.6,183.1,410.6z M208.5,370.4c-1.2,0-2.2,0.4-3,1.2c-0.8,0.8-1.2,1.8-1.2,3
	c0,1.2,0.4,2.2,1.2,3c0.8,0.8,1.8,1.2,3,1.2c1.2,0,2.2-0.4,3-1.2c0.8-0.8,1.2-1.8,1.2-3c0-1.2-0.4-2.2-1.2-3
	C210.7,370.8,209.7,370.4,208.5,370.4z M205,416h6.9v-32.5H205V416z M218.9,416h6.9v-44.5h-6.9V416z M231.4,399.8
	c0,3.3,0.7,6.2,2.1,8.7c1.4,2.5,3.3,4.4,5.8,5.8c2.5,1.4,5.5,2.1,8.9,2.1c3.9,0,7.1-1.1,9.8-3.2c2.6-2.1,4.2-4.8,4.8-8.1h-6.9
	c-0.5,1.8-1.4,3.2-2.9,4.2c-1.4,1-3.2,1.5-5.3,1.5c-2.7,0-4.8-0.8-6.4-2.5c-1.6-1.7-2.5-3.9-2.7-6.7v-0.4h24.5
	c0.1-0.9,0.2-1.8,0.2-2.6c0-3.1-0.8-5.9-2.1-8.2c-1.4-2.3-3.3-4.1-5.7-5.4c-2.4-1.3-5.2-1.9-8.3-1.9c-3.1,0-5.8,0.7-8.2,2.1
	c-2.4,1.4-4.3,3.3-5.6,5.8C232.1,393.5,231.4,396.4,231.4,399.8z M238.9,396.1c0.3-2.3,1.2-4.1,2.8-5.5c1.6-1.4,3.6-2.1,5.8-2.1
	c2.4,0,4.4,0.7,6,2c1.6,1.3,2.5,3.2,2.8,5.6H238.9z M285.3,383.4c-2.5,0-4.5,0.4-6,1.3c-1.5,0.9-2.7,2.1-3.6,3.6l-0.8-4.9h-6.1V416
	h6.9v-16.3c0-2.8,0.6-5.2,1.9-7c1.3-1.8,3.3-2.8,6.2-2.8h3v-6.4H285.3z"/>
</svg>
