<?xml version="1.0" encoding="utf-8"?>
<!-- Generator: Adobe Illustrator 25.0.1, SVG Export Plug-In . SVG Version: 6.00 Build 0)  -->
<svg version="1.1" id="Layer_1" xmlns="http://www.w3.org/2000/svg" xmlns:xlink="http://www.w3.org/1999/xlink" x="0px" y="0px"
	 viewBox="0 0 500 500" style="enable-background:new 0 0 500 500;" xml:space="preserve">
<style type="text/css">
	.st0{clip-path:url(#SVGID_2_);}
	.st1{clip-path:url(#SVGID_4_);}
	.st2{clip-path:url(#SVGID_6_);fill:url(#SVGID_7_);}
	.st3{clip-path:url(#SVGID_9_);}
	.st4{clip-path:url(#SVGID_11_);fill:url(#SVGID_12_);}
	.st5{fill:#4495D1;}
	.st6{clip-path:url(#SVGID_14_);fill:url(#SVGID_15_);}
	.st7{clip-path:url(#SVGID_17_);}
	.st8{clip-path:url(#SVGID_19_);}
	.st9{clip-path:url(#SVGID_21_);}
	.st10{clip-path:url(#SVGID_25_);}
	.st11{clip-path:url(#SVGID_27_);}
	.st12{clip-path:url(#SVGID_29_);}
	.st13{clip-path:url(#SVGID_33_);}
	.st14{clip-path:url(#SVGID_35_);}
	.st15{clip-path:url(#SVGID_37_);}
	.st16{clip-path:url(#SVGID_41_);}
	.st17{clip-path:url(#SVGID_43_);}
	.st18{clip-path:url(#SVGID_45_);}
	.st19{clip-path:url(#SVGID_49_);}
	.st20{clip-path:url(#SVGID_51_);}
	.st21{clip-path:url(#SVGID_53_);}
	.st22{clip-path:url(#SVGID_57_);}
	.st23{clip-path:url(#SVGID_59_);}
	.st24{clip-path:url(#SVGID_61_);}
	.st25{clip-path:url(#SVGID_65_);fill:url(#SVGID_66_);}
	.st26{clip-path:url(#SVGID_65_);fill:url(#SVGID_67_);}
	.st27{clip-path:url(#SVGID_69_);}
	.st28{clip-path:url(#SVGID_71_);}
	.st29{clip-path:url(#SVGID_73_);}
	.st30{clip-path:url(#SVGID_77_);}
	.st31{clip-path:url(#SVGID_79_);}
	.st32{clip-path:url(#SVGID_81_);}
	.st33{clip-path:url(#SVGID_85_);}
	.st34{clip-path:url(#SVGID_87_);}
	.st35{clip-path:url(#SVGID_89_);}
	.st36{clip-path:url(#SVGID_93_);}
	.st37{clip-path:url(#SVGID_95_);}
	.st38{clip-path:url(#SVGID_97_);}
	.st39{clip-path:url(#SVGID_101_);}
	.st40{clip-path:url(#SVGID_103_);}
	.st41{clip-path:url(#SVGID_105_);}
	.st42{clip-path:url(#SVGID_109_);}
	.st43{clip-path:url(#SVGID_113_);}
	.st44{clip-path:url(#SVGID_117_);}
	.st45{clip-path:url(#SVGID_119_);}
	.st46{clip-path:url(#SVGID_121_);}
	.st47{clip-path:url(#SVGID_125_);}
	.st48{clip-path:url(#SVGID_127_);}
	.st49{clip-path:url(#SVGID_129_);}
	.st50{clip-path:url(#SVGID_133_);}
	.st51{clip-path:url(#SVGID_135_);}
	.st52{clip-path:url(#SVGID_137_);}
	.st53{clip-path:url(#SVGID_141_);}
	.st54{clip-path:url(#SVGID_143_);}
	.st55{clip-path:url(#SVGID_145_);}
	.st56{clip-path:url(#SVGID_149_);}
	.st57{clip-path:url(#SVGID_151_);}
	.st58{clip-path:url(#SVGID_153_);}
	.st59{clip-path:url(#SVGID_157_);}
	.st60{clip-path:url(#SVGID_159_);}
	.st61{clip-path:url(#SVGID_161_);}
	.st62{clip-path:url(#SVGID_165_);}
	.st63{clip-path:url(#SVGID_167_);}
	.st64{clip-path:url(#SVGID_169_);}
</style>
<g>
	<g>
		<defs>
			<path id="SVGID_1_" d="M6.3,442.1v51.3h32.3v-10.3H17.8V472h19.1v-10.2H17.8v-9.4h20.7v-10.2H6.3 M49.7,493.4h11.6v-51.3H49.7
				V493.4 M76.6,442.1l-13.9,25.1l15,26.2h13l-15.5-26.2l14.4-25.1H76.6 M132.7,442.1v10.2h13.8v41.1h11.6v-41.1h13.8v-10.2H132.7
				 M189.3,452.4h9.2c4.7,0,6.2,1.5,6.2,5.4v4.1c0,3.9-1.2,5.6-6.2,5.6h-9.2V452.4 M177.8,442.1v51.3h11.6v-16h6.8l11.3,16h13.7
				l-12.4-17.6c5.2-2.2,7.5-6.5,7.5-12.9v-6.3c0-9.6-4.6-14.6-17.1-14.6H177.8 M246.8,452.3l5.9,21.5h-11.8L246.8,452.3
				 M239.1,442.1l-15.6,51.3h12l2.8-10h17.2l2.8,10h12l-15.7-51.3H239.1 M276.6,493.4h11.6v-51.3h-11.6V493.4 M303.5,442.1
				l-13.9,25.1l14.9,26.2h13l-15.5-26.2l14.4-25.1H303.5 M324.6,442.1v51.3h31.9v-10.3h-20.3v-41.1H324.6 M381.7,452.3l5.9,21.5
				h-11.8L381.7,452.3 M374,442.1l-15.6,51.3h12l2.8-10h17.2l2.8,10h12l-15.7-51.3H374 M472.6,452.3l5.9,21.5h-11.8L472.6,452.3
				 M464.9,442.1l-15.6,51.3h12l2.8-10h17.2l2.8,10h12l-15.7-51.3H464.9 M96,455.7c0,11.1,1.8,13.6,14.2,16.3c8.4,1.8,8.6,2.4,8.6,7
				c0,4.3-1.2,5.5-7.1,5.5c-5.3,0-10.1-1-14.8-2.5l-1.9,8.9c4.4,2,10.6,3.3,16.6,3.3c15.5,0,18.8-5,18.8-15.2
				c0-10.1-0.7-12.8-14.6-16.1c-8.1-1.9-8.3-2-8.3-6.9c0-3.8,1.2-4.7,6.3-4.7c4.6,0,8.4,0.5,14.3,1.5l1.2-9.7
				c-5.7-1.2-11.1-1.7-15.6-1.7C99.6,441.3,96,445.4,96,455.7 M410.8,455.7c0,11.1,1.8,13.6,14.3,16.3c8.4,1.8,8.6,2.4,8.6,7
				c0,4.3-1.1,5.5-7.1,5.5c-5.3,0-10.1-1-14.8-2.5l-1.9,8.9c4.4,2,10.6,3.3,16.6,3.3c15.5,0,18.8-5,18.8-15.2
				c0-10.1-0.7-12.8-14.6-16.1c-8.1-1.9-8.3-2-8.3-6.9c0-3.8,1.2-4.7,6.3-4.7c4.6,0,8.4,0.5,14.3,1.5l1.2-9.7
				c-5.7-1.2-11.1-1.7-15.6-1.7C414.4,441.3,410.8,445.4,410.8,455.7"/>
		</defs>
		<clipPath id="SVGID_2_">
			<use xlink:href="#SVGID_1_"  style="overflow:visible;"/>
		</clipPath>
		<g class="st0">
			<defs>
				<rect id="SVGID_3_" x="6.3" y="441.3" width="489.8" height="52.9"/>
			</defs>
			<clipPath id="SVGID_4_">
				<use xlink:href="#SVGID_3_"  style="overflow:visible;"/>
			</clipPath>
			<g class="st1">
				<g>
					<defs>
						<path id="SVGID_5_" d="M6.3,442v51.7h32.6v-10.5H18.1v-10.9h19.1v-10.5H18.1v-9.2h20.7V442H6.3z M49.7,493.7h11.9V442H49.7
							V493.7z M76.4,442v0.3H76v0.7h-0.3v0.7h-0.3v0.7H75v0.3h-0.3v0.7h-0.3v0.7h-0.3v0.7h-0.3v0.7h-0.3v0.3h-0.3v0.7h-0.3v0.7h-0.3
							v0.7h-0.3v0.7h-0.3v0.3h-0.3v0.7h-0.3v0.7h-0.3v0.7h-0.3v0.7h-0.3v0.7h-0.3v0.3h-0.3v0.7h-0.3v0.7h-0.3v0.7h-0.3v0.7h-0.3v0.3
							h-0.3v0.7h-0.3v0.7h-0.3v0.7h-0.3v0.7h-0.3v0.3h-0.3v0.7h-0.3v0.7h-0.3v0.7h-0.3v0.7h-0.3v0.7h-0.3v0.3h-0.3v0.7h-0.3v0.7
							h-0.3v0.7h-0.3v0.7h-0.3v0.3h-0.3v1h0.3v0.7h0.3v0.3h0.3v0.7h0.3v0.7h0.3v0.7h0.3v0.3h0.3v0.7h0.3v0.7h0.3v0.7h0.3v0.3h0.3
							v0.7h0.3v0.7h0.3v0.7h0.3v0.3h0.3v0.7h0.3v0.7h0.3v0.7h0.3v0.3h0.3v0.7h0.3v0.7h0.3v0.7h0.3v0.3h0.3v0.7h0.3v0.7h0.3v0.7h0.3
							v0.3h0.3v0.7h0.3v0.7h0.3v0.7h0.3v0.3h0.3v0.7h0.3v0.7h0.3v0.7h0.3v0.3h0.3v0.7h0.3v0.7h0.3v0.7H75v0.3h0.3v0.7h0.3v0.7H76
							v0.7h0.3v0.3h0.3v0.7H77v0.7h0.3v0.7h13.5V493h-0.3v-0.7h-0.3v-0.7h-0.3v-0.3h-0.3v-0.7h-0.3v-0.7h-0.3v-0.3h-0.3v-0.7h-0.3
							v-0.7h-0.3v-0.3h-0.3v-0.7h-0.3v-0.7h-0.3v-0.3h-0.3v-0.7h-0.3v-0.7h-0.3v-0.7h-0.3v-0.3h-0.3v-0.7h-0.3v-0.7h-0.3v-0.3h-0.3
							v-0.7h-0.3v-0.7h-0.3v-0.3h-0.3v-0.7h-0.3v-0.7h-0.3v-0.3h-0.3v-0.7H82v-0.7h-0.3v-0.7h-0.3v-0.3H81v-0.7h-0.3v-0.7h-0.3v-0.3
							H80v-0.7h-0.3v-0.7h-0.3v-0.3H79v-0.7h-0.3v-0.7h-0.3V472H78v-0.7h-0.3v-0.7h-0.3V470H77v-0.3h-0.3V469h-0.3v-0.7H76V468h-0.3
							v-0.7h-0.3V467h0.3v-0.3H76V466h0.3v-0.7h0.3v-0.7H77v-0.3h0.3v-0.7h0.3v-0.7H78v-0.7h0.3v-0.3h0.3v-0.7H79v-0.7h0.3v-0.7h0.3
							v-0.3H80v-0.7h0.3v-0.7h0.3v-0.7H81v-0.3h0.3v-0.7h0.3v-0.7H82v-0.7h0.3v-0.3h0.3v-0.7h0.3v-0.7h0.3v-0.7h0.3v-0.3h0.3v-0.7
							h0.3v-0.7h0.3v-0.7h0.3v-0.3h0.3v-0.7h0.3v-0.7h0.3v-0.7h0.3v-0.3h0.3v-0.7h0.3v-0.7h0.3v-0.3h0.3V446h0.3v-0.7h0.3v-0.7h0.3
							v-0.3h0.3v-0.7h0.3V443h0.3v-0.7h0.3V442H76.4z M132.7,442v10.5h13.8v41.1h11.9v-41.1h13.8V442H132.7z M189.6,467v-14.5h10.5
							v0.3h1.6v0.3h0.7v0.3h0.7v0.3h0.3v0.7h0.3v0.3h0.3v1h0.3v8.2h-0.3v0.7h-0.3v0.7h-0.3v0.7h-0.7v0.3h-0.7v0.3h-0.7v0.3h-2v0.3
							h-9.9V467z M177.7,442v51.7h11.9v-16.1h6.6v0.7h0.3v0.3h0.3v0.7h0.3v0.3h0.3v0.7h0.3v0.3h0.3v0.3h0.3v0.7h0.3v0.3h0.3v0.7h0.3
							v0.3h0.3v0.3h0.3v0.7h0.3v0.3h0.3v0.7h0.3v0.3h0.3v0.3h0.3v0.7h0.3v0.3h0.3v0.7h0.3v0.3h0.3v0.3h0.3v0.7h0.3v0.3h0.3v0.7h0.3
							v0.3h0.3v0.7h0.3v0.3h0.3v0.3h0.3v0.7h0.3v0.3h0.3v0.7h0.3v0.3h0.3v0.3h0.3v0.3h13.8v-1h-0.3v-0.3h-0.3V492h-0.3v-0.7h-0.3
							V491h-0.3v-0.7h-0.3v-0.3h-0.3v-0.3h-0.3v-0.7h-0.3v-0.3h-0.3v-0.7h-0.3v-0.3h-0.3v-0.7h-0.3v-0.3h-0.3v-0.3h-0.3v-0.7h-0.3
							v-0.3h-0.3v-0.7h-0.3v-0.3h-0.3v-0.3h-0.3v-0.7h-0.3v-0.3H214v-0.7h-0.3v-0.3h-0.3v-0.7H213v-0.3h-0.3v-0.3h-0.3v-0.7H212
							v-0.3h-0.3v-0.7h-0.3v-0.3H211v-0.3h-0.3v-0.7h-0.3v-0.3H210v-0.7h-0.3v-0.3h-0.3v-1h0.7v-0.3h0.3v-0.3h0.7v-0.3h0.7v-0.3h0.3
							v-0.3h0.3v-0.3h0.3v-0.3h0.3v-0.3h0.3v-0.3h0.3v-0.3h0.3v-0.7h0.3v-0.3h0.3v-0.7h0.3V470h0.3v-1h0.3v-1h0.3v-1.6h0.3v-13.5
							h-0.3v-1.6h-0.3v-1h-0.3v-1h-0.3v-0.7h-0.3v-0.7h-0.3v-0.3H214v-0.7h-0.3v-0.3h-0.3v-0.3H213V446h-0.3v-0.3h-0.3v-0.3H212V445
							h-0.7v-0.3H211v-0.3h-0.7V444h-0.7v-0.3h-1v-0.3H208V443h-1v-0.3h-1.6v-0.3h-2V442H177.7z M241.3,473.3v-0.7h0.3v-1.3h0.3v-1
							h0.3V469h0.3v-1.3h0.3v-1h0.3v-1.3h0.3v-1.3h0.3v-1h0.3v-1.3h0.3v-1h0.3v-1.3h0.3v-1.3h0.3v-1h0.3v-1.3h0.3v-1.3h0.3v-1h0.3
							v0.3h0.3v1.3h0.3v1h0.3v1.3h0.3v1.3h0.3v1h0.3v1.3h0.3v1.3h0.3v1h0.3v1.3h0.3v1.3h0.3v1h0.3v1.3h0.3v1.3h0.3v1h0.3v1.3h0.3
							v1.3h0.3v0.3h-11.2V473.3z M239,442v0.3h-0.3v1.3h-0.3v1H238v1h-0.3v1h-0.3v1.3H237v1h-0.3v1h-0.3v1.3H236v1h-0.3v1h-0.3v1
							H235v1.3h-0.3v1h-0.3v1H234v1h-0.3v1.3h-0.3v1H233v1h-0.3v1.3h-0.3v1h-0.3v1h-0.3v1h-0.3v1.3h-0.3v1h-0.3v1h-0.3v1.3h-0.3v1
							h-0.3v1h-0.3v1h-0.3v1.3h-0.3v1h-0.3v1h-0.3v1.3h-0.3v1h-0.3v1h-0.3v1h-0.3v1.3h-0.3v1h-0.3v1h-0.3v1h-0.3v1.3h-0.3v1h-0.3v1
							h-0.3v1.3h-0.3v1h-0.3v1h-0.3v1h-0.3v0.7h12.5V493h0.3v-1.3h0.3v-1.3h0.3v-1h0.3v-1.3h0.3v-1h0.3v-1.3h0.3v-1.3h0.3v-1h17.1
							v1.3h0.3v1h0.3v1.3h0.3v1h0.3v1.3h0.3v1.3h0.3v1h0.3v1.3h0.3v0.7h12.5v-0.3h-0.3V492h-0.3v-1h-0.3v-1h-0.3v-1h-0.3v-1.3h-0.3
							v-1h-0.3v-1h-0.3v-1h-0.3v-1.3h-0.3v-1H267v-1h-0.3v-1h-0.3v-1.3H266v-1h-0.3v-1h-0.3v-1.3H265v-1h-0.3v-1h-0.3v-1H264v-1.3
							h-0.3v-1h-0.3v-1H263v-1h-0.3v-1.3h-0.3v-1H262v-1h-0.3v-1h-0.3v-1.3H261v-1h-0.3v-1h-0.3v-1.3H260v-1h-0.3v-1h-0.3v-1h-0.3
							v-1.3h-0.3v-1h-0.3v-1h-0.3v-1h-0.3v-1.3h-0.3v-1h-0.3v-1h-0.3v-1h-0.3v-1.3h-0.3v-1h-0.3v-1h-0.3v-1h-0.3v-1.3h-0.3V442H239z
							 M276.5,493.7h11.9V442h-11.9V493.7z M303.2,442v0.3h-0.3v0.7h-0.3v0.7h-0.3v0.7h-0.3v0.7h-0.3v0.3h-0.3v0.7h-0.3v0.7h-0.3
							v0.7h-0.3v0.7h-0.3v0.7h-0.3v0.3h-0.3v0.7h-0.3v0.7h-0.3v0.7h-0.3v0.7h-0.3v0.3h-0.3v0.7h-0.3v0.7h-0.3v0.7h-0.3v0.7h-0.3v0.3
							h-0.3v0.7h-0.3v0.7h-0.3v0.7h-0.3v0.7h-0.3v0.7h-0.3v0.3h-0.3v0.7h-0.3v0.7h-0.3v0.7H293v0.7h-0.3v0.3h-0.3v0.7H292v0.7h-0.3
							v0.7h-0.3v0.7H291v0.3h-0.3v0.7h-0.3v0.7H290v0.7h-0.3v0.7h-0.3v0.7h0.3v0.3h0.3v0.7h0.3v0.7h0.3v0.7h0.3v0.3h0.3v0.7h0.3v0.7
							h0.3v0.7h0.3v0.3h0.3v0.7h0.3v0.7h0.3v0.7h0.3v0.3h0.3v0.7h0.3v0.7h0.3v0.7h0.3v0.3h0.3v0.7h0.3v0.7h0.3v0.7h0.3v0.3h0.3v0.7
							h0.3v0.7h0.3v0.7h0.3v0.3h0.3v0.7h0.3v0.7h0.3v0.7h0.3v0.3h0.3v0.7h0.3v0.7h0.3v0.7h0.3v0.3h0.3v0.7h0.3v0.7h0.3v0.7h0.3v0.3
							h0.3v0.7h0.3v0.7h0.3v0.7h0.3v0.3h0.3v0.7h0.3v0.7h0.3v0.7h0.3v0.3h0.3v0.3h13.2V493h-0.3v-0.7H317v-0.7h-0.3V491h-0.3v-0.3
							H316v-0.7h-0.3v-0.7h-0.3v-0.3H315v-0.7h-0.3v-0.7h-0.3v-0.3H314v-0.7h-0.3v-0.7h-0.3v-0.3H313v-0.7h-0.3v-0.7h-0.3v-0.7H312
							v-0.3h-0.3v-0.7h-0.3v-0.7h-0.3v-0.3h-0.3v-0.7h-0.3v-0.7h-0.3v-0.3h-0.3v-0.7h-0.3v-0.7h-0.3v-0.3h-0.3v-0.7h-0.3v-0.7h-0.3
							v-0.7h-0.3v-0.3h-0.3v-0.7h-0.3v-0.7h-0.3v-0.3h-0.3v-0.7h-0.3v-0.7h-0.3v-0.3h-0.3v-0.7h-0.3v-0.7h-0.3v-0.3h-0.3v-0.7h-0.3
							V470h-0.3v-0.7h-0.3V469h-0.3v-0.7h-0.3v-0.7h-0.3v-1h0.3V466h0.3v-0.7h0.3V465h0.3v-0.7h0.3v-0.7h0.3v-0.7h0.3v-0.3h0.3v-0.7
							h0.3v-0.7h0.3v-0.7h0.3v-0.3h0.3v-0.7h0.3v-0.7h0.3v-0.7h0.3v-0.3h0.3v-0.7h0.3v-0.7h0.3v-0.7h0.3v-0.3h0.3v-0.7h0.3v-0.7h0.3
							v-0.7h0.3v-0.3h0.3v-0.7h0.3v-0.7h0.3v-0.7h0.3v-0.3h0.3v-0.7h0.3v-0.7h0.3v-0.3h0.3v-0.7h0.3v-0.7h0.3v-0.7h0.3v-0.3h0.3
							v-0.7h0.3V446h0.3v-0.7h0.3V445h0.3v-0.7h0.3v-0.7h0.3V443h0.3v-0.3h0.3V442H303.2z M324.6,442v51.7h32.3v-10.5h-20.4V442
							H324.6z M375.9,473.3h0.3v-1h0.3V471h0.3v-1.3h0.3v-1h0.3v-1.3h0.3v-1h0.3V465h0.3v-1.3h0.3v-1h0.3v-1.3h0.3v-1.3h0.3v-1h0.3
							v-1.3h0.3v-1.3h0.3v-1h0.3v-1.3h0.3v-1h0.3v1h0.3v1.3h0.3v1h0.3v1.3h0.3v1.3h0.3v1h0.3v1.3h0.3v1.3h0.3v1h0.3v1.3h0.3v1.3h0.3
							v1h0.3v1.3h0.3v1.3h0.3v1h0.3v1.3h0.3v1.3h-11.2V473.3z M373.6,442v1.3h-0.3v1h-0.3v1h-0.3v1h-0.3v1.3H372v1h-0.3v1h-0.3v1.3
							H371v1h-0.3v1h-0.3v1H370v1.3h-0.3v1h-0.3v1H369v1h-0.3v1.3h-0.3v1H368v1h-0.3v1.3h-0.3v1H367v1h-0.3v1h-0.3v1.3H366v1h-0.3v1
							h-0.3v1.3H365v1h-0.3v1h-0.3v1h-0.3v1.3h-0.3v1h-0.3v1h-0.3v1.3h-0.3v1h-0.3v1h-0.3v1h-0.3v1.3h-0.3v1h-0.3v1h-0.3v1h-0.3v1.3
							h-0.3v1h-0.3v1h-0.3v1.3h-0.3v1h-0.3v1h-0.3v1h-0.3v1h12.5v-1h0.3v-1.3h0.3v-1.3h0.3v-1h0.3v-1.3h0.3v-1h0.3v-1.3h0.3v-1.3
							h0.3v-0.7h16.8v0.3h0.3v1.3h0.3v1h0.3v1.3h0.3v1.3h0.3v1h0.3v1.3h0.3v1h0.3v1.3h0.3v0.3h12.2v-1.3h-0.3v-1h-0.3v-1h-0.3v-1
							h-0.3v-1.3h-0.3v-1h-0.3v-1h-0.3v-1h-0.3v-1.3h-0.3v-1h-0.3v-1h-0.3v-1h-0.3v-1.3h-0.3v-1h-0.3v-1h-0.3v-1.3h-0.3v-1h-0.3v-1
							h-0.3v-1H399V472h-0.3v-1h-0.3v-1H398v-1h-0.3v-1.3h-0.3v-1H397v-1h-0.3v-1h-0.3v-1.3H396v-1h-0.3v-1h-0.3v-1.3H395v-1h-0.3
							v-1h-0.3v-1H394v-1.3h-0.3v-1h-0.3v-1H393v-1h-0.3v-1.3h-0.3v-1H392v-1h-0.3v-1h-0.3v-1.3h-0.3v-1h-0.3v-1h-0.3v-1h-0.3V443
							h-0.3v-1H373.6z M467.1,473.3v-1h0.3v-1h0.3V470h0.3v-1.3h0.3v-1h0.3v-1.3h0.3v-1h0.3v-1.3h0.3v-1.3h0.3v-1h0.3v-1.3h0.3v-1.3
							h0.3v-1h0.3v-1.3h0.3v-1h0.3v-1.3h0.3v-1.3h0.3v0.7h0.3v1.3h0.3v1.3h0.3v1h0.3v1.3h0.3v1.3h0.3v1h0.3v1.3h0.3v1.3h0.3v1h0.3
							v1.3h0.3v1.3h0.3v1h0.3v1.3h0.3v1.3h0.3v1h0.3v1.3h0.3v0.3h-11.2V473.3z M464.8,442v0.3h-0.3v1h-0.3v1h-0.3v1.3h-0.3v1h-0.3v1
							h-0.3v1.3h-0.3v1h-0.3v1h-0.3v1h-0.3v1.3h-0.3v1h-0.3v1h-0.3v1.3h-0.3v1h-0.3v1h-0.3v1h-0.3v1.3h-0.3v1h-0.3v1h-0.3v1.3h-0.3
							v1h-0.3v1h-0.3v1h-0.3v1.3h-0.3v1h-0.3v1h-0.3v1h-0.3v1.3h-0.3v1h-0.3v1h-0.3v1.3h-0.3v1h-0.3v1h-0.3v1h-0.3v1.3h-0.3v1h-0.3
							v1h-0.3v1.3h-0.3v1h-0.3v1h-0.3v1H451v1.3h-0.3v1h-0.3v1H450v1.3h-0.3v1h-0.3v1H449v0.7h12.5v-1h0.3v-1h0.3v-1.3h0.3v-1.3h0.3
							v-1h0.3v-1.3h0.3v-1h0.3v-1.3h0.3v-1h17.1v1.3h0.3v1.3h0.3v1h0.3v1.3h0.3v1.3h0.3v1h0.3v1.3h0.3v1h0.3v0.7H496v-1.3h-0.3v-1
							h-0.3v-1.3h-0.3v-1h-0.3v-1h-0.3v-1.3h-0.3v-1h-0.3v-1h-0.3v-1h-0.3v-1.3h-0.3v-1h-0.3v-1h-0.3v-1h-0.3v-1.3h-0.3v-1h-0.3v-1
							h-0.3v-1h-0.3v-1.3h-0.3v-1h-0.3v-1h-0.3v-1h-0.3v-1.3h-0.3v-1h-0.3v-1h-0.3v-1.3h-0.3v-1h-0.3v-1h-0.3v-1h-0.3v-1.3h-0.3v-1
							h-0.3v-1h-0.3v-1h-0.3v-1.3h-0.3v-1h-0.3v-1h-0.3v-1h-0.3v-1.3h-0.3v-1h-0.3v-1h-0.3v-1.3h-0.3v-1h-0.3v-1h-0.3v-1h-0.3V446
							h-0.3v-1h-0.3v-1h-0.3v-1h-0.3v-1H464.8z M113.9,441.3h-0.3H108v0.3h-2.3v0.3h-1.3v0.3h-1v0.3h-1v0.3h-1v0.3h-0.3v0.3h-0.7
							v0.3h-0.3v0.3h-0.7v0.3h-0.3v0.3h-0.3v0.3h-0.3v0.7h-0.3v0.3h-0.3v0.3h-0.3v0.7h-0.3v1h-0.3v0.7h-0.3v1.3h-0.3v2h-0.3v7.9h0.3
							v2.6h0.3v1h0.3v1h0.3v0.7h0.3v0.7h0.3v0.7h0.3v0.3h0.3v0.3h0.3v0.3h0.3v0.3h0.3v0.3h0.3v0.3h0.7v0.3h0.7v0.3h0.7v0.3h0.7v0.3
							h0.7v0.3h1v0.3h1v0.3h1v0.3h1.3v0.3h1.6v0.3h1.3v0.3h1.3v0.3h1.3v0.3h1.3v0.3h1v0.3h1v0.3h0.7v0.3h0.3v0.3h0.3v0.3h0.3v0.3
							h0.3v0.7h0.3v5.6h-0.3v1h-0.3v0.3h-0.3v0.3h-0.3v0.3h-0.7v0.3h-1.3v0.3H109v-0.3h-4v-0.3h-1.6v-0.3H102v-0.3h-1.3v-0.3h-1.3
							v-0.3h-1.3v-0.3h-1.3v0.7h-0.3v1.6h-0.3v1.6h-0.3v1.3h-0.3v1.6h-0.3v1.6h-0.3v0.7h0.7v0.3h0.7v0.3h1v0.3h0.7v0.3h1.3v0.3h1
							v0.3h1.3v0.3h1.6v0.3h2v0.3h3v0.2h7.9V494h2.6v-0.3h2v-0.3h1.3V493h1v-0.3h1v-0.3h0.7V492h0.7v-0.3h0.3v-0.3h0.7V491h0.3v-0.3
							h0.7v-0.3h0.3v-0.7h0.3v-0.3h0.3v-0.3h0.3v-0.3h0.3v-0.7h0.3v-1h0.3v-0.7h0.3v-1h0.3v-1.6h0.3v-4h0.3v-3.3h-0.3v-4.3H130v-1
							h-0.3V470h-0.3v-0.3H129V469h-0.3v-0.7h-0.3V468H128v-0.3h-0.3v-0.3h-0.3V467h-0.3v-0.3h-0.7v-0.3h-0.7V466h-0.3v-0.3h-0.7
							v-0.3h-0.7V465h-1v-0.3h-1v-0.3h-1v-0.3h-1v-0.3h-1v-0.3h-1.3v-0.3h-1.3v-0.3h-1.3v-0.3h-1.3v-0.3h-1.3v-0.3h-1.3v-0.3h-0.7
							v-0.3h-1v-0.3H109v-0.3h-0.3v-0.3h-0.3v-0.7H108v-1h-0.3v-3.6h0.3v-1.3h0.3v-0.7h0.3v-0.3h0.3v-0.3h0.7v-0.3h1v-0.3h8.6v0.3h3
							v0.3h2.3v0.3h2.3v0.3h1.6v-2.6h0.3v-2.6h0.3V445h0.3v-2H129v-0.3h-2v-0.3h-2V442h-2.3v-0.3h-2.6v-0.3H113.9z M428.6,441.3
							h-0.3h-5.6v0.3h-2v0.3H419v0.3h-1v0.3h-1v0.3h-0.7v0.3h-0.7v0.3h-0.3v0.3h-0.7v0.3h-0.3v0.3h-0.3v0.3h-0.3v0.3h-0.3v0.3h-0.3
							v0.3h-0.3v0.3h-0.3v0.7h-0.3v1h-0.3v0.7h-0.3v1h-0.3v1.6h-0.3v10.2h0.3v1.6h0.3v1.3h0.3v1h0.3v0.3h0.3v0.7h0.3v0.3h0.3v0.7
							h0.3v0.3h0.7v0.3h0.3v0.3h0.3v0.3h0.3v0.3h0.7v0.3h0.7v0.3h0.7v0.3h1v0.3h1v0.3h1v0.3h1v0.3h1.3v0.3h1.3v0.3h1.3v0.3h1.6v0.3
							h1.3v0.3h1v0.3h1.3v0.3h0.7v0.3h0.7v0.3h0.7v0.3h0.3v0.3h0.3v0.3h0.3v1h0.3v4.6h-0.3v1.3h-0.3v0.3h-0.3v0.3h-0.3v0.3h-0.3v0.3
							h-0.7v0.3h-1v0.3h-6.6v-0.3H420v-0.3h-2v-0.3h-1.3v-0.3h-1.3v-0.3h-1.3v-0.3h-1.3v-0.3h-1.3v1.6h-0.3v1.3h-0.3v1.6h-0.3v1.6
							h-0.3v1.3h-0.3v1.6h0.3v0.3h1v0.3h0.7v0.3h1v0.3h1v0.3h1.3v0.3h1.3v0.3h1.3v0.3h2.3v0.3h3v0.2h7.6V494h3v-0.3h2v-0.3h1.3V493
							h1v-0.3h0.7v-0.3h1V492h0.3v-0.3h0.7v-0.3h0.3V491h0.7v-0.3h0.3v-0.3h0.3v-0.3h0.3v-0.3h0.3v-0.3h0.3v-0.7h0.3v-0.3h0.3v-0.7
							h0.3v-1h0.3v-0.7h0.3v-1.3h0.3v-2h0.3v-9.2H445v-2h-0.3v-1h-0.3v-1H444v-0.3h-0.3v-0.7h-0.3V468h-0.7v-0.3h-0.3v-0.3h-0.3V467
							h-0.3v-0.3h-0.3v-0.3h-0.7V466h-0.7v-0.3h-0.7v-0.3h-0.7V465h-0.7v-0.3h-1v-0.3h-1v-0.3h-1v-0.3h-1.3v-0.3h-1.3v-0.3h-1v-0.3
							h-1.3v-0.3h-1.3v-0.3h-1.3v-0.3h-1.3v-0.3h-1v-0.3h-0.7v-0.3H424v-0.3h-0.3v-0.3h-0.3v-0.3H423v-0.7h-0.3v-5.3h0.3v-0.7h0.3
							v-0.3h0.3v-0.7h1v-0.3h1v-0.3h8.6v0.3h3v0.3h2.3v0.3h2v0.3h1.6v-1h0.3v-2.6h0.3v-3h0.3v-2.6h0.3V443H444v-0.3h-2.3v-0.3h-2
							V442h-2v-0.3h-2.6v-0.3H428.6z"/>
					</defs>
					<clipPath id="SVGID_6_">
						<use xlink:href="#SVGID_5_"  style="overflow:visible;"/>
					</clipPath>
					
						<radialGradient id="SVGID_7_" cx="0" cy="0" r="1" gradientTransform="matrix(414.1157 0 0 63.3279 113.1895 445.7698)" gradientUnits="userSpaceOnUse">
						<stop  offset="0" style="stop-color:#4696D2"/>
						<stop  offset="7.454693e-03" style="stop-color:#4594D0"/>
						<stop  offset="0.2113" style="stop-color:#306892"/>
						<stop  offset="0.4065" style="stop-color:#1F435E"/>
						<stop  offset="0.5881" style="stop-color:#122636"/>
						<stop  offset="0.753" style="stop-color:#081119"/>
						<stop  offset="0.8957" style="stop-color:#020407"/>
						<stop  offset="1" style="stop-color:#000001"/>
					</radialGradient>
					<rect x="6.3" y="441.3" class="st2" width="489.8" height="52.9"/>
				</g>
			</g>
		</g>
	</g>
	<g>
		<defs>
			<path id="SVGID_8_" d="M244.4,329.1l-79.4,33.8c-0.9,0.4-1.2,1.4-0.6,2.3l31.3,43.7c0.7,0.8,1.5,1.4,2.3,1.6
				c16.3,4.1,32.6,6.2,50.1,6.2c17.7,0,34.9-2.2,51.3-6.5c1-0.3,1.8-0.7,2.7-1.8c0.9-1.1,28.6-44.2,28.6-44.2
				c0.6-0.9,0.2-1.9-0.7-2.3l-82-32.9l-1.7-0.3L244.4,329.1 M428.9,170.5l-41.8,56.8c-0.6,0.8-1.2,2.3-1.2,3.4l-6.5,96.2
				c-0.1,1,0.7,1.7,1.7,1.5c0,0,36.7-6.6,38.3-7.1c1.5-0.4,2.4-1.4,2.7-2c19-30.8,30.1-67.6,30.4-106.3v0c0-0.5-0.2-1.6-0.6-2.6
				c-0.4-1-21-39.8-21-39.8l-1-0.7L428.9,170.5 M58,170.1l-13.5,27.2c0,0-0.6,1.2-0.7,2.9c-0.3,4-0.4,7.9-0.4,12
				c0,38.8,10.9,75.2,29.7,106.1l2.6,1.9l34.7,7.9c1,0.2,1.8-0.4,1.7-1.4l-4.5-95.5c-0.1-1-0.6-2.5-1.3-3.3L60,169.9l-1-0.6
				L58,170.1 M222.8,147.2c-1,0-2.2,0.8-2.5,1.8l-11,32.9c-0.3,1,0.2,1.5,1.1,1.1l65.3-23.9c1-0.3,1.5-1.4,1.2-2.4l-2.7-8.3
				c-0.3-1-1.4-1.8-2.4-1.8L222.8,147.2 M245.8,256.9L178,207.7c-0.8-0.6-1.2-1.9-0.9-2.8l25.9-79.7c0.3-1,1.4-1.8,2.5-1.8l82.9,0.2
				c1,0,2.1,0.8,2.4,1.8l15.7,45.5c0.3,1-0.2,2.1-1.2,2.4l-87.5,32.4c-1,0.3-1.1,1.1-0.2,1.7l28.2,20.1c0.8,0.6,2.2,0.6,3.1,0
				l60.8-41.2c0.9-0.6,1.8-0.3,2.1,0.7l5.8,17.8c0.3,1-0.1,2.3-0.9,2.8l-67.8,49.3l-1.5,0.5L245.8,256.9 M186.9,97.7
				c-1,0-2.1,0.8-2.5,1.8l-37.3,115c-0.3,1,0.1,2.3,0.9,2.9l97.8,71.1c0.8,0.6,2.2,0.6,3,0l97.8-71.1c0.8-0.6,1.2-1.9,0.9-2.9
				l-37.3-115c-0.3-1-1.4-1.8-2.4-1.8H186.9 M194.1,14.8C149.2,27,110.7,54.3,83.6,90.5c-0.6,0.8-0.6,1.9-0.6,1.9l0.3,13.7
				c0,1,0.8,1.5,1.7,1l76.5-37.6c0.9-0.5,2.3-1.4,3-2.2l45.7-49c0.7-0.7,0.5-1.5-0.6-1.6l-13.2-2.1l-0.8-0.1L194.1,14.8 M291.1,12.3
				l-1.3,0.2l-8.6,3.6c-0.9,0.4-1.1,1.3-0.4,2l48.8,49.5c0.7,0.7,2.1,1.7,3,2.2l76.7,37.1c0.9,0.5,1.7,0,1.7-1l0.1-16.2l-0.5-1.4
				c-28.9-38-70.8-65.5-119.2-76.1l-0.3,0H291.1"/>
		</defs>
		<clipPath id="SVGID_9_">
			<use xlink:href="#SVGID_8_"  style="overflow:visible;"/>
		</clipPath>
		<g class="st3">
			<defs>
				<path id="SVGID_10_" d="M82.9,92.4L82.9,92.4c0,0,0-1.1,0.6-1.9c27.1-36.2,65.7-63.5,110.5-75.7l1.3-0.2l0.8,0.1l13.2,2.1
					c1,0.2,1.2,0.9,0.6,1.6l-6.2,6.7c-15.6,3.7-30.6,9.3-44.6,16.7c-4.5-0.9-9.2-1.3-13.9-1.3c-3.1,0-6.2,0.2-9.2,0.6
					c-20.3,13.3-38,30.1-52.5,49.5C83,91.3,82.9,92.4,82.9,92.4 M410.1,107.2c-0.2,0-0.4-0.1-0.7-0.2l-3.3-1.6
					c-19-28.7-45.8-52.3-78.2-67.4l-1.1-0.1l-0.5-0.1l-2.8,0.5l-5.7,1c-0.2,0-0.4,0.1-0.5,0.2c-0.4,0.2-0.5,0.5-0.5,0.9
					c0,0.2,0.1,0.5,0.2,0.7l18.7,30.1l0,0l-3-1.5c-0.9-0.5-2.3-1.4-3-2.2l-48.8-49.5c-0.7-0.7-0.5-1.7,0.4-2l8.6-3.6l1.3-0.2h0.2
					l0.3,0c48.3,10.5,90.2,38,119.2,76.1l0.5,1.4l-0.1,16.2C411.1,106.8,410.7,107.2,410.1,107.2 M313.7,110.1l-96.1-10.2
					c-0.1-0.7-0.3-1.5-0.5-2.2h-30.2c-1,0-2.1,0.8-2.5,1.8c0.3-1,1.4-1.8,2.5-1.8h120.9c1,0,2.1,0.8,2.4,1.8L313.7,110.1
					 M211.5,123.3l-0.8,0L211.5,123.3L211.5,123.3 M209.9,183.1c-0.6,0-0.8-0.5-0.6-1.2l11-32.9c0.3-1,1.4-1.8,2.5-1.8l48.9-0.7
					c1,0,2.1,0.8,2.4,1.8l0.3,1.1l-48.6-2.2c0,0-0.1,0-0.1,0c-0.5,0-1,0.2-1.4,0.4c-0.2,0.1-0.4,0.3-0.5,0.4
					c-0.2,0.2-0.4,0.5-0.5,0.8l-6.2,16.2l-6.2,16.2c-0.1,0.2-0.1,0.4-0.1,0.6c0,0.4,0.3,0.7,0.7,0.7c0.1,0,0.3,0,0.5-0.1l0.8-0.2
					l-2.3,0.8C210.3,183,210.1,183.1,209.9,183.1 M149.4,207.3l6.6-20.4c0.9-0.1,1.8-0.3,2.7-0.5L149.4,207.3 M228.7,215.3
					l-11.1-7.9c-0.8-0.6-0.7-1.4,0.2-1.7l87.5-32.4c1-0.4,1.5-1.4,1.2-2.4l-15-43.4l1.1,0.1l0.9,0.1c0.6,0,1.2,0.3,1.7,0.7
					c0.3,0.3,0.6,0.7,0.7,1.1l12.7,44.5c0.1,0.2,0.1,0.3,0,0.3c-0.1,0-0.3-0.2-0.5-0.5c-0.2-0.2-0.4-0.3-0.7-0.4c-0.1,0-0.2,0-0.3,0
					c-0.1,0-0.2,0-0.2,0l-88.1,32.5c-0.6,0.2-0.9,0.5-0.8,0.9c0,0.1,0,0.1,0,0.2c0.1,0.2,0.2,0.4,0.5,0.6l9.4,7.2L228.7,215.3
					L228.7,215.3L228.7,215.3 M345,218.5L345,218.5l-7.3-34.6l9.9,30.5c0.3,1-0.1,2.3-0.9,2.9L345,218.5 M177.7,238.9L148,217.3
					c-0.8-0.6-1.2-1.9-0.9-2.9l1-3.1c0.1,0.6,0.4,1.1,0.8,1.5L177.7,238.9 M246.7,258.5c-0.6,0-1.2-0.2-1.6-0.5l-15.7-12.2
					l-14.6-11.4l31.1,22.6l1.5,0.5l1.5-0.5l67.8-49.3c0.8-0.6,1.2-1.9,0.9-2.8l-4.6-14.1l3-1.8c0.1-0.1,0.1-0.1,0.2-0.1
					c0.1,0,0.3,0.1,0.4,0.2c0.5,0.6,0.8,2.3,1,3l0.9,16.1c0.3,1-0.2,2.3-1,2.8l-69.4,47C247.7,258.3,247.2,258.5,246.7,258.5
					 M435.6,293.4c1-2.3,1.9-4.6,2.8-7c-3.9-3.2-8.2-6-12.8-8.3c3-7.9,5.4-16,7.4-24.4c0.1-0.4,0.2-1.5,0-2.5
					c-0.2-1-10.9-40.5-10.9-40.5c-0.1-0.3-0.3-0.6-0.5-0.7c-0.1-0.1-0.3-0.2-0.5-0.2c0,0,0,0,0,0c-0.3,0-0.5,0.1-0.8,0.3l-35.2,30.5
					l0.7-10c0.1-1,0.6-2.5,1.2-3.4l41.8-56.8l1-0.6l1,0.7c0,0,20.5,38.8,21,39.8c0.4,1,0.6,2.1,0.6,2.6v0
					C452.3,241.5,446.3,268.8,435.6,293.4 M435.4,293.9c0.1-0.1,0.1-0.3,0.2-0.4C435.5,293.6,435.5,293.8,435.4,293.9 M435.2,294.5
					c0.1-0.1,0.1-0.3,0.2-0.4C435.3,294.2,435.2,294.3,435.2,294.5 M435,294.9c0-0.1,0.1-0.1,0.1-0.2C435,294.8,435,294.9,435,294.9
					 M434.8,295.3C434.8,295.3,434.8,295.3,434.8,295.3C434.8,295.3,434.8,295.3,434.8,295.3 M422.1,319.4c0.1-0.1,0.2-0.2,0.2-0.4
					C422.3,319.2,422.2,319.3,422.1,319.4 M400.1,325L400.1,325c9.2-1.7,18.5-3.4,19.3-3.6C418.6,321.6,409.3,323.3,400.1,325
					 M110.8,328.2c-0.1,0-0.3,0-0.4-0.1l-34.7-7.9l-2.6-1.9C54.3,287.3,43.4,251,43.4,212.2c0-4,0.1-8,0.4-12
					c0.1-1.7,0.7-2.9,0.7-2.9L58,170.1l1-0.8l1,0.6l0.6,0.8c-7.5,34.8-5,69.4,5.6,100.9l2,2.3l15,7.2l15,7.2
					c0.2,0.1,0.4,0.2,0.6,0.2c0.3,0,0.6-0.1,0.9-0.4c0.1-0.1,0.1-0.2,0.2-0.3c0.1-0.1,0.1-0.3,0.2-0.5l7-39.8l1-6l4,85.2
					C112.2,327.5,111.6,328.2,110.8,328.2 M330.6,364.2L330.6,364.2 M248,416.7c-17.5,0-33.9-2.1-50.1-6.2c-0.8-0.2-1.6-0.8-2.3-1.6
					l-13.2-18.4c4,1.4,8.1,2.7,12.2,3.9c2.6,0.7,5.2,1.4,7.9,2.1c0,0,0.1,0,0.1,0c0.8,0.2,1.7,0.4,2.6,0.6c14,3.1,27.9,4.7,41.7,4.7
					c2.1,0,4.3,0,6.4-0.1c0.5,0,1-0.1,1.4-0.2c0.2-0.1,0.3-0.1,0.5-0.2c0.3-0.2,0.6-0.4,0.9-0.6c1-0.9,35.1-34.4,35.1-34.4
					c0.7-0.7,0.6-1.7-0.2-2.2v0l-16.8-11.5l-32.4-22.3l2.6-1.1l1.8-0.3l1.7,0.3l72.1,28.9c1,5.3,2.7,10.5,4.8,15.3
					c1.7-2.7,3.2-5,4.3-6.6c-5.9,9.2-26.3,40.8-27,41.7c-0.9,1.1-1.7,1.5-2.7,1.8C282.9,414.5,265.7,416.7,248,416.7"/>
			</defs>
			<clipPath id="SVGID_11_">
				<use xlink:href="#SVGID_10_"  style="overflow:visible;"/>
			</clipPath>
			
				<radialGradient id="SVGID_12_" cx="-44.1335" cy="662.2113" r="8.7248" gradientTransform="matrix(23.3018 0 0 23.3018 1276.2167 -15215.9746)" gradientUnits="userSpaceOnUse">
				<stop  offset="0" style="stop-color:#798089"/>
				<stop  offset="0.3192" style="stop-color:#767D86"/>
				<stop  offset="0.5221" style="stop-color:#6E757E"/>
				<stop  offset="0.6925" style="stop-color:#5F676F"/>
				<stop  offset="0.8449" style="stop-color:#4B525A"/>
				<stop  offset="0.9841" style="stop-color:#313840"/>
				<stop  offset="1" style="stop-color:#2D353C"/>
			</radialGradient>
			<path class="st4" d="M154.6,42.5v-1h-18.9v-1h1v-1h2.1v-1h1v-1h2.1v-1h1v-1h2.1v-1h2.1v-1h2.1v-1h2.1v-1h2.1v-1h1v-1h2.1v-1h2.1
				v-1h2.1v-1h3.1v-1h2.1v-1h2.1v-1h3.1v-1h2.1v-1h3.1v-1h2.1v-1h4.2v-1h3.1v-1h3.1v-1h3.1v-1h7.3v1h7.3v1h4.2v2.1h-1v2.1h-1v1h-1v1
				h-1v1h-1v1h-1v1h-2.1v1h-4.2v1h-3.1v1h-3.1v1h-3.1v1H185v1h-3.1v1h-2.1v1h-3.1v1h-2.1v1h-2.1v1h-2.1v1h-3.1v1h-2.1v1H163v1h-2.1
				v1 M82.4,92.7v-2.1h1v-2.1h1v-1h1v-1h1v-1h1v-2.1h1v-1h1v-1h1v-1h1v-1h1V77h1v-1h1v-1h1v-1h1v-1h1v-1h1v-1h1v-1h1v-1h1v-1h1v-1h1
				v-1h1v-1h1v-1h1v-1h1v-1h1v-1h1v-1h1v-1h2.1v-1h1v-1h1v-1h1v-1h1v-1h1v-1h2.1v-1h1v-1h1v-1h2.1v-1h1v-1h1v-1h2.1v-1h1v-1h1v-1
				h2.1v-1h2.1v1h-1v1h-1v1h-2.1v1h-1v1h-2.1v1h-1v1h-1v1h-2.1v1h-1v1h-1v1h-2.1v1h-1v1h-1v1h-1v1h-1v1h-1v1h-2.1v1h-1v1h-1v1h-1v1
				h-1v1h-1v1h-1v1h-1v1h-1v1h-1v1h-1v1h-1v1h-1v1h-1v1h-1v1h-1v1h-1v1h-1v1h-1v2.1h-1v1h-1v1h-1v1h-1v1h-1v2.1h-1v1h-1v1h-1v1h-1
				v2.1h-1v1H82.4z M407,107.4v-1h-1v-1h-1v-1h-1v-1h-1v-1h-1v-2.1h-1v-1h-1v-1h-1v-2.1h-1v-1h-1v-1h-1v-2.1h-1v-1h-1v-1h-1v-2.1h-1
				v-1h-1v-1h-1v-1h-1v-1h-1v-1h-1v-1h-1v-1h-1v-1h-1v-1h-1v-1h-1v-1h-1v-1h-1v-1h-1v-1h-1v-1h-1v-1h-1v-1h-1v-1h-1v-1h-1v-1h-1v-1
				h-2.1v-1h-1v-1h-1v-1h-2.1v-1h-1v-1h-1v-1h-2.1v-1h-1v-1h-1v-1h-2.1v-1h-1v-1h-1v-1h-2.1v-1h-1v-1h-2.1v-1h-2.1v-1h-1v-1h-2.1v-1
				H341v-1h-2.1v-1h-2.1v-1h-1v-1h-2.1v-1h-2.1v-1h-2.1v-1h-2.1v-1h-3.1v1H319v1h-1v2.1h1v2.1h1v1h1v2.1h1v1h1v2.1h1v2.1h1v1h1v2.1
				h1v1h1v2.1h1v2.1h1v1h1v2.1h1v1h1v2.1h1v2.1h1v2.1h-2.1v-1h-2.1v-1h-1v-1h-1v-1h-1v-1h-1v-1h-1v-1h-1v-1h-1v-1h-1v-1h-1v-1h-1v-1
				h-1v-1h-1v-1h-1v-1h-1v-1h-1v-1h-1v-1h-1v-1h-1v-1h-1v-1h-1v-1h-1v-1h-1v-1h-1v-1h-1v-1h-1v-1h-1v-1h-1v-1h-1v-1h-1v-1h-1v-1h-1
				v-1h-1v-1h-1v-1h-1v-1h-1v-1h-1v-1h-1v-1h-1v-1h-1v-1h-1v-1h-1v-1h-1v-1h-1v-1h-1v-1h-1v-1h-1v-1h-1v-1h-1v-1h-1v-4.2h3.1v-1h2.1
				v-1h2.1v-1h7.3v1h4.2v1h4.2v1h3.1v1h4.2v1h3.1v1h2.1v1h3.1v1h3.1v1h3.1v1h2.1v1h2.1v1h3.1v1h2.1v1h2.1v1h2.1v1h2.1v1h2.1v1h2.1v1
				h2.1v1h1v1h2.1v1h2.1v1h2.1v1h1v1h2.1v1h2.1v1h1v1h1v1h2.1v1h1v1h2.1v1h1v1h1v1h2.1v1h1v1h2.1v1h1v1h1v1h1v1h1v1h2.1v1h1v1h1v1h1
				v1h1v1h1v1h2.1v1h1v1h1v1h1v2.1h1v1h1v1h1v1h1v1h1v1h1v1h1v1h1v1h1v1h1v1h1v1h1v1h1v2.1h1v1h1v1h1v1h1v1h1v2.1h1v2.1h1v5.2h-1
				v12.6H407z M307.5,110.5v-1h-9.4v-1h-10.5v-1h-9.4v-1h-10.5v-1h-9.4v-1h-9.4v-1h-10.5v-1H229v-1h-10.5v-1h-2.1V98h-29.3v1H185v1
				h-1V98h2.1v-1h123.6v1h1v2.1h1v3.1h1v3.1h1v4.2H307.5z M210.1,124.2v-1h2.1v1H210.1z M209.1,183.8v-5.2h1v-3.1h1v-3.1h1v-3.1h1
				V166h1v-3.1h1v-3.1h1v-3.1h1v-3.1h1v-3.1h1v-2.1h1v-1h2.1v-1H274v1h1v3.1h-3.1v-1h-23v-1h-25.1v3.1h-1v2.1h-1v3.1h-1v2.1h-1v3.1
				h-1v3.1h-1v2.1h-1v3.1h-1v2.1h-1v3.1h-1v3.1h-1v2.1h-1v1h2.1v1h-2.1v1H209.1z M149.4,207.9v-4.2h1v-3.1h1v-3.1h1v-3.1h1v-3.1h1
				V188h1v-2.1h3.1v3.1h-1v2.1h-1v3.1h-1v2.1h-1v2.1h-1v2.1h-1v2.1h-1v3.1h-1v2.1H149.4z M227.9,216.3v-1h-1v-1h-2.1v-1h-1v-1h-1v-1
				h-2.1v-1h-1v-1h-2.1v-1h-1v-2.1h1v-1h2.1v-1h3.1v-1h3.1v-1h2.1v-1h3.1v-1h3.1v-1h2.1v-1h3.1v-1h3.1v-1h2.1v-1h3.1v-1h3.1v-1h2.1
				v-1h3.1v-1h3.1v-1h3.1v-1h2.1v-1h3.1v-1h3.1v-1h2.1v-1h3.1v-1h3.1v-1h2.1v-1h3.1v-1h3.1v-1h3.1v-1h2.1v-1h3.1v-1h3.1v-1h2.1v-1
				h3.1v-1h1v-4.2h-1V165h-1v-3.1h-1v-3.1h-1v-3.1h-1v-3.1h-1v-2.1h-1v-3.1h-1v-3.1h-1v-3.1h-1v-3.1h-1v-3.1h-1v-3.1h-1v-3.1h-1v-1
				h5.2v2.1h1v3.1h1v4.2h1v3.1h1v4.2h1v3.1h1v4.2h1v3.1h1v4.2h1v3.1h1v4.2h1v3.1h1v4.2h1v1h-5.2v1h-3.1v1h-2.1v1H296v1h-3.1v1h-3.1
				v1h-2.1v1h-3.1v1h-3.1v1h-2.1v1h-3.1v1H273v1h-3.1v1h-2.1v1h-3.1v1h-3.1v1h-2.1v1h-3.1v1h-3.1v1h-3.1v1h-2.1v1h-3.1v1h-3.1v1
				h-2.1v1h-3.1v1h-3.1v1H230v1h-2.1v1h-3.1v1h-3.1v1h-2.1v2.1h1v1h2.1v1h1v1h1v1h2.1v1h1v1h1v2.1H227.9z M344.2,219.5v-4.2h-1V210
				h-1v-5.2h-1v-4.2h-1v-5.2h-1v-5.2h-1v-4.2h-1v-2.1h2.1v3.1h1v3.1h1v3.1h1v4.2h1v3.1h1v3.1h1v3.1h1v3.1h1v3.1h1v4.2h-1v1h-2.1v1
				H344.2z M176.6,239.3v-1h-2.1v-1h-1v-1h-1v-1h-2.1v-1h-1v-1h-1v-1h-2.1v-1h-1v-1H163v-1h-1v-1h-1v-1h-2.1v-1h-1v-1h-1v-1h-2.1v-1
				h-1v-1h-2.1v-1h-1v-1h-1v-1h-2.1v-2.1h-1v-3.1h1v-2.1h2.1v2.1h1v1h2.1v1h1v1h1v1h1v1h1v1h1v1h1v1h1v1h1v1h2.1v1h1v1h1v1h1v1h1v1
				h1v1h1v1h1v1h1v1h1v1h2.1v1h1v1h1v1h1v1h1v1H176.6z M245.7,259.2v-1h-2.1v-1h-1v-1h-2.1v-1h-1v-1h-1v-1h-2.1v-1h-1v-1h-1v-1h-1
				v-1h-2.1v-1h-1v-1h-1v-1h-2.1v-1h-1v-1h-1v-1h-1v-1h-2.1v-1h-1v-1h-1v-1h-2.1v-1h-1v-1h-1v-1h-1v-1h2.1v1h1v1h2.1v1h1v1h1v1h2.1
				v1h1v1h2.1v1h1v1h1v1h2.1v1h1v1h1v1h2.1v1h1v1h2.1v1h1v1h1v1h2.1v1h1v1h2.1v1h1v1h1v-1h2.1v-1h1v-1h1v-1h2.1v-1h1v-1h1v-1h2.1v-1
				h1v-1h2.1v-1h1v-1h1v-1h2.1v-1h1v-1h1v-1h2.1v-1h1v-1h2.1v-1h1v-1h1v-1h2.1v-1h1v-1h1v-1h2.1v-1h1v-1h2.1v-1h1v-1h1v-1h2.1v-1h1
				v-1h2.1v-1h1v-1h1v-1h2.1v-1h1v-1h1v-1h2.1v-1h1v-1h2.1v-1h1v-1h1v-1h2.1v-1h1v-1h1v-1h2.1v-1h1v-1h2.1v-1h1v-1h1v-3.1h-1v-4.2
				h-1v-3.1h-1v-3.1h-1v-3.1h1v-1h1v-1h2.1v1h1v9.4h1v12.6h-1v1h-1v1h-2.1v1h-1v1h-2.1v1h-1v1h-2.1v1h-1v1h-2.1v1h-1v1h-2.1v1h-1v1
				h-2.1v1h-1v1H296v1h-1v1h-2.1v1h-1v1h-2.1v1h-1v1h-2.1v1h-1v1h-1v1h-2.1v1h-1v1h-2.1v1h-1v1h-2.1v1h-1v1H273v1h-1v1h-2.1v1h-1v1
				h-2.1v1h-1v1h-2.1v1h-1v1h-2.1v1h-1v1h-2.1v1h-1v1h-2.1v1h-1v1h-1v1h-2.1v1h-2.1v1H245.7z M437.4,288.6v-2.1h-1v-1h-1v-1h-2.1v-1
				h-1v-1H430v-1h-1v-1h-2.1v-1h-2.1V277h1v-3.1h1v-4.2h1v-3.1h1v-3.1h1v-3.1h1v-4.2h1v-8.4h-1v-3.1h-1v-4.2h-1v-4.2h-1v-3.1h-1
				v-4.2h-1v-4.2h-1v-3.1h-1v-4.2h-1v-4.2h-1v-2.1h-2.1v1h-1v1h-1v1h-1v1h-1v1h-1v1h-2.1v1h-1v1h-1v1h-1v1h-1v1h-1v1h-2.1v1h-1v1h-1
				v1h-1v1h-1v1h-1v1h-1v1h-2.1v1h-1v1h-1v1h-1v1h-1v1h-1v1h-2.1v1h-1v1h-1v1h-1v1h-1v-12.6h1v-2.1h1v-1h1v-2.1h1v-1h1v-1h1v-2.1h1
				v-1h1v-1h1v-2.1h1v-1h1v-2.1h1v-1h1v-1h1v-2.1h1v-1h1v-1h1v-2.1h1v-1h1v-1h1v-2.1h1v-1h1v-2.1h1v-1h1v-1h1v-2.1h1v-1h1v-1h1V188
				h1v-1h1v-1h1v-2.1h1v-1h1v-1h1v-2.1h1v-1h1v-2.1h1v-1h1v-1h1v-2.1h1v-1h1v-1h1v-1h2.1v1h1v2.1h1v2.1h1v2.1h1v2.1h1v2.1h1v2.1h1
				v2.1h1v1h1v2.1h1v2.1h1v2.1h1v2.1h1v2.1h1v2.1h1v2.1h1v2.1h1v1h1v2.1h1v2.1h1v2.1h1v9.4h-1v13.6h-1v9.4h-1v6.3h-1v4.2h-1v5.2h-1
				v5.2h-1v4.2h-1v4.2h-1v2.1h-1v3.1h-1v3.1h-1v3.1h-1v2.1h-1v3.1H437.4z M434.2,295.9v-2.1h1v-3.1h1v-2.1h1v3.1h-1v3.1h-1v1H434.2z
				 M421.7,320v-1h1v1H421.7z M399.7,325.2v-1h4.2v-1h6.3v-1h5.2v-1h4.2v1h-3.1v1h-5.2v1h-6.3v1H399.7z M106.5,328.4v-1h-4.2v-1H97
				v-1h-4.2v-1h-4.2v-1h-5.2v-1h-4.2v-1H75v-1h-1v-1h-2.1v-2.1h-1v-2.1h-1v-2.1h-1v-2.1h-1v-2.1h-1v-2.1h-1v-2.1h-1v-2.1h-1v-2.1h-1
				V298h-1v-2.1h-1v-2.1h-1v-2.1h-1v-3.1h-1v-3.1h-1v-3.1h-1v-3.1h-1V277h-1v-3.1h-1v-3.1h-1v-3.1h-1v-5.2h-1v-5.2h-1V253h-1v-5.2
				h-1v-5.2h-1v-12.6h-1v-14.7h-1v-8.4h1v-10.5h1v-2.1h1v-2.1h1v-2.1h1V188h1v-2.1h1v-2.1h1v-2.1h1v-2.1h1v-2.1h1v-2.1h1v-2.1h1
				v-2.1h1v-2.1h3.1v1h1v3.1h-1v7.3h-1v7.3h-1v7.3h-1v30.4h1v8.4h1v8.4h1v6.3h1v4.2h1v4.2h1v3.1h1v4.2h1v4.2h1v3.1h1v1h1v1h2.1v1
				h2.1v1H75v1h2.1v1h3.1v1h2.1v1h2.1v1h2.1v1h2.1v1h2.1v1h2.1v1h2.1v1H97v1h2.1v-1h1v-6.3h1v-6.3h1v-5.2h1v-6.3h1v-5.2h1v-6.3h1
				v-6.3h1v-3.1h1v7.3h1v23h1v22h1v23h1v11.5H106.5z M330.6,365v-1h1v1H330.6z M241.5,417.4v-1h-16.8v-1h-7.3v-1h-6.3v-1h-5.2v-1
				h-5.2v-1h-4.2v-1h-1v-1h-1v-1h-1v-2.1h-1v-1h-1v-1h-1v-2.1h-1v-1h-1v-2.1h-1v-1h-1v-1h-1v-2.1h-1v-1h-1v-2.1h-1v-1h3.1v1h3.1v1
				h3.1v1h4.2v1h3.1v1h4.2v1h5.2v1h6.3v1h6.3v1h6.3v1h18.9v1h5.2v-1h4.2v-1h1v-1h1v-1h1v-1h1v-1h1v-1h2.1v-1h1v-1h1v-1h1v-1h1v-1h1
				v-1h1v-1h1v-1h1v-1h1v-1h1v-1h1v-1h1v-1h1v-1h1v-1h1v-1h1v-1h1v-1h1v-1h1v-1h1v-1h1v-1h1v-1h1v-1h1v-1h1v-1h1v-1h1V364h-2.1v-1
				h-1v-1h-2.1v-1h-1v-1h-2.1v-1h-1v-1h-2.1v-1h-1v-1h-1v-1h-2.1v-1h-1v-1h-2.1v-1h-1v-1h-2.1v-1h-1v-1h-2.1v-1h-1v-1h-1v-1h-2.1v-1
				h-1v-1h-2.1v-1h-1v-1h-2.1v-1h-1v-1H252v-1h-1v-1h-2.1v-1h-1v-1h-1v-1h-2.1v-1h-1v-1h-2.1v-2.1h1v-1h6.3v1h3.1v1h2.1v1h3.1v1h2.1
				v1h3.1v1h2.1v1h3.1v1h2.1v1h3.1v1h2.1v1h3.1v1h2.1v1h3.1v1h2.1v1h3.1v1h2.1v1h3.1v1h2.1v1h3.1v1h2.1v1h3.1v1h2.1v1h3.1v1h2.1v1
				h3.1v1h2.1v1h3.1v1h1v4.2h1v4.2h1v2.1h1v3.1h1v-1h1v-2.1h1v-1h1v-1h1v2.1h-1v1h-1v2.1h-1v1h-1v2.1h-1v2.1h-1v1h-1v2.1h-1v1h-1
				v2.1h-1v1h-1v2.1h-1v1h-1v2.1h-1v2.1h-1v1h-1v2.1h-1v1h-1v2.1h-1v1h-1v2.1h-1v1h-1v2.1h-1v1h-1v2.1h-1v1h-1v2.1h-2.1v1H295v1
				h-5.2v1h-5.2v1h-5.2v1h-8.4v1h-16.8v1H241.5z"/>
		</g>
	</g>
	<g>
		<path class="st5" d="M347.7,231l-25-118.2c-0.2-1-1.2-1.9-2.2-2L200.1,98c-1-0.1-2.2,0.6-2.6,1.5l-49.3,110.4
			c-0.4,0.9-0.1,2.3,0.6,3l89.8,81c0.7,0.7,2.1,0.8,3,0.3l104.8-60.4C347.3,233.3,347.8,232.1,347.7,231 M317.5,211.1l-69.4,47
			c-0.8,0.6-2.2,0.5-3-0.1l-66.1-51.5c-0.8-0.6-1.2-1.9-0.8-2.9l30.2-78.6c0.4-1,1.5-1.7,2.5-1.7l82.8,4.3c1,0,2.1,0.9,2.4,1.9
			l12.7,44.5c0.2,0.5-0.1,0.2-0.5-0.2c-0.3-0.3-0.7-0.6-1.2-0.4l-88.1,32.5c-1,0.3-1.1,1.1-0.3,1.7l27.5,21c0.8,0.6,2.2,0.7,3.1,0.1
			l66.9-39.7c0.9-0.5,1.3,2.2,1.6,3.2l0.9,16.1C318.8,209.2,318.3,210.5,317.5,211.1 M278.9,162.8L212,182.3c-1,0.3-1.5-0.2-1.1-1.2
			l12.5-32.3c0.4-1,1.5-1.7,2.5-1.7l49.1,2.2c1,0,2.1,0.9,2.4,1.9l2.9,9.2C280.5,161.4,279.9,162.5,278.9,162.8 M119,80.7l2.5-12.5
			l1-1.6c32.1-27.4,72.8-44.3,116.1-46.2c1.1-0.1,1.9,0.4,1.9,0.4l11.6,4.6c0.9,0.4,1,1.1,0.2,1.6l-51.6,35.2
			c-0.8,0.5-2.2,1.2-3.1,1.4l-77.3,18.5C119.4,82.2,118.9,81.6,119,80.7 M115.6,199.4l-15.6,87.8c-0.2,0.9-1,1.4-1.9,1l-29.9-14.3
			l-2-2.3c-10.8-32-13.2-67.3-5.2-102.6c0.8-3.7,1.8-7.3,2.8-10.8c0.4-1.5,1.3-2.5,1.3-2.5l17.8-22c0.6-0.7,1.4-0.7,1.9,0.2
			l30.3,62.2C115.6,197,115.8,198.5,115.6,199.4 M316.9,41.2c-0.5-0.8-0.2-1.6,0.8-1.8l8.5-1.5l1.6,0.2
			c41.8,19.5,74.3,53.2,92.8,93.7l0.1,1.3l-3.4,14.7c-0.2,0.9-1,1.2-1.8,0.6l-62.2-49.5c-0.8-0.6-1.8-1.7-2.3-2.6L316.9,41.2
			 M433.1,253.8c-8.2,35.2-25.8,66.4-49.4,90.5c-0.4,0.4-1.5,1.2-2.9,1.2c-1.5,0.1-36.3-1.4-36.3-1.4c-1-0.1-1.5-0.8-1.3-1.7
			l25.6-86.3c0.3-0.9,1.1-2.2,1.8-2.8l49.7-43.1c0.7-0.6,1.5-0.4,1.8,0.5c0,0,10.7,39.5,10.9,40.5
			C433.3,252.3,433.2,253.3,433.1,253.8 M291.2,366.2c0,0-34.1,33.5-35.1,34.4c-1,0.8-1.9,1.1-2.8,1.1c-15.8,0.6-31.9-1-48-4.6
			c-15.9-3.6-30.4-8.9-44.4-15.9c-0.7-0.4-1.3-1-1.7-1.9L139.7,333c-0.4-0.9,0.1-1.7,1-1.9l79.2-14.5c1-0.2,2.4,0.1,3.2,0.7L291,364
			L291.2,366.2"/>
		<path d="M241.8,330.2l-76.9,32.7c-0.9,0.4-1.2,1.4-0.6,2.3c0,0,9.5,13.3,18,25.3c7.3,2.6,14.9,4.8,22.9,6.6
			c16.1,3.6,32.2,5.1,48,4.6c1,0,1.8-0.2,2.8-1.1c1-0.9,35.1-34.4,35.1-34.4c0.7-0.7,0.6-1.7-0.2-2.2L241.8,330.2 M106.4,227.8
			l-45.7-57.1c-7.5,34.7-5,69.4,5.6,100.8l2,2.3l29.9,14.3c0.9,0.4,1.7,0,1.9-1l8.1-45.7l-0.5-10.4
			C107.6,230.1,107.1,228.6,106.4,227.8 M335.7,71.4l70.3,34c-19-28.7-45.8-52.3-78.1-67.3l-1.6-0.2l-8.5,1.5
			c-0.9,0.2-1.3,1-0.8,1.8L335.7,71.4 M161.4,69.6c0.9-0.5,2.3-1.4,3-2.2l39.4-42.2c-30.1,7.1-57.9,21.5-81.2,41.3l-1,1.6L119,80.7
			c-0.2,0.9,0.4,1.5,1.3,1.3l31.1-7.4L161.4,69.6 M433.1,251.3c-0.2-1-10.9-40.5-10.9-40.5c-0.3-0.9-1-1.2-1.8-0.6l-35.2,30.5
			l-5.8,86.3c-0.1,1,0.7,1.7,1.7,1.5c0,0,9.4-1.7,19-3.5c15.4-20.6,26.9-44.8,33-71.3C433.2,253.3,433.3,252.3,433.1,251.3
			 M276.9,156.6l-2.4-7.3l-48.6-2.2c-1,0-2.2,0.7-2.5,1.7l-12.5,32.3c-0.3,0.9,0.1,1.5,1.1,1.2l0.8-0.2l62.9-23.1
			C276.7,158.7,277.2,157.6,276.9,156.6 M313.7,110.1L200.1,98c-1-0.1-2.2,0.6-2.6,1.5l-48.1,107.8l-1.3,3.8l0.7,1.7l28.8,26
			l68.1,49.5c0.8,0.6,2.2,0.6,3,0l96.1-69.9l-7.3-34.7L313.7,110.1 M317.5,211.1l-69.4,47c-0.8,0.6-2.2,0.5-3-0.1l-30.4-23.6
			L178,207.7c-0.8-0.6-1.2-1.9-0.9-2.9l25.9-79.7c0.3-1,1.4-1.8,2.5-1.8l5.2,0l0.1,0l0.7,0l76.9,0.2c1,0,2.1,0.8,2.4,1.8l0.8,2.2
			l2,0.1c1,0,2.1,0.9,2.4,1.9l12.7,44.5c0.2,0.5-0.1,0.2-0.5-0.2c-0.3-0.3-0.8-0.6-1.2-0.4l-88.1,32.5c-1,0.3-1.1,1.1-0.3,1.7
			l10.1,7.7l17.2,12.2c0.8,0.6,2.2,0.6,3.1,0l60.8-41.2c0.9-0.6,1.8-0.3,2.1,0.7l1.2,3.7l3-1.8c0.9-0.5,1.3,2.2,1.6,3.2l0.9,16.1
			C318.8,209.2,318.3,210.5,317.5,211.1"/>
	</g>
	<g>
		<defs>
			<rect id="SVGID_13_" x="390.3" y="269.7" width="3.1" height="1"/>
		</defs>
		<clipPath id="SVGID_14_">
			<use xlink:href="#SVGID_13_"  style="overflow:visible;"/>
		</clipPath>
		
			<radialGradient id="SVGID_15_" cx="-25.687" cy="658.4978" r="8.727" gradientTransform="matrix(8.4351 0 0 8.4351 608.879 -5210.7505)" gradientUnits="userSpaceOnUse">
			<stop  offset="0" style="stop-color:#000001"/>
			<stop  offset="1" style="stop-color:#000001"/>
		</radialGradient>
		<rect x="390.3" y="269.7" class="st6" width="3.1" height="1"/>
	</g>
	<g>
		<defs>
			<path id="SVGID_16_" d="M324.7,373.2c3.4-5.3,5.8-9.1,5.8-9.1c0.6-0.9,0.2-1.9-0.7-2.3l-9.9-4C321,363.3,322.6,368.4,324.7,373.2
				 M362.8,276.2l-19.7,66.2c-0.3,0.9,0.3,1.7,1.3,1.7c0,0,34.8,1.5,36.3,1.4c1.5-0.1,2.5-0.8,2.9-1.2c5.9-6,11.4-12.4,16.4-19.2
				c9.2-1.7,18.5-3.4,19.3-3.6c1.5-0.4,2.4-1.4,2.7-2c6.4-10.4,11.9-21.4,16.4-33c-12.6-10.2-28.7-16.3-46.2-16.3
				C381.8,270.1,371.9,272.3,362.8,276.2"/>
		</defs>
		<clipPath id="SVGID_17_">
			<use xlink:href="#SVGID_16_"  style="overflow:visible;"/>
		</clipPath>
		<g class="st7">
			<defs>
				<polyline id="SVGID_18_" points="320,373.2 438.5,373.2 438.5,270.1 320,270.1 320,373.2 				"/>
			</defs>
			<clipPath id="SVGID_19_">
				<use xlink:href="#SVGID_18_"  style="overflow:visible;"/>
			</clipPath>
			<g class="st8">
				<defs>
					<path id="SVGID_20_" d="M329.9,361.9l-9.9-4c0,0,0,0,0,0L329.9,361.9 M330.6,364.2C330.6,364.2,330.6,364.2,330.6,364.2
						c0.2-0.3,0.3-0.6,0.3-0.9C330.9,363.6,330.8,363.9,330.6,364.2C330.6,364.2,330.6,364.2,330.6,364.2 M329,366.6
						c0.9-1.4,1.5-2.3,1.6-2.4C330.5,364.3,329.9,365.2,329,366.6"/>
				</defs>
				<clipPath id="SVGID_21_">
					<use xlink:href="#SVGID_20_"  style="overflow:visible;"/>
				</clipPath>
				<g class="st9">
					<defs>
						<rect id="SVGID_22_" x="315.8" y="355.5" width="18" height="15.9"/>
					</defs>
					<clipPath id="SVGID_23_">
						<use xlink:href="#SVGID_22_"  style="overflow:visible;"/>
					</clipPath>
					<g style="clip-path:url(#SVGID_23_);">
						
							<image style="overflow:visible;" width="8" height="7" xlink:href="96C72663.jpg"  transform="matrix(2.2516 0 0 2.274 315.793 355.4879)">
						</image>
					</g>
				</g>
			</g>
		</g>
	</g>
	<g>
		<defs>
			<path id="SVGID_24_" d="M324.7,373.2c3.4-5.3,5.8-9.1,5.8-9.1c0.6-0.9,0.2-1.9-0.7-2.3l-9.9-4C321,363.3,322.6,368.4,324.7,373.2
				 M362.8,276.2l-19.7,66.2c-0.3,0.9,0.3,1.7,1.3,1.7c0,0,34.8,1.5,36.3,1.4c1.5-0.1,2.5-0.8,2.9-1.2c5.9-6,11.4-12.4,16.4-19.2
				c9.2-1.7,18.5-3.4,19.3-3.6c1.5-0.4,2.4-1.4,2.7-2c6.4-10.4,11.9-21.4,16.4-33c-12.6-10.2-28.7-16.3-46.2-16.3
				C381.8,270.1,371.9,272.3,362.8,276.2"/>
		</defs>
		<clipPath id="SVGID_25_">
			<use xlink:href="#SVGID_24_"  style="overflow:visible;"/>
		</clipPath>
		<g class="st10">
			<defs>
				<polyline id="SVGID_26_" points="320,373.2 438.5,373.2 438.5,270.1 320,270.1 320,373.2 				"/>
			</defs>
			<clipPath id="SVGID_27_">
				<use xlink:href="#SVGID_26_"  style="overflow:visible;"/>
			</clipPath>
			<g class="st11">
				<defs>
					<path id="SVGID_28_" d="M324.7,373.2c-2.1-4.8-3.7-10-4.8-15.3l9.9,4c0.6,0.3,1,0.8,1,1.4c0,0.3-0.1,0.6-0.3,0.9c0,0,0,0,0,0
						l0,0c-0.1,0.1-0.7,1-1.6,2.4C328,368.2,326.5,370.5,324.7,373.2"/>
				</defs>
				<clipPath id="SVGID_29_">
					<use xlink:href="#SVGID_28_"  style="overflow:visible;"/>
				</clipPath>
				<g class="st12">
					<defs>
						<rect id="SVGID_30_" x="315.8" y="355.5" width="18" height="22.2"/>
					</defs>
					<clipPath id="SVGID_31_">
						<use xlink:href="#SVGID_30_"  style="overflow:visible;"/>
					</clipPath>
					<g style="clip-path:url(#SVGID_31_);">
						
							<image style="overflow:visible;" width="8" height="10" xlink:href="96C72661.jpg"  transform="matrix(2.2516 0 0 2.2201 315.793 355.4879)">
						</image>
					</g>
				</g>
			</g>
		</g>
	</g>
	<g>
		<defs>
			<path id="SVGID_32_" d="M324.7,373.2c3.4-5.3,5.8-9.1,5.8-9.1c0.6-0.9,0.2-1.9-0.7-2.3l-9.9-4C321,363.3,322.6,368.4,324.7,373.2
				 M362.8,276.2l-19.7,66.2c-0.3,0.9,0.3,1.7,1.3,1.7c0,0,34.8,1.5,36.3,1.4c1.5-0.1,2.5-0.8,2.9-1.2c5.9-6,11.4-12.4,16.4-19.2
				c9.2-1.7,18.5-3.4,19.3-3.6c1.5-0.4,2.4-1.4,2.7-2c6.4-10.4,11.9-21.4,16.4-33c-12.6-10.2-28.7-16.3-46.2-16.3
				C381.8,270.1,371.9,272.3,362.8,276.2"/>
		</defs>
		<clipPath id="SVGID_33_">
			<use xlink:href="#SVGID_32_"  style="overflow:visible;"/>
		</clipPath>
		<g class="st13">
			<defs>
				<polyline id="SVGID_34_" points="320,373.2 438.5,373.2 438.5,270.1 320,270.1 320,373.2 				"/>
			</defs>
			<clipPath id="SVGID_35_">
				<use xlink:href="#SVGID_34_"  style="overflow:visible;"/>
			</clipPath>
			<g class="st14">
				<defs>
					<path id="SVGID_36_" d="M435.6,293.5C435.6,293.5,435.6,293.4,435.6,293.5C435.6,293.4,435.6,293.5,435.6,293.5 M435.4,294
						c0,0,0-0.1,0.1-0.1C435.4,294,435.4,294,435.4,294 M435,294.7c0.1-0.1,0.1-0.2,0.1-0.3C435.1,294.6,435.1,294.7,435,294.7
						 M434.8,295.3c0.1-0.1,0.1-0.2,0.1-0.3C434.9,295,434.9,295.1,434.8,295.3 M422.3,319.1c4.6-7.6,8.8-15.5,12.5-23.8
						C431.2,303.5,427,311.5,422.3,319.1 M344.3,344.1c-0.9-0.1-1.4-0.9-1.1-1.7l19.7-66.2c0,0,0,0,0,0l-19.7,66.2
						C342.9,343.2,343.4,344,344.3,344.1 M380.5,345.5L380.5,345.5c0.1,0,0.2,0,0.3,0c0.7,0,1.3-0.2,1.8-0.5
						c-0.5,0.2-1.1,0.5-1.8,0.5C380.7,345.5,380.6,345.5,380.5,345.5"/>
				</defs>
				<clipPath id="SVGID_37_">
					<use xlink:href="#SVGID_36_"  style="overflow:visible;"/>
				</clipPath>
				<g class="st15">
					<defs>
						<rect id="SVGID_38_" x="338.8" y="273.8" width="99.7" height="76.7"/>
					</defs>
					<clipPath id="SVGID_39_">
						<use xlink:href="#SVGID_38_"  style="overflow:visible;"/>
					</clipPath>
					<g style="clip-path:url(#SVGID_39_);">
						
							<image style="overflow:visible;" width="47" height="36" xlink:href="96C72667.jpg"  transform="matrix(2.1212 0 0 2.1294 338.8324 273.8034)">
						</image>
					</g>
				</g>
			</g>
		</g>
	</g>
	<g>
		<defs>
			<path id="SVGID_40_" d="M324.7,373.2c3.4-5.3,5.8-9.1,5.8-9.1c0.6-0.9,0.2-1.9-0.7-2.3l-9.9-4C321,363.3,322.6,368.4,324.7,373.2
				 M362.8,276.2l-19.7,66.2c-0.3,0.9,0.3,1.7,1.3,1.7c0,0,34.8,1.5,36.3,1.4c1.5-0.1,2.5-0.8,2.9-1.2c5.9-6,11.4-12.4,16.4-19.2
				c9.2-1.7,18.5-3.4,19.3-3.6c1.5-0.4,2.4-1.4,2.7-2c6.4-10.4,11.9-21.4,16.4-33c-12.6-10.2-28.7-16.3-46.2-16.3
				C381.8,270.1,371.9,272.3,362.8,276.2"/>
		</defs>
		<clipPath id="SVGID_41_">
			<use xlink:href="#SVGID_40_"  style="overflow:visible;"/>
		</clipPath>
		<g class="st16">
			<defs>
				<polyline id="SVGID_42_" points="320,373.2 438.5,373.2 438.5,270.1 320,270.1 320,373.2 				"/>
			</defs>
			<clipPath id="SVGID_43_">
				<use xlink:href="#SVGID_42_"  style="overflow:visible;"/>
			</clipPath>
			<g class="st17">
				<defs>
					<path id="SVGID_44_" d="M400.1,325c6.4-8.5,12.1-17.7,17-27.3c0,0,0,0,0,0c0.1-0.1,0.1-0.3,0.2-0.4c0-0.1,0.1-0.1,0.1-0.2
						c0,0,0-0.1,0-0.1c0.1-0.1,0.1-0.2,0.2-0.3c0,0,0,0,0,0c3-6,5.7-12.2,8.1-18.5c4.6,2.3,8.8,5.1,12.8,8.3c-0.9,2.4-1.9,4.7-2.8,7
						c0,0,0,0,0,0c-0.1,0.1-0.1,0.3-0.2,0.4c0,0,0,0.1-0.1,0.1c-0.1,0.1-0.1,0.3-0.2,0.4c0,0.1-0.1,0.2-0.1,0.3c0,0.1,0,0.1-0.1,0.2
						c-0.1,0.1-0.1,0.2-0.1,0.3c0,0,0,0,0,0c-3.7,8.2-7.8,16.2-12.5,23.8c-0.1,0.1-0.1,0.3-0.2,0.4c-0.3,0.6-1.2,1.5-2.7,2
						C418.6,321.6,409.3,323.3,400.1,325"/>
				</defs>
				<clipPath id="SVGID_45_">
					<use xlink:href="#SVGID_44_"  style="overflow:visible;"/>
				</clipPath>
				<g class="st18">
					<defs>
						<rect id="SVGID_46_" x="395.4" y="273.8" width="47.3" height="55.7"/>
					</defs>
					<clipPath id="SVGID_47_">
						<use xlink:href="#SVGID_46_"  style="overflow:visible;"/>
					</clipPath>
					<g style="clip-path:url(#SVGID_47_);">
						
							<image style="overflow:visible;" width="22" height="26" xlink:href="96C72660.jpg"  transform="matrix(2.1516 0 0 2.1428 395.3834 273.8034)">
						</image>
					</g>
				</g>
			</g>
		</g>
	</g>
	<g>
		<defs>
			<path id="SVGID_48_" d="M324.7,373.2c3.4-5.3,5.8-9.1,5.8-9.1c0.6-0.9,0.2-1.9-0.7-2.3l-9.9-4C321,363.3,322.6,368.4,324.7,373.2
				 M362.8,276.2l-19.7,66.2c-0.3,0.9,0.3,1.7,1.3,1.7c0,0,34.8,1.5,36.3,1.4c1.5-0.1,2.5-0.8,2.9-1.2c5.9-6,11.4-12.4,16.4-19.2
				c9.2-1.7,18.5-3.4,19.3-3.6c1.5-0.4,2.4-1.4,2.7-2c6.4-10.4,11.9-21.4,16.4-33c-12.6-10.2-28.7-16.3-46.2-16.3
				C381.8,270.1,371.9,272.3,362.8,276.2"/>
		</defs>
		<clipPath id="SVGID_49_">
			<use xlink:href="#SVGID_48_"  style="overflow:visible;"/>
		</clipPath>
		<g class="st19">
			<defs>
				<polyline id="SVGID_50_" points="320,373.2 438.5,373.2 438.5,270.1 320,270.1 320,373.2 				"/>
			</defs>
			<clipPath id="SVGID_51_">
				<use xlink:href="#SVGID_50_"  style="overflow:visible;"/>
			</clipPath>
			<g class="st20">
				<defs>
					<path id="SVGID_52_" d="M417.5,296.7C417.5,296.7,417.6,296.7,417.5,296.7C417.6,296.7,417.5,296.7,417.5,296.7 M417.4,297.1
						C417.4,297.1,417.4,297,417.4,297.1C417.4,297,417.4,297.1,417.4,297.1 M417.1,297.7c0.1-0.1,0.1-0.3,0.2-0.4
						C417.2,297.4,417.1,297.5,417.1,297.7 M380.5,345.5c-3.5,0-36-1.4-36-1.4c0,0-0.1,0-0.1,0c-0.9-0.1-1.4-0.9-1.1-1.7l19.7-66.2
						c6.4-2.8,13.2-4.7,20.3-5.5l-3.8,56.3c-0.1,0.9,0.5,1.5,1.4,1.5c0.1,0,0.2,0,0.3,0c0,0,9.4-1.7,19-3.5
						c6.4-8.5,12.1-17.7,17-27.3c-4.9,9.7-10.6,18.8-17,27.3c-5.1,6.8-10.6,13.3-16.4,19.2c-0.2,0.2-0.6,0.5-1.1,0.7
						c-0.5,0.2-1.1,0.5-1.8,0.5C380.7,345.5,380.6,345.5,380.5,345.5"/>
				</defs>
				<clipPath id="SVGID_53_">
					<use xlink:href="#SVGID_52_"  style="overflow:visible;"/>
				</clipPath>
				<g class="st21">
					<defs>
						<rect id="SVGID_54_" x="338.8" y="267.5" width="82.9" height="82.9"/>
					</defs>
					<clipPath id="SVGID_55_">
						<use xlink:href="#SVGID_54_"  style="overflow:visible;"/>
					</clipPath>
					<g style="clip-path:url(#SVGID_55_);">
						
							<image style="overflow:visible;" width="39" height="39" xlink:href="96C7266E.jpg"  transform="matrix(2.1267 0 0 2.1267 338.8324 267.5201)">
						</image>
					</g>
				</g>
			</g>
		</g>
	</g>
	<g>
		<defs>
			<path id="SVGID_56_" d="M324.7,373.2c3.4-5.3,5.8-9.1,5.8-9.1c0.6-0.9,0.2-1.9-0.7-2.3l-9.9-4C321,363.3,322.6,368.4,324.7,373.2
				 M362.8,276.2l-19.7,66.2c-0.3,0.9,0.3,1.7,1.3,1.7c0,0,34.8,1.5,36.3,1.4c1.5-0.1,2.5-0.8,2.9-1.2c5.9-6,11.4-12.4,16.4-19.2
				c9.2-1.7,18.5-3.4,19.3-3.6c1.5-0.4,2.4-1.4,2.7-2c6.4-10.4,11.9-21.4,16.4-33c-12.6-10.2-28.7-16.3-46.2-16.3
				C381.8,270.1,371.9,272.3,362.8,276.2"/>
		</defs>
		<clipPath id="SVGID_57_">
			<use xlink:href="#SVGID_56_"  style="overflow:visible;"/>
		</clipPath>
		<g class="st22">
			<defs>
				<polyline id="SVGID_58_" points="320,373.2 438.5,373.2 438.5,270.1 320,270.1 320,373.2 				"/>
			</defs>
			<clipPath id="SVGID_59_">
				<use xlink:href="#SVGID_58_"  style="overflow:visible;"/>
			</clipPath>
			<g class="st23">
				<defs>
					<path id="SVGID_60_" d="M380.8,328.5c-0.8,0-1.4-0.6-1.4-1.5l3.8-56.3c2.6-0.3,5.3-0.5,8-0.5h2.1c11.7,0.2,22.7,3,32.4,8
						c-2.4,6.4-5.1,12.5-8.1,18.5c0,0,0,0,0,0c-0.1,0.1-0.1,0.2-0.2,0.3c0,0,0,0.1,0,0.1c0,0.1-0.1,0.1-0.1,0.2
						c-0.1,0.1-0.1,0.3-0.2,0.4c0,0,0,0,0,0c-4.9,9.7-10.6,18.8-17,27.3c-9.5,1.8-19,3.5-19,3.5C381,328.5,380.9,328.5,380.8,328.5"
						/>
				</defs>
				<clipPath id="SVGID_61_">
					<use xlink:href="#SVGID_60_"  style="overflow:visible;"/>
				</clipPath>
				<g class="st24">
					<defs>
						<rect id="SVGID_62_" x="374.4" y="267.5" width="53.6" height="64.1"/>
					</defs>
					<clipPath id="SVGID_63_">
						<use xlink:href="#SVGID_62_"  style="overflow:visible;"/>
					</clipPath>
					<g style="clip-path:url(#SVGID_63_);">
						
							<image style="overflow:visible;" width="25" height="30" xlink:href="96C7266F.jpg"  transform="matrix(2.1448 0 0 2.1364 374.4384 267.52)">
						</image>
					</g>
				</g>
			</g>
		</g>
	</g>
	<g>
		<defs>
			<rect id="SVGID_64_" x="76.1" y="140.9" width="1" height="1"/>
		</defs>
		<clipPath id="SVGID_65_">
			<use xlink:href="#SVGID_64_"  style="overflow:visible;"/>
		</clipPath>
		
			<radialGradient id="SVGID_66_" cx="-51.604" cy="634.389" r="8.727" gradientTransform="matrix(8.4349 0 0 8.4349 580.576 -5236.9062)" gradientUnits="userSpaceOnUse">
			<stop  offset="0" style="stop-color:#FFFFFF"/>
			<stop  offset="1" style="stop-color:#FFFFFF"/>
		</radialGradient>
		<rect x="76.1" y="140.9" class="st25" width="1" height="1"/>
		
			<radialGradient id="SVGID_67_" cx="-51.604" cy="634.389" r="8.727" gradientTransform="matrix(8.4349 0 0 8.4349 580.576 -5236.9062)" gradientUnits="userSpaceOnUse">
			<stop  offset="0" style="stop-color:#4695D1"/>
			<stop  offset="1" style="stop-color:#4695D1"/>
		</radialGradient>
		<rect x="76.1" y="140.9" class="st26" width="1" height="1"/>
	</g>
	<g>
		<defs>
			<path id="SVGID_68_" d="M83,133.7l-6.1,7.6c5.7,14.3,15.7,26.4,28.5,34.7l-20.5-42l-1-0.7L83,133.7 M186.9,97.7
				c-1,0-2.1,0.8-2.5,1.8L156,186.9c12.7-1.9,24.3-6.9,34-14.3l18.3-47.6c0.3-0.9,1.3-1.6,2.3-1.7h1l6.7,0.4
				c0.4-3.2,0.6-6.3,0.6-9.6c0-5.6-0.6-11.1-1.8-16.4H186.9 M136.1,41c-20.3,13.3-38,30.1-52.5,49.5c-0.6,0.8-0.6,1.9-0.6,1.9
				l0.3,13.7c0,1,0.8,1.5,1.7,1l66.5-32.7l46.2-11.1l0.8-0.3c-13.4-14-32.3-22.7-53.2-22.7C142.2,40.5,139.1,40.7,136.1,41"/>
		</defs>
		<clipPath id="SVGID_69_">
			<use xlink:href="#SVGID_68_"  style="overflow:visible;"/>
		</clipPath>
		<g class="st27">
			<defs>
				<polyline id="SVGID_70_" points="76.8,186.9 218.9,186.9 218.9,40.5 76.8,40.5 76.8,186.9 				"/>
			</defs>
			<clipPath id="SVGID_71_">
				<use xlink:href="#SVGID_70_"  style="overflow:visible;"/>
			</clipPath>
			<g class="st28">
				<defs>
					<polyline id="SVGID_72_" points="156,186.9 184.4,99.5 156,186.9 156,186.9 					"/>
				</defs>
				<clipPath id="SVGID_73_">
					<use xlink:href="#SVGID_72_"  style="overflow:visible;"/>
				</clipPath>
				<g class="st29">
					<defs>
						<rect id="SVGID_74_" x="152.4" y="95.8" width="34.8" height="95.5"/>
					</defs>
					<clipPath id="SVGID_75_">
						<use xlink:href="#SVGID_74_"  style="overflow:visible;"/>
					</clipPath>
					<g transform="matrix(1 0 0 1 0 0)" style="clip-path:url(#SVGID_75_);">
						
							<image style="overflow:visible;" width="16" height="45" xlink:href="96C72662.jpg"  transform="matrix(2.173 0 0 2.1224 152.424 95.7727)">
						</image>
					</g>
				</g>
			</g>
		</g>
	</g>
	<g>
		<defs>
			<path id="SVGID_76_" d="M83,133.7l-6.1,7.6c5.7,14.3,15.7,26.4,28.5,34.7l-20.5-42l-1-0.7L83,133.7 M186.9,97.7
				c-1,0-2.1,0.8-2.5,1.8L156,186.9c12.7-1.9,24.3-6.9,34-14.3l18.3-47.6c0.3-0.9,1.3-1.6,2.3-1.7h1l6.7,0.4
				c0.4-3.2,0.6-6.3,0.6-9.6c0-5.6-0.6-11.1-1.8-16.4H186.9 M136.1,41c-20.3,13.3-38,30.1-52.5,49.5c-0.6,0.8-0.6,1.9-0.6,1.9
				l0.3,13.7c0,1,0.8,1.5,1.7,1l66.5-32.7l46.2-11.1l0.8-0.3c-13.4-14-32.3-22.7-53.2-22.7C142.2,40.5,139.1,40.7,136.1,41"/>
		</defs>
		<clipPath id="SVGID_77_">
			<use xlink:href="#SVGID_76_"  style="overflow:visible;"/>
		</clipPath>
		<g class="st30">
			<defs>
				<polyline id="SVGID_78_" points="76.8,186.9 218.9,186.9 218.9,40.5 76.8,40.5 76.8,186.9 				"/>
			</defs>
			<clipPath id="SVGID_79_">
				<use xlink:href="#SVGID_78_"  style="overflow:visible;"/>
			</clipPath>
			<g class="st31">
				<defs>
					<path id="SVGID_80_" d="M156,186.9l28.4-87.5c0.3-1,1.4-1.8,2.5-1.8h30.2c0.2,0.7,0.3,1.4,0.5,2.2L200.1,98c-0.1,0-0.1,0-0.2,0
						c-0.7,0-1.4,0.3-1.9,0.8c-0.2,0.2-0.4,0.4-0.5,0.7l-27.1,60.8l-11.7,26.1C157.8,186.6,156.9,186.8,156,186.9"/>
				</defs>
				<clipPath id="SVGID_81_">
					<use xlink:href="#SVGID_80_"  style="overflow:visible;"/>
				</clipPath>
				<g class="st32">
					<defs>
						<rect id="SVGID_82_" x="152.4" y="93.7" width="68.3" height="97.6"/>
					</defs>
					<clipPath id="SVGID_83_">
						<use xlink:href="#SVGID_82_"  style="overflow:visible;"/>
					</clipPath>
					<g style="clip-path:url(#SVGID_83_);">
						
							<image style="overflow:visible;" width="32" height="46" xlink:href="96C72665.jpg"  transform="matrix(2.1338 0 0 2.1218 152.424 93.6783)">
						</image>
					</g>
				</g>
			</g>
		</g>
	</g>
	<g>
		<defs>
			<path id="SVGID_84_" d="M83,133.7l-6.1,7.6c5.7,14.3,15.7,26.4,28.5,34.7l-20.5-42l-1-0.7L83,133.7 M186.9,97.7
				c-1,0-2.1,0.8-2.5,1.8L156,186.9c12.7-1.9,24.3-6.9,34-14.3l18.3-47.6c0.3-0.9,1.3-1.6,2.3-1.7h1l6.7,0.4
				c0.4-3.2,0.6-6.3,0.6-9.6c0-5.6-0.6-11.1-1.8-16.4H186.9 M136.1,41c-20.3,13.3-38,30.1-52.5,49.5c-0.6,0.8-0.6,1.9-0.6,1.9
				l0.3,13.7c0,1,0.8,1.5,1.7,1l66.5-32.7l46.2-11.1l0.8-0.3c-13.4-14-32.3-22.7-53.2-22.7C142.2,40.5,139.1,40.7,136.1,41"/>
		</defs>
		<clipPath id="SVGID_85_">
			<use xlink:href="#SVGID_84_"  style="overflow:visible;"/>
		</clipPath>
		<g class="st33">
			<defs>
				<polyline id="SVGID_86_" points="76.8,186.9 218.9,186.9 218.9,40.5 76.8,40.5 76.8,186.9 				"/>
			</defs>
			<clipPath id="SVGID_87_">
				<use xlink:href="#SVGID_86_"  style="overflow:visible;"/>
			</clipPath>
			<g class="st34">
				<defs>
					<path id="SVGID_88_" d="M198,98.8c0.5-0.5,1.2-0.8,1.9-0.8C199.2,98,198.5,98.3,198,98.8 M158.7,186.5l11.7-26.1L158.7,186.5"
						/>
				</defs>
				<clipPath id="SVGID_89_">
					<use xlink:href="#SVGID_88_"  style="overflow:visible;"/>
				</clipPath>
				<g class="st35">
					<defs>
						<rect id="SVGID_90_" x="154.5" y="93.7" width="49.4" height="97.6"/>
					</defs>
					<clipPath id="SVGID_91_">
						<use xlink:href="#SVGID_90_"  style="overflow:visible;"/>
					</clipPath>
					<g style="clip-path:url(#SVGID_91_);">
						
							<image style="overflow:visible;" width="23" height="46" xlink:href="96C72666.jpg"  transform="matrix(2.1491 0 0 2.1218 154.5184 93.6783)">
						</image>
					</g>
				</g>
			</g>
		</g>
	</g>
	<g>
		<defs>
			<path id="SVGID_92_" d="M83,133.7l-6.1,7.6c5.7,14.3,15.7,26.4,28.5,34.7l-20.5-42l-1-0.7L83,133.7 M186.9,97.7
				c-1,0-2.1,0.8-2.5,1.8L156,186.9c12.7-1.9,24.3-6.9,34-14.3l18.3-47.6c0.3-0.9,1.3-1.6,2.3-1.7h1l6.7,0.4
				c0.4-3.2,0.6-6.3,0.6-9.6c0-5.6-0.6-11.1-1.8-16.4H186.9 M136.1,41c-20.3,13.3-38,30.1-52.5,49.5c-0.6,0.8-0.6,1.9-0.6,1.9
				l0.3,13.7c0,1,0.8,1.5,1.7,1l66.5-32.7l46.2-11.1l0.8-0.3c-13.4-14-32.3-22.7-53.2-22.7C142.2,40.5,139.1,40.7,136.1,41"/>
		</defs>
		<clipPath id="SVGID_93_">
			<use xlink:href="#SVGID_92_"  style="overflow:visible;"/>
		</clipPath>
		<g class="st36">
			<defs>
				<polyline id="SVGID_94_" points="76.8,186.9 218.9,186.9 218.9,40.5 76.8,40.5 76.8,186.9 				"/>
			</defs>
			<clipPath id="SVGID_95_">
				<use xlink:href="#SVGID_94_"  style="overflow:visible;"/>
			</clipPath>
			<g class="st37">
				<defs>
					<path id="SVGID_96_" d="M192.2,166.8l16.1-41.8c0.3-0.8,1.2-1.5,2.1-1.7h0.2c-1,0.1-1.9,0.8-2.2,1.7L192.2,166.8"/>
				</defs>
				<clipPath id="SVGID_97_">
					<use xlink:href="#SVGID_96_"  style="overflow:visible;"/>
				</clipPath>
				<g class="st38">
					<defs>
						<rect id="SVGID_98_" x="188" y="120.9" width="26.4" height="49.4"/>
					</defs>
					<clipPath id="SVGID_99_">
						<use xlink:href="#SVGID_98_"  style="overflow:visible;"/>
					</clipPath>
					<g style="clip-path:url(#SVGID_99_);">
						
							<image style="overflow:visible;" width="12" height="23" xlink:href="CAC88C50.jpg"  transform="matrix(2.1992 0 0 2.1491 188.0302 120.9065)">
						</image>
					</g>
				</g>
			</g>
		</g>
	</g>
	<g>
		<defs>
			<path id="SVGID_100_" d="M83,133.7l-6.1,7.6c5.7,14.3,15.7,26.4,28.5,34.7l-20.5-42l-1-0.7L83,133.7 M186.9,97.7
				c-1,0-2.1,0.8-2.5,1.8L156,186.9c12.7-1.9,24.3-6.9,34-14.3l18.3-47.6c0.3-0.9,1.3-1.6,2.3-1.7h1l6.7,0.4
				c0.4-3.2,0.6-6.3,0.6-9.6c0-5.6-0.6-11.1-1.8-16.4H186.9 M136.1,41c-20.3,13.3-38,30.1-52.5,49.5c-0.6,0.8-0.6,1.9-0.6,1.9
				l0.3,13.7c0,1,0.8,1.5,1.7,1l66.5-32.7l46.2-11.1l0.8-0.3c-13.4-14-32.3-22.7-53.2-22.7C142.2,40.5,139.1,40.7,136.1,41"/>
		</defs>
		<clipPath id="SVGID_101_">
			<use xlink:href="#SVGID_100_"  style="overflow:visible;"/>
		</clipPath>
		<g class="st39">
			<defs>
				<polyline id="SVGID_102_" points="76.8,186.9 218.9,186.9 218.9,40.5 76.8,40.5 76.8,186.9 				"/>
			</defs>
			<clipPath id="SVGID_103_">
				<use xlink:href="#SVGID_102_"  style="overflow:visible;"/>
			</clipPath>
			<g class="st40">
				<defs>
					<path id="SVGID_104_" d="M218.3,123.7l-6.7-0.4l6.7,0C218.3,123.5,218.3,123.6,218.3,123.7 M186.8,174.9l16.2-49.8
						c0.3-1,1.4-1.8,2.5-1.8l4.9,0c-0.9,0.2-1.7,0.8-2.1,1.7l-16.1,41.8l-2.2,5.8C189,173.4,187.9,174.2,186.8,174.9"/>
				</defs>
				<clipPath id="SVGID_105_">
					<use xlink:href="#SVGID_104_"  style="overflow:visible;"/>
				</clipPath>
				<g class="st41">
					<defs>
						<rect id="SVGID_106_" x="181.7" y="120.9" width="39" height="57.8"/>
					</defs>
					<clipPath id="SVGID_107_">
						<use xlink:href="#SVGID_106_"  style="overflow:visible;"/>
					</clipPath>
					<g style="clip-path:url(#SVGID_107_);">
						
							<image style="overflow:visible;" width="18" height="27" xlink:href="CAC88C57.jpg"  transform="matrix(2.1643 0 0 2.141 181.7467 120.9065)">
						</image>
					</g>
				</g>
			</g>
		</g>
	</g>
	<g>
		<defs>
			<rect id="SVGID_108_" x="210.1" y="123.1" width="2.1" height="1"/>
		</defs>
		<clipPath id="SVGID_109_">
			<use xlink:href="#SVGID_108_"  style="overflow:visible;"/>
		</clipPath>
		<g class="st42">
			<defs>
				<rect id="SVGID_110_" x="206.9" y="120.9" width="7.5" height="7.5"/>
			</defs>
			<clipPath id="SVGID_111_">
				<use xlink:href="#SVGID_110_"  style="overflow:visible;"/>
			</clipPath>
			<g transform="matrix(1 0 0 1 1.525879e-05 0)" style="clip-path:url(#SVGID_111_);">
				
					<image style="overflow:visible;" width="3" height="3" xlink:href="CAC88C51.jpg"  transform="matrix(2.5134 0 0 2.5134 206.8804 120.9065)">
				</image>
			</g>
		</g>
	</g>
	<g>
		<defs>
			<rect id="SVGID_112_" x="211.2" y="123.1" width="1" height="1"/>
		</defs>
		<clipPath id="SVGID_113_">
			<use xlink:href="#SVGID_112_"  style="overflow:visible;"/>
		</clipPath>
		<g class="st43">
			<defs>
				<rect id="SVGID_114_" x="206.9" y="120.9" width="7.5" height="7.5"/>
			</defs>
			<clipPath id="SVGID_115_">
				<use xlink:href="#SVGID_114_"  style="overflow:visible;"/>
			</clipPath>
			<g transform="matrix(1 0 0 1 1.525879e-05 0)" style="clip-path:url(#SVGID_115_);">
				
					<image style="overflow:visible;" width="3" height="3" xlink:href="CAC88C53.jpg"  transform="matrix(2.5134 0 0 2.5134 206.8804 120.9065)">
				</image>
			</g>
		</g>
	</g>
	<g>
		<defs>
			<path id="SVGID_116_" d="M83,133.7l-6.1,7.6c5.7,14.3,15.7,26.4,28.5,34.7l-20.5-42l-1-0.7L83,133.7 M186.9,97.7
				c-1,0-2.1,0.8-2.5,1.8L156,186.9c12.7-1.9,24.3-6.9,34-14.3l18.3-47.6c0.3-0.9,1.3-1.6,2.3-1.7h1l6.7,0.4
				c0.4-3.2,0.6-6.3,0.6-9.6c0-5.6-0.6-11.1-1.8-16.4H186.9 M136.1,41c-20.3,13.3-38,30.1-52.5,49.5c-0.6,0.8-0.6,1.9-0.6,1.9
				l0.3,13.7c0,1,0.8,1.5,1.7,1l66.5-32.7l46.2-11.1l0.8-0.3c-13.4-14-32.3-22.7-53.2-22.7C142.2,40.5,139.1,40.7,136.1,41"/>
		</defs>
		<clipPath id="SVGID_117_">
			<use xlink:href="#SVGID_116_"  style="overflow:visible;"/>
		</clipPath>
		<g class="st44">
			<defs>
				<polyline id="SVGID_118_" points="76.8,186.9 218.9,186.9 218.9,40.5 76.8,40.5 76.8,186.9 				"/>
			</defs>
			<clipPath id="SVGID_119_">
				<use xlink:href="#SVGID_118_"  style="overflow:visible;"/>
			</clipPath>
			<g class="st45">
				<defs>
					<path id="SVGID_120_" d="M158.7,186.5l11.7-26.1l27.1-60.8c0.1-0.3,0.3-0.5,0.5-0.7c0.5-0.5,1.2-0.8,1.9-0.8c0.1,0,0.1,0,0.2,0
						l17.4,1.8c0.9,4.6,1.4,9.4,1.4,14.2c0,3.1-0.2,6.2-0.6,9.3l-6.7,0h-0.1h-0.1h-0.1l-0.6,0l-0.1,0h-0.1c0,0,0,0,0,0h-0.2l-4.9,0
						c-1,0-2.1,0.8-2.5,1.8l-16.2,49.8C178.5,180.6,169,184.6,158.7,186.5"/>
				</defs>
				<clipPath id="SVGID_121_">
					<use xlink:href="#SVGID_120_"  style="overflow:visible;"/>
				</clipPath>
				<g class="st46">
					<defs>
						<rect id="SVGID_122_" x="154.5" y="93.7" width="68.3" height="97.6"/>
					</defs>
					<clipPath id="SVGID_123_">
						<use xlink:href="#SVGID_122_"  style="overflow:visible;"/>
					</clipPath>
					<g style="clip-path:url(#SVGID_123_);">
						
							<image style="overflow:visible;" width="32" height="46" xlink:href="CAC88C4E.jpg"  transform="matrix(2.1338 0 0 2.1218 154.5184 93.6783)">
						</image>
					</g>
				</g>
			</g>
		</g>
	</g>
	<g>
		<defs>
			<path id="SVGID_124_" d="M83,133.7l-6.1,7.6c5.7,14.3,15.7,26.4,28.5,34.7l-20.5-42l-1-0.7L83,133.7 M186.9,97.7
				c-1,0-2.1,0.8-2.5,1.8L156,186.9c12.7-1.9,24.3-6.9,34-14.3l18.3-47.6c0.3-0.9,1.3-1.6,2.3-1.7h1l6.7,0.4
				c0.4-3.2,0.6-6.3,0.6-9.6c0-5.6-0.6-11.1-1.8-16.4H186.9 M136.1,41c-20.3,13.3-38,30.1-52.5,49.5c-0.6,0.8-0.6,1.9-0.6,1.9
				l0.3,13.7c0,1,0.8,1.5,1.7,1l66.5-32.7l46.2-11.1l0.8-0.3c-13.4-14-32.3-22.7-53.2-22.7C142.2,40.5,139.1,40.7,136.1,41"/>
		</defs>
		<clipPath id="SVGID_125_">
			<use xlink:href="#SVGID_124_"  style="overflow:visible;"/>
		</clipPath>
		<g class="st47">
			<defs>
				<polyline id="SVGID_126_" points="76.8,186.9 218.9,186.9 218.9,40.5 76.8,40.5 76.8,186.9 				"/>
			</defs>
			<clipPath id="SVGID_127_">
				<use xlink:href="#SVGID_126_"  style="overflow:visible;"/>
			</clipPath>
			<g class="st48">
				<defs>
					<path id="SVGID_128_" d="M83.9,133.2L83.9,133.2 M76.9,141.2L76.9,141.2l4.8-5.9L76.9,141.2 M92.9,150.3l-8-16.4L92.9,150.3"/>
				</defs>
				<clipPath id="SVGID_129_">
					<use xlink:href="#SVGID_128_"  style="overflow:visible;"/>
				</clipPath>
				<g class="st49">
					<defs>
						<rect id="SVGID_130_" x="72.8" y="129.3" width="24.3" height="24.3"/>
					</defs>
					<clipPath id="SVGID_131_">
						<use xlink:href="#SVGID_130_"  style="overflow:visible;"/>
					</clipPath>
					<g style="clip-path:url(#SVGID_131_);">
						
							<image style="overflow:visible;" width="11" height="11" xlink:href="CAC88C4F.jpg"  transform="matrix(2.2087 0 0 2.2087 72.8339 129.2845)">
						</image>
					</g>
				</g>
			</g>
		</g>
	</g>
	<g>
		<defs>
			<path id="SVGID_132_" d="M83,133.7l-6.1,7.6c5.7,14.3,15.7,26.4,28.5,34.7l-20.5-42l-1-0.7L83,133.7 M186.9,97.7
				c-1,0-2.1,0.8-2.5,1.8L156,186.9c12.7-1.9,24.3-6.9,34-14.3l18.3-47.6c0.3-0.9,1.3-1.6,2.3-1.7h1l6.7,0.4
				c0.4-3.2,0.6-6.3,0.6-9.6c0-5.6-0.6-11.1-1.8-16.4H186.9 M136.1,41c-20.3,13.3-38,30.1-52.5,49.5c-0.6,0.8-0.6,1.9-0.6,1.9
				l0.3,13.7c0,1,0.8,1.5,1.7,1l66.5-32.7l46.2-11.1l0.8-0.3c-13.4-14-32.3-22.7-53.2-22.7C142.2,40.5,139.1,40.7,136.1,41"/>
		</defs>
		<clipPath id="SVGID_133_">
			<use xlink:href="#SVGID_132_"  style="overflow:visible;"/>
		</clipPath>
		<g class="st50">
			<defs>
				<polyline id="SVGID_134_" points="76.8,186.9 218.9,186.9 218.9,40.5 76.8,40.5 76.8,186.9 				"/>
			</defs>
			<clipPath id="SVGID_135_">
				<use xlink:href="#SVGID_134_"  style="overflow:visible;"/>
			</clipPath>
			<g class="st51">
				<defs>
					<path id="SVGID_136_" d="M105.3,175.9c-12.7-8.3-22.8-20.3-28.5-34.6v0l4.8-5.9l1.4-1.7l0.9-0.5l1,0.7l8,16.4L105.3,175.9"/>
				</defs>
				<clipPath id="SVGID_137_">
					<use xlink:href="#SVGID_136_"  style="overflow:visible;"/>
				</clipPath>
				<g class="st52">
					<defs>
						<rect id="SVGID_138_" x="72.8" y="129.3" width="34.8" height="51.5"/>
					</defs>
					<clipPath id="SVGID_139_">
						<use xlink:href="#SVGID_138_"  style="overflow:visible;"/>
					</clipPath>
					<g transform="matrix(1 0 0 1 0 0)" style="clip-path:url(#SVGID_139_);">
						
							<image style="overflow:visible;" width="16" height="24" xlink:href="CAC88C70.jpg"  transform="matrix(2.173 0 0 2.1468 72.8339 129.2845)">
						</image>
					</g>
				</g>
			</g>
		</g>
	</g>
	<g>
		<defs>
			<path id="SVGID_140_" d="M83,133.7l-6.1,7.6c5.7,14.3,15.7,26.4,28.5,34.7l-20.5-42l-1-0.7L83,133.7 M186.9,97.7
				c-1,0-2.1,0.8-2.5,1.8L156,186.9c12.7-1.9,24.3-6.9,34-14.3l18.3-47.6c0.3-0.9,1.3-1.6,2.3-1.7h1l6.7,0.4
				c0.4-3.2,0.6-6.3,0.6-9.6c0-5.6-0.6-11.1-1.8-16.4H186.9 M136.1,41c-20.3,13.3-38,30.1-52.5,49.5c-0.6,0.8-0.6,1.9-0.6,1.9
				l0.3,13.7c0,1,0.8,1.5,1.7,1l66.5-32.7l46.2-11.1l0.8-0.3c-13.4-14-32.3-22.7-53.2-22.7C142.2,40.5,139.1,40.7,136.1,41"/>
		</defs>
		<clipPath id="SVGID_141_">
			<use xlink:href="#SVGID_140_"  style="overflow:visible;"/>
		</clipPath>
		<g class="st53">
			<defs>
				<polyline id="SVGID_142_" points="76.8,186.9 218.9,186.9 218.9,40.5 76.8,40.5 76.8,186.9 				"/>
			</defs>
			<clipPath id="SVGID_143_">
				<use xlink:href="#SVGID_142_"  style="overflow:visible;"/>
			</clipPath>
			<g class="st54">
				<defs>
					<path id="SVGID_144_" d="M183.7,66.8l14-3.4L183.7,66.8 M84.3,107.4c-0.6,0-1-0.5-1-1.2l-0.3-13.7l0.3,13.7
						C83.3,106.9,83.7,107.4,84.3,107.4c0.2,0,0.5-0.1,0.7-0.2l66.5-32.7h0L85,107.2C84.7,107.3,84.5,107.4,84.3,107.4"/>
				</defs>
				<clipPath id="SVGID_145_">
					<use xlink:href="#SVGID_144_"  style="overflow:visible;"/>
				</clipPath>
				<g class="st55">
					<defs>
						<rect id="SVGID_146_" x="79.1" y="60.2" width="122.7" height="51.5"/>
					</defs>
					<clipPath id="SVGID_147_">
						<use xlink:href="#SVGID_146_"  style="overflow:visible;"/>
					</clipPath>
					<g style="clip-path:url(#SVGID_147_);">
						
							<image style="overflow:visible;" width="58" height="24" xlink:href="CAC88C73.jpg"  transform="matrix(2.1161 0 0 2.1468 79.1172 60.1666)">
						</image>
					</g>
				</g>
			</g>
		</g>
	</g>
	<g>
		<defs>
			<path id="SVGID_148_" d="M83,133.7l-6.1,7.6c5.7,14.3,15.7,26.4,28.5,34.7l-20.5-42l-1-0.7L83,133.7 M186.9,97.7
				c-1,0-2.1,0.8-2.5,1.8L156,186.9c12.7-1.9,24.3-6.9,34-14.3l18.3-47.6c0.3-0.9,1.3-1.6,2.3-1.7h1l6.7,0.4
				c0.4-3.2,0.6-6.3,0.6-9.6c0-5.6-0.6-11.1-1.8-16.4H186.9 M136.1,41c-20.3,13.3-38,30.1-52.5,49.5c-0.6,0.8-0.6,1.9-0.6,1.9
				l0.3,13.7c0,1,0.8,1.5,1.7,1l66.5-32.7l46.2-11.1l0.8-0.3c-13.4-14-32.3-22.7-53.2-22.7C142.2,40.5,139.1,40.7,136.1,41"/>
		</defs>
		<clipPath id="SVGID_149_">
			<use xlink:href="#SVGID_148_"  style="overflow:visible;"/>
		</clipPath>
		<g class="st56">
			<defs>
				<polyline id="SVGID_150_" points="76.8,186.9 218.9,186.9 218.9,40.5 76.8,40.5 76.8,186.9 				"/>
			</defs>
			<clipPath id="SVGID_151_">
				<use xlink:href="#SVGID_150_"  style="overflow:visible;"/>
			</clipPath>
			<g class="st57">
				<defs>
					<path id="SVGID_152_" d="M84.3,107.4c-0.6,0-1-0.5-1-1.2l-0.3-13.7c0,0,0-1.1,0.6-1.9c14.5-19.3,32.3-36.2,52.5-49.5
						c3-0.4,6.1-0.6,9.2-0.6c4.7,0,9.4,0.5,13.9,1.3c-10.1,5.2-19.6,11.4-28.7,18.3c-2.7,2.1-5.4,4.2-8,6.5l-1,1.6l-1.3,6.3
						l-1.3,6.3c-0.1,0.3,0,0.6,0.1,0.8c0.1,0.4,0.5,0.6,0.9,0.6c0.1,0,0.2,0,0.4-0.1l14-3.4l17-4.1L85,107.2
						C84.7,107.3,84.5,107.4,84.3,107.4"/>
				</defs>
				<clipPath id="SVGID_153_">
					<use xlink:href="#SVGID_152_"  style="overflow:visible;"/>
				</clipPath>
				<g class="st58">
					<defs>
						<rect id="SVGID_154_" x="79.1" y="37.1" width="82.9" height="74.6"/>
					</defs>
					<clipPath id="SVGID_155_">
						<use xlink:href="#SVGID_154_"  style="overflow:visible;"/>
					</clipPath>
					<g style="clip-path:url(#SVGID_155_);">
						
							<image style="overflow:visible;" width="39" height="35" xlink:href="CAC88C71.jpg"  transform="matrix(2.1267 0 0 2.1304 79.1172 37.1274)">
						</image>
					</g>
				</g>
			</g>
		</g>
	</g>
	<g>
		<defs>
			<path id="SVGID_156_" d="M83,133.7l-6.1,7.6c5.7,14.3,15.7,26.4,28.5,34.7l-20.5-42l-1-0.7L83,133.7 M186.9,97.7
				c-1,0-2.1,0.8-2.5,1.8L156,186.9c12.7-1.9,24.3-6.9,34-14.3l18.3-47.6c0.3-0.9,1.3-1.6,2.3-1.7h1l6.7,0.4
				c0.4-3.2,0.6-6.3,0.6-9.6c0-5.6-0.6-11.1-1.8-16.4H186.9 M136.1,41c-20.3,13.3-38,30.1-52.5,49.5c-0.6,0.8-0.6,1.9-0.6,1.9
				l0.3,13.7c0,1,0.8,1.5,1.7,1l66.5-32.7l46.2-11.1l0.8-0.3c-13.4-14-32.3-22.7-53.2-22.7C142.2,40.5,139.1,40.7,136.1,41"/>
		</defs>
		<clipPath id="SVGID_157_">
			<use xlink:href="#SVGID_156_"  style="overflow:visible;"/>
		</clipPath>
		<g class="st59">
			<defs>
				<polyline id="SVGID_158_" points="76.8,186.9 218.9,186.9 218.9,40.5 76.8,40.5 76.8,186.9 				"/>
			</defs>
			<clipPath id="SVGID_159_">
				<use xlink:href="#SVGID_158_"  style="overflow:visible;"/>
			</clipPath>
			<g class="st60">
				<defs>
					<path id="SVGID_160_" d="M130.5,60.1c9-6.9,18.6-13,28.7-18.3c0,0,0,0,0,0C149.2,47,139.6,53.2,130.5,60.1 M134.4,78.6l17-4.1
						l10-4.9c0.9-0.5,2.3-1.4,3-2.2L181,49.7c6.5,3.6,12.4,8.2,17.5,13.5l-0.8,0.3l-14,3.4l-32.2,7.7h0L134.4,78.6 M119.1,81.4
						c-0.1-0.2-0.1-0.5-0.1-0.8l1.3-6.3l-1.3,6.3C119,81,119,81.2,119.1,81.4"/>
				</defs>
				<clipPath id="SVGID_161_">
					<use xlink:href="#SVGID_160_"  style="overflow:visible;"/>
				</clipPath>
				<g class="st61">
					<defs>
						<rect id="SVGID_162_" x="114.7" y="39.2" width="87.1" height="47.3"/>
					</defs>
					<clipPath id="SVGID_163_">
						<use xlink:href="#SVGID_162_"  style="overflow:visible;"/>
					</clipPath>
					<g style="clip-path:url(#SVGID_163_);">
						
							<image style="overflow:visible;" width="41" height="22" xlink:href="CAC88C77.jpg"  transform="matrix(2.1251 0 0 2.1516 114.7234 39.2217)">
						</image>
					</g>
				</g>
			</g>
		</g>
	</g>
	<g>
		<defs>
			<path id="SVGID_164_" d="M83,133.7l-6.1,7.6c5.7,14.3,15.7,26.4,28.5,34.7l-20.5-42l-1-0.7L83,133.7 M186.9,97.7
				c-1,0-2.1,0.8-2.5,1.8L156,186.9c12.7-1.9,24.3-6.9,34-14.3l18.3-47.6c0.3-0.9,1.3-1.6,2.3-1.7h1l6.7,0.4
				c0.4-3.2,0.6-6.3,0.6-9.6c0-5.6-0.6-11.1-1.8-16.4H186.9 M136.1,41c-20.3,13.3-38,30.1-52.5,49.5c-0.6,0.8-0.6,1.9-0.6,1.9
				l0.3,13.7c0,1,0.8,1.5,1.7,1l66.5-32.7l46.2-11.1l0.8-0.3c-13.4-14-32.3-22.7-53.2-22.7C142.2,40.5,139.1,40.7,136.1,41"/>
		</defs>
		<clipPath id="SVGID_165_">
			<use xlink:href="#SVGID_164_"  style="overflow:visible;"/>
		</clipPath>
		<g class="st62">
			<defs>
				<polyline id="SVGID_166_" points="76.8,186.9 218.9,186.9 218.9,40.5 76.8,40.5 76.8,186.9 				"/>
			</defs>
			<clipPath id="SVGID_167_">
				<use xlink:href="#SVGID_166_"  style="overflow:visible;"/>
			</clipPath>
			<g class="st63">
				<defs>
					<path id="SVGID_168_" d="M120,82c-0.5,0-0.8-0.2-0.9-0.6c-0.1-0.2-0.1-0.5-0.1-0.8l1.3-6.3l1.3-6.3l1-1.6
						c2.6-2.2,5.3-4.4,8-6.5c9-6.9,18.6-13,28.7-18.3c7.7,1.5,15.1,4.2,21.7,7.9l-16.6,17.8c-0.7,0.8-2,1.7-3,2.2l-10,4.9l-17,4.1
						l-14,3.4C120.3,82,120.1,82,120,82"/>
				</defs>
				<clipPath id="SVGID_169_">
					<use xlink:href="#SVGID_168_"  style="overflow:visible;"/>
				</clipPath>
				<g class="st64">
					<defs>
						<rect id="SVGID_170_" x="114.7" y="39.2" width="70.4" height="47.3"/>
					</defs>
					<clipPath id="SVGID_171_">
						<use xlink:href="#SVGID_170_"  style="overflow:visible;"/>
					</clipPath>
					<g transform="matrix(1 0 0 1 7.629395e-06 0)" style="clip-path:url(#SVGID_171_);">
						
							<image style="overflow:visible;" width="33" height="22" xlink:href="CAC88C6B.jpg"  transform="matrix(2.1326 0 0 2.1516 114.7234 39.2217)">
						</image>
					</g>
				</g>
			</g>
		</g>
	</g>
</g>
</svg>
