<?xml version="1.0" encoding="utf-8"?>
<!-- Generator: Adobe Illustrator 25.0.1, SVG Export Plug-In . SVG Version: 6.00 Build 0)  -->
<svg version="1.1" id="Layer_1" xmlns="http://www.w3.org/2000/svg" xmlns:xlink="http://www.w3.org/1999/xlink" x="0px" y="0px"
	 viewBox="0 0 500 500" style="enable-background:new 0 0 500 500;" xml:space="preserve">
<style type="text/css">
	.st0{display:none;fill:#FFFFFF;}
	.st1{display:none;fill:none;stroke:#FFFFFF;stroke-width:0.5621;stroke-miterlimit:10;}
	.st2{fill:#1D2849;}
</style>
<g>
	<g>
		<path class="st0" d="M354.1,355.2c-2.2,0-3.9,1.8-3.9,3.9c0,2.2,1.8,3.9,3.9,3.9c2.2,0,3.9-1.8,3.9-3.9
			C358,357,356.2,355.2,354.1,355.2 M357.4,359.2c0,1.9-1.5,3.4-3.3,3.4c-1.9,0-3.4-1.5-3.4-3.4c0-1.8,1.5-3.3,3.4-3.3
			C355.9,355.8,357.4,357.3,357.4,359.2"/>
		<path class="st0" d="M354,360.8c-0.9,0-1.7-0.8-1.7-1.7c0-0.9,0.8-1.7,1.7-1.7c0.7,0,1.2,0.4,1.5,1h0.5c-0.3-0.8-1.1-1.4-2-1.4
			c-1.2,0-2.1,1-2.1,2.1c0,1.2,1,2.1,2.1,2.1c1,0,1.8-0.6,2-1.5h-0.5C355.3,360.4,354.7,360.8,354,360.8"/>
		<path class="st0" d="M364.7,361.5c-0.2,0.1-0.4,0.2-0.7,0.3c-0.3,0.1-0.5,0.1-0.8,0.1c-0.3,0-0.6,0-0.8-0.2
			c-0.3-0.1-0.5-0.3-0.7-0.5c-0.2-0.3-0.4-0.6-0.5-0.9c-0.1-0.3-0.1-0.7-0.1-1.1c0-0.4,0.1-0.7,0.2-1.1c0.1-0.3,0.3-0.6,0.5-0.9
			c0.2-0.2,0.4-0.4,0.7-0.6c0.3-0.1,0.6-0.2,0.9-0.2c0.2,0,0.5,0,0.7,0.1c0.2,0.1,0.4,0.2,0.6,0.3l-0.3,0.4
			c-0.2-0.1-0.3-0.2-0.5-0.2c-0.2-0.1-0.3-0.1-0.5-0.1c-0.3,0-0.6,0.1-0.8,0.2c-0.2,0.1-0.4,0.4-0.5,0.7c-0.1,0.2-0.1,0.4-0.2,0.6
			c0,0.2,0,0.5,0,0.8c0,0.2,0,0.5,0,0.6c0,0.2,0.1,0.3,0.1,0.5c0.1,0.3,0.3,0.6,0.6,0.7c0.3,0.2,0.5,0.2,0.8,0.2
			c0.2,0,0.4,0,0.5-0.1c0.2-0.1,0.3-0.1,0.5-0.3L364.7,361.5"/>
		<path class="st0" d="M368.6,359.4c0-0.4,0-0.7-0.1-1c0-0.3-0.1-0.5-0.2-0.7c-0.1-0.2-0.2-0.4-0.4-0.5c-0.2-0.1-0.4-0.2-0.7-0.2
			c-0.2,0-0.5,0-0.7,0.1c-0.2,0.1-0.3,0.3-0.4,0.5c-0.1,0.2-0.2,0.4-0.2,0.6c0,0.2-0.1,0.5-0.1,0.8c0,0.4,0,0.8,0.1,1.1
			c0.1,0.3,0.1,0.6,0.2,0.8c0.1,0.1,0.1,0.2,0.2,0.2c0.1,0.1,0.2,0.1,0.3,0.2c0.1,0.1,0.2,0.1,0.3,0.1c0.1,0,0.2,0,0.3,0
			c0.2,0,0.4,0,0.6-0.1c0.2-0.1,0.3-0.2,0.4-0.3c0.1-0.1,0.1-0.2,0.2-0.3c0-0.1,0.1-0.2,0.1-0.3c0-0.1,0.1-0.3,0.1-0.4
			C368.6,359.8,368.6,359.6,368.6,359.4 M369.3,359.3c0,0.5-0.1,0.9-0.2,1.3c-0.1,0.3-0.3,0.6-0.6,0.9c-0.2,0.2-0.4,0.3-0.6,0.4
			c-0.2,0.1-0.4,0.1-0.7,0.1c-0.3,0-0.6,0-0.9-0.2c-0.2-0.1-0.5-0.3-0.6-0.5c-0.4-0.5-0.6-1.2-0.6-2.1c0-0.4,0.1-0.8,0.2-1.1
			c0.1-0.3,0.2-0.6,0.4-0.8c0.2-0.2,0.4-0.4,0.7-0.5c0.3-0.1,0.5-0.2,0.9-0.2c0.2,0,0.4,0,0.6,0.1c0.2,0,0.3,0.1,0.5,0.2
			c0.1,0.1,0.3,0.2,0.3,0.3c0.1,0.1,0.2,0.2,0.2,0.3c0.2,0.2,0.3,0.5,0.4,0.8C369.3,358.5,369.3,358.9,369.3,359.3"/>
		<path class="st0" d="M373,358.2c0-0.4-0.1-0.7-0.3-0.8c-0.1-0.1-0.2-0.2-0.4-0.2c-0.2-0.1-0.4-0.1-0.6-0.1H371v2.1h0.9
			c0.2,0,0.4,0,0.5-0.1c0.1,0,0.2-0.1,0.3-0.2C372.9,358.7,373,358.5,373,358.2 M373.7,358.1c0,0.3,0,0.5-0.1,0.7
			c-0.1,0.2-0.2,0.4-0.4,0.5c-0.2,0.2-0.4,0.3-0.6,0.3c-0.2,0.1-0.4,0.1-0.7,0.1H371v2.1h-0.6v-5.2h1.5c0.3,0,0.5,0,0.7,0
			c0.2,0,0.3,0.1,0.5,0.2C373.5,357.1,373.7,357.5,373.7,358.1"/>
		<path class="st0" d="M376.1,359.8v2h-0.6v-2.1l-1.7-3.2h0.8l1,2c0,0.1,0.1,0.2,0.1,0.3c0,0.1,0.1,0.2,0.1,0.2c0,0.1,0,0.1,0,0.1
			c0.1-0.2,0.2-0.4,0.3-0.6l1-2h0.7L376.1,359.8"/>
		<path class="st0" d="M380.8,358c0-0.2,0-0.3-0.1-0.5c-0.1-0.2-0.2-0.3-0.4-0.3c-0.1,0-0.2-0.1-0.3-0.1c-0.1,0-0.2,0-0.4,0h-0.6v2
			h0.6c0.2,0,0.4,0,0.6-0.1c0.1,0,0.3-0.1,0.4-0.2c0.1-0.1,0.2-0.2,0.2-0.3C380.8,358.3,380.8,358.2,380.8,358 M381,361.8
			c0-0.1-0.1-0.2-0.2-0.3c-0.1-0.1-0.2-0.3-0.3-0.5c-0.1-0.2-0.2-0.4-0.4-0.6c-0.1-0.2-0.3-0.4-0.5-0.6c0-0.1-0.1-0.1-0.1-0.1
			c0,0-0.1-0.1-0.1-0.1c-0.1,0-0.1,0-0.1-0.1c-0.1,0-0.1,0-0.2,0v2.4h-0.6v-5.2h1.2c0.2,0,0.3,0,0.5,0c0.1,0,0.3,0,0.4,0.1
			c0.1,0,0.2,0.1,0.3,0.1c0.1,0,0.1,0.1,0.2,0.1c0.1,0,0.1,0.1,0.2,0.2c0.1,0.1,0.1,0.2,0.2,0.2c0,0.1,0.1,0.2,0.1,0.3
			c0,0.1,0,0.2,0,0.4c0,0.2,0,0.4-0.1,0.6c-0.1,0.2-0.2,0.3-0.3,0.5c-0.1,0.1-0.3,0.2-0.4,0.3c-0.2,0.1-0.4,0.1-0.6,0.1H380
			c0.1,0.1,0.2,0.2,0.3,0.3c0.1,0.1,0.2,0.2,0.2,0.3c0,0.1,0.1,0.2,0.2,0.3c0.1,0.1,0.2,0.3,0.3,0.5c0.1,0.2,0.2,0.3,0.3,0.5
			c0.1,0.2,0.2,0.3,0.2,0.4c0.1,0.1,0.1,0.1,0.1,0.2H381z"/>
		<line class="st1" x1="382.9" y1="361.8" x2="382.9" y2="356.6"/>
		<path class="st0" d="M388.1,361.5c-0.2,0.1-0.4,0.2-0.7,0.3c-0.3,0.1-0.5,0.1-0.8,0.1c-0.7,0-1.2-0.2-1.6-0.7
			c-0.2-0.2-0.4-0.5-0.5-0.9c-0.1-0.3-0.2-0.7-0.2-1.2c0-0.5,0.1-0.9,0.2-1.3c0.1-0.4,0.3-0.7,0.6-0.9c0.4-0.3,0.8-0.5,1.4-0.5
			c0.6,0,1,0.2,1.4,0.5l-0.3,0.4c-0.2-0.2-0.4-0.2-0.6-0.3c-0.2-0.1-0.4-0.1-0.6-0.1c-0.3,0-0.6,0.1-0.8,0.2
			c-0.2,0.1-0.4,0.4-0.5,0.7c-0.1,0.4-0.2,0.8-0.2,1.3c0,0.4,0,0.7,0.1,0.9c0.1,0.3,0.2,0.5,0.3,0.7c0.1,0.1,0.1,0.2,0.2,0.2
			c0.1,0.1,0.2,0.1,0.3,0.2c0.1,0.1,0.2,0.1,0.4,0.1c0.1,0,0.3,0,0.4,0c0.3,0,0.6-0.1,0.8-0.2v-1.6h-1l-0.1-0.5h1.8V361.5"/>
		<polygon class="st0" points="392.2,361.8 392.2,359.3 390,359.3 390,361.8 389.4,361.8 389.4,356.6 390,356.6 390,358.8 
			392.2,358.8 392.2,356.6 392.8,356.6 392.8,361.8 		"/>
		<polygon class="st0" points="397.1,357.1 395.7,357.1 395.7,361.8 395.1,361.8 395.1,357.1 393.7,357.1 393.7,356.6 397.1,356.6 
					"/>
		<path class="st0" d="M402.2,361.8h-2.9v-0.3c0.1-0.1,0.3-0.2,0.5-0.4c0.2-0.2,0.4-0.4,0.6-0.7c0.2-0.2,0.4-0.5,0.5-0.6
			c0.1-0.2,0.3-0.4,0.4-0.6c0.1-0.2,0.2-0.3,0.2-0.5c0-0.1,0.1-0.3,0.1-0.4c0-0.3-0.1-0.5-0.3-0.7c-0.2-0.2-0.4-0.3-0.7-0.3
			c-0.1,0-0.2,0-0.3,0c-0.1,0-0.2,0.1-0.3,0.1c-0.1,0-0.2,0.1-0.3,0.1c-0.1,0.1-0.2,0.1-0.3,0.2l-0.3-0.3c0.3-0.3,0.6-0.4,0.8-0.5
			c0.3-0.1,0.5-0.2,0.8-0.2c0.2,0,0.4,0,0.6,0.1c0.2,0.1,0.3,0.2,0.4,0.3c0.1,0.1,0.2,0.3,0.3,0.4c0.1,0.2,0.1,0.4,0.1,0.6
			c0,0.2-0.1,0.4-0.1,0.7c-0.1,0.2-0.2,0.5-0.4,0.7c-0.2,0.2-0.4,0.5-0.7,0.8c-0.1,0.1-0.2,0.2-0.4,0.4c-0.1,0.1-0.2,0.2-0.3,0.3
			c-0.1,0.1-0.2,0.2-0.3,0.2c-0.1,0.1-0.1,0.1-0.2,0.1h0.1c0.1,0,0.1,0,0.2,0c0.1,0,0.2,0,0.3,0h1.6L402.2,361.8"/>
		<path class="st0" d="M406.2,359.3c0-0.3,0-0.5,0-0.7c0-0.2-0.1-0.4-0.1-0.6c-0.1-0.3-0.2-0.5-0.4-0.6c-0.2-0.1-0.4-0.2-0.6-0.2
			c-0.1,0-0.3,0.1-0.4,0.2c-0.1,0.1-0.3,0.3-0.4,0.5c-0.2,0.3-0.3,0.8-0.3,1.4c0,0.3,0,0.5,0,0.8c0,0.2,0.1,0.4,0.1,0.6
			c0.1,0.3,0.2,0.5,0.4,0.6c0.2,0.2,0.3,0.2,0.5,0.2c0.2,0,0.3-0.1,0.5-0.2c0.2-0.1,0.3-0.3,0.4-0.5c0.1-0.2,0.1-0.4,0.2-0.6
			C406.2,359.9,406.2,359.6,406.2,359.3 M406.9,359.3c0,0.4-0.1,0.7-0.1,1.1c-0.1,0.3-0.2,0.6-0.4,0.8c-0.2,0.2-0.3,0.4-0.6,0.5
			c-0.2,0.1-0.5,0.2-0.7,0.2c-0.3,0-0.6-0.1-0.8-0.3c-0.2-0.2-0.4-0.4-0.5-0.7c-0.1-0.3-0.2-0.6-0.3-0.9c-0.1-0.3-0.1-0.6-0.1-0.9
			c0-0.3,0-0.7,0.1-1c0.1-0.3,0.2-0.6,0.4-0.8c0.2-0.2,0.3-0.4,0.6-0.5c0.2-0.1,0.4-0.2,0.7-0.2c0.2,0,0.4,0,0.6,0.1
			c0.2,0.1,0.3,0.2,0.5,0.3c0.1,0.1,0.2,0.3,0.3,0.4c0.1,0.2,0.2,0.4,0.2,0.5c0.1,0.2,0.1,0.4,0.1,0.6
			C406.8,359,406.9,359.1,406.9,359.3"/>
		<path class="st0" d="M411.1,359.3c0,0.4,0,0.7-0.1,1.1c-0.1,0.3-0.2,0.6-0.4,0.8c-0.2,0.2-0.3,0.4-0.6,0.5
			c-0.2,0.1-0.5,0.2-0.7,0.2c-0.3,0-0.6-0.1-0.8-0.3c-0.2-0.2-0.4-0.4-0.5-0.7c-0.1-0.3-0.2-0.6-0.3-0.9c-0.1-0.3-0.1-0.6-0.1-0.9
			c0-0.3,0-0.7,0.1-1c0.1-0.3,0.2-0.6,0.4-0.8c0.2-0.2,0.4-0.4,0.6-0.5c0.2-0.1,0.4-0.2,0.7-0.2c0.2,0,0.4,0,0.6,0.1
			c0.2,0.1,0.3,0.2,0.5,0.3c0.1,0.1,0.2,0.3,0.3,0.4c0.1,0.2,0.2,0.4,0.2,0.5c0.1,0.2,0.1,0.4,0.1,0.6
			C411.1,359,411.1,359.1,411.1,359.3"/>
	</g>
</g>
<g>
	<path class="st2" d="M439.6,478.4h-0.3c-0.1-1.4,0-2.8,0.2-4.1c0-0.4,0.2-0.8-0.2-1.1h0.3V478.4z"/>
	<path class="st2" d="M161.2,486.1c-0.1-0.5-0.1-1,0-1.5v-84c0-0.7,0-0.8,0.9-0.8h0.7c6.2,0,12.3,0,18.4,0c2.5,0,5,0.3,7.4,0.9
		c2.1,0.5,4.2,1.4,6,2.6c3.9,2.4,6.3,6.6,6.2,11.2c0,1.6,0,3.1,0,4.7c0,7.8,0,15.6,0,23.3c0,1.4-0.1,2.8-0.5,4.1
		c-0.9,3.3-3.1,6.1-6,7.8l-2.2,1.3c0,0.4,0.1,0.7,0.3,1c3.7,7.8,6.5,15.9,8.4,24.4c0.3,1.4,0.7,2.8,1,4.2c0.2,0.8,0,0.9-0.8,0.9
		h-12.4c-0.9,0-0.9,0-1.1-0.9c-0.8-3.4-1.7-6.8-2.8-10.2c-1.8-5.7-4.1-11.2-7.1-16.4c-0.3-0.5-0.5-1.1-0.4-1.6c0-1.9,0-3.8,0-5.7
		c-0.1-0.5,0.3-1,0.8-1.1c1.6-0.6,3.2-1.4,4.7-2.2c1.2-0.7,2.3-1.5,3.4-2.5c0.8-0.6,1.2-1.6,1.1-2.6c0-6.5,0-13.1,0-19.6
		c0-2.8,0-5.6,0-8.3c0-0.9,0-1-0.9-1.3c-1.3-0.5-2.6-0.7-3.9-0.8c-2.3,0-4.6,0-6.9,0c-0.4,0-0.7,0.2-0.7,0.6c0,0.4,0,1,0,1.6v70.7
		c0,0.4-0.3,0.6-0.7,0.6h-11.9C161.8,486.3,161.5,486.2,161.2,486.1z"/>
	<path class="st2" d="M110.4,442.9V414c0-1.1,0.1-2.2,0.2-3.3c0.6-3.2,2.4-6.1,5-8c2-1.5,4.3-2.5,6.7-3.2c5.6-1.5,11.6-1.4,17.1,0.4
		c2,0.6,3.8,1.6,5.5,2.9c3.1,2.4,4.9,6,5,9.9c0,0.4,0,0.9,0,1.4v57.8c0,1.4-0.1,2.9-0.4,4.3c-0.7,2.7-2.2,5-4.4,6.7
		c-2.2,1.8-4.8,3-7.6,3.7c-5.7,1.5-11.8,1.2-17.4-0.8c-1.6-0.6-3.1-1.4-4.4-2.4c-3.4-2.4-5.4-6.3-5.3-10.4c0-3.4,0-6.8,0-10.2
		L110.4,442.9z M136.5,442.9V421c0-2.4,0-4.7,0-7.1c0-1.2,0-1.2-1.1-1.6c-3.2-1-6.6-1-9.8,0c-1.6,0.5-1.5,0.4-1.5,2.1v56.9
		c0,0.4,0,0.8,0,1.2c0,0.9,0,0.9,0.9,1.2c3.2,1.1,6.6,1.2,9.9,0.2c1.9-0.5,1.6-0.4,1.6-2.1c-0.1-9.8-0.1-19.4-0.1-28.9H136.5z"/>
	<path class="st2" d="M318,442.9c0,9.5,0,19,0,28.5c0,2-0.4,1.8,1.9,2.4c3,0.9,6.2,0.8,9.2-0.2c1.2-0.4,1.2-0.4,1.2-1.5
		c0-7.4,0-14.7,0-22c0-0.7-0.2-1.4-0.7-1.9c-1.7-1.9-3.9-3.5-6.2-4.6l-1.1-0.5c-0.4-0.1-0.6-0.5-0.6-0.9v-5.9c0-0.6,0.2-0.8,0.7-0.8
		h21c0.3,0,0.5,0.2,0.5,0.5c0,0,0,0,0,0c0,0.4,0,0.8,0,1.2V472c0,1.2-0.1,2.4-0.3,3.6c-0.7,3.2-2.5,6-5.2,7.8
		c-2.1,1.5-4.4,2.5-6.9,3.1c-5.4,1.4-11.1,1.3-16.4-0.4c-1.9-0.6-3.6-1.5-5.2-2.6c-3.4-2.3-5.4-6.1-5.5-10.1c0-0.5,0-1,0-1.6v-57.5
		c0-1.3,0-2.6,0.3-3.8c0.6-2.9,2.2-5.4,4.5-7.2c2.1-1.7,4.6-2.9,7.2-3.6c5.9-1.6,12.1-1.4,17.9,0.8c1.9,0.7,3.7,1.7,5.2,3.1
		c2.6,2.2,4.2,5.3,4.4,8.7c0,0.3,0,0.6,0,0.9c0,3.5,0,7,0,10.6c0,0.9,0,1-0.9,1.2c-1.5,0.3-2.9,0.7-4.4,0.9
		c-2.4,0.3-4.8,0.5-7.2,0.7c-1,0-1,0-1-1.1c0-3.6,0-7.2,0-10.7c0-2,0.3-1.8-1.9-2.4c-3.1-0.9-6.5-0.8-9.6,0.3
		c-0.5,0.1-0.9,0.6-0.8,1.1c0,0.4,0,0.8,0,1.2L318,442.9z"/>
	<path class="st2" d="M125.2,339.7V311c0-1.3,0-2.5,0.2-3.8c0.6-3.2,2.4-5.9,5-7.8c2.2-1.6,4.7-2.7,7.4-3.3
		c5.6-1.4,11.5-1.1,16.9,0.8c1.4,0.5,2.8,1.2,4,2c3.7,2.3,6,6.4,6,10.7c0,3.6,0,7.2,0,10.8c0,0.7,0,0.8-0.7,1
		c-1.1,0.3-2.1,0.5-3.2,0.7c-2.8,0.5-5.6,0.8-8.4,0.9h-0.5c-0.5,0-0.7-0.2-0.7-0.7v-7.8c0-1.4,0-2.8,0-4.1c0.1-0.5-0.2-1.1-0.8-1.2
		c-3.5-1.2-7.3-1.2-10.7,0c-0.5,0.1-0.9,0.6-0.8,1.1c0,0.3,0,0.7,0,1c0,18.9,0,37.8,0,56.7c0,2.2-0.5,2,2.1,2.6
		c3.1,0.8,6.4,0.7,9.4-0.3c0.5-0.1,0.9-0.6,0.8-1.1c0-0.3,0-0.6,0-0.9c0-7,0-14,0-21c0-1-0.4-2-1.1-2.8c-1.9-2-4.2-3.5-6.7-4.5
		c-0.6-0.2-0.9-0.7-0.9-1.3c0-1.9,0-3.8,0-5.7c0-0.6,0.2-0.7,0.7-0.7H164c0.6,0,0.7,0.1,0.8,0.7c0,0.5,0,0.8,0,1.2
		c0,11.5,0,22.9,0,34.4c0,1.3-0.1,2.7-0.4,4c-0.6,2.9-2.3,5.5-4.7,7.3c-2.5,1.9-5.4,3.2-8.5,3.7c-4.9,1-10,0.9-14.8-0.5
		c-2.2-0.6-4.2-1.6-6-3c-3.2-2.3-5.1-6-5.2-9.9c0-0.8,0-1.5,0-2.3L125.2,339.7z"/>
	<path class="st2" d="M253.7,437.3v-35.4c0-0.5,0-1,0-1.5c0-0.3,0.2-0.6,0.5-0.6c0,0,0.1,0,0.1,0h12.2c0.6,0,0.8,0.2,0.8,0.7
		c0,0.5,0,1,0,1.6v69.9c0,1.4-0.2,1.4,1.3,1.8c3.3,1.1,6.8,1.1,10.1,0c0.9-0.3,0.9-0.3,0.9-1.2s0-0.9,0-1.4V402
		c0-2.6-0.3-2.2,2.2-2.2h10.8c0.3,0,0.6,0.2,0.7,0.6c0,0,0,0,0,0.1c0,0.2,0,0.3,0,0.5c0,0.3,0,0.6,0,0.9c0,23.4,0,46.9,0,70.4
		c0,1.3-0.1,2.7-0.4,4c-0.7,3.1-2.6,5.9-5.2,7.7c-2,1.4-4.2,2.3-6.6,2.9c-5.5,1.4-11.2,1.3-16.6-0.5c-2.7-0.8-5.1-2.2-7.1-4.2
		c-2.1-2.2-3.4-5-3.5-8.1c0-0.7,0-1.4,0-2.1L253.7,437.3z"/>
	<path class="st2" d="M351.4,486.1c0-1.2,0.1-2.4,0.4-3.6c0.9-6.1,1.8-12.1,2.6-18.3c1-6.6,2-13,3-19.7c1.1-7.3,2.2-14.6,3.3-22
		c1-6.6,2-13.1,3-19.7c0-0.9,0.3-1.7,0.4-2.6c0-0.4,0.4-0.7,0.8-0.7c0,0,0,0,0,0c0.9,0,1.9-0.2,2.8-0.3c5.3-0.4,10.7-0.3,16,0.2
		c0.9,0,0.9,0,1.1,1l1.3,9.1c0.5,3.7,1.1,7.4,1.6,11.2c0.5,3.7,1,7.2,1.5,10.8l1.9,13.2c0.5,3.7,1.1,7.3,1.6,11
		c0.5,3.7,1,7.2,1.5,10.8c0.5,3.6,1,7.2,1.6,10.8c0.3,2.2,0.7,4.5,0.9,6.7c0.2,0.6,0.2,1.2,0,1.9c-1.3,0.2-11.6,0.2-13.4,0
		c-0.2-0.4-0.3-0.9-0.3-1.4c-0.4-2.9-0.8-5.7-1.1-8.6c-0.1-0.9-0.5-1.7-1.3-2.1c-2.8-1.9-5.8-3.4-9-4.3c-0.6-0.1-1.1-0.3-1.6-0.6
		c-0.4-0.4,0-1.1,0-1.6c0.2-1.6,0.5-3.2,0.8-4.8c0-0.8,0.2-0.9,1.1-0.9h6.1h1.6c-0.1-1-0.2-2-0.4-2.9c-0.8-5.7-1.6-11.5-2.4-17.2
		l-2.4-17.4c0-0.2-0.1-0.3-0.2-0.5c-0.1-0.1-0.2-0.1-0.3-0.2c0,0-0.3,0-0.3,0.1c-0.1,0.2-0.2,0.4-0.2,0.7c-0.6,4.5-1.2,8.9-1.8,13.4
		c-0.6,4.5-1.3,9.2-2,13.7l-1.9,13.7c-0.8,5.4-1.5,10.8-2.3,16.2l-0.5,4.3c0,0.7-0.3,0.9-0.9,0.9h-12.4
		C351.6,486.4,351.5,486.2,351.4,486.1z"/>
	<path class="st2" d="M217.8,382.7c-4.5,0.2-9.1,0.2-13.6,0c-0.3-1.4-0.6-2.8-0.7-4.3c-0.3-2-0.6-4-0.8-6c-0.1-0.8-0.5-1.6-1.2-2
		c-2.6-1.9-5.6-3.3-8.7-4.2l-1.8-0.6c-0.2,0-0.4-0.3-0.3-0.5c0,0,0,0,0,0c0.3-2.1,0.7-4.1,1-6.2c0-0.7,0.3-0.8,0.9-0.8h6.1
		c0.6,0.1,1.2,0,1.8-0.2c0-1.1-0.1-2.3-0.4-3.4c-0.6-4.7-1.3-9.5-2-14.3c-0.7-4.8-1.3-9.2-1.9-13.7c-0.3-1.9-0.5-3.9-0.8-5.8
		c0-0.2-0.1-0.5-0.2-0.7c-0.1-0.1-0.2-0.2-0.3-0.2c-0.1,0-0.2,0.1-0.3,0.2c-0.1,0.3-0.2,0.5-0.3,0.8c-0.6,4.5-1.2,8.9-1.8,13.4
		l-2,13.7l-1.9,13.7l-2,13.7c-0.3,2-0.5,4-0.8,6c0,0.3,0,0.6,0,0.9c0,0.2-0.2,0.4-0.5,0.4h-12.8c-0.2,0-0.4-0.1-0.5-0.1
		c0-1.1,0.1-2.3,0.4-3.4c0.8-5.2,1.5-10.4,2.3-15.6l2.3-15.1c0.8-5,1.5-10.1,2.2-15.1c0.8-5,1.5-10.1,2.3-15.1l2.6-17.3
		c0.2-1.3,0.4-2.6,0.6-3.9c0-0.7,0.2-0.8,1-1h0.7c5.8-0.5,11.6-0.5,17.3,0c0.3,0,0.7,0,1,0.2c0.3,0,0.5,0.2,0.6,0.5
		c0.2,1.3,0.4,2.6,0.6,3.8c1,6.9,1.9,13.7,2.9,20.6c0.9,6,1.8,12.1,2.6,18.3c0.8,6.1,1.7,12.2,2.6,18.3c0.9,6.1,1.8,12.1,2.6,18.3
		c0.3,1.7,0.5,3.4,0.7,5.2C217.7,381.6,217.8,382.2,217.8,382.7z"/>
	<path class="st2" d="M60.4,442.9v-41.1c0-2.3-0.2-2.1,2-2.1c5.9,0,11.8,0,17.7,0c3.3,0,6.6,0.5,9.7,1.6c1.9,0.6,3.6,1.6,5.2,2.8
		c3.1,2.4,4.9,6.2,4.9,10.1v32.3c0,2-0.4,3.9-1.1,5.8c-1.1,2.4-2.9,4.5-5.2,5.8c-2.5,1.5-5.2,2.6-8.1,3.1c-2.8,0.4-5.5,0.5-8.3,0.4
		c-0.6,0-0.8,0-0.8-0.7v-6.1c0-0.4,0.3-0.8,0.7-0.9c1.6-0.6,3.2-1.3,4.7-2.2c1.4-0.8,2.6-1.7,3.8-2.8c0.6-0.5,0.9-1.2,0.8-2
		c0-1.3,0-2.6,0-3.8c0-9.1,0-18.2,0-27.2c0-2,0.4-1.8-1.8-2.5c-1.1-0.3-2.3-0.5-3.4-0.5h-6.3c-0.8,0-0.8,0-0.9,0.8v70.6
		c0,2.3,0.3,2.1-2,2.1H60.9c-0.2,0-0.4-0.2-0.4-0.4c0-0.5,0-1,0-1.6L60.4,442.9z"/>
	<path class="st2" d="M219.8,449.4v-34.5c0-0.5,0-1,0-1.6c0-0.3-0.2-0.5-0.4-0.5c0,0-0.1,0-0.1,0h-12.5c-0.4,0-0.5-0.2-0.5-0.5
		v-11.4c0-0.2,0-0.3,0-0.5c0-0.3,0.3-0.5,0.5-0.5c0,0,0,0,0,0h39.1c0.8,0,0.9,0,0.9,0.9v10.4c0,0.4,0,0.8,0,1.2
		c0,0.3-0.2,0.5-0.4,0.5c0,0-0.1,0-0.1,0h-11.3c-0.4,0-0.8,0-1.2,0c0,0-0.3,0.2-0.3,0.3c0,0.2,0,0.3,0,0.5v70.4
		c0,2.4,0.3,2.1-2.1,2.1h-11c-0.3,0-0.5-0.2-0.5-0.5c0,0,0,0,0-0.1c0-0.5,0-1,0-1.5V449.4z"/>
	<path class="st2" d="M439.3,473.2c0.4,0.3,0.3,0.7,0.2,1.1c-0.2,1.4-0.3,2.7-0.2,4.1c-0.1,2.3-0.3,4.5-0.7,6.7v0.5
		c0,0.3-0.3,0.5-0.5,0.5h-31.6c-1.6,0-1.5,0-1.5-1.5v-30.5c0-17.4,0-34.8,0-52.1c0-2.6-0.3-2.2,2.3-2.3H418c0.3,0,0.5,0.3,0.5,0.6
		c0,0,0,0,0,0c0,0.5,0,1,0,1.6c0,23,0,46.1,0,69.1c0,0.7-0.3,1.6,0.2,2.1c0.6,0.5,1.3,0.2,2,0.2L439.3,473.2z"/>
	<path class="st2" d="M60.4,339.5v-42.3c0-0.7,0-0.8,0.8-0.8h11.5c1.3,0,1.3,0,1.3,1.4v71.3c0,0.7,0,0.8,0.9,0.8h19.4
		c0.6,0,0.7,0.2,0.7,0.7c0,1.7-0.2,3.4-0.3,5s-0.4,3.4-0.6,5.2c0,0.5-0.2,0.9-0.2,1.4c0,0.4-0.3,0.7-0.6,0.7c0,0-0.1,0-0.1,0
		c-0.4,0-0.8,0-1.2,0H61c-0.5,0-0.6-0.3-0.6-0.7V339.5z"/>
	<path class="st2" d="M100.5,339.7v-41.3c0-2.2-0.2-2,1.9-2h9.9c0.5,0,0.9,0,1.4,0c0.2,0,0.4,0.2,0.4,0.4c0,0.4,0,0.8,0,1.2v83.4
		c0,1.3,0,1.3-1.2,1.3h-11.8c-0.4,0-0.6-0.3-0.6-0.7v-42.5V339.7z"/>
	<path class="st2" d="M150.7,13.2l-1.3-0.4c0,0-0.2-0.3,0.2-0.3h1.9v0.3h-0.5C150.9,12.7,150.7,12.9,150.7,13.2z"/>
	<path class="st2" d="M150.7,13.2c0-0.3,0-0.4,0.3-0.4h0.5c11.6,1.9,23.1,4.7,34.2,8.4c30.4,9.9,58.7,25.5,83.2,46
		c18,15.1,33.7,32.8,46.5,52.5l0.5,0.7c0.2,0.4,0.2,0.6-0.3,0.8c-0.4,0.2-0.9,0.5-1.3,0.8l-27.4,15.3l-1.7,1
		c0.4,0.6,0.7,1.1,1.1,1.6c10.1,14.5,19.3,29.7,27.3,45.4c13.3,26.1,23.6,53.6,30.6,82c2.3,9.4,4.2,18.8,5.8,28.3
		c1.1,6.6,2,13,2.8,19.8c0.9,7.4,1.5,14.9,1.9,22.3c0.5,8.3,0.5,16.7,0.5,25c0,6.3-0.4,12.5-0.8,18.8c-0.4,6.3-1,11.8-2,17.7
		c0,0.3,0,0.7-0.4,0.9c-0.4-3-0.7-6-1.1-9c-0.8-5.2-1.7-10.5-2.6-15.8c-1.5-8.5-3.3-16.9-5.4-25.3c-6.3-26.2-14.6-51.9-24.7-76.8
		c-14.5-35.8-33-69.9-55.3-101.5c-10.1-14.2-20.9-27.9-32.6-40.9l-1.2-1.4c0.4-0.5,0.9-0.8,1.5-1l29.7-16.5c0.6-0.2,1.2-0.6,1.6-1.1
		l-1.1-1.5c-8.9-11.9-18.6-23.1-29-33.6c-21.2-21.5-44.9-40.4-70.6-56.3c-3.1-1.9-6.2-3.7-9.4-5.5C151.5,13.5,151.1,13.4,150.7,13.2
		z"/>
	<path class="st2" d="M200.3,148.3c0.6,0,0.9,0.6,1.4,1c7.3,6.7,14.3,13.8,20.9,21.3c13.3,15,25.2,31.1,35.5,48.3c1,1.7,2,3.5,3,5.2
		c0.3,0.4,0.3,1,0,1.4c-1.4,1.8-2.8,3.6-4.2,5.4c-0.5,0.7-0.5,0.7-1.4,0.3l-14.1-4.7l-24.9-8.6l-0.5-0.1c-0.7-0.1-1.2-0.7-1.3-1.4
		c-0.8-4.2-1.7-8.4-2.6-12.6l-5.7-26.8c-2-9.4-4-18.7-6-28.1C200.3,148.7,200.3,148.5,200.3,148.3z"/>
</g>
</svg>
