<?xml version="1.0" encoding="utf-8"?>
<!-- Generator: Adobe Illustrator 25.0.1, SVG Export Plug-In . SVG Version: 6.00 Build 0)  -->
<svg version="1.1" id="Layer_1" xmlns="http://www.w3.org/2000/svg" xmlns:xlink="http://www.w3.org/1999/xlink" x="0px" y="0px"
	 viewBox="0 0 500 500" style="enable-background:new 0 0 500 500;" xml:space="preserve">
<style type="text/css">
	.st0{display:none;fill:#FFFFFF;}
	.st1{display:none;fill:none;stroke:#FFFFFF;stroke-width:0.5621;stroke-miterlimit:10;}
	.st2{fill:#FFFFFF;}
	.st3{fill:#7F8384;}
	.st4{fill:#293F9C;}
	.st5{fill-rule:evenodd;clip-rule:evenodd;fill:#AA1A27;stroke:#FFFFFF;stroke-width:13.0077;stroke-miterlimit:6.8328;}
	.st6{fill-rule:evenodd;clip-rule:evenodd;fill:#AA1A27;}
	.st7{fill:#0E2D6D;}
	.st8{fill-rule:evenodd;clip-rule:evenodd;fill:#93ACD3;}
	.st9{fill-rule:evenodd;clip-rule:evenodd;fill:#EB9098;}
</style>
<g>
	<g>
		<path class="st0" d="M354.1,355.2c-2.2,0-3.9,1.8-3.9,3.9c0,2.2,1.8,3.9,3.9,3.9c2.2,0,3.9-1.8,3.9-3.9
			C358,357,356.2,355.2,354.1,355.2 M357.4,359.2c0,1.9-1.5,3.4-3.3,3.4c-1.9,0-3.4-1.5-3.4-3.4c0-1.8,1.5-3.3,3.4-3.3
			C355.9,355.8,357.4,357.3,357.4,359.2"/>
		<path class="st0" d="M354,360.8c-0.9,0-1.7-0.8-1.7-1.7c0-0.9,0.8-1.7,1.7-1.7c0.7,0,1.2,0.4,1.5,1h0.5c-0.3-0.8-1.1-1.4-2-1.4
			c-1.2,0-2.1,1-2.1,2.1c0,1.2,1,2.1,2.1,2.1c1,0,1.8-0.6,2-1.5h-0.5C355.3,360.4,354.7,360.8,354,360.8"/>
		<path class="st0" d="M364.7,361.5c-0.2,0.1-0.4,0.2-0.7,0.3c-0.3,0.1-0.5,0.1-0.8,0.1c-0.3,0-0.6,0-0.8-0.2
			c-0.3-0.1-0.5-0.3-0.7-0.5c-0.2-0.3-0.4-0.6-0.5-0.9c-0.1-0.3-0.1-0.7-0.1-1.1c0-0.4,0.1-0.7,0.2-1.1c0.1-0.3,0.3-0.6,0.5-0.9
			c0.2-0.2,0.4-0.4,0.7-0.6c0.3-0.1,0.6-0.2,0.9-0.2c0.2,0,0.5,0,0.7,0.1c0.2,0.1,0.4,0.2,0.6,0.3l-0.3,0.4
			c-0.2-0.1-0.3-0.2-0.5-0.2c-0.2-0.1-0.3-0.1-0.5-0.1c-0.3,0-0.6,0.1-0.8,0.2c-0.2,0.1-0.4,0.4-0.5,0.7c-0.1,0.2-0.1,0.4-0.2,0.6
			c0,0.2,0,0.5,0,0.8c0,0.2,0,0.5,0,0.6c0,0.2,0.1,0.3,0.1,0.5c0.1,0.3,0.3,0.6,0.6,0.7c0.3,0.2,0.5,0.2,0.8,0.2
			c0.2,0,0.4,0,0.5-0.1c0.2-0.1,0.3-0.1,0.5-0.3L364.7,361.5"/>
		<path class="st0" d="M368.6,359.4c0-0.4,0-0.7-0.1-1c0-0.3-0.1-0.5-0.2-0.7c-0.1-0.2-0.2-0.4-0.4-0.5c-0.2-0.1-0.4-0.2-0.7-0.2
			c-0.2,0-0.5,0-0.7,0.1c-0.2,0.1-0.3,0.3-0.4,0.5c-0.1,0.2-0.2,0.4-0.2,0.6c0,0.2-0.1,0.5-0.1,0.8c0,0.4,0,0.8,0.1,1.1
			c0.1,0.3,0.1,0.6,0.2,0.8c0.1,0.1,0.1,0.2,0.2,0.2c0.1,0.1,0.2,0.1,0.3,0.2c0.1,0.1,0.2,0.1,0.3,0.1c0.1,0,0.2,0,0.3,0
			c0.2,0,0.4,0,0.6-0.1c0.2-0.1,0.3-0.2,0.4-0.3c0.1-0.1,0.1-0.2,0.2-0.3c0-0.1,0.1-0.2,0.1-0.3c0-0.1,0.1-0.3,0.1-0.4
			C368.6,359.8,368.6,359.6,368.6,359.4 M369.3,359.3c0,0.5-0.1,0.9-0.2,1.3c-0.1,0.3-0.3,0.6-0.6,0.9c-0.2,0.2-0.4,0.3-0.6,0.4
			c-0.2,0.1-0.4,0.1-0.7,0.1c-0.3,0-0.6,0-0.9-0.2c-0.2-0.1-0.5-0.3-0.6-0.5c-0.4-0.5-0.6-1.2-0.6-2.1c0-0.4,0.1-0.8,0.2-1.1
			c0.1-0.3,0.2-0.6,0.4-0.8c0.2-0.2,0.4-0.4,0.7-0.5c0.3-0.1,0.5-0.2,0.9-0.2c0.2,0,0.4,0,0.6,0.1c0.2,0,0.3,0.1,0.5,0.2
			c0.1,0.1,0.3,0.2,0.3,0.3c0.1,0.1,0.2,0.2,0.2,0.3c0.2,0.2,0.3,0.5,0.4,0.8C369.3,358.5,369.3,358.9,369.3,359.3"/>
		<path class="st0" d="M373,358.2c0-0.4-0.1-0.7-0.3-0.8c-0.1-0.1-0.2-0.2-0.4-0.2c-0.2-0.1-0.4-0.1-0.6-0.1H371v2.1h0.9
			c0.2,0,0.4,0,0.5-0.1c0.1,0,0.2-0.1,0.3-0.2C372.9,358.7,373,358.5,373,358.2 M373.7,358.1c0,0.3,0,0.5-0.1,0.7
			c-0.1,0.2-0.2,0.4-0.4,0.5c-0.2,0.2-0.4,0.3-0.6,0.3c-0.2,0.1-0.4,0.1-0.7,0.1H371v2.1h-0.6v-5.2h1.5c0.3,0,0.5,0,0.7,0
			c0.2,0,0.3,0.1,0.5,0.2C373.5,357.1,373.7,357.5,373.7,358.1"/>
		<path class="st0" d="M376.1,359.8v2h-0.6v-2.1l-1.7-3.2h0.8l1,2c0,0.1,0.1,0.2,0.1,0.3c0,0.1,0.1,0.2,0.1,0.2c0,0.1,0,0.1,0,0.1
			c0.1-0.2,0.2-0.4,0.3-0.6l1-2h0.7L376.1,359.8"/>
		<path class="st0" d="M380.8,358c0-0.2,0-0.3-0.1-0.5c-0.1-0.2-0.2-0.3-0.4-0.3c-0.1,0-0.2-0.1-0.3-0.1c-0.1,0-0.2,0-0.4,0h-0.6v2
			h0.6c0.2,0,0.4,0,0.6-0.1c0.1,0,0.3-0.1,0.4-0.2c0.1-0.1,0.2-0.2,0.2-0.3C380.8,358.3,380.8,358.2,380.8,358 M381,361.8
			c0-0.1-0.1-0.2-0.2-0.3c-0.1-0.1-0.2-0.3-0.3-0.5c-0.1-0.2-0.2-0.4-0.4-0.6c-0.1-0.2-0.3-0.4-0.5-0.6c0-0.1-0.1-0.1-0.1-0.1
			c0,0-0.1-0.1-0.1-0.1c-0.1,0-0.1,0-0.1-0.1c-0.1,0-0.1,0-0.2,0v2.4h-0.6v-5.2h1.2c0.2,0,0.3,0,0.5,0c0.1,0,0.3,0,0.4,0.1
			c0.1,0,0.2,0.1,0.3,0.1c0.1,0,0.1,0.1,0.2,0.1c0.1,0,0.1,0.1,0.2,0.2c0.1,0.1,0.1,0.2,0.2,0.2c0,0.1,0.1,0.2,0.1,0.3
			c0,0.1,0,0.2,0,0.4c0,0.2,0,0.4-0.1,0.6c-0.1,0.2-0.2,0.3-0.3,0.5c-0.1,0.1-0.3,0.2-0.4,0.3c-0.2,0.1-0.4,0.1-0.6,0.1H380
			c0.1,0.1,0.2,0.2,0.3,0.3c0.1,0.1,0.2,0.2,0.2,0.3c0,0.1,0.1,0.2,0.2,0.3c0.1,0.1,0.2,0.3,0.3,0.5c0.1,0.2,0.2,0.3,0.3,0.5
			c0.1,0.2,0.2,0.3,0.2,0.4c0.1,0.1,0.1,0.1,0.1,0.2H381z"/>
		<line class="st1" x1="382.9" y1="361.8" x2="382.9" y2="356.6"/>
		<path class="st0" d="M388.1,361.5c-0.2,0.1-0.4,0.2-0.7,0.3c-0.3,0.1-0.5,0.1-0.8,0.1c-0.7,0-1.2-0.2-1.6-0.7
			c-0.2-0.2-0.4-0.5-0.5-0.9c-0.1-0.3-0.2-0.7-0.2-1.2c0-0.5,0.1-0.9,0.2-1.3c0.1-0.4,0.3-0.7,0.6-0.9c0.4-0.3,0.8-0.5,1.4-0.5
			c0.6,0,1,0.2,1.4,0.5l-0.3,0.4c-0.2-0.2-0.4-0.2-0.6-0.3c-0.2-0.1-0.4-0.1-0.6-0.1c-0.3,0-0.6,0.1-0.8,0.2
			c-0.2,0.1-0.4,0.4-0.5,0.7c-0.1,0.4-0.2,0.8-0.2,1.3c0,0.4,0,0.7,0.1,0.9c0.1,0.3,0.2,0.5,0.3,0.7c0.1,0.1,0.1,0.2,0.2,0.2
			c0.1,0.1,0.2,0.1,0.3,0.2c0.1,0.1,0.2,0.1,0.4,0.1c0.1,0,0.3,0,0.4,0c0.3,0,0.6-0.1,0.8-0.2v-1.6h-1l-0.1-0.5h1.8V361.5"/>
		<polygon class="st0" points="392.2,361.8 392.2,359.3 390,359.3 390,361.8 389.4,361.8 389.4,356.6 390,356.6 390,358.8 
			392.2,358.8 392.2,356.6 392.8,356.6 392.8,361.8 		"/>
		<polygon class="st0" points="397.1,357.1 395.7,357.1 395.7,361.8 395.1,361.8 395.1,357.1 393.7,357.1 393.7,356.6 397.1,356.6 
					"/>
		<path class="st0" d="M402.2,361.8h-2.9v-0.3c0.1-0.1,0.3-0.2,0.5-0.4c0.2-0.2,0.4-0.4,0.6-0.7c0.2-0.2,0.4-0.5,0.5-0.6
			c0.1-0.2,0.3-0.4,0.4-0.6c0.1-0.2,0.2-0.3,0.2-0.5c0-0.1,0.1-0.3,0.1-0.4c0-0.3-0.1-0.5-0.3-0.7c-0.2-0.2-0.4-0.3-0.7-0.3
			c-0.1,0-0.2,0-0.3,0c-0.1,0-0.2,0.1-0.3,0.1c-0.1,0-0.2,0.1-0.3,0.1c-0.1,0.1-0.2,0.1-0.3,0.2l-0.3-0.3c0.3-0.3,0.6-0.4,0.8-0.5
			c0.3-0.1,0.5-0.2,0.8-0.2c0.2,0,0.4,0,0.6,0.1c0.2,0.1,0.3,0.2,0.4,0.3c0.1,0.1,0.2,0.3,0.3,0.4c0.1,0.2,0.1,0.4,0.1,0.6
			c0,0.2-0.1,0.4-0.1,0.7c-0.1,0.2-0.2,0.5-0.4,0.7c-0.2,0.2-0.4,0.5-0.7,0.8c-0.1,0.1-0.2,0.2-0.4,0.4c-0.1,0.1-0.2,0.2-0.3,0.3
			c-0.1,0.1-0.2,0.2-0.3,0.2c-0.1,0.1-0.1,0.1-0.2,0.1h0.1c0.1,0,0.1,0,0.2,0c0.1,0,0.2,0,0.3,0h1.6L402.2,361.8"/>
		<path class="st0" d="M406.2,359.3c0-0.3,0-0.5,0-0.7c0-0.2-0.1-0.4-0.1-0.6c-0.1-0.3-0.2-0.5-0.4-0.6c-0.2-0.1-0.4-0.2-0.6-0.2
			c-0.1,0-0.3,0.1-0.4,0.2c-0.1,0.1-0.3,0.3-0.4,0.5c-0.2,0.3-0.3,0.8-0.3,1.4c0,0.3,0,0.5,0,0.8c0,0.2,0.1,0.4,0.1,0.6
			c0.1,0.3,0.2,0.5,0.4,0.6c0.2,0.2,0.3,0.2,0.5,0.2c0.2,0,0.3-0.1,0.5-0.2c0.2-0.1,0.3-0.3,0.4-0.5c0.1-0.2,0.1-0.4,0.2-0.6
			C406.2,359.9,406.2,359.6,406.2,359.3 M406.9,359.3c0,0.4-0.1,0.7-0.1,1.1c-0.1,0.3-0.2,0.6-0.4,0.8c-0.2,0.2-0.3,0.4-0.6,0.5
			c-0.2,0.1-0.5,0.2-0.7,0.2c-0.3,0-0.6-0.1-0.8-0.3c-0.2-0.2-0.4-0.4-0.5-0.7c-0.1-0.3-0.2-0.6-0.3-0.9c-0.1-0.3-0.1-0.6-0.1-0.9
			c0-0.3,0-0.7,0.1-1c0.1-0.3,0.2-0.6,0.4-0.8c0.2-0.2,0.3-0.4,0.6-0.5c0.2-0.1,0.4-0.2,0.7-0.2c0.2,0,0.4,0,0.6,0.1
			c0.2,0.1,0.3,0.2,0.5,0.3c0.1,0.1,0.2,0.3,0.3,0.4c0.1,0.2,0.2,0.4,0.2,0.5c0.1,0.2,0.1,0.4,0.1,0.6
			C406.8,359,406.9,359.1,406.9,359.3"/>
		<path class="st0" d="M411.1,359.3c0,0.4,0,0.7-0.1,1.1c-0.1,0.3-0.2,0.6-0.4,0.8c-0.2,0.2-0.3,0.4-0.6,0.5
			c-0.2,0.1-0.5,0.2-0.7,0.2c-0.3,0-0.6-0.1-0.8-0.3c-0.2-0.2-0.4-0.4-0.5-0.7c-0.1-0.3-0.2-0.6-0.3-0.9c-0.1-0.3-0.1-0.6-0.1-0.9
			c0-0.3,0-0.7,0.1-1c0.1-0.3,0.2-0.6,0.4-0.8c0.2-0.2,0.4-0.4,0.6-0.5c0.2-0.1,0.4-0.2,0.7-0.2c0.2,0,0.4,0,0.6,0.1
			c0.2,0.1,0.3,0.2,0.5,0.3c0.1,0.1,0.2,0.3,0.3,0.4c0.1,0.2,0.2,0.4,0.2,0.5c0.1,0.2,0.1,0.4,0.1,0.6
			C411.1,359,411.1,359.1,411.1,359.3"/>
	</g>
</g>
<g id="layer1" transform="translate(-135.10065,-325.22137)">
	<g id="g18303" transform="matrix(2.3972137,0,0,2.3972137,-359.99402,-755.75806)">
		<path id="path512-9" class="st2" d="M310.8,658.7c-40,0-72.5-33-72.5-73.6c0-0.5,0-104.1,0-122.1l0-11.4h144.9v11.4
			c0,17.9,0,121.5,0,122.1C383.3,625.7,350.8,658.7,310.8,658.7"/>
		<path id="path516-42" class="st3" d="M310.8,650.5c-35.4,0-64.3-29.3-64.3-65.4c0-1.3,0-108.2,0-125.3h128.5c0,17.1,0,124,0,125.3
			C375.1,621.2,346.3,650.5,310.8,650.5 M379.2,463.1v-7.3H242.5l0,7.3c0,18.1,0,121.6,0,122.1c0,38.3,30.7,69.5,68.4,69.5
			c37.7,0,68.4-31.2,68.4-69.5C379.2,584.5,379.2,480.8,379.2,463.1"/>
		<path id="path520-8" class="st3" d="M252.7,546.7c0,0.5,0.4,0.9,0.9,0.9H368c0.5,0,0.9-0.4,0.9-0.9s-0.4-0.9-0.9-0.9H253.6
			C253.1,545.8,252.7,546.2,252.7,546.7"/>
		<path id="path524-8" class="st3" d="M264.8,538.6l-0.3,1.5c-0.1,0.4-0.3,0.5-0.6,0.5h-5.2c-1.5,0-2.3-0.8-2.3-2.4V526
			c0-0.3,0.2-0.4,0.6-0.4h1.8c0.4,0,0.6,0.1,0.6,0.4v12.1h5C264.7,538.1,264.9,538.2,264.8,538.6"/>
		<path id="path528-1" class="st3" d="M274.8,538.4l-0.2,1.8c0,0.2-0.1,0.3-0.4,0.3h-5.7c-1.5,0-2.3-0.8-2.3-2.4V526
			c0-0.3,0.1-0.4,0.4-0.4h7.8c0.2,0,0.4,0.1,0.3,0.3l-0.2,1.8c0,0.2-0.1,0.3-0.4,0.3h-5v3.8h4.6c0.3,0,0.3,0.1,0.3,0.3l-0.2,1.8
			c0,0.2-0.1,0.3-0.4,0.3h-4.3v3.9h5.3C274.7,538.1,274.8,538.2,274.8,538.4"/>
		<path id="path532-8" class="st3" d="M283.7,535.2c-0.4-2.2-1.1-4.9-1.7-7.2h-0.1c-0.6,2.3-1.3,5-1.7,7.2H283.7z M276,540.2
			c1.3-5.1,2.6-10.1,3.9-14.1c0.1-0.4,0.4-0.6,0.8-0.6h2.5c0.5,0,0.7,0.2,0.8,0.6c1.3,4,2.6,9,3.9,14.1c0.1,0.3,0,0.3-0.3,0.3h-2.3
			c-0.3,0-0.5-0.1-0.5-0.3l-0.6-2.6h-4.6c-0.2,0.9-0.4,1.8-0.6,2.7c0,0.2-0.2,0.3-0.5,0.3h-2.4C276,540.5,275.9,540.4,276,540.2"/>
		<path id="path536-2" class="st3" d="M296.4,534.7c-1.3,0-1.9-0.7-1.9-2v-0.1c0-0.2,0.1-0.4,0.3-0.4h4.4c0.3,0,0.4,0.1,0.4,0.3v6.5
			c0,0.5-0.1,0.8-0.5,1c-1,0.5-2.8,0.8-4.4,0.8c-3.9,0-5.6-1.6-5.6-5v-5.1c0-3.7,2.1-5.2,6-5.2c1.3,0,2.7,0.2,3.6,0.4
			c0.3,0.1,0.4,0.2,0.4,0.5v1.7c0,0.3-0.2,0.3-0.5,0.3c-0.8-0.3-2.1-0.4-3.3-0.4c-1.9,0-3.2,0.6-3.2,3v4.5c0,1.2,0.2,1.8,0.6,2.3
			c0.3,0.4,1,0.7,2.1,0.7c0.8,0,1.7-0.1,2.1-0.2v-3.4L296.4,534.7L296.4,534.7z"/>
		<path id="path540-4" class="st3" d="M303.4,539.6c-0.9-0.8-1.3-2.1-1.3-3.9v-9.8c0-0.2,0.1-0.3,0.3-0.3h2.3c0.2,0,0.3,0.1,0.3,0.3
			v9.5c0,0.9,0.1,1.7,0.5,2.2c0.3,0.4,0.9,0.7,1.8,0.7c0.8,0,1.4-0.3,1.8-0.7c0.4-0.5,0.5-1.3,0.5-2.2v-9.5c0-0.2,0.1-0.3,0.4-0.3
			h2.3c0.3,0,0.3,0.1,0.3,0.3v9.8c0,1.8-0.5,3.2-1.5,4c-0.9,0.8-2.2,1.1-3.8,1.1C305.5,540.8,304.2,540.4,303.4,539.6"/>
		<path id="path544-8" class="st3" d="M323.8,538.4l-0.2,1.8c0,0.2-0.1,0.3-0.4,0.3h-5.7c-1.5,0-2.3-0.8-2.3-2.4V526
			c0-0.3,0.1-0.4,0.4-0.4h7.8c0.2,0,0.4,0.1,0.3,0.3l-0.2,1.8c0,0.2-0.1,0.3-0.4,0.3h-5v3.8h4.6c0.3,0,0.3,0.1,0.3,0.3l-0.2,1.8
			c0,0.2-0.1,0.3-0.4,0.3h-4.3v3.9h5.3C323.7,538.1,323.8,538.2,323.8,538.4"/>
		<path id="path548-9" class="st3" d="M337.4,537.7c0.5-0.5,0.7-1.3,0.7-2.2v-4.8c0-1.1-0.3-1.8-0.7-2.2c-0.4-0.4-1-0.6-1.8-0.6
			c-0.8,0-1.4,0.2-1.8,0.6c-0.5,0.5-0.7,1.1-0.7,2.2v4.8c0,1,0.3,1.8,0.7,2.2c0.4,0.4,1,0.6,1.8,0.6
			C336.3,538.2,337,538.1,337.4,537.7 M331.5,539.5c-0.9-0.8-1.5-2.1-1.5-3.7v-5.4c0-1.9,0.7-3.3,1.9-4.1c0.9-0.6,2.1-0.9,3.6-0.9
			c1.5,0,2.8,0.3,3.7,1c1.1,0.8,1.8,2.2,1.8,4v5.4c0,1.8-0.6,3.2-1.8,4c-0.9,0.7-2.2,1-3.7,1C333.9,540.7,332.5,540.3,331.5,539.5"
			/>
		<path id="path552-2" class="st3" d="M354,525.9v14.3c0,0.2-0.2,0.3-0.4,0.3h-1.5c-0.4,0-0.6-0.2-0.8-0.4l-5.3-9.3h-0.1v9.3
			c0,0.2-0.1,0.3-0.4,0.3h-0.1c-1.4,0-2.2-0.8-2.2-2.4v-12.2c0-0.2,0.1-0.3,0.3-0.3h1.7c0.3,0,0.5,0.1,0.7,0.4l5.3,9.1h0.1v-9.2
			c0-0.2,0.1-0.3,0.3-0.3h2C353.9,525.6,354,525.7,354,525.9"/>
		<path id="path556-2" class="st3" d="M365.2,538.4l-0.2,1.8c0,0.2-0.1,0.3-0.4,0.3H359c-1.5,0-2.3-0.8-2.3-2.4V526
			c0-0.3,0.1-0.4,0.4-0.4h7.8c0.2,0,0.4,0.1,0.3,0.3l-0.2,1.8c0,0.2-0.1,0.3-0.4,0.3h-5v3.8h4.6c0.3,0,0.3,0.1,0.3,0.3l-0.2,1.8
			c0,0.2-0.1,0.3-0.4,0.3h-4.3v3.9h5.3C365.2,538.1,365.3,538.2,365.2,538.4"/>
		<path id="path560-3" class="st4" d="M332.4,635.3v-4.7h-6.3v-15.6h-5v17.1c0,1.7,1.4,3.1,3.1,3.1H332.4z M290.1,632.2
			c0,1.7,1.4,3.1,3.1,3.1h9v-4.7h-7.1v-3.1h6.6v-4.7h-6.6v-3h7.2v-4.7h-12.2L290.1,632.2L290.1,632.2z M308.8,635.3
			c-1.7,0-3.1-1.4-3.1-3.1v-17.1H318v4.7h-7.2v3h6.6v4.7h-6.6v7.8L308.8,635.3L308.8,635.3z"/>
		<path id="path564-9" class="st4" d="M319.7,576.8c-2.1,0-3.8,1.7-3.8,3.8s1.7,3.8,3.8,3.8s3.8-1.7,3.8-3.8
			S321.8,576.8,319.7,576.8"/>
		<path id="path568-0" class="st4" d="M315.3,570.2c-1.9,0-3.4,1.5-3.4,3.4s1.5,3.4,3.4,3.4s3.4-1.5,3.4-3.4
			S317.2,570.2,315.3,570.2"/>
		<path id="path572-7" class="st4" d="M322.1,566.7c-1.8,0-3.3,1.5-3.3,3.3c0,1.8,1.5,3.3,3.3,3.3c1.8,0,3.3-1.5,3.3-3.3
			C325.5,568.2,324,566.7,322.1,566.7"/>
		<path id="path576-0" class="st4" d="M310.7,565.4c-1.6,0-2.8,1.3-2.8,2.8s1.3,2.8,2.8,2.8c1.6,0,2.8-1.3,2.8-2.8
			S312.3,565.4,310.7,565.4"/>
		<path id="path580-15" class="st4" d="M305.6,563.1c-1.3,0-2.3,1-2.3,2.3c0,1.3,1,2.3,2.3,2.3s2.3-1,2.3-2.3
			C308,564.1,306.9,563.1,305.6,563.1"/>
		<path id="path584-9" class="st4" d="M300.9,562.5c-1,0-1.8,0.8-1.8,1.8s0.8,1.8,1.8,1.8c1,0,1.8-0.8,1.8-1.8
			C302.7,563.3,301.9,562.5,300.9,562.5"/>
		<path id="path588-83" class="st4" d="M306.7,559.2c-1,0-1.8,0.8-1.8,1.8c0,1,0.8,1.8,1.8,1.8c1,0,1.8-0.8,1.8-1.8
			C308.5,559.9,307.7,559.2,306.7,559.2"/>
		<path id="path592-7" class="st4" d="M311.2,555.8c-1,0-1.7,0.8-1.7,1.7s0.8,1.7,1.7,1.7s1.7-0.8,1.7-1.7S312.1,555.8,311.2,555.8"
			/>
		<path id="path596-53" class="st4" d="M307.3,556c-0.8,0-1.4,0.6-1.4,1.4c0,0.8,0.6,1.4,1.4,1.4c0.8,0,1.4-0.6,1.4-1.4
			C308.6,556.7,308,556,307.3,556"/>
		<path id="path600-61" class="st4" d="M303.9,556.8c-0.7,0-1.2,0.6-1.2,1.2c0,0.7,0.6,1.2,1.2,1.2c0.7,0,1.2-0.6,1.2-1.2
			C305.1,557.3,304.6,556.8,303.9,556.8"/>
		<path id="path604-14" class="st4" d="M302.3,559.5c-0.7,0-1.3,0.6-1.3,1.3c0,0.7,0.6,1.3,1.3,1.3c0.7,0,1.3-0.6,1.3-1.3
			C303.7,560.1,303.1,559.5,302.3,559.5"/>
		<path id="path608-5" class="st4" d="M298,559.8c-0.7,0-1.2,0.6-1.2,1.2c0,0.7,0.5,1.2,1.2,1.2s1.2-0.6,1.2-1.2
			C299.3,560.4,298.7,559.8,298,559.8"/>
		<path id="path612-43" class="st4" d="M300.1,558.1c-0.5,0-0.9,0.4-0.9,0.9c0,0.5,0.4,0.9,0.9,0.9s0.9-0.4,0.9-0.9
			C301,558.5,300.6,558.1,300.1,558.1"/>
		<path id="path616-1" class="st4" d="M295.1,561.1c-0.5,0-0.8,0.4-0.8,0.8c0,0.5,0.4,0.8,0.8,0.8c0.5,0,0.8-0.4,0.8-0.8
			C295.9,561.5,295.5,561.1,295.1,561.1"/>
		<path id="path620-28" class="st4" d="M296.7,562.7c-0.8,0-1.5,0.7-1.5,1.5c0,0.8,0.7,1.5,1.5,1.5c0.8,0,1.5-0.7,1.5-1.5
			C298.2,563.4,297.5,562.7,296.7,562.7"/>
		<path id="path624-6" class="st4" d="M293.1,563.2c-0.6,0-1.1,0.5-1.1,1.1s0.5,1.2,1.1,1.2c0.6,0,1.1-0.5,1.1-1.2
			S293.7,563.2,293.1,563.2"/>
		<path id="path628-8" class="st4" d="M290.7,565.3c-0.4,0-0.8,0.3-0.8,0.8s0.3,0.8,0.8,0.8c0.4,0,0.8-0.3,0.8-0.8
			S291.1,565.3,290.7,565.3"/>
		<path id="path632-5" class="st4" d="M316.7,562.5c-1.5,0-2.8,1.2-2.8,2.8c0,1.5,1.2,2.8,2.8,2.8c1.5,0,2.8-1.2,2.8-2.8
			C319.5,563.8,318.2,562.5,316.7,562.5"/>
		<path id="path636-7" class="st4" d="M327,572.8c-1.9,0-3.5,1.6-3.5,3.5c0,1.9,1.6,3.5,3.5,3.5c1.9,0,3.5-1.6,3.5-3.5
			C330.5,574.4,328.9,572.8,327,572.8"/>
		<path id="path640-8" class="st4" d="M330.8,566.6c-1.7,0-3,1.4-3,3s1.4,3,3,3s3-1.4,3-3S332.5,566.6,330.8,566.6"/>
		<path id="path644-7" class="st4" d="M326.5,561.6c-1.6,0-2.8,1.3-2.8,2.8s1.3,2.8,2.8,2.8c1.6,0,2.8-1.3,2.8-2.8
			S328,561.6,326.5,561.6"/>
		<path id="path648-6" class="st4" d="M321.1,558.1c-1.5,0-2.6,1.2-2.6,2.6s1.2,2.6,2.6,2.6c1.5,0,2.6-1.2,2.6-2.6
			S322.6,558.1,321.1,558.1"/>
		<path id="path652-9" class="st4" d="M315.8,556.3c-1.2,0-2.2,1-2.2,2.2c0,1.2,1,2.2,2.2,2.2c1.2,0,2.2-1,2.2-2.2
			S317,556.3,315.8,556.3"/>
		<path id="path656-2" class="st4" d="M311.4,560.1c-1.3,0-2.3,1-2.3,2.3c0,1.3,1,2.3,2.3,2.3s2.3-1,2.3-2.3
			C313.7,561.1,312.7,560.1,311.4,560.1"/>
		<path id="path660-4" class="st4" d="M312,591.5c0,2.1-1.7,3.8-3.8,3.8s-3.8-1.7-3.8-3.8s1.7-3.8,3.8-3.8
			C310.3,587.7,312,589.4,312,591.5"/>
		<path id="path664-2" class="st4" d="M316.5,587.8c-1.9,0-3.4,1.5-3.4,3.4c0,1.9,1.5,3.4,3.4,3.4s3.4-1.5,3.4-3.4
			C319.9,589.3,318.4,587.8,316.5,587.8"/>
		<path id="path668-8" class="st4" d="M316.2,595.6c-1.8,0-3.3,1.5-3.3,3.3c0,1.8,1.5,3.3,3.3,3.3c1.8,0,3.3-1.5,3.3-3.3
			C319.5,597,318,595.6,316.2,595.6"/>
		<path id="path672-5" class="st4" d="M323.4,587.1c-1.6,0-2.8,1.3-2.8,2.8c0,1.6,1.3,2.8,2.8,2.8c1.6,0,2.8-1.3,2.8-2.8
			S325,587.1,323.4,587.1"/>
		<path id="path676-0" class="st4" d="M328.4,584.6c-1.3,0-2.3,1-2.3,2.3s1,2.3,2.3,2.3c1.3,0,2.3-1,2.3-2.3
			C330.8,585.6,329.7,584.6,328.4,584.6"/>
		<path id="path680-15" class="st4" d="M331.7,581.5c-1,0-1.8,0.8-1.8,1.8s0.8,1.8,1.8,1.8s1.8-0.8,1.8-1.8
			C333.6,582.3,332.8,581.5,331.7,581.5"/>
		<path id="path684-32" class="st4" d="M331.8,588.3c-1,0-1.8,0.8-1.8,1.8s0.8,1.8,1.8,1.8c1,0,1.8-0.8,1.8-1.8
			S332.7,588.3,331.8,588.3"/>
		<path id="path688-9" class="st4" d="M332.5,593.9c-1,0-1.7,0.8-1.7,1.7s0.8,1.7,1.7,1.7s1.7-0.8,1.7-1.7S333.4,593.9,332.5,593.9"
			/>
		<path id="path692-9" class="st4" d="M334.5,590.9c-0.8,0-1.4,0.6-1.4,1.4c0,0.8,0.6,1.4,1.4,1.4c0.8,0,1.4-0.6,1.4-1.4
			C335.9,591.6,335.3,590.9,334.5,590.9"/>
		<path id="path696-1" class="st4" d="M335.7,587.9c-0.7,0-1.2,0.6-1.2,1.2c0,0.7,0.6,1.2,1.2,1.2c0.7,0,1.2-0.6,1.2-1.2
			C336.9,588.4,336.4,587.9,335.7,587.9"/>
		<path id="path700-7" class="st4" d="M334.1,585c-0.7,0-1.3,0.6-1.3,1.3c0,0.7,0.6,1.3,1.3,1.3c0.7,0,1.3-0.6,1.3-1.3
			C335.4,585.6,334.8,585,334.1,585"/>
		<path id="path704-15" class="st4" d="M336,581.3c-0.7,0-1.2,0.6-1.2,1.2c0,0.7,0.5,1.2,1.2,1.2c0.7,0,1.2-0.6,1.2-1.2
			C337.2,581.8,336.7,581.3,336,581.3"/>
		<path id="path708-1" class="st4" d="M336.8,584.4c-0.5,0-0.9,0.4-0.9,0.9c0,0.5,0.4,0.9,0.9,0.9s0.9-0.4,0.9-0.9
			C337.7,584.8,337.3,584.4,336.8,584.4"/>
		<path id="path712-56" class="st4" d="M336.7,578.6c-0.5,0-0.8,0.4-0.8,0.8c0,0.5,0.4,0.8,0.8,0.8c0.5,0,0.8-0.4,0.8-0.8
			C337.5,579,337.2,578.6,336.7,578.6"/>
		<path id="path716-2" class="st4" d="M333.9,578.3c-0.8,0-1.5,0.7-1.5,1.5s0.7,1.5,1.5,1.5c0.8,0,1.5-0.7,1.5-1.5
			C335.4,578.9,334.7,578.3,333.9,578.3"/>
		<path id="path720-0" class="st4" d="M335.6,575.4c-0.6,0-1.1,0.5-1.1,1.1c0,0.6,0.5,1.2,1.1,1.2c0.6,0,1.1-0.5,1.1-1.2
			C336.8,575.9,336.3,575.4,335.6,575.4"/>
		<path id="path724-2" class="st4" d="M335.4,572.9c-0.4,0-0.8,0.3-0.8,0.8c0,0.4,0.3,0.8,0.8,0.8s0.8-0.3,0.8-0.8
			C336.1,573.2,335.8,572.9,335.4,572.9"/>
		<path id="path728-9" class="st4" d="M323,593.8c-1.5,0-2.8,1.2-2.8,2.8c0,1.5,1.2,2.8,2.8,2.8c1.5,0,2.8-1.2,2.8-2.8
			C325.8,595,324.5,593.8,323,593.8"/>
		<path id="path732-4" class="st4" d="M308.3,596.5c-1.9,0-3.5,1.6-3.5,3.5s1.6,3.5,3.5,3.5c1.9,0,3.5-1.6,3.5-3.5
			S310.2,596.5,308.3,596.5"/>
		<path id="path736-57" class="st4" d="M312.1,603.5c-1.7,0-3,1.4-3,3s1.4,3,3,3c1.7,0,3-1.4,3-3S313.8,603.5,312.1,603.5"/>
		<path id="path740-2" class="st4" d="M318.9,602.6c-1.6,0-2.8,1.3-2.8,2.8c0,1.6,1.3,2.8,2.8,2.8c1.6,0,2.8-1.3,2.8-2.8
			C321.7,603.9,320.4,602.6,318.9,602.6"/>
		<path id="path744-2" class="st4" d="M324.7,600c-1.5,0-2.6,1.2-2.6,2.6c0,1.5,1.2,2.6,2.6,2.6c1.5,0,2.6-1.2,2.6-2.6
			C327.4,601.2,326.2,600,324.7,600"/>
		<path id="path748-7" class="st4" d="M329.3,597c-1.2,0-2.2,1-2.2,2.2s1,2.2,2.2,2.2c1.2,0,2.2-1,2.2-2.2
			C331.5,598,330.5,597,329.3,597"/>
		<path id="path752-25" class="st4" d="M328.2,591.1c-1.3,0-2.3,1-2.3,2.3c0,1.3,1,2.3,2.3,2.3c1.3,0,2.3-1,2.3-2.3
			C330.5,592.2,329.4,591.1,328.2,591.1"/>
		<path id="path756-2" class="st3" d="M292.9,590.1c-1.3,0-2.3,1-2.3,2.3c0,1.3,1,2.3,2.3,2.3c1.3,0,2.3-1,2.3-2.3
			C295.2,591.1,294.2,590.1,292.9,590.1 M287.3,588.3c-1.2,0-2.2,1-2.2,2.2c0,1.2,1,2.2,2.2,2.2c1.2,0,2.2-1,2.2-2.2
			S288.6,588.3,287.3,588.3 M286.6,582.2c-1.5,0-2.6,1.2-2.6,2.6c0,1.5,1.2,2.6,2.6,2.6c1.5,0,2.6-1.2,2.6-2.6
			C289.2,583.4,288.1,582.2,286.6,582.2 M287.1,575.5c-1.6,0-2.8,1.3-2.8,2.8s1.3,2.8,2.8,2.8c1.6,0,2.8-1.3,2.8-2.8
			S288.7,575.5,287.1,575.5 M289.5,568.9c-1.7,0-3,1.4-3,3s1.4,3,3,3c1.7,0,3-1.4,3-3S291.2,568.9,289.5,568.9 M297.2,568.4
			c-1.9,0-3.5,1.6-3.5,3.5c0,1.9,1.6,3.5,3.5,3.5s3.5-1.6,3.5-3.5C300.7,570,299.1,568.4,297.2,568.4 M292.8,583.6
			c-1.5,0-2.8,1.2-2.8,2.8s1.2,2.8,2.8,2.8c1.5,0,2.8-1.2,2.8-2.8S294.3,583.6,292.8,583.6 M306.4,607.8c-0.4,0-0.8,0.3-0.8,0.8
			c0,0.4,0.3,0.8,0.8,0.8c0.4,0,0.8-0.3,0.8-0.8S306.8,607.8,306.4,607.8 M303.8,606.2c-0.6,0-1.1,0.5-1.1,1.1s0.5,1.1,1.1,1.1
			c0.6,0,1.2-0.5,1.2-1.1S304.4,606.2,303.8,606.2 M301.9,602.8c-0.8,0-1.5,0.7-1.5,1.5c0,0.8,0.7,1.5,1.5,1.5
			c0.8,0,1.5-0.7,1.5-1.5C303.3,603.4,302.7,602.8,301.9,602.8 M300.7,605.9c-0.5,0-0.8,0.4-0.8,0.8c0,0.5,0.4,0.8,0.8,0.8
			c0.5,0,0.8-0.4,0.8-0.8C301.6,606.3,301.2,605.9,300.7,605.9 M295.7,603c-0.5,0-0.9,0.4-0.9,0.9c0,0.5,0.4,0.9,0.9,0.9
			c0.5,0,0.9-0.4,0.9-0.9C296.6,603.4,296.2,603,295.7,603 M298.4,603.4c-0.7,0-1.2,0.6-1.2,1.2c0,0.7,0.6,1.2,1.2,1.2
			c0.7,0,1.2-0.6,1.2-1.2C299.7,604,299.1,603.4,298.4,603.4 M296.1,599.7c-0.7,0-1.3,0.6-1.3,1.3c0,0.7,0.6,1.3,1.3,1.3
			c0.7,0,1.3-0.6,1.3-1.3C297.4,600.3,296.8,599.7,296.1,599.7 M292.9,599.8c-0.7,0-1.2,0.6-1.2,1.2s0.6,1.2,1.2,1.2
			c0.7,0,1.2-0.6,1.2-1.2C294.1,600.4,293.5,599.8,292.9,599.8 M290.7,597.1c-0.8,0-1.4,0.6-1.4,1.4c0,0.8,0.6,1.4,1.4,1.4
			c0.8,0,1.4-0.6,1.4-1.4C292,597.7,291.4,597.1,290.7,597.1 M288.8,593.3c-1,0-1.7,0.8-1.7,1.7s0.8,1.7,1.7,1.7s1.7-0.8,1.7-1.7
			S289.8,593.3,288.8,593.3 M294,595.4c-1,0-1.8,0.8-1.8,1.8c0,1,0.8,1.8,1.8,1.8c1,0,1.8-0.8,1.8-1.8
			C295.8,596.2,295,595.4,294,595.4 M299.9,598.7c-1,0-1.8,0.8-1.8,1.8c0,1,0.8,1.8,1.8,1.8c1,0,1.8-0.8,1.8-1.8
			C301.7,599.5,300.9,598.7,299.9,598.7 M298.4,593.6c-1.3,0-2.3,1-2.3,2.3c0,1.3,1,2.3,2.3,2.3c1.3,0,2.3-1,2.3-2.3
			C300.7,594.6,299.7,593.6,298.4,593.6 M298.3,587.2c-1.6,0-2.8,1.3-2.8,2.8c0,1.6,1.3,2.8,2.8,2.8c1.6,0,2.8-1.3,2.8-2.8
			C301.1,588.5,299.9,587.2,298.3,587.2 M294.2,576c-1.8,0-3.3,1.5-3.3,3.3c0,1.8,1.5,3.3,3.3,3.3c1.8,0,3.3-1.5,3.3-3.3
			C297.5,577.5,296,576,294.2,576 M300.6,580c-1.9,0-3.4,1.5-3.4,3.4c0,1.9,1.5,3.4,3.4,3.4s3.4-1.5,3.4-3.4
			C304,581.5,302.5,580,300.6,580 M304.5,572.3c-2.1,0-3.8,1.7-3.8,3.8s1.7,3.8,3.8,3.8c2.1,0,3.8-1.7,3.8-3.8
			S306.6,572.3,304.5,572.3"/>
		<g id="g20561" transform="matrix(0.89072737,0,0,0.89072735,-564.20116,580.78027)">
			<path id="path24168-5-2" class="st5" d="M1072.3-68.3c2.2,0,4.1-1.8,4.1-4.2v-37.3c0-2.4-1.8-4.2-4.1-4.2H971.5h-79
				c-2.4,0-4.2,1.8-4.2,4.2v37.3c0,2.4,1.8,4.2,4.2,4.2h79H1072.3z"/>
			<path id="path24192-6-8" class="st6" d="M971.5-68.3h100.8c2.2,0,4.1-1.8,4.1-4.2v-37.3c0-2.4-1.8-4.2-4.1-4.2H971.5"/>
			<path id="path24194-9-6" class="st7" d="M971.5-114h-79c-2.4,0-4.2,1.8-4.2,4.2v37.3c0,2.4,1.8,4.2,4.2,4.2h79"/>
			<path id="path24196-0-7" class="st8" d="M971.5-113.1h-79.8c0,0,1.7,9.4,12.7,17.3c0,0,5.6,4.2,9.2,4.2h57.9L971.5-113.1
				L971.5-113.1z"/>
			<path id="path24198-9-7" class="st9" d="M971.5-113.1h101.6c0,0-1.8,9.4-12.7,17.3c0,0-5.6,4.2-9.4,4.2h-79.6L971.5-113.1
				L971.5-113.1z"/>
			<path id="path24200-1-9" class="st2" d="M943.3-71.5c0.6,0.1,1.7,0.6,3.1,0.6c2.4,0.1,3.6-0.8,4.6-2.9l12.7-28.5
				c-0.6-0.3-1.7-0.6-2.7-0.6c-1.7,0-3.8,0.3-5.3,3.6l-4.1,9.8l-8.1-13.1c-0.6-0.3-1.8-0.4-2.7-0.4c-2.9,0-4.5,1.1-6.2,2.8l-8,8.7
				l6.3,9.9c1.3,1.8,2.8,2.8,5.3,2.8c1.5,0,2.9-0.4,3.5-0.7l-7.4-11.5l5.5-5.7l8.8,14L943.3-71.5L943.3-71.5z M926.5-82.5
				c0,2.1-0.7,3.4-4.9,3.4c-0.6,0-1,0-1.4,0v-28c0-2.1,0.7-4.2,4.8-4.2c0.6,0,1.1,0,1.5,0.1V-82.5L926.5-82.5z M918.1-86.5
				c0,3.9-2.5,6.7-7.7,7.3c-3.8,0.4-9.2-0.1-11.7-0.4c-0.1-0.4-0.3-1-0.3-1.4c0-3.4,2-4.2,3.6-4.2c1.8,0,4.6,0.4,6.9,0.4
				c2.2,0,2.9-0.8,2.9-1.7c0-0.8-1-1.4-2.8-1.7l-4.9-1c-4.1-0.8-6.3-3.6-6.3-6.7c0-3.6,2.5-6.7,7.7-7.3c3.8-0.4,8.5,0.1,11,0.4
				c0.1,0.4,0.3,0.8,0.3,1.3c0,3.5-1.8,4.2-3.5,4.2c-1.4,0-3.5-0.3-5.9-0.3c-2.4,0-3.4,0.7-3.4,1.4c0,1,1,1.3,2.4,1.5l4.8,0.8
				C916.2-92.7,918.1-90,918.1-86.5L918.1-86.5z"/>
			<path id="path24202-7-0" class="st2" d="M994.5-75.6h-8.4c-1,0-1.7,0-2.4-0.3c-0.6-0.1-1-0.4-1.3-0.7c-0.3-0.3-0.6-0.7-0.7-1.1
				c0-0.4-0.1-1-0.1-1.4v-23.5c0-0.6,0.1-1,0.1-1.5c0.1-0.4,0.4-0.7,0.7-1.1c0.3-0.3,0.7-0.6,1.3-0.7c0.7-0.1,1.4-0.3,2.4-0.3h8.1
				c2.4,0,4.5,0.1,6,0.7c1.5,0.4,3.1,0.8,3.9,1.5c1,0.7,1.8,1.7,2.2,2.5c0.4,1,0.7,2,0.7,3.1c0,1.5-0.4,2.8-1.4,3.9
				c-1,1.1-2.2,2.1-3.9,2.5l-0.7,0.3l0.8,0.3c2.4,0.7,4.1,1.7,5,2.8c1,1.3,1.5,2.7,1.5,4.1c0,2.9-1.3,5-3.5,6.6
				C1002.6-76.3,999.1-75.6,994.5-75.6 M989.1-81.1h0.3h4.2c2.2,0,3.6-0.3,4.8-0.8c1.1-0.6,1.5-1.5,1.5-3.1c0-0.4,0-0.8-0.3-1.3
				c-0.1-0.4-0.4-0.8-0.8-1.3c-0.4-0.3-1-0.6-1.8-0.7c-0.8-0.1-1.8-0.4-3.1-0.4h-4.5h-0.3v0.3v7L989.1-81.1L989.1-81.1z M989.1-93.4
				h0.3h4.2c1.1,0,2-0.1,2.7-0.3c0.7-0.1,1.3-0.4,1.7-0.8c0.4-0.3,0.7-0.7,0.8-1.1c0.1-0.4,0.3-0.8,0.3-1.3c0-1.3-0.4-2.1-1.3-2.7
				c-1-0.6-2.4-0.8-4.3-0.8h-4.1h-0.3v0.3v6.6L989.1-93.4L989.1-93.4z"/>
			<path id="path24204-2-8" class="st2" d="M1019.8-82v-5.6h10.8c2.5,0,3.9-1,3.9-4.3c0-0.7-0.1-1.5-0.3-2h-14.4v-6h11
				c2.5,0,4.1-0.8,4.1-4.2c0-0.7-0.1-1.5-0.3-2h-16.6c-4.8,0-5.6,2.4-5.6,4.9v25.3v0.1h19.2c2.5,0,3.9-0.8,3.9-4.2
				c0-0.8-0.1-1.5-0.3-2.1L1019.8-82L1019.8-82z"/>
			<path id="path24206-1-2" class="st2" d="M1055.8-99.9h6c2,0,3.9-0.8,3.9-4.8c0-0.4,0-1-0.1-1.5h-23.2c-2,0-4.1,0.8-4.1,4.9
				c0,0.4,0.1,1,0.3,1.4h9.8v24.3c0.6,0,1.3,0.1,1.8,0.1c4.6,0,5.6-1.4,5.6-3.6L1055.8-99.9L1055.8-99.9z"/>
		</g>
	</g>
</g>
</svg>
