<?xml version="1.0" encoding="utf-8"?>
<!-- Generator: Adobe Illustrator 25.0.1, SVG Export Plug-In . SVG Version: 6.00 Build 0)  -->
<svg version="1.1" id="Layer_1" xmlns="http://www.w3.org/2000/svg" xmlns:xlink="http://www.w3.org/1999/xlink" x="0px" y="0px"
	 viewBox="0 0 500 500" style="enable-background:new 0 0 500 500;" xml:space="preserve">
<style type="text/css">
	.st0{fill:#00D4D6;}
</style>
<g>
	<g>
		<path class="st0" d="M128.9,122.2L195.4,26h64.4l-82.8,117.9h53.8l-83.7,42.6l-16.8-21.5c-6-7.9-8.7-13.8-8.7-22
			C121.5,135.8,124.2,128.7,128.9,122.2L128.9,122.2z M183.5,221.6c0-6.8,2.7-14.1,7.6-21.2L313.6,26h70.9L247,221.6h61.9
			l-96.2,48.9l-20.6-26.3C186.5,236.8,183.5,229.5,183.5,221.6L183.5,221.6z M9.2,368.3v-64.1h17.6v65.6h31v16.4H19.4l-6.9-8.6
			C10.1,374.6,9.2,371.8,9.2,368.3 M67.3,372.8l19-68.7h20.2c3.7,0,6.1,1.8,7.1,5.5l17.5,63.1c0.8,2.8,0.9,4.7,0.9,8.3v5h-15.6
			l-6.2-25L85,374.1l-3,12.1H66.4v-5C66.4,377.5,66.5,375.6,67.3,372.8 M109.4,358.1l-9.3-37.5h-1.9L89,358.1H109.4L109.4,358.1z
			 M140,368.3v-64.1h17.6v65.6h31v16.4h-38.4l-6.9-8.6C140.9,374.6,139.9,371.8,140,368.3 M198.5,304.2h17.6v82h-17.6V304.2z
			 M228.1,360.2v-29.9c0-17.5,9.5-26.9,26.9-26.9h7.7c17.2,0,26.9,8.8,26.9,24.4h-17.6v-3.3c0-3-1.6-4.7-4.7-4.7h-17.1
			c-3,0-4.7,1.6-4.7,4.7V366c0,3,1.6,4.7,4.7,4.7h17.1c3,0,4.7-1.6,4.7-4.7v-10.3h-12.2v-16.4h19.6l6.9,8.6c2.3,2.9,3.3,5.6,3.3,9.4
			v2.9c0,17.5-9.5,26.9-26.9,26.9H255C237.5,387.1,228.1,377.6,228.1,360.2 M295.9,372.8l19-68.7H335c3.7,0,6.1,1.8,7.1,5.5
			l17.5,63.1c0.8,2.8,0.9,4.7,0.9,8.3v5H345l-6.2-25l-25.2,12.9l-3,12.1h-15.6v-5C294.9,377.5,295.1,375.6,295.9,372.8 M337.9,358.1
			l-9.3-37.5h-1.9l-9.3,37.5H337.9L337.9,358.1z M452.2,355.5h-3.3v4.1h3.3c0.3,0,0.5-0.1,0.7-0.3c0.2-0.2,0.3-0.5,0.3-0.8v-1.8
			c0-0.3-0.1-0.6-0.3-0.8C452.7,355.6,452.5,355.5,452.2,355.5 M439.8,355.5h-2.4c-0.3,0-0.6,0.1-0.7,0.3s-0.3,0.5-0.3,0.8v7.3
			c0,0.3,0.1,0.6,0.3,0.8c0.2,0.2,0.4,0.3,0.7,0.4h2.4c0.3,0,0.5-0.1,0.7-0.3c0.2-0.2,0.3-0.5,0.3-0.8v-7.3c0-0.3-0.1-0.6-0.3-0.8
			S440.1,355.5,439.8,355.5 M427.7,355.5h-3.4v4.4h3.4c0.3,0,0.5-0.1,0.7-0.3c0.2-0.2,0.3-0.5,0.3-0.8v-2.1c0-0.3-0.1-0.6-0.3-0.8
			C428.3,355.6,428,355.5,427.7,355.5"/>
		<path class="st0" d="M444.1,292.4c-29.1,0-52.8,23.5-52.8,52.7c0,29.1,23.5,52.8,52.7,52.8c29.1,0,52.8-23.5,52.8-52.7
			C496.8,316.1,473.3,292.5,444.1,292.4 M424.4,316.8l27.1,0l-4.2,6.6l-27.1,0L424.4,316.8z M418.8,364.4c0,0.8-0.3,1.6-0.9,2.1
			c-0.6,0.6-1.3,0.9-2.1,0.9h-3.6c-0.9,0-1.6-0.3-2.1-0.9c-0.6-0.6-0.9-1.3-0.9-2.1V363h2.2l0.3,1.3c0.1,0.5,0.5,0.8,1.1,0.8h2.4
			c0.3,0,0.5-0.1,0.7-0.3c0.2-0.2,0.3-0.5,0.3-0.8v-1.6c0-0.8-0.3-1.2-1-1.2h-3c-0.8,0-1.6-0.3-2.1-0.9c-0.6-0.6-0.9-1.3-0.9-2.1
			v-2.1c0-0.8,0.3-1.5,0.9-2.1c0.6-0.6,1.3-0.9,2.1-0.9h3.5c0.8,0,1.5,0.3,2.1,0.9c0.6,0.6,0.9,1.3,0.9,2.1v1.3h-2.2l-0.3-1.2
			c-0.2-0.6-0.6-0.8-1.1-0.8h-2.4c-0.3,0-0.6,0.1-0.7,0.3c-0.2,0.2-0.3,0.5-0.3,0.8v1.2c0,0.7,0.3,1.1,1,1.1h3
			c0.8,0,1.5,0.3,2.1,0.9c0.6,0.6,0.9,1.3,0.9,2.1L418.8,364.4L418.8,364.4L418.8,364.4z M431.2,359.2c0,0.8-0.3,1.6-0.9,2.1
			c-0.6,0.6-1.3,0.9-2.2,0.9h-3.9v5.2h-2.5l0-14.2h6.4c0.8,0,1.6,0.3,2.2,0.9c0.6,0.6,0.9,1.3,0.9,2.1L431.2,359.2L431.2,359.2z
			 M443.3,364.4c0,0.9-0.3,1.6-0.9,2.2c-0.6,0.6-1.3,0.9-2.1,0.9h-3.4c-0.9,0-1.6-0.3-2.2-0.9c-0.6-0.6-0.9-1.3-0.9-2.2v-8.2
			c0-0.8,0.3-1.5,0.9-2.1c0.6-0.6,1.3-0.9,2.2-0.9h3.4c0.9,0,1.6,0.3,2.1,0.9c0.6,0.6,0.9,1.3,0.9,2.1L443.3,364.4L443.3,364.4z
			 M443.9,349.8l-34.3,0l8.4-13.2h-6.1l4.2-6.6l25.5,0l-4.2,6.6l-11.4,0l-4.2,6.6l18.4,0l16.9-26.6l20.9,33.2H470l-4.2-6.6l-12.4,0
			l4.2-6.6h4.1l-4.7-7.5L443.9,349.8L443.9,349.8z M453.6,367.5l-2.3-5.6h-2.4v5.6h-2.5l0-14.2h6.3c0.8,0,1.6,0.3,2.1,0.9
			c0.6,0.6,0.9,1.3,0.9,2.1v2.5c0,0.6-0.2,1.2-0.5,1.8c-0.4,0.5-0.8,0.9-1.4,1.1l2.5,5.9H453.6L453.6,367.5z M467.1,355.5h-3.7
			l0,11.9h-2.5l0-12h-3.6v-2.3h9.8L467.1,355.5L467.1,355.5z M478.5,364.5c0,0.8-0.3,1.6-0.9,2.1c-0.6,0.6-1.3,0.9-2.2,0.9h-3.6
			c-0.9,0-1.6-0.3-2.1-0.9c-0.6-0.6-0.9-1.3-0.9-2.1v-1.4h2.2l0.3,1.3c0.2,0.5,0.5,0.8,1.1,0.8h2.4c0.3,0,0.6-0.1,0.7-0.3
			c0.2-0.2,0.3-0.5,0.3-0.8v-1.6c0-0.8-0.3-1.2-1-1.2h-3c-0.8,0-1.6-0.3-2.1-0.9c-0.6-0.6-0.9-1.3-0.9-2.1v-2.1
			c0-0.8,0.3-1.5,0.9-2.1c0.6-0.6,1.3-0.9,2.1-0.9h3.5c0.8,0,1.5,0.3,2.1,0.9c0.6,0.6,0.9,1.3,0.9,2.1v1.3h-2.2l-0.3-1.2
			c-0.2-0.6-0.6-0.8-1.1-0.8h-2.4c-0.3,0-0.6,0.1-0.7,0.3c-0.2,0.2-0.3,0.5-0.3,0.8v1.2c0,0.7,0.3,1.1,1,1.1h3
			c0.8,0,1.5,0.3,2.1,0.9c0.6,0.6,0.9,1.3,0.9,2.1L478.5,364.5L478.5,364.5L478.5,364.5z M480,354h-0.5v1.1h-0.3V354h-0.5v-0.2h1.3
			L480,354L480,354z M481.6,355.1v-1c0,0,0,0.1-0.1,0.2l-0.4,0.7h0l-0.4-0.7l-0.1-0.1c0,0.1,0,0.1,0,0.2v0.9h-0.2v-1.4h0.2l0.5,0.8
			l0.5-0.8h0.2v1.4H481.6L481.6,355.1z M38.7,430.9H18v-13H9.2v35.2H18v-14.4h20.7v14.4h8.9v-35.2h-8.9V430.9z M72.6,430.8L61,417.9
			H49.9l16.4,18.3c1.2,1.3,1.8,3,1.8,4.8v12.1h8.8V441c0-1.8,0.7-3.5,1.9-4.8l16.7-18.3H84.1L72.6,430.8L72.6,430.8L72.6,430.8z
			 M122.7,417.9H97.8v35.2h8.9v-11.3c0-1.3,1.1-2.3,2.3-2.3h13.6c7.9,0,13.3-4.4,13.3-10.8S130.7,417.9,122.7,417.9L122.7,417.9
			L122.7,417.9z M127.1,428.6c0,0.9,0,3.1-4.4,3.1h-16v-6.1h16C126.8,425.6,127.1,427,127.1,428.6z M148.4,438.7h24V431h-24v-5.4
			h27.3v-7.7h-36.1v35.2h37.2v-7.7h-28.3L148.4,438.7z M221.3,428.9c0-6.7-5.6-11-14.2-11h-25.3v35.2h8.9v-11.2c0-1.2,1-2.1,2.1-2.1
			h8.1c1.5,0,2.9,0.8,3.6,2l6.9,11.3h10.2l-8.7-14C218.2,437.4,221.3,433.8,221.3,428.9L221.3,428.9z M212.4,428.6
			c0,2.8-2.9,3.4-5.4,3.4h-16.5v-6.5h16.5C210.6,425.5,212.4,426.6,212.4,428.6z M246.9,436.8l-13.1-19h-8.1v35.2h8.7v-19.3l6.7,9.6
			c1.3,1.9,3.4,3,5.7,3h0c2.3,0,4.4-1.1,5.7-2.9l7.1-9.8v19.4h8.9v-35.2h-8.1L246.9,436.8L246.9,436.8z M313.6,425.7h12
			c1.3,0,2.4,1.1,2.4,2.4v25.1h8.7v-25.1c0-1.3,1.1-2.4,2.4-2.4h11.8V418h-37.3L313.6,425.7L313.6,425.7z M353.5,418h8.8v35.2h-8.8
			V418z M439.5,418v22.5L417.4,418h-7.8v35.2h8.8v-22.4l22.2,22.4h8V418H439.5z M297.2,425c4.4,0,7.9,3.5,7.9,7.9v5.4
			c0,4.4-3.5,7.9-7.9,7.9h-9c-4.4,0-7.9-3.5-7.9-7.9v-5.4c0-4.4,3.5-7.9,7.9-7.9H297.2 M297.2,417.1h-9c-8.7,0-15.8,7.1-15.8,15.8
			v5.4c0,8.7,7.1,15.8,15.8,15.8h9c8.7,0,15.8-7.1,15.8-15.8v-5.4C313,424.2,305.9,417.1,297.2,417.1z M390.7,425
			c4.4,0,7.9,3.5,7.9,7.9v5.4c0,4.4-3.5,7.9-7.9,7.9h-9c-4.4,0-7.9-3.5-7.9-7.9v-5.4c0-4.4,3.5-7.9,7.9-7.9H390.7 M390.7,417.1h-9
			c-8.7,0-15.8,7.1-15.8,15.8v5.4c0,8.7,7.1,15.8,15.8,15.8h9c8.7,0,15.8-7.1,15.8-15.8v-5.4C406.5,424.2,399.4,417.1,390.7,417.1z
			 M494,419.1l-18.1,31.3l-18.1-31.3h6.1l10.6,18.4l1.4,2.4l1.4-2.4l10.6-18.4H494 M496.8,417.5H487l-11.1,19.2l-11.1-19.2h-9.8
			l20.8,36.1L496.8,417.5L496.8,417.5L496.8,417.5z"/>
	</g>
</g>
</svg>
