<?xml version="1.0" encoding="utf-8"?>
<!-- Generator: Adobe Illustrator 25.0.1, SVG Export Plug-In . SVG Version: 6.00 Build 0)  -->
<svg version="1.1" id="Layer_1" xmlns="http://www.w3.org/2000/svg" xmlns:xlink="http://www.w3.org/1999/xlink" x="0px" y="0px"
	 viewBox="0 0 500 500" style="enable-background:new 0 0 500 500;" xml:space="preserve">
<style type="text/css">
	.st0{display:none;fill:#FFFFFF;}
	.st1{display:none;fill:none;stroke:#FFFFFF;stroke-width:0.5621;stroke-miterlimit:10;}
	.st2{fill:url(#SVGID_1_);}
	.st3{fill:#FFFFFF;}
	.st4{fill:url(#SVGID_2_);}
	.st5{fill:#FFA600;}
	.st6{fill:url(#SVGID_3_);}
	.st7{fill:#05133B;}
	.st8{fill:url(#SVGID_4_);}
</style>
<g>
	<g>
		<path class="st0" d="M354.1,355.2c-2.2,0-3.9,1.8-3.9,3.9c0,2.2,1.8,3.9,3.9,3.9c2.2,0,3.9-1.8,3.9-3.9S356.2,355.2,354.1,355.2
			 M357.4,359.2c0,1.9-1.5,3.4-3.3,3.4c-1.9,0-3.4-1.5-3.4-3.4c0-1.8,1.5-3.3,3.4-3.3C355.9,355.8,357.4,357.3,357.4,359.2"/>
		<path class="st0" d="M354,360.8c-0.9,0-1.7-0.8-1.7-1.7c0-0.9,0.8-1.7,1.7-1.7c0.7,0,1.2,0.4,1.5,1h0.5c-0.3-0.8-1.1-1.4-2-1.4
			c-1.2,0-2.1,1-2.1,2.1c0,1.2,1,2.1,2.1,2.1c1,0,1.8-0.6,2-1.5h-0.5C355.3,360.4,354.7,360.8,354,360.8"/>
		<path class="st0" d="M364.7,361.5c-0.2,0.1-0.4,0.2-0.7,0.3c-0.3,0.1-0.5,0.1-0.8,0.1s-0.6,0-0.8-0.2c-0.3-0.1-0.5-0.3-0.7-0.5
			c-0.2-0.3-0.4-0.6-0.5-0.9s-0.1-0.7-0.1-1.1s0.1-0.7,0.2-1.1c0.1-0.3,0.3-0.6,0.5-0.9c0.2-0.2,0.4-0.4,0.7-0.6
			c0.3-0.1,0.6-0.2,0.9-0.2c0.2,0,0.5,0,0.7,0.1s0.4,0.2,0.6,0.3l-0.3,0.4c-0.2-0.1-0.3-0.2-0.5-0.2c-0.2-0.1-0.3-0.1-0.5-0.1
			c-0.3,0-0.6,0.1-0.8,0.2c-0.2,0.1-0.4,0.4-0.5,0.7c-0.1,0.2-0.1,0.4-0.2,0.6c0,0.2,0,0.5,0,0.8c0,0.2,0,0.5,0,0.6
			c0,0.2,0.1,0.3,0.1,0.5c0.1,0.3,0.3,0.6,0.6,0.7c0.3,0.2,0.5,0.2,0.8,0.2c0.2,0,0.4,0,0.5-0.1c0.2-0.1,0.3-0.1,0.5-0.3
			L364.7,361.5"/>
		<path class="st0" d="M368.6,359.4c0-0.4,0-0.7-0.1-1c0-0.3-0.1-0.5-0.2-0.7s-0.2-0.4-0.4-0.5c-0.2-0.1-0.4-0.2-0.7-0.2
			c-0.2,0-0.5,0-0.7,0.1s-0.3,0.3-0.4,0.5s-0.2,0.4-0.2,0.6s-0.1,0.5-0.1,0.8c0,0.4,0,0.8,0.1,1.1c0.1,0.3,0.1,0.6,0.2,0.8
			c0.1,0.1,0.1,0.2,0.2,0.2c0.1,0.1,0.2,0.1,0.3,0.2c0.1,0.1,0.2,0.1,0.3,0.1c0.1,0,0.2,0,0.3,0c0.2,0,0.4,0,0.6-0.1
			s0.3-0.2,0.4-0.3c0.1-0.1,0.1-0.2,0.2-0.3c0-0.1,0.1-0.2,0.1-0.3c0-0.1,0.1-0.3,0.1-0.4C368.6,359.8,368.6,359.6,368.6,359.4
			 M369.3,359.3c0,0.5-0.1,0.9-0.2,1.3c-0.1,0.3-0.3,0.6-0.6,0.9c-0.2,0.2-0.4,0.3-0.6,0.4s-0.4,0.1-0.7,0.1c-0.3,0-0.6,0-0.9-0.2
			c-0.2-0.1-0.5-0.3-0.6-0.5c-0.4-0.5-0.6-1.2-0.6-2.1c0-0.4,0.1-0.8,0.2-1.1c0.1-0.3,0.2-0.6,0.4-0.8c0.2-0.2,0.4-0.4,0.7-0.5
			c0.3-0.1,0.5-0.2,0.9-0.2c0.2,0,0.4,0,0.6,0.1c0.2,0,0.3,0.1,0.5,0.2c0.1,0.1,0.3,0.2,0.3,0.3c0.1,0.1,0.2,0.2,0.2,0.3
			c0.2,0.2,0.3,0.5,0.4,0.8C369.3,358.5,369.3,358.9,369.3,359.3"/>
		<path class="st0" d="M373,358.2c0-0.4-0.1-0.7-0.3-0.8c-0.1-0.1-0.2-0.2-0.4-0.2c-0.2-0.1-0.4-0.1-0.6-0.1H371v2.1h0.9
			c0.2,0,0.4,0,0.5-0.1c0.1,0,0.2-0.1,0.3-0.2C372.9,358.7,373,358.5,373,358.2 M373.7,358.1c0,0.3,0,0.5-0.1,0.7s-0.2,0.4-0.4,0.5
			c-0.2,0.2-0.4,0.3-0.6,0.3c-0.2,0.1-0.4,0.1-0.7,0.1H371v2.1h-0.6v-5.2h1.5c0.3,0,0.5,0,0.7,0s0.3,0.1,0.5,0.2
			C373.5,357.1,373.7,357.5,373.7,358.1"/>
		<path class="st0" d="M376.1,359.8v2h-0.6v-2.1l-1.7-3.2h0.8l1,2c0,0.1,0.1,0.2,0.1,0.3c0,0.1,0.1,0.2,0.1,0.2c0,0.1,0,0.1,0,0.1
			c0.1-0.2,0.2-0.4,0.3-0.6l1-2h0.7L376.1,359.8"/>
		<path class="st0" d="M380.8,358c0-0.2,0-0.3-0.1-0.5s-0.2-0.3-0.4-0.3c-0.1,0-0.2-0.1-0.3-0.1c-0.1,0-0.2,0-0.4,0H379v2h0.6
			c0.2,0,0.4,0,0.6-0.1c0.1,0,0.3-0.1,0.4-0.2s0.2-0.2,0.2-0.3C380.8,358.3,380.8,358.2,380.8,358 M381,361.8c0-0.1-0.1-0.2-0.2-0.3
			c-0.1-0.1-0.2-0.3-0.3-0.5c-0.1-0.2-0.2-0.4-0.4-0.6c-0.1-0.2-0.3-0.4-0.5-0.6c0-0.1-0.1-0.1-0.1-0.1l-0.1-0.1
			c-0.1,0-0.1,0-0.1-0.1c-0.1,0-0.1,0-0.2,0v2.4h-0.6v-5.2h1.2c0.2,0,0.3,0,0.5,0c0.1,0,0.3,0,0.4,0.1c0.1,0,0.2,0.1,0.3,0.1
			c0.1,0,0.1,0.1,0.2,0.1s0.1,0.1,0.2,0.2s0.1,0.2,0.2,0.2c0,0.1,0.1,0.2,0.1,0.3c0,0.1,0,0.2,0,0.4c0,0.2,0,0.4-0.1,0.6
			s-0.2,0.3-0.3,0.5c-0.1,0.1-0.3,0.2-0.4,0.3c-0.2,0.1-0.4,0.1-0.6,0.1H380c0.1,0.1,0.2,0.2,0.3,0.3c0.1,0.1,0.2,0.2,0.2,0.3
			c0,0.1,0.1,0.2,0.2,0.3c0.1,0.1,0.2,0.3,0.3,0.5c0.1,0.2,0.2,0.3,0.3,0.5c0.1,0.2,0.2,0.3,0.2,0.4c0.1,0.1,0.1,0.1,0.1,0.2H381
			V361.8z"/>
		<line class="st1" x1="382.9" y1="361.8" x2="382.9" y2="356.6"/>
		<path class="st0" d="M388.1,361.5c-0.2,0.1-0.4,0.2-0.7,0.3c-0.3,0.1-0.5,0.1-0.8,0.1c-0.7,0-1.2-0.2-1.6-0.7
			c-0.2-0.2-0.4-0.5-0.5-0.9c-0.1-0.3-0.2-0.7-0.2-1.2s0.1-0.9,0.2-1.3s0.3-0.7,0.6-0.9c0.4-0.3,0.8-0.5,1.4-0.5s1,0.2,1.4,0.5
			l-0.3,0.4c-0.2-0.2-0.4-0.2-0.6-0.3c-0.2-0.1-0.4-0.1-0.6-0.1c-0.3,0-0.6,0.1-0.8,0.2c-0.2,0.1-0.4,0.4-0.5,0.7
			c-0.1,0.4-0.2,0.8-0.2,1.3c0,0.4,0,0.7,0.1,0.9c0.1,0.3,0.2,0.5,0.3,0.7c0.1,0.1,0.1,0.2,0.2,0.2c0.1,0.1,0.2,0.1,0.3,0.2
			c0.1,0.1,0.2,0.1,0.4,0.1c0.1,0,0.3,0,0.4,0c0.3,0,0.6-0.1,0.8-0.2v-1.6h-1l-0.1-0.5h1.8L388.1,361.5"/>
		<polygon class="st0" points="392.2,361.8 392.2,359.3 390,359.3 390,361.8 389.4,361.8 389.4,356.6 390,356.6 390,358.8 
			392.2,358.8 392.2,356.6 392.8,356.6 392.8,361.8 		"/>
		<polygon class="st0" points="397.1,357.1 395.7,357.1 395.7,361.8 395.1,361.8 395.1,357.1 393.7,357.1 393.7,356.6 397.1,356.6 
					"/>
		<path class="st0" d="M402.2,361.8h-2.9v-0.3c0.1-0.1,0.3-0.2,0.5-0.4c0.2-0.2,0.4-0.4,0.6-0.7c0.2-0.2,0.4-0.5,0.5-0.6
			c0.1-0.2,0.3-0.4,0.4-0.6s0.2-0.3,0.2-0.5c0-0.1,0.1-0.3,0.1-0.4c0-0.3-0.1-0.5-0.3-0.7c-0.2-0.2-0.4-0.3-0.7-0.3
			c-0.1,0-0.2,0-0.3,0c-0.1,0-0.2,0.1-0.3,0.1c-0.1,0-0.2,0.1-0.3,0.1c-0.1,0.1-0.2,0.1-0.3,0.2l-0.3-0.3c0.3-0.3,0.6-0.4,0.8-0.5
			c0.3-0.1,0.5-0.2,0.8-0.2c0.2,0,0.4,0,0.6,0.1s0.3,0.2,0.4,0.3c0.1,0.1,0.2,0.3,0.3,0.4c0.1,0.2,0.1,0.4,0.1,0.6s-0.1,0.4-0.1,0.7
			c-0.1,0.2-0.2,0.5-0.4,0.7c-0.2,0.2-0.4,0.5-0.7,0.8c-0.1,0.1-0.2,0.2-0.4,0.4c-0.1,0.1-0.2,0.2-0.3,0.3c-0.1,0.1-0.2,0.2-0.3,0.2
			c-0.1,0.1-0.1,0.1-0.2,0.1h0.1c0.1,0,0.1,0,0.2,0s0.2,0,0.3,0h1.6L402.2,361.8"/>
		<path class="st0" d="M406.2,359.3c0-0.3,0-0.5,0-0.7s-0.1-0.4-0.1-0.6c-0.1-0.3-0.2-0.5-0.4-0.6c-0.2-0.1-0.4-0.2-0.6-0.2
			c-0.1,0-0.3,0.1-0.4,0.2s-0.3,0.3-0.4,0.5c-0.2,0.3-0.3,0.8-0.3,1.4c0,0.3,0,0.5,0,0.8c0,0.2,0.1,0.4,0.1,0.6
			c0.1,0.3,0.2,0.5,0.4,0.6c0.2,0.2,0.3,0.2,0.5,0.2s0.3-0.1,0.5-0.2s0.3-0.3,0.4-0.5s0.1-0.4,0.2-0.6
			C406.2,359.9,406.2,359.6,406.2,359.3 M406.9,359.3c0,0.4-0.1,0.7-0.1,1.1c-0.1,0.3-0.2,0.6-0.4,0.8c-0.2,0.2-0.3,0.4-0.6,0.5
			c-0.2,0.1-0.5,0.2-0.7,0.2c-0.3,0-0.6-0.1-0.8-0.3c-0.2-0.2-0.4-0.4-0.5-0.7c-0.1-0.3-0.2-0.6-0.3-0.9c-0.1-0.3-0.1-0.6-0.1-0.9
			s0-0.7,0.1-1s0.2-0.6,0.4-0.8c0.2-0.2,0.3-0.4,0.6-0.5c0.2-0.1,0.4-0.2,0.7-0.2c0.2,0,0.4,0,0.6,0.1s0.3,0.2,0.5,0.3
			c0.1,0.1,0.2,0.3,0.3,0.4c0.1,0.2,0.2,0.4,0.2,0.5c0.1,0.2,0.1,0.4,0.1,0.6C406.8,359,406.9,359.1,406.9,359.3"/>
		<path class="st0" d="M411.1,359.3c0,0.4,0,0.7-0.1,1.1c-0.1,0.3-0.2,0.6-0.4,0.8c-0.2,0.2-0.3,0.4-0.6,0.5
			c-0.2,0.1-0.5,0.2-0.7,0.2c-0.3,0-0.6-0.1-0.8-0.3c-0.2-0.2-0.4-0.4-0.5-0.7c-0.1-0.3-0.2-0.6-0.3-0.9c-0.1-0.3-0.1-0.6-0.1-0.9
			s0-0.7,0.1-1s0.2-0.6,0.4-0.8c0.2-0.2,0.4-0.4,0.6-0.5s0.4-0.2,0.7-0.2c0.2,0,0.4,0,0.6,0.1s0.3,0.2,0.5,0.3
			c0.1,0.1,0.2,0.3,0.3,0.4c0.1,0.2,0.2,0.4,0.2,0.5c0.1,0.2,0.1,0.4,0.1,0.6C411.1,359,411.1,359.1,411.1,359.3"/>
	</g>
</g>
<g>
	
		<radialGradient id="SVGID_1_" cx="142.3393" cy="139.7287" r="398.9284" gradientTransform="matrix(1 0 0 1 0 4.220000e-02)" gradientUnits="userSpaceOnUse">
		<stop  offset="0" style="stop-color:#5787BD"/>
		<stop  offset="0.6124" style="stop-color:#050829"/>
	</radialGradient>
	<path class="st2" d="M4.8,250c0,135.2,110,245.1,245.1,245.1c135.2,0,245.2-110,245.2-245.1c0-135.2-110-245.2-245.2-245.2
		C114.8,4.8,4.8,114.8,4.8,250z"/>
	<path class="st3" d="M250,32.3C130,32.3,32.3,130,32.3,250c0,120,97.6,217.7,217.7,217.7c120,0,217.7-97.6,217.7-217.7
		C467.7,130,370,32.3,250,32.3z"/>
	<radialGradient id="SVGID_2_" cx="143.4602" cy="140.9131" r="394.7845" gradientUnits="userSpaceOnUse">
		<stop  offset="0" style="stop-color:#FFFFFF"/>
		<stop  offset="0.6517" style="stop-color:#F7F7F7"/>
		<stop  offset="1" style="stop-color:#E0E0E0"/>
	</radialGradient>
	<path class="st4" d="M33.6,250c0,59.7,24.3,113.8,63.5,153c39.2,39.2,93.3,63.5,153,63.5c59.7,0,113.8-24.3,153-63.5
		c39.2-39.2,63.5-93.3,63.5-153c0-59.7-24.3-113.8-63.5-153c-39.2-39.2-93.3-63.5-153-63.5c-59.7,0-113.8,24.3-153,63.5
		C57.8,136.2,33.6,190.3,33.6,250z"/>
	<path class="st5" d="M384.5,115.5C347.4,78.4,298.7,59.8,250,59.8s-97.4,18.5-134.5,55.6C79.6,151.4,59.8,199.2,59.8,250
		c0,50.8,19.8,98.6,55.7,134.5c35.9,35.9,83.7,55.7,134.5,55.7c0,0,0,0,0,0c50.8,0,98.5-19.8,134.5-55.7
		c35.9-35.9,55.7-83.7,55.7-134.5C440.2,199.2,420.4,151.4,384.5,115.5z"/>
	
		<radialGradient id="SVGID_3_" cx="147.1733" cy="144.737" r="381.035" gradientTransform="matrix(1 0 0 1.0002 0 -9.330000e-02)" gradientUnits="userSpaceOnUse">
		<stop  offset="0" style="stop-color:#FFFFE6"/>
		<stop  offset="0.6404" style="stop-color:#FFBF00"/>
	</radialGradient>
	<path class="st6" d="M383.5,116.4C346.7,79.6,298.3,61.2,250,61.2s-96.7,18.4-133.5,55.2C80.9,152.1,61.2,199.5,61.2,250
		c0,50.4,19.6,97.9,55.3,133.5c35.7,35.7,83.1,55.3,133.5,55.3c50.4,0,97.8-19.6,133.5-55.3c35.7-35.7,55.3-83.1,55.3-133.5
		C438.8,199.5,419.2,152.1,383.5,116.4z"/>
	<path class="st7" d="M387.1,223.5c0,0-220.3,0-244.5,0c4.7-20.4,14.7-39,29.4-54.1c20.9-21.4,48.5-33.2,77.9-33.2
		c27.8,0,53.9,10.6,74.3,29.9c5.2,4.7,11.7,7,18.2,7c7.4,0,14.7-3,20.1-8.9c4.8-5.3,7.5-12.1,7.5-18.8c0-4.6-1.3-9-4.1-12.8l0-0.1
		l-0.1-0.1C335,100.6,293.8,83,250,83c-43.8,0-85,17.5-116,49.3c-30.6,31.4-47.5,73.2-47.7,117.6c0,0,0,0,0,0.1
		c0,7,2.8,13.8,7.7,18.7c5,5,11.7,7.8,18.8,7.8h244.7c-4.7,20.6-14.7,39.6-29.6,54.9c-20.9,21.4-48.5,33.2-77.9,33.2
		c-29.4,0-57.1-11.8-77.9-33.2c-8.7-9-15.9-19.3-21.3-30.8l-0.2-0.9l-0.2,0.1c-4.2-7.6-12.7-11.5-21.4-11.5c-2.7,0-5.5,0.4-8.2,1.1
		c-11.6,3.3-19.5,14.3-19.5,25.5c0,2.8,0.5,5.5,1.5,8.2c7.9,16.8,18.5,31.9,31.3,45.1c30.9,31.8,72.1,49.3,116,49.3c0,0,0,0,0,0
		c43.8,0,85-17.5,116-49.3c30.8-31.6,47.7-73.5,47.7-118.1c0-0.2,0-0.3,0-0.5C413.6,235.3,401.7,223.5,387.1,223.5z"/>
	<radialGradient id="SVGID_4_" cx="143.843" cy="140.2022" r="394.9789" gradientUnits="userSpaceOnUse">
		<stop  offset="0" style="stop-color:#5787BD"/>
		<stop  offset="0.6124" style="stop-color:#050829"/>
	</radialGradient>
	<path class="st8" d="M141.1,224.7l0.2-0.8c4.7-20.9,14.9-40,29.9-55.5c21.1-21.7,49.1-33.6,78.8-33.6c28.1,0,54.6,10.8,75.2,30.2
		c5,4.5,11.2,6.7,17.4,6.7c7.1,0,14.1-2.9,19.2-8.5c4.6-5,7.2-11.7,7.2-18c0-4.4-1.2-8.6-3.9-12.1l-0.1-0.1
		c-30.7-31.5-71.5-48.8-115-48.8c-43.5,0-84.4,17.4-115.1,48.9c-30.4,31.2-47.2,72.7-47.3,116.8c0,0,0,0,0,0.1
		c0,6.7,2.7,13.1,7.4,17.9c4.7,4.8,11.2,7.4,17.9,7.4h246.2l-0.2,0.7c-4.6,21.2-14.9,40.6-30.1,56.3C307.7,354,279.7,366,250,366
		c-29.7,0-57.7-11.9-78.8-33.6c-8.9-9.1-16.1-19.6-21.6-31.1l0,0c-3.8-7.5-12-11.4-20.7-11.4c-2.6,0-5.3,0.4-7.8,1.1
		c-11,3.2-18.7,13.7-18.7,24.3c0,2.6,0.5,5.2,1.4,7.7c7.9,16.6,18.3,31.7,31.1,44.8c30.7,31.5,71.6,48.9,115.1,48.9
		c43.5,0,84.4-17.4,115.1-48.9c30.5-31.4,47.3-73,47.3-117.2c0-0.2,0-0.3,0-0.5c0-13.9-11.4-25.2-25.3-25.2c0,0-225.5,0-245.3,0
		H141.1z"/>
</g>
</svg>
