<?xml version="1.0" encoding="utf-8"?>
<!-- Generator: Adobe Illustrator 25.0.1, SVG Export Plug-In . SVG Version: 6.00 Build 0)  -->
<svg version="1.1" id="Layer_1" xmlns="http://www.w3.org/2000/svg" xmlns:xlink="http://www.w3.org/1999/xlink" x="0px" y="0px"
	 viewBox="0 0 500 500" style="enable-background:new 0 0 500 500;" xml:space="preserve">
<style type="text/css">
	.st0{fill:url(#path4333_1_);}
	.st1{fill:none;stroke:#FFC20E;stroke-width:8.3;}
	.st2{fill:#FFFFFF;}
</style>
<g id="layer3" transform="translate(-292.10793,-329.49874)">
	
		<radialGradient id="path4333_1_" cx="764.9756" cy="344.032" r="249.2467" gradientTransform="matrix(1 0 0 -0.9911 -292.1079 827.9064)" gradientUnits="userSpaceOnUse">
		<stop  offset="0" style="stop-color:#7199C7"/>
		<stop  offset="1" style="stop-color:#000945"/>
	</radialGradient>
	<path id="path4333" class="st0" d="M791.8,580.4c0,136.4-111.6,247-249.2,247s-249.2-110.6-249.2-247s111.6-247,249.2-247
		S791.8,444,791.8,580.4L791.8,580.4z"/>
	<path id="path4344" class="st1" d="M749.9,581.9c0,114.3-92.6,207-206.8,207s-206.8-92.7-206.8-207c0-114.3,92.6-207,206.8-207
		S749.9,467.6,749.9,581.9L749.9,581.9z"/>
	<path id="path4346" class="st2" d="M413.7,475.3c-32.6,33.7-45,113.8-23,172.1c22,58.2,86,94.4,103.3,71.4
		c17.3-23.1-6.8-36.2-23.6-46.7c-16.8-10.5-27.8-29.9-27.8-29.9h198c0,0-11,19.4-27.8,29.9c-16.8,10.5-40.9,23.6-23.6,46.7
		c17.3,23.1,81.3-13.1,103.3-71.4c22-58.2,17.6-133.2-23-172.1c-40.6-38.9-82.4-58.5-127.9-58.5S446.4,441.7,413.7,475.3z
		 M540.4,465.8c0.8,0,1.6,0,2.3,0c41.4,1.3,74,18.8,95,49.4c25.2,36.7,20,77.2,20,77.2H425.4c0,0-5.2-40.4,20-77.2
		C466.4,484.6,499,467.1,540.4,465.8z"/>
</g>
</svg>
