<?xml version="1.0" encoding="utf-8"?>
<!-- Generator: Adobe Illustrator 25.0.1, SVG Export Plug-In . SVG Version: 6.00 Build 0)  -->
<svg version="1.1" id="Layer_1" xmlns="http://www.w3.org/2000/svg" xmlns:xlink="http://www.w3.org/1999/xlink" x="0px" y="0px"
	 viewBox="0 0 500 500" style="enable-background:new 0 0 500 500;" xml:space="preserve">
<style type="text/css">
	.st0{fill:#1C91D0;}
</style>
<g>
	<polygon class="st0" points="50.3,313.2 109.2,313.2 143.5,223.6 179.1,313.2 237.6,313.2 158.9,135.7 129.8,135.7 	"/>
	<path class="st0" d="M427.2,223.8c0,51.6-41.8,93.4-93.4,93.4s-93.4-41.8-93.4-93.4s41.8-93.4,93.4-93.4S427.2,172.2,427.2,223.8z
		 M333.8,184.1c-22,0-39.8,17.8-39.8,39.8s17.8,39.7,39.8,39.7s39.8-17.8,39.8-39.7S355.8,184.1,333.8,184.1z"/>
	<path class="st0" d="M198.6,339.6v-1.7h4.9v16.8h-4.9V353c-1.1,1.4-3.2,2.3-4.8,2.3c-6.5,0-8.5-4.7-8.5-9.3
		c0.1-4.6,3.1-8.4,8.5-8.4C195.5,337.6,197.5,338.2,198.6,339.6z M198.7,346.6c0-2.5-1.9-4.6-4.3-4.6c-2.8,0-4.2,2.2-4.2,4.5
		s1.4,4.6,4.2,4.6C196.8,351.1,198.7,349.1,198.7,346.6z M278.2,339.6v-1.7h4.9v16.8h-4.9V353c-1.1,1.4-3.2,2.3-4.8,2.3
		c-6.5,0-8.5-4.7-8.5-9.3c0.1-4.6,3.1-8.4,8.5-8.4C275.1,337.6,277.1,338.2,278.2,339.6z M278.3,346.6c0-2.5-1.9-4.6-4.3-4.6
		c-2.8,0-4.2,2.2-4.2,4.5s1.4,4.6,4.2,4.6C276.4,351.1,278.3,349.1,278.3,346.6z M313.7,339.6v-1.7h4.9v16.8h-4.9V353
		c-1.1,1.4-3.2,2.3-4.8,2.3c-6.5,0-8.5-4.7-8.5-9.3c0.1-4.6,3.1-8.4,8.5-8.4C310.6,337.6,312.6,338.2,313.7,339.6z M313.8,346.6
		c0-2.5-1.9-4.6-4.3-4.6c-2.8,0-4.2,2.2-4.2,4.5s1.4,4.6,4.2,4.6C311.8,351.1,313.8,349.1,313.8,346.6z M216.8,355.3v-1.7
		c-1.2,1.5-3.2,2-5,1.9c-4.8,0-5.7-4.2-5.7-8.4v-9.3h5v9.8c0,4.9,6,4.7,6,0.3v-10.1h4.7v17.4L216.8,355.3L216.8,355.3z M230.9,337.5
		c3.6,0,6.3,1.8,6.4,5.8h-4.5c0-1.3-0.8-1.6-1.9-1.6c-2,0-2.1,2.1-0.2,2.4c3.7,0.7,6.6,2.3,6.6,5.4c0,4.2-2.1,6-6.7,6
		c-4.6,0-6.5-1.9-6.5-6.2h4.5c0,1.1,0.7,1.8,2.1,1.8c1.4,0,1.9-0.6,1.8-1.2c-0.1-0.6-0.8-1.1-2-1.2c-3.8-0.5-6.2-2.2-6.2-5.3
		C224.3,339.2,227.1,337.5,230.9,337.5z M247.2,355c-3.8,0-5.7-1.7-5.7-6.1v-6.6h-2.8V338h2.8v-3.8l4.9-3.2v7h3.1v4.2h-3.1v6.6
		c0,1.5,0.7,2,1.9,2c0.5,0,1-0.1,1.4-0.2l0.2,4C248.9,354.9,248,355,247.2,355z M257,354.7h-4.4v-16.5h4.4l0.2,1.6
		c1.1-1,2.9-1.9,4.2-1.9c0.6,0,1.2,0.1,1.9,0.2l-0.1,4.4c-0.5-0.2-1.7-0.2-2.3-0.2c-1.8,0-4,0.8-4,3L257,354.7L257,354.7z
		 M291,329.9v24.8h-5v-24.8H291z M295.8,330.4c1.5,0,3,0.9,3,2.9c0,1.8-1.4,2.7-2.8,2.7c-1.5,0-3-0.9-3-2.7
		C292.9,331.4,294.3,330.4,295.8,330.4z M293.4,337.9v16.8h5v-16.8H293.4z M326.6,337.9v1.7c1.2-1.5,3.2-1.9,5-1.9
		c4.8,0.1,6.1,3.6,6.1,7.8v9.3h-5v-9.6c0-2.3-1.3-3.3-2.6-3.3c-1.5,0-3.5,0.7-3.5,3.4v9.5h-4.9V338h4.9V337.9z M413.1,337.9v1.7
		c1.2-1.5,3.2-1.9,5-1.9c4.8,0.1,6.1,3.6,6.1,7.8v9.3h-5v-9.6c0-2.3-1.3-3.3-2.6-3.3c-1.5,0-3.5,0.7-3.5,3.4v9.5h-4.9V338h4.9V337.9
		z M348.1,346.3c0-12,17.9-12,17.9,0S348.1,358.2,348.1,346.3z M361.1,346.3c0-5.7-8.1-5.7-8.1,0C353,351.9,361.1,352,361.1,346.3z
		 M372.6,353.1v9.9h-4.3v-25.2h4.5v1.7c1.1-1.4,3.6-1.9,5.2-1.9c5.3,0,8.3,4.3,8.3,8.9c-0.1,4.6-2.9,8.8-8.3,8.8
		C376.3,355.4,373.8,354.4,372.6,353.1z M373.1,346.4c0,2.5,1.9,4.6,4.3,4.6c2.8,0,4.2-2.2,4.2-4.5s-1.4-4.6-4.2-4.6
		C375,341.8,373.1,343.9,373.1,346.4z M405.6,348.2H393c0.6,1.6,2,3.1,4,3.1s2.5-0.8,3-1.5h5.3c-1.3,3.7-4.8,5.6-8.4,5.5
		c-4.3-0.1-8.5-3.3-8.5-9c0-5.8,4.4-8.7,8.8-8.6c4.3,0,8.6,2.9,8.6,8.6C405.8,346.9,405.7,347.5,405.6,348.2z M401,344.3
		c-0.5-1.7-2.4-2.5-4-2.5c-1.5,0-3.2,0.8-3.7,2.5H401z"/>
</g>
</svg>
