<?xml version="1.0" encoding="utf-8"?>
<!-- Generator: Adobe Illustrator 25.0.1, SVG Export Plug-In . SVG Version: 6.00 Build 0)  -->
<svg version="1.1" id="Layer_1" xmlns="http://www.w3.org/2000/svg" xmlns:xlink="http://www.w3.org/1999/xlink" x="0px" y="0px"
	 viewBox="0 0 500 500" style="enable-background:new 0 0 500 500;" xml:space="preserve">
<style type="text/css">
	.st0{display:none;fill:#FFFFFF;}
	.st1{display:none;fill:none;stroke:#FFFFFF;stroke-width:0.5621;stroke-miterlimit:10;}
	.st2{fill-rule:evenodd;clip-rule:evenodd;fill:#442C8B;}
	.st3{fill-rule:evenodd;clip-rule:evenodd;fill:#FFFFFF;}
	.st4{fill-rule:evenodd;clip-rule:evenodd;fill:#006330;}
	
		.st5{fill-rule:evenodd;clip-rule:evenodd;fill:#006330;stroke:#FFFFFF;stroke-width:0.9703;stroke-linecap:round;stroke-linejoin:round;stroke-miterlimit:2.6131;}
	.st6{fill:none;stroke:#FFFFFF;stroke-width:0.9703;stroke-linecap:round;stroke-linejoin:round;stroke-miterlimit:2.6131;}
	.st7{fill:none;stroke:#FFFFFF;stroke-width:0.9702;stroke-linecap:round;stroke-linejoin:round;stroke-miterlimit:2.6131;}
	.st8{fill-rule:evenodd;clip-rule:evenodd;fill:#231F20;}
</style>
<g>
	<g>
		<path class="st0" d="M354.1,355.2c-2.2,0-3.9,1.8-3.9,3.9c0,2.2,1.8,3.9,3.9,3.9c2.2,0,3.9-1.8,3.9-3.9S356.2,355.2,354.1,355.2
			 M357.4,359.2c0,1.9-1.5,3.4-3.3,3.4c-1.9,0-3.4-1.5-3.4-3.4c0-1.8,1.5-3.3,3.4-3.3C355.9,355.8,357.4,357.3,357.4,359.2"/>
		<path class="st0" d="M354,360.8c-0.9,0-1.7-0.8-1.7-1.7c0-0.9,0.8-1.7,1.7-1.7c0.7,0,1.2,0.4,1.5,1h0.5c-0.3-0.8-1.1-1.4-2-1.4
			c-1.2,0-2.1,1-2.1,2.1c0,1.2,1,2.1,2.1,2.1c1,0,1.8-0.6,2-1.5h-0.5C355.3,360.4,354.7,360.8,354,360.8"/>
		<path class="st0" d="M364.7,361.5c-0.2,0.1-0.4,0.2-0.7,0.3c-0.3,0.1-0.5,0.1-0.8,0.1s-0.6,0-0.8-0.2c-0.3-0.1-0.5-0.3-0.7-0.5
			c-0.2-0.3-0.4-0.6-0.5-0.9s-0.1-0.7-0.1-1.1s0.1-0.7,0.2-1.1c0.1-0.3,0.3-0.6,0.5-0.9c0.2-0.2,0.4-0.4,0.7-0.6
			c0.3-0.1,0.6-0.2,0.9-0.2c0.2,0,0.5,0,0.7,0.1s0.4,0.2,0.6,0.3l-0.3,0.4c-0.2-0.1-0.3-0.2-0.5-0.2c-0.2-0.1-0.3-0.1-0.5-0.1
			c-0.3,0-0.6,0.1-0.8,0.2c-0.2,0.1-0.4,0.4-0.5,0.7c-0.1,0.2-0.1,0.4-0.2,0.6c0,0.2,0,0.5,0,0.8c0,0.2,0,0.5,0,0.6
			c0,0.2,0.1,0.3,0.1,0.5c0.1,0.3,0.3,0.6,0.6,0.7c0.3,0.2,0.5,0.2,0.8,0.2c0.2,0,0.4,0,0.5-0.1c0.2-0.1,0.3-0.1,0.5-0.3
			L364.7,361.5"/>
		<path class="st0" d="M368.6,359.4c0-0.4,0-0.7-0.1-1c0-0.3-0.1-0.5-0.2-0.7s-0.2-0.4-0.4-0.5c-0.2-0.1-0.4-0.2-0.7-0.2
			c-0.2,0-0.5,0-0.7,0.1s-0.3,0.3-0.4,0.5s-0.2,0.4-0.2,0.6s-0.1,0.5-0.1,0.8c0,0.4,0,0.8,0.1,1.1c0.1,0.3,0.1,0.6,0.2,0.8
			c0.1,0.1,0.1,0.2,0.2,0.2c0.1,0.1,0.2,0.1,0.3,0.2c0.1,0.1,0.2,0.1,0.3,0.1c0.1,0,0.2,0,0.3,0c0.2,0,0.4,0,0.6-0.1
			s0.3-0.2,0.4-0.3c0.1-0.1,0.1-0.2,0.2-0.3c0-0.1,0.1-0.2,0.1-0.3c0-0.1,0.1-0.3,0.1-0.4C368.6,359.8,368.6,359.6,368.6,359.4
			 M369.3,359.3c0,0.5-0.1,0.9-0.2,1.3c-0.1,0.3-0.3,0.6-0.6,0.9c-0.2,0.2-0.4,0.3-0.6,0.4s-0.4,0.1-0.7,0.1c-0.3,0-0.6,0-0.9-0.2
			c-0.2-0.1-0.5-0.3-0.6-0.5c-0.4-0.5-0.6-1.2-0.6-2.1c0-0.4,0.1-0.8,0.2-1.1c0.1-0.3,0.2-0.6,0.4-0.8c0.2-0.2,0.4-0.4,0.7-0.5
			c0.3-0.1,0.5-0.2,0.9-0.2c0.2,0,0.4,0,0.6,0.1c0.2,0,0.3,0.1,0.5,0.2c0.1,0.1,0.3,0.2,0.3,0.3c0.1,0.1,0.2,0.2,0.2,0.3
			c0.2,0.2,0.3,0.5,0.4,0.8C369.3,358.5,369.3,358.9,369.3,359.3"/>
		<path class="st0" d="M373,358.2c0-0.4-0.1-0.7-0.3-0.8c-0.1-0.1-0.2-0.2-0.4-0.2c-0.2-0.1-0.4-0.1-0.6-0.1H371v2.1h0.9
			c0.2,0,0.4,0,0.5-0.1c0.1,0,0.2-0.1,0.3-0.2C372.9,358.7,373,358.5,373,358.2 M373.7,358.1c0,0.3,0,0.5-0.1,0.7s-0.2,0.4-0.4,0.5
			c-0.2,0.2-0.4,0.3-0.6,0.3c-0.2,0.1-0.4,0.1-0.7,0.1H371v2.1h-0.6v-5.2h1.5c0.3,0,0.5,0,0.7,0s0.3,0.1,0.5,0.2
			C373.5,357.1,373.7,357.5,373.7,358.1"/>
		<path class="st0" d="M376.1,359.8v2h-0.6v-2.1l-1.7-3.2h0.8l1,2c0,0.1,0.1,0.2,0.1,0.3c0,0.1,0.1,0.2,0.1,0.2c0,0.1,0,0.1,0,0.1
			c0.1-0.2,0.2-0.4,0.3-0.6l1-2h0.7L376.1,359.8"/>
		<path class="st0" d="M380.8,358c0-0.2,0-0.3-0.1-0.5s-0.2-0.3-0.4-0.3c-0.1,0-0.2-0.1-0.3-0.1c-0.1,0-0.2,0-0.4,0H379v2h0.6
			c0.2,0,0.4,0,0.6-0.1c0.1,0,0.3-0.1,0.4-0.2s0.2-0.2,0.2-0.3C380.8,358.3,380.8,358.2,380.8,358 M381,361.8c0-0.1-0.1-0.2-0.2-0.3
			c-0.1-0.1-0.2-0.3-0.3-0.5c-0.1-0.2-0.2-0.4-0.4-0.6c-0.1-0.2-0.3-0.4-0.5-0.6c0-0.1-0.1-0.1-0.1-0.1l-0.1-0.1
			c-0.1,0-0.1,0-0.1-0.1c-0.1,0-0.1,0-0.2,0v2.4h-0.6v-5.2h1.2c0.2,0,0.3,0,0.5,0c0.1,0,0.3,0,0.4,0.1c0.1,0,0.2,0.1,0.3,0.1
			c0.1,0,0.1,0.1,0.2,0.1s0.1,0.1,0.2,0.2s0.1,0.2,0.2,0.2c0,0.1,0.1,0.2,0.1,0.3c0,0.1,0,0.2,0,0.4c0,0.2,0,0.4-0.1,0.6
			s-0.2,0.3-0.3,0.5c-0.1,0.1-0.3,0.2-0.4,0.3c-0.2,0.1-0.4,0.1-0.6,0.1H380c0.1,0.1,0.2,0.2,0.3,0.3c0.1,0.1,0.2,0.2,0.2,0.3
			c0,0.1,0.1,0.2,0.2,0.3c0.1,0.1,0.2,0.3,0.3,0.5c0.1,0.2,0.2,0.3,0.3,0.5c0.1,0.2,0.2,0.3,0.2,0.4c0.1,0.1,0.1,0.1,0.1,0.2H381
			V361.8z"/>
		<line class="st1" x1="382.9" y1="361.8" x2="382.9" y2="356.6"/>
		<path class="st0" d="M388.1,361.5c-0.2,0.1-0.4,0.2-0.7,0.3c-0.3,0.1-0.5,0.1-0.8,0.1c-0.7,0-1.2-0.2-1.6-0.7
			c-0.2-0.2-0.4-0.5-0.5-0.9c-0.1-0.3-0.2-0.7-0.2-1.2s0.1-0.9,0.2-1.3s0.3-0.7,0.6-0.9c0.4-0.3,0.8-0.5,1.4-0.5s1,0.2,1.4,0.5
			l-0.3,0.4c-0.2-0.2-0.4-0.2-0.6-0.3c-0.2-0.1-0.4-0.1-0.6-0.1c-0.3,0-0.6,0.1-0.8,0.2c-0.2,0.1-0.4,0.4-0.5,0.7
			c-0.1,0.4-0.2,0.8-0.2,1.3c0,0.4,0,0.7,0.1,0.9c0.1,0.3,0.2,0.5,0.3,0.7c0.1,0.1,0.1,0.2,0.2,0.2c0.1,0.1,0.2,0.1,0.3,0.2
			c0.1,0.1,0.2,0.1,0.4,0.1c0.1,0,0.3,0,0.4,0c0.3,0,0.6-0.1,0.8-0.2v-1.6h-1l-0.1-0.5h1.8L388.1,361.5"/>
		<polygon class="st0" points="392.2,361.8 392.2,359.3 390,359.3 390,361.8 389.4,361.8 389.4,356.6 390,356.6 390,358.8 
			392.2,358.8 392.2,356.6 392.8,356.6 392.8,361.8 		"/>
		<polygon class="st0" points="397.1,357.1 395.7,357.1 395.7,361.8 395.1,361.8 395.1,357.1 393.7,357.1 393.7,356.6 397.1,356.6 
					"/>
		<path class="st0" d="M402.2,361.8h-2.9v-0.3c0.1-0.1,0.3-0.2,0.5-0.4c0.2-0.2,0.4-0.4,0.6-0.7c0.2-0.2,0.4-0.5,0.5-0.6
			c0.1-0.2,0.3-0.4,0.4-0.6s0.2-0.3,0.2-0.5c0-0.1,0.1-0.3,0.1-0.4c0-0.3-0.1-0.5-0.3-0.7c-0.2-0.2-0.4-0.3-0.7-0.3
			c-0.1,0-0.2,0-0.3,0c-0.1,0-0.2,0.1-0.3,0.1c-0.1,0-0.2,0.1-0.3,0.1c-0.1,0.1-0.2,0.1-0.3,0.2l-0.3-0.3c0.3-0.3,0.6-0.4,0.8-0.5
			c0.3-0.1,0.5-0.2,0.8-0.2c0.2,0,0.4,0,0.6,0.1s0.3,0.2,0.4,0.3c0.1,0.1,0.2,0.3,0.3,0.4c0.1,0.2,0.1,0.4,0.1,0.6s-0.1,0.4-0.1,0.7
			c-0.1,0.2-0.2,0.5-0.4,0.7c-0.2,0.2-0.4,0.5-0.7,0.8c-0.1,0.1-0.2,0.2-0.4,0.4c-0.1,0.1-0.2,0.2-0.3,0.3c-0.1,0.1-0.2,0.2-0.3,0.2
			c-0.1,0.1-0.1,0.1-0.2,0.1h0.1c0.1,0,0.1,0,0.2,0s0.2,0,0.3,0h1.6L402.2,361.8"/>
		<path class="st0" d="M406.2,359.3c0-0.3,0-0.5,0-0.7s-0.1-0.4-0.1-0.6c-0.1-0.3-0.2-0.5-0.4-0.6c-0.2-0.1-0.4-0.2-0.6-0.2
			c-0.1,0-0.3,0.1-0.4,0.2s-0.3,0.3-0.4,0.5c-0.2,0.3-0.3,0.8-0.3,1.4c0,0.3,0,0.5,0,0.8c0,0.2,0.1,0.4,0.1,0.6
			c0.1,0.3,0.2,0.5,0.4,0.6c0.2,0.2,0.3,0.2,0.5,0.2s0.3-0.1,0.5-0.2s0.3-0.3,0.4-0.5s0.1-0.4,0.2-0.6
			C406.2,359.9,406.2,359.6,406.2,359.3 M406.9,359.3c0,0.4-0.1,0.7-0.1,1.1c-0.1,0.3-0.2,0.6-0.4,0.8c-0.2,0.2-0.3,0.4-0.6,0.5
			c-0.2,0.1-0.5,0.2-0.7,0.2c-0.3,0-0.6-0.1-0.8-0.3c-0.2-0.2-0.4-0.4-0.5-0.7c-0.1-0.3-0.2-0.6-0.3-0.9c-0.1-0.3-0.1-0.6-0.1-0.9
			s0-0.7,0.1-1s0.2-0.6,0.4-0.8c0.2-0.2,0.3-0.4,0.6-0.5c0.2-0.1,0.4-0.2,0.7-0.2c0.2,0,0.4,0,0.6,0.1s0.3,0.2,0.5,0.3
			c0.1,0.1,0.2,0.3,0.3,0.4c0.1,0.2,0.2,0.4,0.2,0.5c0.1,0.2,0.1,0.4,0.1,0.6C406.8,359,406.9,359.1,406.9,359.3"/>
		<path class="st0" d="M411.1,359.3c0,0.4,0,0.7-0.1,1.1c-0.1,0.3-0.2,0.6-0.4,0.8c-0.2,0.2-0.3,0.4-0.6,0.5
			c-0.2,0.1-0.5,0.2-0.7,0.2c-0.3,0-0.6-0.1-0.8-0.3c-0.2-0.2-0.4-0.4-0.5-0.7c-0.1-0.3-0.2-0.6-0.3-0.9c-0.1-0.3-0.1-0.6-0.1-0.9
			s0-0.7,0.1-1s0.2-0.6,0.4-0.8c0.2-0.2,0.4-0.4,0.6-0.5s0.4-0.2,0.7-0.2c0.2,0,0.4,0,0.6,0.1s0.3,0.2,0.5,0.3
			c0.1,0.1,0.2,0.3,0.3,0.4c0.1,0.2,0.2,0.4,0.2,0.5c0.1,0.2,0.1,0.4,0.1,0.6C411.1,359,411.1,359.1,411.1,359.3"/>
	</g>
</g>
<g>
	<path class="st2" d="M409.1,90.9C365,47.3,312,25.5,250,25.5c-61.9,0-114.8,21.9-158.9,65.5C47.3,135,25.5,188,25.5,250
		c0,61.9,21.9,114.8,65.6,158.9c44.1,43.7,97.1,65.6,158.9,65.6c62,0,115-21.9,159.1-65.6c43.6-44.1,65.5-97.1,65.6-158.9
		C474.5,188,452.7,135,409.1,90.9L409.1,90.9L409.1,90.9z M396.4,101.3l-1-0.5l0,0L396.4,101.3L396.4,101.3L396.4,101.3z
		 M369.7,130.9c33.1,32.7,49.7,72.3,49.7,119.1c0,46.6-16.6,86.5-49.7,119.6c-33.2,33.2-73,49.7-119.7,49.7
		c-47,0-86.8-16.5-119.6-49.7c-33.2-33.1-49.7-73-49.7-119.6c0-46.7,16.5-86.3,49.7-119.1C163.2,97.7,203,81.2,250,81.2
		C296.7,81.2,336.5,97.7,369.7,130.9L369.7,130.9L369.7,130.9z M205,76.3l-0.2-0.6l0.5,0.5L205,76.3L205,76.3z"/>
	<path class="st3" d="M404.9,121.3l11.5-8.1c-0.8-1.1-1.7-2.1-2.7-3.2l-2.2-3.2L382,128.5l2.7,3.1c1.1,0.7,2,1.9,2.7,3.4l14.2-10.9
		l9.7,12.5l-14.1,10.9l2.1,3.2c1.1,1.1,2,2.3,2.7,3.4l29-21.9c-1.1-1.5-2.2-2.5-3.2-3.2l-1.6-3.4l-11.5,8.7l-5.5-5.9L404.9,121.3
		L404.9,121.3z"/>
	<path class="st3" d="M438.3,146.4c-0.4-0.6-0.8-2-1.1-3.7l-32.2,18c1,1.1,2,2.2,2.7,3.2c0.4,0.9,0.7,1.9,1.1,3.4l32.2-17.5
		C440.7,148.7,439.7,147.5,438.3,146.4L438.3,146.4z"/>
	<path class="st3" d="M412.1,172.7l3.2,8.2l14.7-6.6c4,10.2,9.6,13.9,17,11c5.7-2.2,7.1-6.7,3.7-13.6l-4.9-12.1L412.1,172.7
		L412.1,172.7z M443.2,178.2c-4,1.5-6.9,0.9-8.7-1.6l-1.6-2.7l13.1-6l1.6,3.2C448.7,174,447.2,176.4,443.2,178.2L443.2,178.2z"/>
	<path class="st3" d="M437.7,216.4c4.4-1.1,7.4-4.5,8.7-10.4c1.5-6.1,3.1-9.5,5-9.9c2.9-0.6,5,0.7,6.5,4.4c0.4,3-0.7,5.4-3.2,7.1
		v0.6l5.5,1l1-9.2c-2.1-8-6.9-11.1-14.1-9.2c-4.4,1-7.1,4.4-8.2,9.7c-1.1,5.9-2.9,9.1-5.5,9.9c-4,1.1-6.4-0.4-7-4.4
		c-0.7-4.4,0.5-7.2,3.7-8.7v-1.1h-7.1v8.7C424.8,214.4,429.7,218.3,437.7,216.4L437.7,216.4z"/>
	<path class="st3" d="M410.4,395.1l3.2-3.2L387.9,365l-1,2.3c-0.5,0.4-1.1,0.7-2.2,1.1l17.5,18l-33.4-1.6l-3.7,3.7l25.6,25.7
		c0-0.4,0.4-1,1.1-1.6c0.2,0,0.9-0.6,1.6-1.6l-18.6-18.1L410.4,395.1L410.4,395.1z"/>
	<path class="st3" d="M309.9,82.6c13.9,4.7,22.7,1.1,26.7-11c3.4-12-0.9-20.2-12.5-24.5c-13.1-4.7-21.7-1.1-25.7,10.9
		C293.6,69.9,297.5,78.2,309.9,82.6L309.9,82.6z M306.1,62.3c3.6-10.9,9.2-15,16.9-12c6.6,2.5,8.4,8.4,5.5,17.5
		c-3.7,10.5-9.1,14.6-16.4,12C304.4,76.6,302.4,70.7,306.1,62.3L306.1,62.3z"/>
	<path class="st3" d="M336.6,92.9l13.1-21.4l2.2,7.7l4.4,26.7l3.7,2.1l19.7-30.5c-0.4-0.1-1.1-0.5-2.2-1.1l-1.1-1.1l-13.6,20.7
		l-6-32.7l-4.4-3.2l-19.7,30.5c0.5,0,1,0.4,1.7,1.1C334.8,92.2,335.6,92.6,336.6,92.9L336.6,92.9z"/>
	<path class="st3" d="M397.8,91.8c-7-5.7-12.6-5.7-17,0c-2.9,3.2-3.2,7.6-1,13.1c2.1,5.5,2.2,9.2,0.5,11c-2.6,2.9-5.2,2.9-8.2,0
		c-2.9-2.6-3.4-5.7-1.5-9.2l-0.6-0.6l-6,3.9l4.9,7.6c6.6,5.4,12.7,5.6,18.6,0.5c2.9-3.2,3.2-7.9,1.1-13.6c-2.2-5.5-2.5-9-1.1-10.4
		c2.1-3,4.6-3,7.6,0c2.6,2.1,3,4.5,1.1,7.1l1.1,0.5l4.9-2.3C401.1,95.8,399.7,93.3,397.8,91.8L397.8,91.8z"/>
	<path class="st3" d="M266.7,36.1L253.6,35l-2.2,36.6h8.2l0.5-15.2c11.4,0.7,17.1-2.7,17.5-10.4C278.4,39.3,274.7,36.1,266.7,36.1
		L266.7,36.1z M264,53.1h-3.2l1-14.2h3.4c3.6,0,5,2.4,4.4,7.1C269.4,50.3,267.6,52.7,264,53.1L264,53.1z"/>
	<polygon class="st3" points="290.2,39.3 285.9,38.3 279.9,74.3 283.6,74.3 287.5,75.4 294.6,39.3 290.2,39.3 	"/>
	<path class="st3" d="M226.3,61.8l-15.9-23l-2.1,0.5H206l-0.5,36.6l-25.6-28.9c-0.7,0-1.6,0.1-2.2,0.5c-0.4,0-0.9,0.1-1.6,0.5
		l-2.2,39.4c0.7,0,1.7-0.1,2.7-0.5c0.4-0.4,1.1-0.6,2.2-0.5l-0.6-11.5l12-4.4l7.7,8.7c1.4-0.7,2.7-1.1,3.7-1.1l4.4-1.6l-0.5-0.6
		c0.4,0,1.2-0.1,2.7-0.5h2.1l-1-24.6l14.7,22.5c0.3-0.4,1-0.6,2.1-0.6l8.2-25.6l6,24.5c1.4-0.4,2.7-0.5,3.7-0.5
		c1.1-0.4,2.6-0.5,4.4-0.5L239.4,35l-2.1,0.6H235L226.3,61.8L226.3,61.8z M188,67.8l-9.2,3.2l1.1-13.1L188,67.8L188,67.8z"/>
	<path class="st3" d="M149.8,60.2l-3.2,1.6l7.1,12.5l-6,4.4l-7.1,3.9l-8.2-12c-1.1,1-2.2,1.7-3.2,2.1c-1.5,1.1-2.7,1.9-3.9,2.2
		l19.7,31.1c1-1.1,2.1-1.9,3.2-2.2l3.2-2.1l-9.2-15.2l14.2-8.2l9.2,15.2c1-1,2.1-2,3.2-2.7l2.7-1.6L153,57.9L149.8,60.2L149.8,60.2z
		"/>
	<path class="st3" d="M110.4,90.2c2.6-2.5,5.9-3.5,9.9-2.7l0.5-0.5c-0.7-0.7-1.6-2.2-2.7-4.4c-2.5,0.4-5.7,2-9.7,4.9
		c-10.6,10.2-11.1,20-1.6,29.5c7.6,8.7,16.5,8.7,26.7,0c3.6-4.4,5.6-7.4,6-9.2l-2.1-3.9h-1.1c0,3.6-1.5,7-4.4,9.9
		c-6.6,5.9-13,4.7-19.1-3.2C105.3,102.4,104.7,95.7,110.4,90.2L110.4,90.2z"/>
	<path class="st3" d="M80.9,121.9l-2.1-1.6l-11,16.4l30.1,20.7l11.5-17c-0.4-0.4-1.1-0.6-2.2-1c-0.4-0.1-0.9-0.5-1.7-1.1l-6.5,9.9
		L88.1,141l3.2-4.4c0.7-1.5,2-3.1,3.9-5l-3.9-2.6c-1.4,2.1-2.5,4-3.2,5.4l-3.2,5l-9.9-6.5l7.6-10.5
		C82.2,122.4,81.7,122.3,80.9,121.9L80.9,121.9z"/>
	<path class="st3" d="M61.3,147.5c-0.4,1.1-1,2.2-1.6,3.2c-0.1,1.1-0.7,2.4-2.2,4l13.6,5.9l-7,14.7l-12.6-6l-1.6,4.4l-1.6,2.7
		l33.4,15.2c0-1,0.4-2.1,1-3.2l2.2-3.7l-16.4-7.1l2.6-8.2l3.9-7.1l16.4,7.1l1-3.9c1.1-1,1.9-2.1,2.2-3.2L61.3,147.5L61.3,147.5z"/>
	<path class="st3" d="M42.7,213.6l2.2-9.7l31.6,7.6c0.4-1.5,0.5-2.7,0.6-3.9c0.2-0.7,0.6-2,1-3.7l-31.6-7.7l2.7-9.2h-2.2l-1.6-1.1
		l-6.6,27.4h2.2C41.5,213.1,42,213.3,42.7,213.6L42.7,213.6z"/>
	<path class="st3" d="M166.2,407.7c-1-0.5-2.1-1-3.2-1.7l-17.5,31.7l3.9,1.6l3.2,2.2l17.5-32.2C169.3,409.2,168,408.7,166.2,407.7
		L166.2,407.7z"/>
	<path class="st3" d="M180.4,414.7l-2.2-0.5l-16.4,32.7h1.6c0.8,0.8,1.6,1.3,2.8,1.6l9.9-21.7l2.7,25.6l2.1,0.5l19.1-19.1l-5.5,24.1
		c0.7,0,2.1,0.5,3.9,1.6c1.1,0,2.6,0.4,4.4,1.1l7.1-36.1c-0.7,0-1.6-0.3-2.7-0.5c-0.4,0-0.9-0.3-1.6-0.6l-19.7,19.7l-3.7-27.9
		C181.7,415.3,181.2,415.1,180.4,414.7L180.4,414.7z"/>
	<path class="st3" d="M157.4,404.3l-1.6-1.6l-22.4,15.9l9.2-26.2c-0.4,0-0.9-0.4-1.6-1.1c-0.4-0.7-1.1-1.5-2.1-2.1l-23.5,15.2
		l10.9-25.1l-4.4-2.1c-0.4-1.1-1.3-2.2-2.7-3.4l-1.1,1.1l-13,34.5c0.2,0,1,0.4,2.1,1c0.8,0.4,1.5,1.1,2.2,2.2l22.9-15.4l-9.2,26.2
		c0.4,0.4,1.1,0.7,2.1,1.1c0.8,0.4,1.5,1.1,2.2,2.2l32.2-20.9L157.4,404.3L157.4,404.3z"/>
	<path class="st3" d="M255.2,428.4c-1.1-0.1-2.4,0.1-3.9,0.5l-4.9-0.5l1.6,36.6l19.7-0.6v-4.9l-12.1,1.1L255.2,428.4L255.2,428.4z"
		/>
	<path class="st3" d="M291.4,424.6l-20.2,3.2l6,35.5l20.2-3.2c-0.7-0.4-1.1-1.1-1.1-2.1v-2.2l-12,2.2l-2.2-12.6l5.5-1.5l6.5-0.6
		c0-0.4-0.4-1-1-1.6v-2.7l-6,2.1l-5.5,0.6l-1.6-11l12-1.6c-0.4-0.7-0.6-1.5-0.5-2.1V424.6L291.4,424.6z"/>
	<path class="st3" d="M230.6,427.3l-13.6-1.6l-3.9,36.6l11.5,1c9.1,0.8,13.9-2.2,14.2-9.2c0.4-5.5-2.4-8.6-8.2-9.2v-1
		c5.5-0.1,8.7-2.5,9.9-7.2C240.9,431.1,237.6,427.9,230.6,427.3L230.6,427.3z M224.6,429.4l2.8,0.2c4.4,1.1,5.1,2.9,4.9,6.5
		c-0.2,2.3-1.1,4.6-2.7,6c-1.1,0.6-3.4,0.3-6,0L224.6,429.4L224.6,429.4z M221.2,459.7l1.8-14.4c6.1,0.7,8.7,3.5,7.6,8.2
		c0,3.8-1.7,6.1-5.2,6.3C224,460,222.6,459.8,221.2,459.7L221.2,459.7z"/>
	<path class="st3" d="M374.8,420.2c1-5.1,0.4-9.9-2.1-14.2c-7.2-10.5-16.4-12.5-27.4-6c-11.4,7.4-13.6,16.6-7,27.9
		c6.5,11,15.4,12.6,26.7,5C370.1,429.8,373.3,425.7,374.8,420.2L374.8,420.2z M364,409.8c6.9,8.7,6.7,15.6-0.6,20.7
		c-6.1,3.2-12,1.1-17.5-6.5c-5.4-9.9-4.9-16.9,1.7-20.7C354.5,398.4,360,400.7,364,409.8L364,409.8z"/>
	<path class="st3" d="M333.3,428.4c-4-10.2-11.1-13.9-21.2-11l-17,6.6l11.5,33.9l14.2-5C333.2,448.5,337.3,440.4,333.3,428.4
		L333.3,428.4z M308.7,421.8c7.4-1.8,12.6,1.5,15.9,9.9c3.2,10.2,0.9,16.5-7.1,19.1l-4.4,1.6l-9.7-28.4L308.7,421.8L308.7,421.8z"/>
	<path class="st4" d="M365.1,135.5c-31.7-31.7-70-47.6-114.8-47.6c-44.4,0-82.6,15.9-114.7,47.6c-31.6,31.7-47.5,69.7-47.5,114.2
		c0,44.4,15.9,82.6,47.5,114.7c32.1,31.6,70.3,47.5,114.7,47.5c44.9,0,83.1-15.9,114.8-47.5c31.2-31.7,47-70,47-114.7
		C412.1,205.3,396.3,167.3,365.1,135.5L365.1,135.5z"/>
	<path class="st5" d="M277.2,280.8l-27.4-28.2l-5.1-5.1c-3.6-5-5.9-11-6.9-18c-0.6-4.6-0.7-9.7-0.3-15.2c0-0.6,0.4-2.9,0.5-3.6
		c0.3-2.6,0.5-5.4,0.4-8.2c0-0.9,0-1.8-0.1-2.6c-0.2-4.1-0.9-8.1-1.9-11.9c-0.9-3.6-2.2-7.1-3.9-10.6c-3.1-6.2-7.4-12.2-12.9-17.6
		c-1.9-2-4-3.7-6-5.5c-7.4-5.7-15.4-9.7-24.1-11.7c-3.2-0.7-6.5-1.3-10-1.4c-15-1-27.5,3.4-37.5,13.1c-0.2,0.2-0.4,0.5-0.6,0.6
		c-6.5,6.5-10.7,14-12.7,22.5c-0.7,3.4-1.1,6.9-1.2,10.6c0,1.6,0,3.4,0.1,5.1c0.2,3.1,0.6,6.4,1.4,9.4c0.9,4.1,2.1,8.1,3.9,11.9
		c2.5,5.4,5.7,10.4,10,15.2c1,1.1,2.3,2.4,3.4,3.6c2.2,2.2,4.6,4.4,7.1,6.2c0.5,0.4,1.1,0.9,1.7,1.2c6.7,4.9,14.1,8.1,22,9.9
		c3,0.6,6.1,1.1,9.4,1.3c4.2,0.2,8.4,0.1,12.2-0.5c16.5-1,28.1,1.3,34.7,6.9l5.2,5.2l27.7,27.8L277.2,280.8L277.2,280.8z"/>
	<path class="st6" d="M230.9,212.6c0.2-0.5,0.4-2.5,0.4-3.2c0.3-2.3,0.4-4.8,0.3-7.3c0-0.8,0-1.6-0.1-2.3c-0.2-3.7-0.8-7.2-1.7-10.5
		c-0.8-3.2-2-6.3-3.4-9.4c-2.8-5.5-6.5-10.9-11.4-15.6c-1.7-1.8-3.5-3.3-5.3-4.9c-6.5-5.1-13.6-8.6-21.4-10.4
		c-2.9-0.7-5.8-1.1-8.9-1.2c-13.3-0.9-24.4,3-33.3,11.6c-0.2,0.2-0.4,0.4-0.5,0.6c-5.8,5.8-9.5,12.4-11.3,19.9c-0.7,3-1,6.1-1.1,9.4
		c0,1.4,0,3,0.1,4.5c0.2,2.8,0.6,5.6,1.2,8.3c0.8,3.7,1.9,7.2,3.4,10.5c2.2,4.8,5.1,9.2,8.9,13.5c0.9,1,2,2.1,3,3.2
		c2,2,4.1,3.9,6.3,5.5c0.4,0.3,1,0.8,1.6,1.1c6,4.3,12.5,7.2,19.5,8.7c2.7,0.6,5.4,1,8.3,1.1c3.8,0.2,7.4-0.1,10.9-0.4
		C210.7,243.9,224.9,233.2,230.9,212.6L230.9,212.6z"/>
	<path class="st5" d="M221.2,281.9l11.2,9.8l2.1-1.9l15.5-15l10.9-10.6l5.2-5.1c4.9-3.6,10.9-6,18-6.9c4.5-0.7,9.6-0.7,15.1-0.3
		c0.6,0.1,3,0.3,3.6,0.4c2.6,0.3,5.4,0.5,8.2,0.5c0.9-0.1,1.7-0.1,2.6-0.1c4.1-0.2,8.1-0.9,11.9-1.9c3.7-1,7.1-2.4,10.6-4
		c6.2-3,12.1-7.4,17.6-12.7c2-2,3.7-4,5.5-6.1c5.7-7.2,9.6-15.4,11.7-24c0.7-3.4,1.2-6.6,1.4-10.1c0.9-14.9-3.5-27.4-13.2-37.5
		c-0.3-0.2-0.4-0.5-0.6-0.6c-6.6-6.5-14.1-10.7-22.5-12.6c-3.5-0.7-6.9-1.2-10.6-1.2c-1.6-0.1-3.4,0-5.1,0.1
		c-3.2,0.1-6.4,0.6-9.4,1.3c-4.1,1-8.1,2.2-11.9,4c-5.4,2.4-10.5,5.7-15.2,9.9c-1.2,1.1-2.5,2.2-3.6,3.5c-2.4,2.4-4.4,4.6-6.2,7
		c-0.4,0.6-0.9,1.2-1.2,1.9c-4.9,6.7-8.1,14-9.9,22c-0.6,3-1,6.1-1.2,9.2c-0.3,4.4-0.1,8.4,0.5,12.4c1,16.4-1.2,28-6.7,34.7
		L224,279.3L221.2,281.9L221.2,281.9z"/>
	<path class="st5" d="M318.2,347l2.6,2.6c7.2-1.6,12.1-6.5,14.6-14.5L318.2,318l-11.1-11.2l-11.2-11.2L283.2,283l-3.9-4
		c-7.5,2.1-12.4,7-14.6,14.5l18.5,18.5l12.6,12.5l11.2,11.2L318.2,347L318.2,347z"/>
	<path class="st7" d="M263,327.3c-3.6-3.7-8-5.6-13.1-5.6c-5.2,0-9.6,1.9-13.2,5.6c-3.6,3.5-5.5,7.9-5.4,13.1
		c-0.1,5.1,1.7,9.5,5.4,13.1c3.6,3.6,8,5.5,13.2,5.5c5.1,0,9.5-1.9,13.1-5.5c3.6-3.6,5.5-8,5.5-13.1
		C268.5,335.2,266.6,330.8,263,327.3L263,327.3z"/>
	<path class="st6" d="M318.2,347v-29 M295.9,324.5v-29 M307.1,306.7v29 M283.2,283v29"/>
	<path class="st5" d="M230.6,297.6l4-4c-2.2-7.5-7.1-12.2-14.6-14.5l-18.4,18.5L189,310.1l-11.2,11.2l-11.1,11.2l-2.6,2.6
		c1.6,7.2,6.4,12.1,14.5,14.5l17.1-17.1l11.2-11.2l11.2-11.2L230.6,297.6L230.6,297.6z"/>
	<path class="st6" d="M230.6,297.6h-29 M166.7,332.6h29 M189,310.1h29.1 M206.9,321.3h-29.1"/>
	<path class="st8" d="M422.3,86.3c-1.4-1.4-2.6-2.7-4-4.1C371.7,35.6,315.6,12.3,250,12.3c-65.5,0-121.5,23.2-167.7,69.8
		c-1.4,1.4-2.6,2.7-4,4.1c-44,45.4-66,100-66,163.7c0,65.5,23.4,121.6,70,168.2c0.1,0.3,0.2,0.4,0.5,0.5c46.1,46,101.8,69,167.2,69
		s121.3-23,167.9-69c0.1-0.1,0.3-0.2,0.4-0.5c22.9-23,40-48.2,51.6-75.8c11.9-28.4,17.7-59.2,17.7-92.3c0-33.2-5.9-64-17.7-92.2
		C459,131.8,443.2,108.1,422.3,86.3L422.3,86.3L422.3,86.3z M414.6,86.1c0,0.1,0.1,0.1,0.1,0.2c25.9,25.7,44.2,54.7,55.2,86.7
		c8.2,24,12.4,49.6,12.4,77c0,27.4-4.1,53-12.4,76.8c-11.1,32.1-29.5,61.1-55.4,87c-1.7,1.6-3.4,3.2-5,4.9
		c-44.6,41.9-97.7,62.9-159.6,63c-61.4-0.1-114.3-21.1-158.9-63c-1.6-1.6-3.2-3.2-4.9-4.9C41,368.7,18.3,314.1,18.5,250
		c-0.1-63.7,22.4-118.2,67.5-163.7c0-0.1,0.1-0.1,0.2-0.2C131.7,41,186.3,18.3,250,18.3C314.1,18.3,369,41,414.6,86.1L414.6,86.1z"
		/>
	<path class="st6" d="M268.7,212.1c-0.2-0.5-0.4-2.5-0.4-3.2c-0.3-2.3-0.4-4.8-0.3-7.3c0-0.8,0-1.6,0.1-2.3
		c0.2-3.7,0.8-7.2,1.7-10.5c0.8-3.2,2-6.3,3.4-9.4c2.8-5.5,6.5-10.9,11.4-15.6c1.7-1.8,3.5-3.3,5.3-4.9c6.5-5.1,13.6-8.6,21.4-10.4
		c2.9-0.7,5.8-1.1,8.9-1.2c13.3-0.9,24.4,3,33.3,11.6c0.2,0.2,0.4,0.4,0.5,0.6c5.8,5.8,9.5,12.4,11.3,19.9c0.7,3,1,6.1,1.1,9.4
		c0,1.4,0,3-0.1,4.5c-0.2,2.8-0.6,5.6-1.2,8.3c-0.8,3.7-1.9,7.2-3.4,10.5c-2.2,4.8-5.1,9.2-8.9,13.5c-0.9,1-2,2.1-3,3.2
		c-2,2-4.1,3.9-6.3,5.5c-0.4,0.3-1,0.8-1.6,1.1c-6,4.3-12.5,7.2-19.5,8.8c-2.7,0.6-5.4,1-8.3,1.1c-3.8,0.2-7.4-0.1-10.9-0.4
		C288.9,243.5,274.7,232.7,268.7,212.1L268.7,212.1z"/>
	<path class="st7" d="M142.4,165.1v0.6 M142.4,177.9v10.4 M142.4,165.7v12.2 M142.4,177.9h-6.5 M134.3,188.3h8.1 M139.9,214.2h2.6
		 M142.4,214.2v4.4 M142.4,202.6h-6.7 M142.4,202.6v11.6 M142.4,188.3v14.2 M200.6,155.3v-0.9 M202.3,155.3h-1.7 M215.4,165.7h-3.8
		 M211.6,165.7V162 M200.6,188.3v-10.4 M211.6,177.9v10.4 M211.6,177.9v-12.2 M200.6,177.9h11 M200.6,165.7v12.2 M211.6,188.3h-11
		 M211.6,165.7h-11 M228.8,188.3h-4.9 M223.9,188.3l-0.2-10.4 M223.6,176.5v1.5 M224.5,177.9h-0.9 M211.6,188.3h12.2 M223.6,177.9
		h-12 M200.6,155.3v10.4 M189,155.3V150 M176.7,155.3v-6.7 M189,155.3h-12.2 M153.4,155.3h-0.9 M163.7,150.1v5.1 M163.7,155.3h-10.3
		 M153.4,155.3v-0.5 M163.7,177.9v10.4 M153.4,188.3v-10.4 M153.4,188.3h10.3 M153.4,177.9v-12.2 M153.4,165.7h10.3 M163.7,165.7
		v12.2 M163.7,177.9h-10.3 M176.7,177.9H189 M189,177.9v10.4 M189,188.3h-12.2 M176.7,188.3v-10.4 M189,165.7h-12.2 M176.7,165.7
		v12.2 M189,177.9v-12.2 M163.7,188.3h13 M176.7,177.9h-13 M163.7,165.7h13 M153.4,165.7v-10.4 M176.7,155.3v10.4 M163.7,155.3h13
		 M163.7,165.7v-10.4 M189,165.7v-10.4 M176.7,214.2v-11.6 M189,202.6v11.6 M176.7,202.6H189 M189,214.2h-12.2 M163.7,202.6h-10.3
		 M153.4,214.2h10.3 M153.4,214.2v-11.6 M163.7,202.6v11.6 M151,229.1h2.4 M163.7,229.1v8.3 M153.4,229.1v2.2 M163.7,229.1h-10.3
		 M189,240v4.9 M189,240h-12.2 M176.7,229.1H189 M189,229.1V240 M176.7,240v3.6 M176.7,240v-10.9 M189,229.1v-14.9 M163.7,214.2
		v14.9 M153.4,229.1v-14.9 M176.7,229.1h-13 M176.7,214.2v14.9 M163.7,214.2h13 M166.7,240h10 M176.7,202.6h-13 M223.9,202.6h6.9
		 M229.4,214.2h-5.5 M223.9,214.2v-11.6 M200.6,214.2v-11.6 M211.6,214.2h-11 M211.6,202.6v11.6 M200.6,202.6h11 M222,229.1h-10.4
		 M200.6,240h8.4 M200.6,243.5V240 M211.6,238.6v-9.4 M200.6,229.1V240 M211.6,229.1h-11 M211.6,229.1v-14.9 M211.6,214.2h12.2
		 M223.9,214.2v12.2 M200.6,214.2v14.9 M223.9,202.6h-12.2 M200.6,229.1H189 M189,214.2h11.6 M200.6,240H189 M200.6,202.6H189
		 M200.6,188.3v14.2 M189,188.3h11.6 M189,202.6v-14.2 M211.6,202.6v-14.2 M223.9,188.3v14.2 M163.7,188.3v14.2 M153.4,202.6v-14.2
		 M176.7,188.3v14.2 M200.6,177.9H189 M200.6,155.3H189 M189,165.7h11.6 M142.4,214.2h11 M153.4,202.6h-11 M142.4,188.3h11
		 M153.4,165.7h-11 M153.4,177.9h-11"/>
	<path class="st7" d="M357.2,164.6v0.6 M357.2,177.5v10.4 M357.2,165.2v12.2 M357.2,177.5h6.5 M365.3,187.9h-8.1 M359.8,213.7h-2.6
		 M357.2,213.7v4.4 M357.2,202.1h6.7 M357.2,202.1v11.6 M357.2,187.9v14.2 M299,154.8V154 M297.3,154.8h1.7 M284.2,165.2h3.8
		 M288,165.2v-3.7 M299,187.9v-10.4 M288,177.5v10.4 M288,177.5v-12.2 M299,177.5h-11 M299,165.2v12.2 M288,187.9h11 M288,165.2h11
		 M270.9,187.9h4.9 M275.8,187.9l0.2-10.4 M276,176v1.5 M275.2,177.5h0.9 M288,187.9h-12.2 M276,177.5h12 M299,154.8v10.4
		 M310.7,154.8v-5.3 M322.9,154.8v-6.7 M310.7,154.8h12.2 M346.2,154.8h0.9 M335.9,149.7v5.1 M335.9,154.8h10.3 M346.2,154.8v-0.5
		 M335.9,177.5v10.4 M346.2,187.9v-10.4 M346.2,187.9h-10.3 M346.2,177.5v-12.2 M346.2,165.2h-10.3 M335.9,165.2v12.2 M335.9,177.5
		h10.3 M322.9,177.5h-12.2 M310.7,177.5v10.4 M310.7,187.9h12.2 M322.9,187.9v-10.4 M310.7,165.2h12.2 M322.9,165.2v12.2
		 M310.7,177.5v-12.2 M335.9,187.9h-13 M322.9,177.5h13 M335.9,165.2h-13 M346.2,165.2v-10.4 M322.9,154.8v10.4 M335.9,154.8h-13
		 M335.9,165.2v-10.4 M310.7,165.2v-10.4 M322.9,213.7v-11.6 M310.7,202.1v11.6 M322.9,202.1h-12.2 M310.7,213.7h12.2 M335.9,202.1
		h10.3 M346.2,213.7h-10.3 M346.2,213.7v-11.6 M335.9,202.1v11.6 M348.6,228.7h-2.4 M335.9,228.7v8.3 M346.2,228.7v2.2 M335.9,228.7
		h10.3 M310.7,239.6v4.9 M310.7,239.6h12.2 M322.9,228.7h-12.2 M310.7,228.7v10.9 M322.9,239.6v3.6 M322.9,239.6v-10.9 M310.7,228.7
		v-14.9 M335.9,213.7v14.9 M346.2,228.7v-14.9 M322.9,228.7h13 M322.9,213.7v14.9 M335.9,213.7h-13 M333,239.6h-10 M322.9,202.1h13
		 M275.8,202.1h-6.9 M270.3,213.7h5.5 M275.8,213.7v-11.6 M299,213.7v-11.6 M288,213.7h11 M288,202.1v11.6 M299,202.1h-11
		 M277.6,228.7H288 M299,239.6h-8.4 M299,243v-3.4 M288,238.1v-9.4 M299,228.7v10.9 M288,228.7h11 M288,228.7v-14.9 M288,213.7
		h-12.2 M275.8,213.7V226 M299,213.7v14.9 M275.8,202.1H288 M299,228.7h11.6 M310.7,213.7H299 M299,239.6h11.6 M299,202.1h11.6
		 M299,187.9v14.2 M310.7,187.9H299 M310.7,202.1v-14.2 M288,202.1v-14.2 M275.8,187.9v14.2 M335.9,187.9v14.2 M346.2,202.1v-14.2
		 M322.9,187.9v14.2 M299,177.5h11.6 M299,154.8h11.6 M310.7,165.2H299 M357.2,213.7h-11 M346.2,202.1h11 M357.2,187.9h-11
		 M346.2,165.2h11 M346.2,177.5h11"/>
</g>
</svg>
