<?xml version="1.0" encoding="utf-8"?>
<!-- Generator: Adobe Illustrator 25.0.1, SVG Export Plug-In . SVG Version: 6.00 Build 0)  -->
<svg version="1.1" id="Layer_1" xmlns="http://www.w3.org/2000/svg" xmlns:xlink="http://www.w3.org/1999/xlink" x="0px" y="0px"
	 viewBox="0 0 500 500" style="enable-background:new 0 0 500 500;" xml:space="preserve">
<style type="text/css">
	.st0{display:none;fill:#FFFFFF;}
	.st1{display:none;fill:none;stroke:#FFFFFF;stroke-width:0.5621;stroke-miterlimit:10;}
	.st2{fill-rule:evenodd;clip-rule:evenodd;fill:#005928;}
	.st3{fill-rule:evenodd;clip-rule:evenodd;fill:#FFFFFF;}
	.st4{fill-rule:evenodd;clip-rule:evenodd;fill:#D4622A;}
</style>
<g>
	<g>
		<path class="st0" d="M354.1,355.2c-2.2,0-3.9,1.8-3.9,3.9c0,2.2,1.8,3.9,3.9,3.9c2.2,0,3.9-1.8,3.9-3.9S356.2,355.2,354.1,355.2
			 M357.4,359.2c0,1.9-1.5,3.4-3.3,3.4c-1.9,0-3.4-1.5-3.4-3.4c0-1.8,1.5-3.3,3.4-3.3C355.9,355.8,357.4,357.3,357.4,359.2"/>
		<path class="st0" d="M354,360.8c-0.9,0-1.7-0.8-1.7-1.7c0-0.9,0.8-1.7,1.7-1.7c0.7,0,1.2,0.4,1.5,1h0.5c-0.3-0.8-1.1-1.4-2-1.4
			c-1.2,0-2.1,1-2.1,2.1c0,1.2,1,2.1,2.1,2.1c1,0,1.8-0.6,2-1.5h-0.5C355.3,360.4,354.7,360.8,354,360.8"/>
		<path class="st0" d="M364.7,361.5c-0.2,0.1-0.4,0.2-0.7,0.3c-0.3,0.1-0.5,0.1-0.8,0.1s-0.6,0-0.8-0.2c-0.3-0.1-0.5-0.3-0.7-0.5
			c-0.2-0.3-0.4-0.6-0.5-0.9s-0.1-0.7-0.1-1.1s0.1-0.7,0.2-1.1c0.1-0.3,0.3-0.6,0.5-0.9c0.2-0.2,0.4-0.4,0.7-0.6
			c0.3-0.1,0.6-0.2,0.9-0.2c0.2,0,0.5,0,0.7,0.1s0.4,0.2,0.6,0.3l-0.3,0.4c-0.2-0.1-0.3-0.2-0.5-0.2c-0.2-0.1-0.3-0.1-0.5-0.1
			c-0.3,0-0.6,0.1-0.8,0.2c-0.2,0.1-0.4,0.4-0.5,0.7c-0.1,0.2-0.1,0.4-0.2,0.6c0,0.2,0,0.5,0,0.8c0,0.2,0,0.5,0,0.6
			c0,0.2,0.1,0.3,0.1,0.5c0.1,0.3,0.3,0.6,0.6,0.7c0.3,0.2,0.5,0.2,0.8,0.2c0.2,0,0.4,0,0.5-0.1c0.2-0.1,0.3-0.1,0.5-0.3
			L364.7,361.5"/>
		<path class="st0" d="M368.6,359.4c0-0.4,0-0.7-0.1-1c0-0.3-0.1-0.5-0.2-0.7s-0.2-0.4-0.4-0.5c-0.2-0.1-0.4-0.2-0.7-0.2
			c-0.2,0-0.5,0-0.7,0.1s-0.3,0.3-0.4,0.5s-0.2,0.4-0.2,0.6s-0.1,0.5-0.1,0.8c0,0.4,0,0.8,0.1,1.1c0.1,0.3,0.1,0.6,0.2,0.8
			c0.1,0.1,0.1,0.2,0.2,0.2c0.1,0.1,0.2,0.1,0.3,0.2c0.1,0.1,0.2,0.1,0.3,0.1c0.1,0,0.2,0,0.3,0c0.2,0,0.4,0,0.6-0.1
			s0.3-0.2,0.4-0.3c0.1-0.1,0.1-0.2,0.2-0.3c0-0.1,0.1-0.2,0.1-0.3c0-0.1,0.1-0.3,0.1-0.4C368.6,359.8,368.6,359.6,368.6,359.4
			 M369.3,359.3c0,0.5-0.1,0.9-0.2,1.3c-0.1,0.3-0.3,0.6-0.6,0.9c-0.2,0.2-0.4,0.3-0.6,0.4s-0.4,0.1-0.7,0.1c-0.3,0-0.6,0-0.9-0.2
			c-0.2-0.1-0.5-0.3-0.6-0.5c-0.4-0.5-0.6-1.2-0.6-2.1c0-0.4,0.1-0.8,0.2-1.1c0.1-0.3,0.2-0.6,0.4-0.8c0.2-0.2,0.4-0.4,0.7-0.5
			c0.3-0.1,0.5-0.2,0.9-0.2c0.2,0,0.4,0,0.6,0.1c0.2,0,0.3,0.1,0.5,0.2c0.1,0.1,0.3,0.2,0.3,0.3c0.1,0.1,0.2,0.2,0.2,0.3
			c0.2,0.2,0.3,0.5,0.4,0.8C369.3,358.5,369.3,358.9,369.3,359.3"/>
		<path class="st0" d="M373,358.2c0-0.4-0.1-0.7-0.3-0.8c-0.1-0.1-0.2-0.2-0.4-0.2c-0.2-0.1-0.4-0.1-0.6-0.1H371v2.1h0.9
			c0.2,0,0.4,0,0.5-0.1c0.1,0,0.2-0.1,0.3-0.2C372.9,358.7,373,358.5,373,358.2 M373.7,358.1c0,0.3,0,0.5-0.1,0.7s-0.2,0.4-0.4,0.5
			c-0.2,0.2-0.4,0.3-0.6,0.3c-0.2,0.1-0.4,0.1-0.7,0.1H371v2.1h-0.6v-5.2h1.5c0.3,0,0.5,0,0.7,0s0.3,0.1,0.5,0.2
			C373.5,357.1,373.7,357.5,373.7,358.1"/>
		<path class="st0" d="M376.1,359.8v2h-0.6v-2.1l-1.7-3.2h0.8l1,2c0,0.1,0.1,0.2,0.1,0.3c0,0.1,0.1,0.2,0.1,0.2c0,0.1,0,0.1,0,0.1
			c0.1-0.2,0.2-0.4,0.3-0.6l1-2h0.7L376.1,359.8"/>
		<path class="st0" d="M380.8,358c0-0.2,0-0.3-0.1-0.5s-0.2-0.3-0.4-0.3c-0.1,0-0.2-0.1-0.3-0.1c-0.1,0-0.2,0-0.4,0H379v2h0.6
			c0.2,0,0.4,0,0.6-0.1c0.1,0,0.3-0.1,0.4-0.2s0.2-0.2,0.2-0.3C380.8,358.3,380.8,358.2,380.8,358 M381,361.8c0-0.1-0.1-0.2-0.2-0.3
			c-0.1-0.1-0.2-0.3-0.3-0.5c-0.1-0.2-0.2-0.4-0.4-0.6c-0.1-0.2-0.3-0.4-0.5-0.6c0-0.1-0.1-0.1-0.1-0.1l-0.1-0.1
			c-0.1,0-0.1,0-0.1-0.1c-0.1,0-0.1,0-0.2,0v2.4h-0.6v-5.2h1.2c0.2,0,0.3,0,0.5,0c0.1,0,0.3,0,0.4,0.1c0.1,0,0.2,0.1,0.3,0.1
			c0.1,0,0.1,0.1,0.2,0.1s0.1,0.1,0.2,0.2s0.1,0.2,0.2,0.2c0,0.1,0.1,0.2,0.1,0.3c0,0.1,0,0.2,0,0.4c0,0.2,0,0.4-0.1,0.6
			s-0.2,0.3-0.3,0.5c-0.1,0.1-0.3,0.2-0.4,0.3c-0.2,0.1-0.4,0.1-0.6,0.1H380c0.1,0.1,0.2,0.2,0.3,0.3c0.1,0.1,0.2,0.2,0.2,0.3
			c0,0.1,0.1,0.2,0.2,0.3c0.1,0.1,0.2,0.3,0.3,0.5c0.1,0.2,0.2,0.3,0.3,0.5c0.1,0.2,0.2,0.3,0.2,0.4c0.1,0.1,0.1,0.1,0.1,0.2H381
			V361.8z"/>
		<line class="st1" x1="382.9" y1="361.8" x2="382.9" y2="356.6"/>
		<path class="st0" d="M388.1,361.5c-0.2,0.1-0.4,0.2-0.7,0.3c-0.3,0.1-0.5,0.1-0.8,0.1c-0.7,0-1.2-0.2-1.6-0.7
			c-0.2-0.2-0.4-0.5-0.5-0.9c-0.1-0.3-0.2-0.7-0.2-1.2s0.1-0.9,0.2-1.3s0.3-0.7,0.6-0.9c0.4-0.3,0.8-0.5,1.4-0.5s1,0.2,1.4,0.5
			l-0.3,0.4c-0.2-0.2-0.4-0.2-0.6-0.3c-0.2-0.1-0.4-0.1-0.6-0.1c-0.3,0-0.6,0.1-0.8,0.2c-0.2,0.1-0.4,0.4-0.5,0.7
			c-0.1,0.4-0.2,0.8-0.2,1.3c0,0.4,0,0.7,0.1,0.9c0.1,0.3,0.2,0.5,0.3,0.7c0.1,0.1,0.1,0.2,0.2,0.2c0.1,0.1,0.2,0.1,0.3,0.2
			c0.1,0.1,0.2,0.1,0.4,0.1c0.1,0,0.3,0,0.4,0c0.3,0,0.6-0.1,0.8-0.2v-1.6h-1l-0.1-0.5h1.8L388.1,361.5"/>
		<polygon class="st0" points="392.2,361.8 392.2,359.3 390,359.3 390,361.8 389.4,361.8 389.4,356.6 390,356.6 390,358.8 
			392.2,358.8 392.2,356.6 392.8,356.6 392.8,361.8 		"/>
		<polygon class="st0" points="397.1,357.1 395.7,357.1 395.7,361.8 395.1,361.8 395.1,357.1 393.7,357.1 393.7,356.6 397.1,356.6 
					"/>
		<path class="st0" d="M402.2,361.8h-2.9v-0.3c0.1-0.1,0.3-0.2,0.5-0.4c0.2-0.2,0.4-0.4,0.6-0.7c0.2-0.2,0.4-0.5,0.5-0.6
			c0.1-0.2,0.3-0.4,0.4-0.6s0.2-0.3,0.2-0.5c0-0.1,0.1-0.3,0.1-0.4c0-0.3-0.1-0.5-0.3-0.7c-0.2-0.2-0.4-0.3-0.7-0.3
			c-0.1,0-0.2,0-0.3,0c-0.1,0-0.2,0.1-0.3,0.1c-0.1,0-0.2,0.1-0.3,0.1c-0.1,0.1-0.2,0.1-0.3,0.2l-0.3-0.3c0.3-0.3,0.6-0.4,0.8-0.5
			c0.3-0.1,0.5-0.2,0.8-0.2c0.2,0,0.4,0,0.6,0.1s0.3,0.2,0.4,0.3c0.1,0.1,0.2,0.3,0.3,0.4c0.1,0.2,0.1,0.4,0.1,0.6s-0.1,0.4-0.1,0.7
			c-0.1,0.2-0.2,0.5-0.4,0.7c-0.2,0.2-0.4,0.5-0.7,0.8c-0.1,0.1-0.2,0.2-0.4,0.4c-0.1,0.1-0.2,0.2-0.3,0.3c-0.1,0.1-0.2,0.2-0.3,0.2
			c-0.1,0.1-0.1,0.1-0.2,0.1h0.1c0.1,0,0.1,0,0.2,0s0.2,0,0.3,0h1.6L402.2,361.8"/>
		<path class="st0" d="M406.2,359.3c0-0.3,0-0.5,0-0.7s-0.1-0.4-0.1-0.6c-0.1-0.3-0.2-0.5-0.4-0.6c-0.2-0.1-0.4-0.2-0.6-0.2
			c-0.1,0-0.3,0.1-0.4,0.2s-0.3,0.3-0.4,0.5c-0.2,0.3-0.3,0.8-0.3,1.4c0,0.3,0,0.5,0,0.8c0,0.2,0.1,0.4,0.1,0.6
			c0.1,0.3,0.2,0.5,0.4,0.6c0.2,0.2,0.3,0.2,0.5,0.2s0.3-0.1,0.5-0.2s0.3-0.3,0.4-0.5s0.1-0.4,0.2-0.6
			C406.2,359.9,406.2,359.6,406.2,359.3 M406.9,359.3c0,0.4-0.1,0.7-0.1,1.1c-0.1,0.3-0.2,0.6-0.4,0.8c-0.2,0.2-0.3,0.4-0.6,0.5
			c-0.2,0.1-0.5,0.2-0.7,0.2c-0.3,0-0.6-0.1-0.8-0.3c-0.2-0.2-0.4-0.4-0.5-0.7c-0.1-0.3-0.2-0.6-0.3-0.9c-0.1-0.3-0.1-0.6-0.1-0.9
			s0-0.7,0.1-1s0.2-0.6,0.4-0.8c0.2-0.2,0.3-0.4,0.6-0.5c0.2-0.1,0.4-0.2,0.7-0.2c0.2,0,0.4,0,0.6,0.1s0.3,0.2,0.5,0.3
			c0.1,0.1,0.2,0.3,0.3,0.4c0.1,0.2,0.2,0.4,0.2,0.5c0.1,0.2,0.1,0.4,0.1,0.6C406.8,359,406.9,359.1,406.9,359.3"/>
		<path class="st0" d="M411.1,359.3c0,0.4,0,0.7-0.1,1.1c-0.1,0.3-0.2,0.6-0.4,0.8c-0.2,0.2-0.3,0.4-0.6,0.5
			c-0.2,0.1-0.5,0.2-0.7,0.2c-0.3,0-0.6-0.1-0.8-0.3c-0.2-0.2-0.4-0.4-0.5-0.7c-0.1-0.3-0.2-0.6-0.3-0.9c-0.1-0.3-0.1-0.6-0.1-0.9
			s0-0.7,0.1-1s0.2-0.6,0.4-0.8c0.2-0.2,0.4-0.4,0.6-0.5s0.4-0.2,0.7-0.2c0.2,0,0.4,0,0.6,0.1s0.3,0.2,0.5,0.3
			c0.1,0.1,0.2,0.3,0.3,0.4c0.1,0.2,0.2,0.4,0.2,0.5c0.1,0.2,0.1,0.4,0.1,0.6C411.1,359,411.1,359.1,411.1,359.3"/>
	</g>
</g>
<g>
	<path class="st2" d="M250.2,20.8c126.1,0,229,103.3,229,229.4c0,126.1-102.8,229-229,229c-126.1,0-229.4-102.8-229.4-229
		C20.8,124.1,124.1,20.8,250.2,20.8L250.2,20.8z"/>
	<path class="st3" d="M250.7,28.3c121.9,0,222,100.1,222,222.4c0,121.9-100.1,222-222,222c-122.4,0-222.4-100.1-222.4-222
		C28.3,128.3,128.3,28.3,250.7,28.3L250.7,28.3z"/>
	<path class="st2" d="M250.2,32.9c119.6,0,217.3,97.7,217.3,217.3c0,119.6-97.7,217.3-217.3,217.3c-119.6,0-217.3-97.7-217.3-217.3
		C32.9,130.6,130.6,32.9,250.2,32.9L250.2,32.9z"/>
	<path class="st3" d="M250.7,112.5c75.8,0,137.7,61.9,137.7,138.2c0,75.9-61.9,137.8-137.7,137.8c-76.3,0-138.2-61.9-138.2-137.8
		C112.5,174.4,174.4,112.5,250.7,112.5L250.7,112.5z"/>
	<path class="st4" d="M250.2,117.1c73.5,0,133.1,60,133.1,133.1c0,73.5-59.6,133.1-133.1,133.1c-73.1,0-133.1-59.6-133.1-133.1
		C117.1,177.2,177.2,117.1,250.2,117.1L250.2,117.1z"/>
	<polygon class="st3" points="155.3,309.3 218.6,254.4 219.5,227.4 245.6,268.4 155.3,348.9 155.3,309.3 	"/>
	<polygon class="st3" points="207.4,159 215.3,158.1 266.5,115.3 285.1,119.5 301.9,125.1 203.7,209.7 207.4,159 	"/>
	<polygon class="st3" points="240.9,188.3 310.3,128.8 324.7,135.3 336.8,145.1 255.4,215.3 240.9,188.3 	"/>
	<polygon class="st3" points="190.2,332.6 260.5,271.6 272.1,300.5 190.2,371.7 190.2,332.6 	"/>
	<path class="st3" d="M242.8,273c-6.5-57.7,46.1-80.5,91.7-54.9l-0.9,16.3h-3.7l-3.7-5.1c-0.5-0.9-2.3-8.8-21.9-8.8
		c-20.5,0-35.8,21.9-35.8,39.1c0.5,18.6,7,50.3,32.1,50.3c2.3,0,4.7,0,8.4-3.3v-24.7c-2.8-2.8-4.2-5.6-8.4-6.5v-4.7h43.3v4.2
		c-4.2,2.8-6,4.2-6,13.5v23.3C284.7,335.9,247.4,316.8,242.8,273L242.8,273z"/>
	<path class="st4" d="M181.8,281.4V160.9h42.4c31.2,0,41.4,20,41.4,32.6c0,21.4-14,26.1-26.1,28.9l27.5,48.4l5.1,5.1l2.8,6.1
		c-12.1-0.9-23.3-0.9-36.8,0l-27.5-55.4v29.8L181.8,281.4L181.8,281.4z"/>
	<path class="st3" d="M213.9,221.4c11.6,0,24.7-2.8,24.7-20.9c0-22.3-16.8-20-24.7-20V221.4L213.9,221.4z"/>
	<path class="st3" d="M438.7,283.7h7.4c1.4-2.8,2.3-4.7,2.8-9.8c0.5-6.5-1.9-13.5-11.2-14.9c-6.5-0.9-9.8,4.7-14,10.7
		c-4.2,6-5.1,8.8-9.3,9.8c-5.6,1.4-8.8-4.7-8.4-10.7c0.5-4.2,1.9-7.4,8.4-10.7l0.5-1.4c-3.3,0-4.7,0-7.9,0.5
		c-1.4,1.9-4.2,5.1-4.7,9.3c-0.5,9.8,2.8,17.7,14,18.2c7.4,0.9,9.3-4.2,14-11.2c4.6-6.5,3.7-6.5,7.4-8.4c5.1-2.8,8.4,2.8,8.4,7.4
		c-0.5,4.7-1.9,8.4-7.4,9.8V283.7L438.7,283.7z"/>
	<path class="st3" d="M402.9,229.3c5.1,14.4,20,21.4,33,16.8c13.5-5.1,17.2-17.7,12.6-31.2c-5.6-14.9-18.6-20.9-31.2-16.3
		C403.8,203.2,398.7,216.7,402.9,229.3L402.9,229.3L402.9,229.3L402.9,229.3z M445.2,215.8c4.2,12.1-2.3,20.5-14,23.7
		c-11.2,3.3-20.9,0.5-24.7-10.7c-4.2-13,5.6-21.4,15.8-24.7C432.2,201.4,441.5,204.2,445.2,215.8L445.2,215.8z"/>
	<path class="st3" d="M392.6,113.4c5.1,4.7,11.6,10.2,4.2,16.8c-5.1,5.1-11.6,0.9-15.8-3.7l-0.9,0.5c-1.9,7.9-4.2,19.5-5.1,29.3
		c0.9,0.9,1.9,1.9,3.3,3.3c0.9,0.9,1.4,1.9,2.3,3.3c1.4,0.9,2.3,0,1.9-1.4c-0.9-1.4-0.9-3.3-0.9-3.7l3.3-20.5c0-1.9,0.5-2.8,1.4-2.8
		c6,2.8,11.6,5.1,16.8,0c3.7-3.3,5.6-8.4-1.4-16.3c-2.8-2.8-5.6-5.1-7.9-7.9c-2.8-2.8-3.3-3.7-5.6-6.1l-1.4,1.4
		c0.9,0.5,1.4,0.9,0.9,2.3c0,0.9-1.9,2.8-3.3,3.7l-21.4,19.6c-0.9,1.4-3.7,2.8-3.7,2.8c-0.5,0.5-1.9,0-2.8-0.5l-1.4,1.4
		c2.8,2.3,2.3,1.9,4.2,4.2c2.3,1.9,2.8,2.8,5.1,5.6l1.4-1.4c-0.9-0.9-1.9-2.3-0.9-3.3c0,0,0.9-1.9,2.8-3.7L392.6,113.4L392.6,113.4z
		"/>
	<path class="st3" d="M425.2,158.1c3.3,6,7.9,13.5-0.9,17.7c-6.5,3.3-11.2-2.8-14-8.4h-0.9c-4.2,7-10.2,17.2-14,26.5
		c0.5,0.9,1.4,2.3,1.9,3.7c0.9,1.4,0.9,2.3,1.4,3.7c0.9,1.4,2.3,0.9,1.9-0.9c0-1.4,0.5-2.8,0.9-3.7l9.3-18.1
		c0.5-1.9,0.9-2.8,1.9-2.3c5.1,4.7,9.8,8.4,15.8,5.6c4.7-2.3,7.9-7,3.7-16.3c-1.4-3.3-3.3-6.5-5.1-10.2c-1.4-3.3-1.9-4.2-3.3-7.4
		l-1.4,0.9c0.5,0.9,0.5,1.9-0.5,2.8c0,0.5-2.3,1.9-4.2,2.3L391.7,166c-1.4,0.9-4.7,1.4-4.7,1.9c-0.5,0-1.9-0.9-2.3-1.4l-1.9,0.9
		c1.9,2.8,1.4,2.3,2.8,5.1c1.4,2.3,1.9,3.7,2.8,7l1.9-0.9c-0.5-1.4-0.5-3.3,0-3.3c0,0,1.9-1.9,4.2-2.8L425.2,158.1L425.2,158.1z"/>
	<path class="st3" d="M358.2,81.8l-1.4-0.9c-4.2,2.8-8.8,6.5-12.6,8.8L320,105.5c-0.5,0.9-3.3,1.4-3.7,0.9c-0.9-0.5-2.8-0.5-2.8-0.5
		l-0.9,1.4c2.3,1.4,3.7,2.3,6,3.7c1.4,0.9,1.4,0.9,4.2,2.3c0.5-0.5,0.9-1.4,0-2.3c-0.5-0.5-1.4-1.4-0.9-2.3l13-8.8l12.1,7.9
		l-1.4,11.2c0,0.5-0.5,3.3-0.9,4.2c-0.5,0.5-2.8,0-2.8,0c-1.4-0.5-1.4,0.5-1.9,1.4c2.8,1.9,4.2,2.3,6,3.3c2.3,1.4,3.7,2.8,6.5,4.7
		c0.5-0.5,1.4-1.4,0-2.8c-0.5-0.5-1.4-2.3-1.4-3.3c0.5-1.4,0.5-3.7,0.9-5.1L358.2,81.8L358.2,81.8L358.2,81.8L358.2,81.8z
		 M337.7,98.1l13-9.3l-2.3,15.8L337.7,98.1L337.7,98.1z"/>
	<path class="st3" d="M307,97.6c-0.5,0.9-0.5,2.8-0.9,2.8c-2.8,0.5-4.2,0.5-8.8-0.5c-13.5-2.8-17.7-13-14-25.6
		c2.8-11.2,11.2-17.2,22.8-14c8.8,2.3,10.2,6.1,11.2,11.2h1.9v-8.4c-1.9-1.9-3.7-3.3-11.2-5.6c-15.4-4.2-29.3,1.9-33,15.4
		c-4.7,15.8,1.9,24.7,20,29.8c4.2,0.9,11.2,0.9,17.2,0.9l2.8-10.2c0.5-1.9,1.4-1.9,2.3-1.9h1.4l0.5-1.9c-2.8-0.5-5.6-1.4-8.4-2.3
		c-2.3-0.5-2.3-0.5-5.1-1.4l-0.5,1.9c2.3,0.9,4.2,1.4,3.3,4.2L307,97.6L307,97.6z"/>
	<path class="st3" d="M98.5,224.2c5.6-13.5-0.9-28.4-14-33.5c-13.5-5.1-24.7,1.9-29.8,15.4c-5.6,14.9,0.5,27.9,13,32.6
		C81.3,244.2,93.9,237.2,98.5,224.2L98.5,224.2L98.5,224.2L98.5,224.2z M57.6,207.4c5.1-11.6,14.9-14,26.5-8.8
		c10.7,4.7,15.8,13.5,11.6,24.2c-5.1,12.6-18.1,12.6-27.9,7.9C58.5,227,53.4,218.6,57.6,207.4L57.6,207.4z"/>
	<path class="st3" d="M56.6,275.8c-0.9-7-2.8-15.4,7-16.3c7.4-0.5,9.8,7,10.2,13l0.9,0.5c6.5-5.1,15.4-12.6,22.3-19.5
		c0-1.4-0.5-2.8-0.5-4.2c0-1.4,0-2.8,0-4.2c-0.5-1.9-1.9-1.4-1.9,0c-0.5,1.4-1.4,2.8-2.3,3.3l-15.4,14c-0.9,1.4-1.9,1.9-2.3,0.9
		c-3.3-6.1-6.1-11.2-13-10.7c-4.7,0.5-9.8,3.7-8.8,14c0,3.7,0.5,7.4,0.9,11.2c0,4.2,0,4.7,0,7.9h2.3c-0.5-0.9-0.5-1.9,0.9-2.3
		c0.5-0.5,2.8-0.9,4.7-0.9l28.9-1.9c1.9,0,4.7,0.5,5.1,0.5c0.5,0,1.4,0.9,1.4,1.9H99c-0.5-3.7-0.5-2.8-0.5-6.1
		c-0.5-2.8-0.5-4.2,0-7.4h-2.3c0,1.4-0.5,3.3-0.9,3.3c-0.5,0-2.3,0.9-5.1,0.9L56.6,275.8L56.6,275.8z"/>
	<path class="st3" d="M106,113l-1.4,1.9c2.3,4.2,4.7,9.8,6.1,14l10.7,26.5c0.5,0.9,0.5,3.7,0,4.2c-0.5,0.5-0.9,2.3-0.9,2.8l1.4,0.9
		c1.9-1.9,2.8-3.3,4.7-5.1c1.4-1.4,0.9-0.9,3.3-3.3c-0.5-0.9-1.4-1.9-2.3-0.9c-0.5,0.5-1.4,1.4-2.3,0.5l-6-14.4l10.2-10.2l10.2,3.7
		c0.9,0,3.7,0.9,4.2,1.9c0.5,0.5-0.5,2.3-0.5,2.3c-0.9,1.4,0,1.9,0.9,2.3c2.3-2.3,2.8-3.7,4.2-5.1c2.3-1.9,3.7-3.3,6.1-5.6
		c-0.5-0.9-1.4-1.9-2.8-0.5c-0.5,0.5-2.3,0.5-3.3,0.5c-1.4-0.5-3.3-0.9-4.7-1.9L106,113L106,113L106,113L106,113z M117.6,137.1
		l-6.1-14.9l14.9,5.6L117.6,137.1L117.6,137.1z"/>
	<path class="st3" d="M202.8,96.2c0.5,1.9,0.9,3.7,0.5,4.2l-1.9,1.4l0.5,1.9c2.8-0.9,5.6-1.9,8.4-2.8c3.3-0.5,6.1-0.9,8.4-1.9
		c6.1-1.4,9.8-3.3,13-5.6c7.4-5.6,11.2-15.8,8.4-26.1c-3.3-12.1-13.5-18.2-27.5-14c-2.3,0.9-7.4,2.8-11.6,4.2
		c-4.2,0.9-6,1.4-10.2,2.3l0.5,1.9c1.4-0.5,2.3-0.5,3.3,0.5c0,0.5,0.5,2.3,0.9,4.7L202.8,96.2L202.8,96.2L202.8,96.2L202.8,96.2z
		 M201.4,63.6c0-2.8,4.2-4.7,6-5.1c10.7-2.8,21.4-2.8,25.1,12.6c2.3,8.4,0.9,16.3-5.1,20.9c-3.3,2.3-7,3.3-10.2,4.2
		c-1.9,0.5-6,1.4-7.9-1.4L201.4,63.6L201.4,63.6z"/>
	<path class="st3" d="M157.6,117.6c0.5,1.4,1.4,4.2,1.9,4.2c0,0.5-1.9,2.8-2.3,2.8l0.9,1.9c1.9-0.9,1.9-1.4,3.7-2.3
		c2.3-1.4,3.7-1.9,6-3.3l-0.9-1.9c-0.9,0.5-3.7,1.4-3.7,0.9c0,0-1.9-1.9-3.3-3.7l-13.5-23.7l41,13.5c0.9,0.5,2.3,0.9,2.3,0.9
		c3.3,1.4,2.8-0.9,1.4-2.8l-16.8-29.8c-1.4-2.3-1.9-4.2-1.9-4.2c-0.5-0.9,1.4-2.3,2.8-3.3l-0.9-1.4c-2.3,1.4-3.3,1.9-5.1,2.8
		c-1.9,1.4-2.8,1.4-5.1,2.8l0.9,1.9c1.4-0.9,3.7-1.9,4.2-0.9c0,0,1.9,2.8,2.8,3.7l11.6,20.5l-40.5-13c-0.9,0.5-2.3,1.4-3.3,1.9
		c-1.9,1.4-4.2,2.3-6.5,3.7l0.9,1.4c1.4-0.5,4.2-1.9,5.6-0.5c0.9,0,2.3,1.4,3.3,2.8L157.6,117.6L157.6,117.6z"/>
	<path class="st3" d="M78.5,166c-2.8-1.4-4.2-2.8-4.2-2.8c-0.5-0.9,0-2.3,0.5-3.3l-1.9-0.9c-1.4,2.8-1.9,4.2-3.3,6.5
		c-1.4,3.3-1.4,2.8-2.8,6.1l1.9,0.5c0.5-1.4,0.5-1.4,2.3-1.4c0.5-0.5,2.3,0.5,4.2,1.4l27.5,13.5c1.4,0.5,3.3,2.3,2.8,2.8v2.3
		l1.9,0.9c0.5-1.4,1.4-3.3,2.3-5.1c1.9-3.7,3.3-7.4,6-12.6c2.3-3.7,2.8-5.1,1.9-7c-1.4-2.8-2.3-5.1-4.2-8.4c-1.4,0-1.9,1.9-0.9,3.7
		c1.9,3.7,0.9,9.8-1.4,14.4c-0.5,1.4-2.8,4.2-6.5,2.3L78.5,166L78.5,166z"/>
	<path class="st3" d="M249.3,415.9v8.4c0,0,0,0.5,0.5,0.5c0,0,0.5,0,1.4,0c3.3,0,4.7-0.9,4.7-4.7c0-1.4-0.5-3.3-0.9-3.7
		c-0.9-0.9-2.3-1.4-4.2-1.4c-0.5,0-0.9,0-0.9,0.5C249.3,415.4,249.3,415.9,249.3,415.9L249.3,415.9L249.3,415.9L249.3,415.9z
		 M245.6,432.2v-14c0-1.4,0-2.3,0-2.3c0-0.5-0.9-0.9-0.9-0.9l-0.5-0.5c-0.5,0-0.5,0-0.9,0h-0.5v-0.9h0.5c0,0,0.5,0,1.4,0
		c0.9,0,1.9,0,2.3,0c0,0,0.9,0,1.9,0c1.4,0,2.3,0,3.7,0c2.3,0,4.2,0.5,5.6,1.4c1.4,0.9,1.9,2.3,1.9,4.2c0,1.4-0.5,2.3-0.9,3.3
		c-0.9,0.9-2.8,2.8-4.2,3.3c0.5,0.9,1.9,3.7,2.3,4.7c0.5,0.5,1.4,2.3,2.8,3.7c1.4,1.4,4.7,3.3,3.7,3.3c-4.2,0.5-5.6-1.9-7.9-3.7
		c-2.3-2.8-5.6-7-5.6-7c-0.5,0.5-0.5,2.3-0.5,2.3v3.3c0,0.5,0,1.9,0,2.3l0.9,0.9c0.5,0,1.4,0.5,1.9,0.5h0.5c0,0.5,0.5,0.5,0.5,0.5
		l-0.5,0.5h-0.5c0,0-0.5,0-1.4,0c-0.9,0-1.9-0.5-2.8-0.5c-1.4,0-3.7,0.5-4.7,0.5h-0.9v-0.5c0,0,0-0.5,0.5-0.5h0.5c0,0,0,0,0.5,0
		c0-0.5,0.5-0.5,0.5-0.5l0.9-0.9C245.6,434.1,245.6,433.1,245.6,432.2L245.6,432.2z"/>
	<path class="st3" d="M144.6,379.6l-5.1,6.1l-0.5,0.5c0.5,0.5,0.5,0.5,0.9,0.9l0.5,0.5c1.9,1.9,4.2,2.3,6.5-0.5
		c0.9-0.9,1.9-2.3,1.4-3.7c0-0.9-0.5-2.3-1.9-3.3c0-0.5-0.5-0.5-0.9-0.5C145.5,379.1,145.1,379.6,144.6,379.6L144.6,379.6
		L144.6,379.6L144.6,379.6z M131.1,388.9l9.8-10.2c0.5-0.9,0.9-1.4,0.9-1.9c0.5,0,0.5-0.9,0.5-0.9s0-0.5-0.5-0.9c0,0,0-0.5-0.5-0.5
		V374c0,0,0,0,0-0.5h0.5c0,0,0,0,0.5,0c0,0,0,0.5,0.9,0.9c0.5,0.9,0.9,1.4,1.4,1.9c0,0,0.9,0.5,1.4,1.4c0.9,0.9,1.9,1.4,2.8,1.9
		c1.4,1.9,2.8,3.7,3.3,5.1c0,1.4-0.5,3.3-1.4,4.7c-0.9,0.9-2.3,2.3-3.3,2.3c-4.7,1.4-6.5-1.4-9.3-3.7c-0.5,0-1.9,1.4-1.9,1.4
		l-2.3,2.3c0,0-0.9,1.4-1.4,1.9v1.4c0.5,0,0.5,0.9,0.9,1.4c0.5,0,0.5,0.5,0.5,0.5v0.5c0,0.5-0.5,0-0.5,0H133c0-0.5-0.5-0.5-0.9-1.4
		c-0.9-0.5-1.4-1.4-1.9-1.9c-0.9-0.9-2.8-2.3-3.7-2.8l-0.5-0.5v-0.5c0-0.5,0.5-0.5,0.9-0.5v0.5c0,0,0.5,0,0.5,0.5
		c0.5,0,0.9-0.5,0.9-0.5h0.9C129.7,390.3,130.2,389.8,131.1,388.9L131.1,388.9z"/>
	<path class="st3" d="M363.8,394v-0.5h0.5l0.5,0.5c0.5,0.5,1.9,0.9,1.9,1.4c1.4,0,2.8-0.5,4.2-1.9c0.9-0.9,1.9-1.9,1.9-2.8
		c0-0.9-0.9-1.9-1.4-2.8c-0.5-0.5-1.9-0.9-1.9-1.4c-0.5,0-1.9-0.5-2.3-0.5c-0.5,0-1.9,0.5-2.3,0.5h-2.3c-2.8,0-4.7,0.9-7-1.9
		c-1.4-1.9-1.9-3.7-1.9-5.6c0.5-0.9,1.4-3.3,3.3-4.7c0.5-0.5,1.4-0.9,1.9-1.4c0.5-0.5,1.9-0.5,2.3-0.5v0.5l2.3,2.8h0.5l-0.9,0.9
		l-0.9-0.5c-1.9-1.9-3.7-1.4-4.7,0c-1.9,1.4-1.9,3.3-0.5,5.1c0.9,0.9,2.8,1.4,4.2,0.9c0,0,1.4,0,2.3,0c2.3-0.5,5.1-0.5,6,0
		c0.9,0.5,2.3,0.9,3.3,1.9c1.4,1.4,1.9,3.3,1.9,4.7c0,0,0,1.4-0.5,1.9c0,0.5-0.5,1.9-0.9,2.3c-0.5,0.5-0.9,1.4-1.4,2.3
		c-0.9,0.5-1.9,0.9-2.3,0.9l-1.4,0.9l-1.4,0.5c0,0-0.5,0.5-0.5,0l-2.3-2.8l-0.5-0.5L363.8,394L363.8,394z"/>
	<path class="st3" d="M301.4,405.7v-0.5l2.3-0.9l2.8-0.9l3.3-0.9l1.9-0.9c0.5,0,0.5,0,0.5,0h0.5v0.9c0,0,0,0-0.5,0l-0.9,0.5
		c-0.9,0.5-1.4,0.9-1.9,1.4c0,0,0,0.5,0,1.4l0.5,0.9l5.6,14.4c0.5,0.9,0.5,1.9,0.9,1.9c0.5,0.5,1.4,0.5,2.8,0l0.5-0.5
		c0.5,0,0.9,0,0.9,0.5h0.5l-0.5,0.5c0,0,0,0.5-0.5,0.5c0,0-0.9,0.5-1.9,0.5c-0.9,0.5-1.9,0.9-3.3,1.4c-0.9,0.5-1.9,0.9-2.8,0.9
		c-0.9,0.5-1.9,0.9-1.9,0.9h-0.5l-0.5-0.5c0-0.5,0-0.5,0.5-0.9c0,0,0.5,0,0.9,0c1.4-0.9,2.3-1.4,1.9-2.8l-0.5-1.4l-5.6-14
		c0-0.5,0-0.5-0.5-0.9c0-0.9-0.5-0.9-0.9-1.4c-0.5,0-0.9,0-1.9,0.5c-0.5,0-0.9,0-0.9,0l-0.5,0.5c-0.5,0-0.5-0.5-0.5-0.5V405.7
		L301.4,405.7z"/>
	<path class="st3" d="M186.9,415l5.1,1.9v-7L186.9,415L186.9,415L186.9,415L186.9,415z M195.8,403.8v0.9l0.5,20.9v1.9
		c0,0.5,0.5,1.9,1.4,2.3h0.9v0.5l-0.5,0.5v0.5h-0.5c0,0-0.5-0.5-1.4-0.9c-0.5,0-0.9,0-1.4-0.5c-0.9-0.5-3.7-1.4-4.7-1.9
		c-0.9,0-1.4-0.5-1.9-0.5v-1.4h0.5c1.4,0.5,2.3,0.5,2.3,0l0.5-0.5v-6.5l-5.6-2.3l-3.3,3.3l-0.5,0.9c-0.5,0-0.5,0.9-0.9,0.9
		c0,0.9,0,1.4,1.4,1.9l0.5,0.5c0.5,0,0.5,0.5,0.5,0.5v0.5h-0.9l-1.9-0.9l-1.9-0.5l-1.9-0.9l-1.4-0.5h-0.5V422l0.5-0.5V421l0.5,0.5
		c1.4,0.5,2.3,0,3.3-0.5l0.9-0.9l0.5-0.9L195.8,403.8L195.8,403.8z"/>
</g>
</svg>
