<?xml version="1.0" encoding="utf-8"?>
<!-- Generator: Adobe Illustrator 25.0.1, SVG Export Plug-In . SVG Version: 6.00 Build 0)  -->
<svg version="1.1" id="Layer_1" xmlns="http://www.w3.org/2000/svg" xmlns:xlink="http://www.w3.org/1999/xlink" x="0px" y="0px"
	 viewBox="0 0 500 500" style="enable-background:new 0 0 500 500;" xml:space="preserve">
<style type="text/css">
	.st0{display:none;fill:#FFFFFF;}
	.st1{display:none;fill:none;stroke:#FFFFFF;stroke-width:0.5621;stroke-miterlimit:10;}
	.st2{fill:#0F2E52;}
</style>
<g>
	<g>
		<path class="st0" d="M354.1,355.2c-2.2,0-3.9,1.8-3.9,3.9c0,2.2,1.8,3.9,3.9,3.9c2.2,0,3.9-1.8,3.9-3.9S356.2,355.2,354.1,355.2
			 M357.4,359.2c0,1.9-1.5,3.4-3.3,3.4c-1.9,0-3.4-1.5-3.4-3.4c0-1.8,1.5-3.3,3.4-3.3C355.9,355.8,357.4,357.3,357.4,359.2"/>
		<path class="st0" d="M354,360.8c-0.9,0-1.7-0.8-1.7-1.7c0-0.9,0.8-1.7,1.7-1.7c0.7,0,1.2,0.4,1.5,1h0.5c-0.3-0.8-1.1-1.4-2-1.4
			c-1.2,0-2.1,1-2.1,2.1c0,1.2,1,2.1,2.1,2.1c1,0,1.8-0.6,2-1.5h-0.5C355.3,360.4,354.7,360.8,354,360.8"/>
		<path class="st0" d="M364.7,361.5c-0.2,0.1-0.4,0.2-0.7,0.3c-0.3,0.1-0.5,0.1-0.8,0.1s-0.6,0-0.8-0.2c-0.3-0.1-0.5-0.3-0.7-0.5
			c-0.2-0.3-0.4-0.6-0.5-0.9s-0.1-0.7-0.1-1.1s0.1-0.7,0.2-1.1c0.1-0.3,0.3-0.6,0.5-0.9c0.2-0.2,0.4-0.4,0.7-0.6
			c0.3-0.1,0.6-0.2,0.9-0.2c0.2,0,0.5,0,0.7,0.1s0.4,0.2,0.6,0.3l-0.3,0.4c-0.2-0.1-0.3-0.2-0.5-0.2c-0.2-0.1-0.3-0.1-0.5-0.1
			c-0.3,0-0.6,0.1-0.8,0.2c-0.2,0.1-0.4,0.4-0.5,0.7c-0.1,0.2-0.1,0.4-0.2,0.6c0,0.2,0,0.5,0,0.8c0,0.2,0,0.5,0,0.6
			c0,0.2,0.1,0.3,0.1,0.5c0.1,0.3,0.3,0.6,0.6,0.7c0.3,0.2,0.5,0.2,0.8,0.2c0.2,0,0.4,0,0.5-0.1c0.2-0.1,0.3-0.1,0.5-0.3
			L364.7,361.5"/>
		<path class="st0" d="M368.6,359.4c0-0.4,0-0.7-0.1-1c0-0.3-0.1-0.5-0.2-0.7s-0.2-0.4-0.4-0.5c-0.2-0.1-0.4-0.2-0.7-0.2
			c-0.2,0-0.5,0-0.7,0.1s-0.3,0.3-0.4,0.5s-0.2,0.4-0.2,0.6s-0.1,0.5-0.1,0.8c0,0.4,0,0.8,0.1,1.1c0.1,0.3,0.1,0.6,0.2,0.8
			c0.1,0.1,0.1,0.2,0.2,0.2c0.1,0.1,0.2,0.1,0.3,0.2c0.1,0.1,0.2,0.1,0.3,0.1c0.1,0,0.2,0,0.3,0c0.2,0,0.4,0,0.6-0.1
			s0.3-0.2,0.4-0.3c0.1-0.1,0.1-0.2,0.2-0.3c0-0.1,0.1-0.2,0.1-0.3c0-0.1,0.1-0.3,0.1-0.4C368.6,359.8,368.6,359.6,368.6,359.4
			 M369.3,359.3c0,0.5-0.1,0.9-0.2,1.3c-0.1,0.3-0.3,0.6-0.6,0.9c-0.2,0.2-0.4,0.3-0.6,0.4s-0.4,0.1-0.7,0.1c-0.3,0-0.6,0-0.9-0.2
			c-0.2-0.1-0.5-0.3-0.6-0.5c-0.4-0.5-0.6-1.2-0.6-2.1c0-0.4,0.1-0.8,0.2-1.1c0.1-0.3,0.2-0.6,0.4-0.8c0.2-0.2,0.4-0.4,0.7-0.5
			c0.3-0.1,0.5-0.2,0.9-0.2c0.2,0,0.4,0,0.6,0.1c0.2,0,0.3,0.1,0.5,0.2c0.1,0.1,0.3,0.2,0.3,0.3c0.1,0.1,0.2,0.2,0.2,0.3
			c0.2,0.2,0.3,0.5,0.4,0.8C369.3,358.5,369.3,358.9,369.3,359.3"/>
		<path class="st0" d="M373,358.2c0-0.4-0.1-0.7-0.3-0.8c-0.1-0.1-0.2-0.2-0.4-0.2c-0.2-0.1-0.4-0.1-0.6-0.1H371v2.1h0.9
			c0.2,0,0.4,0,0.5-0.1c0.1,0,0.2-0.1,0.3-0.2C372.9,358.7,373,358.5,373,358.2 M373.7,358.1c0,0.3,0,0.5-0.1,0.7s-0.2,0.4-0.4,0.5
			c-0.2,0.2-0.4,0.3-0.6,0.3c-0.2,0.1-0.4,0.1-0.7,0.1H371v2.1h-0.6v-5.2h1.5c0.3,0,0.5,0,0.7,0s0.3,0.1,0.5,0.2
			C373.5,357.1,373.7,357.5,373.7,358.1"/>
		<path class="st0" d="M376.1,359.8v2h-0.6v-2.1l-1.7-3.2h0.8l1,2c0,0.1,0.1,0.2,0.1,0.3c0,0.1,0.1,0.2,0.1,0.2c0,0.1,0,0.1,0,0.1
			c0.1-0.2,0.2-0.4,0.3-0.6l1-2h0.7L376.1,359.8"/>
		<path class="st0" d="M380.8,358c0-0.2,0-0.3-0.1-0.5s-0.2-0.3-0.4-0.3c-0.1,0-0.2-0.1-0.3-0.1c-0.1,0-0.2,0-0.4,0H379v2h0.6
			c0.2,0,0.4,0,0.6-0.1c0.1,0,0.3-0.1,0.4-0.2s0.2-0.2,0.2-0.3C380.8,358.3,380.8,358.2,380.8,358 M381,361.8c0-0.1-0.1-0.2-0.2-0.3
			c-0.1-0.1-0.2-0.3-0.3-0.5c-0.1-0.2-0.2-0.4-0.4-0.6c-0.1-0.2-0.3-0.4-0.5-0.6c0-0.1-0.1-0.1-0.1-0.1l-0.1-0.1
			c-0.1,0-0.1,0-0.1-0.1c-0.1,0-0.1,0-0.2,0v2.4h-0.6v-5.2h1.2c0.2,0,0.3,0,0.5,0c0.1,0,0.3,0,0.4,0.1c0.1,0,0.2,0.1,0.3,0.1
			c0.1,0,0.1,0.1,0.2,0.1s0.1,0.1,0.2,0.2s0.1,0.2,0.2,0.2c0,0.1,0.1,0.2,0.1,0.3c0,0.1,0,0.2,0,0.4c0,0.2,0,0.4-0.1,0.6
			s-0.2,0.3-0.3,0.5c-0.1,0.1-0.3,0.2-0.4,0.3c-0.2,0.1-0.4,0.1-0.6,0.1H380c0.1,0.1,0.2,0.2,0.3,0.3c0.1,0.1,0.2,0.2,0.2,0.3
			c0,0.1,0.1,0.2,0.2,0.3c0.1,0.1,0.2,0.3,0.3,0.5c0.1,0.2,0.2,0.3,0.3,0.5c0.1,0.2,0.2,0.3,0.2,0.4c0.1,0.1,0.1,0.1,0.1,0.2H381
			V361.8z"/>
		<line class="st1" x1="382.9" y1="361.8" x2="382.9" y2="356.6"/>
		<path class="st0" d="M388.1,361.5c-0.2,0.1-0.4,0.2-0.7,0.3c-0.3,0.1-0.5,0.1-0.8,0.1c-0.7,0-1.2-0.2-1.6-0.7
			c-0.2-0.2-0.4-0.5-0.5-0.9c-0.1-0.3-0.2-0.7-0.2-1.2s0.1-0.9,0.2-1.3s0.3-0.7,0.6-0.9c0.4-0.3,0.8-0.5,1.4-0.5s1,0.2,1.4,0.5
			l-0.3,0.4c-0.2-0.2-0.4-0.2-0.6-0.3c-0.2-0.1-0.4-0.1-0.6-0.1c-0.3,0-0.6,0.1-0.8,0.2c-0.2,0.1-0.4,0.4-0.5,0.7
			c-0.1,0.4-0.2,0.8-0.2,1.3c0,0.4,0,0.7,0.1,0.9c0.1,0.3,0.2,0.5,0.3,0.7c0.1,0.1,0.1,0.2,0.2,0.2c0.1,0.1,0.2,0.1,0.3,0.2
			c0.1,0.1,0.2,0.1,0.4,0.1c0.1,0,0.3,0,0.4,0c0.3,0,0.6-0.1,0.8-0.2v-1.6h-1l-0.1-0.5h1.8L388.1,361.5"/>
		<polygon class="st0" points="392.2,361.8 392.2,359.3 390,359.3 390,361.8 389.4,361.8 389.4,356.6 390,356.6 390,358.8 
			392.2,358.8 392.2,356.6 392.8,356.6 392.8,361.8 		"/>
		<polygon class="st0" points="397.1,357.1 395.7,357.1 395.7,361.8 395.1,361.8 395.1,357.1 393.7,357.1 393.7,356.6 397.1,356.6 
					"/>
		<path class="st0" d="M402.2,361.8h-2.9v-0.3c0.1-0.1,0.3-0.2,0.5-0.4c0.2-0.2,0.4-0.4,0.6-0.7c0.2-0.2,0.4-0.5,0.5-0.6
			c0.1-0.2,0.3-0.4,0.4-0.6s0.2-0.3,0.2-0.5c0-0.1,0.1-0.3,0.1-0.4c0-0.3-0.1-0.5-0.3-0.7c-0.2-0.2-0.4-0.3-0.7-0.3
			c-0.1,0-0.2,0-0.3,0c-0.1,0-0.2,0.1-0.3,0.1c-0.1,0-0.2,0.1-0.3,0.1c-0.1,0.1-0.2,0.1-0.3,0.2l-0.3-0.3c0.3-0.3,0.6-0.4,0.8-0.5
			c0.3-0.1,0.5-0.2,0.8-0.2c0.2,0,0.4,0,0.6,0.1s0.3,0.2,0.4,0.3c0.1,0.1,0.2,0.3,0.3,0.4c0.1,0.2,0.1,0.4,0.1,0.6s-0.1,0.4-0.1,0.7
			c-0.1,0.2-0.2,0.5-0.4,0.7c-0.2,0.2-0.4,0.5-0.7,0.8c-0.1,0.1-0.2,0.2-0.4,0.4c-0.1,0.1-0.2,0.2-0.3,0.3c-0.1,0.1-0.2,0.2-0.3,0.2
			c-0.1,0.1-0.1,0.1-0.2,0.1h0.1c0.1,0,0.1,0,0.2,0s0.2,0,0.3,0h1.6L402.2,361.8"/>
		<path class="st0" d="M406.2,359.3c0-0.3,0-0.5,0-0.7s-0.1-0.4-0.1-0.6c-0.1-0.3-0.2-0.5-0.4-0.6c-0.2-0.1-0.4-0.2-0.6-0.2
			c-0.1,0-0.3,0.1-0.4,0.2s-0.3,0.3-0.4,0.5c-0.2,0.3-0.3,0.8-0.3,1.4c0,0.3,0,0.5,0,0.8c0,0.2,0.1,0.4,0.1,0.6
			c0.1,0.3,0.2,0.5,0.4,0.6c0.2,0.2,0.3,0.2,0.5,0.2s0.3-0.1,0.5-0.2s0.3-0.3,0.4-0.5s0.1-0.4,0.2-0.6
			C406.2,359.9,406.2,359.6,406.2,359.3 M406.9,359.3c0,0.4-0.1,0.7-0.1,1.1c-0.1,0.3-0.2,0.6-0.4,0.8c-0.2,0.2-0.3,0.4-0.6,0.5
			c-0.2,0.1-0.5,0.2-0.7,0.2c-0.3,0-0.6-0.1-0.8-0.3c-0.2-0.2-0.4-0.4-0.5-0.7c-0.1-0.3-0.2-0.6-0.3-0.9c-0.1-0.3-0.1-0.6-0.1-0.9
			s0-0.7,0.1-1s0.2-0.6,0.4-0.8c0.2-0.2,0.3-0.4,0.6-0.5c0.2-0.1,0.4-0.2,0.7-0.2c0.2,0,0.4,0,0.6,0.1s0.3,0.2,0.5,0.3
			c0.1,0.1,0.2,0.3,0.3,0.4c0.1,0.2,0.2,0.4,0.2,0.5c0.1,0.2,0.1,0.4,0.1,0.6C406.8,359,406.9,359.1,406.9,359.3"/>
		<path class="st0" d="M411.1,359.3c0,0.4,0,0.7-0.1,1.1c-0.1,0.3-0.2,0.6-0.4,0.8c-0.2,0.2-0.3,0.4-0.6,0.5
			c-0.2,0.1-0.5,0.2-0.7,0.2c-0.3,0-0.6-0.1-0.8-0.3c-0.2-0.2-0.4-0.4-0.5-0.7c-0.1-0.3-0.2-0.6-0.3-0.9c-0.1-0.3-0.1-0.6-0.1-0.9
			s0-0.7,0.1-1s0.2-0.6,0.4-0.8c0.2-0.2,0.4-0.4,0.6-0.5s0.4-0.2,0.7-0.2c0.2,0,0.4,0,0.6,0.1s0.3,0.2,0.5,0.3
			c0.1,0.1,0.2,0.3,0.3,0.4c0.1,0.2,0.2,0.4,0.2,0.5c0.1,0.2,0.1,0.4,0.1,0.6C411.1,359,411.1,359.1,411.1,359.3"/>
	</g>
</g>
<g>
	<g>
		<path class="st2" d="M324.2,256.8c-20.3-17.5-46.6-27.2-74.1-27.2c-27.5,0-53.7,9.7-74.1,27.2c-1.9,1.8-3.9,3.4-5.6,5.2l3.6,4.5
			c1.8-1.8,3.7-3.6,5.8-5.5c19.3-16.6,44.2-25.8,70.4-25.8c26,0,51.1,9.2,70.4,25.8c2.1,1.8,3.9,3.6,5.8,5.5l3.6-4.5
			C328.1,260.2,326.1,258.4,324.2,256.8z M250.1,277.3c-20,0-38.2,8.9-49.3,22.3l3.6,4.3c10.1-12.6,27.2-21.1,45.7-21.1
			c18.6,0,35.6,8.6,45.7,21.1l3.6-4.3C288.3,286.2,270,277.3,250.1,277.3L250.1,277.3z M311.2,262.2l-1-0.7c-1.6-1.2-3-0.7-3.9-0.1
			L281.8,277l6.4,3.6l15.6-10.1l-2.7,9.1l-2.2-1.6l-4.2,3l5,3.9l-1.2,4l5.6,5.2l8.2-27.9C312.5,265,312.8,263.5,311.2,262.2
			L311.2,262.2z M272.8,251.2l10.2,2.7l1.6-6.2l-10.5-2.7c-5.8-1.5-9.8,0.7-11.1,6.1l-4.3,16.6c-0.1,0.7-0.1,1.5,0.1,2.1
			c0.4,0.6,0.9,1,1.8,1.2l3.9,1l2.8-10.7l11.9,3.1l1.6-6.2L269,255l0.4-1.8C270,250.9,270.6,250.7,272.8,251.2L272.8,251.2z
			 M239.4,242.1l-17.2,3.6c-0.7,0.1-1.3,0.4-1.8,1c-0.4,0.6-0.4,1.3-0.3,2.1l3.4,16.9c0.6,2.7,1.8,4.8,3.6,5.8c1.2,0.7,2.7,1,4.5,1
			c0.9,0,1.8-0.1,2.8-0.3l10.7-2.2l-1.3-6.4l-10.4,2.1c-2.1,0.4-2.8,0.1-3.3-2.2l-0.4-1.8l12-2.4l-1.3-6.4l-12,2.4l-0.9-4.5
			l13.2-2.7L239.4,242.1z M212.4,276.9c0.3-3-0.6-5.9-2.8-8.6L198.9,255l-5.3,4.3l9.8,12c1.8,2.1,2.2,3.3,2.1,5
			c-0.1,1.3-0.9,2.7-2.4,3.9c-1.3,1-2.8,1.6-4.2,1.3c-1.8-0.1-2.7-0.9-4.5-3l-9.8-12l-5.3,4.3l10.7,13.2c2.4,2.8,4.9,4.3,8,4.5
			c0.4,0,0.7,0.1,1,0.1c3,0,5.8-1,8.3-3.3C210.5,282.9,212.1,280.1,212.4,276.9L212.4,276.9z"/>
		<path class="st2" d="M248.5,314.9c-3.7,0-7.3,1.8-9.5,4.8c-2.4-3-5.9-4.8-9.7-4.8c-6.8,0-12.3,5.5-12.3,12.3v19.9h5.5v-19.9
			c0-3.9,3.1-7.1,7-7.1c3.7,0,7,3.3,7,7.1l-0.1,12.9c0,1.5,1.2,2.7,2.7,2.7c1.5,0,2.7-1.2,2.7-2.7v-12.9c0-3.9,3.1-7.1,7-7.1
			c3.7,0,7,3.3,7,7.1v17.7c0,1.5,1.2,2.7,2.7,2.7c1.5,0,2.7-1.2,2.7-2.7v-17.7C260.8,320.5,255.3,314.9,248.5,314.9L248.5,314.9z
			 M210.3,323.6l-4.9,2.4l0.1,0.4c0.7,1.3,1,3.1,1,4.9c0,6.4-4.9,11.3-11.1,11.3c-6.2,0-11.1-4.9-11.1-11.3s4.9-11.3,11.1-11.3
			c3.3,0,5.5,1.3,7,2.4c0.6,0.4,1.3,0.7,1.9,0.7c1.5,0,2.7-1.3,2.7-2.7c0-0.7-0.4-1.5-1-2.1c-2.1-1.8-5.9-3.6-10.4-3.6
			c-9.2,0-16.8,7.4-16.8,16.5c0,9.1,7.6,16.5,16.8,16.5c9.2,0,16.6-7.4,16.6-16.5c0-2.5-0.6-5-1.8-7.3L210.3,323.6z M172.9,315.5
			l-9.4,23.3l-7.3-15.9c-0.4-0.9-1.3-1.5-2.4-1.5c-1,0-1.9,0.4-2.4,1.3l-7.1,16l-9.5-23.3h-6.1l13.4,30.9c0.3,0.7,1.3,1.3,2.4,1.3
			c0.9,0,1.9-0.4,2.4-1.3l7.1-16.3l7.3,16.3c0.3,0.7,1.3,1.3,2.2,1.3c1,0,1.9-0.4,2.4-1.3l13.4-30.9H172.9z M318.7,314.9
			c-8.9,0-15.7,6.8-15.7,15.9v16.3h5.5v-16.3c0-6.4,4.3-10.7,10.7-10.7c5.8,0,10.4,4.6,10.4,10.5v9.2c0,1.5,1.2,2.7,2.7,2.7
			c1.5,0,2.7-1.2,2.7-2.7v-9.2C334.9,321.4,328.2,314.9,318.7,314.9L318.7,314.9z M360.4,328.8h-3.6c-3.1,0-5-1.6-5-4.5
			c0-2.7,2.7-4.5,6.8-4.5c3.6,0,5.8,1,6.7,1.8c0.4,0.3,1,0.4,1.5,0.4c1.3,0,2.5-1,2.5-2.4c0-0.7-0.4-1.6-1-2.1
			c-2.1-1.5-4.5-2.8-9.7-2.8c-7.1,0-12.3,4-12.3,9.5c0,5.8,4.2,9.5,10.5,9.5h3.6c2.2,0,4.9,0.7,4.9,4.2c0,2.8-2.7,4.8-6.7,4.8
			c-3.6,0-6.7-1-9.2-3.1l-0.4-0.3l-3.6,3.9l0.4,0.3c3.4,2.8,8,4.3,12.8,4.3c7.3,0,12.3-3.9,12.3-9.8
			C371.1,332.5,366.8,328.8,360.4,328.8L360.4,328.8z M347.7,306.1c0-1.3-1.2-2.5-2.7-2.5c-1,0-1.9,0.6-2.4,1.8l-5.3,13.2h5.5
			l4.5-11.3C347.7,306.8,347.7,306.4,347.7,306.1L347.7,306.1z M282.2,314.9c-9.2,0-16.8,7.3-16.8,16.3c0,9.1,7.6,16.5,16.8,16.5
			c5.5,0,10.5-3,13.5-7.7l0.3-0.4l-4.6-3l-0.1,0.4c-1.8,3.3-5.2,5.5-8.9,5.5c-6.1,0-11.1-5-11.1-11.3c0-6.1,5-11.1,11.1-11.1
			c4.9,0,9.1,3.6,10.2,8.6h-10.5c-1.3,0-2.5,1-2.5,2.7c0,1.3,1,2.5,2.5,2.5h16.5v-2.4C298.4,322.3,291.1,314.9,282.2,314.9
			L282.2,314.9z"/>
	</g>
	<path class="st2" d="M250.1,35.6c14.9,0.1,22,1.1,22,1.1l8.9-18.9l5.3,20.9c27.2,3.5,40.9,11,40.9,11l11.4-17.9l0.4,23.1
		c20.3,9.5,28.1,20.2,28.1,20.2l12.2-14.6l-4.9,24.8c5.6,10.5,5.9,22,5.9,22l5.5-10.8c-4.3,43.5-29.8,84-29.8,84
		c2.9-7.4,7.9-30.7,7.9-30.7l-8-3.2c-3.8,6.8-18.9,23.1-18.9,23.1l1.7,26.4c-6-3.6-15.1-9.3-15.1-9.3c-8.4,10.1-24.4,24.9-24.4,24.9
		l11.5-30.8c-9.2-3.7-19-9.7-19-9.7s-14.4,11.2-24.4,17.9l9.2,29.1l-27.2-17.4l-0.1,0.1l-27.1,17.4l9.2-29.1
		c-9.9-6.6-24.4-17.9-24.4-17.9s-9.8,5.9-19,9.7l11.5,30.8c0,0-16-14.8-24.4-24.9c0,0-9.1,5.6-15.1,9.3l1.7-26.4
		c0,0-15.1-16.2-18.9-23.1l-8,3.2c0,0,5,23.3,7.9,30.7c0,0-25.5-40.5-29.8-84l5.5,10.8c0,0,0.3-11.5,5.9-22l-4.9-24.8L131.8,75
		c0,0,7.8-10.7,28.1-20.2l0.4-23.1l11.4,17.9c0,0,13.7-7.5,40.9-11l5.3-20.9l8.9,18.9c0,0,7.1-0.9,22-1.1H250.1z M248.6,37.5
		L233,47.9l10.6,21.6l-20.8-11.3l-18.6,18.9l5.7-25.5l-17.3-7.5l-13.7,18l9.5,20.5l-17.8-6.3l-10.5,22V71.7l-14.9-6.3l-5.7,21
		l10.6,19.9l-14-3.5l-1.4,25.3l-8.3-24.5c0,0-4.6,2.2-6.7,7.4c0,0,10.7,32.1,43.5,43.8l4-21.9l11.9,28.6c0,0,18.6,7.9,59,11
		l11.4-28.2l11.4,28.2c40.3-3.1,59-11,59-11l11.9-28.6l4,21.9c32.9-11.7,43.5-43.8,43.5-43.8c-2.1-5.2-6.7-7.4-6.7-7.4l-8.3,24.5
		l-1.4-25.3l-14,3.5l10.6-19.9l-5.7-21l-14.9,6.3v26.5l-10.5-22l-17.8,6.3l9.5-20.5l-13.7-18l-17.3,7.5l5.7,25.5l-18.6-18.9
		l-20.8,11.3L266,47.9l-16.5-11L248.6,37.5z"/>
	<path class="st2" d="M69.3,408.2c-4.6,3.5-10.6,5.6-17.1,5.6c-14.8,0-26.7-10.7-26.7-23.9c0-13.2,12-23.9,26.7-23.9
		c6.7,0,12.8,2.2,17.5,5.9l0,9.7c-3.2-4.5-8.9-7.5-15.4-7.5c-10,0-18.2,7.1-18.2,15.9s8.1,15.9,18.2,15.9c6.3,0,11.8-2.8,15.1-7
		L69.3,408.2z"/>
	<path class="st2" d="M123.7,408.2v-41.6h-14.5v0.4c4.4,0,3.9,6.5,3.9,6.5v12.6H92.3v-19.5H77.8v0.4c4.4,0,3.9,6.5,3.9,6.5v40.3
		h13.6v-0.6c-3.1,0-3-4.9-3-4.9v-14h20.8v19.6h13.6v-0.6C123.6,413.2,123.7,408.2,123.7,408.2z"/>
	<path class="st2" d="M248.9,408.2v-41.6h-11.8l-15.7,29.9l-17.1-29.9h-14.5v0.4c4.4,0,3.9,6.5,3.9,6.5v40.3h13.6v-0.6
		c-3.1,0-3-4.9-3-4.9V384l12.8,23.7h8.5l12.8-23.8v29.8h13.6v-0.6C248.8,413.2,248.9,408.2,248.9,408.2z"/>
	<path class="st2" d="M320.1,413.8h-13.6v-40.3c0,0,0.5-6.5-3.9-6.5v-0.4h14.5v41.6c0,0-0.1,4.9,3,4.9V413.8z"/>
	<path class="st2" d="M377.4,390.8c0,13.3-11.2,24.2-25,24.2c-13.8,0-25-10.8-25-24.2c0-13.3,11.2-24.2,25-24.2
		C366.2,366.6,377.4,377.5,377.4,390.8z M352.6,374.8c-8.2,0-14.9,6.9-14.9,15.3c0,8.5,6.7,15.3,14.9,15.3c8.2,0,14.9-6.9,14.9-15.3
		C367.5,381.6,360.8,374.8,352.6,374.8z"/>
	<path class="st2" d="M163.7,366.6l18,42.9c1,1.8,3.3,4.3,3.3,4.3h-10.9c-0.5,0-1.3-1.4-1.9-2.7l-4.3-8.8h-17.9l-4.3,8.8
		c-0.6,1.3-1.3,2.7-1.9,2.7h-10.9c0,0,2.3-2.5,3.3-4.3l18-42.9H163.7z M164.9,394.9l-5.8-15.2l-6,15.2H164.9z"/>
	<path class="st2" d="M224.8,432.6l18,42.9c1,1.8,3.3,4.3,3.3,4.3h-10.9c-0.5,0-1.3-1.4-1.9-2.7l-4.3-8.8h-17.9l-4.3,8.8
		c-0.6,1.3-1.3,2.7-1.9,2.7h-10.9c0,0,2.3-2.5,3.3-4.3l18-42.9H224.8z M226,460.9l-5.8-15.2l-6,15.2H226z"/>
	<path class="st2" d="M276.1,440.7c6.5,0,12.2,3,15.4,7.5l0-9.7c-4.7-3.6-10.8-5.9-17.5-5.9c-14.8,0-26.7,10.7-26.7,23.9
		c0,13.2,12,23.9,26.7,23.9c6.5,0,12.5-2.1,17.1-5.6l0-9.5c0,0,0,0,0,0v-8.8h-14.5v0.4c4.4,0,3.9,6.5,3.9,6.5v8.3
		c-1.4,0.3-2.9,0.5-4.5,0.5c-10,0-18.2-7.1-18.2-15.9C258,447.8,266.1,440.7,276.1,440.7z"/>
	<path class="st2" d="M396.8,384.4v23.7c0,0-0.1,4.9,3,4.9v0.6h-13.6v-40.3c0,0,0.5-6.5-3.9-6.5v-0.4h10.5l24.7,28.7v-21.7
		c0,0,0.5-6.5-3.9-6.5v-0.4H428v13.2v33.9h-7.6L396.8,384.4z"/>
	<path class="st2" d="M146.1,469.1c0,2.5-3.9,2.4-3.9,2.4h-13.9v-38.8h-14.5v0.4c4.4,0,3.9,6.5,3.9,6.5v40.3h5.1h8.5h15.3v-10.7
		H146.1z"/>
	<path class="st2" d="M186.7,441.8v-9.1h-19.3h-7.8h-6.7v0.4c4.4,0,3.9,6.5,3.9,6.5v40.3h29.9v-10.7h-0.5c0,2.5-3.9,2.4-3.9,2.4
		h-14.9v-11.3h14.8v-7.7h-14.8v-10.7H186.7z"/>
	<path class="st2" d="M384.4,442.1V433h-19.3h-7.8h-6.7v0.4c4.4,0,3.9,6.5,3.9,6.5v40.3h29.9v-10.7h-0.5c0,2.5-3.9,2.4-3.9,2.4
		h-14.9v-11.3h14.8v-7.7h-14.8v-10.7H384.4z"/>
	<path class="st2" d="M303.3,460.9c0,10.8,8.7,19.5,19.5,19.5c10.8,0,19.5-8.7,19.5-19.5v-3.7v-23.7h-13.1v0.4c4,0,3.6,5.8,3.6,5.8
		V457v4.8c0,5.5-4.5,10-10,10s-10-4.5-10-10v-4.6v-23.7h-13.1v0.4c4,0,3.6,5.8,3.6,5.8V457V460.9z"/>
	<path class="st2" d="M281.8,366.6H272h-3.1h-11.4v0.4c4.4,0,3.9,6.5,3.9,6.5v40.3H275v-0.6c-3.1,0-3-4.9-3-4.9v-10.4h9.9
		c8.6,0,15.6-7,15.6-15.6C297.4,373.6,290.5,366.6,281.8,366.6z M281.4,389.2H272v-13.5h9.4c3.7,0,6.8,3,6.8,6.8
		C288.1,386.2,285.1,389.2,281.4,389.2z"/>
	<path class="st2" d="M455.7,405.4c-6.5,0-12.2-3-15.4-7.5l0,9.7c4.1,3.2,9.3,5.3,15,5.8h2c16.4,0,15.5-14.9,15.5-14.9
		c0-12.4-12.5-12.4-12.5-12.4c-10.9-0.2-10.9-6.6-10.9-6.6c0-5.8,6.3-5.5,6.3-5.5c6.5,0,12.2,3,15.4,7.5l0-9.7
		c-4.1-3.2-9.3-5.3-15-5.8c0,0-15.9-0.8-15.9,12.6c0,0-0.9,11.4,12.9,14.7c0,0,10.3,2,10.1,6.7c0,0,0.2,5.2-6.7,5.5L455.7,405.4z"/>
	<g>
		<path class="st2" d="M399.7,431.9c-4.2,0-7.7,3.4-7.7,7.7c0,4.2,3.4,7.7,7.7,7.7c4.2,0,7.7-3.4,7.7-7.7
			C407.4,435.3,404,431.9,399.7,431.9z M399.7,445.6c-3.3,0-6-2.7-6-6c0-3.3,2.7-6,6-6c3.3,0,6,2.7,6,6
			C405.8,442.9,403.1,445.6,399.7,445.6z"/>
		<path class="st2" d="M402.9,437.8c0-1.4-1.2-2.6-2.6-2.6l-3.7,0v8.8h1.6v-3.6h1.2l1.7,3.6h1.8l-1.7-3.7
			C402.2,439.9,402.9,438.9,402.9,437.8z M400.3,438.7h-2v-1.9h2c0.5,0,1,0.4,1,1C401.2,438.3,400.8,438.7,400.3,438.7z"/>
	</g>
</g>
</svg>
