<?xml version="1.0" encoding="utf-8"?>
<!-- Generator: Adobe Illustrator 25.0.1, SVG Export Plug-In . SVG Version: 6.00 Build 0)  -->
<svg version="1.1" id="Layer_1" xmlns="http://www.w3.org/2000/svg" xmlns:xlink="http://www.w3.org/1999/xlink" x="0px" y="0px"
	 viewBox="0 0 500 500" style="enable-background:new 0 0 500 500;" xml:space="preserve">
<style type="text/css">
	.st0{display:none;fill:#FFFFFF;}
	.st1{display:none;fill:none;stroke:#FFFFFF;stroke-width:0.5621;stroke-miterlimit:10;}
	.st2{fill:#405463;}
	.st3{fill:#D32C20;}
	.st4{fill:#183E79;}
	.st5{fill:#138DC5;}
	.st6{fill:#F4C51D;}
	.st7{fill:#119144;}
	.st8{fill:#FFFFFF;}
	.st9{fill:#CED1D2;}
</style>
<g>
	<g>
		<path class="st0" d="M354.1,355.2c-2.2,0-3.9,1.8-3.9,3.9c0,2.2,1.8,3.9,3.9,3.9c2.2,0,3.9-1.8,3.9-3.9S356.2,355.2,354.1,355.2
			 M357.4,359.2c0,1.9-1.5,3.4-3.3,3.4c-1.9,0-3.4-1.5-3.4-3.4c0-1.8,1.5-3.3,3.4-3.3C355.9,355.8,357.4,357.3,357.4,359.2"/>
		<path class="st0" d="M354,360.8c-0.9,0-1.7-0.8-1.7-1.7c0-0.9,0.8-1.7,1.7-1.7c0.7,0,1.2,0.4,1.5,1h0.5c-0.3-0.8-1.1-1.4-2-1.4
			c-1.2,0-2.1,1-2.1,2.1c0,1.2,1,2.1,2.1,2.1c1,0,1.8-0.6,2-1.5h-0.5C355.3,360.4,354.7,360.8,354,360.8"/>
		<path class="st0" d="M364.7,361.5c-0.2,0.1-0.4,0.2-0.7,0.3c-0.3,0.1-0.5,0.1-0.8,0.1s-0.6,0-0.8-0.2c-0.3-0.1-0.5-0.3-0.7-0.5
			c-0.2-0.3-0.4-0.6-0.5-0.9s-0.1-0.7-0.1-1.1s0.1-0.7,0.2-1.1c0.1-0.3,0.3-0.6,0.5-0.9c0.2-0.2,0.4-0.4,0.7-0.6
			c0.3-0.1,0.6-0.2,0.9-0.2c0.2,0,0.5,0,0.7,0.1s0.4,0.2,0.6,0.3l-0.3,0.4c-0.2-0.1-0.3-0.2-0.5-0.2c-0.2-0.1-0.3-0.1-0.5-0.1
			c-0.3,0-0.6,0.1-0.8,0.2c-0.2,0.1-0.4,0.4-0.5,0.7c-0.1,0.2-0.1,0.4-0.2,0.6c0,0.2,0,0.5,0,0.8c0,0.2,0,0.5,0,0.6
			c0,0.2,0.1,0.3,0.1,0.5c0.1,0.3,0.3,0.6,0.6,0.7c0.3,0.2,0.5,0.2,0.8,0.2c0.2,0,0.4,0,0.5-0.1c0.2-0.1,0.3-0.1,0.5-0.3
			L364.7,361.5"/>
		<path class="st0" d="M368.6,359.4c0-0.4,0-0.7-0.1-1c0-0.3-0.1-0.5-0.2-0.7s-0.2-0.4-0.4-0.5c-0.2-0.1-0.4-0.2-0.7-0.2
			c-0.2,0-0.5,0-0.7,0.1s-0.3,0.3-0.4,0.5s-0.2,0.4-0.2,0.6s-0.1,0.5-0.1,0.8c0,0.4,0,0.8,0.1,1.1c0.1,0.3,0.1,0.6,0.2,0.8
			c0.1,0.1,0.1,0.2,0.2,0.2c0.1,0.1,0.2,0.1,0.3,0.2c0.1,0.1,0.2,0.1,0.3,0.1c0.1,0,0.2,0,0.3,0c0.2,0,0.4,0,0.6-0.1
			s0.3-0.2,0.4-0.3c0.1-0.1,0.1-0.2,0.2-0.3c0-0.1,0.1-0.2,0.1-0.3c0-0.1,0.1-0.3,0.1-0.4C368.6,359.8,368.6,359.6,368.6,359.4
			 M369.3,359.3c0,0.5-0.1,0.9-0.2,1.3c-0.1,0.3-0.3,0.6-0.6,0.9c-0.2,0.2-0.4,0.3-0.6,0.4s-0.4,0.1-0.7,0.1c-0.3,0-0.6,0-0.9-0.2
			c-0.2-0.1-0.5-0.3-0.6-0.5c-0.4-0.5-0.6-1.2-0.6-2.1c0-0.4,0.1-0.8,0.2-1.1c0.1-0.3,0.2-0.6,0.4-0.8c0.2-0.2,0.4-0.4,0.7-0.5
			c0.3-0.1,0.5-0.2,0.9-0.2c0.2,0,0.4,0,0.6,0.1c0.2,0,0.3,0.1,0.5,0.2c0.1,0.1,0.3,0.2,0.3,0.3c0.1,0.1,0.2,0.2,0.2,0.3
			c0.2,0.2,0.3,0.5,0.4,0.8C369.3,358.5,369.3,358.9,369.3,359.3"/>
		<path class="st0" d="M373,358.2c0-0.4-0.1-0.7-0.3-0.8c-0.1-0.1-0.2-0.2-0.4-0.2c-0.2-0.1-0.4-0.1-0.6-0.1H371v2.1h0.9
			c0.2,0,0.4,0,0.5-0.1c0.1,0,0.2-0.1,0.3-0.2C372.9,358.7,373,358.5,373,358.2 M373.7,358.1c0,0.3,0,0.5-0.1,0.7s-0.2,0.4-0.4,0.5
			c-0.2,0.2-0.4,0.3-0.6,0.3c-0.2,0.1-0.4,0.1-0.7,0.1H371v2.1h-0.6v-5.2h1.5c0.3,0,0.5,0,0.7,0s0.3,0.1,0.5,0.2
			C373.5,357.1,373.7,357.5,373.7,358.1"/>
		<path class="st0" d="M376.1,359.8v2h-0.6v-2.1l-1.7-3.2h0.8l1,2c0,0.1,0.1,0.2,0.1,0.3c0,0.1,0.1,0.2,0.1,0.2c0,0.1,0,0.1,0,0.1
			c0.1-0.2,0.2-0.4,0.3-0.6l1-2h0.7L376.1,359.8"/>
		<path class="st0" d="M380.8,358c0-0.2,0-0.3-0.1-0.5s-0.2-0.3-0.4-0.3c-0.1,0-0.2-0.1-0.3-0.1c-0.1,0-0.2,0-0.4,0H379v2h0.6
			c0.2,0,0.4,0,0.6-0.1c0.1,0,0.3-0.1,0.4-0.2s0.2-0.2,0.2-0.3C380.8,358.3,380.8,358.2,380.8,358 M381,361.8c0-0.1-0.1-0.2-0.2-0.3
			c-0.1-0.1-0.2-0.3-0.3-0.5c-0.1-0.2-0.2-0.4-0.4-0.6c-0.1-0.2-0.3-0.4-0.5-0.6c0-0.1-0.1-0.1-0.1-0.1l-0.1-0.1
			c-0.1,0-0.1,0-0.1-0.1c-0.1,0-0.1,0-0.2,0v2.4h-0.6v-5.2h1.2c0.2,0,0.3,0,0.5,0c0.1,0,0.3,0,0.4,0.1c0.1,0,0.2,0.1,0.3,0.1
			c0.1,0,0.1,0.1,0.2,0.1s0.1,0.1,0.2,0.2s0.1,0.2,0.2,0.2c0,0.1,0.1,0.2,0.1,0.3c0,0.1,0,0.2,0,0.4c0,0.2,0,0.4-0.1,0.6
			s-0.2,0.3-0.3,0.5c-0.1,0.1-0.3,0.2-0.4,0.3c-0.2,0.1-0.4,0.1-0.6,0.1H380c0.1,0.1,0.2,0.2,0.3,0.3c0.1,0.1,0.2,0.2,0.2,0.3
			c0,0.1,0.1,0.2,0.2,0.3c0.1,0.1,0.2,0.3,0.3,0.5c0.1,0.2,0.2,0.3,0.3,0.5c0.1,0.2,0.2,0.3,0.2,0.4c0.1,0.1,0.1,0.1,0.1,0.2H381
			V361.8z"/>
		<line class="st1" x1="382.9" y1="361.8" x2="382.9" y2="356.6"/>
		<path class="st0" d="M388.1,361.5c-0.2,0.1-0.4,0.2-0.7,0.3c-0.3,0.1-0.5,0.1-0.8,0.1c-0.7,0-1.2-0.2-1.6-0.7
			c-0.2-0.2-0.4-0.5-0.5-0.9c-0.1-0.3-0.2-0.7-0.2-1.2s0.1-0.9,0.2-1.3s0.3-0.7,0.6-0.9c0.4-0.3,0.8-0.5,1.4-0.5s1,0.2,1.4,0.5
			l-0.3,0.4c-0.2-0.2-0.4-0.2-0.6-0.3c-0.2-0.1-0.4-0.1-0.6-0.1c-0.3,0-0.6,0.1-0.8,0.2c-0.2,0.1-0.4,0.4-0.5,0.7
			c-0.1,0.4-0.2,0.8-0.2,1.3c0,0.4,0,0.7,0.1,0.9c0.1,0.3,0.2,0.5,0.3,0.7c0.1,0.1,0.1,0.2,0.2,0.2c0.1,0.1,0.2,0.1,0.3,0.2
			c0.1,0.1,0.2,0.1,0.4,0.1c0.1,0,0.3,0,0.4,0c0.3,0,0.6-0.1,0.8-0.2v-1.6h-1l-0.1-0.5h1.8L388.1,361.5"/>
		<polygon class="st0" points="392.2,361.8 392.2,359.3 390,359.3 390,361.8 389.4,361.8 389.4,356.6 390,356.6 390,358.8 
			392.2,358.8 392.2,356.6 392.8,356.6 392.8,361.8 		"/>
		<polygon class="st0" points="397.1,357.1 395.7,357.1 395.7,361.8 395.1,361.8 395.1,357.1 393.7,357.1 393.7,356.6 397.1,356.6 
					"/>
		<path class="st0" d="M402.2,361.8h-2.9v-0.3c0.1-0.1,0.3-0.2,0.5-0.4c0.2-0.2,0.4-0.4,0.6-0.7c0.2-0.2,0.4-0.5,0.5-0.6
			c0.1-0.2,0.3-0.4,0.4-0.6s0.2-0.3,0.2-0.5c0-0.1,0.1-0.3,0.1-0.4c0-0.3-0.1-0.5-0.3-0.7c-0.2-0.2-0.4-0.3-0.7-0.3
			c-0.1,0-0.2,0-0.3,0c-0.1,0-0.2,0.1-0.3,0.1c-0.1,0-0.2,0.1-0.3,0.1c-0.1,0.1-0.2,0.1-0.3,0.2l-0.3-0.3c0.3-0.3,0.6-0.4,0.8-0.5
			c0.3-0.1,0.5-0.2,0.8-0.2c0.2,0,0.4,0,0.6,0.1s0.3,0.2,0.4,0.3c0.1,0.1,0.2,0.3,0.3,0.4c0.1,0.2,0.1,0.4,0.1,0.6s-0.1,0.4-0.1,0.7
			c-0.1,0.2-0.2,0.5-0.4,0.7c-0.2,0.2-0.4,0.5-0.7,0.8c-0.1,0.1-0.2,0.2-0.4,0.4c-0.1,0.1-0.2,0.2-0.3,0.3c-0.1,0.1-0.2,0.2-0.3,0.2
			c-0.1,0.1-0.1,0.1-0.2,0.1h0.1c0.1,0,0.1,0,0.2,0s0.2,0,0.3,0h1.6L402.2,361.8"/>
		<path class="st0" d="M406.2,359.3c0-0.3,0-0.5,0-0.7s-0.1-0.4-0.1-0.6c-0.1-0.3-0.2-0.5-0.4-0.6c-0.2-0.1-0.4-0.2-0.6-0.2
			c-0.1,0-0.3,0.1-0.4,0.2s-0.3,0.3-0.4,0.5c-0.2,0.3-0.3,0.8-0.3,1.4c0,0.3,0,0.5,0,0.8c0,0.2,0.1,0.4,0.1,0.6
			c0.1,0.3,0.2,0.5,0.4,0.6c0.2,0.2,0.3,0.2,0.5,0.2s0.3-0.1,0.5-0.2s0.3-0.3,0.4-0.5s0.1-0.4,0.2-0.6
			C406.2,359.9,406.2,359.6,406.2,359.3 M406.9,359.3c0,0.4-0.1,0.7-0.1,1.1c-0.1,0.3-0.2,0.6-0.4,0.8c-0.2,0.2-0.3,0.4-0.6,0.5
			c-0.2,0.1-0.5,0.2-0.7,0.2c-0.3,0-0.6-0.1-0.8-0.3c-0.2-0.2-0.4-0.4-0.5-0.7c-0.1-0.3-0.2-0.6-0.3-0.9c-0.1-0.3-0.1-0.6-0.1-0.9
			s0-0.7,0.1-1s0.2-0.6,0.4-0.8c0.2-0.2,0.3-0.4,0.6-0.5c0.2-0.1,0.4-0.2,0.7-0.2c0.2,0,0.4,0,0.6,0.1s0.3,0.2,0.5,0.3
			c0.1,0.1,0.2,0.3,0.3,0.4c0.1,0.2,0.2,0.4,0.2,0.5c0.1,0.2,0.1,0.4,0.1,0.6C406.8,359,406.9,359.1,406.9,359.3"/>
		<path class="st0" d="M411.1,359.3c0,0.4,0,0.7-0.1,1.1c-0.1,0.3-0.2,0.6-0.4,0.8c-0.2,0.2-0.3,0.4-0.6,0.5
			c-0.2,0.1-0.5,0.2-0.7,0.2c-0.3,0-0.6-0.1-0.8-0.3c-0.2-0.2-0.4-0.4-0.5-0.7c-0.1-0.3-0.2-0.6-0.3-0.9c-0.1-0.3-0.1-0.6-0.1-0.9
			s0-0.7,0.1-1s0.2-0.6,0.4-0.8c0.2-0.2,0.4-0.4,0.6-0.5s0.4-0.2,0.7-0.2c0.2,0,0.4,0,0.6,0.1s0.3,0.2,0.5,0.3
			c0.1,0.1,0.2,0.3,0.3,0.4c0.1,0.2,0.2,0.4,0.2,0.5c0.1,0.2,0.1,0.4,0.1,0.6C411.1,359,411.1,359.1,411.1,359.3"/>
	</g>
</g>
<g>
	<path class="st2" d="M124.3,363.8c0,9.8,7.2,14.6,17.1,14.6c9.8,0,17.1-4.8,17.1-14.6v-21.9c0-0.3-0.2-0.5-0.5-0.5h-9.5
		c-0.3,0-0.5,0.2-0.5,0.5v21.8c0,4.2-2.1,6.5-6.6,6.5c-3.6,0-6.4-2.8-6.4-6.2v-22.1c0-0.3-0.2-0.5-0.5-0.5h-9.5
		c-0.3,0-0.5,0.2-0.5,0.5V363.8 M165.3,341.4c-0.3,0-0.5,0.2-0.5,0.5v35.5c0,0.3,0.2,0.5,0.5,0.5h27.4c0.3,0,0.5-0.2,0.5-0.5v-7.3
		c0-0.3-0.2-0.5-0.5-0.5h-17.4v-6.3h13.7c0.3,0,0.5-0.2,0.5-0.5v-6.8c0-0.2-0.2-0.5-0.5-0.5h-13.7v-6h16.6c0.3,0,0.5-0.2,0.5-0.5
		v-7.3c0-0.3-0.2-0.5-0.5-0.5H165.3 M198.8,341.4c-0.3,0-0.5,0.2-0.5,0.5v35.5c0,0.3,0.2,0.5,0.5,0.5h9.5c0.3,0,0.5-0.2,0.5-0.5
		v-12.2h13.8c0.3,0,0.5-0.2,0.5-0.5v-7.3c0-0.2-0.2-0.5-0.5-0.5h-13.8v-7.4h16.4c0.2,0,0.4-0.1,0.4-0.3l3.7-7.3
		c0.2-0.3-0.1-0.7-0.5-0.7H198.8 M248.7,373.5H235l-1.8,4.1c-0.1,0.2-0.3,0.3-0.5,0.3h-9.2c-0.4,0-0.6-0.4-0.4-0.7l18.8-36.4
		c0.2-0.4,0.5-0.4,0.7,0l18.8,36.4c0.2,0.3-0.1,0.7-0.4,0.7h-9.8c-0.2,0-0.4-0.1-0.4-0.3L248.7,373.5z M238.3,366.4h7.1l-3.6-7.7
		L238.3,366.4z"/>
	<path class="st2" d="M235.7,391.6c-0.4,0-0.6,0.3-0.6,0.6v46.4c0,0.3,0.3,0.6,0.6,0.6h12.5c0.4,0,0.6-0.3,0.6-0.6v-46.4
		c0-0.3-0.3-0.6-0.6-0.6H235.7 M255.5,415.4c0-14.3,12.8-24.4,27.6-24.4c14.8,0,27.6,10,27.6,24.4c0,14.4-12.8,24.4-27.6,24.4
		C268.3,439.8,255.5,429.7,255.5,415.4 M296.7,415.4c0-7.5-4.9-13.3-13.5-13.3c-8.6,0-13.5,5.8-13.5,13.3c0,7.5,4.9,13.4,13.5,13.4
		C291.7,428.7,296.7,422.9,296.7,415.4 M201.2,438.6c0,0.3,0.3,0.6,0.6,0.6h12.5c0.4,0,0.6-0.3,0.6-0.6v-36.3h13
		c0.4,0,0.6-0.3,0.6-0.6v-9.5c0-0.3-0.3-0.6-0.6-0.6h-45.1c-0.5,0-0.8,0.5-0.6,0.9l4.9,9.5c0.1,0.2,0.3,0.3,0.6,0.3h13.5V438.6z
		 M369.4,431.6c-0.2,0.2-0.3,0.6,0,0.8c3.5,3.6,9.9,7.4,20,7.4c13.6,0,19.5-6.3,19.5-15c0-6.7-3.5-11.3-13.8-14.4l-6.8-2.1
		c-2.5-0.8-3.6-1.7-3.6-3.5c0-1.9,1.7-3.3,5-3.3c4,0,6.7,1.3,8.7,3.3c0.1,0,6-5.5,7.6-7.1c0.2-0.2,0.3-0.6,0-0.8
		c-3.1-3.1-8.5-5.9-17.1-5.9c-9.1,0-17.5,4.8-17.5,14.2c0,7.8,5.3,12,12.8,14.3l6,1.9c3.4,1.1,5.1,2,5.1,4.1c0,2.7-2.4,3.8-6.5,3.8
		c-4.8,0-8.1-2.3-10.5-4.9c-0.2-0.3-0.7-0.3-1,0L369.4,431.6z M362.3,440c0.8,0.6,1.1,0.4,1.1-0.1v-47.7c0-0.3-0.3-0.6-0.6-0.6
		h-11.6c-0.4,0-0.7,0.3-0.7,0.6v23.3l-32.3-24.6c-0.8-0.6-1.1-0.3-1.1,0.1v47.6c0,0.3,0.3,0.6,0.6,0.6h11.6c0.4,0,0.6-0.3,0.6-0.6
		v-23.1L362.3,440z M136.4,440c0.8,0.6,1.1,0.4,1.1-0.1v-47.7c0-0.3-0.3-0.6-0.6-0.6h-11.6c-0.4,0-0.7,0.3-0.7,0.6v23.3l-32.3-24.6
		c-0.8-0.6-1.1-0.3-1.1,0.1v47.6c0,0.3,0.3,0.6,0.6,0.6h12.7c0.4,0,0.6-0.3,0.6-0.6V416L136.4,440z M176.2,433.4h-17.9l-2.4,5.4
		c-0.1,0.2-0.3,0.4-0.6,0.4h-12c-0.5,0-0.8-0.5-0.6-0.9l24.6-47.6c0.2-0.5,0.7-0.5,0.9,0l24.5,47.6c0.2,0.4-0.1,0.9-0.6,0.9h-12.8
		c-0.3,0-0.5-0.1-0.6-0.4L176.2,433.4z M162.5,424.2h9.3l-4.7-10.1L162.5,424.2z"/>
	<path class="st2" d="M91.9,447.6c-0.4,0-0.7,0.3-0.7,0.6v46.4c0,0.3,0.3,0.6,0.7,0.6h34.3c0.4,0,0.6-0.3,0.6-0.6v-9.5
		c0-0.3-0.3-0.6-0.6-0.6h-21.1v-36.3c0-0.3-0.3-0.6-0.6-0.6H91.9 M133.8,447.6c-0.4,0-0.7,0.3-0.7,0.6v46.4c0,0.3,0.3,0.6,0.7,0.6
		h35.8c0.4,0,0.6-0.3,0.6-0.6v-9.5c0-0.3-0.3-0.6-0.6-0.6h-22.7v-8.2h17.9c0.4,0,0.6-0.3,0.6-0.6v-8.9c0-0.3-0.3-0.6-0.6-0.6h-17.9
		v-7.8h21.6c0.4,0,0.7-0.3,0.7-0.6v-9.5c0-0.3-0.3-0.6-0.7-0.6H133.8 M278.5,476.8c0,12.8,9.4,19.1,22.3,19.1
		c12.8,0,22.3-6.3,22.3-19.1v-28.6c0-0.3-0.3-0.6-0.7-0.6H310c-0.4,0-0.6,0.3-0.6,0.6v28.4c0,5.4-2.8,8.5-8.7,8.5
		c-4.7,0-8.4-3.7-8.4-8.1v-28.9c0-0.3-0.3-0.6-0.7-0.6h-12.5c-0.4,0-0.6,0.3-0.6,0.6V476.8 M332.2,447.6c-0.4,0-0.7,0.3-0.7,0.6
		v46.4c0,0.3,0.3,0.6,0.7,0.6H368c0.4,0,0.6-0.3,0.6-0.6v-9.5c0-0.3-0.3-0.6-0.6-0.6h-22.7v-8.2h17.9c0.4,0,0.6-0.3,0.6-0.6v-8.9
		c0-0.3-0.3-0.6-0.6-0.6h-17.9v-7.8h21.6c0.4,0,0.6-0.3,0.6-0.6v-9.5c0-0.3-0.3-0.6-0.6-0.6H332.2 M259.9,483.2c-2.2,1-5,1.9-10,1.9
		c-9.1,0-13.8-6.2-13.8-13.7c0-7.5,4.6-13.3,13-13.3c4.8,0,8.3,1.8,10.9,4.6c0.2,0.3,0.7,0.3,1,0l8-7.5c0.2-0.2,0.3-0.6,0-0.8
		c-4.5-4.6-11.2-7.3-19.6-7.3c-14.8,0-27.4,10-27.4,24.4c0,14.3,12.5,24.4,27.7,24.4c11.4,0,17.6-2.9,22.4-6.6v-20
		c0-0.3-0.3-0.6-0.6-0.6h-21.2c-0.4,0-0.6,0.3-0.6,0.6v8.6c0,0.3,0.3,0.6,0.6,0.6h9.6V483.2z M207.8,489.4h-17.9l-2.4,5.4
		c-0.1,0.2-0.3,0.4-0.6,0.4h-12c-0.5,0-0.8-0.5-0.6-0.9l24.6-47.6c0.2-0.5,0.7-0.5,0.9,0l24.5,47.6c0.2,0.4-0.1,0.9-0.6,0.9H211
		c-0.3,0-0.5-0.1-0.6-0.4L207.8,489.4z M194.2,480.2h9.3l-4.7-10.1L194.2,480.2z"/>
	<path class="st2" d="M372.2,449.1v-1.3c0-0.1,0.1-0.2,0.2-0.2h7.1c0.1,0,0.2,0.1,0.2,0.2v1.3c0,0.1-0.1,0.1-0.2,0.1h-2.5v7.3
		c0,0.1-0.1,0.2-0.2,0.2h-1.6c-0.1,0-0.2-0.1-0.2-0.2v-7.3h-2.6C372.3,449.3,372.2,449.2,372.2,449.1"/>
	<path class="st2" d="M381.5,447.6h0.2l4.5,4.6c0.1,0.1,0.3,0.1,0.4,0l4.5-4.6h0.2v8.9c0,0.1-0.1,0.2-0.2,0.2h-1.5
		c-0.1,0-0.2-0.1-0.2-0.2v-5l-2.8,3c-0.1,0.1-0.3,0.1-0.4,0l-2.8-3v5c0,0.1-0.1,0.2-0.2,0.2h-1.5c-0.1,0-0.2-0.1-0.2-0.2V447.6z"/>
	<path class="st2" d="M105.1,31.3c0-0.8-0.8-1.4-1.6-1c-2.5,1.1-7.3,3.7-11.2,8.5c-0.8,1-1.2,2.2-1.2,3.4v329.6
		c0,1.4,0.6,2.7,1.7,3.5l10.3,8.4c0.8,0.6,2,0.1,2-1V31.3z"/>
	<path class="st3" d="M145.9,90.3l-0.2-0.9c5.2-8.2,10.2-16.7,15-24.8c5.1-8.7,10-16.9,14.9-24.6l1.6-1.2l1.7,0.2
		c11.3,7.5,22.4,16.1,33,25.8l0,1l-1.7,0.7c-15.1,0.7-33.8,9.8-51.9,18.7c-3.6,1.7-7.2,3.5-10.8,5.2L145.9,90.3z"/>
	<path class="st3" d="M313.5,98.5c-11.8,0-24.6-3.1-39.3-9.4l-1.9-1.6l0.1-1.1c7.5-6.7,13.1-12,18.9-18.6l1.4-0.5l1.8,0.8
		c9.6,9.7,20.4,18.6,33,27l0.2,1l-1.5,1.1C322.2,98.1,317.9,98.5,313.5,98.5z"/>
	<path class="st4" d="M330.4,145.3c-4.2,0-7.9-1.8-10.4-5.1c-2.2-2.9-3.6-6.3-3.9-9.9l0.7-0.7l0.7-0.7c1.2,0,2.3,0.1,3.4,0.1
		c9.1,0,17.6-1.6,26-4.8l0.7,0.5l0.7,0.5c0,4.2-1.5,8.5-4.4,12.5C340.7,142.4,335.7,145.3,330.4,145.3z"/>
	<path class="st5" d="M316.7,129.6l-0.7,0.7c-4-0.2-7.3-0.4-11.5-1.1l-1.7-0.9l0-1c8.4-8.5,16.1-18.3,23.4-30l1.5-1.1l1.8,0.3
		c10.7,7,21.6,13.5,33.2,19.7l0.6,1.1l-2.3,2.2c-3.7,2.1-8.2,3.8-12.8,5.7l-0.7-0.5l-0.7-0.5c-0.3-4.9-3-9.2-7.4-12.1
		c-1.8-1.2-4.1-1.8-6.5-1.8c-4.7,0-9.1,2.4-12,6.5c-2.5,3.6-3.7,7.8-3.6,12.1L316.7,129.6z"/>
	<path class="st4" d="M314.2,162.9c-11.5,0-22.1-3.2-36.2-10.8l-1.9-1.8l0.2-1c8.5-6.2,16.8-12.4,25.1-20.6l1.5-0.5l1.7,0.9
		c9.9,11.6,19.3,21.1,28.6,29.3l0,1.1l-1.8,1.1C325.2,162.2,319.5,162.9,314.2,162.9L314.2,162.9z"/>
	<path class="st6" d="M301.3,128.7c-3.5-0.6-7.3-1.5-11.4-2.7l-0.8-1l-0.9-1c-0.6-3.4-2.2-7.2-4.5-10.7
		c-4.8-7.1-10.6-11.6-15.2-11.6c-1.5,0-2.9,0.5-4,1.5c-2.1,1.8-2.9,5.5-2.1,10.2l-0.6,0.5l-0.6,0.5c-3.8-1.9-7.4-3.8-10.6-5.7
		l-2.4-2.2l0.2-1c8.5-6.2,15.6-11.6,22.6-17.8l1.3-0.2l1.9,1.6c9.9,14.5,19.3,27,28.6,38.1l0,1L301.3,128.7z"/>
	<path class="st4" d="M281.9,137.1c-5.2,0-11.9-4.9-16.5-12.1c-2-3.1-3.5-6.9-4.2-10.6l0.6-0.5l0.6-0.5c6.4,3.1,15.8,7.4,25.8,10.6
		l0.9,1l0.8,1c0.2,4.5-1.3,8-4.3,10C284.6,136.7,283.3,137.1,281.9,137.1"/>
	<path class="st3" d="M112.6,133.3c12.4-11.6,21.7-26.1,31.5-41.4l1.8-1.6l1.5,0.1c9.4,5.2,20,10.7,32.3,16.6l0.3,0.9l-2.2,2.2
		c-4.5,2.8-8.9,5.4-13.2,7.7l-0.7-0.4l-0.7-0.4c0.1-4.9-1.9-8.6-5.4-10.3c-1.3-0.6-2.6-0.9-4.1-0.9c-5,0-13,4.3-19.6,13.7
		c-2.2,3.2-3.7,7.1-4.2,11l-0.8,0.9l-0.8,0.9c-5,1.3-9.4,2.3-14.7,3.1l-1.6-0.5L112.6,133.3z"/>
	<path class="st4" d="M147.9,161.7l-0.2-0.9c9.6-13.6,16.6-26.4,22.9-37.7c2.5-4.6,4.9-8.9,7.3-12.9l2.2-2.2l1.5-0.1
		c16.6,8,27.4,14.4,36.6,21.7l0,1l-2.1,1.1c-15.7,2.7-31.1,11.4-44.7,19c-7.7,4.3-14.9,8.4-21.8,11.2L147.9,161.7z"/>
	<path class="st7" d="M147.9,233.1l-0.2-0.9c12.9-16.8,22.4-34.1,31.5-50.9l2-2.3l1.4-0.1c12.7,5.6,24.7,12.3,35.7,20l0.1,1l-2,1.2
		c-11,2.9-21.6,9.1-32.9,15.7c-10.8,6.3-22,12.7-34.1,16.6L147.9,233.1z"/>
	<path class="st8" d="M216,184.8c-4.6,0-8.8-1.4-12.1-4.1c-3.2-2.6-5.1-6.7-5.2-11.5l0.7-1.1l0.8-1.1c8.7-3.7,17.2-5.6,25.5-5.6
		c2.8,0,5.7,0.2,8.5,0.7l0.9,0.9l0.8,0.9c0.6,5.7-1.3,11.3-5.3,15.3C226.9,182.6,221.5,184.8,216,184.8"/>
	<path class="st3" d="M180.9,178c10-18.4,21.2-33.2,35.1-46.5l2.1-1.1l1.8,0.5c11.3,9.3,21,20.9,31.2,37.1l-0.2,1.1l-1.3,0.1
		c-4.2-2.2-9-4.5-14-5.5l-0.8-0.9L234,162c-0.7-3.3-1.8-6.2-3.5-8.5c-2.7-3.8-6.7-5.8-11.1-5.8c-4.7,0-9.7,2.4-13.5,6.6
		c-3.4,3.7-5.4,8.1-5.8,12.6l-0.8,1.1l-0.7,1.1c-4.9,2.3-10.3,5.7-16,9.7l-1.4,0.1L180.9,178z"/>
	<path class="st5" d="M283.7,201.3c-4.8,0-11.2-5.4-16.1-13.4c-2.2-3.6-3.8-7.7-4.4-11.3l0.6-0.5l0.6-0.5
		c7.7,4.1,16.1,8.3,25.2,11.3l0.8,1l0.7,1c0.1,5.2-1.5,9.6-4.4,11.5C285.9,201,284.8,201.3,283.7,201.3"/>
	<path class="st7" d="M147.7,232.1c-13-7.8-23.9-16.8-34.1-28.2l-1.5-0.6v34.2l0.6,0.8c2,0.3,4.1,0.4,6.4,0.4l0,0
		c7.6,0,16.8-1.5,27-4.4l1.9-1.3L147.7,232.1z"/>
	<path class="st7" d="M278.3,213.5c-11.2-6.4-26.1-14.8-44.5-14.8c-4.4,0-9,0.5-13.6,1.4l-1.7-0.4l-0.1-1
		c8.6-9.7,18.9-19.3,31.3-29.5l1.3-0.1l1.9,1.8c9.7,15.6,18.2,29,26.8,41.5l-0.2,1L278.3,213.5z"/>
	<path class="st7" d="M359.2,179.4l-1.5,1.6c-6.1,13.3-13.5,26.6-21.4,38.9l0.2,1l1.6,0.3c7.2-1.9,15.5-5.2,23.3-9.2l0.4-1
		C359.7,199.8,359.1,189,359.2,179.4"/>
	<path class="st7" d="M316.6,224.1c-12.2,0-24-3-34.9-8.6l-2.2-1.9l0.2-1c8.7-6.4,16.3-13.5,23.8-20.8l1.5-0.5l1.6,0.9
		c9.4,10.9,19.1,20,29.7,27.8l0.2,1l-1.5,1C328.8,223.3,322.6,224.1,316.6,224.1L316.6,224.1z"/>
	<path class="st8" d="M146.9,288.7c-3.5,0-6.9-1.1-9.9-3.1c-3.9-2.7-6.5-7.1-7.1-12.1l0.6-0.7l0.6-0.7c12.1-0.9,24-4,35.3-9.2
		l0.8,0.4l0.7,0.4c0.1,4.5-1.3,9.4-4.2,14.2C159.4,284.9,153.5,288.7,146.9,288.7L146.9,288.7z"/>
	<path class="st8" d="M284.4,112.9c-6.2-9.3-14.9-14.8-20.3-10.2c-2.6,2.2-3.1,6.6-2.3,11.2c8.2,4.1,17.9,8.2,27.3,11.1
		C288.8,121.2,287.1,116.9,284.4,112.9"/>
	<path class="st8" d="M290.4,261.7c-4.7,0-11.8-3.7-16.4-10.8c-2.6-4-4.5-8.5-5.3-12.6l0.6-0.5l0.6-0.5c4.6,1.9,8.7,3.8,12.6,5.7
		c4.6,2.2,8.9,4.2,13.3,5.8l0.9,1.1l0.8,1c0.2,4.4-1.3,8.2-3.9,9.9C292.8,261.4,291.7,261.7,290.4,261.7z"/>
	<path class="st8" d="M332.3,206.5c-3.2,0-6.3-1.1-8.7-3.1c-3.3-2.7-5.2-6.4-5.4-10.7l0.7-0.7l0.7-0.7c9.1-0.5,18-2.6,27.3-6.5
		l0.8,0.4l0.7,0.5c0.2,4.4-1.1,9.2-3.6,13.3C341.9,203.7,337.4,206.5,332.3,206.5z"/>
	<path class="st4" d="M274.7,150.4c-1.7-0.9-3.4-1.9-5.2-3c-12.7-7.4-28.6-16.6-45.3-16.6c-1.5,0-2.9,0.1-4.3,0.2l-1.8-0.5l0-1
		c9.6-8.9,19.4-16.1,28.8-23l1.3-0.1l2.4,2.2c6.3,9,12.4,18.9,18.7,29.4c2.3,3.7,4.6,7.5,6.9,11.3l-0.2,1L274.7,150.4z"/>
	<path class="st6" d="M251,169.2c-5.2-2.7-10.4-5.3-16.1-6.3c1,5.9-0.9,11.6-5,15.7c-6,6-17.8,7.8-25.6,1.5c-3.4-2.7-5.1-7.2-5-12
		c-5.7,2.5-12,6.6-18.1,10.9c14,6.1,26.3,13.2,37.3,20.8C226.8,190.4,237.4,180.3,251,169.2"/>
	<path class="st4" d="M112.7,201.7c14.3-12.8,24-25.6,33.3-38.6l1.9-1.5l1.6,0.1c10.8,6.3,21.9,12.1,31.5,16.3l0.3,0.9l-2,2.3
		c-4.8,3.4-9.3,6.4-13.7,8.7l-0.7-0.4l-0.7-0.4c-0.2-4.2-1.9-7.2-5.1-9.2c-1.9-1.1-4-1.7-6.3-1.7c-5.6,0-11.8,3.6-17.1,9.9
		c-3,3.6-4.9,8.1-5.4,12.6l-0.8,0.9l-0.7,0.8c-5,0.8-9.5,1.1-15.1,1.4l-1.5-0.6L112.7,201.7z"/>
	<path class="st4" d="M115.5,169.9c-0.9,0-1.9,0-2.8-0.1L112,169v-34.2l1.6,0.5c9,8.6,21.2,17.7,34.1,25.4l0.2,0.9l-1.9,1.5
		C134.2,167.6,123.9,169.9,115.5,169.9"/>
	<path class="st3" d="M302.7,68.5c-2.6,0-5.4-0.2-8.1-0.4l-1.8-0.8l-0.1-1.2c6.5-7.5,14-17.1,21-31.3l1.5-1.1l1.7,0.3
		c8.6,5.9,21.9,12.6,32.8,16.6l0.9,1.1l-1.8,2.3c-3.5,2.6-7.2,4.9-11,6.8l-0.8-0.4l-0.8-0.4c-1-4.8-4.1-8.6-8.8-10.8
		c-1.7-0.8-3.5-1.2-5.3-1.2c-5.2,0-10.2,3.5-12.8,8.9c-1.6,3.3-2.1,6.9-1.6,10.2l-0.6,0.7l-0.6,0.7
		C305.2,68.5,303.9,68.5,302.7,68.5"/>
	<path class="st4" d="M310.3,253.3c-4.4-0.3-8.2-1-12.7-2.4l-0.8-1l-0.9-1.1c-0.5-2.8-1.7-6.6-5-10.8c-5.3-6.7-11-10.7-15.5-10.7
		c-1.5,0-2.9,0.5-3.9,1.4c-1.7,1.4-2.2,4.6-1.5,8.6l-0.6,0.5l-0.6,0.5c-4-1.6-7.5-2.9-11.4-4l-2.1-1.3l0-1
		c7.9-7.4,15.7-13.2,23-18.5l1.2,0l2.2,1.9c10.1,14.4,19.9,26.3,30,36.4l0.1,1L310.3,253.3z"/>
	<path class="st4" d="M315.6,192.7c-3,0-6-0.3-9-0.6l-1.6-0.9l0.1-1c9-8.9,17.7-18.5,26.4-29.5l1.8-1.1l1.5,0.4
		c7.4,6.4,15.3,12.4,23.9,18.2l0.6,1.3l-1.5,1.6c-3.1,1.7-6.2,3.3-9.3,4.6l-0.7-0.5l-0.8-0.4c-0.3-3.4-1.6-6.2-3.6-7.9
		c-2.1-1.8-4.6-2.8-7.4-2.8c-4.4,0-8.9,2.5-12.4,6.9c-2.4,3-3.8,6.7-3.9,10.4l-0.7,0.7l-0.7,0.7
		C317.3,192.7,316.4,192.7,315.6,192.7L315.6,192.7z"/>
	<path class="st4" d="M363.4,117.2l-2.3,2.2c-11,16.4-19.9,28.9-27.9,39l0,1.1l1.5,0.4c8.8-2.4,18.3-6.3,26-10.6l0.9-1.3
		C363,138.1,363.5,127.9,363.4,117.2"/>
	<path class="st4" d="M140.1,146.8c-2.6,0-4.9-0.8-7-2.3c-3.2-2.3-4.9-6.9-4.7-12.2l0.8-0.9l0.8-0.9c10.9-3.4,21.9-7.3,33.3-13.4
		l0.7,0.4l0.7,0.4c-0.2,4.4-1.9,9.3-4.8,14.2C154.2,141.3,146.9,146.8,140.1,146.8z"/>
	<path class="st4" d="M215.9,117.5c-5.3,0-10.5-2-14.3-5.4c-3.5-3.2-5.4-7.4-5.5-12l0.7-1l0.8-1c6-1.9,11.7-2.9,17.5-2.9
		c5.4,0,10.7,0.8,16.2,2.5l0.9,1l0.8,1c0.3,4.9-1.3,9.6-4.5,13C225.7,115.7,221.1,117.5,215.9,117.5z"/>
	<path class="st3" d="M112,100.6V66.3l1.6,0.5c8.7,7.8,19.7,15.6,32,22.6l0.2,0.9l-1.8,1.6c-12.7,5.8-24,9.2-31.3,9.4L112,100.6z"/>
	<path class="st3" d="M305,191.2l-1.5,0.5c-4-0.6-8-1.6-12.2-2.9l-0.7-1l-0.8-1c-0.4-3.5-1.5-6.9-3.4-10.1
		c-5.4-9.2-11.4-12.4-14.9-12.4c-1.8,0-3.4,0.7-4.9,2.1c-1.9,1.9-2.7,5.1-2.1,9.1l-0.6,0.5l-0.6,0.5c-1.9-1-3.7-2-5.5-3
		c-1.6-0.9-3.2-1.8-4.8-2.6l-1.9-1.8l0.2-1.1c7.4-6,14.2-10.9,20.9-15.7c0.9-0.7,1.8-1.3,2.7-2l1.3-0.1l1.9,1.8
		c7,11.1,16.1,25,27,38L305,191.2z"/>
	<path class="st3" d="M184.6,252.7l-0.3-1c8.4-16.8,16.8-32.9,32.3-50.8l2-1.2l1.7,0.4c12.8,9.2,24.6,19.9,35.1,31.9l0,1l-1.3,0.3
		c-4.3-1.1-9.3-1.7-15-1.8l-0.8-0.7l-0.8-0.7c-0.5-3.8-2.3-7.4-5-9.8c-2.8-2.5-5.9-3.7-9.2-3.7c-5.9,0-12.1,4.2-16.5,11.2
		c-2.4,3.8-4.1,8.1-4.5,11.8l-0.8,1.2l-0.7,1.2c-5.3,3-10.1,7-15,10.5L184.6,252.7z"/>
	<path class="st3" d="M271,87.7c-4.2-1.9-8.4-4-12.6-6c-14.6-7.2-29.7-14.7-44.9-15.2l-1.8-0.7l0-1c9.2-9.3,20.5-17.2,28.7-22.5
		l1.4-0.1l2.7,2.4c7.7,10.4,14.3,20.8,20.3,30.1c2.7,4.3,5.3,8.3,7.6,11.8l-0.1,1.1L271,87.7z"/>
	<path class="st3" d="M350.5,51.7l-1.8,2.3c-7.3,16.4-14.2,29.9-21.2,41.2l0.2,1l1.8,0.3c9.6-2.4,20.3-5.7,29.3-11l0.5-1.1
		c0,0,0,0,0,0C356.2,70.8,352.3,60,350.5,51.7"/>
	<path class="st8" d="M139.3,75.1c-2.8,0-5.3-0.9-7.6-2.5c-2.6-1.9-4-5.4-4.1-9.8l0.7-1l0.8-1c8-3,14.7-6.8,21.2-10.5
		c3.5-2,7.1-4,10.8-5.9l0.7,0.4l0.7,0.4c0.3,4.9-1.2,10.6-4,15.6C153.6,69.6,146.2,75.1,139.3,75.1L139.3,75.1z"/>
	<path class="st8" d="M342.4,266.5c-3.4,0-6.7-1-9.4-2.9c-3.7-2.6-6.1-6.3-6.9-10.5l0.6-0.8l0.6-0.8c10.4-1.4,19.9-4.3,27.9-7
		l0.9,0.4l0.9,0.5c1.3,4.8,0.6,10.1-1.9,14.4C352.7,263.9,347.8,266.5,342.4,266.5"/>
	<path class="st5" d="M180,107.9l-0.3-0.9c9.9-16.3,19.9-29.6,30.4-40.5l1.7-0.7l1.8,0.7c13.2,12.3,24.6,25,34.8,39.1l-0.2,1
		l-1.3,0.1c-5-3-9-5.3-13.8-6.9l-0.8-1l-0.9-1c-0.6-3.4-2.2-6.7-4.7-9.4c-3.8-4.3-8.5-6.7-13.1-6.7c-4.2,0-8.1,1.8-11.1,5.4
		c-2.7,3.2-4.4,7.2-4.8,11.1l-0.8,1l-0.7,1c-5.1,1.9-9.4,4.4-14.7,7.7L180,107.9z"/>
	<path class="st5" d="M316,253.6c-0.8,0-1.7,0-2.5-0.1l-1.7-0.7l-0.1-1c8-8.6,15.8-18.6,23.3-29.9l1.5-1l1.6,0.3
		c9.6,6.9,20.1,12.8,31.1,17.6l1.1,1.3l-1.1,1.1c-2.6,0.8-5.1,1.7-8.2,2.8c-1.3,0.4-2.6,0.9-4,1.4l-0.9-0.5l-0.9-0.4
		c-1.2-3.3-3.3-5.9-6.3-7.6c-2.5-1.4-5.2-2.2-7.7-2.2c-4.5,0-8.5,2.2-11.1,6.1c-2,3.1-3,7-2.7,10.7l-0.6,0.8l-0.6,0.8
		C322.6,253.5,319.4,253.6,316,253.6L316,253.6z"/>
	<path class="st7" d="M322.8,82.4c-3.4,0-6.9-1.4-10.3-4.3c-3.1-2.5-5.1-5.8-6-9.7l0.6-0.7l0.6-0.7c10.3-0.6,19.8-3,28.4-7.1
		l0.8,0.4l0.8,0.4c0.5,3.3,0,6.7-1.3,10C333.5,78.2,328.5,82.4,322.8,82.4z"/>
	<path class="st5" d="M343.8,176.2c-5.9-5.2-14.6-3.5-20.8,4.2c-2.6,3.3-4.2,7.4-4.1,11.5c9-0.4,18.5-2.4,28.8-6.8
		C347.4,181.5,346.1,178.3,343.8,176.2"/>
	<path class="st4" d="M286.4,199.7c-4.7,3.2-12.8-3.2-18.3-12.2c-2.2-3.7-3.8-7.7-4.3-11.4c-4.4-2.3-8.7-4.7-12.8-6.9
		c10.2,16.4,19.4,31,28.6,44.3c9.1-6.6,16.9-13.9,25.4-22.3c-5-0.7-9.8-1.9-14.5-3.4C290.8,193.2,289.3,197.8,286.4,199.7"/>
	<path class="st6" d="M201.9,86.4c-3.1,3.5-4.9,8.1-5,12.6c12.4-4.3,23.8-4.2,35.4-0.4c-0.4-3.8-2-7.6-5-10.9
		C219.7,79.1,209,78.2,201.9,86.4"/>
	<path class="st6" d="M217.1,256.1c-2.4,0-4.9-0.6-7.2-1.6c-5.4-2.5-8.8-6.8-9.1-12.4l0.7-1.2l0.8-1.2c11.9-6.4,23.6-9.5,35.1-9.5
		l0.8,0.7l0.8,0.7c0.3,5.1-1.3,10.2-4.6,14.5C229.3,252.5,223.2,256.1,217.1,256.1z"/>
	<path class="st6" d="M349.3,236.2c-7.7-4.4-15.6-2.1-19.8,4.2c-2,3.1-3.4,7.5-2.8,11.9c11.1-1.3,21-4.5,29.4-7.4
		C355.1,241.3,352.8,238.2,349.3,236.2"/>
	<path class="st6" d="M347.3,277.8c-2.8-1.3-18.3-9.2-33.8-24.3l-1.7-0.7l-1.5,0.5c-8.5,9-16.5,15.9-25.2,21.5l-0.3,1.1
		c17.5,9.7,37.7,10.9,62.6,2.8L347.3,277.8z"/>
	<path class="st6" d="M225.5,269.5c-5.9-2.8-12.2-5.5-18.9-8.4c-6.8-3-13.7-5.3-20.7-8.5l-1.3,0.2l-2,2.4c-0.5,1.1-1.1,2.2-1.6,3.3
		c-7.3,14.9-15,29.7-29.7,45.9l0.1,0.9c34.6-7.1,45.8-22,74.4-34.8L225.5,269.5z"/>
	<path class="st7" d="M123.6,273.2c-3.3,0-6.5-0.3-9.8-0.6l-1.8-0.9l0.5-1.3c14.5-12,23.9-23.7,33.4-36.1l1.9-1.3l1.7,0.2
		c9.6,5.6,20.3,11.8,34.7,18.5l0.3,1l-2,2.4c-4.4,3-9.5,6.1-14.7,8.6l-0.7-0.4l-0.8-0.4c-0.4-4.7-2.8-8.5-6.7-10.4
		c-2.2-1.1-4.7-1.7-7.3-1.7c-6.9,0-13.9,3.9-18.1,10c-2.3,3.5-3.5,7.3-3.3,11.2l-0.6,0.7l-0.6,0.7
		C127.6,273.6,125.6,273.2,123.6,273.2"/>
	<path class="st7" d="M180,107.9c-5.5,3.6-10.9,6.7-16.1,9.5c-0.1,4.2-1.7,9.2-4.8,14.3c-7.5,12.6-18.3,17.6-25.6,12.2
		c-3.4-2.5-4.8-7.3-4.4-12.5c-6.1,1.6-10.9,2.7-17.1,3.5c8.2,8,20.7,17.9,35.8,26.9C162.5,141,171.4,122,180,107.9"/>
	<path class="st7" d="M240.4,42.2c-3.8-1.9-8.1-3.7-13.9-5.4l-0.9-1l-1-1c-0.9-3.3-2.6-6.6-4.9-9.2c-3.7-4.3-8.3-6.8-12.6-6.8
		c-3.2,0-6.2,1.4-8.9,4c-2.7,2.6-4.2,6.8-4.1,11.2l-0.7,0.9l-0.7,0.9c-4.4,0.8-8.7,1.9-14,3.4l-1.7-0.2l-0.2-1
		c10.2-15.6,19.6-26.3,28.6-32.3l1.8-0.3l2.4,1c9.3,7.6,20.7,19.9,32.3,35l-0.2,1L240.4,42.2z"/>
	<path class="st7" d="M343.3,137.2c-5.7,8.6-17.3,9.9-22.8,2.5c-2.2-3-3.6-6.5-3.8-10.1c-5-0.2-9.1-0.6-13.8-1.3
		c9.9,11.7,19.8,22.1,30.4,31.3c9.2-11.7,19-25.6,30.2-42.3c-5.2,3.3-11,5.5-15.8,7.4C347.7,128.7,346.4,133,343.3,137.2"/>
	<path class="st6" d="M257.3,234.4l-2.1-1.3l-1.3,0.3c-11.4,10.8-20.7,22.6-28.5,36.1l0.3,1c25.6-11.4,48.6-0.4,59.1,5.4l0.3-1.1
		C277.8,260.2,268,246.9,257.3,234.4"/>
	<path class="st6" d="M142.6,217.3c-3.6,0-6.8-1.2-9.5-3.4c-3-2.5-4.5-6.6-4.4-11.4l0.7-0.8l0.8-0.9c11.8-2.1,22.9-5.9,33.8-11.7
		l0.7,0.4l0.7,0.4c0,5.2-2.2,11.3-5.9,17C155.1,213.5,149,217.3,142.6,217.3"/>
	<path class="st4" d="M205.4,153.8c-4,4.3-5.9,9.5-6.1,14.2c12.8-5.7,24.6-7.1,35.6-5.2c-0.5-3.2-1.6-6.7-3.8-9.8
		C224.6,144.3,213.1,145.4,205.4,153.8"/>
	<path class="st6" d="M370.4,240l-1.1,1.1c-4.6,12.8-13.4,27.6-21.9,36.7l0.1,0.9c22.5-7.2,36.4-8.2,36.4-8.2S377.3,256.1,370.4,240
		"/>
	<path class="st6" d="M151.3,304.3c-13.1-8.9-25.3-19-37.5-31.7l-1.8-0.9v32.4c0,0,17.2,5.6,39.3,1.1L151.3,304.3z"/>
	<path class="st4" d="M160,251.8c-9.1-4.5-20.6,0.3-26.2,8.6c-2.7,4-3.7,8.4-3.4,12.4c14-0.9,26.5-4.7,36.7-9.5
		C166.8,258,164.2,253.9,160,251.8"/>
	<path class="st3" d="M167.1,263.2c0.2,4.2-1,9.2-4.1,14.3c-7.2,12-18.3,12.5-25.7,7.5c-3.9-2.6-6.5-7.2-6.9-12.3
		c-6,0.4-11.7-0.2-18.4-1c11.2,12,23.9,23.1,39.3,33.5c17.2-18.7,24.9-35.9,33.2-52.5C179.9,256.2,173.8,260.1,167.1,263.2"/>
	<path class="st3" d="M354.5,259.4c-3.9,6.7-14.1,8.5-21.1,3.6c-4.2-3-6.2-6.8-6.7-10.7c-5,0.6-9.7,0.8-15,0.5
		c17.8,17.7,35.7,25.9,35.7,25.9c8.4-8.8,18-24.3,22.9-38.6c-4.1,1.2-8.6,2.9-14.2,4.8C357.6,249.6,357,255,354.5,259.4"/>
	<path class="st3" d="M159.3,179.4c-7.3-4.4-16.7-0.6-24.3,8.4c-3.4,4.1-5.4,9.2-5.7,13.9c11.8-2,23.3-5.7,35.3-12.1
		C164.7,185.3,163.1,181.6,159.3,179.4"/>
	<path class="st3" d="M212.8,52.9c-4.7,0-9.7-1.8-13.6-5.1c-3.7-3-5.9-7.3-6.4-12.2l0.7-0.9l0.7-0.9c5.1-0.9,9.7-1.3,14.1-1.3
		c5.7,0,11.1,0.7,16.4,2.1l1,1l0.9,1c0.7,4.8-0.5,9-3.5,12.1C220.5,51.5,216.9,52.9,212.8,52.9L212.8,52.9z"/>
	<path class="st8" d="M232.9,219.8c-8.8-7.7-19.8-3.3-26.7,7.7c-2.8,4.5-4.5,9.4-4.6,13.4c12-6.6,24.2-10.3,36.7-10
		C237.8,226.8,236.1,222.7,232.9,219.8"/>
	<path class="st6" d="M287,176.5c-5-8.7-14.2-16.9-20.9-10.5c-2.3,2.2-2.9,5.9-2.3,10.1c8.4,4.4,17.2,8.8,26.7,11.8
		C290.3,184.2,289.1,180.2,287,176.5"/>
	<path class="st5" d="M293.3,260.3c-3.7,2.5-13.2-1.3-18.7-9.7c-2.7-4.2-4.5-8.7-5.3-12.7c-4.3-1.8-8.7-3.3-14.1-4.8
		c13.3,15.3,23.3,30.2,29.6,42.8c9.8-6.1,18.3-13.8,26.9-23.1c-5.7-0.3-10.2-1.3-15-2.9C297.3,254.8,295.7,258.7,293.3,260.3"/>
	<path class="st8" d="M145.9,90.3c12.2,6.9,24.7,13,34.1,17.6c10.1-16.5,20.4-30.4,31.8-42.1C192.9,65.8,168.2,79.8,145.9,90.3"/>
	<path class="st8" d="M276,150.4c8.5,13.7,17.8,27.7,28.9,40.9c9-8.9,18.2-19,28.2-31.7C311.6,165.2,296.7,161.9,276,150.4"/>
	<path class="st9" d="M359.3,84.3C359.2,84.3,359.2,84.3,359.3,84.3c-9.7,6-21.6,9.3-31.5,11.8c11.1,7.3,22.8,14.3,35.6,21.1
		C363.2,104.7,361.4,93.7,359.3,84.3L359.3,84.3z"/>
	<path class="st9" d="M370.4,240c-4.2-9.7-6.9-19.5-8.6-29c-7.3,3.8-16.6,7.8-25.3,9.8C346.4,228.2,357.6,234.7,370.4,240"/>
	<path class="st9" d="M359.2,179.4c0.1-13.2,1.4-24.1,2.4-31.4c-9,5.2-19.9,9.4-28.4,11.6C341.5,166.8,350,173.3,359.2,179.4"/>
	<path class="st8" d="M272.3,87.5c10.4,15.4,20.4,28.8,30.5,40.7c8.2-8.2,16.4-18.3,24.9-32.1C310.9,100.3,292.2,96.4,272.3,87.5"/>
	<path class="st3" d="M248.2,106.5c-5.6-3.4-10.3-6-15.9-7.9c0.6,5.1-1,10.1-4.2,13.5c-5.7,6-18.2,6.4-25.9-0.6
		c-3.9-3.6-5.4-8-5.3-12.5c-5.8,2-10.8,4.9-16.9,8.9c15.3,7.3,27.4,14.1,38.1,22.6C228.1,121.2,238.3,113.7,248.2,106.5"/>
	<path class="st3" d="M147.9,233.1c13.5-17.5,23.2-35.2,33.4-54.1c-5.7,4-11.1,7.8-16.5,10.6c0.1,5.4-2.3,11.7-5.8,17
		c-7.5,11.2-18.7,12.4-25.4,6.8c-3.1-2.6-4.5-7-4.2-11.7c-5.9,1-11.1,1.3-17.4,1.6C121.9,214.5,133.3,224.4,147.9,233.1"/>
	<path class="st4" d="M112.6,64.8c8.7-8.7,20.5-26.7,29-41.9l1.9-1.9l1.4-0.2c10.5,4.4,21.3,10.1,32,17l0.2,1l-1.6,1.2
		c-4.2,1.3-8.4,3-12.9,5.3l-0.7-0.4l-0.7-0.4c-0.4-3.5-1.8-6.1-4-7.3c-1.5-0.8-3.3-1.3-5.2-1.3c-6.4,0-13.3,4.5-18.1,11.8
		c-2.7,4.1-4.4,8.7-4.7,13.1l-0.8,1l-0.7,1c-4.4,1.6-8.4,3-14,4.1l-1.6-0.5L112.6,64.8z"/>
	<path class="st3" d="M285.2,135.4c-4.7,3.2-13.5-1.9-19.2-10.9c-2-3-3.5-6.9-4.2-10.7c-5.3-2.6-9.9-5.2-13.7-7.4
		c9.4,13,18.2,28.2,27.8,43.9c9.3-6.8,18.1-13.4,26.8-22.1c-4.4-0.7-9-1.8-13.6-3.2C289.7,129.4,288.5,133.3,285.2,135.4"/>
	<path class="st3" d="M291.4,67.8c-3.3-0.4-6.3-1.7-9.8-2.9l-1-1.1l-1.1-1.2c-1.2-3.7-3.3-7.9-6.1-11.8c-4-5.5-9.8-11.4-14.2-11.4
		c-1.2,0-2.1,0.4-3,1.2c-1.5,1.4-1.5,4.9-0.1,9.5l-0.6,0.5l-0.6,0.5c-2.1-1.3-8.7-5.4-10.4-6.5l-2.7-2.4l0.2-1
		c1.6-1,3.2-2.1,4.8-3.2c4.4-3,8.5-6.1,13.5-8.6l1.7-0.1l2.3,1.4c6.2,6.7,12,14.1,16.8,20.7c4.1,5.6,7.9,10.9,11.6,14.8l0.1,1.2
		L291.4,67.8z"/>
	<path class="st3" d="M344.2,198.5c-5.2,8.6-14.6,8.9-20.2,4.3c-3.6-2.9-5.1-6.9-5.2-10.9c-4.8,0.2-9.4,0-13.9-0.7
		c9,10.7,19.3,20.8,31.5,29.7c9.1-13.9,16.8-28.3,22.8-41.5c-4,2.2-7.8,4.1-11.6,5.7C347.9,189.4,346.8,194.3,344.2,198.5"/>
	<path class="st3" d="M276.8,75.2c-4.9,0-11.8-6.9-16.4-13.8c-2.6-3.8-4.4-7.3-5.5-10.5l0.6-0.5l0.6-0.5c7.8,4.9,15.5,9.5,23.4,12.6
		l1.1,1.2l1,1.1c0.7,3.6,0.3,6.5-1.1,8.4C279.5,74.6,278.3,75.2,276.8,75.2z"/>
	<path class="st3" d="M291.4,237.6c-7.8-10-16-13.3-20.5-9.4c-2,1.8-2.5,5.4-1.6,9.7c10.8,4.4,18.7,9,27.4,12
		C296.4,246.2,294.8,241.9,291.4,237.6"/>
	<path class="st3" d="M347.5,124.6c-0.2-5.3-2.9-10-7.8-13.2c-5.4-3.5-14.4-2.4-19.4,4.9c-2.7,3.9-4,8.6-3.7,13.2
		C326.2,130,336.3,129.1,347.5,124.6"/>
	<path class="st9" d="M147.9,233.1c-14,4.2-26.9,5.9-35.8,4.4v34.2C128.1,258.7,138.1,245.8,147.9,233.1"/>
	<path class="st9" d="M145.9,90.3c-12.1,5.7-25.3,10.3-33.8,10.3v34.2C125.6,122.4,135.5,106.7,145.9,90.3"/>
	<path class="st9" d="M147.9,161.7c-15.9,6.3-27.5,8-35.8,7.4v34.2C127.9,189.2,138.3,175.1,147.9,161.7"/>
	<path class="st8" d="M147.9,233.1c11.7,6.9,24.3,13.9,36.7,19.7c8.1-16.3,16.8-33.7,33.9-52.9C195.5,204.9,173.7,225.4,147.9,233.1
		"/>
	<path class="st8" d="M218.1,130.5c-25.8,3.6-50,23.1-70.3,31.1c11.3,6.7,23.1,12.9,33.4,17.3C192.9,157.3,205.4,142.4,218.1,130.5"
		/>
	<path class="st8" d="M279.5,213.5c10,14.4,20.5,27.7,32.2,39.3c9-9.7,17.3-20.6,24.7-31.9C318.8,225.2,298.9,224.5,279.5,213.5"/>
	<path class="st9" d="M218.1,130.5c11.9,9.5,22,21.3,32.8,38.7c8.9-7.3,17.2-13.1,25.1-18.8C261,142,240.2,127.5,218.1,130.5"/>
	<path class="st9" d="M248.2,106.5c8.3-6.1,16.4-12.1,24.1-19c-19.4-8.6-39.7-21.8-60.5-21.8C224.9,77.8,237.1,91.2,248.2,106.5"/>
	<path class="st8" d="M218.5,199.8c14.8,10.4,26.9,21.8,36.8,33.3c8.4-7.9,16.7-14.1,24.3-19.5C265,205.3,246.2,193.6,218.5,199.8"
		/>
	<path class="st4" d="M255.3,233.1c-5.7-1.6-11.8-2.1-17.1-2.2c0.5,5.4-1.1,10.6-4.4,14.8c-6.5,8.4-15,12.1-23.6,8.2
		c-5.2-2.4-8.8-6.7-8.7-12.9c-5.6,3.1-11.1,7.5-17,11.9c14.3,6.7,28.7,11.9,41.2,17.7C234.8,254.6,245.1,242.6,255.3,233.1"/>
	<path class="st8" d="M158.1,106c-8.2-4-18.9,4.9-24.6,13c-2.6,3.7-4.1,8.1-4.4,12.3c11.3-2.9,22.7-7.4,34.8-13.9
		C164.1,112.1,162.1,108,158.1,106"/>
	<path class="st8" d="M327.6,48.4c-7.5-3.5-15.5,0.6-19,8c-1.8,3.7-2.3,7.7-1.6,11.3c10.4-0.5,20.5-2.9,29.8-7.4
		C336,55.3,333,50.9,327.6,48.4"/>
	<path class="st4" d="M225.6,35.8c-0.8-3.9-2.8-7.8-5.3-10.7c-6-6.9-15-10.3-22.6-2.8c-3,3-4.6,7.7-4.3,12.5
		C205.3,32.7,215.4,32.8,225.6,35.8"/>
	<path class="st6" d="M273.9,50.4c-5.5-7.6-13.6-14.9-18.3-10.3c-1.9,1.8-1.6,5.9-0.2,10.4c8.1,5.1,16.4,10.1,25.1,13.3
		C279.5,59.6,277.1,54.8,273.9,50.4"/>
	<path class="st6" d="M157.5,36.4c-6.8-3.8-17.4,0.4-24.2,10.8c-3.1,4.8-4.8,10-4.9,14.5c13.1-4.8,22.5-11.5,33.5-16.9
		C161.5,40.9,160.1,37.8,157.5,36.4"/>
	<path class="st4" d="M292.8,67.3c-4.2-0.4-8.1-2-12.2-3.5c0.9,3.7,0.8,7-0.7,9.1c-3.7,5.1-12.8-3-18.9-11.9
		c-2.2-3.3-4.3-7-5.5-10.6c-5.2-3.3-8.7-5.7-13.6-8.4c12.5,16.4,22.7,33.9,30.5,45.4C280,80.6,286.3,74.8,292.8,67.3"/>
	<path class="st6" d="M241.8,42.1c-5.2-2.8-11.1-4.9-16.2-6.4c0.9,4.5,0.2,9.2-3.1,12.6c-5.6,5.8-15.8,4.6-22.9-1.1
		c-4-3.2-6-7.9-6.2-12.5c-5.3,0.9-10.4,2.3-16.3,4c11.7,7.6,23.4,16.6,34.7,27C220.5,56.8,231.2,49,241.8,42.1"/>
	<path class="st6" d="M327.7,96.1c7.2-11.7,14.7-26.2,22.7-44.4c-4.3,3.5-8.8,6.3-13.6,8.7c0.6,3.3,0.2,6.8-1.2,10.2
		c-4.5,11.3-13.5,14.7-22.8,7.1c-3.2-2.6-5.2-6.1-5.9-9.9c-4.7,0.2-9.5,0.1-14.3-0.4C303.3,78.2,314.9,87.6,327.7,96.1"/>
	<path class="st7" d="M177.1,38.7c-5.6,1.6-10.6,3.7-15.3,6c0.4,4.6-0.9,10.4-3.9,15.7c-6.9,12.1-18,17.3-25.8,11.5
		c-2.6-2-3.9-5.7-3.8-10.2c-5.2,1.9-9.6,3.5-16.3,4.6c8.6,8,20.3,16.4,33.8,24C157.1,72.6,167,54.3,177.1,38.7"/>
	<path class="st9" d="M143.5,21c10.8,4.4,22.2,10.3,33.6,17.8c9.4-14.5,19.5-26.9,30.2-33.6C187.2,2.1,167.2,5.5,143.5,21"/>
	<path class="st9" d="M346.2,20c0,0-16.3,9.5-31.1,13.7c8.5,6,23.1,13.6,35.3,17.9C346.6,34,346.2,20,346.2,20"/>
	<path class="st9" d="M262,29.2c12.5,12.9,22.2,29.2,30.8,38.1c8.2-9.4,15.5-19.3,22.4-33.6C300.3,37.9,282.6,36.9,262,29.2"/>
	<path class="st9" d="M241.8,42.1c6.5-4.2,12.6-9.2,20.1-12.9C241,21.5,227.7,8.1,207.3,5.1C218,13.2,230.7,27.5,241.8,42.1"/>
	<path class="st9" d="M143.5,21C127.8,31.2,112,32.1,112,32.1v34.2C121.9,57,135.3,35.8,143.5,21"/>
</g>
</svg>
