<?xml version="1.0" encoding="utf-8"?>
<!-- Generator: Adobe Illustrator 25.0.1, SVG Export Plug-In . SVG Version: 6.00 Build 0)  -->
<svg version="1.1" id="Layer_1" xmlns="http://www.w3.org/2000/svg" xmlns:xlink="http://www.w3.org/1999/xlink" x="0px" y="0px"
	 viewBox="0 0 500 500" style="enable-background:new 0 0 500 500;" xml:space="preserve">
<style type="text/css">
	.st0{display:none;fill:#FFFFFF;}
	.st1{display:none;fill:none;stroke:#FFFFFF;stroke-width:0.5621;stroke-miterlimit:10;}
	.st2{fill-rule:evenodd;clip-rule:evenodd;fill:#2D2E2F;}
</style>
<g>
	<g>
		<path class="st0" d="M354.1,355.2c-2.2,0-3.9,1.8-3.9,3.9c0,2.2,1.8,3.9,3.9,3.9c2.2,0,3.9-1.8,3.9-3.9S356.2,355.2,354.1,355.2
			 M357.4,359.2c0,1.9-1.5,3.4-3.3,3.4c-1.9,0-3.4-1.5-3.4-3.4c0-1.8,1.5-3.3,3.4-3.3C355.9,355.8,357.4,357.3,357.4,359.2"/>
		<path class="st0" d="M354,360.8c-0.9,0-1.7-0.8-1.7-1.7c0-0.9,0.8-1.7,1.7-1.7c0.7,0,1.2,0.4,1.5,1h0.5c-0.3-0.8-1.1-1.4-2-1.4
			c-1.2,0-2.1,1-2.1,2.1c0,1.2,1,2.1,2.1,2.1c1,0,1.8-0.6,2-1.5h-0.5C355.3,360.4,354.7,360.8,354,360.8"/>
		<path class="st0" d="M364.7,361.5c-0.2,0.1-0.4,0.2-0.7,0.3c-0.3,0.1-0.5,0.1-0.8,0.1s-0.6,0-0.8-0.2c-0.3-0.1-0.5-0.3-0.7-0.5
			c-0.2-0.3-0.4-0.6-0.5-0.9s-0.1-0.7-0.1-1.1s0.1-0.7,0.2-1.1c0.1-0.3,0.3-0.6,0.5-0.9c0.2-0.2,0.4-0.4,0.7-0.6
			c0.3-0.1,0.6-0.2,0.9-0.2c0.2,0,0.5,0,0.7,0.1s0.4,0.2,0.6,0.3l-0.3,0.4c-0.2-0.1-0.3-0.2-0.5-0.2c-0.2-0.1-0.3-0.1-0.5-0.1
			c-0.3,0-0.6,0.1-0.8,0.2c-0.2,0.1-0.4,0.4-0.5,0.7c-0.1,0.2-0.1,0.4-0.2,0.6c0,0.2,0,0.5,0,0.8c0,0.2,0,0.5,0,0.6
			c0,0.2,0.1,0.3,0.1,0.5c0.1,0.3,0.3,0.6,0.6,0.7c0.3,0.2,0.5,0.2,0.8,0.2c0.2,0,0.4,0,0.5-0.1c0.2-0.1,0.3-0.1,0.5-0.3
			L364.7,361.5"/>
		<path class="st0" d="M368.6,359.4c0-0.4,0-0.7-0.1-1c0-0.3-0.1-0.5-0.2-0.7s-0.2-0.4-0.4-0.5c-0.2-0.1-0.4-0.2-0.7-0.2
			c-0.2,0-0.5,0-0.7,0.1s-0.3,0.3-0.4,0.5s-0.2,0.4-0.2,0.6s-0.1,0.5-0.1,0.8c0,0.4,0,0.8,0.1,1.1c0.1,0.3,0.1,0.6,0.2,0.8
			c0.1,0.1,0.1,0.2,0.2,0.2c0.1,0.1,0.2,0.1,0.3,0.2c0.1,0.1,0.2,0.1,0.3,0.1c0.1,0,0.2,0,0.3,0c0.2,0,0.4,0,0.6-0.1
			s0.3-0.2,0.4-0.3c0.1-0.1,0.1-0.2,0.2-0.3c0-0.1,0.1-0.2,0.1-0.3c0-0.1,0.1-0.3,0.1-0.4C368.6,359.8,368.6,359.6,368.6,359.4
			 M369.3,359.3c0,0.5-0.1,0.9-0.2,1.3c-0.1,0.3-0.3,0.6-0.6,0.9c-0.2,0.2-0.4,0.3-0.6,0.4s-0.4,0.1-0.7,0.1c-0.3,0-0.6,0-0.9-0.2
			c-0.2-0.1-0.5-0.3-0.6-0.5c-0.4-0.5-0.6-1.2-0.6-2.1c0-0.4,0.1-0.8,0.2-1.1c0.1-0.3,0.2-0.6,0.4-0.8c0.2-0.2,0.4-0.4,0.7-0.5
			c0.3-0.1,0.5-0.2,0.9-0.2c0.2,0,0.4,0,0.6,0.1c0.2,0,0.3,0.1,0.5,0.2c0.1,0.1,0.3,0.2,0.3,0.3c0.1,0.1,0.2,0.2,0.2,0.3
			c0.2,0.2,0.3,0.5,0.4,0.8C369.3,358.5,369.3,358.9,369.3,359.3"/>
		<path class="st0" d="M373,358.2c0-0.4-0.1-0.7-0.3-0.8c-0.1-0.1-0.2-0.2-0.4-0.2c-0.2-0.1-0.4-0.1-0.6-0.1H371v2.1h0.9
			c0.2,0,0.4,0,0.5-0.1c0.1,0,0.2-0.1,0.3-0.2C372.9,358.7,373,358.5,373,358.2 M373.7,358.1c0,0.3,0,0.5-0.1,0.7s-0.2,0.4-0.4,0.5
			c-0.2,0.2-0.4,0.3-0.6,0.3c-0.2,0.1-0.4,0.1-0.7,0.1H371v2.1h-0.6v-5.2h1.5c0.3,0,0.5,0,0.7,0s0.3,0.1,0.5,0.2
			C373.5,357.1,373.7,357.5,373.7,358.1"/>
		<path class="st0" d="M376.1,359.8v2h-0.6v-2.1l-1.7-3.2h0.8l1,2c0,0.1,0.1,0.2,0.1,0.3c0,0.1,0.1,0.2,0.1,0.2c0,0.1,0,0.1,0,0.1
			c0.1-0.2,0.2-0.4,0.3-0.6l1-2h0.7L376.1,359.8"/>
		<path class="st0" d="M380.8,358c0-0.2,0-0.3-0.1-0.5s-0.2-0.3-0.4-0.3c-0.1,0-0.2-0.1-0.3-0.1c-0.1,0-0.2,0-0.4,0H379v2h0.6
			c0.2,0,0.4,0,0.6-0.1c0.1,0,0.3-0.1,0.4-0.2s0.2-0.2,0.2-0.3C380.8,358.3,380.8,358.2,380.8,358 M381,361.8c0-0.1-0.1-0.2-0.2-0.3
			c-0.1-0.1-0.2-0.3-0.3-0.5c-0.1-0.2-0.2-0.4-0.4-0.6c-0.1-0.2-0.3-0.4-0.5-0.6c0-0.1-0.1-0.1-0.1-0.1l-0.1-0.1
			c-0.1,0-0.1,0-0.1-0.1c-0.1,0-0.1,0-0.2,0v2.4h-0.6v-5.2h1.2c0.2,0,0.3,0,0.5,0c0.1,0,0.3,0,0.4,0.1c0.1,0,0.2,0.1,0.3,0.1
			c0.1,0,0.1,0.1,0.2,0.1s0.1,0.1,0.2,0.2s0.1,0.2,0.2,0.2c0,0.1,0.1,0.2,0.1,0.3c0,0.1,0,0.2,0,0.4c0,0.2,0,0.4-0.1,0.6
			s-0.2,0.3-0.3,0.5c-0.1,0.1-0.3,0.2-0.4,0.3c-0.2,0.1-0.4,0.1-0.6,0.1H380c0.1,0.1,0.2,0.2,0.3,0.3c0.1,0.1,0.2,0.2,0.2,0.3
			c0,0.1,0.1,0.2,0.2,0.3c0.1,0.1,0.2,0.3,0.3,0.5c0.1,0.2,0.2,0.3,0.3,0.5c0.1,0.2,0.2,0.3,0.2,0.4c0.1,0.1,0.1,0.1,0.1,0.2H381
			V361.8z"/>
		<line class="st1" x1="382.9" y1="361.8" x2="382.9" y2="356.6"/>
		<path class="st0" d="M388.1,361.5c-0.2,0.1-0.4,0.2-0.7,0.3c-0.3,0.1-0.5,0.1-0.8,0.1c-0.7,0-1.2-0.2-1.6-0.7
			c-0.2-0.2-0.4-0.5-0.5-0.9c-0.1-0.3-0.2-0.7-0.2-1.2s0.1-0.9,0.2-1.3s0.3-0.7,0.6-0.9c0.4-0.3,0.8-0.5,1.4-0.5s1,0.2,1.4,0.5
			l-0.3,0.4c-0.2-0.2-0.4-0.2-0.6-0.3c-0.2-0.1-0.4-0.1-0.6-0.1c-0.3,0-0.6,0.1-0.8,0.2c-0.2,0.1-0.4,0.4-0.5,0.7
			c-0.1,0.4-0.2,0.8-0.2,1.3c0,0.4,0,0.7,0.1,0.9c0.1,0.3,0.2,0.5,0.3,0.7c0.1,0.1,0.1,0.2,0.2,0.2c0.1,0.1,0.2,0.1,0.3,0.2
			c0.1,0.1,0.2,0.1,0.4,0.1c0.1,0,0.3,0,0.4,0c0.3,0,0.6-0.1,0.8-0.2v-1.6h-1l-0.1-0.5h1.8L388.1,361.5"/>
		<polygon class="st0" points="392.2,361.8 392.2,359.3 390,359.3 390,361.8 389.4,361.8 389.4,356.6 390,356.6 390,358.8 
			392.2,358.8 392.2,356.6 392.8,356.6 392.8,361.8 		"/>
		<polygon class="st0" points="397.1,357.1 395.7,357.1 395.7,361.8 395.1,361.8 395.1,357.1 393.7,357.1 393.7,356.6 397.1,356.6 
					"/>
		<path class="st0" d="M402.2,361.8h-2.9v-0.3c0.1-0.1,0.3-0.2,0.5-0.4c0.2-0.2,0.4-0.4,0.6-0.7c0.2-0.2,0.4-0.5,0.5-0.6
			c0.1-0.2,0.3-0.4,0.4-0.6s0.2-0.3,0.2-0.5c0-0.1,0.1-0.3,0.1-0.4c0-0.3-0.1-0.5-0.3-0.7c-0.2-0.2-0.4-0.3-0.7-0.3
			c-0.1,0-0.2,0-0.3,0c-0.1,0-0.2,0.1-0.3,0.1c-0.1,0-0.2,0.1-0.3,0.1c-0.1,0.1-0.2,0.1-0.3,0.2l-0.3-0.3c0.3-0.3,0.6-0.4,0.8-0.5
			c0.3-0.1,0.5-0.2,0.8-0.2c0.2,0,0.4,0,0.6,0.1s0.3,0.2,0.4,0.3c0.1,0.1,0.2,0.3,0.3,0.4c0.1,0.2,0.1,0.4,0.1,0.6s-0.1,0.4-0.1,0.7
			c-0.1,0.2-0.2,0.5-0.4,0.7c-0.2,0.2-0.4,0.5-0.7,0.8c-0.1,0.1-0.2,0.2-0.4,0.4c-0.1,0.1-0.2,0.2-0.3,0.3c-0.1,0.1-0.2,0.2-0.3,0.2
			c-0.1,0.1-0.1,0.1-0.2,0.1h0.1c0.1,0,0.1,0,0.2,0s0.2,0,0.3,0h1.6L402.2,361.8"/>
		<path class="st0" d="M406.2,359.3c0-0.3,0-0.5,0-0.7s-0.1-0.4-0.1-0.6c-0.1-0.3-0.2-0.5-0.4-0.6c-0.2-0.1-0.4-0.2-0.6-0.2
			c-0.1,0-0.3,0.1-0.4,0.2s-0.3,0.3-0.4,0.5c-0.2,0.3-0.3,0.8-0.3,1.4c0,0.3,0,0.5,0,0.8c0,0.2,0.1,0.4,0.1,0.6
			c0.1,0.3,0.2,0.5,0.4,0.6c0.2,0.2,0.3,0.2,0.5,0.2s0.3-0.1,0.5-0.2s0.3-0.3,0.4-0.5s0.1-0.4,0.2-0.6
			C406.2,359.9,406.2,359.6,406.2,359.3 M406.9,359.3c0,0.4-0.1,0.7-0.1,1.1c-0.1,0.3-0.2,0.6-0.4,0.8c-0.2,0.2-0.3,0.4-0.6,0.5
			c-0.2,0.1-0.5,0.2-0.7,0.2c-0.3,0-0.6-0.1-0.8-0.3c-0.2-0.2-0.4-0.4-0.5-0.7c-0.1-0.3-0.2-0.6-0.3-0.9c-0.1-0.3-0.1-0.6-0.1-0.9
			s0-0.7,0.1-1s0.2-0.6,0.4-0.8c0.2-0.2,0.3-0.4,0.6-0.5c0.2-0.1,0.4-0.2,0.7-0.2c0.2,0,0.4,0,0.6,0.1s0.3,0.2,0.5,0.3
			c0.1,0.1,0.2,0.3,0.3,0.4c0.1,0.2,0.2,0.4,0.2,0.5c0.1,0.2,0.1,0.4,0.1,0.6C406.8,359,406.9,359.1,406.9,359.3"/>
		<path class="st0" d="M411.1,359.3c0,0.4,0,0.7-0.1,1.1c-0.1,0.3-0.2,0.6-0.4,0.8c-0.2,0.2-0.3,0.4-0.6,0.5
			c-0.2,0.1-0.5,0.2-0.7,0.2c-0.3,0-0.6-0.1-0.8-0.3c-0.2-0.2-0.4-0.4-0.5-0.7c-0.1-0.3-0.2-0.6-0.3-0.9c-0.1-0.3-0.1-0.6-0.1-0.9
			s0-0.7,0.1-1s0.2-0.6,0.4-0.8c0.2-0.2,0.4-0.4,0.6-0.5s0.4-0.2,0.7-0.2c0.2,0,0.4,0,0.6,0.1s0.3,0.2,0.5,0.3
			c0.1,0.1,0.2,0.3,0.3,0.4c0.1,0.2,0.2,0.4,0.2,0.5c0.1,0.2,0.1,0.4,0.1,0.6C411.1,359,411.1,359.1,411.1,359.3"/>
	</g>
</g>
<g>
	<path class="st2" d="M249.9,138.8c24.2,6.7,42.2,9.8,42.2,9.8c-10.4-10.4-19.7-21.1-27.7-31.1c14-19.9,25.1-33.6,25.1-33.6
		c-14.9,3.3-29,7.3-41.6,11.5c-12-17.2-18.6-29.3-18.6-29.3c-3.5,12.9-5.2,25.8-5.8,38c-20,7.8-32.5,14.1-32.5,14.1
		c10.8,4.9,22.1,9.1,32.9,12.8c1.8,23.4,6.5,39.6,6.5,39.6C236.7,159.7,243.3,148.9,249.9,138.8L249.9,138.8z"/>
	<path class="st2" d="M360.4,132.7c-3.3,5.1-8.3,8.8-14.2,11.4c-0.8-16.5-3.3-31.1-3.3-31.1c-5,13.6-10.4,25.6-15.5,36
		c-17.7,2.3-35.1-0.3-35.1-0.3c9.5,11.5,17,18.2,23,22.8c-9,15.1-15.5,23.2-15.5,23.2c12.6-2.9,22.5-7.6,30.5-13.3
		c3.2,2.2,6,4.7,8.8,8.9c0,0,5.1-7.3,6.9-24.1C358.5,149.7,360.4,132.7,360.4,132.7L360.4,132.7z"/>
	<path class="st2" d="M354.6,86.9c-5.7-12.7-13.8-22.3-22.7-29.5c-7.6-15.9-16.3-23.3-16.3-23.3c0.7,3.7,0.2,7.8-1.2,12.1
		c-18.9-9.3-36.1-10.6-36.1-10.6c11,7.2,20.7,16.1,29,25.3c-7.7,12.5-17.8,23.1-17.8,23.1c13.4-3,24.2-4.3,32.8-4.5
		c13.3,18.3,20.4,33.6,20.4,33.6c0.3-12.3-1-23.1-3-32.4C351,82.7,354.6,86.9,354.6,86.9L354.6,86.9z"/>
	<path class="st2" d="M278.4,35.6c-9.2-4.6-17.9-7.8-26-10c10.4-8.8,20-11,20-11c-16.6-0.7-31,2.3-42.9,7
		c-17.9-1.4-29.3,1.7-29.3,1.7c2.7,2,4.9,5.6,7.3,9.9c-15.1,10.4-22.8,21.1-22.8,21.1c9.1-4.5,18.8-8,28.3-10.6
		c1,1.9,2.1,3.8,3.3,5.7c6.3,9.8,13.2,16.7,13.2,16.7c2.5-11.8,6.7-21,11.6-28.1C262.4,35,278.4,35.6,278.4,35.6L278.4,35.6z"/>
	<path class="st2" d="M163.5,71.8c5.7-5.5,12.6-11.5,21.1-17.6c0,0-7.8,0-16,2.1C174,43.2,180,35.9,180,35.9s-34.5,24.6-41.1,68.7
		c0,0,2.9-8,12.7-20c3.9,8.7,8.4,14.3,8.4,14.3C160.2,88.8,161.5,79.7,163.5,71.8L163.5,71.8z"/>
	<path class="st2" d="M191.2,118.1c-12,0.4-21.4,1.4-28.7,2.8c-2.1-12.8-2.4-22-2.4-22c-5.9,9-9.7,17.7-12.1,25.9
		c-8.3,3.1-10.5,6.1-10.5,6.1c1.3,4.4,3.9,8.8,7.2,12.8c-1,19.2,5.2,31.9,5.2,31.9c1.4-6.7,4.2-13.3,7.7-19.4
		c10.2,8.2,20.3,13.5,20.3,13.5c-4.8-8.6-8.3-18.1-10.9-27.4C178.5,127.9,191.2,118.1,191.2,118.1L191.2,118.1z"/>
	<path class="st2" d="M250.5,216.3c0,0-10.1-4-24.4-12.1c0.5-8.7,1.8-19.7,4.6-33.6c0,0-11.4,11.3-26.3,20.1
		c-8.6-5.9-17.6-12.9-26.4-21c0,0,4.3,13.2,12.5,27.7c-7.8,2.9-15.9,4.3-23.2,2.5c0,0,8.7,10.9,35.5,15.5
		c7.4,8.8,16.5,16.1,27.1,18.7c0,0-3.2-3.5-3.9-16.6C233.2,217.5,241.4,217.2,250.5,216.3L250.5,216.3z"/>
	<path class="st2" d="M299.1,215.2c2.3-10.6,0.6-20.5,0.6-20.5c-6.8,9.8-13.5,17.2-19.6,22.8c-16.6,0.9-29.6-1.3-29.6-1.3
		s7.4,7.4,16,11.7c-11.3,7-18.8,7.6-18.8,7.6c49.4,1,79.1-31.2,79.1-31.2C318.3,209.8,308.7,213.2,299.1,215.2L299.1,215.2z"/>
	<path class="st2" d="M195.8,346.6c12.5-14.3,30.9-23.3,51.3-23.3c21.1,0,39.9,9.6,52.4,24.6l3.3-3.1
		c-13.3-15.8-33.3-25.9-55.6-25.9c-21.7,0-41.2,9.5-54.6,24.7L195.8,346.6L195.8,346.6z"/>
	<polygon class="st2" points="241.4,310.5 221.4,314.6 216.4,290.5 236.1,286.4 237,290.8 224.1,293.5 225.1,298.6 237.5,296 
		238.4,300.4 226,303 227.2,308.8 240.5,306 241.4,310.5 	"/>
	<polygon class="st2" points="279.4,294.9 267.5,292.4 266.4,297.8 278.3,300.3 277.4,304.7 265.5,302.2 263.4,312.1 256.6,310.7 
		261.7,286.5 280.4,290.5 279.4,294.9 	"/>
	<path class="st2" d="M308.2,336.2l-5.9-5.6l0.9-5.3l-10.2-7.1l-4.5,2.8l-6.7-3.8l24-14.3l6.6,4.6L308.2,336.2L308.2,336.2
		L308.2,336.2z M306.2,309.8l-9.1,5.7l7.2,5L306.2,309.8L306.2,309.8z"/>
	<path class="st2" d="M198.6,326.3c-4.4,3.5-11.9,6.4-17.4-0.1l-7.9-10.2l5.3-4.2l7.8,10c2.8,3.3,6.3,2.7,9.1,0.5
		c2.8-2.2,4.2-5.5,1.7-9l-7.8-10l5.3-4.2l7.9,10.2C207.3,315.8,204.4,321.7,198.6,326.3L198.6,326.3z"/>
	<path class="st2" d="M332.5,312.1c-21.3-22.3-51.3-36.3-84.6-36.3c-33.7,0-64,14.3-85.3,37.1l-3.6-3.7c22.4-23.4,53.9-38,88.8-38
		c34.7,0,66,14.4,88.3,37.5L332.5,312.1L332.5,312.1z"/>
	<path class="st2" d="M356.3,410.2c-14.8,0-23.7-12.4-23.7-26c0-14.1,10.5-24.3,24.1-24.3c15.1,0,24.3,12,24.3,25.2
		C381,400.8,369.6,410.2,356.3,410.2L356.3,410.2L356.3,410.2z M355.5,367c-9.2,0-11.9,8.8-11.9,14.7c0,8.7,3.9,21.4,14.5,21.4
		c7.6,0,12-6.7,12-14.8C370,379.6,366.6,367,355.5,367L355.5,367z"/>
	<path class="st2" d="M265.9,403.1c0,2.7,0.5,3.6,4.8,4.5v1.9c-4.7-0.2-7.6-0.4-10.3-0.4c-2.7,0-5.6,0.2-8.9,0.4v-1.9
		c2.9-0.5,3.4-1.8,3.4-5.3V366c0-2.1-0.9-3-3.4-3.1v-2.1h22c13.7,0,18.7,6.5,18.7,15.1c0,9.2-7,14.8-16.5,14.8c-3.6,0-9-1.9-9-3.4
		c0-0.7,0.4-0.7,1.1-0.7c0.7,0,1.6,0.2,2.6,0.2c7.8,0,10.8-4.4,10.8-10.5c0-6.7-4.2-9-10.7-9l-4.6,0.5L265.9,403.1L265.9,403.1
		L265.9,403.1z M265.9,403.1L265.9,403.1L265.9,403.1L265.9,403.1z"/>
	<path class="st2" d="M306.5,365.6c0-2.1-0.9-3-3.4-3.1v-1.9c3.3,0.2,6.2,0.4,8.9,0.4c2.7,0,5.6-0.2,8.9-0.4v1.9
		c-2.5,0.1-3.4,1-3.4,3.1v38.9c0,2.1,0.9,3,3.4,3.1v1.9c-3.3-0.2-6.2-0.4-8.9-0.4c-2.7,0-5.6,0.2-8.9,0.4v-1.9
		c2.5-0.1,3.4-1,3.4-3.1V365.6L306.5,365.6z"/>
	<path class="st2" d="M395.8,365.6c0-2.1-0.9-3-3.4-3.1v-1.9c3.3,0.2,6.2,0.4,8.9,0.4c2,0,4.2,0,6.5-0.4l20.5,33.2l0.1,0v-27.1
		c0-3.8-2.4-4.1-4.4-4.1v-1.9c2.4,0.2,4.8,0.4,7.1,0.4c2.5,0,4.9-0.2,7.3-0.4v1.9c-2.5,0.1-3.4,1-3.4,3.1v43.9h-7.9l-24.6-38.3h-0.1
		v32.3c0,3.9,2.5,4.2,4.5,4.2v1.9c-2.5-0.2-4.8-0.4-7.1-0.4c-2.4,0-4.9,0.2-7.3,0.4l0-1.9c2.5-0.1,3.4-1,3.4-3.1V365.6L395.8,365.6z
		"/>
	<path class="st2" d="M453.6,392.6c1.5,8.3,7,12.2,15.2,12.2c4.5,0,11-1.3,11-7c0-4.6-4.7-5.8-8.2-6.9l-5.4-1.6
		c-7.8-2.3-15.6-5.6-15.6-14.6c0-11.8,11.5-15.4,22.8-15.4c4.8,0,9.8,0.8,14.2,2.4c0,5.5,0.3,10.1,0.6,14.1l-1.9,0
		c-1.6-7-7.3-10.3-14.2-10.3c-3.8,0-10.2,1.2-10.2,6.5c0,4.2,3.7,5.4,6.8,6.3l8,2.3c7.7,2.2,14.9,5,14.9,15
		c0,10.1-10.2,15.4-22.6,15.4c-5.6,0-11.4-0.9-16.6-2.7c0-6-0.2-11.3-0.6-15.7L453.6,392.6L453.6,392.6L453.6,392.6z M453.6,392.6
		L453.6,392.6L453.6,392.6L453.6,392.6z"/>
	<path class="st2" d="M67.9,365.6c0-2.1-0.9-3-3.4-3.1v-1.9c3.3,0.2,6.1,0.4,8.9,0.4c2.8,0,5.6-0.2,8.9-0.4v1.9
		c-2.5,0.1-3.4,1-3.4,3.1v14.7h18v-14.7c0-2.1-0.9-3-3.4-3.1v-1.9c3.3,0.2,6.2,0.4,8.9,0.4c2.7,0,5.6-0.2,8.9-0.4v1.9
		c-2.5,0.1-3.4,1-3.4,3.1l0,38.9c0,2.1,0.9,3,3.4,3.1v1.9c-3.3-0.2-6.2-0.4-8.9-0.4c-2.7,0-5.6,0.2-8.9,0.4v-1.9
		c2.5-0.1,3.4-1,3.4-3.1v-17.1h-18v17.1c0,2.1,0.9,3,3.4,3.1v1.9c-3.3-0.2-6.1-0.4-8.9-0.4c-2.7,0-5.6,0.2-8.9,0.4v-1.9
		c2.5-0.1,3.4-1,3.4-3.1L67.9,365.6L67.9,365.6L67.9,365.6z M67.9,365.6L67.9,365.6L67.9,365.6L67.9,365.6z"/>
	<path class="st2" d="M138.7,388.2c1.9-5.3,4.3-11.1,6-17.1h0.2c1.5,7.5,2.7,12.2,4.3,17.1H138.7L138.7,388.2L138.7,388.2z
		 M120.7,409.4c2.6-0.2,5.1-0.4,7.7-0.4c2.5,0,5.1,0.2,7.6,0.4v-1.9c-2.4-0.1-3.5-1-3.5-2.4c0-0.7,0.2-1.6,0.6-2.6l3.3-8.8h14.5
		l2.4,7.2c0.4,1,0.7,2.7,0.7,3.7c0,1.7-1,2.3-3.7,2.8v1.8c3.2-0.2,6.4-0.4,9.6-0.4c3.1,0,6.3,0.2,9.4,0.4v-1.9
		c-2.2-0.6-3.3-1.6-4.4-4.8l-13.6-42.2c-2.3,0.2-4.7,0.4-7,0.4c-2.3,0-4.6-0.2-7-0.4v1.9c2,0,2.8,1.2,2.8,1.9c0,0.7-0.5,1.8-1,2.9
		l-14.5,36.9c-0.8,1.9-1.7,3.1-3.9,3.4L120.7,409.4L120.7,409.4L120.7,409.4z"/>
	<path class="st2" d="M184.3,372.6c0.1-2.1,0.2-4.2,0.2-7.1c0-2.3-0.5-2.6-3.3-3v-1.9c2.2,0.2,4.9,0.4,7.6,0.4c2.7,0,5.3-0.2,8-0.4
		l13,34.4l11.6-34.4c2.6,0.2,5.1,0.4,7.7,0.4c2.6,0,5.2-0.2,7.7-0.4v1.9c-2.6,0.2-3,1-3,3c0,2.1,0.3,5.4,0.5,7.9l2.4,31.7
		c0.2,1.9,2.3,2.2,3.8,2.5l0,1.9c-3.2-0.2-6.5-0.4-9.7-0.4c-3.3,0-6.4,0.2-9.5,0.4v-1.9c3.6-0.4,4.6-1.1,4.6-4.5
		c0-1.8-0.2-5.1-0.4-7.6l-1.7-22.1h-0.2l-12.4,36.5H205l-14.2-36.9h-0.2l-0.6,21.7c-0.1,3.9-0.2,5.9-0.2,7.9c0,3.7,0.4,4.5,4.8,5
		v1.9c-3-0.2-5.7-0.4-8.5-0.4c-2.7,0-5.5,0.2-7.8,0.4v-1.9c2.9-0.2,4.1-0.9,4.2-4L184.3,372.6L184.3,372.6z"/>
	<path class="st2" d="M53.3,406.7c-5.1,3.9-12.4,5.5-17.1,5.5c-17.7,0-27.7-13.7-27.7-27.8c0-14.4,10-28.3,29.1-28.3
		c6.7,0,11.5,1.3,13.4,2c0,5.6,0.3,11,0.7,16.4l-2.1,0c-1.3-6.9-6.1-10.5-13-10.5c-9.3,0-16.5,7.3-16.5,19.8
		c0,9.3,7.7,19.9,18.5,19.9c4.6,0,11.2-2.5,15.6-6.2L53.3,406.7L53.3,406.7z"/>
	<path class="st2" d="M133.6,436.3c0-1.6-0.7-2.3-2.6-2.4v-1.6c2.5,0.2,4.8,0.3,6.9,0.3c2.4,0,5.9-0.2,7.6-0.3v1.6
		c-2.9,0.1-3.3,1.5-3.3,3.2v28l10.6,0c3.8,0,5.3-1.7,6.3-6.1h1.9c-0.7,3.7-1.3,7.4-1.4,11.1H131v-1.6c1.9-0.1,2.6-0.8,2.6-2.4V436.3
		L133.6,436.3z"/>
	<path class="st2" d="M170,436.5c0-1.6-0.7-2.4-2.6-2.4v-1.6l28.9,0c0.1,3.2,0.2,5.7,0.5,8.8h-1.6c-0.6-3.2-1.4-4.2-4.5-4.2h-12.2
		v11.1l7.6,0c2.6,0,3-0.9,3.3-2.9h1.6c-0.2,1.4-0.3,3.9-0.3,5.5c0,1.5,0.2,4.1,0.3,5.4h-1.6c-0.3-2.1-0.7-2.9-3.3-2.9h-7.6V465
		l12.9,0c3.1,0,4.1-1,5-5.8h1.9c-0.5,4.7-0.6,7.7-0.7,10.9h-30.3v-1.6c1.9-0.1,2.6-0.8,2.6-2.4V436.5L170,436.5z"/>
	<path class="st2" d="M205.2,468.5c1.7-0.2,2.4-1.1,3-2.6l11.2-28.4c0.3-0.9,0.7-1.7,0.7-2.2c0-0.6-0.6-1.5-2.2-1.5v-1.6
		c1.8,0.2,3.6,0.3,5.4,0.3c1.8,0,3.6-0.2,5.4-0.3l10.5,32.6c0.9,2.5,1.7,3.3,3.4,3.7v1.6c-2.4-0.2-4.9-0.3-7.3-0.3
		c-2.5,0-4.9,0.2-7.4,0.3v-1.6c2.1-0.4,2.9-0.9,2.9-2.2c0-0.8-0.3-2.1-0.6-2.9l-1.8-5.5h-11.2l-2.5,6.7c-0.3,0.8-0.5,1.4-0.5,2
		c0,1,0.8,1.7,2.7,1.8v1.6c-1.9-0.2-4-0.3-5.9-0.3c-2,0-4,0.2-6,0.3L205.2,468.5L205.2,468.5L205.2,468.5z M227.2,453.6
		c-1.2-3.7-2.2-7.4-3.3-13.1h-0.1c-1.3,4.6-3.2,9.1-4.6,13.1H227.2L227.2,453.6z"/>
	<path class="st2" d="M273.4,456.7c0-2.3-1-2.4-3.6-2.5v-1.9c2.3,0.2,4.7,0.3,7.1,0.3c2.6,0,5.1-0.2,7.7-0.3v1.8c-2,0.1-3,0.6-3,3.1
		v12.8l-3.3,0l-1.3-3.8c-3.6,3.4-7.4,4.6-11.3,4.6c-10.8,0-17.6-8.9-17.6-19.2c0-12.4,8.3-20,20.7-20c4,0,8.2,0.7,11.3,2.7
		c0,2.8,0.1,6,0.3,10l-1.6,0c-0.8-5.1-5.6-7.6-10.3-7.6c-8,0-11.8,6.1-11.8,13.5c0,7.1,4,15.1,10.6,15.1c4.1,0,6.3-1.9,6.3-4.5
		L273.4,456.7L273.4,456.7L273.4,456.7z M273.4,456.7L273.4,456.7L273.4,456.7L273.4,456.7z"/>
	<path class="st2" d="M296,436.3c0-1.6-0.7-2.3-2.6-2.4v-1.6c1.8,0.2,4.2,0.3,6.6,0.3c3,0,5.3-0.2,7.6-0.3v1.6
		c-2.5,0.1-3.1,0.6-3.1,2.8v21.4c0,6.5,2.7,7.7,7.3,7.7c4.6,0,7.3-1.4,7.3-7.7v-21.4c0-2.2-0.6-2.7-3.1-2.8v-1.6
		c2.3,0.2,4.6,0.3,7.6,0.3c2.4,0,4.8-0.2,6.6-0.3v1.6c-1.9,0.1-2.6,0.8-2.6,2.4v20.6c0,10.6-5.5,14-15.8,14
		c-10.3,0-15.8-3.4-15.8-13.2L296,436.3L296,436.3L296,436.3z M296,436.3L296,436.3L296,436.3L296,436.3z"/>
	<path class="st2" d="M342.4,436.5c0-1.6-0.7-2.4-2.6-2.4v-1.6l28.9,0c0.1,3.2,0.2,5.7,0.5,8.8h-1.6c-0.6-3.2-1.4-4.2-4.5-4.2h-12.2
		v10.9h7.6c2.6,0,3-0.9,3.3-2.9l1.6,0c-0.2,1.4-0.3,3.9-0.3,5.4c0,1.6,0.2,4.1,0.3,5.5h-1.6c-0.3-2.1-0.8-2.9-3.3-2.9h-7.6V465h12.9
		c3.1,0,4.1-1,5-5.8h1.9c-0.5,4.7-0.6,7.7-0.7,10.9h-30.2v-1.6c1.9-0.1,2.6-0.8,2.6-2.4V436.5L342.4,436.5z"/>
	<path class="st2" d="M379.6,485.5c3.7,0,6.9-2.9,6.9-6.9c0-3.9-3.2-6.8-6.9-6.8c-3.8,0-7,2.9-7,6.8
		C372.7,482.6,375.9,485.5,379.6,485.5L379.6,485.5L379.6,485.5z M374,478.7c0-3.2,2.4-5.7,5.6-5.7c3.1,0,5.5,2.4,5.5,5.7
		c0,3.3-2.4,5.7-5.5,5.7C376.5,484.4,374,482,374,478.7L374,478.7z M378.2,479.2h1.4l2.1,3.4h1.3l-2.2-3.5c1.2-0.1,2-0.8,2-2.2
		c0-1.5-0.9-2.2-2.8-2.2h-3v7.9h1.2L378.2,479.2L378.2,479.2L378.2,479.2z M378.2,478.2v-2.4l1.6,0c0.8,0,1.7,0.2,1.7,1.2
		c0,1.2-0.9,1.3-1.9,1.3H378.2L378.2,478.2z"/>
</g>
</svg>
