<?xml version="1.0" encoding="utf-8"?>
<!-- Generator: Adobe Illustrator 25.0.1, SVG Export Plug-In . SVG Version: 6.00 Build 0)  -->
<svg version="1.1" id="Layer_1" xmlns="http://www.w3.org/2000/svg" xmlns:xlink="http://www.w3.org/1999/xlink" x="0px" y="0px"
	 viewBox="0 0 500 500" style="enable-background:new 0 0 500 500;" xml:space="preserve">
<style type="text/css">
	.st0{display:none;fill:#FFFFFF;}
	.st1{display:none;fill:none;stroke:#FFFFFF;stroke-width:0.5621;stroke-miterlimit:10;}
	.st2{fill:#D20A0A;}
	.st3{fill-rule:evenodd;clip-rule:evenodd;fill:#D20A0A;}
</style>
<g>
	<g>
		<path class="st0" d="M354.1,355.2c-2.2,0-3.9,1.8-3.9,3.9c0,2.2,1.8,3.9,3.9,3.9c2.2,0,3.9-1.8,3.9-3.9S356.2,355.2,354.1,355.2
			 M357.4,359.2c0,1.9-1.5,3.4-3.3,3.4c-1.9,0-3.4-1.5-3.4-3.4c0-1.8,1.5-3.3,3.4-3.3C355.9,355.8,357.4,357.3,357.4,359.2"/>
		<path class="st0" d="M354,360.8c-0.9,0-1.7-0.8-1.7-1.7c0-0.9,0.8-1.7,1.7-1.7c0.7,0,1.2,0.4,1.5,1h0.5c-0.3-0.8-1.1-1.4-2-1.4
			c-1.2,0-2.1,1-2.1,2.1c0,1.2,1,2.1,2.1,2.1c1,0,1.8-0.6,2-1.5h-0.5C355.3,360.4,354.7,360.8,354,360.8"/>
		<path class="st0" d="M364.7,361.5c-0.2,0.1-0.4,0.2-0.7,0.3c-0.3,0.1-0.5,0.1-0.8,0.1s-0.6,0-0.8-0.2c-0.3-0.1-0.5-0.3-0.7-0.5
			c-0.2-0.3-0.4-0.6-0.5-0.9s-0.1-0.7-0.1-1.1s0.1-0.7,0.2-1.1c0.1-0.3,0.3-0.6,0.5-0.9c0.2-0.2,0.4-0.4,0.7-0.6
			c0.3-0.1,0.6-0.2,0.9-0.2c0.2,0,0.5,0,0.7,0.1s0.4,0.2,0.6,0.3l-0.3,0.4c-0.2-0.1-0.3-0.2-0.5-0.2c-0.2-0.1-0.3-0.1-0.5-0.1
			c-0.3,0-0.6,0.1-0.8,0.2c-0.2,0.1-0.4,0.4-0.5,0.7c-0.1,0.2-0.1,0.4-0.2,0.6c0,0.2,0,0.5,0,0.8c0,0.2,0,0.5,0,0.6
			c0,0.2,0.1,0.3,0.1,0.5c0.1,0.3,0.3,0.6,0.6,0.7c0.3,0.2,0.5,0.2,0.8,0.2c0.2,0,0.4,0,0.5-0.1c0.2-0.1,0.3-0.1,0.5-0.3
			L364.7,361.5"/>
		<path class="st0" d="M368.6,359.4c0-0.4,0-0.7-0.1-1c0-0.3-0.1-0.5-0.2-0.7s-0.2-0.4-0.4-0.5c-0.2-0.1-0.4-0.2-0.7-0.2
			c-0.2,0-0.5,0-0.7,0.1s-0.3,0.3-0.4,0.5s-0.2,0.4-0.2,0.6s-0.1,0.5-0.1,0.8c0,0.4,0,0.8,0.1,1.1c0.1,0.3,0.1,0.6,0.2,0.8
			c0.1,0.1,0.1,0.2,0.2,0.2c0.1,0.1,0.2,0.1,0.3,0.2c0.1,0.1,0.2,0.1,0.3,0.1c0.1,0,0.2,0,0.3,0c0.2,0,0.4,0,0.6-0.1
			s0.3-0.2,0.4-0.3c0.1-0.1,0.1-0.2,0.2-0.3c0-0.1,0.1-0.2,0.1-0.3c0-0.1,0.1-0.3,0.1-0.4C368.6,359.8,368.6,359.6,368.6,359.4
			 M369.3,359.3c0,0.5-0.1,0.9-0.2,1.3c-0.1,0.3-0.3,0.6-0.6,0.9c-0.2,0.2-0.4,0.3-0.6,0.4s-0.4,0.1-0.7,0.1c-0.3,0-0.6,0-0.9-0.2
			c-0.2-0.1-0.5-0.3-0.6-0.5c-0.4-0.5-0.6-1.2-0.6-2.1c0-0.4,0.1-0.8,0.2-1.1c0.1-0.3,0.2-0.6,0.4-0.8c0.2-0.2,0.4-0.4,0.7-0.5
			c0.3-0.1,0.5-0.2,0.9-0.2c0.2,0,0.4,0,0.6,0.1c0.2,0,0.3,0.1,0.5,0.2c0.1,0.1,0.3,0.2,0.3,0.3c0.1,0.1,0.2,0.2,0.2,0.3
			c0.2,0.2,0.3,0.5,0.4,0.8C369.3,358.5,369.3,358.9,369.3,359.3"/>
		<path class="st0" d="M373,358.2c0-0.4-0.1-0.7-0.3-0.8c-0.1-0.1-0.2-0.2-0.4-0.2c-0.2-0.1-0.4-0.1-0.6-0.1H371v2.1h0.9
			c0.2,0,0.4,0,0.5-0.1c0.1,0,0.2-0.1,0.3-0.2C372.9,358.7,373,358.5,373,358.2 M373.7,358.1c0,0.3,0,0.5-0.1,0.7s-0.2,0.4-0.4,0.5
			c-0.2,0.2-0.4,0.3-0.6,0.3c-0.2,0.1-0.4,0.1-0.7,0.1H371v2.1h-0.6v-5.2h1.5c0.3,0,0.5,0,0.7,0s0.3,0.1,0.5,0.2
			C373.5,357.1,373.7,357.5,373.7,358.1"/>
		<path class="st0" d="M376.1,359.8v2h-0.6v-2.1l-1.7-3.2h0.8l1,2c0,0.1,0.1,0.2,0.1,0.3c0,0.1,0.1,0.2,0.1,0.2c0,0.1,0,0.1,0,0.1
			c0.1-0.2,0.2-0.4,0.3-0.6l1-2h0.7L376.1,359.8"/>
		<path class="st0" d="M380.8,358c0-0.2,0-0.3-0.1-0.5s-0.2-0.3-0.4-0.3c-0.1,0-0.2-0.1-0.3-0.1c-0.1,0-0.2,0-0.4,0H379v2h0.6
			c0.2,0,0.4,0,0.6-0.1c0.1,0,0.3-0.1,0.4-0.2s0.2-0.2,0.2-0.3C380.8,358.3,380.8,358.2,380.8,358 M381,361.8c0-0.1-0.1-0.2-0.2-0.3
			c-0.1-0.1-0.2-0.3-0.3-0.5c-0.1-0.2-0.2-0.4-0.4-0.6c-0.1-0.2-0.3-0.4-0.5-0.6c0-0.1-0.1-0.1-0.1-0.1l-0.1-0.1
			c-0.1,0-0.1,0-0.1-0.1c-0.1,0-0.1,0-0.2,0v2.4h-0.6v-5.2h1.2c0.2,0,0.3,0,0.5,0c0.1,0,0.3,0,0.4,0.1c0.1,0,0.2,0.1,0.3,0.1
			c0.1,0,0.1,0.1,0.2,0.1s0.1,0.1,0.2,0.2s0.1,0.2,0.2,0.2c0,0.1,0.1,0.2,0.1,0.3c0,0.1,0,0.2,0,0.4c0,0.2,0,0.4-0.1,0.6
			s-0.2,0.3-0.3,0.5c-0.1,0.1-0.3,0.2-0.4,0.3c-0.2,0.1-0.4,0.1-0.6,0.1H380c0.1,0.1,0.2,0.2,0.3,0.3c0.1,0.1,0.2,0.2,0.2,0.3
			c0,0.1,0.1,0.2,0.2,0.3c0.1,0.1,0.2,0.3,0.3,0.5c0.1,0.2,0.2,0.3,0.3,0.5c0.1,0.2,0.2,0.3,0.2,0.4c0.1,0.1,0.1,0.1,0.1,0.2H381
			V361.8z"/>
		<line class="st1" x1="382.9" y1="361.8" x2="382.9" y2="356.6"/>
		<path class="st0" d="M388.1,361.5c-0.2,0.1-0.4,0.2-0.7,0.3c-0.3,0.1-0.5,0.1-0.8,0.1c-0.7,0-1.2-0.2-1.6-0.7
			c-0.2-0.2-0.4-0.5-0.5-0.9c-0.1-0.3-0.2-0.7-0.2-1.2s0.1-0.9,0.2-1.3s0.3-0.7,0.6-0.9c0.4-0.3,0.8-0.5,1.4-0.5s1,0.2,1.4,0.5
			l-0.3,0.4c-0.2-0.2-0.4-0.2-0.6-0.3c-0.2-0.1-0.4-0.1-0.6-0.1c-0.3,0-0.6,0.1-0.8,0.2c-0.2,0.1-0.4,0.4-0.5,0.7
			c-0.1,0.4-0.2,0.8-0.2,1.3c0,0.4,0,0.7,0.1,0.9c0.1,0.3,0.2,0.5,0.3,0.7c0.1,0.1,0.1,0.2,0.2,0.2c0.1,0.1,0.2,0.1,0.3,0.2
			c0.1,0.1,0.2,0.1,0.4,0.1c0.1,0,0.3,0,0.4,0c0.3,0,0.6-0.1,0.8-0.2v-1.6h-1l-0.1-0.5h1.8L388.1,361.5"/>
		<polygon class="st0" points="392.2,361.8 392.2,359.3 390,359.3 390,361.8 389.4,361.8 389.4,356.6 390,356.6 390,358.8 
			392.2,358.8 392.2,356.6 392.8,356.6 392.8,361.8 		"/>
		<polygon class="st0" points="397.1,357.1 395.7,357.1 395.7,361.8 395.1,361.8 395.1,357.1 393.7,357.1 393.7,356.6 397.1,356.6 
					"/>
		<path class="st0" d="M402.2,361.8h-2.9v-0.3c0.1-0.1,0.3-0.2,0.5-0.4c0.2-0.2,0.4-0.4,0.6-0.7c0.2-0.2,0.4-0.5,0.5-0.6
			c0.1-0.2,0.3-0.4,0.4-0.6s0.2-0.3,0.2-0.5c0-0.1,0.1-0.3,0.1-0.4c0-0.3-0.1-0.5-0.3-0.7c-0.2-0.2-0.4-0.3-0.7-0.3
			c-0.1,0-0.2,0-0.3,0c-0.1,0-0.2,0.1-0.3,0.1c-0.1,0-0.2,0.1-0.3,0.1c-0.1,0.1-0.2,0.1-0.3,0.2l-0.3-0.3c0.3-0.3,0.6-0.4,0.8-0.5
			c0.3-0.1,0.5-0.2,0.8-0.2c0.2,0,0.4,0,0.6,0.1s0.3,0.2,0.4,0.3c0.1,0.1,0.2,0.3,0.3,0.4c0.1,0.2,0.1,0.4,0.1,0.6s-0.1,0.4-0.1,0.7
			c-0.1,0.2-0.2,0.5-0.4,0.7c-0.2,0.2-0.4,0.5-0.7,0.8c-0.1,0.1-0.2,0.2-0.4,0.4c-0.1,0.1-0.2,0.2-0.3,0.3c-0.1,0.1-0.2,0.2-0.3,0.2
			c-0.1,0.1-0.1,0.1-0.2,0.1h0.1c0.1,0,0.1,0,0.2,0s0.2,0,0.3,0h1.6L402.2,361.8"/>
		<path class="st0" d="M406.2,359.3c0-0.3,0-0.5,0-0.7s-0.1-0.4-0.1-0.6c-0.1-0.3-0.2-0.5-0.4-0.6c-0.2-0.1-0.4-0.2-0.6-0.2
			c-0.1,0-0.3,0.1-0.4,0.2s-0.3,0.3-0.4,0.5c-0.2,0.3-0.3,0.8-0.3,1.4c0,0.3,0,0.5,0,0.8c0,0.2,0.1,0.4,0.1,0.6
			c0.1,0.3,0.2,0.5,0.4,0.6c0.2,0.2,0.3,0.2,0.5,0.2s0.3-0.1,0.5-0.2s0.3-0.3,0.4-0.5s0.1-0.4,0.2-0.6
			C406.2,359.9,406.2,359.6,406.2,359.3 M406.9,359.3c0,0.4-0.1,0.7-0.1,1.1c-0.1,0.3-0.2,0.6-0.4,0.8c-0.2,0.2-0.3,0.4-0.6,0.5
			c-0.2,0.1-0.5,0.2-0.7,0.2c-0.3,0-0.6-0.1-0.8-0.3c-0.2-0.2-0.4-0.4-0.5-0.7c-0.1-0.3-0.2-0.6-0.3-0.9c-0.1-0.3-0.1-0.6-0.1-0.9
			s0-0.7,0.1-1s0.2-0.6,0.4-0.8c0.2-0.2,0.3-0.4,0.6-0.5c0.2-0.1,0.4-0.2,0.7-0.2c0.2,0,0.4,0,0.6,0.1s0.3,0.2,0.5,0.3
			c0.1,0.1,0.2,0.3,0.3,0.4c0.1,0.2,0.2,0.4,0.2,0.5c0.1,0.2,0.1,0.4,0.1,0.6C406.8,359,406.9,359.1,406.9,359.3"/>
		<path class="st0" d="M411.1,359.3c0,0.4,0,0.7-0.1,1.1c-0.1,0.3-0.2,0.6-0.4,0.8c-0.2,0.2-0.3,0.4-0.6,0.5
			c-0.2,0.1-0.5,0.2-0.7,0.2c-0.3,0-0.6-0.1-0.8-0.3c-0.2-0.2-0.4-0.4-0.5-0.7c-0.1-0.3-0.2-0.6-0.3-0.9c-0.1-0.3-0.1-0.6-0.1-0.9
			s0-0.7,0.1-1s0.2-0.6,0.4-0.8c0.2-0.2,0.4-0.4,0.6-0.5s0.4-0.2,0.7-0.2c0.2,0,0.4,0,0.6,0.1s0.3,0.2,0.5,0.3
			c0.1,0.1,0.2,0.3,0.3,0.4c0.1,0.2,0.2,0.4,0.2,0.5c0.1,0.2,0.1,0.4,0.1,0.6C411.1,359,411.1,359.1,411.1,359.3"/>
	</g>
</g>
<g>
	<polygon class="st2" points="334.5,201.7 207.7,201.7 218.3,163.8 345.1,163.8 	"/>
	<polygon class="st2" points="248.6,265.8 316.8,265.8 327.3,227.9 200.5,227.9 170.4,336.2 229.1,336.2 	"/>
	<path class="st3" d="M392.4,297c-1.4-0.7-2.4-2-2.9-3.5c-0.1-0.4-0.1-0.9-0.1-1.3c0-0.4,0.1-0.8,0.2-1.3l22.9-82.8
		c0.7-2.4,1.8-4.1,3.5-5s4.5-1.4,8.6-1.4h63.3l10.5-37.9h-88.8c-16.2,0-27.5,1.9-34,5.6S364.6,179.5,362,189l-32.8,118
		c-0.5,1.7-0.8,3.4-0.9,5.2c-0.1,1.8,0.1,3.5,0.5,5.2c1.5,5.8,5.2,10.3,11.3,13.8c6,3.3,13.5,5,22.4,5h92.9l10.5-37.9h-67.9
		C396.1,298.4,394.2,297.9,392.4,297"/>
	<path class="st3" d="M42.1,163.8L2.3,307c-0.5,1.7-0.8,3.4-0.9,5.2c-0.1,1.8,0.1,3.5,0.5,5.2c1.5,5.8,5.2,10.3,11.3,13.8
		c6,3.3,13.4,5,22.4,5h66.1c16.2,0,27.5-1.9,34-5.6c6.6-3.6,11.1-10.1,13.8-19.6l40.9-147.3h-58.7L96.2,291.9
		c-0.7,2.4-1.8,4.1-3.5,5s-4.5,1.4-8.7,1.4H73.9c-2,0.1-3.9-0.4-5.7-1.3c-1.4-0.7-2.5-2-2.9-3.5c-0.1-0.4-0.1-0.9-0.1-1.3
		c0-0.4,0.1-0.8,0.2-1.3l35.2-127.2H42.1z"/>
</g>
</svg>
