<svg xmlns="http://www.w3.org/2000/svg" width="21" height="21" viewBox="0 0 21 21" fill="none">
                            <path fill-rule="evenodd" clip-rule="evenodd" d="M7.50294 0.521277C7.48178 0.476807 7.43123 0.454539 7.38419 0.469122C5.59671 1.02322 4.01358 2.04195 2.77598 3.38414C2.73596 3.42755 2.74284 3.49593 2.78983 3.53168C4.01522 4.46385 4.98729 5.71187 5.58467 7.15437C5.60308 7.19882 5.65023 7.22434 5.69743 7.21506C6.88261 6.98216 8.09812 6.83385 9.33742 6.77669C9.39726 6.77393 9.44152 6.71971 9.43171 6.66062C9.07248 4.49878 8.41499 2.43776 7.50294 0.521277ZM1.72008 4.73472C1.75131 4.68726 1.81595 4.67595 1.86129 4.71018C2.8124 5.42823 3.58098 6.37522 4.0851 7.46919C4.11081 7.52499 4.07949 7.59007 4.02019 7.60611C2.72329 7.95681 1.46861 8.41029 0.265433 8.95725C0.193343 8.99003 0.113317 8.93049 0.125646 8.85227C0.362397 7.35015 0.917646 5.95386 1.72008 4.73472ZM4.61381 9.10925C4.60291 9.05313 4.54665 9.01837 4.49141 9.0331C2.94355 9.4458 1.45923 10.0142 0.0562606 10.7205C0.0218558 10.7379 0.000531199 10.7736 0.001655 10.8121C0.0603414 12.8227 0.684279 14.6916 1.72008 16.2653C1.75131 16.3127 1.81597 16.324 1.86131 16.2898C3.61415 14.9665 4.74707 12.8655 4.74707 10.5C4.74707 10.0243 4.70126 9.55935 4.61381 9.10925ZM18.9748 4.46717C19.0193 4.43743 19.0793 4.44885 19.11 4.49274C20.0009 5.76775 20.616 7.24979 20.8686 8.85228C20.8809 8.9305 20.8009 8.99003 20.7288 8.95726C19.3889 8.34816 17.9852 7.855 16.5305 7.49059C16.4694 7.47531 16.4371 7.40829 16.4645 7.35165C17.03 6.18033 17.9013 5.1843 18.9748 4.46717ZM18.0119 3.16666C18.0551 3.21092 18.0473 3.28331 17.9966 3.31869C16.6584 4.25223 15.5934 5.55025 14.9454 7.06884C14.927 7.11205 14.8812 7.13706 14.835 7.12888C13.6024 6.91098 12.3383 6.78429 11.05 6.75606C11.0013 6.75499 10.9603 6.71908 10.9528 6.67092C10.6015 4.40884 9.94384 2.24807 9.02358 0.232357C8.99581 0.171521 9.03405 0.100902 9.10034 0.09209C9.5573 0.0313508 10.0235 0 10.4971 0C13.4428 0 16.1051 1.21296 18.0119 3.16666ZM18.9748 16.5328C19.0193 16.5626 19.0793 16.5512 19.11 16.5073C20.2438 14.8847 20.9308 12.9268 20.9926 10.8121C20.9937 10.7736 20.9724 10.7379 20.938 10.7205C19.3913 9.9419 17.7459 9.33086 16.0254 8.91125C15.9713 8.89805 15.9169 8.93182 15.9053 8.98629C15.8016 9.4745 15.7471 9.98088 15.7471 10.5C15.7471 13.016 17.0287 15.2327 18.9748 16.5328ZM14.3535 8.56834C14.4099 8.57776 14.4466 8.63263 14.4348 8.68858C14.3118 9.27303 14.2471 9.87896 14.2471 10.5C14.2471 13.4732 15.73 16.1001 17.9966 17.6813C18.0473 17.7167 18.0551 17.7891 18.0119 17.8333C16.1051 19.787 13.4428 21 10.4971 21C10.0235 21 9.5573 20.9686 9.10034 20.9079C9.03405 20.8991 8.9958 20.8285 9.02357 20.7677C10.4515 17.6399 11.2472 14.1629 11.2472 10.5C11.2472 9.78277 11.2167 9.07267 11.1569 8.37092C11.1518 8.31128 11.1997 8.26034 11.2595 8.26227C12.3099 8.29611 13.3427 8.39962 14.3535 8.56834ZM9.74722 10.5C9.74722 9.77829 9.71434 9.06426 9.64999 8.35933C9.64518 8.3066 9.59991 8.26693 9.54701 8.26906C8.3931 8.31544 7.26085 8.44592 6.1562 8.65453C6.10124 8.66491 6.06577 8.71853 6.07675 8.77338C6.18847 9.33157 6.24707 9.90894 6.24707 10.5C6.24707 13.3434 4.89078 15.8701 2.78984 17.4683C2.74285 17.5041 2.73596 17.5724 2.77598 17.6159C4.01358 18.958 5.59671 19.9768 7.38419 20.5309C7.43123 20.5455 7.48177 20.5232 7.50294 20.4787C8.9419 17.455 9.74722 14.0716 9.74722 10.5Z" fill="#F2F2F2" />
                        </svg>