<svg
                            xmlns="http://www.w3.org/2000/svg"
                            xmlnsXlink="http://www.w3.org/1999/xlink"
                            version="1.1"
                            id="_x32_"
                            width="21px"
                            height="21px"
                            viewBox="0 0 512 512"
                            xmlSpace="preserve"
                        >
                            <g>
                                <path
                                    fill="#F2F2F2"
                                    d="M107.292,151.332c0,0,27.203-0.859,52.641,5.484c38.563,9.656,63.766,27.625,74.906,53.453
        c7.094,16.438,7.656,34.938,2.078,53.688c3.156,6.547,9.875,16.594,23.719,25.484c22.828,14.656,67.906,27.688,154.281,11.891
        c81.547-62.141,74.204-163.563,25-225.703c-45.063-56.922-177.875-87.75-251.391-71.156c-62.844,14.188-85.891,69.969-90.125,92.5
        c-4.125,22.047-3.109,39.953-3.109,39.953C94.729,144.191,100.057,150.582,107.292,151.332z"
                                />
                                <path
                                    fill="#F2F2F2"
                                    d="M343.182,341.879c-42.453,0-76.641-8.547-102.203-25.625c-10.359-6.922-18.047-14.438-23.719-21.578
        c-4.969,1.734-10.594,1.484-15.531-1.297c-9.141-5.125-12.406-16.688-7.281-25.813c5.016-8.953,12.422-26.359,5.563-42.25
        c-6.125-14.203-23.172-25.141-49.297-31.672c-32.266-8.078-60.281-7.828-81.844,0.047c-40.422,19.484-42.672,76.016-15.531,116.719
        c30.063,45.094,109.094,83,109.094,97.234s0,50.578,0,50.578c0,29.703,24.078,53.781,53.781,53.781h139.094
        c29.703,0,53.781-24.078,53.781-53.781c0,0,0-72.891,0-122.297C385.354,339.754,363.26,341.879,343.182,341.879z M351.338,454.676
        c-1.641,3.375-5.016,5.344-8.547,5.344c-1.375,0-2.797-0.297-4.125-0.938l-39.078-18.891l-51.016,27.047
        c-1.422,0.75-2.938,1.094-4.438,1.094c-3.391,0-6.688-1.828-8.391-5.047c-2.453-4.625-0.688-10.359,3.953-12.828l38.703-20.5
        l-39.078-18.891c-4.703-2.281-6.688-7.953-4.406-12.672c2.297-4.703,7.938-6.672,12.672-4.406l51.609,24.938l38.5-20.391
        c4.609-2.453,10.359-0.688,12.813,3.938c2.469,4.625,0.688,10.375-3.938,12.828l-26.188,13.859l26.547,12.844
        C351.651,444.27,353.62,449.941,351.338,454.676z"
                                />
                            </g>
                        </svg>