<svg xmlns="http://www.w3.org/2000/svg" width="21" height="21" viewBox="0 0 21 21" fill="none">
                            <path fill-rule="evenodd" clip-rule="evenodd" d="M10.0775 0C5.67792 0.174117 1.97427 3.05525 0.586175 7.02378C0.590856 7.02965 0.595465 7.0356 0.6 7.04165C1.63004 8.41503 2.92583 9.28837 4.33188 10.0027C4.99875 10.3415 5.67917 10.6391 6.37105 10.9418L6.49705 10.997C7.22416 11.3153 7.96477 11.6426 8.66624 12.0178C10.0779 12.7729 11.3907 13.7522 12.2612 15.3614C12.9795 16.6891 13.3615 18.38 13.3244 20.6074C17.34 19.4886 20.3858 16.0429 20.9174 11.8148C19.0215 11.8611 17.5858 11.4709 16.4639 10.7153C15.1371 9.82179 14.3628 8.49074 13.7515 7.10727C13.4972 6.53177 13.262 5.92461 13.029 5.32333C12.982 5.20194 12.9351 5.08079 12.8881 4.96018C12.6049 4.23331 12.3153 3.51326 11.974 2.81202C11.4819 1.80061 10.8888 0.842641 10.0775 0ZM20.9985 10.3119C19.2648 10.3725 18.1209 10.0228 17.3018 9.47114C16.3316 8.81776 15.6997 7.80506 15.1235 6.50103C14.8846 5.96039 14.6644 5.39211 14.4316 4.79132L14.4316 4.79127C14.3836 4.66747 14.3351 4.5423 14.2858 4.4157C14.0006 3.68359 13.6925 2.91535 13.3228 2.15566C12.9869 1.46527 12.5975 0.776418 12.121 0.116013C17.0928 0.886471 20.9117 5.1449 20.9985 10.3119ZM10.5 20.9917C10.9457 20.9917 11.3849 20.9639 11.8161 20.91C11.8953 18.6891 11.5357 17.1727 10.9419 16.0751C10.2656 14.8249 9.23459 14.0229 7.95876 13.3405C7.31648 12.9969 6.6274 12.6915 5.89553 12.3711L5.76052 12.312L5.7605 12.312L5.76036 12.3119C5.07688 12.013 4.35936 11.6991 3.65249 11.34C2.42776 10.7178 1.20246 9.94444 0.133556 8.8124C0.0456687 9.35919 0 9.92009 0 10.4917C0 16.2906 4.70101 20.9917 10.5 20.9917Z" fill="#F2F2F2" />
                        </svg>